<svg xmlns="http://www.w3.org/2000/svg" xmlns:xlink="http://www.w3.org/1999/xlink" width="103" height="103" viewBox="0 0 103 103">
  <defs>
    <filter id="Trazado_978624" x="0" y="0" width="103" height="103" filterUnits="userSpaceOnUse">
      <feOffset dy="3" input="SourceAlpha"/>
      <feGaussianBlur stdDeviation="3" result="blur"/>
      <feFlood flood-opacity="0.161"/>
      <feComposite operator="in" in2="blur"/>
      <feComposite in="SourceGraphic"/>
    </filter>
  </defs>
  <g id="Grupo_1229357" data-name="Grupo 1229357" transform="translate(-614 -2764)">
    <g id="Grupo_1228376" data-name="Grupo 1228376" transform="translate(442.131 981.672)">
      <g id="Grupo_1227500" data-name="Grupo 1227500" transform="translate(0.869 640.328)">
        <g id="Grupo_1225355" data-name="Grupo 1225355" transform="translate(180 1148)">
          <g id="Grupo_1176881" data-name="Grupo 1176881">
            <g id="Grupo_1175148" data-name="Grupo 1175148">
              <g id="Grupo_1173798" data-name="Grupo 1173798">
                <g id="Grupo_1171925" data-name="Grupo 1171925">
                  <g id="Grupo_1164524" data-name="Grupo 1164524">
                    <g id="Grupo_1144123" data-name="Grupo 1144123">
                      <g transform="matrix(1, 0, 0, 1, -9, -6)" filter="url(#Trazado_978624)">
                        <g id="Trazado_978624-2" data-name="Trazado 978624" transform="translate(9 6)" fill="#e5fdfa">
                          <path d="M 42.5 83.5 C 36.96437835693359 83.5 31.59512901306152 82.41617584228516 26.54141235351562 80.27863311767578 C 21.65934181213379 78.21369171142578 17.27447128295898 75.25723266601562 13.50862312316895 71.49137878417969 C 9.742764472961426 67.72553253173828 6.786305904388428 63.34066009521484 4.721364498138428 58.45858764648438 C 2.583823442459106 53.40486907958984 1.5 48.03562164306641 1.5 42.5 C 1.5 36.96437835693359 2.583823442459106 31.59512901306152 4.721364498138428 26.54141235351562 C 6.786305904388428 21.65934181213379 9.742764472961426 17.27447128295898 13.50862312316895 13.50862312316895 C 17.27447128295898 9.742764472961426 21.65934181213379 6.786305904388428 26.54141235351562 4.721364498138428 C 31.59512901306152 2.583823442459106 36.96437835693359 1.5 42.5 1.5 C 48.03562164306641 1.5 53.40486907958984 2.583823442459106 58.45858764648438 4.721364498138428 C 63.34066009521484 6.786305904388428 67.72553253173828 9.742764472961426 71.49137878417969 13.50862312316895 C 75.25723266601562 17.27447128295898 78.21369171142578 21.65934181213379 80.27863311767578 26.54141235351562 C 82.41617584228516 31.59512901306152 83.5 36.96437835693359 83.5 42.5 C 83.5 48.03562164306641 82.41617584228516 53.40486907958984 80.27863311767578 58.45858764648438 C 78.21369171142578 63.34066009521484 75.25723266601562 67.72553253173828 71.49137878417969 71.49137878417969 C 67.72553253173828 75.25723266601562 63.34066009521484 78.21369171142578 58.45858764648438 80.27863311767578 C 53.40486907958984 82.41617584228516 48.03562164306641 83.5 42.5 83.5 Z" stroke="none"/>
                          <path d="M 42.5 3 C 37.16621398925781 3 31.99356079101562 4.043960571289062 27.125732421875 6.102882385253906 C 22.42246627807617 8.092185974121094 18.19785308837891 10.94070434570312 14.56928253173828 14.56928253173828 C 10.94070434570312 18.19785308837891 8.092185974121094 22.42246627807617 6.102882385253906 27.125732421875 C 4.043960571289062 31.99356079101562 3 37.16621398925781 3 42.5 C 3 47.83378601074219 4.043960571289062 53.00643920898438 6.102882385253906 57.87425231933594 C 8.092185974121094 62.57753372192383 10.94070434570312 66.80213165283203 14.56928253173828 70.43071746826172 C 18.19786834716797 74.05929565429688 22.42246627807617 76.90781402587891 27.125732421875 78.89711761474609 C 31.99356079101562 80.95603942871094 37.16621398925781 82 42.5 82 C 47.83378601074219 82 53.00642395019531 80.95603942871094 57.87425231933594 78.89711761474609 C 62.57753372192383 76.90781402587891 66.80213165283203 74.05929565429688 70.43071746826172 70.43071746826172 C 74.05929565429688 66.80213165283203 76.90781402587891 62.57753372192383 78.89711761474609 57.87425231933594 C 80.95603942871094 53.00642395019531 82 47.83378601074219 82 42.5 C 82 37.16621398925781 80.95603942871094 31.99356079101562 78.89711761474609 27.125732421875 C 76.90781402587891 22.42246627807617 74.05929565429688 18.19786834716797 70.43071746826172 14.56928253173828 C 66.80213165283203 10.94070434570312 62.57753372192383 8.092185974121094 57.87425231933594 6.102882385253906 C 53.00643920898438 4.043960571289062 47.83378601074219 3 42.5 3 M 42.5 0 C 65.97209167480469 0 85 19.02789306640625 85 42.5 C 85 65.97209167480469 65.97209167480469 85 42.5 85 C 19.02789306640625 85 0 65.97209167480469 0 42.5 C 0 19.02789306640625 19.02789306640625 0 42.5 0 Z" stroke="none" fill="#098576"/>
                        </g>
                      </g>
                    </g>
                  </g>
                </g>
              </g>
            </g>
          </g>
        </g>
      </g>
    </g>
    <g id="bussiness-Workflow-website-management" transform="translate(639.567 2786.567)">
      <path id="Trazado_1219041" data-name="Trazado 1219041" d="M3,15H49.27V51.7H3Z" transform="translate(-0.202 -2.629)" fill="#e1ecfd"/>
      <path id="Trazado_1219042" data-name="Trazado 1219042" d="M3,7H49.27v6.382H3Z" transform="translate(-0.202 -1.011)" fill="#8e95a3"/>
      <path id="Trazado_1219043" data-name="Trazado 1219043" d="M53.573,48v7.18H44V48h9.573Z" transform="translate(-8.494 -9.303)" fill="#ee8647"/>
      <path id="Trazado_1219044" data-name="Trazado 1219044" d="M17.573,48v7.18H8V48h9.573Z" transform="translate(-1.213 -9.303)" fill="#dd636e"/>
      <path id="Trazado_1219045" data-name="Trazado 1219045" d="M35.573,48v7.18H26V48h9.573Z" transform="translate(-4.854 -9.303)" fill="#499f96"/>
      <path id="Trazado_1219046" data-name="Trazado 1219046" d="M35.573,20v7.18H26V20Z" transform="translate(-4.854 -3.64)" fill="#f6cc4f"/>
      <path id="Trazado_1219047" data-name="Trazado 1219047" d="M12.787,6.191V9.382H8V3h4.787Z" transform="translate(-1.213 -0.202)" fill="#3e3d42"/>
      <path id="Trazado_1219048" data-name="Trazado 1219048" d="M54.787,6.191V9.382H50V3h4.787Z" transform="translate(-9.708 -0.202)" fill="#3e3d42"/>
      <path id="Trazado_1219049" data-name="Trazado 1219049" d="M49.067,5.191H45.876V2.8a.8.8,0,0,0-.8-.8H40.292a.8.8,0,0,0-.8.8V5.191H12.371V2.8a.8.8,0,0,0-.8-.8H6.787a.8.8,0,0,0-.8.8V5.191H2.8a.8.8,0,0,0-.8.8V49.067a.8.8,0,0,0,.8.8h46.27a.8.8,0,0,0,.8-.8V5.989A.8.8,0,0,0,49.067,5.191ZM41.09,3.6h3.191V8.382H41.09ZM7.584,3.6h3.191V8.382H7.584ZM48.27,48.27H3.6v-35.1H48.27Zm0-36.7H3.6V6.787H5.989V9.18a.8.8,0,0,0,.8.8h4.787a.8.8,0,0,0,.8-.8V6.787H39.494V9.18a.8.8,0,0,0,.8.8h4.787a.8.8,0,0,0,.8-.8V6.787H48.27Z"/>
      <path id="Trazado_1219050" data-name="Trazado 1219050" d="M46.09,41.337H42.1V34.955a.8.8,0,0,0-.8-.8H27.742V27.775H31.73a.8.8,0,0,0,.8-.8V19.8a.8.8,0,0,0-.8-.8H22.157a.8.8,0,0,0-.8.8v7.18a.8.8,0,0,0,.8.8h3.989v6.382H12.584a.8.8,0,0,0-.8.8v6.382H7.8a.8.8,0,0,0-.8.8v7.18a.8.8,0,0,0,.8.8h9.573a.8.8,0,0,0,.8-.8v-7.18a.8.8,0,0,0-.8-.8H13.382V35.753H26.146v5.584H22.157a.8.8,0,0,0-.8.8v7.18a.8.8,0,0,0,.8.8H31.73a.8.8,0,0,0,.8-.8v-7.18a.8.8,0,0,0-.8-.8H27.742V35.753H40.506v5.584H36.517a.8.8,0,0,0-.8.8v7.18a.8.8,0,0,0,.8.8H46.09a.8.8,0,0,0,.8-.8v-7.18A.8.8,0,0,0,46.09,41.337Zm-29.517,1.6v5.584H8.6V42.933Zm14.36,0v5.584H22.955V42.933ZM22.955,26.18V20.6h7.978V26.18ZM45.292,48.517H37.315V42.933h7.978Z" transform="translate(-1.011 -3.438)"/>
    </g>
  </g>
</svg>
