<svg xmlns="http://www.w3.org/2000/svg" xmlns:xlink="http://www.w3.org/1999/xlink" width="295" height="186" viewBox="0 0 295 186">
  <defs>
    <clipPath id="clip-path">
      <rect id="Rectángulo_422633" data-name="Rectángulo 422633" width="295" height="186" transform="translate(285 356)" fill="#fff" stroke="#707070" stroke-width="1"/>
    </clipPath>
    <clipPath id="clip-path-2">
      <rect id="Rectángulo_422631" data-name="Rectángulo 422631" width="319" height="213" transform="translate(0 -0.333)" fill="none"/>
    </clipPath>
    <clipPath id="clip-path-3">
      <rect id="Rectángulo_422590" data-name="Rectángulo 422590" width="165.526" height="90.73" fill="none"/>
    </clipPath>
    <clipPath id="clip-path-4">
      <rect id="Rectángulo_422591" data-name="Rectángulo 422591" width="10.965" height="45.183" fill="none"/>
    </clipPath>
    <clipPath id="clip-path-5">
      <rect id="Rectángulo_422592" data-name="Rectángulo 422592" width="5.966" height="51.627" fill="none"/>
    </clipPath>
    <clipPath id="clip-path-6">
      <rect id="Rectángulo_422600" data-name="Rectángulo 422600" width="44.002" height="81.151" fill="none"/>
    </clipPath>
    <clipPath id="clip-path-7">
      <rect id="Rectángulo_422610" data-name="Rectángulo 422610" width="31.843" height="37.659" fill="none"/>
    </clipPath>
    <clipPath id="clip-path-8">
      <rect id="Rectángulo_422612" data-name="Rectángulo 422612" width="8.694" height="44.734" fill="none"/>
    </clipPath>
    <clipPath id="clip-path-9">
      <rect id="Rectángulo_422613" data-name="Rectángulo 422613" width="6.034" height="63.634" fill="none"/>
    </clipPath>
    <clipPath id="clip-path-10">
      <rect id="Rectángulo_422630" data-name="Rectángulo 422630" width="73.217" height="71.386" fill="none"/>
    </clipPath>
  </defs>
  <g id="Enmascarar_grupo_1208508" data-name="Enmascarar grupo 1208508" transform="translate(-285 -356)" clip-path="url(#clip-path)">
    <g id="Grupo_1228690" data-name="Grupo 1228690" transform="translate(-1096.647 140.569)">
      <g id="Grupo_1228689" data-name="Grupo 1228689" transform="translate(1371.647 209.765)">
        <g id="Grupo_1228688" data-name="Grupo 1228688" transform="translate(0 0)" clip-path="url(#clip-path-2)">
          <path id="Trazado_1218218" data-name="Trazado 1218218" d="M129.372,159.429a2.679,2.679,0,0,0,.328-2.595c-.945-2.545-2.754-3.563-7-3.563-.149,0-.3,0-.442.007-.031-2.621-2.85-4.863-4.834-5.075-5.761-.617-18.042-.872-21.853.339a4.873,4.873,0,0,0-3.633,4.781c0,.053,0,.1.005.157a9.409,9.409,0,0,0-1.493-.119c-3.842,0-6.956,2.277-6.956,5.086a3.807,3.807,0,0,0,.171,1.119c-.057,0-.114,0-.171,0-.178,0-.355.005-.53.013h-.388a3.251,3.251,0,0,0-.882.123c-4,.612-7,3.222-7,6.348,0,3.581,2.963,6.4,10.214,6.4h44.76c3.9,0,6.475-3.816,6.475-6.533,0-3.344-2.957-6.1-6.77-6.483" transform="translate(-42.639 -84.722)" fill="#fff"/>
          <path id="Trazado_1218219" data-name="Trazado 1218219" d="M585.372,256.1a2.679,2.679,0,0,0,.328-2.595c-.945-2.546-2.754-3.564-7-3.564q-.223,0-.442.007c-.031-2.621-2.85-4.864-4.834-5.076-5.761-.617-18.042-.871-21.853.339a4.873,4.873,0,0,0-3.633,4.781c0,.052,0,.1.005.156a9.509,9.509,0,0,0-1.493-.119c-3.842,0-6.956,2.277-6.956,5.086a3.8,3.8,0,0,0,.171,1.119c-.057,0-.114,0-.171,0-.178,0-.355,0-.53.012h-.388a3.221,3.221,0,0,0-.882.124c-4,.612-7,3.222-7,6.348,0,3.581,2.963,6.4,10.214,6.4h44.76c3.9,0,6.475-3.816,6.475-6.533,0-3.344-2.957-6.1-6.77-6.483" transform="translate(-304.879 -140.314)" fill="#fff"/>
          <rect id="Rectángulo_422564" data-name="Rectángulo 422564" width="24.376" height="21.402" transform="translate(149.134 141.985)" fill="#2d4c7f"/>
          <rect id="Rectángulo_422565" data-name="Rectángulo 422565" width="90.599" height="6.81" transform="translate(116.023 162.728)" fill="#4e73a8"/>
          <rect id="Rectángulo_422566" data-name="Rectángulo 422566" width="90.599" height="1.946" transform="translate(116.023 167.592)" fill="#2d4c7f"/>
          <rect id="Rectángulo_422567" data-name="Rectángulo 422567" width="187.707" height="105.053" transform="translate(67.469 38.528)" fill="#4e73a8"/>
          <rect id="Rectángulo_422568" data-name="Rectángulo 422568" width="175.901" height="90.729" transform="translate(73.372 42.217)" fill="#b8d0ff"/>
          <rect id="Rectángulo_422569" data-name="Rectángulo 422569" width="175.939" height="8.075" transform="translate(73.572 42.217)" fill="#5d81ec"/>
          <rect id="Rectángulo_422570" data-name="Rectángulo 422570" width="34.856" height="76.105" transform="translate(77.458 53.342)" fill="#e1edff"/>
          <rect id="Rectángulo_422571" data-name="Rectángulo 422571" width="30.791" height="2.323" transform="translate(79.491 55.666)" fill="#fff"/>
          <rect id="Rectángulo_422572" data-name="Rectángulo 422572" width="30.791" height="2.324" transform="translate(79.491 60.023)" fill="#fff"/>
          <rect id="Rectángulo_422573" data-name="Rectángulo 422573" width="30.791" height="2.324" transform="translate(79.491 96.333)" fill="#fff"/>
          <rect id="Rectángulo_422574" data-name="Rectángulo 422574" width="30.791" height="1.307" transform="translate(79.491 101.053)" fill="#fff"/>
          <rect id="Rectángulo_422575" data-name="Rectángulo 422575" width="30.791" height="1.307" transform="translate(79.491 103.667)" fill="#fff"/>
          <rect id="Rectángulo_422576" data-name="Rectángulo 422576" width="30.791" height="1.308" transform="translate(79.491 106.572)" fill="#fff"/>
          <rect id="Rectángulo_422577" data-name="Rectángulo 422577" width="22.947" height="23.238" transform="translate(83.413 67.286)" fill="#fff"/>
          <path id="Trazado_1218220" data-name="Trazado 1218220" d="M199.969,262.9v10.7l9.241-5.35Z" transform="translate(-114.684 -150.983)" fill="#b8d0ff"/>
          <path id="Trazado_1218221" data-name="Trazado 1218221" d="M227.439,262.9v10.7l9.241-5.35Z" transform="translate(-130.482 -150.983)" fill="#b8d0ff"/>
          <rect id="Rectángulo_422578" data-name="Rectángulo 422578" width="128.681" height="74.942" transform="translate(116.073 53.923)" fill="#83b3ff"/>
          <path id="Trazado_1218222" data-name="Trazado 1218222" d="M303.429,145.674a9,9,0,1,1-9-9,9,9,0,0,1,9,9" transform="translate(-163.826 -78.387)" fill="#e1edff"/>
          <path id="Trazado_1218223" data-name="Trazado 1218223" d="M358.8,145.674a9,9,0,1,1-9-9,9,9,0,0,1,9,9" transform="translate(-195.669 -78.387)" fill="#e1edff"/>
          <path id="Trazado_1218224" data-name="Trazado 1218224" d="M414.174,145.674a9,9,0,1,1-9.005-9,9,9,0,0,1,9.005,9" transform="translate(-227.514 -78.387)" fill="#e1edff"/>
          <rect id="Rectángulo_422579" data-name="Rectángulo 422579" width="12.526" height="1.743" transform="translate(193.05 61.573)" fill="#b8d0ff"/>
          <rect id="Rectángulo_422580" data-name="Rectángulo 422580" width="12.526" height="1.743" transform="translate(210.607 61.573)" fill="#b8d0ff"/>
          <rect id="Rectángulo_422581" data-name="Rectángulo 422581" width="12.527" height="1.743" transform="translate(228.161 61.573)" fill="#b8d0ff"/>
          <rect id="Rectángulo_422582" data-name="Rectángulo 422582" width="58.14" height="2.324" transform="translate(121.593 83.843)" fill="#e1edff"/>
          <rect id="Rectángulo_422583" data-name="Rectángulo 422583" width="50.744" height="2.034" transform="translate(121.593 89.071)" fill="#e1edff"/>
          <rect id="Rectángulo_422584" data-name="Rectángulo 422584" width="94.695" height="2.614" transform="translate(121.593 94.3)" fill="#e1edff"/>
          <rect id="Rectángulo_422585" data-name="Rectángulo 422585" width="23.574" height="2.905" transform="translate(121.593 99.819)" fill="#b8d0ff"/>
          <rect id="Rectángulo_422586" data-name="Rectángulo 422586" width="65.127" height="3.486" transform="translate(121.593 107.08)" fill="#e1edff"/>
          <rect id="Rectángulo_422587" data-name="Rectángulo 422587" width="29.967" height="0.871" transform="translate(121.593 114.633)" fill="#b8d0ff"/>
          <rect id="Rectángulo_422588" data-name="Rectángulo 422588" width="52.741" height="3.486" transform="translate(121.593 119.861)" fill="#b8d0ff"/>
          <rect id="Rectángulo_422589" data-name="Rectángulo 422589" width="15.105" height="44.442" transform="translate(223.259 78.905)" fill="#b8d0ff"/>
          <g id="Grupo_1228666" data-name="Grupo 1228666" transform="translate(73.372 42.217)" opacity="0.5" style="mix-blend-mode: multiply;isolation: isolate">
            <g id="Grupo_1228665" data-name="Grupo 1228665">
              <g id="Grupo_1228664" data-name="Grupo 1228664" clip-path="url(#clip-path-3)">
                <path id="Trazado_1218225" data-name="Trazado 1218225" d="M335.084,189.055a108.846,108.846,0,0,1-20.109-7.4c-6.511-3.018-13.051-6.046-19.463-9.269-34.4-17.288-64.97-43.051-88.634-73.525H171.934v90.73H337.46c-.794-.17-1.588-.345-2.377-.535" transform="translate(-171.934 -98.861)" fill="#b8d0ff"/>
              </g>
            </g>
          </g>
          <path id="Trazado_1218226" data-name="Trazado 1218226" d="M421.29,82.195c.8-.829.73-2.612.408-3.574-1.174-3.506-3.422-4.909-8.7-4.909-.184,0-.368,0-.549.01a7.791,7.791,0,0,0-6.005-6.992c-7.156-.85-22.413-1.2-27.148.467a6.624,6.624,0,0,0-4.513,6.585c0,.073,0,.144.006.216a10.581,10.581,0,0,0-1.854-.164c-4.773,0-8.642,3.136-8.642,7.006a5.78,5.78,0,0,0,.212,1.541c-.07,0-.141,0-.212,0-.221,0-.44.006-.658.017h-.482a3.66,3.66,0,0,0-1.1.17c-4.968.843-8.7,4.437-8.7,8.744,0,4.934,3.681,8.817,12.689,8.817h55.606c4.844,0,8.044-5.257,8.044-9a9.207,9.207,0,0,0-8.41-8.932" transform="translate(-202.898 -37.757)" fill="#fff"/>
          <path id="Trazado_1218227" data-name="Trazado 1218227" d="M335.817,69.41l-1.777-3.141a1.553,1.553,0,0,0-2.122-.543L330.9,66.3a1.741,1.741,0,0,1-1.991-.169,14.682,14.682,0,0,0-1.3-.984,1.62,1.62,0,0,1-.654-1.835l.326-1.1a1.461,1.461,0,0,0-1.055-1.86l-3.574-.916a1.618,1.618,0,0,0-1.941,1.1l-.332,1.1a1.807,1.807,0,0,1-1.582,1.269,14.369,14.369,0,0,0-1.667.22,1.68,1.68,0,0,1-1.8-.8l-.553-.978a1.551,1.551,0,0,0-2.12-.542l-3.277,1.848a1.548,1.548,0,0,0-.631,2.095l.555.976a1.686,1.686,0,0,1-.242,1.957,14.691,14.691,0,0,0-1.052,1.307,1.8,1.8,0,0,1-1.9.7L305,69.394a1.628,1.628,0,0,0-1.947,1.1l-1.058,3.529a1.468,1.468,0,0,0,1.053,1.862l1.111.285a1.62,1.62,0,0,1,1.242,1.507,13.21,13.21,0,0,0,.174,1.617,1.743,1.743,0,0,1-.884,1.791l-1.019.574a1.543,1.543,0,0,0-.629,2.092l1.778,3.141a1.548,1.548,0,0,0,2.123.54l1.019-.572a1.735,1.735,0,0,1,1.991.168,13.635,13.635,0,0,0,1.3.983,1.615,1.615,0,0,1,.65,1.836l-.33,1.1a1.476,1.476,0,0,0,1.059,1.866l3.574.912a1.628,1.628,0,0,0,1.946-1.1l.328-1.1a1.807,1.807,0,0,1,1.582-1.265,15.894,15.894,0,0,0,1.666-.222,1.678,1.678,0,0,1,1.8.8l.55.974a1.555,1.555,0,0,0,2.126.543l3.277-1.846a1.541,1.541,0,0,0,.625-2.1l-.548-.974a1.672,1.672,0,0,1,.235-1.953,14.88,14.88,0,0,0,1.055-1.31,1.81,1.81,0,0,1,1.9-.7l1.116.281a1.626,1.626,0,0,0,1.944-1.1l1.059-3.526a1.468,1.468,0,0,0-1.056-1.863l-1.113-.284a1.625,1.625,0,0,1-1.236-1.509,14.118,14.118,0,0,0-.174-1.615,1.727,1.727,0,0,1,.883-1.791l1.021-.574a1.543,1.543,0,0,0,.626-2.094M324.073,83.369a8.233,8.233,0,1,1,3.125-10.4,8.42,8.42,0,0,1-3.125,10.4" transform="translate(-173.318 -33.943)" fill="#ffbf00"/>
          <path id="Trazado_1218228" data-name="Trazado 1218228" d="M384.515,90.846l-1.181-2.09a1.032,1.032,0,0,0-1.411-.36l-.677.381a1.158,1.158,0,0,1-1.326-.11,9.4,9.4,0,0,0-.866-.654,1.082,1.082,0,0,1-.434-1.221l.217-.731a.973.973,0,0,0-.7-1.237l-2.377-.61a1.075,1.075,0,0,0-1.291.729l-.221.729a1.2,1.2,0,0,1-1.053.845,9.3,9.3,0,0,0-1.109.147,1.119,1.119,0,0,1-1.2-.533l-.368-.651a1.034,1.034,0,0,0-1.411-.361l-2.179,1.229a1.029,1.029,0,0,0-.419,1.393l.368.648a1.12,1.12,0,0,1-.162,1.3,10.036,10.036,0,0,0-.7.869,1.2,1.2,0,0,1-1.264.464l-.74-.192a1.084,1.084,0,0,0-1.294.732l-.7,2.348a.977.977,0,0,0,.7,1.239l.739.19a1.077,1.077,0,0,1,.827,1,8.931,8.931,0,0,0,.116,1.074,1.161,1.161,0,0,1-.589,1.193l-.675.38a1.028,1.028,0,0,0-.42,1.393l1.182,2.089a1.032,1.032,0,0,0,1.414.359l.676-.381a1.16,1.16,0,0,1,1.326.112,8.876,8.876,0,0,0,.865.654,1.074,1.074,0,0,1,.431,1.222l-.219.727a.982.982,0,0,0,.706,1.241l2.376.608a1.082,1.082,0,0,0,1.294-.727l.219-.73a1.2,1.2,0,0,1,1.052-.842,11.027,11.027,0,0,0,1.107-.147,1.115,1.115,0,0,1,1.2.532l.368.649a1.031,1.031,0,0,0,1.412.359l2.179-1.229a1.022,1.022,0,0,0,.416-1.393l-.364-.648a1.112,1.112,0,0,1,.156-1.3,9.752,9.752,0,0,0,.7-.871,1.209,1.209,0,0,1,1.265-.464l.741.187a1.083,1.083,0,0,0,1.294-.73l.7-2.346a.977.977,0,0,0-.7-1.239l-.74-.19a1.08,1.08,0,0,1-.823-1,9.221,9.221,0,0,0-.114-1.074,1.15,1.15,0,0,1,.587-1.192l.679-.382a1.025,1.025,0,0,0,.416-1.392" transform="translate(-207.85 -48.2)" fill="#2e6adb"/>
          <path id="Trazado_1218229" data-name="Trazado 1218229" d="M169.04,439.97c0,1.33-7.039,2.408-15.722,2.408S137.6,441.3,137.6,439.97s7.039-2.408,15.722-2.408,15.722,1.078,15.722,2.408" transform="translate(-78.815 -251.427)" fill="#b8d0ff"/>
          <path id="Trazado_1218230" data-name="Trazado 1218230" d="M196.009,430.577c.959,1.465,2.852,1.942,4.06,3.2a.783.783,0,0,1,.2.309.567.567,0,0,1-.379.631,1.54,1.54,0,0,1-.783.017l-4.432-.673a1.223,1.223,0,0,1-.464-.135,1.332,1.332,0,0,1-.472-.929q-.324-1.595-.647-3.188a11.146,11.146,0,0,1,2.911.773" transform="translate(-110.733 -246.965)" fill="#132444"/>
          <path id="Trazado_1218231" data-name="Trazado 1218231" d="M176.9,353.643l-.41-.005c-1.481-7.676.184-16.106-1.928-23.7a67.657,67.657,0,0,0-2.554-6.82,93.68,93.68,0,0,1-6.03-25.04c2.945-.685,5.816-.853,8.692-2.173,5.34,17.783,7.791,38.14,7.859,56.9a29.417,29.417,0,0,1-5.629.833" transform="translate(-95.134 -169.961)" fill="#5d81ec"/>
          <g id="Grupo_1228669" data-name="Grupo 1228669" transform="translate(72.656 138.498)" opacity="0.4" style="mix-blend-mode: multiply;isolation: isolate">
            <g id="Grupo_1228668" data-name="Grupo 1228668">
              <g id="Grupo_1228667" data-name="Grupo 1228667" clip-path="url(#clip-path-4)">
                <path id="Trazado_1218232" data-name="Trazado 1218232" d="M173.127,328.1c2.32,3.677,3.559,7.991,4.943,12.1,3.316,9.858,3.266,20.474,3.067,30.284-.593.065-1.187.119-1.783.151l-.41,0c-1.481-7.677.184-16.106-1.928-23.7a67.764,67.764,0,0,0-2.553-6.82,78.48,78.48,0,0,1-4.214-14.659,6.892,6.892,0,0,1,2.879,2.643" transform="translate(-170.248 -325.452)" fill="#5d81ec"/>
              </g>
            </g>
          </g>
          <path id="Trazado_1218233" data-name="Trazado 1218233" d="M145.229,432.526c.959,1.466,2.852,1.944,4.06,3.2a.762.762,0,0,1,.2.308.568.568,0,0,1-.38.631,1.537,1.537,0,0,1-.782.017l-4.431-.673a1.228,1.228,0,0,1-.464-.135,1.334,1.334,0,0,1-.472-.929q-.324-1.595-.647-3.189a11.2,11.2,0,0,1,2.911.773" transform="translate(-81.53 -248.086)" fill="#132444"/>
          <path id="Trazado_1218234" data-name="Trazado 1218234" d="M155.967,295.593c-.927,3.891-4.007,21.488-4.587,24.028a57.832,57.832,0,0,1-2.071,6.079c-.623,1.784-1.1,3.616-1.569,5.45a135.307,135.307,0,0,0-4.187,23.387,15.923,15.923,0,0,0-5.135-.28c-.949-8.915-1.356-18,.38-26.789.776-3.925,1.975-7.767,2.436-11.743.564-4.868.009-9.853.935-14.662a2.289,2.289,0,0,1,2.05-2.167q5.842-1.794,11.748-3.3" transform="translate(-78.818 -169.782)" fill="#5d81ec"/>
          <path id="Trazado_1218235" data-name="Trazado 1218235" d="M149.285,304.786c-.1,5.524-.2,11.087-1.337,16.492-.994,4.717-2.766,9.25-3.639,13.992-1.415,7.7-.409,15.606.6,23.365" transform="translate(-82.273 -175.069)" fill="none" stroke="#132444" stroke-miterlimit="10" stroke-width="0.5"/>
          <g id="Grupo_1228672" data-name="Grupo 1228672" transform="translate(58.783 133.128)" opacity="0.3" style="mix-blend-mode: multiply;isolation: isolate">
            <g id="Grupo_1228671" data-name="Grupo 1228671">
              <g id="Grupo_1228670" data-name="Grupo 1228670" clip-path="url(#clip-path-5)">
                <path id="Trazado_1218236" data-name="Trazado 1218236" d="M141.234,325.629c.492-4.247.133-8.585.648-12.815a19.82,19.82,0,0,1,1.509,10.651c-.7,6.278-2.9,12.264-3.483,18.561a68.2,68.2,0,0,0-.1,14.685c.31,2.459.884,6.814,3.756,7.568,0,.054-.009.108-.013.162a15.911,15.911,0,0,0-5.135-.28c-.949-8.915-1.356-18,.38-26.79.776-3.925,1.975-7.767,2.436-11.743" transform="translate(-137.601 -312.814)" fill="#5d81ec"/>
              </g>
            </g>
          </g>
          <path id="Trazado_1218237" data-name="Trazado 1218237" d="M179.028,237.188a139.367,139.367,0,0,0,11.952,9.149,66.381,66.381,0,0,0,4.658-10.084l2.706,1.381A35.969,35.969,0,0,1,195.15,248.2a5.681,5.681,0,0,1-1.9,2.5c-1.757,1.089-3.972.049-5.76-.986l-5.736-3.318a2.67,2.67,0,0,1-.8-.608,2.907,2.907,0,0,1-.468-1.411,48.292,48.292,0,0,0-1.464-7.185" transform="translate(-102.642 -135.656)" fill="#fa6e61"/>
          <path id="Trazado_1218238" data-name="Trazado 1218238" d="M175.151,236.914a30.83,30.83,0,0,1,7.577,5.648,1.39,1.39,0,0,1,.5.871,1.405,1.405,0,0,1-.215.666q-1.052,2.025-2.106,4.049a.389.389,0,0,1-.6.216c-2.224-.835-4.6-1.784-5.907-3.768a9.445,9.445,0,0,1-1.283-4.261,4.124,4.124,0,0,1,.322-2.572c.453-.754,1.577-1.158,1.716-.85" transform="translate(-99.206 -135.977)" fill="#ffbf00"/>
          <path id="Trazado_1218239" data-name="Trazado 1218239" d="M217.058,230.376a7.817,7.817,0,0,0,.395-3.083,3.639,3.639,0,0,1-.008-1.9c.056-.118.211-.233.341-.148a.29.29,0,0,1,.093.265,5.2,5.2,0,0,0,.321,1.479,10.708,10.708,0,0,0,.98-2.388,1.137,1.137,0,0,1,.2-.458c.114-.129.381-.286.51-.143a10.689,10.689,0,0,1-.55,2.5l.84-1.971c.068-.161.273-.356.426-.221.206.181-.4,1.746-.6,2.619l.875-1.836c.117-.246.468-.645.563-.37.173.5-.467,1.724-.785,2.64l.672-1.107c.074-.122.254-.252.374-.139a.214.214,0,0,1,.035.218,34.665,34.665,0,0,1-1.57,4.5c-.883-.5-2.358.262-3.117-.453" transform="translate(-124.512 -128.576)" fill="#fa6e61"/>
          <path id="Trazado_1218240" data-name="Trazado 1218240" d="M155.145,236.553c-1.8-.98-3.873-.095-5.9.245-3.3.553-6.716,1.156-9.443,3.088a1.867,1.867,0,0,0-.931,1.8c-.247,4.954,2.869,9.453,3.565,14.364a30,30,0,0,1,.179,4.541q-.029,2.77-.061,5.54,8.8-2.6,17.724-4.77c-.447-7.715-2.3-15.27-4.155-22.773a4.127,4.127,0,0,0-.983-2.031" transform="translate(-79.542 -135.572)" fill="#ffbf00"/>
          <path id="Trazado_1218241" data-name="Trazado 1218241" d="M138.875,242.1a1.871,1.871,0,0,1,.931-1.8c.285-.2.578-.386.877-.56a15.26,15.26,0,0,1,1.843,1.8,13.008,13.008,0,0,1,2.229,3.989c1.1,2.916,1.62,6.011,2.614,8.961a7.186,7.186,0,0,0,.9,1.956,2.1,2.1,0,0,0,1.782.93,3.614,3.614,0,0,0,1.988-.925,16.12,16.12,0,0,0,1.732-1.627c.545-.6,1.018-1.258,1.525-1.891.234-.291.524-.524.743-.836a6.935,6.935,0,0,0,.507-1,7.164,7.164,0,0,0,.536-2.446,15.657,15.657,0,0,0,0-2.629,42.524,42.524,0,0,0-.681-5.029,11.115,11.115,0,0,0-1.559-4.16c.1.043.2.089.3.142a4.122,4.122,0,0,1,.982,2.031c1.851,7.5,3.709,15.058,4.156,22.773q-8.919,2.168-17.724,4.77l.061-5.54a29.777,29.777,0,0,0-.18-4.541c-.7-4.91-3.811-9.409-3.565-14.363" transform="translate(-79.542 -135.985)" fill="#ffa607"/>
          <path id="Trazado_1218242" data-name="Trazado 1218242" d="M169.183,257.351c-.61,1.636-.4,3.476-.938,5.139a9.485,9.485,0,0,1-3.4,4.34" transform="translate(-94.487 -147.79)" fill="none" stroke="#26395e" stroke-miterlimit="10" stroke-width="0.5"/>
          <path id="Trazado_1218243" data-name="Trazado 1218243" d="M165.4,249.5a19.551,19.551,0,0,1-.544,4.582,6.559,6.559,0,0,1-2.532,3.755" transform="translate(-93.034 -143.276)" fill="none" stroke="#26395e" stroke-miterlimit="10" stroke-width="0.5"/>
          <path id="Trazado_1218244" data-name="Trazado 1218244" d="M155.86,229.643a7.7,7.7,0,0,0,1.213,3.191,3.832,3.832,0,0,1-2.674.8,5.069,5.069,0,0,1-1.405-.123.275.275,0,0,1-.139-.068.281.281,0,0,1-.057-.147q-.527-3.037-.965-6.089c.968.169,1.972-.137,2.948-.011a.614.614,0,0,1,.269.082.624.624,0,0,1,.2.275,7.9,7.9,0,0,1,.615,2.087" transform="translate(-87.002 -130.432)" fill="#fa6e61"/>
          <path id="Trazado_1218245" data-name="Trazado 1218245" d="M153.354,230.31c-.82-.87-.954-2.091-1.518-3.1.968.168,1.97-.138,2.946-.011a.606.606,0,0,1,.27.082.616.616,0,0,1,.2.274,7.91,7.91,0,0,1,.615,2.088,7.654,7.654,0,0,0,.5,1.831,3.908,3.908,0,0,1-3-1.164" transform="translate(-87.004 -130.432)" fill="#d75246"/>
          <path id="Trazado_1218246" data-name="Trazado 1218246" d="M155.487,219.119c.315.657.44,1.385.725,2.054.39.914,1.093,1.822.86,2.788a2.057,2.057,0,0,1-1.82,1.419,3.657,3.657,0,0,1-2.331-.679,5.616,5.616,0,0,1-2.45-3.812,1.461,1.461,0,0,1,.4-1.457,4.814,4.814,0,0,1,1.929-1.146,2.331,2.331,0,0,1,2.682.832" transform="translate(-86.196 -125.25)" fill="#fa6e61"/>
          <path id="Trazado_1218247" data-name="Trazado 1218247" d="M152.3,216.075a2.223,2.223,0,0,1,1.975,1.7.258.258,0,0,1-.012.194c-.066.105-.229.088-.344.037a.559.559,0,0,0-.357-.1c-.2.053-.209.318-.28.507a1.107,1.107,0,0,1-.925.558,2.028,2.028,0,0,1-1.117-.083c-.235-.1-.434-.272-.675-.356a.566.566,0,0,0-.683.173c-.148.277.119.626,0,.918a.583.583,0,0,1-.527.313,1.155,1.155,0,0,1-1-.546,1.6,1.6,0,0,1-.189-1.126,2.161,2.161,0,0,1,.544-1.1,4.645,4.645,0,0,1,2.733-1.1c.391-.065.829-.122.85,0" transform="translate(-84.883 -124.011)" fill="#132444"/>
          <path id="Trazado_1218248" data-name="Trazado 1218248" d="M155.45,215.1l2.8-.749a2.378,2.378,0,0,1,.788-.117,1.564,1.564,0,0,1,.961.491,2.159,2.159,0,0,1,.5,2.223,1.346,1.346,0,0,1-1.263.953c-.606-.05-.992-.625-1.539-.875a.431.431,0,0,0-.373-.029.76.76,0,0,0-.159.153.763.763,0,0,1-.676.183,1.258,1.258,0,0,1-.624-.345,1.744,1.744,0,0,1-.418-1.887" transform="translate(-89.013 -122.994)" fill="#132444"/>
          <path id="Trazado_1218249" data-name="Trazado 1218249" d="M150.2,220.8a3.689,3.689,0,0,0,.113,1.805.937.937,0,0,1,.057.238.811.811,0,0,1-.049.276l-.367,1.238a3.662,3.662,0,0,1-1.71-2.746c-.058-.272-.01-.312.117-.56a1.364,1.364,0,0,1,1.189-.541.894.894,0,0,1,.441.048c.135.063.238.218.208.242" transform="translate(-84.922 -126.597)" fill="#132444"/>
          <path id="Trazado_1218250" data-name="Trazado 1218250" d="M151.433,225.71a1.039,1.039,0,0,0-1.056-.381c-.684.167-.015,1.436,1.147,1.6a.426.426,0,0,0,.441-.136.432.432,0,0,0-.024-.372,1.476,1.476,0,0,0-.508-.711" transform="translate(-86.007 -129.359)" fill="#fa6e61"/>
          <path id="Rectángulo_422593" data-name="Rectángulo 422593" d="M5.066,0h8.388a5.068,5.068,0,0,1,5.068,5.068v0a5.067,5.067,0,0,1-5.067,5.067H5.068A5.068,5.068,0,0,1,0,5.067v0A5.066,5.066,0,0,1,5.066,0Z" transform="translate(108.186 98.49)" fill="#2d4c7f"/>
          <path id="Rectángulo_422594" data-name="Rectángulo 422594" d="M5.068,0h8.387a5.067,5.067,0,0,1,5.067,5.067v0a5.067,5.067,0,0,1-5.067,5.067H5.067A5.067,5.067,0,0,1,0,5.068v0A5.068,5.068,0,0,1,5.068,0Z" transform="translate(108.186 109.848)" fill="#2d4c7f"/>
          <path id="Trazado_1218251" data-name="Trazado 1218251" d="M179.708,256.519V184.255a6.5,6.5,0,0,1,6.493-6.492H221.7a6.5,6.5,0,0,1,6.491,6.492v72.264a6.5,6.5,0,0,1-6.491,6.491H186.2a6.5,6.5,0,0,1-6.493-6.491m6.493-76.264a4,4,0,0,0-4,4v72.264a4,4,0,0,0,4,4H221.7a4,4,0,0,0,4-4V184.255a4,4,0,0,0-4-4Z" transform="translate(-103.033 -102.02)" fill="#2d4c7f"/>
          <path id="Trazado_1218252" data-name="Trazado 1218252" d="M185.258,257.92a5.092,5.092,0,0,0,5.02,5.164h33.965a5.092,5.092,0,0,0,5.019-5.164V186.793a5.092,5.092,0,0,0-5.019-5.164H190.277a5.093,5.093,0,0,0-5.02,5.164Z" transform="translate(-106.224 -104.243)" fill="#b8d0ff"/>
          <path id="Trazado_1218253" data-name="Trazado 1218253" d="M228.437,239.491l-2.182-2.874a1.553,1.553,0,0,0-2.176-.254l-.932.707a1.741,1.741,0,0,1-2,.1,14.6,14.6,0,0,0-1.421-.8,1.62,1.62,0,0,1-.894-1.731l.175-1.133a1.461,1.461,0,0,0-1.3-1.7l-3.664-.429a1.619,1.619,0,0,0-1.777,1.347l-.182,1.132a1.807,1.807,0,0,1-1.4,1.47,14.24,14.24,0,0,0-1.622.442,1.68,1.68,0,0,1-1.89-.552l-.679-.895a1.551,1.551,0,0,0-2.174-.253l-3,2.271a1.547,1.547,0,0,0-.345,2.161l.681.892a1.687,1.687,0,0,1,.022,1.972,14.587,14.587,0,0,0-.866,1.436,1.8,1.8,0,0,1-1.79.947l-1.139-.135a1.628,1.628,0,0,0-1.783,1.352l-.574,3.639a1.468,1.468,0,0,0,1.293,1.7l1.139.133a1.619,1.619,0,0,1,1.433,1.327,13.309,13.309,0,0,0,.389,1.579,1.744,1.744,0,0,1-.636,1.894l-.933.706a1.542,1.542,0,0,0-.342,2.157l2.183,2.875a1.547,1.547,0,0,0,2.176.251l.934-.7a1.734,1.734,0,0,1,2-.1,13.488,13.488,0,0,0,1.42.8,1.616,1.616,0,0,1,.889,1.733l-.18,1.129a1.476,1.476,0,0,0,1.3,1.707l3.664.424a1.628,1.628,0,0,0,1.781-1.346l.178-1.132a1.806,1.806,0,0,1,1.4-1.465,15.9,15.9,0,0,0,1.621-.445,1.679,1.679,0,0,1,1.893.553l.676.892a1.556,1.556,0,0,0,2.18.252l3-2.269a1.54,1.54,0,0,0,.339-2.161l-.674-.892a1.671,1.671,0,0,1-.029-1.966,15.109,15.109,0,0,0,.87-1.439,1.809,1.809,0,0,1,1.79-.948l1.143.129a1.627,1.627,0,0,0,1.78-1.349l.576-3.636a1.468,1.468,0,0,0-1.3-1.7l-1.14-.133a1.625,1.625,0,0,1-1.428-1.329,13.946,13.946,0,0,0-.389-1.576,1.729,1.729,0,0,1,.635-1.893l.936-.706a1.543,1.543,0,0,0,.339-2.159M218.672,254.9a8.232,8.232,0,1,1,1.7-10.728,8.421,8.421,0,0,1-1.7,10.728" transform="translate(-112.124 -132.845)" fill="#fff"/>
          <rect id="Rectángulo_422595" data-name="Rectángulo 422595" width="33.143" height="3.399" transform="translate(84.463 84.803)" fill="#e1edff"/>
          <rect id="Rectángulo_422596" data-name="Rectángulo 422596" width="21.246" height="3.399" transform="translate(84.463 90.469)" fill="#e1edff"/>
          <rect id="Rectángulo_422597" data-name="Rectángulo 422597" width="30.594" height="3.399" transform="translate(84.463 137.776)" fill="#e1edff"/>
          <rect id="Rectángulo_422598" data-name="Rectángulo 422598" width="30.594" height="3.399" transform="translate(84.463 143.441)" fill="#e1edff"/>
          <rect id="Rectángulo_422599" data-name="Rectángulo 422599" width="24.645" height="3.399" transform="translate(84.463 149.39)" fill="#e1edff"/>
          <g id="Grupo_1228675" data-name="Grupo 1228675" transform="translate(79.034 77.69)" opacity="0.3" style="mix-blend-mode: multiply;isolation: isolate">
            <g id="Grupo_1228674" data-name="Grupo 1228674">
              <g id="Grupo_1228673" data-name="Grupo 1228673" clip-path="url(#clip-path-6)">
                <path id="Trazado_1218254" data-name="Trazado 1218254" d="M228.353,257.54a69.3,69.3,0,0,1-10.217-7.973c-6.528-5.992-11.7-13.9-15.711-21.74a113.874,113.874,0,0,1-9.218-25.751c-1.12-4.705-2.106-9.442-3.179-14.158-.416-1.831-1.056-3.7-1.433-5.574a5.152,5.152,0,0,0-3.337,4.859v71.127a5.093,5.093,0,0,0,5.02,5.164h33.964a5.092,5.092,0,0,0,5.019-5.164v-.266c-.31-.169-.615-.342-.908-.525" transform="translate(-185.258 -182.344)" fill="#b8d0ff"/>
              </g>
            </g>
          </g>
          <path id="Trazado_1218255" data-name="Trazado 1218255" d="M137.111,249.3c2.243,1.319,3.091,3.82,3.608,6.143a48.354,48.354,0,0,1,1,6.669,2.641,2.641,0,0,0,.344,1.335c.657.96,2.228.92,3.505.826,3.112-.227,6.047.718,9.318.478a4.432,4.432,0,0,0-.537,2.661c-4.377.739-8.851,1.482-13.26.936a9.2,9.2,0,0,1-3.48-1.007c-2.23-1.294-2.982-3.817-3.4-6.131a50.213,50.213,0,0,1-.776-7.481,5.058,5.058,0,0,1,.762-3.387,3.073,3.073,0,0,1,2.914-1.042" transform="translate(-76.417 -143.106)" fill="#fa6e61"/>
          <path id="Trazado_1218256" data-name="Trazado 1218256" d="M135.591,245.271a4.618,4.618,0,0,1,2.77,2.667,21.661,21.661,0,0,1,2.439,9.553,58.454,58.454,0,0,0-7.666.216c-.48-1.964-.866-3.951-1.156-5.949a7.322,7.322,0,0,1,.033-3.164,5.8,5.8,0,0,1,.987-1.8c.762-1,1.878-1.681,2.594-1.518" transform="translate(-75.493 -140.829)" fill="#ffbf00"/>
          <path id="Trazado_1218257" data-name="Trazado 1218257" d="M181.937,284.24a4.527,4.527,0,0,0,2.221-.569,4.453,4.453,0,0,1,1.92-.629c.141.007.317.1.282.237-.024.1-.136.135-.231.165a5.8,5.8,0,0,0-1.37.753,13.947,13.947,0,0,0,2.794.039,1.465,1.465,0,0,1,.541.021c.174.053.438.225.342.38a13.724,13.724,0,0,1-2.742.358l2.318.058c.188.005.466.113.388.286-.1.232-1.919.238-2.879.357l2.2.133c.294.018.833.182.592.351-.44.31-1.923.173-2.972.206l1.38.2c.152.023.354.13.286.268-.036.072-.127.091-.206.1a48.984,48.984,0,0,1-5.277,0,9.549,9.549,0,0,1,.418-2.713" transform="translate(-104.074 -162.563)" fill="#fa6e61"/>
          <path id="Trazado_1218258" data-name="Trazado 1218258" d="M231.795,114.783V65.918h23.8V76.35" transform="translate(-132.987 -37.699)" fill="none" stroke="#2e6adb" stroke-miterlimit="10" stroke-width="1" stroke-dasharray="3 3"/>
          <path id="Trazado_1218259" data-name="Trazado 1218259" d="M287.557,84.8a1.381,1.381,0,1,1-1.381-1.381,1.381,1.381,0,0,1,1.381,1.381" transform="translate(-163.467 -47.763)" fill="#2e6adb"/>
          <path id="Trazado_1218260" data-name="Trazado 1218260" d="M230.807,173.549a1.381,1.381,0,1,1-1.381-1.381,1.381,1.381,0,0,1,1.381,1.381" transform="translate(-130.831 -98.802)" fill="#2e6adb"/>
          <path id="Trazado_1218261" data-name="Trazado 1218261" d="M592.608,439.97c0,1.33-5.9,2.408-13.172,2.408s-13.172-1.078-13.172-2.408,5.9-2.408,13.172-2.408,13.172,1.078,13.172,2.408" transform="translate(-325.335 -251.427)" fill="#b8d0ff"/>
          <path id="Trazado_1218262" data-name="Trazado 1218262" d="M426.462,117.08V52.918H387.795V78.6" transform="translate(-222.701 -30.223)" fill="none" stroke="#2e6adb" stroke-miterlimit="10" stroke-width="1" stroke-dasharray="3 3"/>
          <path id="Trazado_1218263" data-name="Trazado 1218263" d="M251.807,378.05a1.381,1.381,0,1,1-1.381-1.381,1.381,1.381,0,0,1,1.381,1.381" transform="translate(-142.908 -216.408)" fill="#2e6adb"/>
          <path id="Trazado_1218264" data-name="Trazado 1218264" d="M338.807,412.05a1.381,1.381,0,1,1-1.381-1.381,1.381,1.381,0,0,1,1.381,1.381" transform="translate(-192.94 -235.961)" fill="#2e6adb"/>
          <path id="Trazado_1218265" data-name="Trazado 1218265" d="M252.795,370.471V385.74H373.9V364.919" transform="translate(-145.064 -209.651)" fill="none" stroke="#2e6adb" stroke-miterlimit="10" stroke-width="1" stroke-dasharray="3 3"/>
          <path id="Trazado_1218266" data-name="Trazado 1218266" d="M417.807,412.05a1.381,1.381,0,1,1-1.381-1.381,1.381,1.381,0,0,1,1.381,1.381" transform="translate(-238.372 -235.961)" fill="#2e6adb"/>
          <path id="Trazado_1218267" data-name="Trazado 1218267" d="M537.307,370.55a1.381,1.381,0,1,1-1.381-1.381,1.381,1.381,0,0,1,1.381,1.381" transform="translate(-307.095 -212.095)" fill="#2e6adb"/>
          <rect id="Rectángulo_422601" data-name="Rectángulo 422601" width="31.842" height="37.659" transform="translate(145.348 152.521)" fill="#b8d0ff"/>
          <path id="Trazado_1218268" data-name="Trazado 1218268" d="M374.056,386.442A3.659,3.659,0,0,1,370.4,390.1h-19.5a3.657,3.657,0,0,1,0-7.315h19.5a3.658,3.658,0,0,1,3.659,3.654" transform="translate(-199.378 -219.927)" fill="#5d81ec"/>
          <path id="Trazado_1218269" data-name="Trazado 1218269" d="M374.056,406.021a3.658,3.658,0,0,1-3.659,3.656h-19.5a3.656,3.656,0,0,1,0-7.313h19.5a3.658,3.658,0,0,1,3.659,3.656" transform="translate(-199.378 -231.185)" fill="#5d81ec"/>
          <path id="Trazado_1218270" data-name="Trazado 1218270" d="M374.056,425.594a3.661,3.661,0,0,1-3.659,3.659h-19.5a3.657,3.657,0,0,1,0-7.313h19.5a3.657,3.657,0,0,1,3.659,3.654" transform="translate(-199.378 -242.443)" fill="#5d81ec"/>
          <rect id="Rectángulo_422602" data-name="Rectángulo 422602" width="22.368" height="4.662" transform="translate(150.085 164.152)" fill="#b8d0ff"/>
          <rect id="Rectángulo_422603" data-name="Rectángulo 422603" width="22.368" height="4.663" transform="translate(150.085 172.504)" fill="#b8d0ff"/>
          <rect id="Rectángulo_422604" data-name="Rectángulo 422604" width="22.368" height="4.661" transform="translate(150.085 180.823)" fill="#b8d0ff"/>
          <rect id="Rectángulo_422605" data-name="Rectángulo 422605" width="11.867" height="1.15" transform="translate(155.336 165.316)" fill="#ffbf00"/>
          <path id="Trazado_1218271" data-name="Trazado 1218271" d="M374.054,366.487a3.656,3.656,0,0,1-3.657,3.656h-19.5a3.656,3.656,0,1,1,0-7.313h19.5a3.657,3.657,0,0,1,3.657,3.656" transform="translate(-199.375 -208.45)" fill="#5d81ec"/>
          <rect id="Rectángulo_422606" data-name="Rectángulo 422606" width="22.367" height="4.661" transform="translate(150.086 155.671)" fill="#b8d0ff"/>
          <rect id="Rectángulo_422607" data-name="Rectángulo 422607" width="11.868" height="1.149" transform="translate(155.336 156.836)" fill="#ffbf00"/>
          <rect id="Rectángulo_422608" data-name="Rectángulo 422608" width="11.867" height="1.146" transform="translate(155.336 173.636)" fill="#ffbf00"/>
          <rect id="Rectángulo_422609" data-name="Rectángulo 422609" width="11.867" height="1.145" transform="translate(155.336 181.953)" fill="#ffbf00"/>
          <line id="Línea_2245" data-name="Línea 2245" x2="20.369" transform="translate(150.815 158.781)" fill="none" stroke="#26395e" stroke-linecap="round" stroke-miterlimit="10" stroke-width="0.5"/>
          <line id="Línea_2246" data-name="Línea 2246" x2="20.934" transform="translate(150.701 167.493)" fill="none" stroke="#26395e" stroke-linecap="round" stroke-miterlimit="10" stroke-width="0.5"/>
          <line id="Línea_2247" data-name="Línea 2247" x2="21.388" transform="translate(150.928 175.98)" fill="none" stroke="#26395e" stroke-linecap="round" stroke-miterlimit="10" stroke-width="0.5"/>
          <line id="Línea_2248" data-name="Línea 2248" x2="20.48" transform="translate(151.155 184.468)" fill="none" stroke="#26395e" stroke-linecap="round" stroke-miterlimit="10" stroke-width="0.5"/>
          <g id="Grupo_1228678" data-name="Grupo 1228678" transform="translate(145.348 152.521)" opacity="0.3" style="mix-blend-mode: multiply;isolation: isolate">
            <g id="Grupo_1228677" data-name="Grupo 1228677">
              <g id="Grupo_1228676" data-name="Grupo 1228676" clip-path="url(#clip-path-7)">
                <path id="Trazado_1218272" data-name="Trazado 1218272" d="M358.887,383.865c-6.815-7.046-10.623-16.343-13.961-25.413h-3.6v37.659h31.843v-4.155a29.712,29.712,0,0,1-14.278-8.091" transform="translate(-341.323 -358.452)" fill="#b8d0ff"/>
              </g>
            </g>
          </g>
          <rect id="Rectángulo_422611" data-name="Rectángulo 422611" width="29.178" height="16.329" transform="translate(190.735 66.041)" fill="#2e6adb"/>
          <path id="Trazado_1218273" data-name="Trazado 1218273" d="M465.432,161.112l-5.218,4.837,4.691,4.021" transform="translate(-264.348 -92.444)" fill="none" stroke="#fff" stroke-miterlimit="10" stroke-width="1"/>
          <path id="Trazado_1218274" data-name="Trazado 1218274" d="M492.939,162.343l5.011,5.051-4.856,3.821" transform="translate(-283.168 -93.152)" fill="none" stroke="#fff" stroke-miterlimit="10" stroke-width="1"/>
          <line id="Línea_2249" data-name="Línea 2249" x1="6.749" y2="12.82" transform="translate(201.516 67.795)" fill="none" stroke="#fff" stroke-miterlimit="10" stroke-width="1"/>
          <path id="Trazado_1218275" data-name="Trazado 1218275" d="M575.863,429.929c-1.258,1.492-3.606,1.427-5.11,2.653a.846.846,0,0,0-.266.312.631.631,0,0,0,.335.748,1.746,1.746,0,0,0,.865.122l5-.152a1.372,1.372,0,0,0,.531-.087,1.489,1.489,0,0,0,.646-.965c.38-1.144.4-2.145.781-3.29a9.19,9.19,0,0,0-2.778.657" transform="translate(-327.744 -246.659)" fill="#fa6e61"/>
          <path id="Trazado_1218276" data-name="Trazado 1218276" d="M570.487,435.9a.843.843,0,0,1,.266-.312,6.679,6.679,0,0,1,2.079-1.031,1.67,1.67,0,0,0,1.381.76c.387.034.774.032,1.162.043a4.615,4.615,0,0,0,1.16-.094,3.95,3.95,0,0,0,1.6-.77,9.261,9.261,0,0,1-.278,1.072,1.489,1.489,0,0,1-.646.964,1.364,1.364,0,0,1-.531.087l-5,.152a1.754,1.754,0,0,1-.864-.122.632.632,0,0,1-.335-.749" transform="translate(-327.744 -249.662)" fill="#132444"/>
          <path id="Trazado_1218277" data-name="Trazado 1218277" d="M592.4,292.007c1.54,8.873-2.51,21.1-5.759,29.505a11.031,11.031,0,0,0-1.061,6.86c.4,5.269-.25,10.245-.922,15.487-.376,2.931-.345,4.548-.769,7.857-.809-.124-4.581-.756-4.458-.674-.4-3.125-1.827-21.852-.291-34.312a187.949,187.949,0,0,1,3.932-21.295c.066-.269.635-3.591.953-3.563,1.837.161,4.029.056,5.269.135Z" transform="translate(-332.338 -167.642)" fill="#5d81ec"/>
          <g id="Grupo_1228681" data-name="Grupo 1228681" transform="translate(250.269 139.341)" opacity="0.3" style="mix-blend-mode: multiply;isolation: isolate">
            <g id="Grupo_1228680" data-name="Grupo 1228680">
              <g id="Grupo_1228679" data-name="Grupo 1228679" clip-path="url(#clip-path-8)">
                <path id="Trazado_1218278" data-name="Trazado 1218278" d="M592.278,341.964a113.512,113.512,0,0,0,4.664-14.529,8.582,8.582,0,0,0-.665.71,21.723,21.723,0,0,0-2.765,4.646c-1.748,3.688-3.678,7.592-4.439,11.629-.857,4.536-.2,9.225-.054,13.8a119.039,119.039,0,0,1-.77,13.746c.561.091,1.044.169,1.277.2.425-3.31.394-4.926.77-7.857.672-5.242,1.32-10.218.922-15.487a15.974,15.974,0,0,1-.059-3.273,15.806,15.806,0,0,1,1.12-3.588" transform="translate(-588.248 -327.435)" fill="#5d81ec"/>
              </g>
            </g>
          </g>
          <path id="Trazado_1218279" data-name="Trazado 1218279" d="M609.8,434.056c-1.258,1.492-3.605,1.428-5.11,2.653a.845.845,0,0,0-.266.312.632.632,0,0,0,.335.748,1.737,1.737,0,0,0,.865.122l5-.152a1.371,1.371,0,0,0,.532-.087,1.484,1.484,0,0,0,.646-.965c.38-1.144.4-2.144.782-3.29a9.2,9.2,0,0,0-2.778.657" transform="translate(-347.259 -249.032)" fill="#fa6e61"/>
          <path id="Trazado_1218280" data-name="Trazado 1218280" d="M604.421,440.024a.844.844,0,0,1,.266-.312,6.674,6.674,0,0,1,2.08-1.031,1.669,1.669,0,0,0,1.38.76c.387.034.774.032,1.162.042a4.615,4.615,0,0,0,1.16-.094,3.937,3.937,0,0,0,1.6-.77,9.192,9.192,0,0,1-.278,1.072,1.485,1.485,0,0,1-.646.964,1.363,1.363,0,0,1-.532.087l-5,.152a1.743,1.743,0,0,1-.864-.122.633.633,0,0,1-.335-.749" transform="translate(-347.259 -252.035)" fill="#132444"/>
          <path id="Trazado_1218281" data-name="Trazado 1218281" d="M613.023,286.77a65.7,65.7,0,0,1,1.795,29.441,21.779,21.779,0,0,0-.495,4.57,28.1,28.1,0,0,0,.766,4.3c1.718,8.406.023,17.156-2.612,25.321-1.207-.207-2.816-.47-4.024-.675,1.148-9.928-2.13-21.228-2.73-31.206-.2-3.393-.33-8.524-.81-11.889-1.216-8.51-.9-10.49-.945-17.7a44.866,44.866,0,0,0,9.056-2.169" transform="translate(-347.016 -164.708)" fill="#5d81ec"/>
          <g id="Grupo_1228684" data-name="Grupo 1228684" transform="translate(262.733 122.062)" opacity="0.3" style="mix-blend-mode: multiply;isolation: isolate">
            <g id="Grupo_1228683" data-name="Grupo 1228683">
              <g id="Grupo_1228682" data-name="Grupo 1228682" clip-path="url(#clip-path-9)">
                <path id="Trazado_1218282" data-name="Trazado 1218282" d="M622.921,325.084a27.944,27.944,0,0,1-.766-4.3,21.778,21.778,0,0,1,.494-4.57,65.688,65.688,0,0,0-1.794-29.441c-.843.322-2.016.682-3.274,1.016,2.534,4.187,2.787,9.753,2.966,14.469.142,3.75.011,7.454-.171,11.2a63.465,63.465,0,0,0,.863,12.849,32.288,32.288,0,0,1-.028,11.31c-.535,2.793-.844,5.624-1.361,8.421a37.156,37.156,0,0,1-.986,4.125l1.443.242c2.635-8.165,4.33-16.915,2.612-25.321" transform="translate(-617.581 -286.77)" fill="#5d81ec"/>
              </g>
            </g>
          </g>
          <path id="Trazado_1218283" data-name="Trazado 1218283" d="M616.37,292.825a28.379,28.379,0,0,0,.814,3.482,28.711,28.711,0,0,1,.267,3.678c.051,2.441.309,4.882.548,7.295.467,4.707.4,9.655.4,14.454,0,4.556,1.487,8.634,1.485,13.1,0,4.436.079,8.927-.78,13.239-.176.886-1.076,5.521-.933,5.567" transform="translate(-354.151 -168.19)" fill="none" stroke="#132444" stroke-miterlimit="10" stroke-width="0.5"/>
          <path id="Trazado_1218284" data-name="Trazado 1218284" d="M593.9,236.265c2.063.04,4.364.181,5.77,1.665s1.386,3.79,1.281,5.836c-.265,5.18-.349,10.717,2.441,15.118a25.442,25.442,0,0,1-17.486.924c.537-3.561.966-7.225.146-10.734-.738-3.155-2.437-6.564-.883-9.419a6.493,6.493,0,0,1,4.211-2.94,23.271,23.271,0,0,1,4.521-.45" transform="translate(-335.84 -135.663)" fill="#ffbf00"/>
          <path id="Trazado_1218285" data-name="Trazado 1218285" d="M588.487,255.147a8.511,8.511,0,0,0,1.051.047,9.193,9.193,0,0,0,1.02-.15,15.874,15.874,0,0,0,1.83-.372,8.468,8.468,0,0,0,5-4.47,16.386,16.386,0,0,0,1.325-7.471,12.555,12.555,0,0,0-1.526-6.327,6.383,6.383,0,0,1,4.333,1.606c1.42,1.5,1.386,3.79,1.281,5.835-.266,5.181-.349,10.718,2.441,15.118a25.44,25.44,0,0,1-17.487.924c.238-1.573.453-3.165.549-4.754.061,0,.121.012.181.014" transform="translate(-337.696 -135.743)" fill="#ffa607"/>
          <path id="Trazado_1218286" data-name="Trazado 1218286" d="M597.689,252.549a9.683,9.683,0,0,1-5.99-6.43" transform="translate(-339.963 -141.33)" fill="none" stroke="#26395e" stroke-miterlimit="10" stroke-width="0.5"/>
          <path id="Trazado_1218287" data-name="Trazado 1218287" d="M593.949,257.889a8.979,8.979,0,0,1-3.038-3.74" transform="translate(-339.51 -145.948)" fill="none" stroke="#26395e" stroke-miterlimit="10" stroke-width="0.5"/>
          <path id="Trazado_1218288" data-name="Trazado 1218288" d="M606.175,214.314c.388,1.26,1.937,1.723,2.762,2.752.741.922.921,2.324,1.95,2.906.858.484,2.023.2,2.824.774.911.652.9,2.071,1.715,2.843a2.406,2.406,0,0,0,1.412.591,3.748,3.748,0,0,0,3.937-3.961c-.086-.778-.425-1.505-.572-2.274a2.238,2.238,0,0,1,.551-2.166,7.307,7.307,0,0,1,.841-.488,2.854,2.854,0,0,0,.591-4.015,3.963,3.963,0,0,0-4.128-1.237c-.844.224-1.876.629-2.482,0a4.458,4.458,0,0,1-.492-.857,2.134,2.134,0,0,0-2.029-.931,3.3,3.3,0,0,0-2.03,1.094c-.362.389-.29,1.53-.653,1.919-.857.92-2.059-.147-2.715.049-.4.122-1.761,2.095-1.482,3" transform="translate(-348.267 -119.545)" fill="#132444"/>
          <path id="Trazado_1218289" data-name="Trazado 1218289" d="M598.683,227.91a8.2,8.2,0,0,1-.61,3.492,3.768,3.768,0,0,0,2.8.332,4.983,4.983,0,0,0,1.373-.385.293.293,0,0,0,.126-.1.211.211,0,0,0,.028-.161,14.147,14.147,0,0,1-.14-6.174c-.931.352-2.015-.02-2.961.289a.616.616,0,0,0-.252.133.656.656,0,0,0-.143.318,8.471,8.471,0,0,0-.224,2.25" transform="translate(-343.629 -129.138)" fill="#ff7055"/>
          <path id="Trazado_1218290" data-name="Trazado 1218290" d="M601.917,227.8c.653-1.041.558-2.317.931-3.455-.93.351-1.983.222-2.927.531a.627.627,0,0,0-.252.133.654.654,0,0,0-.143.318,8.453,8.453,0,0,0-.224,2.25,8.107,8.107,0,0,1-.153,1.967,3.9,3.9,0,0,0,2.768-1.745" transform="translate(-344.248 -128.811)" fill="#d75246"/>
          <path id="Trazado_1218291" data-name="Trazado 1218291" d="M595.028,217.405c-.189.731-.373,1.376-.532,2.114a4.089,4.089,0,0,0-.1,2.725,2.182,2.182,0,0,0,2.05,1.378,3.116,3.116,0,0,0,2.167-.969,5.887,5.887,0,0,0,1.724-4.355,1.543,1.543,0,0,0-.672-1.417,4.793,4.793,0,0,0-2.127-.82,2.326,2.326,0,0,0-2.51,1.344" transform="translate(-341.396 -124.026)" fill="#ff7055"/>
          <path id="Trazado_1218292" data-name="Trazado 1218292" d="M594.066,213.055c-1.023.614-1.469,1.3-.991,2.071.314.508.772.169.923.182.209.017.268.287.373.468a1.107,1.107,0,0,0,1.022.4,1.993,1.993,0,0,0,1.093-.289c.214-.148.38-.358.6-.49a.563.563,0,0,1,.711.052c.2.258,0,.664.166.942a.584.584,0,0,0,.581.224,1.16,1.16,0,0,0,.89-.742,1.717,1.717,0,0,0-.022-1.189,2.274,2.274,0,0,0-.743-1.022c-.8-.621-1.635-.1-2.467-.682-.694-.488-2.029.01-2.14.075" transform="translate(-340.644 -122.15)" fill="#132444"/>
          <path id="Trazado_1218293" data-name="Trazado 1218293" d="M605.684,217.437a3.958,3.958,0,0,1,.222,1.87,1.026,1.026,0,0,0-.012.255.9.9,0,0,0,.1.273l.594,1.2a2.511,2.511,0,0,0,1.3-2.7,2.893,2.893,0,0,0-.332-.979,1.035,1.035,0,0,0-1.71-.206c-.122.09-.2.269-.161.287" transform="translate(-348.001 -124.458)" fill="#132444"/>
          <path id="Trazado_1218294" data-name="Trazado 1218294" d="M605.927,224.95a1.04,1.04,0,0,1,1.135-.109c.622.345-.377,1.446-1.556,1.309-.165-.019-.353-.088-.393-.251a.453.453,0,0,1,.126-.367,1.539,1.539,0,0,1,.689-.583" transform="translate(-347.673 -129.025)" fill="#ff7055"/>
          <rect id="Rectángulo_422614" data-name="Rectángulo 422614" width="73.217" height="71.386" transform="translate(178.125 85.582)" fill="#b8d0ff"/>
          <rect id="Rectángulo_422615" data-name="Rectángulo 422615" width="73.193" height="8.867" transform="translate(178.125 85.583)" fill="#5d81ec"/>
          <path id="Trazado_1218295" data-name="Trazado 1218295" d="M429.247,207.766a1.368,1.368,0,1,1-1.368-1.364,1.366,1.366,0,0,1,1.368,1.364" transform="translate(-244.966 -118.489)" fill="#fff"/>
          <path id="Trazado_1218296" data-name="Trazado 1218296" d="M444.139,207.766a1.368,1.368,0,1,1-1.368-1.364,1.366,1.366,0,0,1,1.368,1.364" transform="translate(-253.53 -118.489)" fill="#fff"/>
          <path id="Trazado_1218297" data-name="Trazado 1218297" d="M459.03,207.766a1.368,1.368,0,1,1-1.369-1.364,1.366,1.366,0,0,1,1.369,1.364" transform="translate(-262.094 -118.489)" fill="#fff"/>
          <rect id="Rectángulo_422616" data-name="Rectángulo 422616" width="37.18" height="2.549" transform="translate(206.948 103.145)" fill="#e1edff"/>
          <rect id="Rectángulo_422617" data-name="Rectángulo 422617" width="37.18" height="2.549" transform="translate(206.948 108.527)" fill="#e1edff"/>
          <rect id="Rectángulo_422618" data-name="Rectángulo 422618" width="24.15" height="2.549" transform="translate(206.948 114.476)" fill="#e1edff"/>
          <rect id="Rectángulo_422619" data-name="Rectángulo 422619" width="36.613" height="2.549" transform="translate(206.948 123.824)" fill="#e1edff"/>
          <rect id="Rectángulo_422620" data-name="Rectángulo 422620" width="36.613" height="2.549" transform="translate(206.948 129.489)" fill="#e1edff"/>
          <rect id="Rectángulo_422621" data-name="Rectángulo 422621" width="36.613" height="2.549" transform="translate(206.948 136.288)" fill="#e1edff"/>
          <rect id="Rectángulo_422622" data-name="Rectángulo 422622" width="36.613" height="2.549" transform="translate(206.948 144.219)" fill="#e1edff"/>
          <rect id="Rectángulo_422623" data-name="Rectángulo 422623" width="10.127" height="2.549" transform="translate(191.51 116.176)" fill="#e1edff"/>
          <rect id="Rectángulo_422624" data-name="Rectángulo 422624" width="10.127" height="2.549" transform="translate(191.51 108.527)" fill="#e1edff"/>
          <rect id="Rectángulo_422625" data-name="Rectángulo 422625" width="19.758" height="2.549" transform="translate(181.879 103.145)" fill="#e1edff"/>
          <rect id="Rectángulo_422626" data-name="Rectángulo 422626" width="17.74" height="2.549" transform="translate(183.897 121.841)" fill="#e1edff"/>
          <rect id="Rectángulo_422627" data-name="Rectángulo 422627" width="8.109" height="2.549" transform="translate(193.528 128.357)" fill="#e1edff"/>
          <rect id="Rectángulo_422628" data-name="Rectángulo 422628" width="13.969" height="2.549" transform="translate(187.668 134.872)" fill="#e1edff"/>
          <rect id="Rectángulo_422629" data-name="Rectángulo 422629" width="11.137" height="2.549" transform="translate(190.501 145.637)" fill="#e1edff"/>
          <g id="Grupo_1228687" data-name="Grupo 1228687" transform="translate(178.125 85.582)" opacity="0.3" style="mix-blend-mode: multiply;isolation: isolate">
            <g id="Grupo_1228686" data-name="Grupo 1228686">
              <g id="Grupo_1228685" data-name="Grupo 1228685" clip-path="url(#clip-path-10)">
                <path id="Trazado_1218298" data-name="Trazado 1218298" d="M480.181,263.992c-9.3-3.794-17.461-9.581-25.15-15.96-14.214-11.791-26.547-28.071-27.382-47.114h-9.187V272.3h73.217v-4.885a67.054,67.054,0,0,1-11.5-3.427" transform="translate(-418.462 -200.918)" fill="#b8d0ff"/>
              </g>
            </g>
          </g>
          <path id="Trazado_1218299" data-name="Trazado 1218299" d="M579.232,256.122c-3.163,1.815-8.05,5.069-10.57,5.464a9.667,9.667,0,0,1-3.887-.234c-3.532-.905-5.132-2.918-8.391-4.556.653-.775.254-.3.622-1.247,3.121,1.012,10.929,4.705,15.809-.252,3.854-3.914,4.508-3.677,7.442-4.959a4.513,4.513,0,0,1,2.76-.258c.627.306,1.824,2.823-3.786,6.041" transform="translate(-319.654 -143.533)" fill="#ff7055"/>
          <path id="Trazado_1218300" data-name="Trazado 1218300" d="M551.268,260.883a11.733,11.733,0,0,1-2.773-.507c-.283-.1-.673-.175-.759-.462.143-.169.2-.046.584.061a1.3,1.3,0,0,0,.712.1,4.347,4.347,0,0,1-2.1-1.33.416.416,0,0,1,.427-.03,1.921,1.921,0,0,1,.369.255,2.225,2.225,0,0,0,1.055.431,3.225,3.225,0,0,1-1.7-1.366.284.284,0,0,1,.326-.065,1.028,1.028,0,0,1,.29.206,2.936,2.936,0,0,0,1.17.622,4.185,4.185,0,0,1-1.451-1.33c.145-.161.4-.007.568.131a3.441,3.441,0,0,0,1.4.739c.072.016.439.144.484.086s-.189-.7-.221-.947c-.027-.221.077-.493.3-.518a4.919,4.919,0,0,0,2.019,2.8,9.109,9.109,0,0,0-.7,1.124" transform="translate(-314.216 -147.562)" fill="#ff7055"/>
          <path id="Trazado_1218301" data-name="Trazado 1218301" d="M608.479,240.98a4.37,4.37,0,0,1,.77,2.924,6.867,6.867,0,0,1-.481,1.791,16.328,16.328,0,0,1-5.032,6.8,24.2,24.2,0,0,1-3.967-3.809.391.391,0,0,1-.007-.634,52.962,52.962,0,0,1,6.767-6.335,3.8,3.8,0,0,1,1.59-.864c.244-.044.6.208.359.121" transform="translate(-344.51 -138.302)" fill="#ffbf00"/>
        </g>
      </g>
      <rect id="Rectángulo_422632" data-name="Rectángulo 422632" width="319" height="213" transform="translate(1371.647 209.431)" fill="none"/>
    </g>
  </g>
</svg>
