<svg xmlns="http://www.w3.org/2000/svg" xmlns:xlink="http://www.w3.org/1999/xlink" width="106.16" height="106.16" viewBox="0 0 106.16 106.16">
  <defs>
    <filter id="Trazado_982547" x="0" y="0" width="106.16" height="106.16" filterUnits="userSpaceOnUse">
      <feOffset dy="3" input="SourceAlpha"/>
      <feGaussianBlur stdDeviation="3" result="blur"/>
      <feFlood flood-opacity="0.161"/>
      <feComposite operator="in" in2="blur"/>
      <feComposite in="SourceGraphic"/>
    </filter>
  </defs>
  <g id="Grupo_1228887" data-name="Grupo 1228887" transform="translate(-610.712 -5524.146)">
    <g id="Grupo_1228132" data-name="Grupo 1228132" transform="translate(419.712 2062.682)">
      <g id="Grupo_1224851" data-name="Grupo 1224851" transform="translate(0 1738.464)">
        <g id="Grupo_1206130" data-name="Grupo 1206130" transform="translate(0 -59)">
          <g id="Grupo_1203672" data-name="Grupo 1203672" transform="translate(0.08 -4797.878)">
            <g id="Grupo_1203344" data-name="Grupo 1203344" transform="translate(-81.08 5174.875)">
              <g id="Grupo_1177900" data-name="Grupo 1177900" transform="translate(281 1411.003)">
                <g id="Grupo_1172010" data-name="Grupo 1172010" transform="translate(0)">
                  <g id="Grupo_1171046" data-name="Grupo 1171046">
                    <g id="Grupo_1148525" data-name="Grupo 1148525">
                      <g transform="matrix(1, 0, 0, 1, -9, -6)" filter="url(#Trazado_982547)">
                        <g id="Trazado_982547-2" data-name="Trazado 982547" transform="translate(9 6)" fill="#e5ebfb">
                          <path d="M 44.0802001953125 86.660400390625 C 38.33124923706055 86.660400390625 32.75506210327148 85.53479766845703 27.50652503967285 83.31484985351562 C 22.43628692626953 81.17032623291016 17.88242530822754 78.09992218017578 13.97144985198975 74.18894958496094 C 10.06047534942627 70.27797698974609 6.99007511138916 65.72411346435547 4.845550060272217 60.65387344360352 C 2.625600099563599 55.40533828735352 1.500000238418579 49.82915115356445 1.500000238418579 44.0802001953125 C 1.500000238418579 38.33124923706055 2.625600099563599 32.75506210327148 4.845550060272217 27.50652503967285 C 6.99007511138916 22.43628692626953 10.06047534942627 17.88242530822754 13.97144985198975 13.97144985198975 C 17.88242530822754 10.06047534942627 22.43628692626953 6.99007511138916 27.50652503967285 4.845550060272217 C 32.75506210327148 2.625600099563599 38.33124923706055 1.500000238418579 44.0802001953125 1.500000238418579 C 49.82915115356445 1.500000238418579 55.40533828735352 2.625600099563599 60.65387344360352 4.845550060272217 C 65.72411346435547 6.99007511138916 70.27797698974609 10.06047534942627 74.18894958496094 13.97144985198975 C 78.09992218017578 17.88242530822754 81.17032623291016 22.43628692626953 83.31484985351562 27.50652503967285 C 85.53479766845703 32.75506210327148 86.660400390625 38.33124923706055 86.660400390625 44.0802001953125 C 86.660400390625 49.82915115356445 85.53479766845703 55.40533828735352 83.31484985351562 60.65387344360352 C 81.17032623291016 65.72411346435547 78.09992218017578 70.27797698974609 74.18894958496094 74.18894958496094 C 70.27797698974609 78.09992218017578 65.72411346435547 81.17032623291016 60.65387344360352 83.31484985351562 C 55.40533828735352 85.53479766845703 49.82915115356445 86.660400390625 44.0802001953125 86.660400390625 Z" stroke="none"/>
                          <path d="M 44.0802001953125 3 C 38.53308486938477 3 33.15349960327148 4.085746765136719 28.09085845947266 6.227058410644531 C 23.19941711425781 8.29595947265625 18.80581665039062 11.25841522216797 15.03211212158203 15.03211212158203 C 11.25841522216797 18.80581665039062 8.29595947265625 23.19941711425781 6.227058410644531 28.09085845947266 C 4.085746765136719 33.15349960327148 3 38.53308486938477 3 44.0802001953125 C 3 49.62731552124023 4.085746765136719 55.00691604614258 6.227058410644531 60.06954193115234 C 8.29595947265625 64.96098327636719 11.25841522216797 69.35458374023438 15.03211212158203 73.12828826904297 C 18.80581665039062 76.90198516845703 23.19941711425781 79.86444091796875 28.09085845947266 81.93334197998047 C 33.15349960327148 84.07466125488281 38.53308486938477 85.160400390625 44.0802001953125 85.160400390625 C 49.62731552124023 85.160400390625 55.00691604614258 84.07466125488281 60.06954193115234 81.93334197998047 C 64.96099853515625 79.86444091796875 69.35458374023438 76.90198516845703 73.12828826904297 73.12828826904297 C 76.90198516845703 69.35458374023438 79.86444091796875 64.96099853515625 81.93334197998047 60.06954193115234 C 84.07466125488281 55.00691604614258 85.160400390625 49.62731552124023 85.160400390625 44.0802001953125 C 85.160400390625 38.53308486938477 84.07466125488281 33.15349960327148 81.93334197998047 28.09085845947266 C 79.86444091796875 23.19941711425781 76.90198516845703 18.80581665039062 73.12828826904297 15.03211212158203 C 69.35458374023438 11.25841522216797 64.96098327636719 8.29595947265625 60.06954193115234 6.227058410644531 C 55.00691604614258 4.085746765136719 49.62731552124023 3 44.0802001953125 3 M 44.0802001953125 0 C 68.42502593994141 0 88.160400390625 19.73538970947266 88.160400390625 44.0802001953125 C 88.160400390625 68.42502593994141 68.42502593994141 88.160400390625 44.0802001953125 88.160400390625 C 19.73538970947266 88.160400390625 0 68.42502593994141 0 44.0802001953125 C 0 19.73538970947266 19.73538970947266 0 44.0802001953125 0 Z" stroke="none" fill="#0b47db"/>
                        </g>
                      </g>
                    </g>
                  </g>
                </g>
              </g>
            </g>
          </g>
        </g>
      </g>
    </g>
    <g id="solucion" transform="translate(634.575 5544.901)">
      <g id="Grupo_1228885" data-name="Grupo 1228885" transform="translate(1.91 1.909)">
        <g id="Grupo_1228872" data-name="Grupo 1228872" transform="translate(3.641 3.643)">
          <circle id="Elipse_13385" data-name="Elipse 13385" cx="23.5" cy="23.5" r="23.5" transform="translate(-0.116 0.449)" fill="#e6e9ed"/>
        </g>
        <g id="Grupo_1228873" data-name="Grupo 1228873" transform="translate(14.564 0.002)">
          <path id="Trazado_1218450" data-name="Trazado 1218450" d="M21.641,7.452v9.112H18V2h3.641Z" transform="translate(-18 -2)" fill="#ff826e"/>
        </g>
        <g id="Grupo_1228874" data-name="Grupo 1228874" transform="translate(7.282 3.643)">
          <path id="Trazado_1218451" data-name="Trazado 1218451" d="M13.641,6V16.923H10V6Z" transform="translate(-10 -6)" fill="#ff826e"/>
        </g>
        <g id="Grupo_1228875" data-name="Grupo 1228875" transform="translate(0 7.284)">
          <path id="Trazado_1218452" data-name="Trazado 1218452" d="M2,10H5.641v7.282H2Z" transform="translate(-2 -10)" fill="#ff826e"/>
        </g>
        <g id="Grupo_1228876" data-name="Grupo 1228876" transform="translate(0 34.591)">
          <path id="Trazado_1218453" data-name="Trazado 1218453" d="M16.564,54.564V58.2a1.826,1.826,0,0,1-1.82,1.82H3.82A1.826,1.826,0,0,1,2,58.2V54.564h.91a2.731,2.731,0,1,0,0-5.461H2V45.461a1.826,1.826,0,0,1,1.82-1.82H6.551v-.91a2.7,2.7,0,0,1,.592-1.693,2.593,2.593,0,0,1,.209-.237,2.729,2.729,0,0,1,4.66,1.93v.91h2.731a1.826,1.826,0,0,1,1.82,1.82V49.1h-.91a2.731,2.731,0,1,0,0,5.461Z" transform="translate(-2 -40)" fill="#b4dd7f"/>
        </g>
        <g id="Grupo_1228877" data-name="Grupo 1228877" transform="translate(47.333 27.309)">
          <path id="Trazado_1218454" data-name="Trazado 1218454" d="M61.282,35.641v1.82H54v-1.82A3.636,3.636,0,0,1,57.614,32h.027a3.64,3.64,0,0,1,3.641,3.641Z" transform="translate(-54 -32)" fill="#aab2bd"/>
        </g>
        <g id="Grupo_1228878" data-name="Grupo 1228878" transform="translate(47.333 49.155)">
          <path id="Trazado_1218455" data-name="Trazado 1218455" d="M61.282,56l-2.321,4.651a1.48,1.48,0,0,1-2.64,0L54,56h7.282Z" transform="translate(-54 -56)" fill="#aab2bd"/>
        </g>
        <g id="Grupo_1228879" data-name="Grupo 1228879" transform="translate(50.974 32.77)">
          <path id="Trazado_1218456" data-name="Trazado 1218456" d="M58,38h3.641V54.384H58Z" transform="translate(-58 -38)" fill="#ff826e"/>
        </g>
        <g id="Grupo_1228880" data-name="Grupo 1228880" transform="translate(47.333 32.77)">
          <path id="Trazado_1218457" data-name="Trazado 1218457" d="M57.641,38V54.384H54V38Z" transform="translate(-54 -38)" fill="#b4dd7f"/>
        </g>
        <g id="Grupo_1228881" data-name="Grupo 1228881" transform="translate(43.692 16.386)">
          <path id="Trazado_1218458" data-name="Trazado 1218458" d="M55.461,20v1.82a1.826,1.826,0,0,1-1.82,1.82H51.82A1.826,1.826,0,0,1,50,21.82V20h5.461Z" transform="translate(-50 -20)" fill="#aab2bd"/>
        </g>
        <g id="Grupo_1228882" data-name="Grupo 1228882" transform="translate(39.143)">
          <path id="Trazado_1218459" data-name="Trazado 1218459" d="M55.013,17.665v.719H49.551V17.7a2.7,2.7,0,0,0-1.183-2.285A7.239,7.239,0,0,1,45.018,8.8c.009-.155.027-.309.046-.473a7.281,7.281,0,1,1,11.151,7.082,2.664,2.664,0,0,0-1.2,2.257Z" transform="translate(-45.002 -1.998)" fill="#ffeaa7"/>
        </g>
        <g id="Grupo_1228883" data-name="Grupo 1228883" transform="translate(44.602 5.463)">
          <circle id="Elipse_13386" data-name="Elipse 13386" cx="2" cy="2" r="2" transform="translate(-0.077 -0.372)" fill="#fcd770"/>
        </g>
        <g id="Grupo_1228884" data-name="Grupo 1228884" transform="translate(16.384 16.386)">
          <path id="Trazado_1218460" data-name="Trazado 1218460" d="M41.846,30.923v2.731l-1.456.519a10.539,10.539,0,0,1-.482,1.147l.674,1.393-3.869,3.869-1.393-.674a10.539,10.539,0,0,1-1.147.482l-.519,1.456H28.192l-.519-1.456a10.54,10.54,0,0,1-1.147-.482l-1.393.674-3.869-3.869.674-1.393a10.538,10.538,0,0,1-.482-1.147L20,33.654V28.192l1.456-.519a10.538,10.538,0,0,1,.482-1.147l-.674-1.393,3.869-3.869,1.393.674a10.538,10.538,0,0,1,1.147-.482L28.192,20h5.461l.519,1.456a10.538,10.538,0,0,1,1.147.482l1.393-.674,3.869,3.869-.674,1.393a10.538,10.538,0,0,1,.482,1.147l1.456.519Zm-4.551,0a6.372,6.372,0,1,0-6.372,6.372A6.367,6.367,0,0,0,37.295,30.923Z" transform="translate(-20 -20)" fill="#fcd770"/>
        </g>
      </g>
      <g id="Grupo_1228886" data-name="Grupo 1228886" transform="translate(1 1)">
        <path id="Trazado_1218461" data-name="Trazado 1218461" d="M38.564,31.282a7.282,7.282,0,1,0-7.282,7.282A7.29,7.29,0,0,0,38.564,31.282Zm-7.282,5.461a5.461,5.461,0,1,1,5.461-5.461A5.467,5.467,0,0,1,31.282,36.743Z" transform="translate(-3.064 -3.064)"/>
        <path id="Trazado_1218462" data-name="Trazado 1218462" d="M53.774,28.4a24.406,24.406,0,0,0-1.8-8.469V17.574a1.777,1.777,0,0,1,.784-1.492A8.191,8.191,0,0,0,47.382,1.054a8.246,8.246,0,0,0-7.023,6.262A24.584,24.584,0,0,0,21.025,6.043V1H15.564V15.564h-1.82V4.641H8.282V15.564H6.461V8.282H1v9.1H7.678A24.5,24.5,0,0,0,6.057,37.41a3.6,3.6,0,0,0-.506,1.82H3.731A2.734,2.734,0,0,0,1,41.961v4.551H2.82a1.82,1.82,0,1,1,0,3.641H1V54.7a2.734,2.734,0,0,0,2.731,2.731H14.654A2.734,2.734,0,0,0,17.384,54.7V50.153h-1.82a1.82,1.82,0,1,1,0-3.641h1.82V41.961a2.734,2.734,0,0,0-2.731-2.731h-1.82a3.645,3.645,0,0,0-3.641-3.641,3.591,3.591,0,0,0-1.675.428A22.626,22.626,0,0,1,6.5,30.128H17.384v2.465l1.662.587q.085.214.178.429L18.464,35.2l4.773,4.773,1.591-.761c.142.063.285.123.429.178l.585,1.66h2.465v10.9a22.516,22.516,0,0,1-8.686-2.092l-.768,1.65A24.588,24.588,0,0,0,48.333,44.66v6.618l2.419,4.839a2.383,2.383,0,0,0,4.264,0l2.419-4.84V32.859A4.557,4.557,0,0,0,53.774,28.4ZM4.641,15.564H2.82V10.1h1.82ZM55.615,32.859v.91H50.153v-.91a2.731,2.731,0,0,1,5.461,0Zm-1.82,17.295V35.589h1.82V50.153Zm-3.641,0V35.589h1.82V50.153Zm-10.765-24.9q-.085-.214-.178-.429l.761-1.591L35.2,18.463l-1.591.761c-.142-.063-.285-.123-.429-.178l-.585-1.661H30.128V6.492A22.732,22.732,0,0,1,40.143,9.263a8.131,8.131,0,0,0,3.783,6.831,1.788,1.788,0,0,1,.765,1.517v2.5a2.734,2.734,0,0,0,2.731,2.731h1.82a2.7,2.7,0,0,0,1.648-.568,22.6,22.6,0,0,1,1.06,6.029h-10.9V25.842ZM50.153,19.2v.91a.912.912,0,0,1-.91.91h-1.82a.912.912,0,0,1-.91-.91V19.2ZM47.423,9.192a.91.91,0,1,1,.91.91A.912.912,0,0,1,47.423,9.192ZM42.016,8.35a6.4,6.4,0,0,1,5.571-5.488,6.8,6.8,0,0,1,.755-.042,6.3,6.3,0,0,1,4.234,1.618,6.367,6.367,0,0,1-.8,10.112,3.552,3.552,0,0,0-1.608,2.834h-.922V11.755a2.731,2.731,0,1,0-1.82,0v5.629H46.5a3.548,3.548,0,0,0-1.591-2.824A6.346,6.346,0,0,1,42.016,8.35ZM17.384,2.82H19.2V15.564h-1.82ZM10.1,6.461h1.82v9.1H10.1Zm.91,32.769v1.82h3.641a.912.912,0,0,1,.91.91v2.731a3.641,3.641,0,1,0,0,7.282V54.7a.912.912,0,0,1-.91.91H3.731a.912.912,0,0,1-.91-.91V51.974a3.641,3.641,0,0,0,0-7.282V41.961a.912.912,0,0,1,.91-.91H7.372V39.23a1.82,1.82,0,1,1,3.641,0Zm6.372-13.388v2.465H6.493a22.651,22.651,0,0,1,3.3-10.923H21.025v-9.4a22.55,22.55,0,0,1,7.282-1.5v10.9H25.842l-.587,1.662q-.214.085-.429.178l-1.591-.761-4.773,4.773.761,1.591c-.063.142-.123.285-.178.429Zm9.3,12.121-.417-.143a8.9,8.9,0,0,1-1.044-.435l-.4-.194-1.214.581-2.951-2.951.581-1.214-.194-.4a9.058,9.058,0,0,1-.435-1.044l-.143-.417L19.2,31.3V27.13l1.267-.447.143-.417a8.9,8.9,0,0,1,.435-1.044l.194-.4-.581-1.214,2.951-2.951,1.214.581.4-.194a9.058,9.058,0,0,1,1.044-.435l.417-.143.446-1.265H31.3l.447,1.267.417.143a8.9,8.9,0,0,1,1.044.435l.4.194,1.214-.581,2.951,2.951-.581,1.214.194.4a9.058,9.058,0,0,1,.435,1.044l.143.417,1.265.446V31.3l-1.267.447-.143.417a8.9,8.9,0,0,1-.435,1.044l-.194.4.581,1.214-2.951,2.951-1.214-.581-.4.194a9.058,9.058,0,0,1-1.044.435l-.417.143L31.3,39.23H27.13Zm3.443,13.981V41.051h2.465l.587-1.662q.214-.085.429-.178l1.591.761L39.973,35.2l-.761-1.591c.063-.142.123-.285.178-.429l1.66-.585V30.128h8.216a4.5,4.5,0,0,0-.934,2.731v8.7a22.639,22.639,0,0,1-18.2,10.387Zm23.26,3.36a.584.584,0,0,1-1.006,0l-1.666-3.331h4.336Z" transform="translate(-1 -1)"/>
        <path id="Trazado_1218463" data-name="Trazado 1218463" d="M34.865,52.225l.247,1.8a20.964,20.964,0,0,0,12.46-6.467L46.24,46.319a19.145,19.145,0,0,1-11.375,5.906Z" transform="translate(-4.039 -5.068)"/>
        <path id="Trazado_1218464" data-name="Trazado 1218464" d="M48.943,44.238l1.468,1.077a21.067,21.067,0,0,0,1.243-1.9L50.079,42.5A19.226,19.226,0,0,1,48.943,44.238Z" transform="translate(-5.303 -4.725)"/>
      </g>
    </g>
  </g>
</svg>
