<svg xmlns="http://www.w3.org/2000/svg" xmlns:xlink="http://www.w3.org/1999/xlink" width="106.16" height="106.16" viewBox="0 0 106.16 106.16">
  <defs>
    <filter id="Trazado_982547" x="0" y="0" width="106.16" height="106.16" filterUnits="userSpaceOnUse">
      <feOffset dy="3" input="SourceAlpha"/>
      <feGaussianBlur stdDeviation="3" result="blur"/>
      <feFlood flood-opacity="0.161"/>
      <feComposite operator="in" in2="blur"/>
      <feComposite in="SourceGraphic"/>
    </filter>
  </defs>
  <g id="Grupo_1228905" data-name="Grupo 1228905" transform="translate(-1030.5 -5524.146)">
    <g id="Grupo_1228133" data-name="Grupo 1228133" transform="translate(839.5 2062.682)">
      <g id="Grupo_1224851" data-name="Grupo 1224851" transform="translate(0 1738.464)">
        <g id="Grupo_1206130" data-name="Grupo 1206130" transform="translate(0 -59)">
          <g id="Grupo_1203672" data-name="Grupo 1203672" transform="translate(0.08 -4797.878)">
            <g id="Grupo_1203344" data-name="Grupo 1203344" transform="translate(-81.08 5174.875)">
              <g id="Grupo_1177900" data-name="Grupo 1177900" transform="translate(281 1411.003)">
                <g id="Grupo_1172010" data-name="Grupo 1172010" transform="translate(0)">
                  <g id="Grupo_1171046" data-name="Grupo 1171046">
                    <g id="Grupo_1148525" data-name="Grupo 1148525">
                      <g transform="matrix(1, 0, 0, 1, -9, -6)" filter="url(#Trazado_982547)">
                        <g id="Trazado_982547-2" data-name="Trazado 982547" transform="translate(9 6)" fill="#e5ebfb">
                          <path d="M 44.0802001953125 86.660400390625 C 38.33124923706055 86.660400390625 32.75506210327148 85.53479766845703 27.50652503967285 83.31484985351562 C 22.43628692626953 81.17032623291016 17.88242530822754 78.09992218017578 13.97144985198975 74.18894958496094 C 10.06047534942627 70.27797698974609 6.99007511138916 65.72411346435547 4.845550060272217 60.65387344360352 C 2.625600099563599 55.40533828735352 1.500000238418579 49.82915115356445 1.500000238418579 44.0802001953125 C 1.500000238418579 38.33124923706055 2.625600099563599 32.75506210327148 4.845550060272217 27.50652503967285 C 6.99007511138916 22.43628692626953 10.06047534942627 17.88242530822754 13.97144985198975 13.97144985198975 C 17.88242530822754 10.06047534942627 22.43628692626953 6.99007511138916 27.50652503967285 4.845550060272217 C 32.75506210327148 2.625600099563599 38.33124923706055 1.500000238418579 44.0802001953125 1.500000238418579 C 49.82915115356445 1.500000238418579 55.40533828735352 2.625600099563599 60.65387344360352 4.845550060272217 C 65.72411346435547 6.99007511138916 70.27797698974609 10.06047534942627 74.18894958496094 13.97144985198975 C 78.09992218017578 17.88242530822754 81.17032623291016 22.43628692626953 83.31484985351562 27.50652503967285 C 85.53479766845703 32.75506210327148 86.660400390625 38.33124923706055 86.660400390625 44.0802001953125 C 86.660400390625 49.82915115356445 85.53479766845703 55.40533828735352 83.31484985351562 60.65387344360352 C 81.17032623291016 65.72411346435547 78.09992218017578 70.27797698974609 74.18894958496094 74.18894958496094 C 70.27797698974609 78.09992218017578 65.72411346435547 81.17032623291016 60.65387344360352 83.31484985351562 C 55.40533828735352 85.53479766845703 49.82915115356445 86.660400390625 44.0802001953125 86.660400390625 Z" stroke="none"/>
                          <path d="M 44.0802001953125 3 C 38.53308486938477 3 33.15349960327148 4.085746765136719 28.09085845947266 6.227058410644531 C 23.19941711425781 8.29595947265625 18.80581665039062 11.25841522216797 15.03211212158203 15.03211212158203 C 11.25841522216797 18.80581665039062 8.29595947265625 23.19941711425781 6.227058410644531 28.09085845947266 C 4.085746765136719 33.15349960327148 3 38.53308486938477 3 44.0802001953125 C 3 49.62731552124023 4.085746765136719 55.00691604614258 6.227058410644531 60.06954193115234 C 8.29595947265625 64.96098327636719 11.25841522216797 69.35458374023438 15.03211212158203 73.12828826904297 C 18.80581665039062 76.90198516845703 23.19941711425781 79.86444091796875 28.09085845947266 81.93334197998047 C 33.15349960327148 84.07466125488281 38.53308486938477 85.160400390625 44.0802001953125 85.160400390625 C 49.62731552124023 85.160400390625 55.00691604614258 84.07466125488281 60.06954193115234 81.93334197998047 C 64.96099853515625 79.86444091796875 69.35458374023438 76.90198516845703 73.12828826904297 73.12828826904297 C 76.90198516845703 69.35458374023438 79.86444091796875 64.96099853515625 81.93334197998047 60.06954193115234 C 84.07466125488281 55.00691604614258 85.160400390625 49.62731552124023 85.160400390625 44.0802001953125 C 85.160400390625 38.53308486938477 84.07466125488281 33.15349960327148 81.93334197998047 28.09085845947266 C 79.86444091796875 23.19941711425781 76.90198516845703 18.80581665039062 73.12828826904297 15.03211212158203 C 69.35458374023438 11.25841522216797 64.96098327636719 8.29595947265625 60.06954193115234 6.227058410644531 C 55.00691604614258 4.085746765136719 49.62731552124023 3 44.0802001953125 3 M 44.0802001953125 0 C 68.42502593994141 0 88.160400390625 19.73538970947266 88.160400390625 44.0802001953125 C 88.160400390625 68.42502593994141 68.42502593994141 88.160400390625 44.0802001953125 88.160400390625 C 19.73538970947266 88.160400390625 0 68.42502593994141 0 44.0802001953125 C 0 19.73538970947266 19.73538970947266 0 44.0802001953125 0 Z" stroke="none" fill="#0b47db"/>
                        </g>
                      </g>
                    </g>
                  </g>
                </g>
              </g>
            </g>
          </g>
        </g>
      </g>
    </g>
    <g id="diverso" transform="translate(1052 5544)">
      <g id="Grupo_1228903" data-name="Grupo 1228903">
        <g id="Grupo_1228888" data-name="Grupo 1228888">
          <path id="Trazado_1218465" data-name="Trazado 1218465" d="M13,24v1a3,3,0,0,1-6,0V24h6Z" fill="#aab2bd"/>
        </g>
        <g id="Grupo_1228889" data-name="Grupo 1228889">
          <path id="Trazado_1218466" data-name="Trazado 1218466" d="M13,23.21V24H7v-.75a2.961,2.961,0,0,0-1.3-2.51A8,8,0,1,1,16.07,19.2a8.223,8.223,0,0,1-1.75,1.53A2.927,2.927,0,0,0,13,23.21Z" fill="#ffeaa7"/>
        </g>
        <g id="Grupo_1228890" data-name="Grupo 1228890">
          <path id="Trazado_1218467" data-name="Trazado 1218467" d="M16.87,39.9A8,8,0,1,1,10,36a7.934,7.934,0,0,1,6.87,3.9Z" fill="#e6e9ed"/>
        </g>
        <g id="Grupo_1228891" data-name="Grupo 1228891">
          <path id="Trazado_1218468" data-name="Trazado 1218468" d="M13.11,42.55a1.626,1.626,0,0,1,0,2.9L8.34,47.83A1.618,1.618,0,0,1,6,46.38V41.62a1.618,1.618,0,0,1,2.34-1.45Z" fill="#ff826e"/>
        </g>
        <g id="Grupo_1228892" data-name="Grupo 1228892">
          <path id="Trazado_1218469" data-name="Trazado 1218469" d="M37,2V14H27V2Z" fill="#e6e9ed"/>
        </g>
        <g id="Grupo_1228893" data-name="Grupo 1228893">
          <path id="Trazado_1218470" data-name="Trazado 1218470" d="M40,52v4l-1.48.54c-.04.09-.07.19-.11.28l.66,1.42-2.83,2.83-1.42-.66c-.09.04-.19.07-.28.11L34,62H30l-.54-1.48c-.09-.04-.19-.07-.28-.11l-1.42.66-2.83-2.83.66-1.42c-.04-.09-.07-.19-.11-.28L24,56V52l1.48-.54c.04-.09.07-.19.11-.28l-.66-1.42,2.83-2.83,1.42.66c.09-.04.19-.07.28-.11L30,46h4l.54,1.48c.09.04.19.07.28.11l1.42-.66,2.83,2.83-.66,1.42c.04.09.07.19.11.28Zm-4,2a4,4,0,1,0-4,4A4,4,0,0,0,36,54Z" fill="#fcd770"/>
        </g>
        <g id="Grupo_1228894" data-name="Grupo 1228894">
          <circle id="Elipse_13387" data-name="Elipse 13387" cx="2" cy="2" r="2" transform="translate(8 12)" fill="#fcd770"/>
        </g>
        <g id="Grupo_1228895" data-name="Grupo 1228895">
          <circle id="Elipse_13388" data-name="Elipse 13388" cx="10" cy="10" r="10" transform="translate(42 32)" fill="#fcd770"/>
        </g>
        <g id="Grupo_1228896" data-name="Grupo 1228896">
          <circle id="Elipse_13389" data-name="Elipse 13389" cx="7" cy="7" r="7" transform="translate(25 25)" fill="#fc6e51"/>
        </g>
        <g id="Grupo_1228897" data-name="Grupo 1228897">
          <circle id="Elipse_13390" data-name="Elipse 13390" cx="3" cy="3" r="3" transform="translate(29 29)" fill="#ff826e"/>
        </g>
        <g id="Grupo_1228898" data-name="Grupo 1228898">
          <path id="Trazado_1218471" data-name="Trazado 1218471" d="M34.81,30.99a1.275,1.275,0,0,1-.19.01A1.613,1.613,0,0,1,33,29.38a1.275,1.275,0,0,1,.01-.19,1.628,1.628,0,0,1,.16-.53l1.55-3.11L36,23l5,5-2.55,1.28-3.11,1.55a1.628,1.628,0,0,1-.53.16Z" fill="#aab2bd"/>
        </g>
        <g id="Grupo_1228899" data-name="Grupo 1228899">
          <path id="Trazado_1218472" data-name="Trazado 1218472" d="M62,5.54a3.536,3.536,0,0,1-1.04,2.5l-4.39,4.39L50,19l-3.09-2.47a6.939,6.939,0,0,0-3.04-1.4L50,9l5.96-5.96A3.54,3.54,0,0,1,62,5.54Z" fill="#5cd6b3"/>
        </g>
        <g id="Grupo_1228900" data-name="Grupo 1228900">
          <path id="Trazado_1218473" data-name="Trazado 1218473" d="M40.28,18.72a6.943,6.943,0,0,0,.96,1.02l5.01,3.01L41,28l-5-5,2.1-2.1Z" fill="#5cd6b3"/>
        </g>
        <g id="Grupo_1228901" data-name="Grupo 1228901">
          <path id="Trazado_1218474" data-name="Trazado 1218474" d="M40.75,15.75a2.49,2.49,0,0,0-.75,1.8,2.556,2.556,0,0,0,.28,1.17L38.1,20.9a2.866,2.866,0,0,1-1.5-.99,2.8,2.8,0,0,1-.6-1.74,2.831,2.831,0,0,1,.83-2l5.41-5.41A5.993,5.993,0,0,1,46.49,9H50l-6.13,6.13A6.424,6.424,0,0,0,42.55,15,2.49,2.49,0,0,0,40.75,15.75Z" fill="#f0d0b4"/>
        </g>
        <g id="Grupo_1228902" data-name="Grupo 1228902">
          <path id="Trazado_1218475" data-name="Trazado 1218475" d="M41.24,19.74a6.943,6.943,0,0,1-.96-1.02A2.556,2.556,0,0,1,40,17.55,2.561,2.561,0,0,1,42.55,15a6.424,6.424,0,0,1,1.32.13,6.939,6.939,0,0,1,3.04,1.4L50,19l6.57-6.57L60,15h2v8H60l-4.6,1.53a9.068,9.068,0,0,1-7.56-.83l-1.59-.95Z" fill="#f0d0b4"/>
        </g>
      </g>
      <g id="Grupo_1228904" data-name="Grupo 1228904">
        <path id="Trazado_1218476" data-name="Trazado 1218476" d="M27,54a5,5,0,1,0,5-5A5.006,5.006,0,0,0,27,54Zm5-3a3,3,0,1,1-3,3A3,3,0,0,1,32,51Z"/>
        <path id="Trazado_1218477" data-name="Trazado 1218477" d="M13.553,41.658,8.789,39.276A2.619,2.619,0,0,0,5,41.618v4.764a2.619,2.619,0,0,0,3.789,2.342l4.764-2.382a2.619,2.619,0,0,0,0-4.684Zm-.895,2.9L7.894,46.935A.637.637,0,0,1,7,46.382V41.618a.618.618,0,0,1,.894-.553l4.764,2.382a.618.618,0,0,1,0,1.106Z"/>
        <path id="Trazado_1218478" data-name="Trazado 1218478" d="M30,5h4V7H30Z"/>
        <path id="Trazado_1218479" data-name="Trazado 1218479" d="M30,9h4v2H30Z"/>
        <path id="Trazado_1218480" data-name="Trazado 1218480" d="M58.094,12.321l3.578-3.578a4.535,4.535,0,1,0-6.414-6.414L49.586,8h-3.1a6.95,6.95,0,0,0-4.949,2.05L38,13.585V1H26V15h5v9.069a7.972,7.972,0,0,0-4.832,2.472l-8.733-7.486A8.977,8.977,0,0,0,15.994,7.287,9,9,0,1,0,5.16,21.583,1.968,1.968,0,0,1,6,23.25V25a4,4,0,0,0,8,0V23.208a1.951,1.951,0,0,1,.862-1.639,9.1,9.1,0,0,0,1.264-1l8.859,7.593a7.929,7.929,0,0,0-.477,6.62L17.184,38.6a8.964,8.964,0,1,0,1.023,1.723l7.225-3.77A8,8,0,0,0,31,39.931V45H29.3l-.479,1.321-1.273-.6-3.82,3.82.6,1.273L23,51.3v5.4l1.321.48-.6,1.273,3.82,3.82,1.273-.6L29.3,63h5.4l.479-1.321,1.273.6,3.82-3.82-.6-1.273L41,56.7V51.3l-1.321-.48.6-1.273-3.82-3.82-1.273.6L34.7,45H33V39.931a8,8,0,0,0,5.648-3.488L41.764,38a11.054,11.054,0,1,0,.9-1.787l-3.124-1.562a7.873,7.873,0,0,0,.142-4.873l1.912-.956L46.4,24.009l.917.55a10.106,10.106,0,0,0,8.4.921L60.162,24H63V14H60.333ZM10,27a2,2,0,0,1-2-2h4A2,2,0,0,1,10,27ZM9,14a1,1,0,1,1,1,1A1,1,0,0,1,9,14Zm4.781,5.887A3.9,3.9,0,0,0,12.013,23H11V16.816a3,3,0,1,0-2,0V23H7.985a3.893,3.893,0,0,0-1.749-3.1A7,7,0,0,1,9.179,7.046,7.5,7.5,0,0,1,10.008,7a6.923,6.923,0,0,1,4.654,1.778,7,7,0,0,1-.881,11.109ZM10,51a7,7,0,1,1,7-7A7.008,7.008,0,0,1,10,51Zm23.6-3.177.212.447,1.019.423,1.2-.562,1.838,1.837-.56,1.2.445,1.081L39,52.7v2.6l-.823.3-.443.2-.425,1.031.56,1.2-1.838,1.837-1.2-.562-1.077.447L33.3,61H30.7l-.3-.823-.212-.447-1.019-.423-1.2.562-1.838-1.837.56-1.2-.445-1.081L25,55.3V52.7l.823-.3.443-.2.425-1.031-.56-1.2,1.838-1.837,1.2.562,1.077-.447L30.7,47h2.6ZM52,33a9,9,0,1,1-9,9A9.01,9.01,0,0,1,52,33ZM56.672,3.743a2.536,2.536,0,0,1,3.586,3.586L49.926,17.66l-2.391-1.913a7.95,7.95,0,0,0-1.791-1.076ZM42.95,11.464A4.967,4.967,0,0,1,46.485,10h1.1L43.52,14.066A7.983,7.983,0,0,0,42.554,14a3.55,3.55,0,0,0-3.434,4.465l-1.251,1.251a1.817,1.817,0,0,1-.334-2.838ZM34,32a2,2,0,1,1-2-2c.028,0,.056.007.084.008a2.618,2.618,0,0,0,1.908,1.908C33.993,31.944,34,31.972,34,32Zm.9-2.065a.637.637,0,0,1-.9-.553.615.615,0,0,1,.065-.276l2.209-4.417,3.038,3.038ZM28,3h8V13H28Zm8.585,12-.464.464a3.812,3.812,0,0,0,.318,5.683l-1.261,1.261-.955,1.911A7.929,7.929,0,0,0,33,24.069V15ZM38,32a6.014,6.014,0,1,1-4.692-5.853l-.937,1.875A4,4,0,1,0,36,32c0-.12-.022-.243-.034-.365l1.887-.943A6.007,6.007,0,0,1,38,32Zm3-5.414L37.414,23l2.79-2.791a3.515,3.515,0,0,0,.521.392l3.912,2.347ZM61,22H59.838l-4.752,1.584a8.185,8.185,0,0,1-6.734-.739l-6.6-3.958a1.554,1.554,0,0,1,.8-2.887,5.99,5.99,0,0,1,3.731,1.309L49.649,20H55V18H52.414l4.251-4.251,3,2.251H61Z"/>
        <path id="Trazado_1218481" data-name="Trazado 1218481" d="M53,45H51a1,1,0,0,1-1-1H48a3,3,0,0,0,3,3v2h2V47a3,3,0,0,0,0-6H51a1,1,0,0,1,0-2h2a1,1,0,0,1,1,1h2a3,3,0,0,0-3-3V35H51v2a3,3,0,0,0,0,6h2a1,1,0,0,1,0,2Z"/>
      </g>
    </g>
  </g>
</svg>
