<svg xmlns="http://www.w3.org/2000/svg" xmlns:xlink="http://www.w3.org/1999/xlink" width="118" height="118" viewBox="0 0 118 118">
  <defs>
    <filter id="Trazado_982547" x="0" y="0" width="118" height="118" filterUnits="userSpaceOnUse">
      <feOffset dy="3" input="SourceAlpha"/>
      <feGaussianBlur stdDeviation="3" result="blur"/>
      <feFlood flood-opacity="0.161"/>
      <feComposite operator="in" in2="blur"/>
      <feComposite in="SourceGraphic"/>
    </filter>
  </defs>
  <g id="Grupo_1229177" data-name="Grupo 1229177" transform="translate(-320.888 -8150.638)">
    <g id="Grupo_1225721" data-name="Grupo 1225721" transform="translate(0 6846.712)">
      <g id="Grupo_1224853" data-name="Grupo 1224853" transform="translate(329.888 1309.926)">
        <g id="Grupo_1174813" data-name="Grupo 1174813">
          <g id="Grupo_1201680" data-name="Grupo 1201680">
            <g id="Grupo_1201330" data-name="Grupo 1201330">
              <g id="Grupo_1172010" data-name="Grupo 1172010">
                <g id="Grupo_1171046" data-name="Grupo 1171046">
                  <g id="Grupo_1148525" data-name="Grupo 1148525">
                    <g transform="matrix(1, 0, 0, 1, -9, -6)" filter="url(#Trazado_982547)">
                      <g id="Trazado_982547-2" data-name="Trazado 982547" transform="translate(9 6)" fill="#fdf4ce">
                        <path d="M 50 98.5 C 43.45188522338867 98.5 37.10042953491211 97.21787261962891 31.12207221984863 94.68923950195312 C 25.34691429138184 92.24655914306641 20.15997123718262 88.74931335449219 15.70532894134521 84.29468536376953 C 11.2506856918335 79.84004211425781 7.753442764282227 74.65309906005859 5.310757160186768 68.8779296875 C 2.782128572463989 62.89957046508789 1.5 56.54811477661133 1.5 50 C 1.5 43.45188522338867 2.782128572463989 37.10042953491211 5.310757160186768 31.12207221984863 C 7.753442764282227 25.34691429138184 11.2506856918335 20.15997123718262 15.70532894134521 15.70532894134521 C 20.15997123718262 11.2506856918335 25.34691429138184 7.753442764282227 31.12207221984863 5.310757160186768 C 37.10042953491211 2.782128572463989 43.45188522338867 1.5 50 1.5 C 56.54811477661133 1.5 62.89957046508789 2.782128572463989 68.8779296875 5.310757160186768 C 74.65309906005859 7.753442764282227 79.84004211425781 11.2506856918335 84.29468536376953 15.70532894134521 C 88.74931335449219 20.15997123718262 92.24655914306641 25.34691429138184 94.68923950195312 31.12207221984863 C 97.21787261962891 37.10042953491211 98.5 43.45188522338867 98.5 50 C 98.5 56.54811477661133 97.21787261962891 62.89957046508789 94.68923950195312 68.8779296875 C 92.24655914306641 74.65309906005859 88.74931335449219 79.84004211425781 84.29468536376953 84.29468536376953 C 79.84004211425781 88.74931335449219 74.65309906005859 92.24655914306641 68.8779296875 94.68923950195312 C 62.89957046508789 97.21787261962891 56.54811477661133 98.5 50 98.5 Z" stroke="none"/>
                        <path d="M 50 3 C 43.65372467041016 3 37.49886322021484 4.242263793945312 31.70639801025391 6.6922607421875 C 26.11003112792969 9.059326171875 21.08335113525391 12.44861602783203 16.76598358154297 16.76598358154297 C 12.44861602783203 21.08335113525391 9.059326171875 26.11003112792969 6.6922607421875 31.70639801025391 C 4.242263793945312 37.49886322021484 3 43.65372467041016 3 50 C 3 56.34627532958984 4.242263793945312 62.50113677978516 6.6922607421875 68.29360198974609 C 9.059326171875 73.88996887207031 12.44861602783203 78.91666412353516 16.76598358154297 83.23401641845703 C 21.08335113525391 87.55138397216797 26.11003112792969 90.940673828125 31.70639801025391 93.3077392578125 C 37.49886322021484 95.75773620605469 43.65372467041016 97 50 97 C 56.34627532958984 97 62.50113677978516 95.75773620605469 68.29360198974609 93.3077392578125 C 73.88996887207031 90.940673828125 78.91666412353516 87.55138397216797 83.23401641845703 83.23401641845703 C 87.55138397216797 78.91666412353516 90.940673828125 73.88996887207031 93.3077392578125 68.29360198974609 C 95.75773620605469 62.50113677978516 97 56.34627532958984 97 50 C 97 43.65372467041016 95.75773620605469 37.49886322021484 93.3077392578125 31.70639801025391 C 90.940673828125 26.11003112792969 87.55138397216797 21.08335113525391 83.23401641845703 16.76598358154297 C 78.91666412353516 12.44861602783203 73.88996887207031 9.059326171875 68.29360198974609 6.6922607421875 C 62.50113677978516 4.242263793945312 56.34627532958984 3 50 3 M 50 0 C 77.61424255371094 0 100 22.38577270507812 100 50 C 100 77.61424255371094 77.61424255371094 100 50 100 C 22.38577270507812 100 0 77.61424255371094 0 50 C 0 22.38577270507812 22.38577270507812 0 50 0 Z" stroke="none" fill="#866d08"/>
                      </g>
                    </g>
                  </g>
                </g>
              </g>
            </g>
          </g>
        </g>
      </g>
    </g>
    <g id="codigo_2_" data-name="codigo (2)" transform="translate(348.625 8151.165)">
      <path id="Trazado_1218821" data-name="Trazado 1218821" d="M200.838,379.385h-15.6l-1.076,7.219h17.748Z" transform="translate(-161.415 -308.67)" fill="#4e5660"/>
      <path id="Trazado_1218822" data-name="Trazado 1218822" d="M173.33,442.7H149.78a1.536,1.536,0,0,1-1.474-1.97l.214-.727a3.035,3.035,0,0,1,2.912-2.178h20.245A3.035,3.035,0,0,1,174.589,440l.214.727a1.536,1.536,0,0,1-1.473,1.97Z" transform="translate(-129.93 -359.889)" fill="#c6c6c6"/>
      <path id="Trazado_1218823" data-name="Trazado 1218823" d="M159.481,437.823h-8.049A3.035,3.035,0,0,0,148.521,440l-.214.727a1.536,1.536,0,0,0,1.474,1.97h10.907A5.61,5.61,0,0,1,159.481,437.823Z" transform="translate(-129.93 -359.889)" fill="#9aa3b1"/>
      <path id="Trazado_1218824" data-name="Trazado 1218824" d="M61.574,77.289H14.823A7.323,7.323,0,0,1,7.5,69.966V42.032a7.323,7.323,0,0,1,7.323-7.323H61.574A7.323,7.323,0,0,1,68.9,42.032V69.966A7.323,7.323,0,0,1,61.574,77.289Z" transform="translate(-6.573 -6.574)" fill="#4e5660"/>
      <path id="Trazado_1218825" data-name="Trazado 1218825" d="M27.329,34.71H14.823A7.323,7.323,0,0,0,7.5,42.033V69.966a7.323,7.323,0,0,0,7.323,7.323H32.859C25.9,70,22.835,49.557,27.329,34.71Z" transform="translate(-6.573 -6.574)" fill="#383c43"/>
      <path id="Trazado_1218826" data-name="Trazado 1218826" d="M48.044,104.578V78.492a3.238,3.238,0,0,1,3.238-3.238h44.9a3.238,3.238,0,0,1,3.238,3.238v26.087a3.238,3.238,0,0,1-3.238,3.238h-44.9a3.238,3.238,0,0,1-3.238-3.238Z" transform="translate(-42.109 -42.11)" fill="#f7ef87"/>
      <path id="Trazado_1218827" data-name="Trazado 1218827" d="M65.084,107.816C61.181,99.7,59.6,86.57,61.665,75.254H51.283a3.238,3.238,0,0,0-3.238,3.238v26.087a3.238,3.238,0,0,0,3.238,3.238Z" transform="translate(-42.11 -42.11)" fill="#efd176"/>
      <path id="Trazado_1218828" data-name="Trazado 1218828" d="M278.452,75.254H256v32.562h22.452a3.238,3.238,0,0,0,3.238-3.238V78.492A3.238,3.238,0,0,0,278.452,75.254Z" transform="translate(-224.375 -42.11)" fill="#383c43"/>
      <path id="Trazado_1218829" data-name="Trazado 1218829" d="M7.5,303.52v2.049a7.323,7.323,0,0,0,7.323,7.323H61.574a7.323,7.323,0,0,0,7.323-7.323V303.52Z" transform="translate(-6.573 -242.177)" fill="#c6c6c6"/>
      <path id="Trazado_1218830" data-name="Trazado 1218830" d="M7.5,303.52v2.049a7.323,7.323,0,0,0,7.323,7.323H32.859a24.775,24.775,0,0,1-5.039-9.372Z" transform="translate(-6.573 -242.177)" fill="#9aa3b1"/>
      <circle id="Elipse_13395" data-name="Elipse 13395" cx="2.677" cy="2.677" r="2.677" transform="translate(28.948 63.352)" fill="#fff"/>
      <path id="Trazado_1218831" data-name="Trazado 1218831" d="M386.036,211.264h-3.683a.927.927,0,0,1,0-1.853h3.683a.927.927,0,0,1,0,1.853Z" transform="translate(-334.307 -159.694)" fill="#fff"/>
      <path id="Trazado_1218832" data-name="Trazado 1218832" d="M302.156,211.264h-7.512a.927.927,0,0,1,0-1.853h7.512a.927.927,0,0,1,0,1.853Z" transform="translate(-257.433 -159.694)" fill="#a3defe"/>
      <path id="Trazado_1218833" data-name="Trazado 1218833" d="M353.259,238.539h-4.582a.927.927,0,1,1,0-1.853h4.582a.927.927,0,1,1,0,1.853Z" transform="translate(-304.791 -183.599)" fill="#a3defe"/>
      <path id="Trazado_1218834" data-name="Trazado 1218834" d="M298,238.539h-3.352a.927.927,0,1,1,0-1.853H298a.927.927,0,1,1,0,1.853Z" transform="translate(-257.434 -183.599)" fill="#fff"/>
      <path id="Trazado_1218835" data-name="Trazado 1218835" d="M353.585,183.989h-6.8a.927.927,0,1,1,0-1.853h6.8a.927.927,0,0,1,0,1.853Z" transform="translate(-303.134 -135.788)" fill="#89d47f"/>
      <path id="Trazado_1218836" data-name="Trazado 1218836" d="M297.763,183.989h-3.118a.927.927,0,1,1,0-1.853h3.118a.927.927,0,1,1,0,1.853Z" transform="translate(-257.434 -135.788)" fill="#e8899e"/>
      <path id="Trazado_1218837" data-name="Trazado 1218837" d="M384.572,156.713h-3.889a.927.927,0,1,1,0-1.853h3.889a.927.927,0,1,1,0,1.853Z" transform="translate(-332.843 -111.882)" fill="#e8899e"/>
      <path id="Trazado_1218838" data-name="Trazado 1218838" d="M301.949,156.713h-7.306a.927.927,0,1,1,0-1.853h7.306a.927.927,0,1,1,0,1.853Z" transform="translate(-257.433 -111.882)" fill="#fff"/>
      <path id="Trazado_1218839" data-name="Trazado 1218839" d="M352.818,129.438h-4.141a.927.927,0,1,1,0-1.853h4.141a.927.927,0,1,1,0,1.853Z" transform="translate(-304.791 -87.976)" fill="#89d47f"/>
      <path id="Trazado_1218840" data-name="Trazado 1218840" d="M298,129.438h-3.352a.927.927,0,1,1,0-1.853H298a.927.927,0,1,1,0,1.853Z" transform="translate(-257.434 -87.976)" fill="#a3defe"/>
      <path id="Trazado_1218841" data-name="Trazado 1218841" d="M21.241,40.437a.926.926,0,0,0-1.188.554L15.765,52.773a.926.926,0,1,0,1.741.634l4.288-11.782a.926.926,0,0,0-.554-1.188Zm-5.874,2.289a.927.927,0,0,0-1.31,0l-3.818,3.817a.927.927,0,0,0,0,1.31l3.817,3.817a.927.927,0,0,0,1.31-1.31L12.2,47.2l3.162-3.162a.927.927,0,0,0,0-1.31ZM55,27.209H46.724a.927.927,0,0,0,0,1.853H55a6.4,6.4,0,0,1,6.4,6.4V60.417H58.241V36.382a4.169,4.169,0,0,0-4.164-4.164H9.173a4.169,4.169,0,0,0-4.164,4.164V60.417H1.853V35.458a6.4,6.4,0,0,1,6.4-6.4H42.063a.927.927,0,0,0,0-1.853H8.249A8.259,8.259,0,0,0,0,35.458V63.392a8.26,8.26,0,0,0,4.908,7.545.927.927,0,0,0,.751-1.694,6.4,6.4,0,0,1-3.806-5.85V62.27H61.4v1.123a6.4,6.4,0,0,1-6.4,6.4H9.606a.927.927,0,0,0,0,1.853H22.752l-.8,5.366H21.5a3.984,3.984,0,0,0-3.8,2.843l-.214.727a2.463,2.463,0,0,0,2.362,3.158H43.4a2.463,2.463,0,0,0,2.362-3.158l-.214-.727a3.984,3.984,0,0,0-3.8-2.843H41.3l-.8-5.366H55a8.259,8.259,0,0,0,8.249-8.249V35.458A8.259,8.259,0,0,0,55,27.209Zm1.388,33.207H6.862V36.382a2.314,2.314,0,0,1,2.311-2.311h44.9a2.314,2.314,0,0,1,2.311,2.311ZM24.625,71.642h14l.8,5.366h-15.6ZM40.5,78.861h1.248a2.121,2.121,0,0,1,2.023,1.513l.214.727a.6.6,0,0,1-.1.537.6.6,0,0,1-.488.244H19.85a.6.6,0,0,1-.488-.244.6.6,0,0,1-.1-.537l.214-.727A2.121,2.121,0,0,1,21.5,78.861h19Zm-17-36.135a.927.927,0,0,0-1.31,1.31L25.356,47.2l-3.162,3.162a.927.927,0,0,0,1.31,1.31l3.817-3.817a.927.927,0,0,0,0-1.31Z"/>
    </g>
  </g>
</svg>
