<svg xmlns="http://www.w3.org/2000/svg" xmlns:xlink="http://www.w3.org/1999/xlink" width="118" height="118" viewBox="0 0 118 118">
  <defs>
    <filter id="Trazado_982547" x="0" y="0" width="118" height="118" filterUnits="userSpaceOnUse">
      <feOffset dy="3" input="SourceAlpha"/>
      <feGaussianBlur stdDeviation="3" result="blur"/>
      <feFlood flood-opacity="0.161"/>
      <feComposite operator="in" in2="blur"/>
      <feComposite in="SourceGraphic"/>
    </filter>
  </defs>
  <g id="Grupo_1229179" data-name="Grupo 1229179" transform="translate(-740.638 -8150.638)">
    <g id="Grupo_1225728" data-name="Grupo 1225728" transform="translate(0 6846.712)">
      <g id="Grupo_1224854" data-name="Grupo 1224854" transform="translate(749.638 1309.926)">
        <g id="Grupo_1174813" data-name="Grupo 1174813">
          <g id="Grupo_1201680" data-name="Grupo 1201680">
            <g id="Grupo_1201330" data-name="Grupo 1201330">
              <g id="Grupo_1172010" data-name="Grupo 1172010">
                <g id="Grupo_1171046" data-name="Grupo 1171046">
                  <g id="Grupo_1148525" data-name="Grupo 1148525">
                    <g transform="matrix(1, 0, 0, 1, -9, -6)" filter="url(#Trazado_982547)">
                      <g id="Trazado_982547-2" data-name="Trazado 982547" transform="translate(9 6)" fill="#fdf4ce">
                        <path d="M 50 98.5 C 43.45188522338867 98.5 37.10042953491211 97.21787261962891 31.12207221984863 94.68923950195312 C 25.34691429138184 92.24655914306641 20.15997123718262 88.74931335449219 15.70532894134521 84.29468536376953 C 11.2506856918335 79.84004211425781 7.753442764282227 74.65309906005859 5.310757160186768 68.8779296875 C 2.782128572463989 62.89957046508789 1.5 56.54811477661133 1.5 50 C 1.5 43.45188522338867 2.782128572463989 37.10042953491211 5.310757160186768 31.12207221984863 C 7.753442764282227 25.34691429138184 11.2506856918335 20.15997123718262 15.70532894134521 15.70532894134521 C 20.15997123718262 11.2506856918335 25.34691429138184 7.753442764282227 31.12207221984863 5.310757160186768 C 37.10042953491211 2.782128572463989 43.45188522338867 1.5 50 1.5 C 56.54811477661133 1.5 62.89957046508789 2.782128572463989 68.8779296875 5.310757160186768 C 74.65309906005859 7.753442764282227 79.84004211425781 11.2506856918335 84.29468536376953 15.70532894134521 C 88.74931335449219 20.15997123718262 92.24655914306641 25.34691429138184 94.68923950195312 31.12207221984863 C 97.21787261962891 37.10042953491211 98.5 43.45188522338867 98.5 50 C 98.5 56.54811477661133 97.21787261962891 62.89957046508789 94.68923950195312 68.8779296875 C 92.24655914306641 74.65309906005859 88.74931335449219 79.84004211425781 84.29468536376953 84.29468536376953 C 79.84004211425781 88.74931335449219 74.65309906005859 92.24655914306641 68.8779296875 94.68923950195312 C 62.89957046508789 97.21787261962891 56.54811477661133 98.5 50 98.5 Z" stroke="none"/>
                        <path d="M 50 3 C 43.65372467041016 3 37.49886322021484 4.242263793945312 31.70639801025391 6.6922607421875 C 26.11003112792969 9.059326171875 21.08335113525391 12.44861602783203 16.76598358154297 16.76598358154297 C 12.44861602783203 21.08335113525391 9.059326171875 26.11003112792969 6.6922607421875 31.70639801025391 C 4.242263793945312 37.49886322021484 3 43.65372467041016 3 50 C 3 56.34627532958984 4.242263793945312 62.50113677978516 6.6922607421875 68.29360198974609 C 9.059326171875 73.88996887207031 12.44861602783203 78.91666412353516 16.76598358154297 83.23401641845703 C 21.08335113525391 87.55138397216797 26.11003112792969 90.940673828125 31.70639801025391 93.3077392578125 C 37.49886322021484 95.75773620605469 43.65372467041016 97 50 97 C 56.34627532958984 97 62.50113677978516 95.75773620605469 68.29360198974609 93.3077392578125 C 73.88996887207031 90.940673828125 78.91666412353516 87.55138397216797 83.23401641845703 83.23401641845703 C 87.55138397216797 78.91666412353516 90.940673828125 73.88996887207031 93.3077392578125 68.29360198974609 C 95.75773620605469 62.50113677978516 97 56.34627532958984 97 50 C 97 43.65372467041016 95.75773620605469 37.49886322021484 93.3077392578125 31.70639801025391 C 90.940673828125 26.11003112792969 87.55138397216797 21.08335113525391 83.23401641845703 16.76598358154297 C 78.91666412353516 12.44861602783203 73.88996887207031 9.059326171875 68.29360198974609 6.6922607421875 C 62.50113677978516 4.242263793945312 56.34627532958984 3 50 3 M 50 0 C 77.61424255371094 0 100 22.38577270507812 100 50 C 100 77.61424255371094 77.61424255371094 100 50 100 C 22.38577270507812 100 0 77.61424255371094 0 50 C 0 22.38577270507812 22.38577270507812 0 50 0 Z" stroke="none" fill="#866d08"/>
                      </g>
                    </g>
                  </g>
                </g>
              </g>
            </g>
          </g>
        </g>
      </g>
    </g>
    <g id="modelos-predictivos" transform="translate(768 8175)">
      <circle id="Elipse_13396" data-name="Elipse 13396" cx="2" cy="2" r="2" transform="translate(57 41)" fill="#f6db40"/>
      <circle id="Elipse_13397" data-name="Elipse 13397" cx="2" cy="2" r="2" transform="translate(57 32)" fill="#f6db40"/>
      <circle id="Elipse_13398" data-name="Elipse 13398" cx="2" cy="2" r="2" transform="translate(3 41)" fill="#f6db40"/>
      <circle id="Elipse_13399" data-name="Elipse 13399" cx="2" cy="2" r="2" transform="translate(3 32)" fill="#f6db40"/>
      <path id="Trazado_1218842" data-name="Trazado 1218842" d="M41,49v8l-9,4V53Z" fill="#8360f4"/>
      <path id="Trazado_1218843" data-name="Trazado 1218843" d="M32,53v8l-9-4V49Z" fill="#8360f4"/>
      <path id="Trazado_1218844" data-name="Trazado 1218844" d="M32,45l9,4-9,4-9-4Z" fill="#db535b"/>
      <path id="Trazado_1218845" data-name="Trazado 1218845" d="M22.17,38a4.116,4.116,0,0,1-4.15-3.61c-.01-.13-.02-.26-.02-.39a3.995,3.995,0,0,1,4-4c.05,0,.1.01.15.01-.29-1.09-.29-2.3,1.31-3.87A3.658,3.658,0,0,1,26.1,25a3.947,3.947,0,0,1,2.14.69,3.973,3.973,0,0,1,7.52,0A3.947,3.947,0,0,1,37.9,25a3.658,3.658,0,0,1,2.64,1.14c1.6,1.57,1.6,2.78,1.31,3.87.05,0,.1-.01.15-.01a3.995,3.995,0,0,1,4,4c0,.13-.01.26-.02.39A4.116,4.116,0,0,1,41.83,38H41v6a4,4,0,0,1-4-4V38Z" fill="#f6db40"/>
      <path id="Trazado_1218846" data-name="Trazado 1218846" d="M61,9H55V3Z" fill="#8360f4"/>
      <path id="Trazado_1218847" data-name="Trazado 1218847" d="M40,9H34V3Z" fill="#8360f4"/>
      <path id="Trazado_1218848" data-name="Trazado 1218848" d="M19,9H13V3Z" fill="#8360f4"/>
      <path id="Trazado_1218849" data-name="Trazado 1218849" d="M61,9V19H45V3H55V9Z" fill="#6599ed"/>
      <path id="Trazado_1218850" data-name="Trazado 1218850" d="M40,9V19H24V3H34V9Z" fill="#6599ed"/>
      <path id="Trazado_1218851" data-name="Trazado 1218851" d="M19,9V19H3V3H13V9Z" fill="#6599ed"/>
      <g id="Grupo_1229178" data-name="Grupo 1229178">
        <path id="Trazado_1218852" data-name="Trazado 1218852" d="M15,37a1,1,0,0,0-.707.293L9.586,42H7.816a3,3,0,1,0,0,2H10a1,1,0,0,0,.707-.293L15.414,39H31v5.35l-8.406,3.736A1,1,0,0,0,22,49v8a1,1,0,0,0,.594.914l9,4a1,1,0,0,0,.812,0l9-4A1,1,0,0,0,42,57V49a1,1,0,0,0-.594-.914L33,44.35V39h3v1a5.006,5.006,0,0,0,5,5,1,1,0,0,0,1-1V39h6.586l4.707,4.707A1,1,0,0,0,54,44h2.184a3,3,0,1,0,0-2h-1.77l-4.707-4.707A1,1,0,0,0,49,37H45.958a4.826,4.826,0,0,0,.919-2h9.308a3,3,0,1,0,0-2H46.87a4.974,4.974,0,0,0-.715-1.741l7.552-7.552A1,1,0,0,0,54,23V20h7a1,1,0,0,0,1-1V9a1,1,0,0,0-.293-.707l-6-6A1,1,0,0,0,55,2H45a1,1,0,0,0-1,1V19a1,1,0,0,0,1,1h7v2.586l-7.255,7.255A5,5,0,0,0,43,29.1a4.9,4.9,0,0,0-1.753-3.678A4.61,4.61,0,0,0,37.877,24a4.989,4.989,0,0,0-1.667.329A5,5,0,0,0,33,22.113V20h7a1,1,0,0,0,1-1V9a1,1,0,0,0-.293-.707l-6-6A1,1,0,0,0,34,2H24a1,1,0,0,0-1,1V19a1,1,0,0,0,1,1h7v2.112a5,5,0,0,0-3.21,2.218A4.989,4.989,0,0,0,26.123,24a4.671,4.671,0,0,0-3.369,1.422A4.9,4.9,0,0,0,21,29.1a4.992,4.992,0,0,0-1.745.739L12,22.586V20h7a1,1,0,0,0,1-1V9a1,1,0,0,0-.293-.707l-6-6A1,1,0,0,0,13,2H3A1,1,0,0,0,2,3V19a1,1,0,0,0,1,1h7v3a1,1,0,0,0,.293.707l7.552,7.552A4.974,4.974,0,0,0,17.13,33H7.816a3,3,0,1,0,0,2h9.308a4.832,4.832,0,0,0,.919,2ZM5,44a1,1,0,1,1,1-1A1,1,0,0,1,5,44Zm19,6.539,7,3.111v5.812l-7-3.111Zm9,8.922V53.65l7-3.111v5.812ZM38.538,49,32,51.906,25.462,49,31,46.539V49h2V46.539ZM59,42a1,1,0,1,1-1,1A1,1,0,0,1,59,42ZM56,5.414,58.586,8H56ZM46,4h8V9a1,1,0,0,0,1,1h5v8H46ZM35,5.414,37.586,8H35ZM25,4h8V9a1,1,0,0,0,1,1h5v8H25ZM14,5.414,16.586,8H14ZM4,4h8V9a1,1,0,0,0,1,1h5v8H4ZM59,33a1,1,0,1,1-1,1A1,1,0,0,1,59,33ZM21.938,31c.034,0,.134.015.168.016a1,1,0,0,0,1.007-1.253c-.2-.755-.281-1.6,1.046-2.914A2.669,2.669,0,0,1,26.074,26a2.986,2.986,0,0,1,1.6.513,1,1,0,0,0,1.5-.5,2.976,2.976,0,0,1,5.634,0,1,1,0,0,0,1.505.5,2.991,2.991,0,0,1,1.6-.513,2.773,2.773,0,0,1,1.916.846c1.327,1.312,1.245,2.159,1.046,2.914a1,1,0,0,0,.188.88,1.008,1.008,0,0,0,.819.373A.275.275,0,0,0,42,31a3,3,0,0,1,2.986,3.3A3.119,3.119,0,0,1,41.828,37H41a1,1,0,0,0-1,1v4.829A3.006,3.006,0,0,1,38,40V38a1,1,0,0,0-1-1V35.414l1.707-1.707A1,1,0,0,0,39,33V30H37v2.586l-1.707,1.707A1,1,0,0,0,35,35v2H33V28H31v9H29V35a1,1,0,0,0-.293-.707L27,32.586V30H25v3a1,1,0,0,0,.293.707L27,35.414V37H22.172a3.119,3.119,0,0,1-3.158-2.7A3.005,3.005,0,0,1,21.938,31ZM5,35a1,1,0,1,1,1-1A1,1,0,0,1,5,35Z" fill="#1a1a1a"/>
        <path id="Trazado_1218853" data-name="Trazado 1218853" d="M45,52h2v2H45Z" fill="#1a1a1a"/>
        <path id="Trazado_1218854" data-name="Trazado 1218854" d="M49,52h2v2H49Z" fill="#1a1a1a"/>
        <path id="Trazado_1218855" data-name="Trazado 1218855" d="M49,56h2v2H49Z" fill="#1a1a1a"/>
        <path id="Trazado_1218856" data-name="Trazado 1218856" d="M49,48h2v2H49Z" fill="#1a1a1a"/>
        <path id="Trazado_1218857" data-name="Trazado 1218857" d="M17,52h2v2H17Z" fill="#1a1a1a"/>
        <path id="Trazado_1218858" data-name="Trazado 1218858" d="M13,52h2v2H13Z" fill="#1a1a1a"/>
        <path id="Trazado_1218859" data-name="Trazado 1218859" d="M13,56h2v2H13Z" fill="#1a1a1a"/>
        <path id="Trazado_1218860" data-name="Trazado 1218860" d="M13,48h2v2H13Z" fill="#1a1a1a"/>
      </g>
    </g>
  </g>
</svg>
