<svg xmlns="http://www.w3.org/2000/svg" width="644.5" height="302.497" viewBox="0 0 644.5 302.497">
  <g id="Grupo_1229420" data-name="Grupo 1229420" transform="translate(-478 -4565)">
    <g id="Grupo_1228433" data-name="Grupo 1228433" transform="translate(-1 0)">
      <rect id="Rectángulo_417673" data-name="Rectángulo 417673" width="283" height="56" transform="translate(479 4565)" fill="#5c2c88"/>
      <g id="Trazado_1217634" data-name="Trazado 1217634" transform="translate(479 4619)" fill="#fff" stroke-linecap="round">
        <path d="M 281.5 89.5 L 1.5 89.5 L 1.5 1.5 L 281.5 1.5 L 281.5 89.5 Z" stroke="none"/>
        <path d="M 3 3 L 3 88 L 280 88 L 280 3 L 3 3 M 0 0 L 283 0 L 283 91 L 0 91 L 0 0 Z" stroke="none" fill="#5c2c88"/>
      </g>
      <path id="Trazado_1219409" data-name="Trazado 1219409" d="M6.812-13.263a5.291,5.291,0,0,1,3.806,1.292,4.563,4.563,0,0,1,1.5,2.936H10.415a3.549,3.549,0,0,0-1.156-1.978,3.663,3.663,0,0,0-2.43-.729A3.9,3.9,0,0,0,3.749-10.4,6.11,6.11,0,0,0,2.575-6.293,5.968,5.968,0,0,0,3.634-2.615,3.7,3.7,0,0,0,6.794-1.2,3.338,3.338,0,0,0,9.738-2.689a5.649,5.649,0,0,0,.8-2.057h1.705a5.826,5.826,0,0,1-1.512,3.419A5.379,5.379,0,0,1,6.583.334,5.475,5.475,0,0,1,2.8-1.028Q.791-2.83.791-6.592A7.107,7.107,0,0,1,2.3-11.276,5.522,5.522,0,0,1,6.812-13.263ZM14.2-9.413h1.5v1.626a3.592,3.592,0,0,1,.905-1.156,2.347,2.347,0,0,1,1.661-.681q.044,0,.149.009t.36.035v1.67a2.363,2.363,0,0,0-.259-.035q-.119-.009-.259-.009a2.258,2.258,0,0,0-1.837.769,2.684,2.684,0,0,0-.642,1.771V0H14.2Zm9.87-.211a4.294,4.294,0,0,1,1.942.47,3.582,3.582,0,0,1,1.433,1.217,4.2,4.2,0,0,1,.633,1.661A10.868,10.868,0,0,1,28.222-4.2h-6.9A4.026,4.026,0,0,0,22-1.9a2.266,2.266,0,0,0,1.96.866,2.534,2.534,0,0,0,1.978-.817,2.755,2.755,0,0,0,.6-1.1H28.09A3.276,3.276,0,0,1,27.681-1.8,4.111,4.111,0,0,1,26.9-.756a3.687,3.687,0,0,1-1.784.949,5.42,5.42,0,0,1-1.292.141A3.964,3.964,0,0,1,20.848-.945a4.976,4.976,0,0,1-1.222-3.582,5.41,5.41,0,0,1,1.23-3.683A4.059,4.059,0,0,1,24.073-9.624ZM26.6-5.458A4.1,4.1,0,0,0,26.147-7.1a2.3,2.3,0,0,0-2.171-1.143,2.406,2.406,0,0,0-1.828.787,2.972,2.972,0,0,0-.782,2ZM31.377-2.5a1.3,1.3,0,0,0,.5,1.081,1.857,1.857,0,0,0,1.187.4,3.608,3.608,0,0,0,1.617-.387A2.176,2.176,0,0,0,36-3.516V-4.79a2.707,2.707,0,0,1-.747.308,6.366,6.366,0,0,1-.9.176l-.958.123a3.664,3.664,0,0,0-1.292.36A1.4,1.4,0,0,0,31.377-2.5Zm3.832-3.2a.859.859,0,0,0,.729-.457,1.391,1.391,0,0,0,.105-.606,1.285,1.285,0,0,0-.576-1.173,3.089,3.089,0,0,0-1.648-.365,2.094,2.094,0,0,0-1.758.668,2.2,2.2,0,0,0-.378,1.1H30.208A2.718,2.718,0,0,1,31.337-8.96a4.637,4.637,0,0,1,2.518-.681,5.124,5.124,0,0,1,2.7.633A2.147,2.147,0,0,1,37.582-7.04v5.423a.694.694,0,0,0,.1.4.487.487,0,0,0,.426.149q.105,0,.237-.013t.281-.04V.044a4.406,4.406,0,0,1-.562.132A4.111,4.111,0,0,1,37.538.2a1.3,1.3,0,0,1-1.187-.58,2.239,2.239,0,0,1-.272-.87,4.025,4.025,0,0,1-1.389,1.1,4.3,4.3,0,0,1-2,.466,2.967,2.967,0,0,1-2.14-.8,2.642,2.642,0,0,1-.831-1.991,2.564,2.564,0,0,1,.817-2.03,3.889,3.889,0,0,1,2.145-.888Zm5.282-6.337h1.6v2.628h1.5v1.292h-1.5v6.144a.665.665,0,0,0,.334.659,1.42,1.42,0,0,0,.615.1q.114,0,.246,0t.308-.022V0a3.532,3.532,0,0,1-.567.114,5.39,5.39,0,0,1-.637.035,1.717,1.717,0,0,1-1.5-.567,2.519,2.519,0,0,1-.4-1.472V-8.121H39.217V-9.413h1.274ZM48.911-1.02A2.182,2.182,0,0,0,51.069-2.21a5.933,5.933,0,0,0,.584-2.65A4.718,4.718,0,0,0,51.231-7a2.373,2.373,0,0,0-2.3-1.3A2.271,2.271,0,0,0,46.819-7.2a5.133,5.133,0,0,0-.659,2.672,4.465,4.465,0,0,0,.659,2.5A2.322,2.322,0,0,0,48.911-1.02Zm.062-8.666a4.262,4.262,0,0,1,3.076,1.213A4.736,4.736,0,0,1,53.306-4.9,6.122,6.122,0,0,1,52.2-1.143,4.006,4.006,0,0,1,48.762.343,3.88,3.88,0,0,1,45.677-.971,5.19,5.19,0,0,1,44.534-4.5a5.615,5.615,0,0,1,1.2-3.779A4.041,4.041,0,0,1,48.973-9.686Zm6.258.272h1.5v1.626a3.592,3.592,0,0,1,.905-1.156A2.347,2.347,0,0,1,59.3-9.624q.044,0,.149.009t.36.035v1.67a2.363,2.363,0,0,0-.259-.035q-.119-.009-.259-.009a2.258,2.258,0,0,0-1.837.769,2.684,2.684,0,0,0-.642,1.771V0H55.23Z" transform="translate(588 4600)" fill="#fff"/>
      <path id="Trazado_1219405" data-name="Trazado 1219405" d="M.264-4.931H2.312l.826-3.023H1.1l.272-1.02H3.41l1.046-3.937h1.31L4.7-8.974H6.645l1.081-3.937H9.018L7.954-8.974H9.993l-.272,1.02H7.682L6.847-4.931H8.895l-.272,1.02H6.6L5.52,0H4.228L5.291-3.911H3.331L2.285,0H.976L2.039-3.911H0Zm5.273,0,.835-3.023H4.43L3.621-4.931Zm11.034-5.915a2.821,2.821,0,0,1,.343-1.441,2.423,2.423,0,0,1,2.136-.809q.149,0,.308.009t.36.026v1.441q-.246-.018-.356-.022t-.207,0q-.721,0-.861.374a7.385,7.385,0,0,0-.141,1.9h1.564v1.248H18.135V0H16.571V-8.121h-1.31V-9.369h1.31ZM22.391-2.5a1.3,1.3,0,0,0,.5,1.081,1.857,1.857,0,0,0,1.187.4A3.608,3.608,0,0,0,25.7-1.415a2.176,2.176,0,0,0,1.318-2.1V-4.79a2.707,2.707,0,0,1-.747.308,6.366,6.366,0,0,1-.9.176l-.958.123a3.664,3.664,0,0,0-1.292.36A1.4,1.4,0,0,0,22.391-2.5Zm3.832-3.2a.859.859,0,0,0,.729-.457,1.391,1.391,0,0,0,.105-.606,1.285,1.285,0,0,0-.576-1.173,3.089,3.089,0,0,0-1.648-.365,2.094,2.094,0,0,0-1.758.668,2.2,2.2,0,0,0-.378,1.1H21.222A2.718,2.718,0,0,1,22.352-8.96a4.637,4.637,0,0,1,2.518-.681,5.124,5.124,0,0,1,2.7.633A2.147,2.147,0,0,1,28.6-7.04v5.423a.694.694,0,0,0,.1.4.487.487,0,0,0,.426.149q.105,0,.237-.013t.281-.04V.044a4.406,4.406,0,0,1-.562.132A4.111,4.111,0,0,1,28.552.2a1.3,1.3,0,0,1-1.187-.58,2.239,2.239,0,0,1-.272-.87A4.025,4.025,0,0,1,25.7-.149a4.3,4.3,0,0,1-2,.466,2.967,2.967,0,0,1-2.14-.8,2.642,2.642,0,0,1-.831-1.991,2.564,2.564,0,0,1,.817-2.03A3.889,3.889,0,0,1,23.7-5.388Zm8.6-3.981a4.1,4.1,0,0,1,2.588.773,3.705,3.705,0,0,1,1.2,2.663H37.071a2.839,2.839,0,0,0-.642-1.446,2.027,2.027,0,0,0-1.608-.576,2.222,2.222,0,0,0-2.162,1.477,5.865,5.865,0,0,0-.422,2.364,4.449,4.449,0,0,0,.6,2.382,2.05,2.05,0,0,0,1.881.967,2.057,2.057,0,0,0,1.56-.6,3.311,3.311,0,0,0,.8-1.648h1.538A4.129,4.129,0,0,1,37.29-.593a4.113,4.113,0,0,1-2.7.866,3.6,3.6,0,0,1-2.944-1.349,5.164,5.164,0,0,1-1.1-3.371,5.678,5.678,0,0,1,1.2-3.858A3.891,3.891,0,0,1,34.821-9.686Zm5.688-2.355h1.6v2.628h1.5v1.292h-1.5v6.144a.665.665,0,0,0,.334.659,1.42,1.42,0,0,0,.615.1q.114,0,.246,0t.308-.022V0a3.532,3.532,0,0,1-.567.114,5.39,5.39,0,0,1-.637.035,1.717,1.717,0,0,1-1.5-.567,2.519,2.519,0,0,1-.4-1.472V-8.121H39.235V-9.413h1.274ZM48.931-1.02A2.182,2.182,0,0,0,51.088-2.21a5.933,5.933,0,0,0,.584-2.65A4.718,4.718,0,0,0,51.251-7a2.373,2.373,0,0,0-2.3-1.3A2.271,2.271,0,0,0,46.839-7.2a5.133,5.133,0,0,0-.659,2.672,4.465,4.465,0,0,0,.659,2.5A2.322,2.322,0,0,0,48.931-1.02Zm.062-8.666a4.262,4.262,0,0,1,3.076,1.213A4.736,4.736,0,0,1,53.325-4.9a6.122,6.122,0,0,1-1.107,3.762A4.006,4.006,0,0,1,48.781.343,3.88,3.88,0,0,1,45.7-.971,5.19,5.19,0,0,1,44.554-4.5a5.615,5.615,0,0,1,1.2-3.779A4.041,4.041,0,0,1,48.992-9.686Zm6.26.272h1.5v1.626a3.592,3.592,0,0,1,.905-1.156,2.347,2.347,0,0,1,1.661-.681q.044,0,.149.009t.36.035v1.67a2.363,2.363,0,0,0-.259-.035q-.119-.009-.259-.009a2.258,2.258,0,0,0-1.837.769,2.684,2.684,0,0,0-.642,1.771V0H55.252Zm11.832,0h1.749q-.334.905-1.485,4.131-.861,2.426-1.441,3.955a26.738,26.738,0,0,1-1.934,4.395,2.21,2.21,0,0,1-1.934.791,3.794,3.794,0,0,1-.514-.026,4.062,4.062,0,0,1-.444-.1V2.294a5.458,5.458,0,0,0,.6.141A2.333,2.333,0,0,0,62,2.461a1.139,1.139,0,0,0,.646-.145A1.338,1.338,0,0,0,63,1.96q.044-.07.316-.721t.4-.967l-3.48-9.686h1.793l2.522,7.664Zm3.289-3.5h2.5L76.587-2l3.683-10.916h2.479V0H81.087V-7.62q0-.4.018-1.31t.018-1.96L77.439,0H75.708L72-10.89v.4q0,.475.022,1.446t.022,1.428V0h-1.67ZM89.122-9.624a4.294,4.294,0,0,1,1.942.47A3.582,3.582,0,0,1,92.5-7.937a4.2,4.2,0,0,1,.633,1.661A10.868,10.868,0,0,1,93.27-4.2h-6.9a4.026,4.026,0,0,0,.677,2.3,2.266,2.266,0,0,0,1.96.866,2.534,2.534,0,0,0,1.978-.817,2.755,2.755,0,0,0,.6-1.1h1.556A3.276,3.276,0,0,1,92.729-1.8a4.111,4.111,0,0,1-.778,1.042,3.687,3.687,0,0,1-1.784.949,5.42,5.42,0,0,1-1.292.141A3.964,3.964,0,0,1,85.9-.945a4.976,4.976,0,0,1-1.222-3.582A5.41,5.41,0,0,1,85.9-8.209,4.059,4.059,0,0,1,89.122-9.624Zm2.522,4.166A4.1,4.1,0,0,0,91.2-7.1a2.3,2.3,0,0,0-2.171-1.143,2.406,2.406,0,0,0-1.828.787,2.972,2.972,0,0,0-.782,2Zm3.887-6.583h1.6v2.628h1.5v1.292h-1.5v6.144a.665.665,0,0,0,.334.659,1.42,1.42,0,0,0,.615.1q.114,0,.246,0t.308-.022V0a3.532,3.532,0,0,1-.567.114,5.39,5.39,0,0,1-.637.035,1.717,1.717,0,0,1-1.5-.567,2.519,2.519,0,0,1-.4-1.472V-8.121H94.256V-9.413h1.274Zm4.686-.914H101.8v4.816a4.568,4.568,0,0,1,1.011-1,3.41,3.41,0,0,1,1.907-.5,2.821,2.821,0,0,1,2.777,1.433,4.885,4.885,0,0,1,.4,2.171V0h-1.626V-5.933A3.318,3.318,0,0,0,106-7.453a1.685,1.685,0,0,0-1.617-.773,2.694,2.694,0,0,0-1.784.677,3.254,3.254,0,0,0-.8,2.558V0h-1.582ZM113.965-1.02a2.182,2.182,0,0,0,2.158-1.191,5.933,5.933,0,0,0,.584-2.65A4.718,4.718,0,0,0,116.285-7a2.373,2.373,0,0,0-2.3-1.3A2.271,2.271,0,0,0,111.873-7.2a5.133,5.133,0,0,0-.659,2.672,4.465,4.465,0,0,0,.659,2.5A2.322,2.322,0,0,0,113.965-1.02Zm.062-8.666A4.262,4.262,0,0,1,117.1-8.473,4.736,4.736,0,0,1,118.359-4.9a6.122,6.122,0,0,1-1.107,3.762A4.006,4.006,0,0,1,113.815.343,3.88,3.88,0,0,1,110.73-.971,5.19,5.19,0,0,1,109.588-4.5a5.615,5.615,0,0,1,1.2-3.779A4.041,4.041,0,0,1,114.026-9.686ZM121.244-4.6a4.666,4.666,0,0,0,.642,2.531,2.248,2.248,0,0,0,2.057,1.02,2.166,2.166,0,0,0,1.806-.945,4.462,4.462,0,0,0,.708-2.711,4.009,4.009,0,0,0-.729-2.641,2.276,2.276,0,0,0-1.8-.857,2.378,2.378,0,0,0-1.938.914A4.186,4.186,0,0,0,121.244-4.6Zm2.382-4.983a3.349,3.349,0,0,1,1.811.457,4.253,4.253,0,0,1,.958.923v-4.755h1.521V0h-1.424V-1.31a3.423,3.423,0,0,1-1.31,1.257,3.748,3.748,0,0,1-1.731.387,3.506,3.506,0,0,1-2.725-1.323,5.172,5.172,0,0,1-1.151-3.52,6.076,6.076,0,0,1,1.05-3.564A3.439,3.439,0,0,1,123.626-9.58Zm10.795-3.542a30.689,30.689,0,0,0-1.793,3.946A14.427,14.427,0,0,0,132-4.729a14.5,14.5,0,0,0,.712,4.658,28.13,28.13,0,0,0,1.731,3.744h-1.063q-1.283-2-1.591-2.558a11.88,11.88,0,0,1-.668-1.5,12.353,12.353,0,0,1-.686-2.777,11.646,11.646,0,0,1-.1-1.459,12.322,12.322,0,0,1,.817-4.632,26.659,26.659,0,0,1,2.162-3.867Zm1.294,16.8a31.028,31.028,0,0,0,1.8-3.973,14.342,14.342,0,0,0,.615-4.43,14.467,14.467,0,0,0-.712-4.649,28.13,28.13,0,0,0-1.731-3.744h1.063q1.354,2.162,1.639,2.667a10.312,10.312,0,0,1,.62,1.393,11.259,11.259,0,0,1,.6,2.171,12.466,12.466,0,0,1,.18,2.065,12.273,12.273,0,0,1-.826,4.641,25.487,25.487,0,0,1-2.153,3.858ZM148.084-9.29h1.837v1.916h-1.837Zm0,7.374h1.837V0h-1.837Zm9.549-11h5.81a3.938,3.938,0,0,1,2.777.971,3.524,3.524,0,0,1,1.055,2.729,3.968,3.968,0,0,1-.94,2.632,3.563,3.563,0,0,1-2.892,1.121h-4.061V0h-1.749ZM165.508-9.2a1.943,1.943,0,0,0-1.055-1.934,3.808,3.808,0,0,0-1.591-.272h-3.48v4.474h3.48a3.326,3.326,0,0,0,1.912-.5A1.985,1.985,0,0,0,165.508-9.2Zm3.8-.211h1.5v1.626a3.592,3.592,0,0,1,.905-1.156,2.347,2.347,0,0,1,1.661-.681q.044,0,.149.009t.36.035v1.67a2.363,2.363,0,0,0-.259-.035q-.119-.009-.259-.009a2.258,2.258,0,0,0-1.837.769,2.684,2.684,0,0,0-.642,1.771V0h-1.582Zm9.687,8.394a2.182,2.182,0,0,0,2.158-1.191,5.933,5.933,0,0,0,.584-2.65A4.718,4.718,0,0,0,181.314-7a2.373,2.373,0,0,0-2.3-1.3A2.271,2.271,0,0,0,176.9-7.2a5.133,5.133,0,0,0-.659,2.672,4.465,4.465,0,0,0,.659,2.5A2.322,2.322,0,0,0,178.994-1.02Zm.062-8.666a4.262,4.262,0,0,1,3.076,1.213A4.736,4.736,0,0,1,183.388-4.9a6.122,6.122,0,0,1-1.107,3.762A4.006,4.006,0,0,1,178.844.343a3.88,3.88,0,0,1-3.085-1.314A5.19,5.19,0,0,1,174.617-4.5a5.615,5.615,0,0,1,1.2-3.779A4.041,4.041,0,0,1,179.055-9.686ZM186.273-4.6a4.666,4.666,0,0,0,.642,2.531,2.248,2.248,0,0,0,2.057,1.02,2.166,2.166,0,0,0,1.806-.945,4.462,4.462,0,0,0,.708-2.711,4.009,4.009,0,0,0-.729-2.641,2.276,2.276,0,0,0-1.8-.857,2.378,2.378,0,0,0-1.938.914A4.186,4.186,0,0,0,186.273-4.6Zm2.382-4.983a3.349,3.349,0,0,1,1.811.457,4.253,4.253,0,0,1,.958.923v-4.755h1.521V0H191.52V-1.31a3.423,3.423,0,0,1-1.31,1.257,3.748,3.748,0,0,1-1.731.387,3.506,3.506,0,0,1-2.725-1.323,5.172,5.172,0,0,1-1.151-3.52,6.076,6.076,0,0,1,1.05-3.564A3.439,3.439,0,0,1,188.655-9.58Zm8.211.167v6.249a2.635,2.635,0,0,0,.229,1.178,1.6,1.6,0,0,0,1.573.844,2.224,2.224,0,0,0,2.25-1.477,5.858,5.858,0,0,0,.325-2.171V-9.413h1.582V0H201.33l.018-1.389a3.191,3.191,0,0,1-.765.905,3.365,3.365,0,0,1-2.2.738,2.834,2.834,0,0,1-2.742-1.345,4,4,0,0,1-.4-1.925v-6.4Zm12.06-.272a4.1,4.1,0,0,1,2.588.773,3.705,3.705,0,0,1,1.2,2.663h-1.538a2.839,2.839,0,0,0-.642-1.446,2.027,2.027,0,0,0-1.608-.576,2.222,2.222,0,0,0-2.162,1.477,5.865,5.865,0,0,0-.422,2.364,4.449,4.449,0,0,0,.6,2.382,2.05,2.05,0,0,0,1.881.967,2.057,2.057,0,0,0,1.56-.6,3.311,3.311,0,0,0,.8-1.648h1.538A4.129,4.129,0,0,1,211.4-.593a4.113,4.113,0,0,1-2.7.866,3.6,3.6,0,0,1-2.944-1.349,5.164,5.164,0,0,1-1.1-3.371,5.678,5.678,0,0,1,1.2-3.858A3.891,3.891,0,0,1,208.926-9.686Zm5.688-2.355h1.6v2.628h1.5v1.292h-1.5v6.144a.665.665,0,0,0,.334.659,1.42,1.42,0,0,0,.615.1q.114,0,.246,0t.308-.022V0a3.532,3.532,0,0,1-.567.114,5.39,5.39,0,0,1-.637.035,1.717,1.717,0,0,1-1.5-.567,2.519,2.519,0,0,1-.4-1.472V-8.121H213.34V-9.413h1.274Z" transform="translate(498 4653)" fill="#212429"/>
      <path id="Trazado_1219406" data-name="Trazado 1219406" d="M.809-3.85V-5.326H4.641V-9.185h1.5v3.858H9.976V-3.85H6.144V0h-1.5V-3.85ZM17.889-2.5a1.3,1.3,0,0,0,.5,1.081,1.857,1.857,0,0,0,1.187.4,3.608,3.608,0,0,0,1.617-.387,2.176,2.176,0,0,0,1.318-2.1V-4.79a2.707,2.707,0,0,1-.747.308,6.366,6.366,0,0,1-.9.176l-.958.123a3.664,3.664,0,0,0-1.292.36A1.4,1.4,0,0,0,17.889-2.5Zm3.832-3.2a.859.859,0,0,0,.729-.457,1.391,1.391,0,0,0,.105-.606,1.285,1.285,0,0,0-.576-1.173,3.089,3.089,0,0,0-1.648-.365,2.094,2.094,0,0,0-1.758.668,2.2,2.2,0,0,0-.378,1.1H16.72A2.718,2.718,0,0,1,17.85-8.96a4.637,4.637,0,0,1,2.518-.681,5.124,5.124,0,0,1,2.7.633A2.147,2.147,0,0,1,24.094-7.04v5.423a.694.694,0,0,0,.1.4.487.487,0,0,0,.426.149q.105,0,.237-.013t.281-.04V.044a4.406,4.406,0,0,1-.562.132A4.111,4.111,0,0,1,24.05.2a1.3,1.3,0,0,1-1.187-.58,2.239,2.239,0,0,1-.272-.87A4.025,4.025,0,0,1,21.2-.149a4.3,4.3,0,0,1-2,.466,2.967,2.967,0,0,1-2.14-.8,2.642,2.642,0,0,1-.831-1.991,2.564,2.564,0,0,1,.817-2.03A3.889,3.889,0,0,1,19.2-5.388Zm4.968-3.709h1.5v1.336a4.215,4.215,0,0,1,1.415-1.187,3.773,3.773,0,0,1,1.661-.36,2.739,2.739,0,0,1,2.707,1.4,4.962,4.962,0,0,1,.387,2.188V0H32.753V-5.933A3.212,3.212,0,0,0,32.5-7.321,1.545,1.545,0,0,0,30.969-8.2a3.114,3.114,0,0,0-.923.114,2.377,2.377,0,0,0-1.143.773,2.329,2.329,0,0,0-.514.962,6.478,6.478,0,0,0-.119,1.419V0H26.689Zm15.8-3.85a5.911,5.911,0,0,1,5.063,2.2A7.121,7.121,0,0,1,48.83-6.68a7.675,7.675,0,0,1-1.468,4.808A5.821,5.821,0,0,1,42.45.378a5.872,5.872,0,0,1-4.685-1.969,7.434,7.434,0,0,1-1.521-4.8,7.633,7.633,0,0,1,1.3-4.482A5.635,5.635,0,0,1,42.485-13.263Zm.176,12.076A3.641,3.641,0,0,0,46-2.843a7.052,7.052,0,0,0,1.033-3.81,5.435,5.435,0,0,0-1.191-3.665,4.065,4.065,0,0,0-3.256-1.389,4.24,4.24,0,0,0-3.27,1.375,5.8,5.8,0,0,0-1.266,4.056A5.926,5.926,0,0,0,39.14-2.659,4.082,4.082,0,0,0,42.661-1.187Zm12.016.123a2.257,2.257,0,0,0,1.841-.927,4.413,4.413,0,0,0,.734-2.773A5.176,5.176,0,0,0,56.927-6.7a2.244,2.244,0,0,0-2.25-1.556,2.244,2.244,0,0,0-2.25,1.644A6.514,6.514,0,0,0,52.1-4.377a4.732,4.732,0,0,0,.325,1.854A2.243,2.243,0,0,0,54.677-1.063Zm-4.1-8.306h1.538v1.248a3.84,3.84,0,0,1,1.037-.993,3.338,3.338,0,0,1,1.881-.527,3.537,3.537,0,0,1,2.716,1.226,5.023,5.023,0,0,1,1.116,3.5q0,3.076-1.608,4.395a3.634,3.634,0,0,1-2.373.835A3.221,3.221,0,0,1,53.1-.149a4.111,4.111,0,0,1-.94-.905V3.753H50.581Zm14.056-.255a4.294,4.294,0,0,1,1.942.47,3.582,3.582,0,0,1,1.433,1.217,4.2,4.2,0,0,1,.633,1.661A10.868,10.868,0,0,1,68.785-4.2h-6.9a4.026,4.026,0,0,0,.677,2.3,2.266,2.266,0,0,0,1.96.866A2.534,2.534,0,0,0,66.5-1.854a2.755,2.755,0,0,0,.6-1.1h1.556A3.276,3.276,0,0,1,68.245-1.8a4.111,4.111,0,0,1-.778,1.042,3.687,3.687,0,0,1-1.784.949,5.42,5.42,0,0,1-1.292.141A3.964,3.964,0,0,1,61.411-.945,4.976,4.976,0,0,1,60.19-4.526a5.41,5.41,0,0,1,1.23-3.683A4.059,4.059,0,0,1,64.637-9.624Zm2.522,4.166A4.1,4.1,0,0,0,66.711-7.1,2.3,2.3,0,0,0,64.54-8.244a2.406,2.406,0,0,0-1.828.787,2.972,2.972,0,0,0-.782,2Zm3.614-3.955h1.5v1.626a3.592,3.592,0,0,1,.905-1.156,2.347,2.347,0,0,1,1.661-.681q.044,0,.149.009t.36.035v1.67a2.363,2.363,0,0,0-.259-.035q-.119-.009-.259-.009A2.258,2.258,0,0,0,73-7.185a2.684,2.684,0,0,0-.642,1.771V0H70.773ZM77.938-2.5a1.3,1.3,0,0,0,.5,1.081,1.857,1.857,0,0,0,1.187.4,3.608,3.608,0,0,0,1.617-.387,2.176,2.176,0,0,0,1.318-2.1V-4.79a2.707,2.707,0,0,1-.747.308,6.366,6.366,0,0,1-.9.176l-.958.123a3.664,3.664,0,0,0-1.292.36A1.4,1.4,0,0,0,77.938-2.5ZM81.77-5.7a.859.859,0,0,0,.729-.457,1.391,1.391,0,0,0,.105-.606,1.285,1.285,0,0,0-.576-1.173,3.089,3.089,0,0,0-1.648-.365,2.094,2.094,0,0,0-1.758.668,2.2,2.2,0,0,0-.378,1.1H76.769A2.718,2.718,0,0,1,77.9-8.96a4.637,4.637,0,0,1,2.518-.681,5.124,5.124,0,0,1,2.7.633A2.147,2.147,0,0,1,84.143-7.04v5.423a.694.694,0,0,0,.1.4.487.487,0,0,0,.426.149q.105,0,.237-.013t.281-.04V.044a4.406,4.406,0,0,1-.562.132A4.111,4.111,0,0,1,84.1.2a1.3,1.3,0,0,1-1.187-.58,2.239,2.239,0,0,1-.272-.87,4.025,4.025,0,0,1-1.389,1.1,4.3,4.3,0,0,1-2,.466,2.967,2.967,0,0,1-2.14-.8,2.642,2.642,0,0,1-.831-1.991A2.564,2.564,0,0,1,77.1-4.5a3.889,3.889,0,0,1,2.145-.888Zm5.284-6.337h1.6v2.628h1.5v1.292h-1.5v6.144a.665.665,0,0,0,.334.659,1.42,1.42,0,0,0,.615.1q.114,0,.246,0t.308-.022V0a3.532,3.532,0,0,1-.567.114,5.39,5.39,0,0,1-.637.035,1.717,1.717,0,0,1-1.5-.567,2.519,2.519,0,0,1-.4-1.472V-8.121H85.78V-9.413h1.274Zm4.686,2.672h1.608V0H91.741Zm0-3.542h1.608v1.793H91.741ZM99.477-1.02a2.182,2.182,0,0,0,2.158-1.191,5.933,5.933,0,0,0,.584-2.65A4.718,4.718,0,0,0,101.8-7a2.373,2.373,0,0,0-2.3-1.3A2.271,2.271,0,0,0,97.385-7.2a5.133,5.133,0,0,0-.659,2.672,4.465,4.465,0,0,0,.659,2.5A2.322,2.322,0,0,0,99.477-1.02Zm.062-8.666a4.262,4.262,0,0,1,3.076,1.213A4.736,4.736,0,0,1,103.871-4.9a6.122,6.122,0,0,1-1.107,3.762A4.006,4.006,0,0,1,99.327.343,3.88,3.88,0,0,1,96.242-.971,5.19,5.19,0,0,1,95.1-4.5a5.615,5.615,0,0,1,1.2-3.779A4.041,4.041,0,0,1,99.538-9.686Zm6.216.272h1.5v1.336a4.215,4.215,0,0,1,1.415-1.187,3.773,3.773,0,0,1,1.661-.36,2.739,2.739,0,0,1,2.707,1.4,4.962,4.962,0,0,1,.387,2.188V0h-1.608V-5.933a3.212,3.212,0,0,0-.255-1.389,1.545,1.545,0,0,0-1.529-.879,3.114,3.114,0,0,0-.923.114,2.377,2.377,0,0,0-1.143.773,2.329,2.329,0,0,0-.514.962,6.478,6.478,0,0,0-.119,1.419V0h-1.582Zm14.179-3.709a30.689,30.689,0,0,0-1.793,3.946,14.427,14.427,0,0,0-.624,4.447,14.5,14.5,0,0,0,.712,4.658,28.13,28.13,0,0,0,1.731,3.744H118.9q-1.283-2-1.591-2.558a11.88,11.88,0,0,1-.668-1.5,12.353,12.353,0,0,1-.686-2.777,11.646,11.646,0,0,1-.1-1.459,12.322,12.322,0,0,1,.817-4.632,26.659,26.659,0,0,1,2.162-3.867Zm1.294,16.8a31.028,31.028,0,0,0,1.8-3.973,14.342,14.342,0,0,0,.615-4.43,14.467,14.467,0,0,0-.712-4.649,28.13,28.13,0,0,0-1.731-3.744h1.063q1.354,2.162,1.639,2.667a10.312,10.312,0,0,1,.62,1.393,11.259,11.259,0,0,1,.6,2.171,12.466,12.466,0,0,1,.18,2.065,12.273,12.273,0,0,1-.826,4.641,25.487,25.487,0,0,1-2.153,3.858Z" transform="translate(498 4687)" fill="#212429"/>
      <rect id="Rectángulo_422470" data-name="Rectángulo 422470" width="283" height="56" transform="translate(479 4758)" fill="#5c2c88"/>
      <g id="Trazado_1217635" data-name="Trazado 1217635" transform="translate(479 4812)" fill="#fff" stroke-linecap="round">
        <path d="M 281.5 53.99657821655273 L 1.5 53.99657821655273 L 1.5 1.50000524520874 L 281.5 1.50000524520874 L 281.5 53.99657821655273 Z" stroke="none"/>
        <path d="M 3 2.999984741210938 L 3 52.49659729003906 L 280 52.49659729003906 L 280 2.999984741210938 L 3 2.999984741210938 M 0 -1.52587890625e-05 L 283 -1.52587890625e-05 L 283 55.49659729003906 L 0 55.49659729003906 L 0 -1.52587890625e-05 Z" stroke="none" fill="#5c2c88"/>
      </g>
      <path id="Trazado_1219407" data-name="Trazado 1219407" d="M10.512-.967A5.281,5.281,0,0,1,6.8.36,5.588,5.588,0,0,1,2.408-1.433a7.177,7.177,0,0,1-1.6-4.939A7.115,7.115,0,0,1,2.628-11.6a5.421,5.421,0,0,1,4.025-1.6,5.443,5.443,0,0,1,4.781,2.145,4.643,4.643,0,0,1,.9,2.417H9.624a3.656,3.656,0,0,0-.677-1.406,2.753,2.753,0,0,0-2.188-.844A2.713,2.713,0,0,0,4.43-9.7a5.725,5.725,0,0,0-.853,3.371,5.025,5.025,0,0,0,.9,3.265,2.847,2.847,0,0,0,2.29,1.085,2.619,2.619,0,0,0,2.171-.932,4.047,4.047,0,0,0,.686-1.5H12.3A5.826,5.826,0,0,1,10.512-.967Zm11.646-7.4A5.59,5.59,0,0,1,23.37-4.772a5.553,5.553,0,0,1-1.213,3.608,4.456,4.456,0,0,1-3.683,1.5,4.456,4.456,0,0,1-3.683-1.5,5.553,5.553,0,0,1-1.213-3.608,5.59,5.59,0,0,1,1.213-3.595,4.426,4.426,0,0,1,3.683-1.521A4.426,4.426,0,0,1,22.157-8.367Zm-3.691.6a2,2,0,0,0-1.692.778,3.6,3.6,0,0,0-.593,2.219,3.619,3.619,0,0,0,.593,2.224,2,2,0,0,0,1.692.782,1.985,1.985,0,0,0,1.688-.782,3.639,3.639,0,0,0,.589-2.224,3.619,3.619,0,0,0-.589-2.219A1.99,1.99,0,0,0,18.466-7.77Zm11.206.044a1.744,1.744,0,0,0-1.749,1.081,3.713,3.713,0,0,0-.246,1.459V0h-2.5V-9.562H27.6v1.4a4.252,4.252,0,0,1,.914-1.063,3.177,3.177,0,0,1,1.96-.58,3.7,3.7,0,0,1,2.43.778,3.163,3.163,0,0,1,.945,2.58V0H31.28V-5.827a2.659,2.659,0,0,0-.2-1.16A1.422,1.422,0,0,0,29.672-7.726ZM44.446-6.144H41.88a2.223,2.223,0,0,0-.36-.967,1.511,1.511,0,0,0-1.31-.58,1.725,1.725,0,0,0-1.731,1.257,5.255,5.255,0,0,0-.246,1.775,4.832,4.832,0,0,0,.246,1.7,1.671,1.671,0,0,0,1.688,1.2,1.488,1.488,0,0,0,1.248-.475,2.362,2.362,0,0,0,.448-1.23H44.42a4.191,4.191,0,0,1-.826,2.162A4.016,4.016,0,0,1,40.1.334a4.082,4.082,0,0,1-3.4-1.371,5.548,5.548,0,0,1-1.09-3.56,5.63,5.63,0,0,1,1.2-3.841A4.191,4.191,0,0,1,40.14-9.809,5,5,0,0,1,43.088-9,3.761,3.761,0,0,1,44.446-6.144Zm6.539-1.125a2.078,2.078,0,0,0-2.03.984,3.829,3.829,0,0,0-.29,1.705V0H46.143V-9.58h2.391v1.67a5.3,5.3,0,0,1,1.011-1.31,2.752,2.752,0,0,1,1.828-.589q.07,0,.119,0l.215.013v2.566q-.237-.026-.422-.035T50.985-7.269ZM61.374-2.812a3.178,3.178,0,0,1-.888,1.731,4.349,4.349,0,0,1-3.445,1.4A4.858,4.858,0,0,1,53.815-.861a4.75,4.75,0,0,1-1.4-3.832,5.326,5.326,0,0,1,1.261-3.814,4.312,4.312,0,0,1,3.274-1.327,5.021,5.021,0,0,1,2.153.448,3.772,3.772,0,0,1,1.582,1.415,4.828,4.828,0,0,1,.729,1.978A12.771,12.771,0,0,1,61.5-4.1H54.94a2.381,2.381,0,0,0,.905,2.021,2.132,2.132,0,0,0,1.248.36,1.8,1.8,0,0,0,1.257-.439,2.087,2.087,0,0,0,.466-.659ZM58.9-5.748a2.181,2.181,0,0,0-.6-1.507,1.87,1.87,0,0,0-1.34-.514,1.7,1.7,0,0,0-1.349.545A2.72,2.72,0,0,0,55-5.748ZM67.57-1.784V.088L66.384.132a3.184,3.184,0,0,1-2.426-.615,1.832,1.832,0,0,1-.422-1.327v-5.9H62.2V-9.492h1.336v-2.672h2.479v2.672H67.57v1.784H66.015v5.063a1.14,1.14,0,0,0,.149.734,1.645,1.645,0,0,0,.914.145q.114,0,.242,0T67.57-1.784Zm9.809-1.028a3.178,3.178,0,0,1-.888,1.731,4.349,4.349,0,0,1-3.445,1.4A4.858,4.858,0,0,1,69.82-.861a4.75,4.75,0,0,1-1.4-3.832,5.326,5.326,0,0,1,1.261-3.814,4.312,4.312,0,0,1,3.274-1.327,5.021,5.021,0,0,1,2.153.448,3.772,3.772,0,0,1,1.582,1.415,4.828,4.828,0,0,1,.729,1.978A12.771,12.771,0,0,1,77.5-4.1H70.945a2.381,2.381,0,0,0,.905,2.021,2.132,2.132,0,0,0,1.248.36,1.8,1.8,0,0,0,1.257-.439,2.087,2.087,0,0,0,.466-.659ZM74.9-5.748a2.181,2.181,0,0,0-.6-1.507,1.87,1.87,0,0,0-1.34-.514,1.7,1.7,0,0,0-1.349.545,2.72,2.72,0,0,0-.6,1.477ZM88.532-.967A5.281,5.281,0,0,1,84.823.36a5.588,5.588,0,0,1-4.395-1.793,7.177,7.177,0,0,1-1.6-4.939A7.115,7.115,0,0,1,80.648-11.6a5.421,5.421,0,0,1,4.025-1.6,5.443,5.443,0,0,1,4.781,2.145,4.643,4.643,0,0,1,.9,2.417H87.645a3.656,3.656,0,0,0-.677-1.406,2.753,2.753,0,0,0-2.188-.844A2.713,2.713,0,0,0,82.45-9.7,5.725,5.725,0,0,0,81.6-6.328a5.025,5.025,0,0,0,.9,3.265,2.847,2.847,0,0,0,2.29,1.085,2.619,2.619,0,0,0,2.171-.932,4.047,4.047,0,0,0,.686-1.5h2.681A5.826,5.826,0,0,1,88.532-.967ZM97-7.269a2.078,2.078,0,0,0-2.03.984,3.829,3.829,0,0,0-.29,1.705V0H92.162V-9.58h2.391v1.67a5.3,5.3,0,0,1,1.011-1.31,2.752,2.752,0,0,1,1.828-.589q.07,0,.119,0l.215.013v2.566q-.237-.026-.422-.035T97-7.269Zm10.389,4.456a3.178,3.178,0,0,1-.888,1.731,4.349,4.349,0,0,1-3.445,1.4A4.858,4.858,0,0,1,99.835-.861a4.75,4.75,0,0,1-1.4-3.832A5.326,5.326,0,0,1,99.7-8.508a4.312,4.312,0,0,1,3.274-1.327,5.021,5.021,0,0,1,2.153.448,3.772,3.772,0,0,1,1.582,1.415,4.828,4.828,0,0,1,.729,1.978,12.771,12.771,0,0,1,.079,1.9H100.96a2.381,2.381,0,0,0,.905,2.021,2.132,2.132,0,0,0,1.248.36,1.8,1.8,0,0,0,1.257-.439,2.087,2.087,0,0,0,.466-.659Zm-2.479-2.936a2.181,2.181,0,0,0-.6-1.507,1.87,1.87,0,0,0-1.34-.514,1.7,1.7,0,0,0-1.349.545,2.72,2.72,0,0,0-.6,1.477Zm4.649-2.795a4.09,4.09,0,0,1,3.41-1.266,6.059,6.059,0,0,1,2.795.624,2.4,2.4,0,0,1,1.222,2.355v4.395q0,.457.018,1.107a1.392,1.392,0,0,0,.149.668.9.9,0,0,0,.369.29V0H114.8a2.79,2.79,0,0,1-.158-.545q-.044-.255-.07-.58a5.146,5.146,0,0,1-1.2.958A3.6,3.6,0,0,1,111.551.3,3.143,3.143,0,0,1,109.4-.444a2.649,2.649,0,0,1-.848-2.1,2.732,2.732,0,0,1,1.362-2.558,6.049,6.049,0,0,1,2.2-.615l.853-.105a3.91,3.91,0,0,0,.993-.22.753.753,0,0,0,.536-.712.845.845,0,0,0-.409-.813,2.553,2.553,0,0,0-1.2-.224,1.563,1.563,0,0,0-1.257.439,1.827,1.827,0,0,0-.352.879h-2.417A3.676,3.676,0,0,1,109.564-8.543Zm1.863,6.732a1.309,1.309,0,0,0,.861.29A2.551,2.551,0,0,0,113.779-2a2.024,2.024,0,0,0,.708-1.731v-.932a2.722,2.722,0,0,1-.479.242,4.006,4.006,0,0,1-.664.171l-.562.105a3.632,3.632,0,0,0-1.134.343,1.149,1.149,0,0,0-.58,1.063A1.1,1.1,0,0,0,111.428-1.811Zm12.173.026V.088l-1.187.044a3.184,3.184,0,0,1-2.426-.615,1.832,1.832,0,0,1-.422-1.327v-5.9H118.23V-9.492h1.336v-2.672h2.479v2.672H123.6v1.784h-1.556v5.063a1.14,1.14,0,0,0,.149.734,1.645,1.645,0,0,0,.914.145q.114,0,.242,0T123.6-1.784Zm9.6-6.583a5.59,5.59,0,0,1,1.213,3.595A5.553,5.553,0,0,1,133.2-1.165a4.456,4.456,0,0,1-3.683,1.5,4.456,4.456,0,0,1-3.683-1.5,5.553,5.553,0,0,1-1.213-3.608,5.59,5.59,0,0,1,1.213-3.595,4.426,4.426,0,0,1,3.683-1.521A4.426,4.426,0,0,1,133.2-8.367Zm-3.691.6a2,2,0,0,0-1.692.778,3.6,3.6,0,0,0-.593,2.219,3.619,3.619,0,0,0,.593,2.224,2,2,0,0,0,1.692.782,1.985,1.985,0,0,0,1.688-.782,3.639,3.639,0,0,0,.589-2.224,3.619,3.619,0,0,0-.589-2.219A1.99,1.99,0,0,0,129.507-7.77Zm11.514.5a2.078,2.078,0,0,0-2.03.984,3.829,3.829,0,0,0-.29,1.705V0h-2.522V-9.58h2.391v1.67a5.3,5.3,0,0,1,1.011-1.31,2.752,2.752,0,0,1,1.828-.589q.07,0,.119,0l.215.013v2.566q-.237-.026-.422-.035T141.021-7.269Z" transform="translate(550 4793)" fill="#fff"/>
      <path id="Trazado_1219408" data-name="Trazado 1219408" d="M.809-3.85V-5.326H4.641V-9.185h1.5v3.858H9.976V-3.85H6.144V0h-1.5V-3.85Zm11.261-7a2.821,2.821,0,0,1,.343-1.441,2.423,2.423,0,0,1,2.136-.809q.149,0,.308.009t.36.026v1.441q-.246-.018-.356-.022t-.207,0q-.721,0-.861.374a7.385,7.385,0,0,0-.141,1.9h1.564v1.248H13.634V0H12.069V-8.121H10.76V-9.369h1.31ZM17.889-2.5a1.3,1.3,0,0,0,.5,1.081,1.857,1.857,0,0,0,1.187.4,3.608,3.608,0,0,0,1.617-.387,2.176,2.176,0,0,0,1.318-2.1V-4.79a2.707,2.707,0,0,1-.747.308,6.366,6.366,0,0,1-.9.176l-.958.123a3.664,3.664,0,0,0-1.292.36A1.4,1.4,0,0,0,17.889-2.5Zm3.832-3.2a.859.859,0,0,0,.729-.457,1.391,1.391,0,0,0,.105-.606,1.285,1.285,0,0,0-.576-1.173,3.089,3.089,0,0,0-1.648-.365,2.094,2.094,0,0,0-1.758.668,2.2,2.2,0,0,0-.378,1.1H16.72A2.718,2.718,0,0,1,17.85-8.96a4.637,4.637,0,0,1,2.518-.681,5.124,5.124,0,0,1,2.7.633A2.147,2.147,0,0,1,24.094-7.04v5.423a.694.694,0,0,0,.1.4.487.487,0,0,0,.426.149q.105,0,.237-.013t.281-.04V.044a4.406,4.406,0,0,1-.562.132A4.111,4.111,0,0,1,24.05.2a1.3,1.3,0,0,1-1.187-.58,2.239,2.239,0,0,1-.272-.87A4.025,4.025,0,0,1,21.2-.149a4.3,4.3,0,0,1-2,.466,2.967,2.967,0,0,1-2.14-.8,2.642,2.642,0,0,1-.831-1.991,2.564,2.564,0,0,1,.817-2.03A3.889,3.889,0,0,1,19.2-5.388Zm8.6-3.981a4.1,4.1,0,0,1,2.588.773,3.705,3.705,0,0,1,1.2,2.663H32.569a2.839,2.839,0,0,0-.642-1.446,2.027,2.027,0,0,0-1.608-.576,2.222,2.222,0,0,0-2.162,1.477,5.865,5.865,0,0,0-.422,2.364,4.449,4.449,0,0,0,.6,2.382,2.05,2.05,0,0,0,1.881.967,2.057,2.057,0,0,0,1.56-.6,3.311,3.311,0,0,0,.8-1.648h1.538A4.129,4.129,0,0,1,32.789-.593a4.113,4.113,0,0,1-2.7.866,3.6,3.6,0,0,1-2.944-1.349,5.164,5.164,0,0,1-1.1-3.371,5.678,5.678,0,0,1,1.2-3.858A3.891,3.891,0,0,1,30.319-9.686Zm5.688-2.355h1.6v2.628h1.5v1.292h-1.5v6.144a.665.665,0,0,0,.334.659,1.42,1.42,0,0,0,.615.1q.114,0,.246,0t.308-.022V0a3.532,3.532,0,0,1-.567.114,5.39,5.39,0,0,1-.637.035,1.717,1.717,0,0,1-1.5-.567,2.519,2.519,0,0,1-.4-1.472V-8.121H34.733V-9.413h1.274ZM44.429-1.02A2.182,2.182,0,0,0,46.587-2.21a5.933,5.933,0,0,0,.584-2.65A4.718,4.718,0,0,0,46.749-7a2.373,2.373,0,0,0-2.3-1.3A2.271,2.271,0,0,0,42.337-7.2a5.133,5.133,0,0,0-.659,2.672,4.465,4.465,0,0,0,.659,2.5A2.322,2.322,0,0,0,44.429-1.02Zm.062-8.666a4.262,4.262,0,0,1,3.076,1.213A4.736,4.736,0,0,1,48.823-4.9a6.122,6.122,0,0,1-1.107,3.762A4.006,4.006,0,0,1,44.28.343,3.88,3.88,0,0,1,41.195-.971,5.19,5.19,0,0,1,40.052-4.5a5.615,5.615,0,0,1,1.2-3.779A4.041,4.041,0,0,1,44.49-9.686Zm6.26.272h1.5v1.626a3.592,3.592,0,0,1,.905-1.156,2.347,2.347,0,0,1,1.661-.681q.044,0,.149.009t.36.035v1.67a2.363,2.363,0,0,0-.259-.035q-.119-.009-.259-.009a2.258,2.258,0,0,0-1.837.769,2.684,2.684,0,0,0-.642,1.771V0H50.75Zm11.832,0h1.749Q64-8.508,62.846-5.282,61.984-2.856,61.4-1.327a26.739,26.739,0,0,1-1.934,4.395,2.21,2.21,0,0,1-1.934.791,3.794,3.794,0,0,1-.514-.026,4.062,4.062,0,0,1-.444-.1V2.294a5.458,5.458,0,0,0,.6.141,2.333,2.333,0,0,0,.325.026,1.139,1.139,0,0,0,.646-.145A1.338,1.338,0,0,0,58.5,1.96q.044-.07.316-.721t.4-.967l-3.48-9.686h1.793l2.522,7.664Zm3.289-3.5h2.5L72.085-2l3.683-10.916h2.479V0H76.585V-7.62q0-.4.018-1.31t.018-1.96L72.937,0H71.206L67.5-10.89v.4q0,.475.022,1.446t.022,1.428V0h-1.67ZM84.62-9.624a4.294,4.294,0,0,1,1.942.47,3.582,3.582,0,0,1,1.433,1.217,4.2,4.2,0,0,1,.633,1.661A10.868,10.868,0,0,1,88.768-4.2h-6.9a4.026,4.026,0,0,0,.677,2.3,2.266,2.266,0,0,0,1.96.866,2.534,2.534,0,0,0,1.978-.817,2.755,2.755,0,0,0,.6-1.1h1.556A3.276,3.276,0,0,1,88.228-1.8,4.111,4.111,0,0,1,87.45-.756a3.687,3.687,0,0,1-1.784.949,5.42,5.42,0,0,1-1.292.141A3.964,3.964,0,0,1,81.394-.945a4.976,4.976,0,0,1-1.222-3.582A5.41,5.41,0,0,1,81.4-8.209,4.059,4.059,0,0,1,84.62-9.624Zm2.522,4.166A4.1,4.1,0,0,0,86.694-7.1a2.3,2.3,0,0,0-2.171-1.143,2.406,2.406,0,0,0-1.828.787,2.972,2.972,0,0,0-.782,2Zm3.887-6.583h1.6v2.628h1.5v1.292h-1.5v6.144a.665.665,0,0,0,.334.659,1.42,1.42,0,0,0,.615.1q.114,0,.246,0t.308-.022V0a3.532,3.532,0,0,1-.567.114,5.39,5.39,0,0,1-.637.035,1.717,1.717,0,0,1-1.5-.567,2.519,2.519,0,0,1-.4-1.472V-8.121H89.754V-9.413h1.274Zm4.686-.914H97.3v4.816a4.568,4.568,0,0,1,1.011-1,3.41,3.41,0,0,1,1.907-.5,2.821,2.821,0,0,1,2.777,1.433,4.885,4.885,0,0,1,.4,2.171V0h-1.626V-5.933a3.318,3.318,0,0,0-.264-1.521,1.685,1.685,0,0,0-1.617-.773A2.694,2.694,0,0,0,98.1-7.55a3.254,3.254,0,0,0-.8,2.558V0H95.715ZM109.463-1.02a2.182,2.182,0,0,0,2.158-1.191,5.933,5.933,0,0,0,.584-2.65A4.718,4.718,0,0,0,111.783-7a2.373,2.373,0,0,0-2.3-1.3A2.271,2.271,0,0,0,107.371-7.2a5.133,5.133,0,0,0-.659,2.672,4.465,4.465,0,0,0,.659,2.5A2.322,2.322,0,0,0,109.463-1.02Zm.062-8.666A4.262,4.262,0,0,1,112.6-8.473,4.736,4.736,0,0,1,113.858-4.9a6.122,6.122,0,0,1-1.107,3.762A4.006,4.006,0,0,1,109.314.343a3.88,3.88,0,0,1-3.085-1.314A5.19,5.19,0,0,1,105.086-4.5a5.615,5.615,0,0,1,1.2-3.779A4.041,4.041,0,0,1,109.525-9.686ZM116.742-4.6a4.666,4.666,0,0,0,.642,2.531,2.248,2.248,0,0,0,2.057,1.02,2.166,2.166,0,0,0,1.806-.945,4.462,4.462,0,0,0,.708-2.711,4.009,4.009,0,0,0-.729-2.641,2.276,2.276,0,0,0-1.8-.857,2.378,2.378,0,0,0-1.938.914A4.186,4.186,0,0,0,116.742-4.6Zm2.382-4.983a3.349,3.349,0,0,1,1.811.457,4.253,4.253,0,0,1,.958.923v-4.755h1.521V0h-1.424V-1.31a3.423,3.423,0,0,1-1.31,1.257,3.748,3.748,0,0,1-1.731.387,3.506,3.506,0,0,1-2.725-1.323,5.172,5.172,0,0,1-1.151-3.52,6.076,6.076,0,0,1,1.05-3.564A3.439,3.439,0,0,1,119.124-9.58Zm10.795-3.542a30.689,30.689,0,0,0-1.793,3.946,14.427,14.427,0,0,0-.624,4.447,14.5,14.5,0,0,0,.712,4.658,28.13,28.13,0,0,0,1.731,3.744h-1.063q-1.283-2-1.591-2.558a11.88,11.88,0,0,1-.668-1.5,12.353,12.353,0,0,1-.686-2.777,11.646,11.646,0,0,1-.1-1.459,12.322,12.322,0,0,1,.817-4.632,26.658,26.658,0,0,1,2.162-3.867Zm1.294,16.8a31.028,31.028,0,0,0,1.8-3.973,14.342,14.342,0,0,0,.615-4.43,14.467,14.467,0,0,0-.712-4.649,28.13,28.13,0,0,0-1.731-3.744h1.063q1.354,2.162,1.639,2.667a10.312,10.312,0,0,1,.62,1.393,11.259,11.259,0,0,1,.6,2.171,12.466,12.466,0,0,1,.18,2.065,12.273,12.273,0,0,1-.826,4.641,25.487,25.487,0,0,1-2.153,3.858ZM143.582-9.29h1.837v1.916h-1.837Zm0,7.374h1.837V0h-1.837Zm9.549-11h5.81a3.938,3.938,0,0,1,2.777.971,3.524,3.524,0,0,1,1.055,2.729,3.968,3.968,0,0,1-.94,2.632,3.563,3.563,0,0,1-2.892,1.121H154.88V0h-1.749ZM161.006-9.2a1.943,1.943,0,0,0-1.055-1.934,3.808,3.808,0,0,0-1.591-.272h-3.48v4.474h3.48a3.326,3.326,0,0,0,1.912-.5A1.985,1.985,0,0,0,161.006-9.2Zm3.8-.211h1.5v1.626a3.592,3.592,0,0,1,.905-1.156,2.347,2.347,0,0,1,1.661-.681q.044,0,.149.009t.36.035v1.67a2.363,2.363,0,0,0-.259-.035q-.119-.009-.259-.009a2.258,2.258,0,0,0-1.837.769,2.684,2.684,0,0,0-.642,1.771V0H164.8Zm9.687,8.394A2.182,2.182,0,0,0,176.65-2.21a5.933,5.933,0,0,0,.584-2.65A4.718,4.718,0,0,0,176.812-7a2.373,2.373,0,0,0-2.3-1.3A2.271,2.271,0,0,0,172.4-7.2a5.133,5.133,0,0,0-.659,2.672,4.465,4.465,0,0,0,.659,2.5A2.322,2.322,0,0,0,174.492-1.02Zm.062-8.666a4.262,4.262,0,0,1,3.076,1.213A4.736,4.736,0,0,1,178.886-4.9a6.122,6.122,0,0,1-1.107,3.762A4.006,4.006,0,0,1,174.342.343a3.88,3.88,0,0,1-3.085-1.314A5.19,5.19,0,0,1,170.115-4.5a5.615,5.615,0,0,1,1.2-3.779A4.041,4.041,0,0,1,174.553-9.686ZM181.771-4.6a4.666,4.666,0,0,0,.642,2.531,2.248,2.248,0,0,0,2.057,1.02,2.166,2.166,0,0,0,1.806-.945,4.462,4.462,0,0,0,.708-2.711,4.009,4.009,0,0,0-.729-2.641,2.276,2.276,0,0,0-1.8-.857,2.378,2.378,0,0,0-1.938.914A4.186,4.186,0,0,0,181.771-4.6Zm2.382-4.983a3.349,3.349,0,0,1,1.811.457,4.253,4.253,0,0,1,.958.923v-4.755h1.521V0h-1.424V-1.31a3.423,3.423,0,0,1-1.31,1.257,3.748,3.748,0,0,1-1.731.387,3.506,3.506,0,0,1-2.725-1.323,5.172,5.172,0,0,1-1.151-3.52,6.076,6.076,0,0,1,1.05-3.564A3.439,3.439,0,0,1,184.153-9.58Zm8.211.167v6.249a2.635,2.635,0,0,0,.229,1.178,1.6,1.6,0,0,0,1.573.844,2.224,2.224,0,0,0,2.25-1.477,5.858,5.858,0,0,0,.325-2.171V-9.413h1.582V0h-1.494l.018-1.389a3.191,3.191,0,0,1-.765.905,3.365,3.365,0,0,1-2.2.738,2.834,2.834,0,0,1-2.742-1.345,4,4,0,0,1-.4-1.925v-6.4Zm12.06-.272a4.1,4.1,0,0,1,2.588.773,3.705,3.705,0,0,1,1.2,2.663h-1.538a2.839,2.839,0,0,0-.642-1.446,2.027,2.027,0,0,0-1.608-.576,2.222,2.222,0,0,0-2.162,1.477,5.865,5.865,0,0,0-.422,2.364,4.449,4.449,0,0,0,.6,2.382,2.05,2.05,0,0,0,1.881.967,2.057,2.057,0,0,0,1.56-.6,3.311,3.311,0,0,0,.8-1.648h1.538a4.129,4.129,0,0,1-1.318,2.738,4.113,4.113,0,0,1-2.7.866,3.6,3.6,0,0,1-2.944-1.349,5.164,5.164,0,0,1-1.1-3.371,5.678,5.678,0,0,1,1.2-3.858A3.891,3.891,0,0,1,204.424-9.686Zm5.688-2.355h1.6v2.628h1.5v1.292h-1.5v6.144a.665.665,0,0,0,.334.659,1.42,1.42,0,0,0,.615.1q.114,0,.246,0t.308-.022V0a3.532,3.532,0,0,1-.567.114,5.39,5.39,0,0,1-.637.035,1.717,1.717,0,0,1-1.5-.567,2.519,2.519,0,0,1-.4-1.472V-8.121h-1.274V-9.413h1.274Z" transform="translate(498 4846)" fill="#212429"/>
      <rect id="Rectángulo_422471" data-name="Rectángulo 422471" width="227" height="44" transform="translate(895 4565)" fill="#5c2c88"/>
      <g id="Trazado_1217636" data-name="Trazado 1217636" transform="translate(895 4605)" fill="#fff" stroke-linecap="round">
        <path d="M 225.3694000244141 33.14893341064453 L 1.50001585483551 33.14893341064453 L 1.50001585483551 1.499992251396179 L 225.3694000244141 1.499992251396179 L 225.3694000244141 33.14893341064453 Z" stroke="none"/>
        <path d="M 3 2.999994277954102 L 3 31.6489315032959 L 223.869384765625 31.6489315032959 L 223.869384765625 2.999994277954102 L 3 2.999994277954102 M 0 -7.62939453125e-06 L 226.869384765625 -7.62939453125e-06 L 226.869384765625 34.64893341064453 L 0 34.64893341064453 L 0 -7.62939453125e-06 Z" stroke="none" fill="#5c2c88"/>
      </g>
      <path id="Trazado_1219412" data-name="Trazado 1219412" d="M1.538-12.911h5.81a3.938,3.938,0,0,1,2.777.971A3.524,3.524,0,0,1,11.18-9.211a3.968,3.968,0,0,1-.94,2.632A3.563,3.563,0,0,1,7.348-5.458H3.287V0H1.538ZM9.413-9.2a1.943,1.943,0,0,0-1.055-1.934,3.808,3.808,0,0,0-1.591-.272H3.287v4.474h3.48a3.326,3.326,0,0,0,1.912-.5A1.985,1.985,0,0,0,9.413-9.2Zm3.8-.211h1.5v1.626a3.592,3.592,0,0,1,.905-1.156,2.347,2.347,0,0,1,1.661-.681q.044,0,.149.009t.36.035v1.67a2.363,2.363,0,0,0-.259-.035q-.119-.009-.259-.009a2.258,2.258,0,0,0-1.837.769,2.684,2.684,0,0,0-.642,1.771V0H13.21ZM22.9-1.02A2.182,2.182,0,0,0,25.053-2.21a5.933,5.933,0,0,0,.584-2.65A4.718,4.718,0,0,0,25.216-7a2.373,2.373,0,0,0-2.3-1.3A2.271,2.271,0,0,0,20.8-7.2a5.133,5.133,0,0,0-.659,2.672,4.465,4.465,0,0,0,.659,2.5A2.322,2.322,0,0,0,22.9-1.02Zm.062-8.666a4.262,4.262,0,0,1,3.076,1.213A4.736,4.736,0,0,1,27.29-4.9a6.122,6.122,0,0,1-1.107,3.762A4.006,4.006,0,0,1,22.746.343,3.88,3.88,0,0,1,19.661-.971,5.19,5.19,0,0,1,18.519-4.5a5.615,5.615,0,0,1,1.2-3.779A4.041,4.041,0,0,1,22.957-9.686ZM30.173-4.6a4.666,4.666,0,0,0,.642,2.531,2.248,2.248,0,0,0,2.057,1.02,2.166,2.166,0,0,0,1.806-.945A4.462,4.462,0,0,0,35.385-4.7a4.009,4.009,0,0,0-.729-2.641,2.276,2.276,0,0,0-1.8-.857,2.378,2.378,0,0,0-1.938.914A4.186,4.186,0,0,0,30.173-4.6ZM32.555-9.58a3.349,3.349,0,0,1,1.811.457,4.253,4.253,0,0,1,.958.923v-4.755h1.521V0H35.42V-1.31A3.423,3.423,0,0,1,34.11-.053a3.748,3.748,0,0,1-1.731.387A3.506,3.506,0,0,1,29.654-.989,5.172,5.172,0,0,1,28.5-4.509a6.076,6.076,0,0,1,1.05-3.564A3.439,3.439,0,0,1,32.555-9.58Zm8.209.167v6.249a2.635,2.635,0,0,0,.229,1.178,1.6,1.6,0,0,0,1.573.844,2.224,2.224,0,0,0,2.25-1.477,5.858,5.858,0,0,0,.325-2.171V-9.413h1.582V0H45.229l.018-1.389a3.191,3.191,0,0,1-.765.905,3.365,3.365,0,0,1-2.2.738A2.834,2.834,0,0,1,39.542-1.09a4,4,0,0,1-.4-1.925v-6.4Zm12.059-.272a4.1,4.1,0,0,1,2.588.773,3.705,3.705,0,0,1,1.2,2.663H55.072a2.839,2.839,0,0,0-.642-1.446,2.027,2.027,0,0,0-1.608-.576A2.222,2.222,0,0,0,50.66-6.794a5.865,5.865,0,0,0-.422,2.364,4.449,4.449,0,0,0,.6,2.382,2.05,2.05,0,0,0,1.881.967,2.057,2.057,0,0,0,1.56-.6,3.311,3.311,0,0,0,.8-1.648H56.61A4.129,4.129,0,0,1,55.292-.593a4.113,4.113,0,0,1-2.7.866,3.6,3.6,0,0,1-2.944-1.349,5.164,5.164,0,0,1-1.1-3.371,5.678,5.678,0,0,1,1.2-3.858A3.891,3.891,0,0,1,52.822-9.686Zm5.687-2.355h1.6v2.628h1.5v1.292h-1.5v6.144a.665.665,0,0,0,.334.659,1.42,1.42,0,0,0,.615.1q.114,0,.246,0t.308-.022V0a3.532,3.532,0,0,1-.567.114,5.39,5.39,0,0,1-.637.035,1.717,1.717,0,0,1-1.5-.567,2.519,2.519,0,0,1-.4-1.472V-8.121H57.234V-9.413h1.274Z" transform="translate(976 4594)" fill="#fff"/>
      <path id="Trazado_1217637" data-name="Trazado 1217637" d="M3389,4621h225.5" transform="translate(-2494)" fill="none" stroke="#5c2c88" stroke-linecap="round" stroke-width="1"/>
      <rect id="Rectángulo_422472" data-name="Rectángulo 422472" width="227" height="44" transform="translate(896.5 4764.851)" fill="#5c2c88"/>
      <g id="Trazado_1217638" data-name="Trazado 1217638" transform="translate(896.5 4804.851)" fill="#fff" stroke-linecap="round">
        <path d="M 225.3694000244141 33.14893341064453 L 1.50001585483551 33.14893341064453 L 1.50001585483551 1.499992251396179 L 225.3694000244141 1.499992251396179 L 225.3694000244141 33.14893341064453 Z" stroke="none"/>
        <path d="M 3 2.999994277954102 L 3 31.6489315032959 L 223.869384765625 31.6489315032959 L 223.869384765625 2.999994277954102 L 3 2.999994277954102 M 0 -7.62939453125e-06 L 226.869384765625 -7.62939453125e-06 L 226.869384765625 34.64893341064453 L 0 34.64893341064453 L 0 -7.62939453125e-06 Z" stroke="none" fill="#5c2c88"/>
      </g>
      <path id="Trazado_1219413" data-name="Trazado 1219413" d="M10.512-.967A5.281,5.281,0,0,1,6.8.36,5.588,5.588,0,0,1,2.408-1.433a7.177,7.177,0,0,1-1.6-4.939A7.115,7.115,0,0,1,2.628-11.6a5.421,5.421,0,0,1,4.025-1.6,5.443,5.443,0,0,1,4.781,2.145,4.643,4.643,0,0,1,.9,2.417H9.624a3.656,3.656,0,0,0-.677-1.406,2.753,2.753,0,0,0-2.188-.844A2.713,2.713,0,0,0,4.43-9.7a5.725,5.725,0,0,0-.853,3.371,5.025,5.025,0,0,0,.9,3.265,2.847,2.847,0,0,0,2.29,1.085,2.619,2.619,0,0,0,2.171-.932,4.047,4.047,0,0,0,.686-1.5H12.3A5.826,5.826,0,0,1,10.512-.967Zm11.646-7.4A5.59,5.59,0,0,1,23.37-4.772a5.553,5.553,0,0,1-1.213,3.608,4.456,4.456,0,0,1-3.683,1.5,4.456,4.456,0,0,1-3.683-1.5,5.553,5.553,0,0,1-1.213-3.608,5.59,5.59,0,0,1,1.213-3.595,4.426,4.426,0,0,1,3.683-1.521A4.426,4.426,0,0,1,22.157-8.367Zm-3.691.6a2,2,0,0,0-1.692.778,3.6,3.6,0,0,0-.593,2.219,3.619,3.619,0,0,0,.593,2.224,2,2,0,0,0,1.692.782,1.985,1.985,0,0,0,1.688-.782,3.639,3.639,0,0,0,.589-2.224,3.619,3.619,0,0,0-.589-2.219A1.99,1.99,0,0,0,18.466-7.77Zm11.206.044a1.744,1.744,0,0,0-1.749,1.081,3.713,3.713,0,0,0-.246,1.459V0h-2.5V-9.562H27.6v1.4a4.252,4.252,0,0,1,.914-1.063,3.177,3.177,0,0,1,1.96-.58,3.7,3.7,0,0,1,2.43.778,3.163,3.163,0,0,1,.945,2.58V0H31.28V-5.827a2.659,2.659,0,0,0-.2-1.16A1.422,1.422,0,0,0,29.672-7.726ZM44.446-6.144H41.88a2.223,2.223,0,0,0-.36-.967,1.511,1.511,0,0,0-1.31-.58,1.725,1.725,0,0,0-1.731,1.257,5.255,5.255,0,0,0-.246,1.775,4.832,4.832,0,0,0,.246,1.7,1.671,1.671,0,0,0,1.688,1.2,1.488,1.488,0,0,0,1.248-.475,2.362,2.362,0,0,0,.448-1.23H44.42a4.191,4.191,0,0,1-.826,2.162A4.016,4.016,0,0,1,40.1.334a4.082,4.082,0,0,1-3.4-1.371,5.548,5.548,0,0,1-1.09-3.56,5.63,5.63,0,0,1,1.2-3.841A4.191,4.191,0,0,1,40.14-9.809,5,5,0,0,1,43.088-9,3.761,3.761,0,0,1,44.446-6.144Zm6.539-1.125a2.078,2.078,0,0,0-2.03.984,3.829,3.829,0,0,0-.29,1.705V0H46.143V-9.58h2.391v1.67a5.3,5.3,0,0,1,1.011-1.31,2.752,2.752,0,0,1,1.828-.589q.07,0,.119,0l.215.013v2.566q-.237-.026-.422-.035T50.985-7.269ZM61.374-2.812a3.178,3.178,0,0,1-.888,1.731,4.349,4.349,0,0,1-3.445,1.4A4.858,4.858,0,0,1,53.815-.861a4.75,4.75,0,0,1-1.4-3.832,5.326,5.326,0,0,1,1.261-3.814,4.312,4.312,0,0,1,3.274-1.327,5.021,5.021,0,0,1,2.153.448,3.772,3.772,0,0,1,1.582,1.415,4.828,4.828,0,0,1,.729,1.978A12.771,12.771,0,0,1,61.5-4.1H54.94a2.381,2.381,0,0,0,.905,2.021,2.132,2.132,0,0,0,1.248.36,1.8,1.8,0,0,0,1.257-.439,2.087,2.087,0,0,0,.466-.659ZM58.9-5.748a2.181,2.181,0,0,0-.6-1.507,1.87,1.87,0,0,0-1.34-.514,1.7,1.7,0,0,0-1.349.545A2.72,2.72,0,0,0,55-5.748ZM67.57-1.784V.088L66.384.132a3.184,3.184,0,0,1-2.426-.615,1.832,1.832,0,0,1-.422-1.327v-5.9H62.2V-9.492h1.336v-2.672h2.479v2.672H67.57v1.784H66.015v5.063a1.14,1.14,0,0,0,.149.734,1.645,1.645,0,0,0,.914.145q.114,0,.242,0T67.57-1.784Zm9.809-1.028a3.178,3.178,0,0,1-.888,1.731,4.349,4.349,0,0,1-3.445,1.4A4.858,4.858,0,0,1,69.82-.861a4.75,4.75,0,0,1-1.4-3.832,5.326,5.326,0,0,1,1.261-3.814,4.312,4.312,0,0,1,3.274-1.327,5.021,5.021,0,0,1,2.153.448,3.772,3.772,0,0,1,1.582,1.415,4.828,4.828,0,0,1,.729,1.978A12.771,12.771,0,0,1,77.5-4.1H70.945a2.381,2.381,0,0,0,.905,2.021,2.132,2.132,0,0,0,1.248.36,1.8,1.8,0,0,0,1.257-.439,2.087,2.087,0,0,0,.466-.659ZM74.9-5.748a2.181,2.181,0,0,0-.6-1.507,1.87,1.87,0,0,0-1.34-.514,1.7,1.7,0,0,0-1.349.545,2.72,2.72,0,0,0-.6,1.477Zm9.993,1.09H82.143V0H79.453V-12.955H85.1a4.6,4.6,0,0,1,3.111,1,3.882,3.882,0,0,1,1.16,3.1,3.976,3.976,0,0,1-1.16,3.243A5.109,5.109,0,0,1,84.894-4.658Zm1.266-2.7a1.874,1.874,0,0,0,.527-1.477,1.753,1.753,0,0,0-.532-1.441,2.308,2.308,0,0,0-1.49-.431H82.143v3.814h2.522A2.2,2.2,0,0,0,86.159-7.356Zm9.853.088a2.078,2.078,0,0,0-2.03.984,3.829,3.829,0,0,0-.29,1.705V0H91.169V-9.58H93.56v1.67A5.3,5.3,0,0,1,94.57-9.22,2.752,2.752,0,0,1,96.4-9.809q.07,0,.119,0l.215.013v2.566q-.237-.026-.422-.035T96.012-7.269Zm10.178-1.1A5.59,5.59,0,0,1,107.4-4.772a5.553,5.553,0,0,1-1.213,3.608,4.456,4.456,0,0,1-3.683,1.5,4.456,4.456,0,0,1-3.683-1.5,5.553,5.553,0,0,1-1.213-3.608,5.59,5.59,0,0,1,1.213-3.595,4.426,4.426,0,0,1,3.683-1.521A4.426,4.426,0,0,1,106.189-8.367Zm-3.691.6a2,2,0,0,0-1.692.778,3.6,3.6,0,0,0-.593,2.219,3.619,3.619,0,0,0,.593,2.224,2,2,0,0,0,1.692.782,1.985,1.985,0,0,0,1.688-.782,3.639,3.639,0,0,0,.589-2.224,3.619,3.619,0,0,0-.589-2.219A1.99,1.99,0,0,0,102.5-7.77Zm15.416-5.168V0h-2.435V-1.327a3.533,3.533,0,0,1-1.222,1.239A3.43,3.43,0,0,1,112.553.3a3.56,3.56,0,0,1-2.826-1.358,5.215,5.215,0,0,1-1.147-3.485A6,6,0,0,1,109.709-8.4a3.674,3.674,0,0,1,3.019-1.406,3.09,3.09,0,0,1,1.547.382,3.043,3.043,0,0,1,1.1,1.059v-4.57Zm-6.75,8.209a3.767,3.767,0,0,0,.527,2.118,1.756,1.756,0,0,0,1.582.8,1.849,1.849,0,0,0,1.617-.791,3.5,3.5,0,0,0,.554-2.048,3.141,3.141,0,0,0-.888-2.514,1.91,1.91,0,0,0-1.266-.457,1.759,1.759,0,0,0-1.613.831A3.848,3.848,0,0,0,111.164-4.729Zm15.17,3.375q-.035.044-.176.264a1.764,1.764,0,0,1-.334.387,3.488,3.488,0,0,1-1.138.721A3.879,3.879,0,0,1,123.4.211a2.87,2.87,0,0,1-2.865-1.529,5.852,5.852,0,0,1-.413-2.487V-9.58h2.566v5.774a3.023,3.023,0,0,0,.193,1.23,1.338,1.338,0,0,0,1.345.729,1.758,1.758,0,0,0,1.758-1.037,3.754,3.754,0,0,0,.246-1.485V-9.58h2.54V0h-2.435Zm13.14-4.79h-2.566a2.223,2.223,0,0,0-.36-.967,1.511,1.511,0,0,0-1.31-.58,1.725,1.725,0,0,0-1.731,1.257,5.255,5.255,0,0,0-.246,1.775,4.832,4.832,0,0,0,.246,1.7,1.671,1.671,0,0,0,1.688,1.2,1.488,1.488,0,0,0,1.248-.475,2.362,2.362,0,0,0,.448-1.23h2.558a4.191,4.191,0,0,1-.826,2.162A4.016,4.016,0,0,1,135.132.334a4.082,4.082,0,0,1-3.4-1.371,5.548,5.548,0,0,1-1.09-3.56,5.63,5.63,0,0,1,1.2-3.841,4.191,4.191,0,0,1,3.322-1.371A5,5,0,0,1,138.116-9,3.761,3.761,0,0,1,139.474-6.144Zm6.108,4.359V.088L144.4.132a3.184,3.184,0,0,1-2.426-.615,1.832,1.832,0,0,1-.422-1.327v-5.9h-1.336V-9.492h1.336v-2.672h2.479v2.672h1.556v1.784h-1.556v5.063a1.14,1.14,0,0,0,.149.734,1.645,1.645,0,0,0,.914.145q.114,0,.242,0T145.582-1.784Z" transform="translate(938.5 4793.851)" fill="#fff"/>
      <path id="Trazado_1217639" data-name="Trazado 1217639" d="M3389,4621h225.5" transform="translate(-2492.5 199.851)" fill="none" stroke="#5c2c88" stroke-linecap="round" stroke-width="1"/>
      <path id="Trazado_1219410" data-name="Trazado 1219410" d="M.246-5.326,10.521-9.352V-7.77L2.118-4.6l8.4,3.182V.167L.246-3.867Zm10.514,0L21.034-9.352V-7.77L12.632-4.6l8.4,3.182V.167L10.76-3.867Zm13.01-4.087v6.249A2.635,2.635,0,0,0,24-1.986a1.6,1.6,0,0,0,1.573.844,2.224,2.224,0,0,0,2.25-1.477,5.858,5.858,0,0,0,.325-2.171V-9.413h1.582V0H28.234l.018-1.389a3.191,3.191,0,0,1-.765.905,3.365,3.365,0,0,1-2.2.738A2.834,2.834,0,0,1,22.548-1.09a4,4,0,0,1-.4-1.925v-6.4Zm9.371,6.46a2.3,2.3,0,0,0,.4,1.213,2.485,2.485,0,0,0,2.074.765,3.059,3.059,0,0,0,1.547-.382,1.27,1.27,0,0,0,.668-1.182,1.011,1.011,0,0,0-.536-.923,6.374,6.374,0,0,0-1.354-.448l-1.257-.316A6.131,6.131,0,0,1,32.9-4.9a2,2,0,0,1-1.02-1.775,2.713,2.713,0,0,1,.962-2.162,3.839,3.839,0,0,1,2.588-.826A3.593,3.593,0,0,1,38.5-8.411a2.708,2.708,0,0,1,.571,1.705H37.579a1.83,1.83,0,0,0-.378-.976,2.41,2.41,0,0,0-1.89-.624,2.259,2.259,0,0,0-1.358.343,1.074,1.074,0,0,0-.461.905,1.114,1.114,0,0,0,.606.984,3.644,3.644,0,0,0,1.037.387l1.046.255a8.087,8.087,0,0,1,2.285.8,2.118,2.118,0,0,1,.923,1.907,2.906,2.906,0,0,1-.954,2.171,4.059,4.059,0,0,1-2.9.914,3.9,3.9,0,0,1-2.975-.954,3.606,3.606,0,0,1-.936-2.36ZM45.121-9.624a4.294,4.294,0,0,1,1.942.47A3.582,3.582,0,0,1,48.5-7.937a4.2,4.2,0,0,1,.633,1.661A10.868,10.868,0,0,1,49.27-4.2h-6.9a4.026,4.026,0,0,0,.677,2.3,2.266,2.266,0,0,0,1.96.866,2.534,2.534,0,0,0,1.978-.817,2.755,2.755,0,0,0,.6-1.1h1.556A3.276,3.276,0,0,1,48.729-1.8a4.111,4.111,0,0,1-.778,1.042,3.687,3.687,0,0,1-1.784.949,5.42,5.42,0,0,1-1.292.141A3.964,3.964,0,0,1,41.9-.945a4.976,4.976,0,0,1-1.222-3.582A5.41,5.41,0,0,1,41.9-8.209,4.059,4.059,0,0,1,45.121-9.624Zm2.522,4.166A4.1,4.1,0,0,0,47.2-7.1a2.3,2.3,0,0,0-2.171-1.143,2.406,2.406,0,0,0-1.828.787,2.972,2.972,0,0,0-.782,2ZM60.574-3.85,50.3.167V-1.415L58.694-4.6,50.3-7.77V-9.352L60.574-5.326Zm10.514,0L60.814.167V-1.415L69.207-4.6,60.814-7.77V-9.352L71.088-5.326Z" transform="translate(794 4596)" fill="#212429"/>
      <path id="Trazado_1219411" data-name="Trazado 1219411" d="M.246-5.326,10.521-9.352V-7.77L2.118-4.6l8.4,3.182V.167L.246-3.867Zm10.514,0L21.034-9.352V-7.77L12.632-4.6l8.4,3.182V.167L10.76-3.867ZM25.817-9.686a4.1,4.1,0,0,1,2.588.773,3.705,3.705,0,0,1,1.2,2.663H28.067a2.839,2.839,0,0,0-.642-1.446,2.027,2.027,0,0,0-1.608-.576,2.222,2.222,0,0,0-2.162,1.477,5.865,5.865,0,0,0-.422,2.364,4.449,4.449,0,0,0,.6,2.382,2.05,2.05,0,0,0,1.881.967,2.057,2.057,0,0,0,1.56-.6,3.311,3.311,0,0,0,.8-1.648h1.538A4.129,4.129,0,0,1,28.287-.593a4.113,4.113,0,0,1-2.7.866,3.6,3.6,0,0,1-2.944-1.349,5.164,5.164,0,0,1-1.1-3.371,5.678,5.678,0,0,1,1.2-3.858A3.891,3.891,0,0,1,25.817-9.686Zm5.416.272h1.5v1.626a3.592,3.592,0,0,1,.905-1.156A2.347,2.347,0,0,1,35.3-9.624q.044,0,.149.009t.36.035v1.67a2.363,2.363,0,0,0-.259-.035q-.119-.009-.259-.009a2.258,2.258,0,0,0-1.837.769,2.684,2.684,0,0,0-.642,1.771V0H31.233ZM41.1-9.624a4.294,4.294,0,0,1,1.942.47A3.582,3.582,0,0,1,44.48-7.937a4.2,4.2,0,0,1,.633,1.661A10.868,10.868,0,0,1,45.253-4.2h-6.9a4.026,4.026,0,0,0,.677,2.3,2.266,2.266,0,0,0,1.96.866,2.534,2.534,0,0,0,1.978-.817,2.755,2.755,0,0,0,.6-1.1h1.556A3.276,3.276,0,0,1,44.713-1.8a4.111,4.111,0,0,1-.778,1.042,3.687,3.687,0,0,1-1.784.949,5.42,5.42,0,0,1-1.292.141A3.964,3.964,0,0,1,37.879-.945a4.976,4.976,0,0,1-1.222-3.582,5.41,5.41,0,0,1,1.23-3.683A4.059,4.059,0,0,1,41.1-9.624Zm2.522,4.166A4.1,4.1,0,0,0,43.179-7.1a2.3,2.3,0,0,0-2.171-1.143,2.406,2.406,0,0,0-1.828.787,2.972,2.972,0,0,0-.782,2ZM48.41-2.5a1.3,1.3,0,0,0,.5,1.081,1.857,1.857,0,0,0,1.187.4,3.608,3.608,0,0,0,1.617-.387,2.176,2.176,0,0,0,1.318-2.1V-4.79a2.707,2.707,0,0,1-.747.308,6.366,6.366,0,0,1-.9.176l-.958.123a3.664,3.664,0,0,0-1.292.36A1.4,1.4,0,0,0,48.41-2.5Zm3.832-3.2a.859.859,0,0,0,.729-.457,1.391,1.391,0,0,0,.105-.606A1.285,1.285,0,0,0,52.5-7.941a3.089,3.089,0,0,0-1.648-.365,2.094,2.094,0,0,0-1.758.668,2.2,2.2,0,0,0-.378,1.1H47.241A2.718,2.718,0,0,1,48.371-8.96a4.637,4.637,0,0,1,2.518-.681,5.124,5.124,0,0,1,2.7.633A2.147,2.147,0,0,1,54.615-7.04v5.423a.694.694,0,0,0,.1.4.487.487,0,0,0,.426.149q.105,0,.237-.013t.281-.04V.044A4.406,4.406,0,0,1,55.1.176,4.111,4.111,0,0,1,54.571.2a1.3,1.3,0,0,1-1.187-.58,2.239,2.239,0,0,1-.272-.87,4.025,4.025,0,0,1-1.389,1.1,4.3,4.3,0,0,1-2,.466,2.967,2.967,0,0,1-2.14-.8,2.642,2.642,0,0,1-.831-1.991,2.564,2.564,0,0,1,.817-2.03,3.889,3.889,0,0,1,2.145-.888Zm5.284-6.337h1.6v2.628h1.5v1.292h-1.5v6.144a.665.665,0,0,0,.334.659,1.42,1.42,0,0,0,.615.1q.114,0,.246,0t.308-.022V0a3.532,3.532,0,0,1-.567.114,5.39,5.39,0,0,1-.637.035,1.717,1.717,0,0,1-1.5-.567,2.519,2.519,0,0,1-.4-1.472V-8.121H56.252V-9.413h1.274Zm8.606,2.417a4.294,4.294,0,0,1,1.942.47,3.582,3.582,0,0,1,1.433,1.217,4.2,4.2,0,0,1,.633,1.661A10.868,10.868,0,0,1,70.281-4.2h-6.9a4.026,4.026,0,0,0,.677,2.3,2.266,2.266,0,0,0,1.96.866A2.534,2.534,0,0,0,68-1.854a2.755,2.755,0,0,0,.6-1.1h1.556A3.276,3.276,0,0,1,69.741-1.8a4.111,4.111,0,0,1-.778,1.042,3.687,3.687,0,0,1-1.784.949,5.42,5.42,0,0,1-1.292.141A3.964,3.964,0,0,1,62.907-.945a4.976,4.976,0,0,1-1.222-3.582,5.41,5.41,0,0,1,1.23-3.683A4.059,4.059,0,0,1,66.133-9.624Zm2.522,4.166A4.1,4.1,0,0,0,68.207-7.1a2.3,2.3,0,0,0-2.171-1.143,2.406,2.406,0,0,0-1.828.787,2.972,2.972,0,0,0-.782,2ZM81.586-3.85,71.311.167V-1.415L79.7-4.6,71.311-7.77V-9.352L81.586-5.326Zm10.514,0L81.825.167V-1.415L90.218-4.6,81.825-7.77V-9.352L92.1-5.326Z" transform="translate(783 4796)" fill="#212429"/>
      <g id="Polígono_1" data-name="Polígono 1" transform="translate(998 4641)" fill="#fff">
        <path d="M 22.23381042480469 19 L 1.766190052032471 19 L 12 1.943650007247925 L 22.23381042480469 19 Z" stroke="none"/>
        <path d="M 12 3.887306213378906 L 3.532384872436523 18 L 20.46761703491211 18 L 12 3.887306213378906 M 12 0 L 24 20 L 0 20 L 12 0 Z" stroke="none" fill="#5c2c88"/>
      </g>
      <path id="Trazado_1217640" data-name="Trazado 1217640" d="M3261,4766.1V4662.245" transform="translate(-2251 -1.245)" fill="none" stroke="#5c2c88" stroke-linecap="round" stroke-width="2"/>
      <path id="Trazado_1217641" data-name="Trazado 1217641" d="M3261,4791.209V4662.245" transform="translate(5553.209 1340) rotate(90)" fill="none" stroke="#5c2c88" stroke-linecap="round" stroke-width="2" stroke-dasharray="5"/>
      <path id="Trazado_1217642" data-name="Trazado 1217642" d="M3463.358,4791.209V4662.245" transform="translate(5553.209 1340) rotate(90)" fill="none" stroke="#5c2c88" stroke-linecap="round" stroke-width="2" stroke-dasharray="5"/>
      <path id="Trazado_1217643" data-name="Trazado 1217643" d="M3132.157,4795.982l12.569,7.051-12.569,7.435" transform="translate(-2251)" fill="none" stroke="#5c2c88" stroke-linecap="round" stroke-width="2"/>
      <path id="Trazado_1217644" data-name="Trazado 1217644" d="M3132.157,4795.982l12.569,7.051-12.569,7.435" transform="translate(-2251 -202.225)" fill="none" stroke="#5c2c88" stroke-linecap="round" stroke-width="2"/>
      <path id="Trazado_1217645" data-name="Trazado 1217645" d="M3261,4690.245v-28" transform="translate(-2641 67.755)" fill="none" stroke="#5c2c88" stroke-linecap="round" stroke-width="2"/>
      <g id="Polígono_2" data-name="Polígono 2" transform="translate(608 4710)" fill="#fff">
        <path d="M 22.23381042480469 19 L 1.766190052032471 19 L 12 1.943650007247925 L 22.23381042480469 19 Z" stroke="none"/>
        <path d="M 12 3.887306213378906 L 3.532384872436523 18 L 20.46761703491211 18 L 12 3.887306213378906 M 12 0 L 24 20 L 0 20 L 12 0 Z" stroke="none" fill="#5c2c88"/>
      </g>
    </g>
  </g>
</svg>
