<svg xmlns="http://www.w3.org/2000/svg" xmlns:xlink="http://www.w3.org/1999/xlink" width="106.16" height="106.16" viewBox="0 0 106.16 106.16">
  <defs>
    <filter id="Trazado_982547" x="0" y="0" width="106.16" height="106.16" filterUnits="userSpaceOnUse">
      <feOffset dy="3" input="SourceAlpha"/>
      <feGaussianBlur stdDeviation="3" result="blur"/>
      <feFlood flood-opacity="0.161"/>
      <feComposite operator="in" in2="blur"/>
      <feComposite in="SourceGraphic"/>
    </filter>
  </defs>
  <g id="Grupo_1228600" data-name="Grupo 1228600" transform="translate(-610.712 -3830)">
    <g id="Grupo_1228123" data-name="Grupo 1228123" transform="translate(419.712 368.536)">
      <g id="Grupo_1224851" data-name="Grupo 1224851" transform="translate(0 1738.464)">
        <g id="Grupo_1206130" data-name="Grupo 1206130" transform="translate(0 -59)">
          <g id="Grupo_1203672" data-name="Grupo 1203672" transform="translate(0.08 -4797.878)">
            <g id="Grupo_1203344" data-name="Grupo 1203344" transform="translate(-81.08 5174.875)">
              <g id="Grupo_1177900" data-name="Grupo 1177900" transform="translate(281 1411.003)">
                <g id="Grupo_1172010" data-name="Grupo 1172010" transform="translate(0)">
                  <g id="Grupo_1171046" data-name="Grupo 1171046">
                    <g id="Grupo_1148525" data-name="Grupo 1148525">
                      <g transform="matrix(1, 0, 0, 1, -9, -6)" filter="url(#Trazado_982547)">
                        <g id="Trazado_982547-2" data-name="Trazado 982547" transform="translate(9 6)" fill="#e5ebfb">
                          <path d="M 44.0802001953125 86.660400390625 C 38.33124923706055 86.660400390625 32.75506210327148 85.53479766845703 27.50652503967285 83.31484985351562 C 22.43628692626953 81.17032623291016 17.88242530822754 78.09992218017578 13.97144985198975 74.18894958496094 C 10.06047534942627 70.27797698974609 6.99007511138916 65.72411346435547 4.845550060272217 60.65387344360352 C 2.625600099563599 55.40533828735352 1.500000238418579 49.82915115356445 1.500000238418579 44.0802001953125 C 1.500000238418579 38.33124923706055 2.625600099563599 32.75506210327148 4.845550060272217 27.50652503967285 C 6.99007511138916 22.43628692626953 10.06047534942627 17.88242530822754 13.97144985198975 13.97144985198975 C 17.88242530822754 10.06047534942627 22.43628692626953 6.99007511138916 27.50652503967285 4.845550060272217 C 32.75506210327148 2.625600099563599 38.33124923706055 1.500000238418579 44.0802001953125 1.500000238418579 C 49.82915115356445 1.500000238418579 55.40533828735352 2.625600099563599 60.65387344360352 4.845550060272217 C 65.72411346435547 6.99007511138916 70.27797698974609 10.06047534942627 74.18894958496094 13.97144985198975 C 78.09992218017578 17.88242530822754 81.17032623291016 22.43628692626953 83.31484985351562 27.50652503967285 C 85.53479766845703 32.75506210327148 86.660400390625 38.33124923706055 86.660400390625 44.0802001953125 C 86.660400390625 49.82915115356445 85.53479766845703 55.40533828735352 83.31484985351562 60.65387344360352 C 81.17032623291016 65.72411346435547 78.09992218017578 70.27797698974609 74.18894958496094 74.18894958496094 C 70.27797698974609 78.09992218017578 65.72411346435547 81.17032623291016 60.65387344360352 83.31484985351562 C 55.40533828735352 85.53479766845703 49.82915115356445 86.660400390625 44.0802001953125 86.660400390625 Z" stroke="none"/>
                          <path d="M 44.0802001953125 3 C 38.53308486938477 3 33.15349960327148 4.085746765136719 28.09085845947266 6.227058410644531 C 23.19941711425781 8.29595947265625 18.80581665039062 11.25841522216797 15.03211212158203 15.03211212158203 C 11.25841522216797 18.80581665039062 8.29595947265625 23.19941711425781 6.227058410644531 28.09085845947266 C 4.085746765136719 33.15349960327148 3 38.53308486938477 3 44.0802001953125 C 3 49.62731552124023 4.085746765136719 55.00691604614258 6.227058410644531 60.06954193115234 C 8.29595947265625 64.96098327636719 11.25841522216797 69.35458374023438 15.03211212158203 73.12828826904297 C 18.80581665039062 76.90198516845703 23.19941711425781 79.86444091796875 28.09085845947266 81.93334197998047 C 33.15349960327148 84.07466125488281 38.53308486938477 85.160400390625 44.0802001953125 85.160400390625 C 49.62731552124023 85.160400390625 55.00691604614258 84.07466125488281 60.06954193115234 81.93334197998047 C 64.96099853515625 79.86444091796875 69.35458374023438 76.90198516845703 73.12828826904297 73.12828826904297 C 76.90198516845703 69.35458374023438 79.86444091796875 64.96099853515625 81.93334197998047 60.06954193115234 C 84.07466125488281 55.00691604614258 85.160400390625 49.62731552124023 85.160400390625 44.0802001953125 C 85.160400390625 38.53308486938477 84.07466125488281 33.15349960327148 81.93334197998047 28.09085845947266 C 79.86444091796875 23.19941711425781 76.90198516845703 18.80581665039062 73.12828826904297 15.03211212158203 C 69.35458374023438 11.25841522216797 64.96098327636719 8.29595947265625 60.06954193115234 6.227058410644531 C 55.00691604614258 4.085746765136719 49.62731552124023 3 44.0802001953125 3 M 44.0802001953125 0 C 68.42502593994141 0 88.160400390625 19.73538970947266 88.160400390625 44.0802001953125 C 88.160400390625 68.42502593994141 68.42502593994141 88.160400390625 44.0802001953125 88.160400390625 C 19.73538970947266 88.160400390625 0 68.42502593994141 0 44.0802001953125 C 0 19.73538970947266 19.73538970947266 0 44.0802001953125 0 Z" stroke="none" fill="#0b47db"/>
                        </g>
                      </g>
                    </g>
                  </g>
                </g>
              </g>
            </g>
          </g>
        </g>
      </g>
    </g>
    <g id="desarrollo-web" transform="translate(635.61 3858.365)">
      <path id="Trazado_1218107" data-name="Trazado 1218107" d="M59.668,312H8v3.758a1.885,1.885,0,0,0,1.879,1.879H60.608a1.885,1.885,0,0,0,1.879-1.879V312Zm0,0" transform="translate(-7.061 -275.363)" fill="#acabb1"/>
      <path id="Trazado_1218108" data-name="Trazado 1218108" d="M77.092,8H35.758A3.758,3.758,0,0,0,32,11.758v3.758H80.85V11.758A3.758,3.758,0,0,0,77.092,8Zm0,0" transform="translate(-28.242 -7.061)" fill="#ff6243"/>
      <path id="Trazado_1218109" data-name="Trazado 1218109" d="M75.213,72H32v28.183H80.85V72Zm0,0" transform="translate(-28.242 -63.545)" fill="#5aaae7"/>
      <path id="Trazado_1218110" data-name="Trazado 1218110" d="M236.667,64.455v3.758l-2.208.442a7.853,7.853,0,0,1-.742,1.785l1.249,1.869-2.659,2.659-1.869-1.249a7.853,7.853,0,0,1-1.785.742l-.442,2.208h-3.758l-.442-2.208a7.853,7.853,0,0,1-1.785-.742l-1.869,1.249L217.7,72.308l1.25-1.869a7.853,7.853,0,0,1-.742-1.785L216,68.212V64.455l2.208-.442a7.853,7.853,0,0,1,.742-1.785l-1.25-1.869,2.659-2.659,1.869,1.249a7.853,7.853,0,0,1,1.785-.742L224.455,56h3.758l.442,2.208a7.852,7.852,0,0,1,1.785.742l1.869-1.249,2.659,2.659-1.249,1.869a7.853,7.853,0,0,1,.742,1.785Zm0,0" transform="translate(-190.636 -49.424)" fill="#00ccb3"/>
      <path id="Trazado_1218111" data-name="Trazado 1218111" d="M273.394,108.7a4.7,4.7,0,1,1-4.7-4.7A4.7,4.7,0,0,1,273.394,108.7Zm0,0" transform="translate(-232.999 -91.788)" fill="#ff6243"/>
      <path id="Trazado_1218112" data-name="Trazado 1218112" d="M106.459,116.654a7.853,7.853,0,0,1-.742,1.785l1.25,1.869-2.659,2.659-1.869-1.25a7.853,7.853,0,0,1-1.785.742l-.442,2.208H96.455l-.442-2.208a7.852,7.852,0,0,1-1.785-.742l-1.869,1.25L89.7,120.308l1.249-1.869a7.853,7.853,0,0,1-.742-1.785L88,116.213v-3.758l2.208-.442a7.853,7.853,0,0,1,.742-1.785L89.7,108.359l2.659-2.659,1.869,1.249a7.853,7.853,0,0,1,1.785-.742L96.455,104h3.758l.442,2.208a7.853,7.853,0,0,1,1.785.742l1.869-1.249,2.659,2.659-1.25,1.869a7.853,7.853,0,0,1,.742,1.785l2.208.442v3.758l-1.992.4Zm0,0" transform="translate(-77.666 -91.788)" fill="#ff9811"/>
      <path id="Trazado_1218113" data-name="Trazado 1218113" d="M145.394,156.7a4.7,4.7,0,1,1-4.7-4.7A4.7,4.7,0,0,1,145.394,156.7Zm0,0" transform="translate(-120.03 -134.151)" fill="#ffd422"/>
      <path id="Trazado_1218114" data-name="Trazado 1218114" d="M200,312h9.394v1.879a.939.939,0,0,1-.939.939h-7.515a.939.939,0,0,1-.939-.939Zm0,0" transform="translate(-176.514 -275.363)" fill="#898890"/>
      <path id="Trazado_1218115" data-name="Trazado 1218115" d="M55.426,35.7H53.547V4.7A4.7,4.7,0,0,0,48.85,0H7.515a4.7,4.7,0,0,0-4.7,4.7v31H.939A.939.939,0,0,0,0,36.637V40.4a2.818,2.818,0,0,0,2.818,2.818H53.547A2.818,2.818,0,0,0,56.365,40.4V36.637A.939.939,0,0,0,55.426,35.7ZM4.7,9.394H25.364V7.515H4.7V4.7A2.818,2.818,0,0,1,7.515,1.879H48.85A2.818,2.818,0,0,1,51.668,4.7V7.515H46.032V9.394h5.637V35.7H4.7ZM24.425,37.577H31.94v.939H24.425ZM54.486,40.4a.939.939,0,0,1-.939.939H2.818a.939.939,0,0,1-.939-.939V37.577H22.546v.939A1.879,1.879,0,0,0,24.425,40.4H31.94a1.879,1.879,0,0,0,1.879-1.879v-.939H54.486Zm0,0"/>
      <path id="Trazado_1218116" data-name="Trazado 1218116" d="M72,32h1.879v1.879H72Zm0,0" transform="translate(-63.545 -28.242)"/>
      <path id="Trazado_1218117" data-name="Trazado 1218117" d="M104,32h1.879v1.879H104Zm0,0" transform="translate(-91.788 -28.242)"/>
      <path id="Trazado_1218118" data-name="Trazado 1218118" d="M136,32h1.879v1.879H136Zm0,0" transform="translate(-120.03 -28.242)"/>
      <path id="Trazado_1218119" data-name="Trazado 1218119" d="M133.637,144a5.637,5.637,0,1,0,5.637,5.637A5.637,5.637,0,0,0,133.637,144Zm0,9.394a3.758,3.758,0,1,1,3.758-3.758A3.758,3.758,0,0,1,133.637,153.394Zm0,0" transform="translate(-112.969 -127.09)"/>
      <path id="Trazado_1218120" data-name="Trazado 1218120" d="M101.8,104.473l-1.667-.333a9.124,9.124,0,0,0-.376-.912l.939-1.409a.939.939,0,0,0-.117-1.185l-2.659-2.66a.939.939,0,0,0-1.184-.117l-1.409.939a9.375,9.375,0,0,0-.911-.376l-.338-1.668A.94.94,0,0,0,93.152,96H89.395a.94.94,0,0,0-.921.751l-.334,1.667a9.377,9.377,0,0,0-.911.376l-1.409-.939a.939.939,0,0,0-1.184.117l-2.661,2.659a.939.939,0,0,0-.117,1.185l.939,1.409a9.124,9.124,0,0,0-.376.912l-1.668.336a.94.94,0,0,0-.751.921v3.758a.94.94,0,0,0,.751.921l1.667.333a9.122,9.122,0,0,0,.376.912l-.939,1.409a.939.939,0,0,0,.117,1.185l2.659,2.66a.939.939,0,0,0,1.184.117l1.409-.939a9.37,9.37,0,0,0,.911.376l.338,1.668a.94.94,0,0,0,.921.751h3.758a.94.94,0,0,0,.921-.751l.334-1.667a9.374,9.374,0,0,0,.911-.376l1.409.939a.939.939,0,0,0,1.184-.117l2.661-2.659a.939.939,0,0,0,.117-1.185l-.939-1.409a9.124,9.124,0,0,0,.376-.912l1.668-.336a.94.94,0,0,0,.751-.921v-3.758A.94.94,0,0,0,101.8,104.473Zm-1.127,3.908-1.454.291a.938.938,0,0,0-.719.663,7.461,7.461,0,0,1-.658,1.588.939.939,0,0,0,.039.977l.82,1.231L97.129,114.7l-1.231-.821a.939.939,0,0,0-.979-.039,7.454,7.454,0,0,1-1.586.657.94.94,0,0,0-.663.719l-.287,1.45H90.164l-.29-1.454a.938.938,0,0,0-.663-.719,7.433,7.433,0,0,1-1.586-.658.94.94,0,0,0-.979.039l-1.231.821-1.563-1.565.82-1.231a.939.939,0,0,0,.039-.977,7.46,7.46,0,0,1-.658-1.588.938.938,0,0,0-.719-.663l-1.456-.291v-2.217l1.454-.291a.938.938,0,0,0,.719-.663,7.459,7.459,0,0,1,.658-1.588.939.939,0,0,0-.039-.977l-.82-1.231,1.568-1.569,1.231.821a.939.939,0,0,0,.979.039,7.453,7.453,0,0,1,1.586-.657.94.94,0,0,0,.663-.719l.287-1.45h2.219l.29,1.454a.938.938,0,0,0,.663.719,7.431,7.431,0,0,1,1.586.658.94.94,0,0,0,.979-.039l1.231-.821,1.568,1.569-.82,1.231a.939.939,0,0,0-.039.977,7.468,7.468,0,0,1,.657,1.588.94.94,0,0,0,.719.663l1.451.287Zm0,0" transform="translate(-70.606 -84.727)"/>
      <path id="Trazado_1218121" data-name="Trazado 1218121" d="M265.167,97.871a3.758,3.758,0,1,1-1.5,7.2l-.751,1.722A5.636,5.636,0,1,0,260,99.374l1.721.751a3.757,3.757,0,0,1,3.446-2.255Zm0,0" transform="translate(-229.469 -84.719)"/>
      <path id="Trazado_1218122" data-name="Trazado 1218122" d="M244.623,56.473l-1.667-.333a9.126,9.126,0,0,0-.376-.912l.939-1.409a.939.939,0,0,0-.117-1.185l-2.659-2.66a.938.938,0,0,0-1.184-.117l-1.409.939a9.372,9.372,0,0,0-.911-.376l-.338-1.668A.94.94,0,0,0,235.98,48h-3.758a.94.94,0,0,0-.921.751l-.334,1.667a9.374,9.374,0,0,0-.911.376l-1.409-.939a.938.938,0,0,0-1.184.117L224.8,52.63l1.328,1.328,2.113-2.112,1.231.821a.939.939,0,0,0,.979.039,7.454,7.454,0,0,1,1.586-.657.939.939,0,0,0,.663-.719l.291-1.45h2.219l.29,1.454a.938.938,0,0,0,.663.719,7.431,7.431,0,0,1,1.586.658.94.94,0,0,0,.979-.039l1.231-.821,1.568,1.569-.82,1.231a.939.939,0,0,0-.039.977,7.468,7.468,0,0,1,.657,1.588.94.94,0,0,0,.719.663l1.451.287v2.217l-1.454.291a.938.938,0,0,0-.719.663,7.46,7.46,0,0,1-.658,1.588.939.939,0,0,0,.039.977l.82,1.231L239.957,66.7l-1.231-.821a.939.939,0,0,0-.979-.039,7.455,7.455,0,0,1-1.586.657.94.94,0,0,0-.663.719l-.287,1.45h-2.219l-.29-1.454-1.842.369.443,2.212a.94.94,0,0,0,.921.751h3.758a.94.94,0,0,0,.921-.751l.334-1.667a9.375,9.375,0,0,0,.911-.376l1.409.939a.939.939,0,0,0,1.184-.117l2.661-2.659a.939.939,0,0,0,.117-1.185l-.939-1.409a9.123,9.123,0,0,0,.376-.912l1.668-.336a.94.94,0,0,0,.751-.921V57.394a.94.94,0,0,0-.751-.921Zm0,0" transform="translate(-198.403 -42.363)"/>
    </g>
  </g>
</svg>
