<svg xmlns="http://www.w3.org/2000/svg" xmlns:xlink="http://www.w3.org/1999/xlink" width="103" height="103" viewBox="0 0 103 103">
  <defs>
    <filter id="Trazado_978624" x="0" y="0" width="103" height="103" filterUnits="userSpaceOnUse">
      <feOffset dy="3" input="SourceAlpha"/>
      <feGaussianBlur stdDeviation="3" result="blur"/>
      <feFlood flood-opacity="0.161"/>
      <feComposite operator="in" in2="blur"/>
      <feComposite in="SourceGraphic"/>
    </filter>
  </defs>
  <g id="Grupo_1228609" data-name="Grupo 1228609" transform="translate(-199 -6691)">
    <g id="Grupo_1228126" data-name="Grupo 1228126" transform="translate(27.131 4908.672)">
      <g id="Grupo_1227500" data-name="Grupo 1227500" transform="translate(0.869 640.328)">
        <g id="Grupo_1225355" data-name="Grupo 1225355" transform="translate(180 1148)">
          <g id="Grupo_1176881" data-name="Grupo 1176881">
            <g id="Grupo_1175148" data-name="Grupo 1175148">
              <g id="Grupo_1173798" data-name="Grupo 1173798">
                <g id="Grupo_1171925" data-name="Grupo 1171925">
                  <g id="Grupo_1164524" data-name="Grupo 1164524">
                    <g id="Grupo_1144123" data-name="Grupo 1144123">
                      <g transform="matrix(1, 0, 0, 1, -9, -6)" filter="url(#Trazado_978624)">
                        <g id="Trazado_978624-2" data-name="Trazado 978624" transform="translate(9 6)" fill="#fef9e5">
                          <path d="M 42.5 83.5 C 36.96437835693359 83.5 31.59512901306152 82.41617584228516 26.54141235351562 80.27863311767578 C 21.65934181213379 78.21369171142578 17.27447128295898 75.25723266601562 13.50862312316895 71.49137878417969 C 9.742764472961426 67.72553253173828 6.786305904388428 63.34066009521484 4.721364498138428 58.45858764648438 C 2.583823442459106 53.40486907958984 1.5 48.03562164306641 1.5 42.5 C 1.5 36.96437835693359 2.583823442459106 31.59512901306152 4.721364498138428 26.54141235351562 C 6.786305904388428 21.65934181213379 9.742764472961426 17.27447128295898 13.50862312316895 13.50862312316895 C 17.27447128295898 9.742764472961426 21.65934181213379 6.786305904388428 26.54141235351562 4.721364498138428 C 31.59512901306152 2.583823442459106 36.96437835693359 1.5 42.5 1.5 C 48.03562164306641 1.5 53.40486907958984 2.583823442459106 58.45858764648438 4.721364498138428 C 63.34066009521484 6.786305904388428 67.72553253173828 9.742764472961426 71.49137878417969 13.50862312316895 C 75.25723266601562 17.27447128295898 78.21369171142578 21.65934181213379 80.27863311767578 26.54141235351562 C 82.41617584228516 31.59512901306152 83.5 36.96437835693359 83.5 42.5 C 83.5 48.03562164306641 82.41617584228516 53.40486907958984 80.27863311767578 58.45858764648438 C 78.21369171142578 63.34066009521484 75.25723266601562 67.72553253173828 71.49137878417969 71.49137878417969 C 67.72553253173828 75.25723266601562 63.34066009521484 78.21369171142578 58.45858764648438 80.27863311767578 C 53.40486907958984 82.41617584228516 48.03562164306641 83.5 42.5 83.5 Z" stroke="none"/>
                          <path d="M 42.5 3 C 37.16621398925781 3 31.99356079101562 4.043960571289062 27.125732421875 6.102882385253906 C 22.42246627807617 8.092185974121094 18.19785308837891 10.94070434570312 14.56928253173828 14.56928253173828 C 10.94070434570312 18.19785308837891 8.092185974121094 22.42246627807617 6.102882385253906 27.125732421875 C 4.043960571289062 31.99356079101562 3 37.16621398925781 3 42.5 C 3 47.83378601074219 4.043960571289062 53.00643920898438 6.102882385253906 57.87425231933594 C 8.092185974121094 62.57753372192383 10.94070434570312 66.80213165283203 14.56928253173828 70.43071746826172 C 18.19786834716797 74.05929565429688 22.42246627807617 76.90781402587891 27.125732421875 78.89711761474609 C 31.99356079101562 80.95603942871094 37.16621398925781 82 42.5 82 C 47.83378601074219 82 53.00642395019531 80.95603942871094 57.87425231933594 78.89711761474609 C 62.57753372192383 76.90781402587891 66.80213165283203 74.05929565429688 70.43071746826172 70.43071746826172 C 74.05929565429688 66.80213165283203 76.90781402587891 62.57753372192383 78.89711761474609 57.87425231933594 C 80.95603942871094 53.00642395019531 82 47.83378601074219 82 42.5 C 82 37.16621398925781 80.95603942871094 31.99356079101562 78.89711761474609 27.125732421875 C 76.90781402587891 22.42246627807617 74.05929565429688 18.19786834716797 70.43071746826172 14.56928253173828 C 66.80213165283203 10.94070434570312 62.57753372192383 8.092185974121094 57.87425231933594 6.102882385253906 C 53.00643920898438 4.043960571289062 47.83378601074219 3 42.5 3 M 42.5 0 C 65.97209167480469 0 85 19.02789306640625 85 42.5 C 85 65.97209167480469 65.97209167480469 85 42.5 85 C 19.02789306640625 85 0 65.97209167480469 0 42.5 C 0 19.02789306640625 19.02789306640625 0 42.5 0 Z" stroke="none" fill="#866d08"/>
                        </g>
                      </g>
                    </g>
                  </g>
                </g>
              </g>
            </g>
          </g>
        </g>
      </g>
    </g>
    <g id="Layer_x0020_1" transform="translate(215.845 6702.596)">
      <g id="_302832216" transform="translate(9.14 12.492)">
        <g id="Grupo_1228608" data-name="Grupo 1228608" transform="translate(0 0)">
          <g id="Grupo_1228606" data-name="Grupo 1228606" transform="translate(0.558 0.558)">
            <g id="Grupo_1228603" data-name="Grupo 1228603">
              <path id="_300212264" d="M10.837,34.553V74.094H60.75V34.553l-3.318-2.187L13.1,32.812Z" transform="translate(-10.837 -26.386)" fill="#e4eaf8" fill-rule="evenodd"/>
              <path id="_302853480" d="M60.75,14.188H10.837v8.167H60.75Z" transform="translate(-10.837 -14.188)" fill="#e44a4a" fill-rule="evenodd"/>
            </g>
            <g id="Grupo_1228604" data-name="Grupo 1228604" transform="translate(8.126 12.484)">
              <path id="_302836656" d="M53.682,52.824a.555.555,0,1,0-1.079-.261l-2.377,9.82a.555.555,0,1,0,1.079.261Z" transform="translate(-45.383 -52.138)" fill="#7ab6f9"/>
              <path id="_302836920" d="M39.091,65.148a.555.555,0,1,0,.709-.853l-2.838-2.36,2.838-2.36a.555.555,0,1,0-.709-.853l-3.31,2.753a.558.558,0,0,0-.042.888l0,0Z" transform="translate(-35.538 -56.469)" fill="#7ab6f9"/>
              <path id="_302837376" d="M64.108,64.295a.555.555,0,1,0,.709.853l3.35-2.787,0,0a.558.558,0,0,0-.042-.888l-3.31-2.753a.555.555,0,1,0-.709.853l2.838,2.36Z" transform="translate(-54.575 -56.469)" fill="#7ab6f9"/>
            </g>
            <path id="_302837232" d="M104.936,53.552H120.2v10H104.936Z" transform="translate(-73.98 -40.602)" fill="#f4af19" fill-rule="evenodd"/>
            <path id="_302836752" d="M115.412,71.922h-5.5l2.752-5.9Z" transform="translate(-77.316 -48.972)" fill="#37c55d" fill-rule="evenodd"/>
            <path id="_302837352" d="M133.13,69.766h-6.491l3.245-6.954Z" transform="translate(-88.543 -46.816)" fill="#37c55d" fill-rule="evenodd"/>
            <path id="_302837136" d="M104.936,95.318h14.9v6.8h-14.9Z" transform="translate(-73.98 -68.629)" fill="#c58fe4" fill-rule="evenodd"/>
            <g id="Grupo_1228605" data-name="Grupo 1228605" transform="translate(3.134 26.132)">
              <path id="_302836368" d="M20.92,93.624a.557.557,0,1,0,0,1.114h3.04a.557.557,0,1,0,0-1.114Z" transform="translate(-20.363 -93.624)" fill="#7ab6f9"/>
              <path id="_302836272" d="M36.788,93.624a.557.557,0,1,0,0,1.114h4.89a.557.557,0,1,0,0-1.114Z" transform="translate(-31.011 -93.624)" fill="#7ab6f9"/>
              <path id="_302836128" d="M61.5,93.624a.557.557,0,1,0,0,1.114h3.04a.557.557,0,1,0,0-1.114Z" transform="translate(-47.59 -93.624)" fill="#7ab6f9"/>
              <path id="_302836392" d="M80.578,93.624a.557.557,0,0,0,0,1.114h3.04a.557.557,0,1,0,0-1.114Z" transform="translate(-60.395 -93.624)" fill="#7ab6f9"/>
              <path id="_302836584" d="M20.92,110.076a.557.557,0,1,0,0,1.114h5.154a.557.557,0,1,0,0-1.114Z" transform="translate(-20.363 -104.664)" fill="#7ab6f9"/>
              <path id="_302836200" d="M43.216,110.076a.557.557,0,1,0,0,1.114h2.775a.557.557,0,1,0,0-1.114Z" transform="translate(-35.324 -104.664)" fill="#7ab6f9"/>
              <path id="_302836320" d="M59.085,110.076a.557.557,0,1,0,0,1.114H61.6a.557.557,0,1,0,0-1.114Z" transform="translate(-45.972 -104.664)" fill="#7ab6f9"/>
              <path id="_302836056" d="M73.346,110.076a.557.557,0,0,0,0,1.114h5.419a.557.557,0,1,0,0-1.114Z" transform="translate(-55.542 -104.664)" fill="#7ab6f9"/>
              <path id="_302835936" d="M20.92,126.527a.557.557,0,1,0,0,1.114h2.247a.557.557,0,1,0,0-1.114Z" transform="translate(-20.363 -115.703)" fill="#7ab6f9"/>
              <path id="_302836464" d="M35.181,126.527a.557.557,0,1,0,0,1.114h3.833a.557.557,0,1,0,0-1.114Z" transform="translate(-29.932 -115.703)" fill="#7ab6f9"/>
              <path id="_302835744" d="M53.46,126.527a.557.557,0,1,0,0,1.114h7a.557.557,0,1,0,0-1.114Z" transform="translate(-42.198 -115.703)" fill="#7ab6f9"/>
              <path id="_302835672" d="M82.2,126.527a.557.557,0,1,0,0,1.114h2.506a.557.557,0,0,0,0-1.114Z" transform="translate(-61.483 -115.703)" fill="#7ab6f9"/>
              <path id="_302835504" d="M20.92,142.979a.557.557,0,0,0,0,1.114h3.833a.557.557,0,0,0,0-1.114Z" transform="translate(-20.363 -126.743)" fill="#7ab6f9"/>
              <path id="_302835600" d="M40,142.979a.557.557,0,0,0,0,1.114h2.511a.557.557,0,0,0,0-1.114Z" transform="translate(-33.167 -126.743)" fill="#7ab6f9"/>
              <path id="_302835480" d="M54.264,142.979a.557.557,0,0,0,0,1.114h5.419a.557.557,0,1,0,0-1.114Z" transform="translate(-42.737 -126.743)" fill="#7ab6f9"/>
              <path id="_302835576" d="M78.167,142.979a.557.557,0,0,0,0,1.114H82a.557.557,0,1,0,0-1.114Z" transform="translate(-58.777 -126.743)" fill="#7ab6f9"/>
              <path id="_302835096" d="M99.567,126.527a.557.557,0,1,0,0,1.114h5a.557.557,0,0,0,0-1.114Zm7.3,0a.557.557,0,0,0,0,1.114h2.994a.557.557,0,1,0,0-1.114Zm5.71,0a.557.557,0,1,0,0,1.114h3.287a.557.557,0,0,0,0-1.114Z" transform="translate(-73.137 -115.703)" fill="#7ab6f9"/>
              <path id="_302835624" d="M99.567,142.979a.557.557,0,0,0,0,1.114H102.9a.557.557,0,0,0,0-1.114Zm5.072,0a.557.557,0,0,0,0,1.114h4.108a.557.557,0,1,0,0-1.114Zm6.824,0a.557.557,0,0,0,0,1.114h4.4a.557.557,0,0,0,0-1.114Z" transform="translate(-73.137 -126.743)" fill="#7ab6f9"/>
            </g>
          </g>
          <g id="Grupo_1228607" data-name="Grupo 1228607">
            <path id="_302834352" d="M10.255,60.2h48.8v-46.6h-48.8Zm49.358,1.114H9.7a.557.557,0,0,1-.557-.557V13.049a.557.557,0,0,1,.557-.557H59.613a.557.557,0,0,1,.557.557V60.76a.557.557,0,0,1-.557.557Z" transform="translate(-9.14 -12.492)" fill-rule="evenodd"/>
            <path id="_302834976" d="M59.613,38.434H9.7a.557.557,0,1,1,0-1.114H59.613a.557.557,0,0,1,0,1.114Z" transform="translate(-9.141 -29.153)" fill-rule="evenodd"/>
            <path id="_302834904" d="M141.08,26.048h-3.457a.557.557,0,1,1,0-1.114h3.457a.557.557,0,0,1,0,1.114Z" transform="translate(-94.981 -20.841)" fill-rule="evenodd"/>
            <path id="_302834880" d="M117.884,26.02h-3.457a.557.557,0,1,1,0-1.114h3.457a.557.557,0,0,1,0,1.114Z" transform="translate(-79.417 -20.822)" fill-rule="evenodd"/>
            <path id="_302834520" d="M94.689,25.992H91.232a.557.557,0,1,1,0-1.114h3.457a.557.557,0,0,1,0,1.114Z" transform="translate(-63.852 -20.803)" fill-rule="evenodd"/>
            <path id="_302834760" d="M50.759,63.065a.518.518,0,0,1-.132-.016.556.556,0,0,1-.41-.672l2.377-9.821a.557.557,0,0,1,1.083.262L51.3,62.639A.557.557,0,0,1,50.759,63.065Z" transform="translate(-36.693 -39.091)" fill-rule="evenodd"/>
            <path id="_302834640" d="M39.443,65.273a.559.559,0,0,1-.356-.129l-3.351-2.788a.557.557,0,0,1,0-.856l3.351-2.786a.557.557,0,0,1,.712.856l-2.835,2.358L39.8,64.288a.557.557,0,0,1-.356.985Z" transform="translate(-26.852 -43.422)" fill-rule="evenodd"/>
            <path id="_302834448" d="M64.456,65.273a.557.557,0,0,1-.356-.985l2.835-2.359L64.1,59.57a.557.557,0,1,1,.712-.856L68.163,61.5a.557.557,0,0,1,0,.857l-3.35,2.788A.559.559,0,0,1,64.456,65.273Z" transform="translate(-45.885 -43.422)" fill-rule="evenodd"/>
            <path id="_302834472" d="M23.955,94.738H20.916a.557.557,0,1,1,0-1.114h3.04a.557.557,0,0,1,0,1.114Z" transform="translate(-16.668 -66.933)" fill-rule="evenodd"/>
            <path id="_302834424" d="M41.674,94.738H36.784a.557.557,0,1,1,0-1.114h4.891a.557.557,0,0,1,0,1.114Z" transform="translate(-27.316 -66.933)" fill-rule="evenodd"/>
            <path id="_302834496" d="M64.533,94.738H61.492a.557.557,0,1,1,0-1.114h3.041a.557.557,0,0,1,0,1.114Z" transform="translate(-43.896 -66.933)" fill-rule="evenodd"/>
            <path id="_302833704" d="M83.617,94.738H80.578a.557.557,0,0,1,0-1.114h3.04a.557.557,0,0,1,0,1.114Z" transform="translate(-56.703 -66.933)" fill-rule="evenodd"/>
            <path id="_302834112" d="M26.07,111.191H20.916a.557.557,0,1,1,0-1.114H26.07a.557.557,0,1,1,0,1.114Z" transform="translate(-16.668 -77.974)" fill-rule="evenodd"/>
            <path id="_302833800" d="M45.99,111.191H43.215a.557.557,0,0,1,0-1.114H45.99a.557.557,0,0,1,0,1.114Z" transform="translate(-31.632 -77.974)" fill-rule="evenodd"/>
            <path id="_302833776" d="M61.594,111.191H59.083a.557.557,0,1,1,0-1.114h2.512a.557.557,0,0,1,0,1.114Z" transform="translate(-42.279 -77.974)" fill-rule="evenodd"/>
            <path id="_302834304" d="M78.764,111.191H73.346a.557.557,0,1,1,0-1.114h5.419a.557.557,0,0,1,0,1.114Z" transform="translate(-51.85 -77.974)" fill-rule="evenodd"/>
            <path id="_302833944" d="M23.163,127.645H20.916a.557.557,0,1,1,0-1.114h2.247a.557.557,0,1,1,0,1.114Z" transform="translate(-16.668 -89.015)" fill-rule="evenodd"/>
            <path id="_302833584" d="M39.011,127.645H35.179a.557.557,0,1,1,0-1.114h3.832a.557.557,0,1,1,0,1.114Z" transform="translate(-26.239 -89.015)" fill-rule="evenodd"/>
            <path id="_302833920" d="M60.463,127.645h-7a.557.557,0,0,1,0-1.114h7a.557.557,0,0,1,0,1.114Z" transform="translate(-38.506 -89.015)" fill-rule="evenodd"/>
            <path id="_302833872" d="M84.7,127.645H82.2a.557.557,0,1,1,0-1.114H84.7a.557.557,0,1,1,0,1.114Z" transform="translate(-57.789 -89.015)" fill-rule="evenodd"/>
            <path id="_302833656" d="M24.749,144.094H20.916a.557.557,0,1,1,0-1.114h3.833a.557.557,0,0,1,0,1.114Z" transform="translate(-16.668 -100.053)" fill-rule="evenodd"/>
            <path id="_302833200" d="M42.509,144.094H40a.557.557,0,1,1,0-1.114h2.512a.557.557,0,0,1,0,1.114Z" transform="translate(-29.473 -100.053)" fill-rule="evenodd"/>
            <path id="_302832936" d="M59.68,144.094h-5.42a.557.557,0,1,1,0-1.114h5.42a.557.557,0,1,1,0,1.114Z" transform="translate(-39.043 -100.053)" fill-rule="evenodd"/>
            <path id="_302832912" d="M82,144.094H78.165a.557.557,0,1,1,0-1.114H82a.557.557,0,1,1,0,1.114Z" transform="translate(-55.084 -100.053)" fill-rule="evenodd"/>
            <path id="_302833320" d="M104.358,61.856h14.153V52.969H104.358Zm14.71,1.114H103.8a.557.557,0,0,1-.557-.557v-10a.557.557,0,0,1,.557-.557h15.267a.557.557,0,0,1,.557.557v10A.557.557,0,0,1,119.069,62.97Z" transform="translate(-72.287 -38.906)" fill-rule="evenodd"/>
            <path id="_302833488" d="M114.276,71.341a.559.559,0,0,1-.5-.321L111.524,66.2l-2.248,4.816a.557.557,0,0,1-1.01-.471l2.753-5.9a.556.556,0,0,1,.5-.321h0a.558.558,0,0,1,.5.322l2.752,5.9a.558.558,0,0,1-.269.74A.569.569,0,0,1,114.276,71.341Z" transform="translate(-75.621 -47.276)" fill-rule="evenodd"/>
            <path id="_302833032" d="M125.5,69.187a.57.57,0,0,1-.236-.052.558.558,0,0,1-.269-.74l3.246-6.954a.557.557,0,0,1,1.01,0l3.245,6.954a.557.557,0,1,1-1.01.471l-2.74-5.872-2.741,5.872A.558.558,0,0,1,125.5,69.187Z" transform="translate(-86.849 -45.122)" fill-rule="evenodd"/>
            <path id="_302832816" d="M104.358,100.428h13.791v-5.69H104.358Zm14.348,1.114H103.8a.557.557,0,0,1-.557-.557v-6.8a.557.557,0,0,1,.557-.557h14.9a.557.557,0,0,1,.557.557v6.8A.557.557,0,0,1,118.706,101.542Z" transform="translate(-72.287 -66.933)" fill-rule="evenodd"/>
            <path id="_302832888" d="M104.57,127.645h-5a.557.557,0,1,1,0-1.114h5a.557.557,0,1,1,0,1.114Zm5.292,0h-2.994a.557.557,0,1,1,0-1.114h2.994a.557.557,0,0,1,0,1.114Zm6,0h-3.288a.557.557,0,1,1,0-1.114h3.288a.557.557,0,0,1,0,1.114Z" transform="translate(-69.446 -89.015)" fill-rule="evenodd"/>
            <path id="_302832864" d="M102.9,144.094H99.568a.557.557,0,1,1,0-1.114H102.9a.557.557,0,1,1,0,1.114Zm5.849,0H104.64a.557.557,0,1,1,0-1.114h4.108a.557.557,0,1,1,0,1.114Zm7.118,0h-4.4a.557.557,0,1,1,0-1.114h4.4a.557.557,0,0,1,0,1.114Z" transform="translate(-69.446 -100.053)" fill-rule="evenodd"/>
          </g>
        </g>
      </g>
    </g>
  </g>
</svg>
