<svg xmlns="http://www.w3.org/2000/svg" xmlns:xlink="http://www.w3.org/1999/xlink" width="400" height="346" viewBox="0 0 400 346">
  <defs>
    <clipPath id="clip-path">
      <rect id="Rectángulo_422510" data-name="Rectángulo 422510" width="400" height="346" transform="translate(180 8777)" fill="#fff" stroke="#707070" stroke-width="1"/>
    </clipPath>
  </defs>
  <g id="Enmascarar_grupo_1208507" data-name="Enmascarar grupo 1208507" transform="translate(-180 -8777)" clip-path="url(#clip-path)">
    <g id="Grupo_1228663" data-name="Grupo 1228663" transform="translate(1529.41 121.607)">
      <g id="OBJECTS" transform="translate(-1336.295 8698.42)">
        <path id="Trazado_1218141" data-name="Trazado 1218141" d="M334.17,168.93c-13.616-16.106-37.651-19.76-58.734-15.947-16.621,3.006-34.781-1.883-48.27-11.789-24.63-18.089-56.436-26.688-87.288-27.639-26.347-.812-52.841,10.079-70.6,29.021A88.7,88.7,0,0,0,46.1,213.6L95.752,284.24c1.085,23.552,16.106,45.3,36.421,58.17s45.3,17.547,69.528,16.555c13.053-.534,26.162-2.668,38.171-7.669,28.155-11.725,42.607-39.826,56.552-66.338,11.091-21.084,31.319-36.7,43.176-57.383C350.038,209.363,347.786,185.037,334.17,168.93Z" transform="translate(-17.553 -70.744)" fill="#e5fdfa"/>
        <g id="Grupo_1228618" data-name="Grupo 1228618" transform="translate(88.765 0)">
          <g id="Grupo_1228616" data-name="Grupo 1228616">
            <rect id="Rectángulo_422512" data-name="Rectángulo 422512" width="192.961" height="124.115" transform="translate(10.149)" fill="#fff"/>
            <g id="Grupo_1228610" data-name="Grupo 1228610" transform="translate(10.149)">
              <rect id="Rectángulo_422513" data-name="Rectángulo 422513" width="192.961" height="13.057" fill="#9e97ff"/>
              <path id="Trazado_1218142" data-name="Trazado 1218142" d="M156.127,62.844a1.947,1.947,0,1,0-1.947,1.947A1.947,1.947,0,0,0,156.127,62.844Z" transform="translate(-146.98 -56.315)" fill="#814eff"/>
              <path id="Trazado_1218143" data-name="Trazado 1218143" d="M165.959,62.844a1.947,1.947,0,1,0-1.947,1.947A1.947,1.947,0,0,0,165.959,62.844Z" transform="translate(-148.587 -56.315)" fill="#814eff"/>
              <path id="Trazado_1218144" data-name="Trazado 1218144" d="M175.791,62.844a1.947,1.947,0,1,0-1.947,1.947A1.947,1.947,0,0,0,175.791,62.844Z" transform="translate(-150.195 -56.315)" fill="#814eff"/>
            </g>
            <rect id="Rectángulo_422514" data-name="Rectángulo 422514" width="74.212" height="39.652" transform="translate(0 22.276)" fill="#814eff"/>
            <rect id="Rectángulo_422515" data-name="Rectángulo 422515" width="63.781" height="31.324" transform="translate(29.483 74.649)" fill="#9e97ff"/>
            <g id="Grupo_1228611" data-name="Grupo 1228611" transform="translate(90.925 26.507)">
              <line id="Línea_2221" data-name="Línea 2221" x2="73.357" fill="none" stroke="#060305" stroke-linecap="round" stroke-linejoin="round" stroke-miterlimit="10" stroke-width="1"/>
              <line id="Línea_2222" data-name="Línea 2222" x2="73.357" transform="translate(0 6.238)" fill="none" stroke="#060305" stroke-linecap="round" stroke-linejoin="round" stroke-miterlimit="10" stroke-width="1"/>
              <line id="Línea_2223" data-name="Línea 2223" x2="73.357" transform="translate(0 12.476)" fill="none" stroke="#060305" stroke-linecap="round" stroke-linejoin="round" stroke-miterlimit="10" stroke-width="1"/>
              <line id="Línea_2224" data-name="Línea 2224" x2="73.357" transform="translate(0 18.713)" fill="none" stroke="#060305" stroke-linecap="round" stroke-linejoin="round" stroke-miterlimit="10" stroke-width="1"/>
              <line id="Línea_2225" data-name="Línea 2225" x2="73.357" transform="translate(0 24.951)" fill="none" stroke="#060305" stroke-linecap="round" stroke-linejoin="round" stroke-miterlimit="10" stroke-width="1"/>
              <line id="Línea_2226" data-name="Línea 2226" x2="73.357" transform="translate(0 31.19)" fill="none" stroke="#060305" stroke-linecap="round" stroke-linejoin="round" stroke-miterlimit="10" stroke-width="1"/>
            </g>
            <g id="Grupo_1228615" data-name="Grupo 1228615" transform="translate(119.308 74.648)">
              <line id="Línea_2227" data-name="Línea 2227" x2="63.94" transform="translate(0 31.324)" fill="none" stroke="#060305" stroke-linecap="round" stroke-linejoin="round" stroke-miterlimit="10" stroke-width="1"/>
              <g id="Grupo_1228612" data-name="Grupo 1228612" transform="translate(0.531 0.002)">
                <rect id="Rectángulo_422516" data-name="Rectángulo 422516" width="8.102" height="8.102" transform="translate(0 5.729) rotate(-45)" fill="#f6921e"/>
                <line id="Línea_2228" data-name="Línea 2228" x2="10.085" transform="translate(0.689 17.843)" fill="none" stroke="#060305" stroke-linecap="round" stroke-linejoin="round" stroke-miterlimit="10" stroke-width="1"/>
                <line id="Línea_2229" data-name="Línea 2229" x2="10.085" transform="translate(0.689 22.257)" fill="none" stroke="#060305" stroke-linecap="round" stroke-linejoin="round" stroke-miterlimit="10" stroke-width="1"/>
              </g>
              <g id="Grupo_1228613" data-name="Grupo 1228613" transform="translate(24.852)">
                <path id="Trazado_1218145" data-name="Trazado 1218145" d="M312.419,146.575c-4.659-6.461-11.388,5.167,0,9.01C323.807,151.742,317.077,140.114,312.419,146.575Z" transform="translate(-306.156 -144.658)" fill="#ff99a8"/>
                <line id="Línea_2230" data-name="Línea 2230" x2="10.085" transform="translate(1.158 17.845)" fill="none" stroke="#060305" stroke-linecap="round" stroke-linejoin="round" stroke-miterlimit="10" stroke-width="1"/>
                <line id="Línea_2231" data-name="Línea 2231" x2="10.085" transform="translate(1.158 22.259)" fill="none" stroke="#060305" stroke-linecap="round" stroke-linejoin="round" stroke-miterlimit="10" stroke-width="1"/>
              </g>
              <g id="Grupo_1228614" data-name="Grupo 1228614" transform="translate(50.196 0)">
                <path id="Trazado_1218146" data-name="Trazado 1218146" d="M342.225,144.659l-5.771,10H348Z" transform="translate(-336.454 -144.659)" fill="#9e97ff"/>
                <line id="Línea_2232" data-name="Línea 2232" x2="10.085" transform="translate(0.27 17.844)" fill="none" stroke="#060305" stroke-linecap="round" stroke-linejoin="round" stroke-miterlimit="10" stroke-width="1"/>
                <line id="Línea_2233" data-name="Línea 2233" x2="10.085" transform="translate(0.27 22.258)" fill="none" stroke="#060305" stroke-linecap="round" stroke-linejoin="round" stroke-miterlimit="10" stroke-width="1"/>
              </g>
            </g>
          </g>
          <g id="Grupo_1228617" data-name="Grupo 1228617" transform="translate(177.961 12.966)">
            <circle id="Elipse_13371" data-name="Elipse 13371" cx="16.403" cy="16.403" r="16.403" transform="translate(0 7.539) rotate(-13.286)" fill="#9e97ff"/>
            <path id="Trazado_1218147" data-name="Trazado 1218147" d="M367.872,101.389,355.285,86.509l4.376-3.7,7.591,8.978,11.407-17.664,4.814,3.108Z" transform="translate(-347.99 -71.444)" fill="#060305"/>
          </g>
        </g>
        <g id="Grupo_1228619" data-name="Grupo 1228619" transform="translate(0 4.871)">
          <path id="Trazado_1218148" data-name="Trazado 1218148" d="M258.494,227.3l-8.269-4.774v9.548Z" transform="translate(-64.087 -87.612)" fill="#814eff"/>
          <path id="Trazado_1218149" data-name="Trazado 1218149" d="M347.1,404.976l8.269,4.774V400.2Z" transform="translate(-79.926 -116.662)" fill="#814eff"/>
          <path id="Trazado_1218150" data-name="Trazado 1218150" d="M452.939,141.013l-4.774,8.269h9.548Z" transform="translate(-96.449 -74.285)" fill="#060305"/>
          <path id="Trazado_1218151" data-name="Trazado 1218151" d="M226.154,431.943l-4.774,8.269h9.548Z" transform="translate(-59.37 -121.852)" fill="none" stroke="#060305" stroke-linecap="round" stroke-linejoin="round" stroke-miterlimit="10" stroke-width="1"/>
          <path id="Trazado_1218152" data-name="Trazado 1218152" d="M66.4,122.071,71.17,113.8H61.622Z" transform="translate(-33.25 -69.836)" fill="#060305"/>
          <circle id="Elipse_13372" data-name="Elipse 13372" cx="1.326" cy="1.326" r="1.326" transform="translate(158.202 155.221)" fill="#814eff"/>
          <path id="Trazado_1218153" data-name="Trazado 1218153" d="M405.914,212.784a1.326,1.326,0,1,0-1.326,1.326A1.326,1.326,0,0,0,405.914,212.784Z" transform="translate(-89.108 -85.803)" fill="#814eff"/>
          <path id="Trazado_1218154" data-name="Trazado 1218154" d="M246.488,344.137a1.326,1.326,0,1,0-1.326,1.326A1.326,1.326,0,0,0,246.488,344.137Z" transform="translate(-63.042 -107.279)" fill="#814eff"/>
          <circle id="Elipse_13373" data-name="Elipse 13373" cx="1.326" cy="1.326" r="1.326" transform="translate(207.653 204.015)" fill="none" stroke="#060305" stroke-linecap="round" stroke-linejoin="round" stroke-miterlimit="10" stroke-width="1"/>
          <path id="Trazado_1218155" data-name="Trazado 1218155" d="M405.914,151.857a1.326,1.326,0,1,0-1.326,1.326A1.326,1.326,0,0,0,405.914,151.857Z" transform="translate(-89.108 -75.841)" fill="none" stroke="#060305" stroke-linecap="round" stroke-linejoin="round" stroke-miterlimit="10" stroke-width="1"/>
          <path id="Trazado_1218156" data-name="Trazado 1218156" d="M396.738,62.569a1.326,1.326,0,1,0-1.326,1.326A1.326,1.326,0,0,0,396.738,62.569Z" transform="translate(-87.607 -61.243)" fill="#814eff"/>
          <path id="Trazado_1218157" data-name="Trazado 1218157" d="M93.314,172.593a1.326,1.326,0,1,0-1.326,1.326A1.326,1.326,0,0,0,93.314,172.593Z" transform="translate(-37.998 -79.232)" fill="#814eff"/>
          <path id="Trazado_1218158" data-name="Trazado 1218158" d="M460.579,116.838a1.326,1.326,0,1,0-1.326,1.326A1.326,1.326,0,0,0,460.579,116.838Z" transform="translate(-98.045 -70.116)" fill="none" stroke="#060305" stroke-linecap="round" stroke-linejoin="round" stroke-miterlimit="10" stroke-width="1"/>
          <path id="Trazado_1218159" data-name="Trazado 1218159" d="M449.232,221.576a1.326,1.326,0,1,0-1.326,1.326A1.326,1.326,0,0,0,449.232,221.576Z" transform="translate(-96.19 -87.24)" fill="none" stroke="#060305" stroke-linecap="round" stroke-linejoin="round" stroke-miterlimit="10" stroke-width="1"/>
          <path id="Trazado_1218160" data-name="Trazado 1218160" d="M474.011,162.5a1.326,1.326,0,1,0-1.326,1.326A1.326,1.326,0,0,0,474.011,162.5Z" transform="translate(-100.241 -77.581)" fill="#814eff"/>
          <path id="Trazado_1218161" data-name="Trazado 1218161" d="M396.235,113.881a1.326,1.326,0,1,0-1.326,1.326A1.326,1.326,0,0,0,396.235,113.881Z" transform="translate(-87.525 -69.632)" fill="#814eff"/>
          <path id="Trazado_1218162" data-name="Trazado 1218162" d="M114.142,154.448a1.326,1.326,0,1,0-1.326,1.326A1.326,1.326,0,0,0,114.142,154.448Z" transform="translate(-41.404 -76.265)" fill="none" stroke="#060305" stroke-linecap="round" stroke-linejoin="round" stroke-miterlimit="10" stroke-width="1"/>
          <path id="Trazado_1218163" data-name="Trazado 1218163" d="M163.131,228.711a1.326,1.326,0,1,0-1.326,1.326A1.326,1.326,0,0,0,163.131,228.711Z" transform="translate(-49.413 -88.407)" fill="#060305"/>
          <path id="Trazado_1218164" data-name="Trazado 1218164" d="M30.357,225.119a1.326,1.326,0,1,0-1.326,1.326A1.326,1.326,0,0,0,30.357,225.119Z" transform="translate(-27.705 -87.82)" fill="#814eff"/>
          <path id="Trazado_1218165" data-name="Trazado 1218165" d="M102.724,109.028a1.326,1.326,0,1,0-1.326,1.326A1.326,1.326,0,0,0,102.724,109.028Z" transform="translate(-39.537 -68.839)" fill="#814eff"/>
          <path id="Trazado_1218166" data-name="Trazado 1218166" d="M183.683,393.1a1.326,1.326,0,1,0-1.326,1.326A1.326,1.326,0,0,0,183.683,393.1Z" transform="translate(-52.773 -115.285)" fill="#060305"/>
          <path id="Trazado_1218167" data-name="Trazado 1218167" d="M259.576,360.015a1.326,1.326,0,1,0-1.326,1.326A1.326,1.326,0,0,0,259.576,360.015Z" transform="translate(-65.182 -109.875)" fill="#814eff"/>
          <path id="Trazado_1218168" data-name="Trazado 1218168" d="M383.951,411.357a1.326,1.326,0,1,0-1.326,1.326A1.326,1.326,0,0,0,383.951,411.357Z" transform="translate(-85.517 -118.269)" fill="#060305"/>
          <path id="Trazado_1218169" data-name="Trazado 1218169" d="M196.216,451.407a1.326,1.326,0,1,0-1.326,1.326A1.326,1.326,0,0,0,196.216,451.407Z" transform="translate(-54.823 -124.817)" fill="#814eff"/>
        </g>
        <g id="Grupo_1228620" data-name="Grupo 1228620" transform="translate(51.93 112.568)">
          <path id="Trazado_1218170" data-name="Trazado 1218170" d="M444.434,191.908h0a2.765,2.765,0,0,1-5.264,0h0a2.765,2.765,0,0,0-5.264,0h0a2.765,2.765,0,0,1-5.264,0h0a2.765,2.765,0,0,0-5.264,0h0a2.765,2.765,0,0,1-5.264,0h0a2.765,2.765,0,0,0-5.264,0h0a2.765,2.765,0,0,1-5.264,0h0a2.765,2.765,0,0,0-5.264,0h0a2.765,2.765,0,0,1-5.264,0h0a2.765,2.765,0,0,0-5.264,0" transform="translate(-139.163 -189.99)" fill="none" stroke="#060305" stroke-linecap="round" stroke-linejoin="round" stroke-miterlimit="10" stroke-width="1"/>
          <path id="Trazado_1218171" data-name="Trazado 1218171" d="M142.426,386.893h0a2.765,2.765,0,0,1-5.264,0h0a2.765,2.765,0,0,0-5.264,0h0a2.765,2.765,0,0,1-5.264,0h0a2.765,2.765,0,0,0-5.264,0h0a2.765,2.765,0,0,1-5.264,0h0a2.765,2.765,0,0,0-5.264,0h0a2.765,2.765,0,0,1-5.264,0h0a2.765,2.765,0,0,0-5.264,0h0a2.765,2.765,0,0,1-5.264,0h0a2.765,2.765,0,0,0-5.264,0" transform="translate(-89.785 -221.87)" fill="none" stroke="#060305" stroke-linecap="round" stroke-linejoin="round" stroke-miterlimit="10" stroke-width="1"/>
          <path id="Trazado_1218172" data-name="Trazado 1218172" d="M406.7,423.743h0a2.765,2.765,0,0,1-5.264,0h0a2.765,2.765,0,0,0-5.264,0h0a2.765,2.765,0,0,1-5.264,0h0a2.765,2.765,0,0,0-5.264,0h0a2.765,2.765,0,0,1-5.264,0h0a2.765,2.765,0,0,0-5.264,0h0a2.765,2.765,0,0,1-5.264,0h0a2.765,2.765,0,0,0-5.264,0h0a2.765,2.765,0,0,1-5.264,0h0a2.765,2.765,0,0,0-5.264,0" transform="translate(-132.993 -227.895)" fill="none" stroke="#060305" stroke-linecap="round" stroke-linejoin="round" stroke-miterlimit="10" stroke-width="1"/>
        </g>
        <g id="Grupo_1228632" data-name="Grupo 1228632" transform="translate(2.066 112.889)">
          <g id="Grupo_1228621" data-name="Grupo 1228621" transform="translate(75.786 95.089)">
            <path id="Trazado_1218173" data-name="Trazado 1218173" d="M178.482,304.9c7.766-2.2,17.72-.048,23.568,5.515s8.052,14.895,4.594,22.187a22.173,22.173,0,0,1-9.218,9.453,43.65,43.65,0,0,1-12.6,4.447l-60.676,9.283q-1.69-17.5-3.381-34.992C139.818,315.4,159.437,310.285,178.482,304.9Z" transform="translate(-120.773 -304.047)" fill="#814eff"/>
            <path id="Trazado_1218174" data-name="Trazado 1218174" d="M211.663,344.548a13.655,13.655,0,0,0,7.087-9.409" transform="translate(-135.633 -309.131)" fill="none" stroke="#060305" stroke-linecap="round" stroke-linejoin="round" stroke-miterlimit="10" stroke-width="1"/>
          </g>
          <g id="Grupo_1228622" data-name="Grupo 1228622" transform="translate(4.668 22.258)">
            <path id="Trazado_1218175" data-name="Trazado 1218175" d="M132.207,242.85c-4.086-7.043-10.33-13.359-17.835-16.517-5.989-2.52-11.786-4.873-17.776-7.394a4.806,4.806,0,0,1-5.008,2.093,5.141,5.141,0,0,1-3.906-4.05,108.163,108.163,0,0,0-20.869,3.511c-14.379,3.9-25.274,16.28-31.058,30.01,3.573,1.036,6.908,2.022,10.481,3.057,1.542,13.056,3.156,25.74,4.7,38.8,17.285,2.5,34.976,4.782,50.679,12.428l19.632.178c3.283-13.5,6.7-26.856,9.98-40.356,3.857-2.06,8.124-4.057,11.981-6.118C139.554,253.248,135.413,248.376,132.207,242.85Z" transform="translate(-35.755 -216.982)" fill="#fff"/>
            <path id="Trazado_1218176" data-name="Trazado 1218176" d="M88.155,218.495c1.338,3.458,2.816,7.03,5.6,9.484a11.993,11.993,0,0,0,19.034-4.435" transform="translate(-44.322 -217.229)" fill="none" stroke="#060305" stroke-linecap="round" stroke-linejoin="round" stroke-miterlimit="10" stroke-width="1"/>
            <path id="Trazado_1218177" data-name="Trazado 1218177" d="M138.259,233.355a168.61,168.61,0,0,0,1.647,37" transform="translate(-52.455 -219.659)" fill="none" stroke="#060305" stroke-linecap="round" stroke-linejoin="round" stroke-miterlimit="10" stroke-width="1"/>
            <path id="Trazado_1218178" data-name="Trazado 1218178" d="M70.726,256.031l2.266-18.517a26.568,26.568,0,0,0,.279-5.927A8.94,8.94,0,0,0,71,226.214a5.435,5.435,0,0,0-5.427-1.534" transform="translate(-40.63 -218.204)" fill="none" stroke="#060305" stroke-linecap="round" stroke-linejoin="round" stroke-miterlimit="10" stroke-width="1"/>
            <path id="Trazado_1218179" data-name="Trazado 1218179" d="M38.44,252.592l28.05,4.191" transform="translate(-36.194 -222.804)" fill="none" stroke="#060305" stroke-linecap="round" stroke-linejoin="round" stroke-miterlimit="10" stroke-width="1"/>
          </g>
          <g id="Grupo_1228623" data-name="Grupo 1228623" transform="translate(47.562 59.946)">
            <path id="Trazado_1218180" data-name="Trazado 1218180" d="M132.751,265.343,117.811,310h-28.9a1.86,1.86,0,0,0-1.568,2.869,4.987,4.987,0,0,0,4.119,2.181H185a4.83,4.83,0,0,0,4.577-3.307L205.1,265.344a2.507,2.507,0,0,0-2.366-3.308h-65.4A4.831,4.831,0,0,0,132.751,265.343Z" transform="translate(-87.033 -262.036)" fill="#9e97ff"/>
            <path id="Trazado_1218181" data-name="Trazado 1218181" d="M183.673,294.022a3.2,3.2,0,1,0-3.2,3.212A3.2,3.2,0,0,0,183.673,294.022Z" transform="translate(-101.788 -266.741)" fill="#814eff"/>
            <line id="Línea_2234" data-name="Línea 2234" x1="16.492" y2="52.414" transform="translate(32.905 0.088)" fill="none" stroke="#060305" stroke-linecap="round" stroke-linejoin="round" stroke-miterlimit="10" stroke-width="1"/>
            <line id="Línea_2235" data-name="Línea 2235" x1="40.247" transform="translate(75.493 1.267)" fill="none" stroke="#fff" stroke-linecap="round" stroke-linejoin="round" stroke-miterlimit="10" stroke-width="1"/>
          </g>
          <g id="Grupo_1228624" data-name="Grupo 1228624" transform="translate(0 56.086)">
            <path id="Trazado_1218182" data-name="Trazado 1218182" d="M93.368,288.885a353.167,353.167,0,0,0-33.2-14.417q1.87-6.55,3.738-13.1l-26.165-3.946c-2.414,4.717-4.844,9.472-6.289,14.57s-1.855,10.625-.215,15.664c2.446,7.514,9.452,12.767,17.266,13.945a437.96,437.96,0,0,1,49.1,10.375,5.737,5.737,0,0,0,2.373.3,1.963,1.963,0,0,0,1.7-1.483l-2.694-2.737a3.983,3.983,0,0,0-1.4-1.051c1.229.426,2.627,1.031,3.855,1.457a27.942,27.942,0,0,0,3.753,4.131,2.143,2.143,0,0,0,2.449.167c-.889-2.434-1.689-4.725-2.578-7.16a48.6,48.6,0,0,0,6.05,3.718,2.1,2.1,0,0,0,2.417-.606C107.972,301.143,101.749,293.1,93.368,288.885Z" transform="translate(-30.174 -257.421)" fill="#ff9a7d"/>
            <path id="Trazado_1218183" data-name="Trazado 1218183" d="M65.363,277.55l-4.679-.03" transform="translate(-35.163 -260.707)" fill="none" stroke="#060305" stroke-linecap="round" stroke-linejoin="round" stroke-miterlimit="10" stroke-width="1"/>
            <path id="Trazado_1218184" data-name="Trazado 1218184" d="M112.669,308.634l6.557,6.334" transform="translate(-43.662 -265.794)" fill="none" stroke="#060305" stroke-linecap="round" stroke-linejoin="round" stroke-miterlimit="10" stroke-width="1"/>
            <path id="Trazado_1218185" data-name="Trazado 1218185" d="M107.782,314.644l4.314,3.047" transform="translate(-42.863 -266.777)" fill="none" stroke="#060305" stroke-linecap="round" stroke-linejoin="round" stroke-miterlimit="10" stroke-width="1"/>
            <path id="Trazado_1218186" data-name="Trazado 1218186" d="M104.341,319.053l5.926,3.432" transform="translate(-42.3 -267.498)" fill="none" stroke="#060305" stroke-linecap="round" stroke-linejoin="round" stroke-miterlimit="10" stroke-width="1"/>
          </g>
          <g id="Grupo_1228625" data-name="Grupo 1228625" transform="translate(81.705 117.395)">
            <path id="Trazado_1218187" data-name="Trazado 1218187" d="M148.561,335.924a138.55,138.55,0,0,1-16.771-5.211,66.888,66.888,0,0,0-3.589,29.828c9.978.961,21.538.815,28.988,7.522,1.553,1.4,3.315,2.729,5.359,2.3Z" transform="translate(-127.849 -330.713)" fill="#060305"/>
            <path id="Trazado_1218188" data-name="Trazado 1218188" d="M139.358,360.371v5.822" transform="translate(-129.73 -335.562)" fill="none" stroke="#fff" stroke-linecap="round" stroke-linejoin="round" stroke-miterlimit="10" stroke-width="1"/>
            <path id="Trazado_1218189" data-name="Trazado 1218189" d="M142.863,360.495q.132,3.121.262,6.24" transform="translate(-130.303 -335.582)" fill="none" stroke="#fff" stroke-linecap="round" stroke-linejoin="round" stroke-miterlimit="10" stroke-width="1"/>
            <path id="Trazado_1218190" data-name="Trazado 1218190" d="M147.048,360.371l-.105,6.134" transform="translate(-130.971 -335.562)" fill="none" stroke="#fff" stroke-linecap="round" stroke-linejoin="round" stroke-miterlimit="10" stroke-width="1"/>
          </g>
          <g id="Grupo_1228630" data-name="Grupo 1228630" transform="translate(51.924)">
            <g id="Grupo_1228626" data-name="Grupo 1228626" transform="translate(1.313)">
              <path id="Trazado_1218191" data-name="Trazado 1218191" d="M106.337,192.479a12.136,12.136,0,0,0,8.563-2.106" transform="translate(-95.863 -190.373)" fill="none" stroke="#814eff" stroke-linecap="round" stroke-linejoin="round" stroke-miterlimit="10" stroke-width="1"/>
              <path id="Trazado_1218192" data-name="Trazado 1218192" d="M97.907,193.628l.709,1.165" transform="translate(-94.485 -190.905)" fill="none" stroke="#814eff" stroke-linecap="round" stroke-linejoin="round" stroke-miterlimit="10" stroke-width="1"/>
              <path id="Trazado_1218193" data-name="Trazado 1218193" d="M115.866,196.822a2.395,2.395,0,0,0-.186-4.269,4.823,4.823,0,0,0-2.175-.256,56.427,56.427,0,0,1-8.139.153,10.4,10.4,0,0,0-11.182,13.138l16.529,3.63a29.172,29.172,0,0,1,2.064-8.307,6.728,6.728,0,0,0,2.416-.428,2.667,2.667,0,0,0,1.6-1.754A1.54,1.54,0,0,0,115.866,196.822Z" transform="translate(-93.816 -190.685)" fill="#814eff"/>
            </g>
            <g id="Grupo_1228629" data-name="Grupo 1228629" transform="translate(0 7.951)">
              <path id="Trazado_1218194" data-name="Trazado 1218194" d="M110.433,219.553c-1.122-.458-2.151-.831-3.272-1.289.161-.6.448-1.335.609-1.932a7.221,7.221,0,0,0,4.76-2.1,6.785,6.785,0,0,0,2-4.7c.03-2.345-.026-4.847-1.2-6.874a6.532,6.532,0,0,0-3.8-2.774,2.848,2.848,0,0,1-1.906,1.441,2.726,2.726,0,0,1-2.256-.6,2.358,2.358,0,0,1-4.218.463,4.511,4.511,0,0,1-1.628,3.813c-.339-.441-.637-.927-.976-1.369a3.949,3.949,0,1,0-1.451,7.647c-.459,1.432-1.036,2.742-1.5,4.175-1.092.151-2.253.207-3.345.36a11.875,11.875,0,0,0,3.973,6.919,10.254,10.254,0,0,0,7.859,2.093A9.136,9.136,0,0,0,110.433,219.553Z" transform="translate(-92.247 -199.878)" fill="#ff9a7d"/>
              <g id="Grupo_1228627" data-name="Grupo 1228627" transform="translate(11.289 3.365)">
                <circle id="Elipse_13374" data-name="Elipse 13374" cx="0.837" cy="0.837" r="0.837" transform="translate(0.071 4.017)" fill="#060305"/>
                <circle id="Elipse_13375" data-name="Elipse 13375" cx="0.837" cy="0.837" r="0.837" transform="translate(7.841 3.745)" fill="#060305"/>
                <path id="Trazado_1218195" data-name="Trazado 1218195" d="M111.976,208.721q.252,1.439.505,2.878c-.388-.111-.915-.056-1.3-.167" transform="translate(-106.632 -204.688)" fill="none" stroke="#060305" stroke-linecap="round" stroke-linejoin="round" stroke-miterlimit="10" stroke-width="1"/>
                <path id="Trazado_1218196" data-name="Trazado 1218196" d="M105.743,205.028a1.921,1.921,0,0,1,3.378-.226" transform="translate(-105.743 -203.9)" fill="none" stroke="#060305" stroke-linecap="round" stroke-linejoin="round" stroke-miterlimit="10" stroke-width="1"/>
                <path id="Trazado_1218197" data-name="Trazado 1218197" d="M115.65,204.222l1.558-.093" transform="translate(-107.363 -203.938)" fill="none" stroke="#060305" stroke-linecap="round" stroke-linejoin="round" stroke-miterlimit="10" stroke-width="1"/>
                <path id="Trazado_1218198" data-name="Trazado 1218198" d="M107.607,212.064a1.076,1.076,0,0,0,1.752.876" transform="translate(-106.048 -205.235)" fill="none" stroke="#060305" stroke-linecap="round" stroke-linejoin="round" stroke-miterlimit="10" stroke-width="1"/>
              </g>
              <g id="Grupo_1228628" data-name="Grupo 1228628" transform="translate(3.573 5.785)">
                <path id="Trazado_1218199" data-name="Trazado 1218199" d="M96.518,206.794l1.97,1.053" transform="translate(-96.518 -206.794)" fill="none" stroke="#060305" stroke-linecap="round" stroke-linejoin="round" stroke-miterlimit="10" stroke-width="1"/>
                <path id="Trazado_1218200" data-name="Trazado 1218200" d="M97.66,213.836h1.169" transform="translate(-96.705 -207.945)" fill="none" stroke="#060305" stroke-linecap="round" stroke-linejoin="round" stroke-miterlimit="10" stroke-width="1"/>
                <path id="Trazado_1218201" data-name="Trazado 1218201" d="M102.836,217.807a9.275,9.275,0,0,0,6.509,1.907" transform="translate(-97.551 -208.595)" fill="none" stroke="#060305" stroke-linecap="round" stroke-linejoin="round" stroke-miterlimit="10" stroke-width="1"/>
              </g>
            </g>
          </g>
          <g id="Grupo_1228631" data-name="Grupo 1228631" transform="translate(0.497 97.205)">
            <path id="Trazado_1218202" data-name="Trazado 1218202" d="M61.465,307.735c-7.66-2.541-17.7-.836-23.79,4.46s-8.708,14.522-5.578,21.961a22.165,22.165,0,0,0,8.787,9.854,43.615,43.615,0,0,0,12.384,5l60.2,11.975,4.936-34.807C99.621,319.95,80.251,313.967,61.465,307.735Z" transform="translate(-30.769 -306.577)" fill="#814eff"/>
            <line id="Línea_2236" data-name="Línea 2236" x1="11.677" y1="3.881" transform="translate(76.539 15.751)" fill="none" stroke="#060305" stroke-linecap="round" stroke-linejoin="round" stroke-miterlimit="10" stroke-width="1"/>
            <path id="Trazado_1218203" data-name="Trazado 1218203" d="M128.972,328.062l-7.488,35.392" transform="translate(-45.601 -310.089)" fill="none" stroke="#060305" stroke-linecap="round" stroke-linejoin="round" stroke-miterlimit="10" stroke-width="1"/>
            <path id="Trazado_1218204" data-name="Trazado 1218204" d="M35.795,324.938a13.68,13.68,0,0,1,4.43-7.662" transform="translate(-31.591 -308.326)" fill="none" stroke="#060305" stroke-linecap="round" stroke-linejoin="round" stroke-miterlimit="10" stroke-width="1"/>
          </g>
        </g>
        <g id="Grupo_1228662" data-name="Grupo 1228662" transform="translate(129.491 129.188)">
          <g id="Grupo_1228637" data-name="Grupo 1228637">
            <g id="Grupo_1228634" data-name="Grupo 1228634" transform="translate(141.158)">
              <rect id="Rectángulo_422517" data-name="Rectángulo 422517" width="2.651" height="19.463" transform="translate(3.963 7.61)" fill="#f6921e"/>
              <g id="Grupo_1228633" data-name="Grupo 1228633">
                <path id="Trazado_1218205" data-name="Trazado 1218205" d="M361.83,219.015l-5.288-9.157-5.288,9.157Z" transform="translate(-351.254 -209.858)" fill="#f6921e"/>
              </g>
            </g>
            <g id="Grupo_1228636" data-name="Grupo 1228636">
              <rect id="Rectángulo_422518" data-name="Rectángulo 422518" width="2.651" height="31.844" transform="translate(3.963)" fill="#f6921e"/>
              <g id="Grupo_1228635" data-name="Grupo 1228635" transform="translate(0 30.296)">
                <path id="Trazado_1218206" data-name="Trazado 1218206" d="M182.506,246.076l5.288,9.157,5.288-9.157Z" transform="translate(-182.506 -246.076)" fill="#f6921e"/>
              </g>
            </g>
          </g>
          <g id="Grupo_1228643" data-name="Grupo 1228643" transform="translate(87.961 126.921)">
            <g id="Grupo_1228640" data-name="Grupo 1228640">
              <rect id="Rectángulo_422519" data-name="Rectángulo 422519" width="149.844" height="26.582" fill="#9e97ff"/>
              <rect id="Rectángulo_422520" data-name="Rectángulo 422520" width="18.358" height="3.5" transform="translate(40.127 7.769)" fill="#ff99a8"/>
              <rect id="Rectángulo_422521" data-name="Rectángulo 422521" width="12.123" height="3.5" transform="translate(60.879 7.769)" fill="#fff"/>
              <rect id="Rectángulo_422522" data-name="Rectángulo 422522" width="11.081" height="3.5" transform="translate(40.127 15.311)" fill="#fff"/>
              <rect id="Rectángulo_422523" data-name="Rectángulo 422523" width="19.143" height="3.5" transform="translate(53.859 15.311)" fill="#fff"/>
              <circle id="Elipse_13376" data-name="Elipse 13376" cx="2.209" cy="2.209" r="2.209" transform="translate(87.722 7.187)" fill="#fff"/>
              <circle id="Elipse_13377" data-name="Elipse 13377" cx="2.209" cy="2.209" r="2.209" transform="translate(87.722 14.975)" fill="#fff"/>
              <path id="Trazado_1218207" data-name="Trazado 1218207" d="M387.3,372.387a2.209,2.209,0,1,0-2.209,2.209A2.209,2.209,0,0,0,387.3,372.387Z" transform="translate(-303.228 -362.991)" fill="#f6921e"/>
              <path id="Trazado_1218208" data-name="Trazado 1218208" d="M387.3,381.7a2.209,2.209,0,1,0-2.209,2.209A2.209,2.209,0,0,0,387.3,381.7Z" transform="translate(-303.228 -364.513)" fill="#fff"/>
              <g id="Grupo_1228639" data-name="Grupo 1228639" transform="translate(9.125 7.769)">
                <rect id="Rectángulo_422524" data-name="Rectángulo 422524" width="24.694" height="11.043" fill="none" stroke="#fff" stroke-linecap="round" stroke-linejoin="round" stroke-miterlimit="10" stroke-width="1"/>
                <g id="Grupo_1228638" data-name="Grupo 1228638" transform="translate(3.952 3.799)">
                  <line id="Línea_2237" data-name="Línea 2237" x2="16.219" fill="none" stroke="#fff" stroke-linecap="round" stroke-linejoin="round" stroke-miterlimit="10" stroke-width="1"/>
                  <line id="Línea_2238" data-name="Línea 2238" x1="16.219" transform="translate(0 3.443)" fill="none" stroke="#fff" stroke-linecap="round" stroke-linejoin="round" stroke-miterlimit="10" stroke-width="1"/>
                </g>
              </g>
            </g>
            <g id="Grupo_1228642" data-name="Grupo 1228642" transform="translate(102.108)">
              <rect id="Rectángulo_422525" data-name="Rectángulo 422525" width="47.737" height="26.582" fill="#814eff"/>
              <g id="Grupo_1228641" data-name="Grupo 1228641" transform="translate(7.431 7.769)">
                <rect id="Rectángulo_422526" data-name="Rectángulo 422526" width="12.123" height="3.5" fill="#060305"/>
                <rect id="Rectángulo_422527" data-name="Rectángulo 422527" width="12.123" height="3.5" transform="translate(20.752)" fill="#9e97ff"/>
                <rect id="Rectángulo_422528" data-name="Rectángulo 422528" width="12.123" height="3.5" transform="translate(0 7.542)" fill="#9e97ff"/>
                <rect id="Rectángulo_422529" data-name="Rectángulo 422529" width="12.123" height="3.5" transform="translate(20.752 7.542)" fill="#060305"/>
              </g>
            </g>
          </g>
          <g id="Grupo_1228649" data-name="Grupo 1228649" transform="translate(87.961 32.23)">
            <g id="Grupo_1228646" data-name="Grupo 1228646">
              <rect id="Rectángulo_422530" data-name="Rectángulo 422530" width="149.844" height="26.582" fill="#9e97ff"/>
              <rect id="Rectángulo_422531" data-name="Rectángulo 422531" width="18.358" height="3.5" transform="translate(40.127 7.769)" fill="#fff"/>
              <rect id="Rectángulo_422532" data-name="Rectángulo 422532" width="12.123" height="3.5" transform="translate(60.879 7.769)" fill="#fff"/>
              <rect id="Rectángulo_422533" data-name="Rectángulo 422533" width="11.081" height="3.5" transform="translate(40.127 15.312)" fill="#ff99a8"/>
              <rect id="Rectángulo_422534" data-name="Rectángulo 422534" width="19.143" height="3.5" transform="translate(53.859 15.312)" fill="#fff"/>
              <circle id="Elipse_13378" data-name="Elipse 13378" cx="2.209" cy="2.209" r="2.209" transform="translate(87.722 7.188)" fill="#fff"/>
              <circle id="Elipse_13379" data-name="Elipse 13379" cx="2.209" cy="2.209" r="2.209" transform="translate(87.722 14.975)" fill="#fff"/>
              <path id="Trazado_1218209" data-name="Trazado 1218209" d="M387.3,259.19a2.209,2.209,0,1,0-2.209,2.209A2.209,2.209,0,0,0,387.3,259.19Z" transform="translate(-303.228 -249.793)" fill="#fff"/>
              <path id="Trazado_1218210" data-name="Trazado 1218210" d="M387.3,268.5a2.209,2.209,0,1,0-2.209,2.209A2.209,2.209,0,0,0,387.3,268.5Z" transform="translate(-303.228 -251.315)" fill="#f6921e"/>
              <g id="Grupo_1228645" data-name="Grupo 1228645" transform="translate(9.125 7.769)">
                <rect id="Rectángulo_422535" data-name="Rectángulo 422535" width="24.694" height="11.043" fill="none" stroke="#fff" stroke-linecap="round" stroke-linejoin="round" stroke-miterlimit="10" stroke-width="1"/>
                <g id="Grupo_1228644" data-name="Grupo 1228644" transform="translate(3.952 3.8)">
                  <line id="Línea_2239" data-name="Línea 2239" x2="16.219" fill="none" stroke="#fff" stroke-linecap="round" stroke-linejoin="round" stroke-miterlimit="10" stroke-width="1"/>
                  <line id="Línea_2240" data-name="Línea 2240" x1="16.219" transform="translate(0 3.442)" fill="none" stroke="#fff" stroke-linecap="round" stroke-linejoin="round" stroke-miterlimit="10" stroke-width="1"/>
                </g>
              </g>
            </g>
            <g id="Grupo_1228648" data-name="Grupo 1228648" transform="translate(102.108)">
              <rect id="Rectángulo_422536" data-name="Rectángulo 422536" width="47.737" height="26.582" fill="#814eff"/>
              <g id="Grupo_1228647" data-name="Grupo 1228647" transform="translate(7.431 7.769)">
                <rect id="Rectángulo_422537" data-name="Rectángulo 422537" width="12.123" height="3.5" fill="#9e97ff"/>
                <rect id="Rectángulo_422538" data-name="Rectángulo 422538" width="12.123" height="3.5" transform="translate(20.752)" fill="#9e97ff"/>
                <rect id="Rectángulo_422539" data-name="Rectángulo 422539" width="12.123" height="3.5" transform="translate(0 7.543)" fill="#9e97ff"/>
                <rect id="Rectángulo_422540" data-name="Rectángulo 422540" width="12.123" height="3.5" transform="translate(20.752 7.543)" fill="#060305"/>
              </g>
            </g>
          </g>
          <g id="Grupo_1228655" data-name="Grupo 1228655" transform="translate(87.961 63.794)">
            <g id="Grupo_1228652" data-name="Grupo 1228652">
              <rect id="Rectángulo_422541" data-name="Rectángulo 422541" width="149.844" height="26.582" fill="#9e97ff"/>
              <rect id="Rectángulo_422542" data-name="Rectángulo 422542" width="18.358" height="3.5" transform="translate(40.127 7.769)" fill="#fff"/>
              <rect id="Rectángulo_422543" data-name="Rectángulo 422543" width="12.123" height="3.5" transform="translate(60.879 7.769)" fill="#fff"/>
              <rect id="Rectángulo_422544" data-name="Rectángulo 422544" width="11.081" height="3.5" transform="translate(40.127 15.311)" fill="#fff"/>
              <rect id="Rectángulo_422545" data-name="Rectángulo 422545" width="19.143" height="3.5" transform="translate(53.859 15.311)" fill="#ff99a8"/>
              <circle id="Elipse_13380" data-name="Elipse 13380" cx="2.209" cy="2.209" r="2.209" transform="translate(87.722 7.187)" fill="#f6921e"/>
              <circle id="Elipse_13381" data-name="Elipse 13381" cx="2.209" cy="2.209" r="2.209" transform="translate(87.722 14.974)" fill="#fff"/>
              <path id="Trazado_1218211" data-name="Trazado 1218211" d="M387.3,296.922a2.209,2.209,0,1,0-2.209,2.209A2.209,2.209,0,0,0,387.3,296.922Z" transform="translate(-303.228 -287.526)" fill="#fff"/>
              <path id="Trazado_1218212" data-name="Trazado 1218212" d="M387.3,306.231a2.209,2.209,0,1,0-2.209,2.209A2.209,2.209,0,0,0,387.3,306.231Z" transform="translate(-303.228 -289.048)" fill="#fff"/>
              <g id="Grupo_1228651" data-name="Grupo 1228651" transform="translate(9.125 7.769)">
                <rect id="Rectángulo_422546" data-name="Rectángulo 422546" width="24.694" height="11.043" fill="none" stroke="#fff" stroke-linecap="round" stroke-linejoin="round" stroke-miterlimit="10" stroke-width="1"/>
                <g id="Grupo_1228650" data-name="Grupo 1228650" transform="translate(3.952 3.8)">
                  <line id="Línea_2241" data-name="Línea 2241" x2="16.219" fill="none" stroke="#fff" stroke-linecap="round" stroke-linejoin="round" stroke-miterlimit="10" stroke-width="1"/>
                  <line id="Línea_2242" data-name="Línea 2242" x1="16.219" transform="translate(0 3.443)" fill="none" stroke="#fff" stroke-linecap="round" stroke-linejoin="round" stroke-miterlimit="10" stroke-width="1"/>
                </g>
              </g>
            </g>
            <g id="Grupo_1228654" data-name="Grupo 1228654" transform="translate(102.108)">
              <rect id="Rectángulo_422547" data-name="Rectángulo 422547" width="47.737" height="26.582" fill="#814eff"/>
              <g id="Grupo_1228653" data-name="Grupo 1228653" transform="translate(7.431 7.769)">
                <rect id="Rectángulo_422548" data-name="Rectángulo 422548" width="12.123" height="3.5" fill="#060305"/>
                <rect id="Rectángulo_422549" data-name="Rectángulo 422549" width="12.123" height="3.5" transform="translate(20.752)" fill="#9e97ff"/>
                <rect id="Rectángulo_422550" data-name="Rectángulo 422550" width="12.123" height="3.5" transform="translate(0 7.543)" fill="#9e97ff"/>
                <rect id="Rectángulo_422551" data-name="Rectángulo 422551" width="12.123" height="3.5" transform="translate(20.752 7.543)" fill="#9e97ff"/>
              </g>
            </g>
          </g>
          <g id="Grupo_1228661" data-name="Grupo 1228661" transform="translate(87.961 95.357)">
            <g id="Grupo_1228658" data-name="Grupo 1228658">
              <rect id="Rectángulo_422552" data-name="Rectángulo 422552" width="149.844" height="26.582" fill="#9e97ff"/>
              <rect id="Rectángulo_422553" data-name="Rectángulo 422553" width="18.358" height="3.5" transform="translate(40.127 7.769)" fill="#fff"/>
              <rect id="Rectángulo_422554" data-name="Rectángulo 422554" width="12.123" height="3.5" transform="translate(60.879 7.769)" fill="#fff"/>
              <rect id="Rectángulo_422555" data-name="Rectángulo 422555" width="11.081" height="3.5" transform="translate(40.127 15.312)" fill="#ff99a8"/>
              <rect id="Rectángulo_422556" data-name="Rectángulo 422556" width="19.143" height="3.5" transform="translate(53.859 15.312)" fill="#fff"/>
              <path id="Trazado_1218213" data-name="Trazado 1218213" d="M396.946,334.655a2.209,2.209,0,1,0-2.209,2.209A2.209,2.209,0,0,0,396.946,334.655Z" transform="translate(-304.805 -325.258)" fill="#fff"/>
              <path id="Trazado_1218214" data-name="Trazado 1218214" d="M396.946,343.964a2.209,2.209,0,1,0-2.209,2.209A2.209,2.209,0,0,0,396.946,343.964Z" transform="translate(-304.805 -326.78)" fill="#f6921e"/>
              <path id="Trazado_1218215" data-name="Trazado 1218215" d="M387.3,334.655a2.209,2.209,0,1,0-2.209,2.209A2.209,2.209,0,0,0,387.3,334.655Z" transform="translate(-303.228 -325.258)" fill="#fff"/>
              <path id="Trazado_1218216" data-name="Trazado 1218216" d="M387.3,343.964a2.209,2.209,0,1,0-2.209,2.209A2.209,2.209,0,0,0,387.3,343.964Z" transform="translate(-303.228 -326.78)" fill="#fff"/>
              <g id="Grupo_1228657" data-name="Grupo 1228657" transform="translate(9.125 7.769)">
                <rect id="Rectángulo_422557" data-name="Rectángulo 422557" width="24.694" height="11.043" fill="none" stroke="#fff" stroke-linecap="round" stroke-linejoin="round" stroke-miterlimit="10" stroke-width="1"/>
                <g id="Grupo_1228656" data-name="Grupo 1228656" transform="translate(3.952 3.8)">
                  <line id="Línea_2243" data-name="Línea 2243" x2="16.219" fill="none" stroke="#fff" stroke-linecap="round" stroke-linejoin="round" stroke-miterlimit="10" stroke-width="1"/>
                  <line id="Línea_2244" data-name="Línea 2244" x1="16.219" transform="translate(0 3.442)" fill="none" stroke="#fff" stroke-linecap="round" stroke-linejoin="round" stroke-miterlimit="10" stroke-width="1"/>
                </g>
              </g>
            </g>
            <g id="Grupo_1228660" data-name="Grupo 1228660" transform="translate(102.108)">
              <rect id="Rectángulo_422558" data-name="Rectángulo 422558" width="47.737" height="26.582" fill="#814eff"/>
              <g id="Grupo_1228659" data-name="Grupo 1228659" transform="translate(7.431 7.769)">
                <rect id="Rectángulo_422559" data-name="Rectángulo 422559" width="12.123" height="3.5" fill="#060305"/>
                <rect id="Rectángulo_422560" data-name="Rectángulo 422560" width="12.123" height="3.5" transform="translate(20.752)" fill="#9e97ff"/>
                <rect id="Rectángulo_422561" data-name="Rectángulo 422561" width="12.123" height="3.5" transform="translate(0 7.543)" fill="#9e97ff"/>
                <rect id="Rectángulo_422562" data-name="Rectángulo 422562" width="12.123" height="3.5" transform="translate(20.752 7.543)" fill="#9e97ff"/>
              </g>
            </g>
          </g>
        </g>
      </g>
    </g>
  </g>
</svg>
