<svg xmlns="http://www.w3.org/2000/svg" xmlns:xlink="http://www.w3.org/1999/xlink" width="113" height="113" viewBox="0 0 113 113">
  <defs>
    <filter id="Trazado_982547" x="0" y="0" width="113" height="113" filterUnits="userSpaceOnUse">
      <feOffset dy="3" input="SourceAlpha"/>
      <feGaussianBlur stdDeviation="3" result="blur"/>
      <feFlood flood-opacity="0.161"/>
      <feComposite operator="in" in2="blur"/>
      <feComposite in="SourceGraphic"/>
    </filter>
  </defs>
  <g id="Grupo_1228499" data-name="Grupo 1228499" transform="translate(-271.425 -1380.991)">
    <g id="Grupo_1228118" data-name="Grupo 1228118" transform="translate(0 -4252.189)">
      <g id="Grupo_1227502" data-name="Grupo 1227502" transform="translate(0 2048.198)">
        <g id="Grupo_1225350" data-name="Grupo 1225350" transform="translate(-0.575 -393.641)">
          <g id="Grupo_1208121" data-name="Grupo 1208121" transform="translate(0 -1922.377)">
            <g id="Grupo_1202432" data-name="Grupo 1202432" transform="translate(0 1255.486)">
              <g id="Grupo_1202055" data-name="Grupo 1202055" transform="translate(0 3240.511)">
                <g id="Grupo_1177900" data-name="Grupo 1177900" transform="translate(281 1411.003)">
                  <g id="Grupo_1172010" data-name="Grupo 1172010" transform="translate(0)">
                    <g id="Grupo_1171046" data-name="Grupo 1171046">
                      <g id="Grupo_1148525" data-name="Grupo 1148525">
                        <g transform="matrix(1, 0, 0, 1, -9, -6)" filter="url(#Trazado_982547)">
                          <g id="Trazado_982547-2" data-name="Trazado 982547" transform="translate(9 6)" fill="#e5fdfa">
                            <path d="M 47.5 93.5 C 41.28937149047852 93.5 35.26533508300781 92.28397369384766 29.59518623352051 89.88570404052734 C 24.11771965026855 87.56893157958984 19.19813346862793 84.25196075439453 14.97309303283691 80.02691650390625 C 10.74804019927979 75.80186462402344 7.431066513061523 70.88229370117188 5.114293098449707 65.40481567382812 C 2.716026782989502 59.73468017578125 1.5 53.71062850952148 1.5 47.5 C 1.5 41.28937149047852 2.716026782989502 35.26533508300781 5.114293098449707 29.59518623352051 C 7.431066513061523 24.11771965026855 10.74804019927979 19.19813346862793 14.97309303283691 14.97309303283691 C 19.19813346862793 10.74804019927979 24.11771965026855 7.431066513061523 29.59518623352051 5.114293098449707 C 35.26533508300781 2.716026782989502 41.28937149047852 1.5 47.5 1.5 C 53.71062850952148 1.5 59.73468017578125 2.716026782989502 65.40481567382812 5.114293098449707 C 70.88229370117188 7.431066513061523 75.80186462402344 10.74804019927979 80.02691650390625 14.97309303283691 C 84.25196075439453 19.19813346862793 87.56893157958984 24.11771965026855 89.88570404052734 29.59518623352051 C 92.28397369384766 35.26533508300781 93.5 41.28937149047852 93.5 47.5 C 93.5 53.71062850952148 92.28397369384766 59.73468017578125 89.88570404052734 65.40481567382812 C 87.56893157958984 70.88229370117188 84.25196075439453 75.80186462402344 80.02691650390625 80.02691650390625 C 75.80186462402344 84.25196075439453 70.88229370117188 87.56893157958984 65.40481567382812 89.88570404052734 C 59.73468017578125 92.28397369384766 53.71062850952148 93.5 47.5 93.5 Z" stroke="none"/>
                            <path d="M 47.5 3 C 41.49121475219727 3 35.66376876831055 4.176155090332031 30.17950439453125 6.495796203613281 C 24.88084411621094 8.736953735351562 20.12152099609375 11.94598388671875 16.03375244140625 16.03375244140625 C 11.94598388671875 20.12152099609375 8.736953735351562 24.88084411621094 6.495796203613281 30.17950439453125 C 4.176155090332031 35.66376876831055 3 41.49121475219727 3 47.5 C 3 53.50878524780273 4.176155090332031 59.33623123168945 6.495796203613281 64.82049560546875 C 8.736953735351562 70.11915588378906 11.94598388671875 74.87847900390625 16.03375244140625 78.96624755859375 C 20.12152099609375 83.05401611328125 24.88084411621094 86.26304626464844 30.17950439453125 88.50419616699219 C 35.66376876831055 90.82384490966797 41.49121475219727 92 47.5 92 C 53.50878524780273 92 59.33623123168945 90.82384490966797 64.82049560546875 88.50419616699219 C 70.11915588378906 86.26304626464844 74.87847900390625 83.05401611328125 78.96624755859375 78.96624755859375 C 83.05401611328125 74.87847900390625 86.26304626464844 70.11915588378906 88.50419616699219 64.82049560546875 C 90.82384490966797 59.33623123168945 92 53.50878524780273 92 47.5 C 92 41.49121475219727 90.82384490966797 35.66376876831055 88.50419616699219 30.17950439453125 C 86.26304626464844 24.88084411621094 83.05401611328125 20.12152099609375 78.96624755859375 16.03375244140625 C 74.87847900390625 11.94598388671875 70.11915588378906 8.736953735351562 64.82049560546875 6.495796203613281 C 59.33623123168945 4.176155090332031 53.50878524780273 3 47.5 3 M 47.5 0 C 73.7335205078125 0 95 21.2664794921875 95 47.5 C 95 73.7335205078125 73.7335205078125 95 47.5 95 C 21.2664794921875 95 0 73.7335205078125 0 47.5 C 0 21.2664794921875 21.2664794921875 0 47.5 0 Z" stroke="none" fill="#098576"/>
                          </g>
                        </g>
                      </g>
                    </g>
                  </g>
                </g>
              </g>
            </g>
          </g>
        </g>
      </g>
    </g>
    <g id="Layer_x0020_1" transform="translate(296.154 1410.782)">
      <path id="Trazado_1217780" data-name="Trazado 1217780" d="M55.653,47.138H4.347A4.352,4.352,0,0,1,0,42.791V4.625A4.352,4.352,0,0,1,4.347.278H55.653A4.352,4.352,0,0,1,60,4.625V18.459c.229,0,.474,0,.738,0,1,0,.876,1.344,1.011,2.612a8.106,8.106,0,0,1,1.077.447c2.427-1.959,1.681-2.013,4.76,1.065.7.7-.332,1.571-1.133,2.562a8.106,8.106,0,0,1,.447,1.077c3.1.331,2.613-.234,2.613,4.118,0,1-1.347.876-2.613,1.011a8.048,8.048,0,0,1-.447,1.077c1.958,2.426,2.016,1.682-1.065,4.76-.706.7-1.569-.33-2.562-1.132a8.061,8.061,0,0,1-1.077.446c-.135,1.266-.014,2.612-1.011,2.612-.249,0-.481,0-.7,0,.007.785-.039,1.948-.039,3.67a4.353,4.353,0,0,1-4.348,4.347ZM10.886,33.074h-5.8a.815.815,0,0,1-.815-.815V28.786a.815.815,0,0,1,.815-.815h5.8a.815.815,0,0,1,.815.815v3.473a.815.815,0,0,1-.815.815ZM5.9,31.444h4.17V29.6H5.9Zm23.561-8.493c-.486,0-.765-.441-.836-.946-1.617-.626-1.99-2.967-.655-2.967,1.2,0,.427,1.491,1.491,1.491a.678.678,0,0,0,.676-.676c0-1.276-2.983-.116-2.983-2.982a2.143,2.143,0,0,1,1.468-2.137c.068-.512.347-.962.839-.962s.771.451.839.963a2.143,2.143,0,0,1,1.466,2.136.815.815,0,0,1-1.629,0,.677.677,0,0,0-1.353,0c0,1.276,2.983.116,2.983,2.982A2.309,2.309,0,0,1,30.3,22c-.07.507-.349.95-.837.95ZM19.278,26.715c-1.058,0-2.418.247-2.418-.815s1.36-.815,2.418-.815a.815.815,0,0,1,0,1.629Zm-4.639,0H5.087a.815.815,0,0,1,0-1.629h9.552A.815.815,0,0,1,14.639,26.715Zm4.64-3.022H9.727a.815.815,0,0,1,0-1.629h9.552A.815.815,0,0,1,19.279,23.693Zm-12.587,0c-1.059,0-2.418.247-2.418-.815s1.36-.815,2.418-.815A.815.815,0,0,1,6.692,23.693Zm12.587-3.022c-1.059,0-2.418.247-2.418-.815s1.36-.815,2.418-.815A.815.815,0,0,1,19.278,20.671Zm-4.639,0H5.087a.815.815,0,0,1,0-1.629h9.552A.815.815,0,0,1,14.639,20.671Zm4.64-3.022H9.727a.815.815,0,0,1,0-1.629h9.552A.815.815,0,0,1,19.279,17.65Zm-12.587,0c-1.059,0-2.418.247-2.418-.815s1.36-.815,2.418-.815a.815.815,0,0,1,0,1.629ZM59.185,33.6a4.807,4.807,0,1,1,4.806-4.807A4.812,4.812,0,0,1,59.185,33.6Zm0-7.984c-4.182,0-4.181,6.354,0,6.354s4.18-6.354,0-6.354Zm-.105-5.521c-.254.018-.515,0-.715,0-.355,3.322-.063,1.659-2.493,3.106a.763.763,0,0,1-.225.091h0a.642.642,0,0,1-.064.011l-.031,0h0l-.031,0h-.066l-.031,0h0l-.031,0c-.532-.074-1.09-.687-1.774-1.239L52.454,23.22c2.093,2.592,1.132,1.215.433,3.959-.117.458-.539.608-1.1.679h0l-.043.005h0l-.089.01h0l-.044,0h0l-.092.008h0l-.048,0-.046,0h0l-.049,0-.047,0h0l-.047,0h0l-.048,0h0l-.048,0h0l-.049,0h0l-.049,0h0l-.049,0h0l-.05,0h0l-.05,0h0l-.05,0h0l-.05,0h0c-.087.007-.174.014-.262.024h0l-.051.005v1.642c3.317.354,1.661.059,3.106,2.493.407.685-.419,1.364-1.139,2.257l1.161,1.161c1.176-.949,1.535-1.27,1.833-1.272h.031l.029,0h0l.029,0h0l.029.007h0c.233.063.492.3,1.153.555h0l.087.033h0l.092.033h0l.1.033h0l.1.033h0l.107.033h0l.113.033h0l.119.033h0l.125.033h0l.034.009h0l.033.011h0l.032.012h0c.659.263.57,1.281.687,2.366h1.641c.353-3.311.058-1.663,2.493-3.106.686-.406,1.364.419,2.257,1.139l1.162-1.161c-2.093-2.594-1.132-1.215-.433-3.959.2-.772,1.261-.668,2.4-.79V27.968c-3.318-.354-1.661-.06-3.106-2.493-.407-.685.419-1.364,1.139-2.256l-1.162-1.161c-2.59,2.091-1.216,1.133-3.959.433-.772-.2-.668-1.261-.79-2.4H59.08Zm-.709,19.054a3.911,3.911,0,0,1-.984-.082.6.6,0,0,1-.479-.4,9.086,9.086,0,0,1-.272-2.017l0-.024L56.62,36.5,56.6,36.5l-.017-.006-.017-.006-.017-.006-.017-.006-.017-.006-.017-.006-.017-.006-.017-.006-.017-.006-.017-.006-.017-.006-.017-.006-.017-.006-.017-.006-.017-.006-.017-.006-.017-.006-.017-.006-.017-.007-.017-.007-.017-.007-.017-.007-.017-.007-.017-.007h0l-.017-.007-.017-.007h0l-.017-.007-.017-.007h0l-.017-.007h0l-.017-.007h0l-.017-.007h0l-.017-.007h0l-.017-.007h0l-.017-.007h0l-.017-.007-.017-.007h0l-.017-.007-.017-.007h0l-.017-.007h0l-.017-.007h0l-.017-.007h0l-.017-.007h0l-.017-.007h0l-.017-.007h0L55.84,36.2h0l-.016-.008h0l-.016-.008h0l-.016-.008h0l-.016-.008h0l-.016-.008h0l-.016-.008h0l-.016-.008h0l-.016-.008h0l-.033-.016h0c-.044-.021-.088-.042-.131-.064a9.343,9.343,0,0,1-1.762,1.336l-.047.015h0l-.046.011h0l-.046.008h0l-.046,0h-.047l-.046,0h0c-.263-.026-.533-.226-.942-.625h0c-.072-.07-.149-.147-.23-.23h0l-.083-.085h0l-.086-.089h0l-.09-.093h0l-.094-.1h0l-.1-.1h0l-.1-.106h0l-.107-.111h0l-.111-.115h0l-.362-.372h0l-.131-.133h0l-.136-.137h0l-.142-.142c-.705-.7.332-1.571,1.132-2.563l-.008-.016h0L51.9,32.4h0l-.008-.016h0l-.008-.016h0l-.008-.016h0c-.032-.065-.063-.131-.093-.2h0a8.156,8.156,0,0,1-.313-.8l-.143-.015h0l-.137-.014h0l-.132-.013h0l-.127-.012h0l-.122-.011h0l-.118-.01h0l-.113-.01h0l-.108-.009h0l-.1-.009h0l-.1-.009h0l-.1-.009h0l-.091-.009h0l-.087-.009h0l-.083-.01h0l-.079-.01h0l-.075-.011h0l-.071-.012h0l-.067-.013h0l-.064-.014h0l-.06-.015h0l-.057-.017h0l-.054-.018h0l-.05-.02h0l-.047-.021h0l-.044-.023c-.56-.316-.378-1.142-.378-3.794a.709.709,0,0,1,.385-.669l.034-.019h0l.036-.018h0l.037-.017h0l.038-.016h0l.039-.015h0l.04-.014h0l.042-.013h0l.043-.013h0l.044-.012h0l.045-.011h0l.046-.011h0l.047-.01h0l.047-.01h0l.048-.009h0l.049-.008h0l.05-.008h0l.051-.007h0l.051-.007h0l.052-.007h0l.053-.006h0l.053-.006h0l.054-.006h0l.055-.005h0l.055-.005h0l.056,0h0l.056,0h0l.056,0h0l.057,0h0l.057,0h0l.058,0h0l.058,0h0l.058,0h0l.059,0h0l.059,0h0l.059,0h0l.059,0h0l.059,0h0l.059,0h0l.059,0h0l.059-.005h0l.059-.006h0l.059-.006h0l.059-.006a8.082,8.082,0,0,1,.446-1.077c-1.346-1.667-1.794-1.837-.941-2.78h0q.058-.064.124-.134h0l.068-.071h0l.072-.074h0l.077-.077h0l.081-.08h0l.085-.083h0l.089-.087h0l.093-.09h0l.1-.094h0l.1-.1h0c.312-.3.684-.659,1.116-1.091a.8.8,0,0,1,.308-.2l.035-.011h0a.6.6,0,0,1,.071-.015h0a.678.678,0,0,1,.108-.008h.037l.036,0h0l.037,0h0l.037.006h0l.037.008h0l.037.01h0l.038.011h0l.038.013h0l.038.014h0l.038.016h0l.038.017h0l.039.019h0L54,20.3h0l.039.021h0l.039.022h0l.04.024h0l.04.025h0l.04.026h0l.04.027h0l.04.028h0l.041.029h0l.082.061.041.031h0l.042.032h0l.042.033h0l.042.034h0l.127.105h0l.129.11h0c.231.2.471.413.72.613a8.022,8.022,0,0,1,1.077-.447l.013-.119,0-.024h0a9.128,9.128,0,0,1,.272-2.015.6.6,0,0,1,.49-.4,4,4,0,0,1,.973-.079V12.861H1.629V42.792a2.721,2.721,0,0,0,2.718,2.717H55.653a2.72,2.72,0,0,0,2.718-2.717V39.146ZM34.485,23.894V19.408a.815.815,0,0,1,.815-.815H45.9a.815.815,0,0,1,.815.815V40.892h2.31a.815.815,0,0,1,0,1.629H10.974a.815.815,0,0,1,0-1.629h2.31V29.826a.815.815,0,0,1,.815-.815h9.787v-4.3a.815.815,0,0,1,.815-.815h9.786Zm1.629,17h8.971V20.222H36.115V40.891Zm-10.6,0h8.972V25.523H25.514V40.891Zm-10.6,0h8.972V30.641H14.913v10.25ZM52.652,9.239H34.377a.815.815,0,0,1-.815-.815V4.714a.815.815,0,0,1,.815-.815H52.652a.815.815,0,0,1,.815.815v3.71A.815.815,0,0,1,52.652,9.239ZM35.191,7.61H51.838V5.529H35.191ZM25.041,10.187c-4.76,0-4.761-7.234,0-7.234S29.8,10.187,25.041,10.187Zm0-5.605a1.988,1.988,0,0,0,0,3.975A1.988,1.988,0,0,0,25.041,4.582Zm-8.92,5.605c-4.761,0-4.761-7.234,0-7.234S20.881,10.187,16.121,10.187Zm0-5.605a1.988,1.988,0,0,0,0,3.975A1.988,1.988,0,0,0,16.121,4.582ZM7.2,10.187c-4.76,0-4.76-7.234,0-7.234S11.96,10.187,7.2,10.187Zm0-5.605a1.988,1.988,0,0,0,0,3.975A1.988,1.988,0,0,0,7.2,4.582Zm-5.57,6.649H58.371V4.626a2.72,2.72,0,0,0-2.718-2.718H4.347A2.721,2.721,0,0,0,1.629,4.625v6.606Z" transform="translate(0 0)" fill="#000002" fill-rule="evenodd"/>
      <path id="Trazado_1217781" data-name="Trazado 1217781" d="M2.091,4.359a1.988,1.988,0,0,0,0-3.975A1.988,1.988,0,0,0,2.091,4.359Z" transform="translate(5.109 4.198)" fill="#f6e266" fill-rule="evenodd"/>
      <path id="Trazado_1217782" data-name="Trazado 1217782" d="M2.31.384a1.988,1.988,0,0,0,0,3.975A1.988,1.988,0,0,0,2.31.384Z" transform="translate(13.811 4.198)" fill="#dd636e" fill-rule="evenodd"/>
      <path id="Trazado_1217783" data-name="Trazado 1217783" d="M2.529.384a1.988,1.988,0,0,0,0,3.975A1.988,1.988,0,0,0,2.529.384Z" transform="translate(22.512 4.198)" fill="#aad880" fill-rule="evenodd"/>
      <path id="Trazado_1217784" data-name="Trazado 1217784" d="M.864.407V2.488H17.51V.407Z" transform="translate(34.328 5.122)" fill="#f1f4f6" fill-rule="evenodd"/>
      <path id="Trazado_1217785" data-name="Trazado 1217785" d="M31.973,3.125a.815.815,0,0,1,.815-.815H51.063a.815.815,0,0,1,.815.815v3.71a.815.815,0,0,1-.815.815H32.788a.815.815,0,0,1-.815-.815ZM.04,9.642H56.782V3.036A2.72,2.72,0,0,0,54.064.319H2.758A2.721,2.721,0,0,0,.04,3.036V9.642ZM23.452,1.364c4.76,0,4.761,7.234,0,7.234S18.691,1.364,23.452,1.364Zm-8.92,0c4.76,0,4.761,7.234,0,7.234S9.771,1.364,14.532,1.364Zm-8.921,0c4.761,0,4.761,7.234,0,7.234S.85,1.364,5.611,1.364Z" transform="translate(1.589 1.59)" fill="#4073c8" fill-rule="evenodd"/>
      <path id="Trazado_1217786" data-name="Trazado 1217786" d="M56.782.587H.04V30.518a2.721,2.721,0,0,0,2.718,2.717H54.064a2.72,2.72,0,0,0,2.718-2.717V26.872a3.911,3.911,0,0,1-.984-.082.6.6,0,0,1-.479-.4,9.086,9.086,0,0,1-.272-2.017l0-.024-.013-.119-.017-.006L55,24.22l-.017-.006-.017-.006-.017-.006-.017-.006-.017-.006-.017-.006-.017-.006-.017-.006-.017-.006-.017-.006-.017-.006-.017-.006-.017-.006-.017-.006-.017-.006-.017-.006-.017-.006-.017-.007-.017-.007-.017-.007-.017-.007-.017-.007-.017-.007-.017-.007-.017-.007-.017-.007-.017-.007-.017-.007-.017-.007-.017-.007-.017-.007-.017-.007-.017-.007L54.418,24l-.017-.007-.017-.007-.017-.007-.017-.007-.017-.007-.017-.007-.017-.007-.017-.007-.017-.007-.017-.008-.017-.008-.017-.008L54.2,23.9l-.017-.008-.017-.008-.017-.008-.017-.008-.017-.008-.033-.016-.131-.064a9.343,9.343,0,0,1-1.762,1.336l-.048.015-.047.012-.047.008-.047,0h-.046l-.046,0c-.263-.026-.533-.226-.942-.625l-.23-.23-.083-.085-.087-.089-.09-.093-.094-.1-.1-.1-.1-.106-.107-.111-.111-.115-.362-.372L49.472,23l-.136-.137-.142-.142c-.705-.7.332-1.571,1.132-2.563l-.008-.016-.008-.016-.008-.016-.008-.016-.008-.016-.093-.2a8.157,8.157,0,0,1-.313-.8l-.143-.015-.138-.014-.133-.013-.128-.012-.123-.011-.118-.01L48.986,19l-.109-.009-.1-.009-.1-.009-.1-.009-.091-.009-.087-.009-.083-.01-.079-.01-.075-.011-.071-.012-.068-.013-.064-.014-.061-.015-.057-.017-.054-.018-.051-.02-.047-.021-.044-.023c-.56-.316-.378-1.142-.378-3.794a.709.709,0,0,1,.385-.669l.035-.019.036-.018.037-.017.038-.016.04-.015.041-.014.042-.013.043-.013.044-.012.045-.011.046-.011.047-.01.048-.01.049-.009.049-.009.05-.008.051-.007.052-.007.052-.007.053-.006.054-.006.054-.006.055-.005.055-.005.056,0,.056,0,.057,0,.057,0,.058,0,.058,0,.058,0,.059,0,.059,0,.059,0,.059,0,.059,0,.059,0,.06,0,.06,0,.06-.005.06-.006.06-.006.059-.006a8.082,8.082,0,0,1,.446-1.077c-1.346-1.667-1.794-1.837-.941-2.78l.124-.134.068-.071.072-.074.077-.077.081-.08.085-.083.089-.087.094-.09.1-.094.1-.1c.312-.3.684-.659,1.116-1.091a.8.8,0,0,1,.308-.2l.035-.011.071-.015a.678.678,0,0,1,.108-.008h.037l.037,0,.037,0,.037.006L52.1,7.9l.038.01.038.011.038.013.038.014.038.016.039.017.039.019.039.02.039.021.04.022.04.024.04.025.04.026.041.027.041.028.041.029.082.061.042.032.042.032.042.033.042.034.127.105.129.11c.231.2.471.413.72.613A8.022,8.022,0,0,1,55.031,8.8l.013-.119,0-.024a9.128,9.128,0,0,1,.272-2.015.6.6,0,0,1,.49-.4,4,4,0,0,1,.973-.079V.587ZM15.271,13.627c0-1.061,1.36-.815,2.418-.815a.815.815,0,0,1,0,1.629c-1.058,0-2.418.247-2.418-.815Zm-5.159,2.885v3.473A.815.815,0,0,1,9.3,20.8H3.5a.815.815,0,0,1-.815-.815V16.512A.815.815,0,0,1,3.5,15.7H9.3A.815.815,0,0,1,10.112,16.512Zm17.762-5.835c-.486,0-.765-.441-.836-.946-1.617-.626-1.99-2.967-.655-2.967,1.2,0,.427,1.491,1.491,1.491a.678.678,0,0,0,.676-.676c0-1.276-2.983-.116-2.983-2.982A2.143,2.143,0,0,1,27.035,2.46c.068-.512.347-.962.839-.962s.771.451.839.963A2.143,2.143,0,0,1,30.179,4.6a.815.815,0,0,1-1.629,0,.677.677,0,0,0-1.353,0c0,1.276,2.983.116,2.983,2.982a2.309,2.309,0,0,1-1.469,2.148c-.07.507-.349.95-.837.95ZM17.69,9.79a.815.815,0,0,1,0,1.629H8.138a.815.815,0,0,1,0-1.629ZM3.5,12.813H13.05a.815.815,0,0,1,0,1.629H3.5A.815.815,0,0,1,3.5,12.813ZM5.1,9.79a.815.815,0,0,1,0,1.629c-1.059,0-2.418.247-2.418-.815S4.044,9.79,5.1,9.79ZM17.689,8.4c-1.059,0-2.418.247-2.418-.815s1.36-.815,2.418-.815A.815.815,0,0,1,17.689,8.4ZM13.05,6.769a.815.815,0,0,1,0,1.629H3.5a.815.815,0,0,1,0-1.629Zm4.64-1.392H8.138a.815.815,0,0,1,0-1.629H17.69A.815.815,0,0,1,17.69,5.376ZM5.1,5.376c-1.059,0-2.418.247-2.418-.815s1.36-.815,2.418-.815a.815.815,0,0,1,0,1.629ZM32.9,11.62V7.134a.815.815,0,0,1,.815-.815h10.6a.815.815,0,0,1,.815.815V28.619h2.31a.815.815,0,0,1,0,1.629H9.385a.815.815,0,0,1,0-1.629h2.31V17.552a.815.815,0,0,1,.815-.815H22.3v-4.3a.815.815,0,0,1,.815-.815H32.9Z" transform="translate(1.589 12.274)" fill="#e2e7ff" fill-rule="evenodd"/>
      <path id="Trazado_1217787" data-name="Trazado 1217787" d="M9.338,1.024H.366v10.25H9.338Z" transform="translate(14.547 29.617)" fill="#fb6470" fill-rule="evenodd"/>
      <path id="Trazado_1217788" data-name="Trazado 1217788" d="M.626,5.2V16.266H9.6V.9H.626Z" transform="translate(24.888 24.625)" fill="#00c27a" fill-rule="evenodd"/>
      <path id="Trazado_1217789" data-name="Trazado 1217789" d="M.887,5.254V21.437H9.858V.768H.887Z" transform="translate(35.228 19.455)" fill="#7cc9fe" fill-rule="evenodd"/>
      <g id="Grupo_1228498" data-name="Grupo 1228498" transform="translate(5.902 20.091)">
        <path id="Trazado_1217790" data-name="Trazado 1217790" d="M9.938,4.656A4.807,4.807,0,1,1,5.131,9.463,4.811,4.811,0,0,1,9.938,4.656ZM9.117.765c-.355,3.322-.063,1.659-2.493,3.106a.761.761,0,0,1-.226.091l-.064.011-.032,0-.032,0H6.2l-.032,0-.031,0c-.532-.074-1.09-.687-1.774-1.239L3.206,3.893C5.3,6.486,4.338,5.108,3.64,7.853c-.117.458-.539.608-1.1.679h0l-.043.005h0l-.089.01h0l-.044,0h0l-.092.008h0l-.048,0-.046,0h0l-.049,0-.047,0h0l-.047,0h0l-.048,0h0l-.048,0h0l-.049,0h0l-.049,0h0l-.049,0h0l-.05,0h0l-.05,0h0l-.05,0h0l-.05,0h0l-.262.024h0l-.051.005v1.642c3.317.354,1.661.059,3.106,2.493.407.685-.419,1.364-1.139,2.257l1.161,1.161c1.176-.949,1.536-1.27,1.833-1.272H6.23l.03,0,.03.005.03.007c.233.063.492.3,1.154.555l.089.033.093.034.1.034.1.034.109.034.114.033.12.033.126.033.036.01.034.011.033.012c.659.263.57,1.281.687,2.366h1.641c.353-3.311.058-1.663,2.492-3.106.686-.406,1.364.419,2.257,1.139l1.162-1.161c-2.093-2.594-1.132-1.215-.433-3.959.2-.772,1.261-.668,2.4-.79V8.642c-3.318-.354-1.661-.06-3.106-2.493-.407-.685.419-1.364,1.139-2.256L15.507,2.731c-2.59,2.091-1.216,1.133-3.959.433-.772-.2-.668-1.261-.79-2.4H9.832c-.254.018-.515,0-.715,0Z" transform="translate(43.346 -0.765)" fill="#5983ac" fill-rule="evenodd"/>
        <path id="Trazado_1217791" data-name="Trazado 1217791" d="M4.315,2.842V1H.145V2.842Z" transform="translate(-0.145 8.511)" fill="#5983ac" fill-rule="evenodd"/>
      </g>
    </g>
  </g>
</svg>
