<svg xmlns="http://www.w3.org/2000/svg" xmlns:xlink="http://www.w3.org/1999/xlink" width="113" height="113" viewBox="0 0 113 113">
  <defs>
    <filter id="Trazado_982547" x="0" y="0" width="113" height="113" filterUnits="userSpaceOnUse">
      <feOffset dy="3" input="SourceAlpha"/>
      <feGaussianBlur stdDeviation="3" result="blur"/>
      <feFlood flood-opacity="0.161"/>
      <feComposite operator="in" in2="blur"/>
      <feComposite in="SourceGraphic"/>
    </filter>
  </defs>
  <g id="Grupo_1228500" data-name="Grupo 1228500" transform="translate(-585 -1381.01)">
    <g id="Grupo_1228119" data-name="Grupo 1228119" transform="translate(0 -4252.189)">
      <g id="Grupo_1227503" data-name="Grupo 1227503" transform="translate(0 2048.198)">
        <g id="Grupo_1225351" data-name="Grupo 1225351" transform="translate(-1 -393.91)">
          <g id="Grupo_1208122" data-name="Grupo 1208122" transform="translate(0 -1922.377)">
            <g id="Grupo_1202433" data-name="Grupo 1202433" transform="translate(-0.56 1255.773)">
              <g id="Grupo_1202054" data-name="Grupo 1202054" transform="translate(0 3240.511)">
                <g id="Grupo_1177897" data-name="Grupo 1177897" transform="translate(595.561 1411.003)">
                  <g id="Grupo_1172010" data-name="Grupo 1172010" transform="translate(0)">
                    <g id="Grupo_1171046" data-name="Grupo 1171046">
                      <g id="Grupo_1148525" data-name="Grupo 1148525">
                        <g transform="matrix(1, 0, 0, 1, -9, -6)" filter="url(#Trazado_982547)">
                          <g id="Trazado_982547-2" data-name="Trazado 982547" transform="translate(9 6)" fill="#e5fdfa">
                            <path d="M 47.5 93.5 C 41.28937149047852 93.5 35.26533508300781 92.28397369384766 29.59518623352051 89.88570404052734 C 24.11771965026855 87.56893157958984 19.19813346862793 84.25196075439453 14.97309303283691 80.02691650390625 C 10.74804019927979 75.80186462402344 7.431066513061523 70.88229370117188 5.114293098449707 65.40481567382812 C 2.716026782989502 59.73468017578125 1.5 53.71062850952148 1.5 47.5 C 1.5 41.28937149047852 2.716026782989502 35.26533508300781 5.114293098449707 29.59518623352051 C 7.431066513061523 24.11771965026855 10.74804019927979 19.19813346862793 14.97309303283691 14.97309303283691 C 19.19813346862793 10.74804019927979 24.11771965026855 7.431066513061523 29.59518623352051 5.114293098449707 C 35.26533508300781 2.716026782989502 41.28937149047852 1.5 47.5 1.5 C 53.71062850952148 1.5 59.73468017578125 2.716026782989502 65.40481567382812 5.114293098449707 C 70.88229370117188 7.431066513061523 75.80186462402344 10.74804019927979 80.02691650390625 14.97309303283691 C 84.25196075439453 19.19813346862793 87.56893157958984 24.11771965026855 89.88570404052734 29.59518623352051 C 92.28397369384766 35.26533508300781 93.5 41.28937149047852 93.5 47.5 C 93.5 53.71062850952148 92.28397369384766 59.73468017578125 89.88570404052734 65.40481567382812 C 87.56893157958984 70.88229370117188 84.25196075439453 75.80186462402344 80.02691650390625 80.02691650390625 C 75.80186462402344 84.25196075439453 70.88229370117188 87.56893157958984 65.40481567382812 89.88570404052734 C 59.73468017578125 92.28397369384766 53.71062850952148 93.5 47.5 93.5 Z" stroke="none"/>
                            <path d="M 47.5 3 C 41.49121475219727 3 35.66376876831055 4.176155090332031 30.17950439453125 6.495796203613281 C 24.88084411621094 8.736953735351562 20.12152099609375 11.94598388671875 16.03375244140625 16.03375244140625 C 11.94598388671875 20.12152099609375 8.736953735351562 24.88084411621094 6.495796203613281 30.17950439453125 C 4.176155090332031 35.66376876831055 3 41.49121475219727 3 47.5 C 3 53.50878524780273 4.176155090332031 59.33623123168945 6.495796203613281 64.82049560546875 C 8.736953735351562 70.11915588378906 11.94598388671875 74.87847900390625 16.03375244140625 78.96624755859375 C 20.12152099609375 83.05401611328125 24.88084411621094 86.26304626464844 30.17950439453125 88.50419616699219 C 35.66376876831055 90.82384490966797 41.49121475219727 92 47.5 92 C 53.50878524780273 92 59.33623123168945 90.82384490966797 64.82049560546875 88.50419616699219 C 70.11915588378906 86.26304626464844 74.87847900390625 83.05401611328125 78.96624755859375 78.96624755859375 C 83.05401611328125 74.87847900390625 86.26304626464844 70.11915588378906 88.50419616699219 64.82049560546875 C 90.82384490966797 59.33623123168945 92 53.50878524780273 92 47.5 C 92 41.49121475219727 90.82384490966797 35.66376876831055 88.50419616699219 30.17950439453125 C 86.26304626464844 24.88084411621094 83.05401611328125 20.12152099609375 78.96624755859375 16.03375244140625 C 74.87847900390625 11.94598388671875 70.11915588378906 8.736953735351562 64.82049560546875 6.495796203613281 C 59.33623123168945 4.176155090332031 53.50878524780273 3 47.5 3 M 47.5 0 C 73.7335205078125 0 95 21.2664794921875 95 47.5 C 95 73.7335205078125 73.7335205078125 95 47.5 95 C 21.2664794921875 95 0 73.7335205078125 0 47.5 C 0 21.2664794921875 21.2664794921875 0 47.5 0 Z" stroke="none" fill="#098576"/>
                          </g>
                        </g>
                      </g>
                    </g>
                  </g>
                </g>
              </g>
            </g>
          </g>
        </g>
      </g>
    </g>
    <g id="software" transform="translate(611.025 1402)">
      <path id="Trazado_1217792" data-name="Trazado 1217792" d="M65.607,130.125H9.382A1.882,1.882,0,0,1,7.5,128.243V93.382A1.882,1.882,0,0,1,9.382,91.5H65.607a1.882,1.882,0,0,1,1.882,1.882v34.861A1.882,1.882,0,0,1,65.607,130.125Z" transform="translate(-6.595 -80.456)" fill="#685c79"/>
      <path id="Trazado_1217793" data-name="Trazado 1217793" d="M462.53,91.5h-3.621a1.882,1.882,0,0,1,1.882,1.882v34.861a1.882,1.882,0,0,1-1.882,1.882h3.621a1.882,1.882,0,0,0,1.882-1.882V93.382A1.882,1.882,0,0,0,462.53,91.5Z" transform="translate(-403.518 -80.456)" fill="#594f69"/>
      <rect id="Rectángulo_422498" data-name="Rectángulo 422498" width="31.382" height="52.747" transform="translate(57.273 14.665) rotate(90)" fill="#ade7ff"/>
      <path id="Trazado_1217794" data-name="Trazado 1217794" d="M144.952,478.121H113.811A1.811,1.811,0,0,1,112,476.31h0a1.811,1.811,0,0,1,1.811-1.81h31.141a1.811,1.811,0,0,1,1.811,1.81h0A1.811,1.811,0,0,1,144.952,478.121Z" transform="translate(-98.481 -417.227)" fill="#685c79"/>
      <path id="Trazado_1217795" data-name="Trazado 1217795" d="M358.51,474.5h-3.636a1.811,1.811,0,1,1,0,3.621h3.636a1.811,1.811,0,1,0,0-3.621Z" transform="translate(-312.04 -417.227)" fill="#594f69"/>
      <path id="Trazado_1217796" data-name="Trazado 1217796" d="M184.163,419.1H161.3a9.55,9.55,0,0,0,3.9-7.6h15.064A9.55,9.55,0,0,0,184.163,419.1Z" transform="translate(-141.833 -361.831)" fill="#ade7ff"/>
      <path id="Trazado_1217797" data-name="Trazado 1217797" d="M293.489,411.5h-3.42a9.55,9.55,0,0,0,3.9,7.6h3.42A9.55,9.55,0,0,1,293.489,411.5Z" transform="translate(-255.057 -361.831)" fill="#82d2f5"/>
      <path id="Trazado_1217798" data-name="Trazado 1217798" d="M182.416,150.594v14.763l-11.708,5.594L159,165.357V150.594L170.708,145Z" transform="translate(-139.808 -127.498)" fill="#ff2c5c"/>
      <path id="Trazado_1217799" data-name="Trazado 1217799" d="M243.228,150.594l-3.621,1.73-11.447-5.718L231.52,145Z" transform="translate(-200.621 -127.498)" fill="#e62753"/>
      <path id="Trazado_1217800" data-name="Trazado 1217800" d="M170.708,196.937V211.7L159,206.107V191.343Z" transform="translate(-139.808 -168.248)" fill="#4fb1f5"/>
      <path id="Trazado_1217801" data-name="Trazado 1217801" d="M256,196.937V211.7l11.708-5.594V191.343Z" transform="translate(-225.1 -168.248)" fill="#ffd659"/>
      <path id="Trazado_1217802" data-name="Trazado 1217802" d="M326.621,191.343,323,193.073l.055,14.737,3.566-1.7Z" transform="translate(-284.013 -168.248)" fill="#ffbd54"/>
      <circle id="Elipse_13364" data-name="Elipse 13364" cx="1.811" cy="1.811" r="1.811" transform="translate(45.429 0.905)" fill="#ff2c5c"/>
      <circle id="Elipse_13365" data-name="Elipse 13365" cx="1.811" cy="1.811" r="1.811" transform="translate(29.089 0.905)" fill="#ff2c5c"/>
      <circle id="Elipse_13366" data-name="Elipse 13366" cx="1.811" cy="1.811" r="1.811" transform="translate(12.749 0.905)" fill="#ff2c5c"/>
      <path id="Trazado_1217803" data-name="Trazado 1217803" d="M59.012,10.139H46.349a.905.905,0,1,0,0,1.811H59.012a.978.978,0,0,1,.977.977V47.787a.978.978,0,0,1-.977.977H2.787a.978.978,0,0,1-.977-.977V12.926a.978.978,0,0,1,.977-.977h19.89V13.76H4.526a.905.905,0,0,0-.905.905V38.584a.905.905,0,0,0,1.811,0V15.571H22.677v4.856L18.8,22.278a.911.911,0,0,0-.515.817V37.859a.906.906,0,0,0,.515.817l11.708,5.594a.916.916,0,0,0,.781,0l6.582-3.145a.905.905,0,1,0-.781-1.634L31.8,42.017V29.26l9.9-4.729V37.288l-1.345.642a.905.905,0,1,0,.781,1.634L43,38.676a.906.906,0,0,0,.515-.817V23.1A.91.91,0,0,0,43,22.278l-3.875-1.852V15.571H56.368V45.142H5.432v-2.7a.905.905,0,1,0-1.811,0v3.6a.905.905,0,0,0,.905.905H57.273a.905.905,0,0,0,.905-.905V14.665a.905.905,0,0,0-.905-.905H39.122V11.949h3.365a.905.905,0,0,0,0-1.811H39.122V8.328H47.24a.905.905,0,0,0,.905-.905V5.276a2.716,2.716,0,1,0-1.811,0V6.518H38.217a.905.905,0,0,0-.905.905v2.716H31.8V5.276a2.716,2.716,0,1,0-1.811,0v4.863H24.487V7.423a.905.905,0,0,0-.905-.905H15.465V5.276a2.716,2.716,0,1,0-1.811,0V7.423a.905.905,0,0,0,.905.905h8.117v1.811H2.787A2.79,2.79,0,0,0,0,12.926V47.787a2.79,2.79,0,0,0,2.787,2.787H22.414a8.628,8.628,0,0,1-3.238,5.794H15.329a2.716,2.716,0,0,0,0,5.432H46.47a2.716,2.716,0,1,0,0-5.432H42.626a8.715,8.715,0,0,1-3.24-5.794H59.012A2.79,2.79,0,0,0,61.8,47.787V12.926A2.79,2.79,0,0,0,59.012,10.139ZM47.24,1.811a.905.905,0,1,1-.905.905A.906.906,0,0,1,47.24,1.811Zm-16.34,0a.905.905,0,1,1-.905.905A.906.906,0,0,1,30.9,1.811Zm-16.34,0a.905.905,0,1,1-.905.905A.906.906,0,0,1,14.56,1.811Zm9.928,13.76h5.507v1.36l-5.507,2.631ZM40.508,23.1,30.9,27.686,21.292,23.1l9.608-4.59ZM20.1,24.531l9.9,4.729V42.017l-9.9-4.729Zm17.215-4.969L31.8,16.931v-1.36h5.507Zm0-7.613V13.76H31.8V11.949Zm-7.318,0V13.76H24.487V11.949ZM47.375,59.083a.906.906,0,0,1-.905.905H15.329a.905.905,0,1,1,0-1.811H46.47A.906.906,0,0,1,47.375,59.083Zm-7.346-2.716H21.77a10.209,10.209,0,0,0,2.464-5.794H37.565A10.21,10.21,0,0,0,40.029,56.368Z"/>
    </g>
  </g>
</svg>
