<svg xmlns="http://www.w3.org/2000/svg" xmlns:xlink="http://www.w3.org/1999/xlink" width="103" height="103" viewBox="0 0 103 103">
  <defs>
    <filter id="Trazado_978624" x="0" y="0" width="103" height="103" filterUnits="userSpaceOnUse">
      <feOffset dy="3" input="SourceAlpha"/>
      <feGaussianBlur stdDeviation="3" result="blur"/>
      <feFlood flood-opacity="0.161"/>
      <feComposite operator="in" in2="blur"/>
      <feComposite in="SourceGraphic"/>
    </filter>
  </defs>
  <g id="Grupo_1228542" data-name="Grupo 1228542" transform="translate(-171 -2370.192)">
    <g id="Grupo_1228122" data-name="Grupo 1228122" transform="translate(-0.869 587.864)">
      <g id="Grupo_1227500" data-name="Grupo 1227500" transform="translate(0.869 640.328)">
        <g id="Grupo_1225355" data-name="Grupo 1225355" transform="translate(180 1148)">
          <g id="Grupo_1176881" data-name="Grupo 1176881">
            <g id="Grupo_1175148" data-name="Grupo 1175148">
              <g id="Grupo_1173798" data-name="Grupo 1173798">
                <g id="Grupo_1171925" data-name="Grupo 1171925">
                  <g id="Grupo_1164524" data-name="Grupo 1164524">
                    <g id="Grupo_1144123" data-name="Grupo 1144123">
                      <g transform="matrix(1, 0, 0, 1, -9, -6)" filter="url(#Trazado_978624)">
                        <g id="Trazado_978624-2" data-name="Trazado 978624" transform="translate(9 6)" fill="#e5ebfb">
                          <path d="M 42.5 83.5 C 36.96437835693359 83.5 31.59512901306152 82.41617584228516 26.54141235351562 80.27863311767578 C 21.65934181213379 78.21369171142578 17.27447128295898 75.25723266601562 13.50862312316895 71.49137878417969 C 9.742764472961426 67.72553253173828 6.786305904388428 63.34066009521484 4.721364498138428 58.45858764648438 C 2.583823442459106 53.40486907958984 1.5 48.03562164306641 1.5 42.5 C 1.5 36.96437835693359 2.583823442459106 31.59512901306152 4.721364498138428 26.54141235351562 C 6.786305904388428 21.65934181213379 9.742764472961426 17.27447128295898 13.50862312316895 13.50862312316895 C 17.27447128295898 9.742764472961426 21.65934181213379 6.786305904388428 26.54141235351562 4.721364498138428 C 31.59512901306152 2.583823442459106 36.96437835693359 1.5 42.5 1.5 C 48.03562164306641 1.5 53.40486907958984 2.583823442459106 58.45858764648438 4.721364498138428 C 63.34066009521484 6.786305904388428 67.72553253173828 9.742764472961426 71.49137878417969 13.50862312316895 C 75.25723266601562 17.27447128295898 78.21369171142578 21.65934181213379 80.27863311767578 26.54141235351562 C 82.41617584228516 31.59512901306152 83.5 36.96437835693359 83.5 42.5 C 83.5 48.03562164306641 82.41617584228516 53.40486907958984 80.27863311767578 58.45858764648438 C 78.21369171142578 63.34066009521484 75.25723266601562 67.72553253173828 71.49137878417969 71.49137878417969 C 67.72553253173828 75.25723266601562 63.34066009521484 78.21369171142578 58.45858764648438 80.27863311767578 C 53.40486907958984 82.41617584228516 48.03562164306641 83.5 42.5 83.5 Z" stroke="none"/>
                          <path d="M 42.5 3 C 37.16621398925781 3 31.99356079101562 4.043960571289062 27.125732421875 6.102882385253906 C 22.42246627807617 8.092185974121094 18.19785308837891 10.94070434570312 14.56928253173828 14.56928253173828 C 10.94070434570312 18.19785308837891 8.092185974121094 22.42246627807617 6.102882385253906 27.125732421875 C 4.043960571289062 31.99356079101562 3 37.16621398925781 3 42.5 C 3 47.83378601074219 4.043960571289062 53.00643920898438 6.102882385253906 57.87425231933594 C 8.092185974121094 62.57753372192383 10.94070434570312 66.80213165283203 14.56928253173828 70.43071746826172 C 18.19786834716797 74.05929565429688 22.42246627807617 76.90781402587891 27.125732421875 78.89711761474609 C 31.99356079101562 80.95603942871094 37.16621398925781 82 42.5 82 C 47.83378601074219 82 53.00642395019531 80.95603942871094 57.87425231933594 78.89711761474609 C 62.57753372192383 76.90781402587891 66.80213165283203 74.05929565429688 70.43071746826172 70.43071746826172 C 74.05929565429688 66.80213165283203 76.90781402587891 62.57753372192383 78.89711761474609 57.87425231933594 C 80.95603942871094 53.00642395019531 82 47.83378601074219 82 42.5 C 82 37.16621398925781 80.95603942871094 31.99356079101562 78.89711761474609 27.125732421875 C 76.90781402587891 22.42246627807617 74.05929565429688 18.19786834716797 70.43071746826172 14.56928253173828 C 66.80213165283203 10.94070434570312 62.57753372192383 8.092185974121094 57.87425231933594 6.102882385253906 C 53.00643920898438 4.043960571289062 47.83378601074219 3 42.5 3 M 42.5 0 C 65.97209167480469 0 85 19.02789306640625 85 42.5 C 85 65.97209167480469 65.97209167480469 85 42.5 85 C 19.02789306640625 85 0 65.97209167480469 0 42.5 C 0 19.02789306640625 19.02789306640625 0 42.5 0 Z" stroke="none" fill="#0b47db"/>
                        </g>
                      </g>
                    </g>
                  </g>
                </g>
              </g>
            </g>
          </g>
        </g>
      </g>
    </g>
    <g id="ingeniero-de-software_2_" data-name="ingeniero-de-software (2)" transform="translate(197.091 2376.374)">
      <g id="Grupo_1228541" data-name="Grupo 1228541" transform="translate(0 13.87)">
        <g id="Grupo_1228507" data-name="Grupo 1228507" transform="translate(9.245 0.83)">
          <path id="Trazado_1217880" data-name="Trazado 1217880" d="M102.57,27.116c-3.716.974-5.412,3.886-4.727,8.1l.673,4.138H123.2l.6-4.138c1.81-12.514-17.747-16.6-21.226-8.1Z" transform="translate(-97.695 -22.639)" fill="#554e56" fill-rule="evenodd"/>
        </g>
        <g id="Grupo_1228508" data-name="Grupo 1228508" transform="translate(6.182 17.546)">
          <path id="Trazado_1217881" data-name="Trazado 1217881" d="M68.617,199.286c-4.948,0-4.1,6.983,1.106,6.593a6.638,6.638,0,0,0-.512-6.593Z" transform="translate(-65.325 -199.286)" fill="#f6a96c" fill-rule="evenodd"/>
        </g>
        <g id="Grupo_1228509" data-name="Grupo 1228509" transform="translate(33.074 17.546)">
          <path id="Trazado_1217882" data-name="Trazado 1217882" d="M351.171,199.286c-1.908,2.137-2.322,4.38-.512,6.593,5.21.391,6.054-6.593,1.106-6.593Z" transform="translate(-349.499 -199.286)" fill="#f6a96c" fill-rule="evenodd"/>
        </g>
        <g id="Grupo_1228510" data-name="Grupo 1228510" transform="translate(17.208 0.829)">
          <path id="Trazado_1217883" data-name="Trazado 1217883" d="M181.836,23.793c6.559-.476,14.78,3.886,14.057,11.918-.019.2-.044.416-.073.627l-.436,3.013h3.99l.6-4.138C201.469,24.88,188.4,20.3,181.836,23.793Z" transform="translate(-181.836 -22.634)" fill="#433f43" fill-rule="evenodd"/>
        </g>
        <g id="Grupo_1228511" data-name="Grupo 1228511" transform="translate(10.067 13.746)">
          <path id="Trazado_1217884" data-name="Trazado 1217884" d="M118.684,159.125l-6.84.013c-3,0-3.64.378-5.463,3.788v3.734a8.931,8.931,0,0,0,.512,2.858,13.867,13.867,0,0,0,1.968,3.693l9.671,2.594,10.047-2.594a13.868,13.868,0,0,0,1.968-3.693,8.931,8.931,0,0,0,.512-2.858v-3.734c-1.823-3.41-2.537-3.785-5.535-3.788Z" transform="translate(-106.381 -159.125)" fill="#fed2a4" fill-rule="evenodd"/>
        </g>
        <g id="Grupo_1228512" data-name="Grupo 1228512" transform="translate(26.778 13.755)">
          <path id="Trazado_1217885" data-name="Trazado 1217885" d="M282.965,159.225c5.959.016,6.524,5.849,4.982,10.38-.313.917-.758,2.468-1.314,3.7-.085.189-.174.369-.262.539l1.9-.492.18-.047a13.867,13.867,0,0,0,1.968-3.693,8.93,8.93,0,0,0,.512-2.858v-3.734c-1.823-3.41-2.537-3.785-5.535-3.788Z" transform="translate(-282.965 -159.225)" fill="#ffbd86" fill-rule="evenodd"/>
        </g>
        <g id="Grupo_1228513" data-name="Grupo 1228513" transform="translate(8.416 0)">
          <path id="Trazado_1217886" data-name="Trazado 1217886" d="M115.26,32.245a.829.829,0,0,1-.731-.438c-1.74-3.254-2.219-3.347-4.805-3.35l-6.841-.013-6.837.013c-2.611,0-3.01.127-4.734,3.35a.829.829,0,0,1-1.549-.258l-.673-4.138h0c-.733-4.508,1.066-7.739,4.945-8.926a7.943,7.943,0,0,1,5.248-4.137,14.755,14.755,0,0,1,7.8.1,14.4,14.4,0,0,1,7.228,4.417A10.547,10.547,0,0,1,116.68,27.4l-.6,4.138a.829.829,0,0,1-.677.7A.819.819,0,0,1,115.26,32.245Zm-24.534-5.1.3,1.874c1.274-1.859,2.385-2.217,5.012-2.22l6.84-.013,6.843.013c2.621,0,3.78.377,5.05,2.183l.265-1.823c.907-6.267-3.954-9.9-8.391-11.114-4.4-1.2-9.672-.4-11.247,3.445a.829.829,0,0,1-.557.488c-4.189,1.1-4.552,4.5-4.119,7.167Z" transform="translate(-88.929 -13.87)"/>
        </g>
        <g id="Grupo_1228514" data-name="Grupo 1228514" transform="translate(19.564 18.917)">
          <path id="Trazado_1217887" data-name="Trazado 1217887" d="M207.56,215.926a.829.829,0,0,1-.36-1.576,5.174,5.174,0,0,1,4.747,0,.829.829,0,1,1-.719,1.493,3.52,3.52,0,0,0-3.309,0A.825.825,0,0,1,207.56,215.926Z" transform="translate(-206.731 -213.773)"/>
        </g>
        <g id="Grupo_1228515" data-name="Grupo 1228515" transform="translate(33.406 16.718)">
          <path id="Trazado_1217888" data-name="Trazado 1217888" d="M354.243,198.794q-.234,0-.474-.018a.829.829,0,0,1,.124-1.653,3.121,3.121,0,0,0,3.062-1.331,2.52,2.52,0,0,0,.19-2.526,2.322,2.322,0,0,0-2.208-1.08h-.594a.829.829,0,1,1,0-1.657h.594a3.928,3.928,0,0,1,3.664,1.945,4.194,4.194,0,0,1-.253,4.218A4.717,4.717,0,0,1,354.243,198.794Z" transform="translate(-353.002 -190.528)"/>
        </g>
        <g id="Grupo_1228516" data-name="Grupo 1228516" transform="translate(5.357 16.718)">
          <path id="Trazado_1217889" data-name="Trazado 1217889" d="M61.417,198.794a4.716,4.716,0,0,1-4.1-2.1,4.2,4.2,0,0,1-.253-4.219,3.927,3.927,0,0,1,3.662-1.945h.594a.829.829,0,1,1,0,1.657h-.594a2.321,2.321,0,0,0-2.207,1.08,2.521,2.521,0,0,0,.19,2.527,3.12,3.12,0,0,0,3.061,1.33.829.829,0,1,1,.124,1.653Q61.651,198.794,61.417,198.794Z" transform="translate(-56.607 -190.528)"/>
        </g>
        <g id="Grupo_1228517" data-name="Grupo 1228517" transform="translate(9.238 16.718)">
          <path id="Trazado_1217890" data-name="Trazado 1217890" d="M120.651,202.473a.829.829,0,0,1-.667-1.319,10.833,10.833,0,0,0,2.32-6.061v-3.734a.829.829,0,1,1,1.657,0v3.734a12.321,12.321,0,0,1-2.641,7.042A.827.827,0,0,1,120.651,202.473Zm-19.717,0a.827.827,0,0,1-.669-.338,12.323,12.323,0,0,1-2.641-7.042v-3.734a.829.829,0,1,1,1.657,0v3.734a10.835,10.835,0,0,0,2.32,6.061.829.829,0,0,1-.667,1.319Z" transform="translate(-97.624 -190.529)"/>
        </g>
        <g id="Grupo_1228518" data-name="Grupo 1228518" transform="translate(24.421 17.546)">
          <path id="Trazado_1217891" data-name="Trazado 1217891" d="M259.843,199.286a1.787,1.787,0,0,0-1.785,1.781V203a1.787,1.787,0,0,0,1.785,1.781h1.643A1.787,1.787,0,0,0,263.271,203v-1.938a1.787,1.787,0,0,0-1.785-1.781Z" transform="translate(-258.058 -199.286)" fill="#99e6fc" fill-rule="evenodd"/>
        </g>
        <g id="Grupo_1228519" data-name="Grupo 1228519" transform="translate(15.179 17.546)">
          <path id="Trazado_1217892" data-name="Trazado 1217892" d="M162.186,199.286a1.787,1.787,0,0,0-1.785,1.781V203a1.787,1.787,0,0,0,1.785,1.781h1.643A1.787,1.787,0,0,0,165.614,203v-1.938a1.787,1.787,0,0,0-1.785-1.781Z" transform="translate(-160.401 -199.286)" fill="#99e6fc" fill-rule="evenodd"/>
        </g>
        <g id="Grupo_1228520" data-name="Grupo 1228520" transform="translate(0.829 38.292)">
          <path id="Trazado_1217893" data-name="Trazado 1217893" d="M13.828,419.331c-4.243,1.49-5.071,4.812-5.071,8.269v5.077a.661.661,0,0,0,.66.655h6.888l3.289-6.479-3.412-8.348Z" transform="translate(-8.757 -418.505)" fill="#99e6fc" fill-rule="evenodd"/>
        </g>
        <g id="Grupo_1228521" data-name="Grupo 1228521" transform="translate(32.658 38.292)">
          <path id="Trazado_1217894" data-name="Trazado 1217894" d="M349,418.505l-3.9,8.568,3.782,6.259h6.885a.661.661,0,0,0,.66-.655V427.6c0-3.457-.828-6.779-5.071-8.269Z" transform="translate(-345.099 -418.505)" fill="#99e6fc" fill-rule="evenodd"/>
        </g>
        <g id="Grupo_1228522" data-name="Grupo 1228522" transform="translate(8.254 27.832)">
          <path id="Trazado_1217895" data-name="Trazado 1217895" d="M111.229,307.979H88.892a1.68,1.68,0,0,0-1.675,1.673v19.072h28.306V309.652a1.68,1.68,0,0,0-1.675-1.673Z" transform="translate(-87.217 -307.979)" fill="#7a6d79" fill-rule="evenodd"/>
        </g>
        <g id="Grupo_1228523" data-name="Grupo 1228523" transform="translate(5.887 48.578)">
          <path id="Trazado_1217896" data-name="Trazado 1217896" d="M92.883,527.2H63.019a.811.811,0,0,0-.809.807v1.251a2.493,2.493,0,0,0,2.49,2.483H92.762a2.493,2.493,0,0,0,2.49-2.483V528a.812.812,0,0,0-.812-.807Z" transform="translate(-62.21 -527.198)" fill="#554e56" fill-rule="evenodd"/>
        </g>
        <g id="Grupo_1228524" data-name="Grupo 1228524" transform="translate(31.694 27.833)">
          <path id="Trazado_1217897" data-name="Trazado 1217897" d="M336.59,318.44v10.286h3.191V309.654a1.68,1.68,0,0,0-1.675-1.673h-3.191a1.68,1.68,0,0,1,1.675,1.673v8.786Z" transform="translate(-334.915 -307.981)" fill="#685e68" fill-rule="evenodd"/>
        </g>
        <g id="Grupo_1228525" data-name="Grupo 1228525" transform="translate(33.249 48.578)">
          <path id="Trazado_1217898" data-name="Trazado 1217898" d="M354.653,527.2h-1.63a.811.811,0,0,1,.809.807v1.251a2.493,2.493,0,0,1-2.49,2.483h3.191a2.493,2.493,0,0,0,2.49-2.483V528a.812.812,0,0,0-.812-.807Z" transform="translate(-351.342 -527.198)" fill="#433f43" fill-rule="evenodd"/>
        </g>
        <g id="Grupo_1228526" data-name="Grupo 1228526" transform="translate(36.56 38.292)">
          <path id="Trazado_1217899" data-name="Trazado 1217899" d="M386.332,418.505v2.572c3.573,1.607,4.739,2.928,4.739,5.786v6.47H393.1a.661.661,0,0,0,.66-.655V427.6c0-3.457-.828-6.779-5.071-8.269Z" transform="translate(-386.332 -418.505)" fill="#62dbfb" fill-rule="evenodd"/>
        </g>
        <g id="Grupo_1228527" data-name="Grupo 1228527" transform="translate(15.537 31.034)">
          <path id="Trazado_1217900" data-name="Trazado 1217900" d="M169.375,343.321a5.894,5.894,0,0,0-2.4,1.387l-.844-.489a.543.543,0,0,0-.739.2l-1.137,1.966a.537.537,0,0,0,.2.734l.84.485a6.022,6.022,0,0,0,0,2.767l-.84.485a.537.537,0,0,0-.2.734l1.137,1.966a.544.544,0,0,0,.739.2l.844-.485a5.887,5.887,0,0,0,2.4,1.383v.971a.539.539,0,0,0,.537.539h2.278a.539.539,0,0,0,.537-.539v-.971a5.887,5.887,0,0,0,2.4-1.383l.847.485a.542.542,0,0,0,.736-.2l1.137-1.966a.537.537,0,0,0-.2-.734l-.84-.485a6.022,6.022,0,0,0,0-2.767l.84-.485a.537.537,0,0,0,.2-.734l-1.137-1.966a.54.54,0,0,0-.736-.2l-.847.488a5.893,5.893,0,0,0-2.4-1.387v-.971a.536.536,0,0,0-.537-.536h-2.278a.536.536,0,0,0-.537.536v.97Zm1.678,3.117a2.549,2.549,0,1,1-2.559,2.549,2.554,2.554,0,0,1,2.559-2.549Z" transform="translate(-164.181 -341.815)" fill="#e5e1e5" fill-rule="evenodd"/>
        </g>
        <g id="Grupo_1228528" data-name="Grupo 1228528" transform="translate(19.02 34.829)">
          <path id="Trazado_1217901" data-name="Trazado 1217901" d="M204.378,388.664a3.378,3.378,0,1,1,3.385-3.378A3.387,3.387,0,0,1,204.378,388.664Zm0-5.1a1.721,1.721,0,1,0,1.727,1.721A1.727,1.727,0,0,0,204.378,383.565Z" transform="translate(-200.99 -381.908)"/>
        </g>
        <g id="Grupo_1228529" data-name="Grupo 1228529" transform="translate(14.707 30.206)">
          <path id="Trazado_1217902" data-name="Trazado 1217902" d="M164.253,349.059h-2.278a1.368,1.368,0,0,1-1.366-1.368v-.381a6.773,6.773,0,0,1-1.669-.962l-.334.192a1.375,1.375,0,0,1-1.869-.5l-1.139-1.968a1.365,1.365,0,0,1,.505-1.869l.33-.19a6.813,6.813,0,0,1,0-1.918l-.333-.192a1.365,1.365,0,0,1-.5-1.869l1.136-1.965a1.372,1.372,0,0,1,1.868-.5l.338.2a6.781,6.781,0,0,1,1.667-.963v-.381a1.367,1.367,0,0,1,1.366-1.364h2.278a1.367,1.367,0,0,1,1.366,1.364v.381a6.778,6.778,0,0,1,1.668.964l.337-.194a1.369,1.369,0,0,1,1.869.5l1.136,1.964a1.365,1.365,0,0,1-.505,1.869l-.33.19a6.818,6.818,0,0,1,0,1.918l.333.192a1.365,1.365,0,0,1,.5,1.868l-1.136,1.965a1.371,1.371,0,0,1-1.869.5l-.335-.192a6.769,6.769,0,0,1-1.669.962v.381A1.368,1.368,0,0,1,164.253,349.059Zm-1.986-1.657h1.695v-.681a.829.829,0,0,1,.6-.8,5.088,5.088,0,0,0,2.064-1.189.828.828,0,0,1,.983-.118l.6.343.845-1.462-.59-.341a.829.829,0,0,1-.393-.907,5.193,5.193,0,0,0,0-2.388.829.829,0,0,1,.392-.907l.59-.341-.846-1.464-.6.344a.828.828,0,0,1-.985-.117,5.092,5.092,0,0,0-2.064-1.192.829.829,0,0,1-.6-.8v-.678h-1.695v.678a.829.829,0,0,1-.6.8,5.091,5.091,0,0,0-2.064,1.192.829.829,0,0,1-.986.116l-.594-.344-.847,1.465.59.341a.829.829,0,0,1,.392.907,5.191,5.191,0,0,0,0,2.388.829.829,0,0,1-.392.907l-.59.34.846,1.463.6-.343a.828.828,0,0,1,.984.118,5.087,5.087,0,0,0,2.064,1.189.829.829,0,0,1,.6.8v.681Zm6.181-2.3h0Zm.851-1.457h0Zm-12.368,0h0Zm12.263-.4h0Zm-12.162,0h0Zm12.162-4.374h0Zm-12.161,0h0Zm12.264-.4h0Zm-12.372,0h0Zm11.526-1.463h0Zm-.4-.1h0Zm-9.885,0h0Z" transform="translate(-155.415 -333.057)"/>
        </g>
        <g id="Grupo_1228530" data-name="Grupo 1228530" transform="translate(7.425 27.004)">
          <path id="Trazado_1217903" data-name="Trazado 1217903" d="M107.594,321.625H79.288a.829.829,0,0,1-.829-.829V301.724a2.505,2.505,0,0,1,2.5-2.5H91.1a.829.829,0,1,1,0,1.657H80.962a.857.857,0,0,0-.846.845v18.243h26.649V301.724a.846.846,0,0,0-.846-.845H94.959a.829.829,0,1,1,0-1.657h10.96a2.505,2.505,0,0,1,2.5,2.5V320.8A.829.829,0,0,1,107.594,321.625Z" transform="translate(-78.459 -299.222)"/>
        </g>
        <g id="Grupo_1228531" data-name="Grupo 1228531" transform="translate(5.058 47.749)">
          <path id="Trazado_1217904" data-name="Trazado 1217904" d="M84.834,524.642a.829.829,0,1,1,0-1.657,1.66,1.66,0,0,0,1.661-1.654V520.1H55.11v1.229a1.66,1.66,0,0,0,1.661,1.654.829.829,0,1,1,0,1.657,3.319,3.319,0,0,1-3.318-3.312v-1.251a1.638,1.638,0,0,1,1.638-1.635H86.512a1.64,1.64,0,0,1,1.641,1.635v1.251A3.319,3.319,0,0,1,84.834,524.642Z" transform="translate(-53.453 -518.444)"/>
        </g>
        <g id="Grupo_1228532" data-name="Grupo 1228532" transform="translate(14.351 16.718)">
          <path id="Trazado_1217905" data-name="Trazado 1217905" d="M155.9,197.685h-1.643a2.615,2.615,0,0,1-2.614-2.609v-1.938a2.615,2.615,0,0,1,2.614-2.609H155.9a2.615,2.615,0,0,1,2.614,2.609v1.938A2.614,2.614,0,0,1,155.9,197.685Zm-1.643-5.5a.955.955,0,0,0-.956.952v1.938a.955.955,0,0,0,.956.952H155.9a.955.955,0,0,0,.956-.952v-1.938a.955.955,0,0,0-.956-.952Z" transform="translate(-151.644 -190.528)"/>
        </g>
        <g id="Grupo_1228533" data-name="Grupo 1228533" transform="translate(23.592 16.718)">
          <path id="Trazado_1217906" data-name="Trazado 1217906" d="M253.558,197.685h-1.643a2.615,2.615,0,0,1-2.614-2.609v-1.938a2.614,2.614,0,0,1,2.614-2.609h1.643a2.615,2.615,0,0,1,2.614,2.609v1.938A2.614,2.614,0,0,1,253.558,197.685Zm-1.643-5.5a.955.955,0,0,0-.956.952v1.938a.955.955,0,0,0,.956.952h1.643a.955.955,0,0,0,.956-.952v-1.938a.955.955,0,0,0-.956-.952Z" transform="translate(-249.301 -190.528)"/>
        </g>
        <g id="Grupo_1228534" data-name="Grupo 1228534" transform="translate(0 37.463)">
          <path id="Trazado_1217907" data-name="Trazado 1217907" d="M43.324,426.231H1.489A1.488,1.488,0,0,1,0,424.747V419.67c0-3.037.583-7.28,5.625-9.051l2.354-.826a.829.829,0,1,1,.549,1.564l-2.354.826c-3.166,1.112-4.517,3.351-4.517,7.487v4.9h41.5v-4.9c0-4.136-1.351-6.375-4.517-7.487l-2.354-.826a.829.829,0,1,1,.549-1.564l2.354.826c5.042,1.771,5.625,6.014,5.625,9.051v5.077A1.488,1.488,0,0,1,43.324,426.231Z" transform="translate(0 -409.746)"/>
        </g>
        <g id="Grupo_1228535" data-name="Grupo 1228535" transform="translate(32.399 24.514)">
          <path id="Trazado_1217908" data-name="Trazado 1217908" d="M364.078,277.763a10.455,10.455,0,0,1-14.973,14.049l-2.91-.136-3.836-.18,1.472-3.539,1.118-2.685a10.466,10.466,0,0,1,19.128-7.51Z" transform="translate(-342.36 -272.913)" fill="#e5e1e5" fill-rule="evenodd"/>
        </g>
        <g id="Grupo_1228536" data-name="Grupo 1228536" transform="translate(43.817 24.514)">
          <path id="Trazado_1217909" data-name="Trazado 1217909" d="M470.683,277.8a10.445,10.445,0,0,1-7.378,15.927,10.442,10.442,0,1,0-.284-20.711,10.449,10.449,0,0,1,7.662,4.784Z" transform="translate(-463.021 -272.913)" fill="#d7d0d6" fill-rule="evenodd"/>
        </g>
        <g id="Grupo_1228537" data-name="Grupo 1228537" transform="translate(31.57 23.69)">
          <path id="Trazado_1217910" data-name="Trazado 1217910" d="M347.306,286.75a11.288,11.288,0,0,1-6.409-2l-6.5-.3a.829.829,0,0,1-.726-1.146l2.5-6a11.3,11.3,0,1,1,20.157,4.97.829.829,0,0,1-1.321-1,9.626,9.626,0,1,0-17.163-4.026.828.828,0,0,1-.049.472l-2.137,5.133,5.565.26a.829.829,0,0,1,.446.155,9.62,9.62,0,0,0,10.81.328.829.829,0,0,1,.886,1.4A11.313,11.313,0,0,1,347.306,286.75Z" transform="translate(-333.603 -264.21)"/>
        </g>
        <g id="Grupo_1228538" data-name="Grupo 1228538" transform="translate(38.369 31.728)">
          <path id="Trazado_1217911" data-name="Trazado 1217911" d="M407.9,356.259a.828.828,0,0,1-.717-.413l-1.618-2.786a.828.828,0,0,1,.008-.845l1.618-2.675a.829.829,0,0,1,1.418.858l-1.363,2.255,1.371,2.361a.829.829,0,0,1-.716,1.245Z" transform="translate(-405.453 -349.14)"/>
        </g>
        <g id="Grupo_1228539" data-name="Grupo 1228539" transform="translate(43.187 31.438)">
          <path id="Trazado_1217912" data-name="Trazado 1217912" d="M457.194,353.772a.829.829,0,0,1-.769-1.136l2.411-6.038a.829.829,0,1,1,1.539.615l-2.411,6.038A.829.829,0,0,1,457.194,353.772Z" transform="translate(-456.365 -346.077)"/>
        </g>
        <g id="Grupo_1228540" data-name="Grupo 1228540" transform="translate(49.051 31.728)">
          <path id="Trazado_1217913" data-name="Trazado 1217913" d="M519.161,356.258a.829.829,0,0,1-.716-1.245l1.371-2.361-1.364-2.255a.829.829,0,0,1,1.418-.858l1.618,2.675a.829.829,0,0,1,.007.845l-1.618,2.786A.829.829,0,0,1,519.161,356.258Z" transform="translate(-518.333 -349.139)"/>
        </g>
      </g>
    </g>
  </g>
</svg>
