<svg xmlns="http://www.w3.org/2000/svg" xmlns:xlink="http://www.w3.org/1999/xlink" width="103" height="103" viewBox="0 0 103 103">
  <defs>
    <filter id="Trazado_978624" x="0" y="0" width="103" height="103" filterUnits="userSpaceOnUse">
      <feOffset dy="3" input="SourceAlpha"/>
      <feGaussianBlur stdDeviation="3" result="blur"/>
      <feFlood flood-opacity="0.161"/>
      <feComposite operator="in" in2="blur"/>
      <feComposite in="SourceGraphic"/>
    </filter>
  </defs>
  <g id="Grupo_1229198" data-name="Grupo 1229198" transform="translate(-197 -314)">
    <g id="Grupo_1228374" data-name="Grupo 1228374" transform="translate(25.131 -1471.328)">
      <g id="Grupo_1227500" data-name="Grupo 1227500" transform="translate(0.869 643.328)">
        <g id="Grupo_1225355" data-name="Grupo 1225355" transform="translate(180 1148)">
          <g id="Grupo_1176881" data-name="Grupo 1176881">
            <g id="Grupo_1175148" data-name="Grupo 1175148">
              <g id="Grupo_1173798" data-name="Grupo 1173798">
                <g id="Grupo_1171925" data-name="Grupo 1171925">
                  <g id="Grupo_1164524" data-name="Grupo 1164524">
                    <g id="Grupo_1144123" data-name="Grupo 1144123">
                      <g transform="matrix(1, 0, 0, 1, -9, -6)" filter="url(#Trazado_978624)">
                        <g id="Trazado_978624-2" data-name="Trazado 978624" transform="translate(9 6)" fill="#fef9e5">
                          <path d="M 42.5 83.5 C 36.96437835693359 83.5 31.59512901306152 82.41617584228516 26.54141235351562 80.27863311767578 C 21.65934181213379 78.21369171142578 17.27447128295898 75.25723266601562 13.50862312316895 71.49137878417969 C 9.742764472961426 67.72553253173828 6.786305904388428 63.34066009521484 4.721364498138428 58.45858764648438 C 2.583823442459106 53.40486907958984 1.5 48.03562164306641 1.5 42.5 C 1.5 36.96437835693359 2.583823442459106 31.59512901306152 4.721364498138428 26.54141235351562 C 6.786305904388428 21.65934181213379 9.742764472961426 17.27447128295898 13.50862312316895 13.50862312316895 C 17.27447128295898 9.742764472961426 21.65934181213379 6.786305904388428 26.54141235351562 4.721364498138428 C 31.59512901306152 2.583823442459106 36.96437835693359 1.5 42.5 1.5 C 48.03562164306641 1.5 53.40486907958984 2.583823442459106 58.45858764648438 4.721364498138428 C 63.34066009521484 6.786305904388428 67.72553253173828 9.742764472961426 71.49137878417969 13.50862312316895 C 75.25723266601562 17.27447128295898 78.21369171142578 21.65934181213379 80.27863311767578 26.54141235351562 C 82.41617584228516 31.59512901306152 83.5 36.96437835693359 83.5 42.5 C 83.5 48.03562164306641 82.41617584228516 53.40486907958984 80.27863311767578 58.45858764648438 C 78.21369171142578 63.34066009521484 75.25723266601562 67.72553253173828 71.49137878417969 71.49137878417969 C 67.72553253173828 75.25723266601562 63.34066009521484 78.21369171142578 58.45858764648438 80.27863311767578 C 53.40486907958984 82.41617584228516 48.03562164306641 83.5 42.5 83.5 Z" stroke="none"/>
                          <path d="M 42.5 3 C 37.16621398925781 3 31.99356079101562 4.043960571289062 27.125732421875 6.102882385253906 C 22.42246627807617 8.092185974121094 18.19785308837891 10.94070434570312 14.56928253173828 14.56928253173828 C 10.94070434570312 18.19785308837891 8.092185974121094 22.42246627807617 6.102882385253906 27.125732421875 C 4.043960571289062 31.99356079101562 3 37.16621398925781 3 42.5 C 3 47.83378601074219 4.043960571289062 53.00643920898438 6.102882385253906 57.87425231933594 C 8.092185974121094 62.57753372192383 10.94070434570312 66.80213165283203 14.56928253173828 70.43071746826172 C 18.19786834716797 74.05929565429688 22.42246627807617 76.90781402587891 27.125732421875 78.89711761474609 C 31.99356079101562 80.95603942871094 37.16621398925781 82 42.5 82 C 47.83378601074219 82 53.00642395019531 80.95603942871094 57.87425231933594 78.89711761474609 C 62.57753372192383 76.90781402587891 66.80213165283203 74.05929565429688 70.43071746826172 70.43071746826172 C 74.05929565429688 66.80213165283203 76.90781402587891 62.57753372192383 78.89711761474609 57.87425231933594 C 80.95603942871094 53.00642395019531 82 47.83378601074219 82 42.5 C 82 37.16621398925781 80.95603942871094 31.99356079101562 78.89711761474609 27.125732421875 C 76.90781402587891 22.42246627807617 74.05929565429688 18.19786834716797 70.43071746826172 14.56928253173828 C 66.80213165283203 10.94070434570312 62.57753372192383 8.092185974121094 57.87425231933594 6.102882385253906 C 53.00643920898438 4.043960571289062 47.83378601074219 3 42.5 3 M 42.5 0 C 65.97209167480469 0 85 19.02789306640625 85 42.5 C 85 65.97209167480469 65.97209167480469 85 42.5 85 C 19.02789306640625 85 0 65.97209167480469 0 42.5 C 0 19.02789306640625 19.02789306640625 0 42.5 0 Z" stroke="none" fill="#866d08"/>
                        </g>
                      </g>
                    </g>
                  </g>
                </g>
              </g>
            </g>
          </g>
        </g>
      </g>
    </g>
    <g id="Flow" transform="translate(215.5 330.49)">
      <path id="rect90661-4" d="M5,24.36H16.63V38.59H5Z" fill="#f7f7f7"/>
      <path id="rect144162" d="M12.68,24.36h3.95V38.59H12.68Z" fill="#e6e5e1"/>
      <path id="path90696-7" d="M5,24.36V30H16.63V24.36Z" fill="#fa5b6e"/>
      <path id="path144164" d="M12.68,24.36V30h3.95V24.36Z" fill="#f23d6c"/>
      <path id="rect144226" d="M27.19,13.52H38.82V27.75H27.19Z" fill="#f7f7f7"/>
      <path id="rect144228" d="M34.86,13.52h3.95V27.75H34.86Z" fill="#e6e5e1"/>
      <path id="path144230" d="M27.19,13.52v5.67H38.81V13.52Z" fill="#fa5b6e"/>
      <path id="path144232" d="M34.86,13.52v5.67h4V13.52Z" fill="#f23d6c"/>
      <path id="rect144234" d="M49.37,13.44H61V27.67H49.37Z" fill="#f7f7f7"/>
      <path id="rect144236" d="M57.05,13.44H61V27.67H57.05Z" fill="#e6e5e1"/>
      <path id="path144238" d="M49.37,13.44v5.67H61V13.44Z" fill="#fa5b6e"/>
      <path id="path144240" d="M57.05,13.44v5.67h4V13.44Z" fill="#f23d6c"/>
      <path id="rect144242" d="M49.37,36.33H61V50.56H49.37Z" fill="#f7f7f7"/>
      <path id="rect144244" d="M57.05,36.33H61V50.56H57.05Z" fill="#e6e5e1"/>
      <path id="path144246" d="M49.37,36.34V42H61V36.34Z" fill="#fa5b6e"/>
      <path id="path144248" d="M57.05,36.34V42h4V36.34Z" fill="#f23d6c"/>
      <g id="Grupo_1229197" data-name="Grupo 1229197">
        <path id="Trazado_1218892" data-name="Trazado 1218892" d="M9.05,28.28h3.53a1,1,0,1,0,0-2H9.05a1,1,0,1,0,0,2Z" fill="#292b45"/>
        <path id="Trazado_1218893" data-name="Trazado 1218893" d="M31.23,17.36h3.54a1,1,0,1,0,0-2H31.23a1,1,0,1,0,0,2Z" fill="#292b45"/>
        <path id="Trazado_1218894" data-name="Trazado 1218894" d="M53.42,40.26H57a1,1,0,0,0,0-2H53.42a1,1,0,0,0,0,2Z" fill="#292b45"/>
        <path id="Trazado_1218895" data-name="Trazado 1218895" d="M61,12.44H49.37a1,1,0,0,0-1,1v6.11H39.81V13.44a1,1,0,0,0-1-1H27.19a1,1,0,0,0-1,1v6.11H22.26a1,1,0,0,0-1,1v9.92H17.63V24.36a1,1,0,0,0-1-1H5a1,1,0,0,0-1,1V38.58a1,1,0,0,0,1,1H16.63a1,1,0,0,0,1-1V32.47h22.5v11a1,1,0,0,0,1,1h7.24v6.11a1,1,0,0,0,1,1H61a1,1,0,0,0,1-1V36.33a1,1,0,0,0-1-1H49.37a1,1,0,0,0-1,1v6.12H42.13v-11a1,1,0,0,0-1-1H23.26v-8.9h2.93v6.12a1,1,0,0,0,1,1H38.81a1,1,0,0,0,1-1V21.55h8.56v6.12a1,1,0,0,0,1,1H61a1,1,0,0,0,1-1V13.44a1,1,0,0,0-1-1ZM15.63,25.36V29H6V25.36Zm0,12.22H6V31h9.63Zm34.74,12V43H60v6.56ZM60,37.33V41H50.37V37.33ZM37.81,14.44v3.67H28.19V14.44Zm0,12.23H28.19V20.11h9.62ZM60,14.44v3.67H50.37V14.44ZM50.37,26.67V20.11H60v6.56Z" fill="#292b45"/>
        <path id="Trazado_1218896" data-name="Trazado 1218896" d="M53.42,17.36H57a1,1,0,1,0,0-2H53.42a1,1,0,0,0,0,2Z" fill="#292b45"/>
      </g>
    </g>
  </g>
</svg>
