<svg xmlns="http://www.w3.org/2000/svg" xmlns:xlink="http://www.w3.org/1999/xlink" width="295" height="274" viewBox="0 0 295 274">
  <defs>
    <clipPath id="clip-path">
      <rect id="Rectángulo_422828" data-name="Rectángulo 422828" width="295" height="274" transform="translate(1125 5025)" fill="#fff" stroke="#707070" stroke-width="1"/>
    </clipPath>
    <clipPath id="clip-path-2">
      <rect id="Rectángulo_422827" data-name="Rectángulo 422827" width="424" height="424" transform="translate(0.204 0.205)" fill="none"/>
    </clipPath>
  </defs>
  <g id="Grupo_1229360" data-name="Grupo 1229360" transform="translate(-1125 -5025)">
    <rect id="Rectángulo_422829" data-name="Rectángulo 422829" width="164" height="274" transform="translate(1243 5025)" fill="#fef9e5"/>
    <g id="Enmascarar_grupo_1208514" data-name="Enmascarar grupo 1208514" clip-path="url(#clip-path)">
      <g id="Grupo_1229359" data-name="Grupo 1229359" transform="translate(1053.66 4992.755)">
        <g id="Grupo_1229358" data-name="Grupo 1229358" transform="translate(-0.865 0.04)" clip-path="url(#clip-path-2)">
          <path id="Trazado_1219052" data-name="Trazado 1219052" d="M1867.714,1831.665a1.907,1.907,0,1,1,1.657-2.128,1.907,1.907,0,0,1-1.657,2.128" transform="translate(-1724.565 -1601.254)" fill="#fff"/>
          <path id="Trazado_1219053" data-name="Trazado 1219053" d="M1889.076,433.529a2.67,2.67,0,1,1,1.806-3.576,2.674,2.674,0,0,1-1.806,3.576m-1.148-4.409a1.979,1.979,0,0,0-.225.075,1.875,1.875,0,1,0,.225-.075" transform="translate(-1565.299 -355.625)"/>
          <path id="Trazado_1219054" data-name="Trazado 1219054" d="M1795.829,380.236l0,0a.561.561,0,0,1-.747-.264l-.791-1.659a.561.561,0,0,1,.261-.746l0,0a.561.561,0,0,1,.747.265l.791,1.659a.561.561,0,0,1-.261.746" transform="translate(-1489.308 -313.467)"/>
          <path id="Trazado_1219055" data-name="Trazado 1219055" d="M1812.156,414.486l0,0a.56.56,0,0,1-.747-.265l-.791-1.659a.561.561,0,0,1,.261-.746l0,0a.561.561,0,0,1,.747.265l.791,1.659a.56.56,0,0,1-.261.745" transform="translate(-1502.868 -341.912)"/>
          <path id="Trazado_1219056" data-name="Trazado 1219056" d="M1785.234,406.5h0l-1.654.8a.56.56,0,0,1-.489-1.009h0l1.654-.8a.561.561,0,0,1,.489,1.009" transform="translate(-1479.792 -336.654)"/>
          <path id="Trazado_1219057" data-name="Trazado 1219057" d="M1819.385,389.971h0l-1.654.8a.561.561,0,0,1-.489-1.009h0l1.654-.8a.561.561,0,0,1,.489,1.009" transform="translate(-1508.155 -322.929)"/>
          <path id="Trazado_1219058" data-name="Trazado 1219058" d="M501.708,808.626a.561.561,0,0,1-.393-.96l1.472-1.451a.56.56,0,0,1,.787.8l-1.472,1.451a.559.559,0,0,1-.393.161" transform="translate(-415.396 -669.373)"/>
          <path id="Trazado_1219059" data-name="Trazado 1219059" d="M471.315,838.583a.561.561,0,0,1-.394-.96l1.472-1.451a.561.561,0,0,1,.787.8l-1.472,1.451a.559.559,0,0,1-.394.161" transform="translate(-390.155 -694.251)"/>
          <path id="Trazado_1219060" data-name="Trazado 1219060" d="M472.946,808.467a.559.559,0,0,1-.4-.165l-1.459-1.464a.56.56,0,1,1,.794-.791l1.459,1.464a.561.561,0,0,1-.4.956" transform="translate(-390.298 -669.23)"/>
          <path id="Trazado_1219061" data-name="Trazado 1219061" d="M503.071,838.691a.559.559,0,0,1-.4-.165l-1.459-1.464a.56.56,0,1,1,.794-.791l1.459,1.464a.56.56,0,0,1-.4.956" transform="translate(-415.317 -694.331)"/>
          <path id="Trazado_1219062" data-name="Trazado 1219062" d="M1820.54,1861.606a3.02,3.02,0,1,1-.528-4.239,3.02,3.02,0,0,1,.528,4.239" transform="translate(-1679.286 -1626.305)" fill="#99b9ff"/>
          <path id="Trazado_1219063" data-name="Trazado 1219063" d="M402.047,905.214a3.174,3.174,0,1,1,.4-.025,3.14,3.14,0,0,1-.4.025m.011-5.212a2.077,2.077,0,0,0-.257.016,2.031,2.031,0,1,0,.257-.016" transform="translate(-330.469 -746.465)"/>
          <path id="Trazado_1219064" data-name="Trazado 1219064" d="M1367.951,665.411a.561.561,0,0,1-.394-.96l1.472-1.451a.56.56,0,0,1,.787.8l-1.472,1.451a.558.558,0,0,1-.393.161" transform="translate(-1134.814 -550.432)"/>
          <path id="Trazado_1219065" data-name="Trazado 1219065" d="M1337.558,695.367a.561.561,0,0,1-.394-.96l1.472-1.451a.56.56,0,0,1,.787.8l-1.472,1.451a.558.558,0,0,1-.393.161" transform="translate(-1109.573 -575.311)"/>
          <path id="Trazado_1219066" data-name="Trazado 1219066" d="M1339.188,665.251a.559.559,0,0,1-.4-.165l-1.459-1.464a.56.56,0,1,1,.794-.791l1.459,1.464a.56.56,0,0,1-.4.956" transform="translate(-1109.715 -550.288)"/>
          <path id="Trazado_1219067" data-name="Trazado 1219067" d="M1369.314,695.478a.559.559,0,0,1-.4-.165l-1.459-1.464a.56.56,0,1,1,.794-.791l1.459,1.464a.561.561,0,0,1-.4.956" transform="translate(-1134.734 -575.392)"/>
          <path id="Trazado_1219068" data-name="Trazado 1219068" d="M820.911,672.814H586.655a9.269,9.269,0,0,1-9.362-9.172V506.284a9.269,9.269,0,0,1,9.362-9.172H820.911a9.269,9.269,0,0,1,9.362,9.172V663.642a9.269,9.269,0,0,1-9.362,9.172" transform="translate(-478.635 -412.795)" fill="#fff"/>
          <path id="Trazado_1219069" data-name="Trazado 1219069" d="M818.161,670.626H583.905a9.841,9.841,0,0,1-9.923-9.733V503.535a9.841,9.841,0,0,1,9.923-9.733H818.161a9.841,9.841,0,0,1,9.923,9.733V660.893a9.841,9.841,0,0,1-9.923,9.733m-234.256-175.7a8.717,8.717,0,0,0-8.8,8.611V660.893a8.717,8.717,0,0,0,8.8,8.611H818.161a8.717,8.717,0,0,0,8.8-8.611V503.535a8.717,8.717,0,0,0-8.8-8.611Z" transform="translate(-475.886 -410.046)"/>
          <path id="Trazado_1219070" data-name="Trazado 1219070" d="M604.587,518.267a5.652,5.652,0,0,0-5.7,5.587V681.211a5.652,5.652,0,0,0,5.7,5.587H838.843a5.652,5.652,0,0,0,5.7-5.587V523.854a5.652,5.652,0,0,0-5.7-5.587Z" transform="translate(-496.568 -430.364)" fill="#eddbfd"/>
          <path id="Trazado_1219071" data-name="Trazado 1219071" d="M623.64,595.781a.561.561,0,0,1-.561-.561V547.025A5.176,5.176,0,0,1,628.3,541.9h8.919a.561.561,0,0,1,0,1.122H628.3a4.052,4.052,0,0,0-4.094,4V595.22a.561.561,0,0,1-.561.561" transform="translate(-516.661 -449.994)"/>
          <path id="Trazado_1219072" data-name="Trazado 1219072" d="M623.64,1155.287a.561.561,0,0,1-.561-.561v-22.554a.561.561,0,0,1,1.122,0v22.554a.561.561,0,0,1-.561.561" transform="translate(-516.661 -939.748)"/>
          <path id="Trazado_1219073" data-name="Trazado 1219073" d="M623.64,1363.823a.561.561,0,0,1-.561-.561v-9.675a.561.561,0,1,1,1.122,0v9.675a.561.561,0,0,1-.561.561" transform="translate(-516.661 -1123.635)"/>
          <path id="Trazado_1219074" data-name="Trazado 1219074" d="M641.8,1461.087h-13.5a5.175,5.175,0,0,1-5.216-5.122.561.561,0,1,1,1.122,0,4.052,4.052,0,0,0,4.094,4h13.5a.561.561,0,0,1,0,1.122" transform="translate(-516.661 -1208.66)"/>
          <path id="Trazado_1219075" data-name="Trazado 1219075" d="M1891.621,702.421H1881.7a.561.561,0,1,1,0-1.122h9.925a3.127,3.127,0,0,0,3.122-3.123V547.025a4.052,4.052,0,0,0-4.094-4h-20.382a.561.561,0,0,1,0-1.122h20.382a5.176,5.176,0,0,1,5.216,5.122V698.176a4.25,4.25,0,0,1-4.245,4.246" transform="translate(-1551.989 -449.994)"/>
          <path id="Trazado_1219076" data-name="Trazado 1219076" d="M1397.907,543.025h-21.852a.561.561,0,0,1,0-1.122h21.852a.561.561,0,1,1,0,1.122" transform="translate(-1141.544 -449.994)"/>
          <path id="Trazado_1219077" data-name="Trazado 1219077" d="M843.573,348.495a5.256,5.256,0,0,0-5.256-5.257H756.512a5.256,5.256,0,0,0-5.256,5.257v54.152a5.256,5.256,0,0,0,5.256,5.257h81.805a5.257,5.257,0,0,0,5.256-5.257Z" transform="translate(-623.112 -285.002)" fill="#aa52f9"/>
          <path id="Rectángulo_422817" data-name="Rectángulo 422817" d="M10.9,0H61.908a10.9,10.9,0,0,1,10.9,10.9v8.769a10.9,10.9,0,0,1-10.9,10.9H10.9A10.9,10.9,0,0,1,0,19.669V10.9A10.9,10.9,0,0,1,10.9,0Z" transform="translate(137.899 65.001)" fill="#fff"/>
          <path id="Trazado_1219078" data-name="Trazado 1219078" d="M835.521,454.7a.477.477,0,0,1-.339-.141l-2.918-2.918a.48.48,0,0,1,0-.678l2.918-2.918a.479.479,0,0,1,.678.678l-2.579,2.579,2.579,2.579a.48.48,0,0,1-.339.819" transform="translate(-690.273 -371.925)"/>
          <path id="Trazado_1219079" data-name="Trazado 1219079" d="M1192.651,454.7a.48.48,0,0,1-.339-.819l2.579-2.579-2.579-2.579a.479.479,0,0,1,.678-.678l2.918,2.918a.479.479,0,0,1,0,.678l-2.918,2.918a.477.477,0,0,1-.339.141" transform="translate(-989.294 -371.925)"/>
          <path id="Trazado_1219080" data-name="Trazado 1219080" d="M973.442,592.317a1.256,1.256,0,1,1-1.256-1.256,1.256,1.256,0,0,1,1.256,1.256" transform="translate(-805.552 -490.82)"/>
          <path id="Trazado_1219081" data-name="Trazado 1219081" d="M1018.686,592.317a1.256,1.256,0,1,1-1.256-1.256,1.256,1.256,0,0,1,1.256,1.256" transform="translate(-843.128 -490.82)"/>
          <path id="Trazado_1219082" data-name="Trazado 1219082" d="M1063.93,592.317a1.256,1.256,0,1,1-1.256-1.256,1.256,1.256,0,0,1,1.256,1.256" transform="translate(-880.703 -490.82)"/>
          <path id="Rectángulo_422818" data-name="Rectángulo 422818" d="M4.039,0h24.5a4.039,4.039,0,0,1,4.039,4.039v0a4.039,4.039,0,0,1-4.039,4.039H4.039A4.039,4.039,0,0,1,0,4.039v0A4.039,4.039,0,0,1,4.039,0Z" transform="translate(137.899 107.618)" fill="#eddbfd"/>
          <path id="Rectángulo_422819" data-name="Rectángulo 422819" d="M4.039,0h24.5a4.038,4.038,0,0,1,4.038,4.038v0a4.039,4.039,0,0,1-4.039,4.039H4.039A4.039,4.039,0,0,1,0,4.039v0A4.039,4.039,0,0,1,4.039,0Z" transform="translate(178.131 107.618)" fill="#eddbfd"/>
          <path id="Trazado_1219083" data-name="Trazado 1219083" d="M839.676,856.616a5.256,5.256,0,0,0-5.256-5.257H752.615a5.256,5.256,0,0,0-5.256,5.257v54.152a5.257,5.257,0,0,0,5.256,5.257H834.42a5.257,5.257,0,0,0,5.256-5.257Z" transform="translate(-619.876 -706.999)" fill="#aa52f9"/>
          <path id="Rectángulo_422820" data-name="Rectángulo 422820" d="M10.9,0h.3A10.9,10.9,0,0,1,22.1,10.9V11A10.9,10.9,0,0,1,11.2,21.9h-.3A10.9,10.9,0,0,1,0,11v-.1A10.9,10.9,0,0,1,10.9,0Z" transform="translate(137.239 151.456)" fill="#f6ecfe"/>
          <path id="Rectángulo_422821" data-name="Rectángulo 422821" d="M10.9,0h.3A10.9,10.9,0,0,1,22.1,10.9V11A10.9,10.9,0,0,1,11.2,21.9h-.3A10.9,10.9,0,0,1,0,11v-.1A10.9,10.9,0,0,1,10.9,0Z" transform="translate(162.593 151.456)" fill="#fff"/>
          <path id="Rectángulo_422822" data-name="Rectángulo 422822" d="M10.9,0h.3A10.9,10.9,0,0,1,22.1,10.9V11A10.9,10.9,0,0,1,11.2,21.9h-.3A10.9,10.9,0,0,1,0,11v-.1A10.9,10.9,0,0,1,10.9,0Z" transform="translate(187.948 151.456)" fill="#f6ecfe"/>
          <rect id="Rectángulo_422823" data-name="Rectángulo 422823" width="22.097" height="3.867" rx="1.933" transform="translate(137.239 178.193)" fill="#eddbfd"/>
          <path id="Trazado_1219084" data-name="Trazado 1219084" d="M974.753,1054.835h-18.4a1.847,1.847,0,0,1-1.847-1.847v-.172a1.847,1.847,0,0,1,1.847-1.847h18.4a1.847,1.847,0,0,1,1.847,1.847v.172a1.847,1.847,0,0,1-1.847,1.847" transform="translate(-791.91 -872.775)" fill="#fff"/>
          <rect id="Rectángulo_422824" data-name="Rectángulo 422824" width="22.097" height="3.867" rx="1.933" transform="translate(187.948 178.193)" fill="#eddbfd"/>
          <path id="Trazado_1219085" data-name="Trazado 1219085" d="M896.685,1100.173h-4.615a.48.48,0,1,1,0-.959h4.615a.48.48,0,0,1,0,.959" transform="translate(-739.661 -912.843)" fill="#caddff"/>
          <path id="Trazado_1219086" data-name="Trazado 1219086" d="M826.534,1100.173H816.2a.48.48,0,0,1,0-.959h10.33a.48.48,0,1,1,0,.959" transform="translate(-676.653 -912.843)" fill="#caddff"/>
          <path id="Trazado_1219087" data-name="Trazado 1219087" d="M864.846,1116.39H853.733a.48.48,0,0,1,0-.959h11.113a.48.48,0,0,1,0,.959" transform="translate(-707.822 -926.311)" fill="#caddff"/>
          <path id="Trazado_1219088" data-name="Trazado 1219088" d="M819.987,1116.39H816.2a.48.48,0,0,1,0-.959h3.783a.48.48,0,0,1,0,.959" transform="translate(-676.653 -926.311)" fill="#caddff"/>
          <path id="Trazado_1219089" data-name="Trazado 1219089" d="M833.678,1132.607H816.2a.48.48,0,1,1,0-.959h17.474a.48.48,0,1,1,0,.959" transform="translate(-676.654 -939.779)" fill="#caddff"/>
          <path id="Trazado_1219090" data-name="Trazado 1219090" d="M1020.164,1100.173h-9.943a.48.48,0,0,1,0-.959h9.943a.48.48,0,0,1,0,.959" transform="translate(-837.786 -912.843)" fill="#caddff"/>
          <path id="Trazado_1219091" data-name="Trazado 1219091" d="M970.7,1100.173h-4.908a.48.48,0,0,1,0-.959H970.7a.48.48,0,1,1,0,.959" transform="translate(-800.887 -912.843)" fill="#caddff"/>
          <path id="Trazado_1219092" data-name="Trazado 1219092" d="M983.265,1116.39H965.792a.48.48,0,0,1,0-.959h17.474a.48.48,0,0,1,0,.959" transform="translate(-800.887 -926.311)" fill="#caddff"/>
          <path id="Trazado_1219093" data-name="Trazado 1219093" d="M1053.2,1132.607H1050a.48.48,0,0,1,0-.959h3.2a.48.48,0,0,1,0,.959" transform="translate(-870.825 -939.779)" fill="#caddff"/>
          <path id="Trazado_1219094" data-name="Trazado 1219094" d="M977.518,1132.607H965.791a.48.48,0,1,1,0-.959h11.728a.48.48,0,0,1,0,.959" transform="translate(-800.886 -939.779)" fill="#caddff"/>
          <path id="Trazado_1219095" data-name="Trazado 1219095" d="M1166.611,1100.173h-10.584a.48.48,0,0,1,0-.959h10.584a.48.48,0,0,1,0,.959" transform="translate(-958.877 -912.843)" fill="#caddff"/>
          <path id="Trazado_1219096" data-name="Trazado 1219096" d="M1119.456,1100.173h-4.077a.48.48,0,0,1,0-.959h4.077a.48.48,0,1,1,0,.959" transform="translate(-925.119 -912.843)" fill="#caddff"/>
          <path id="Trazado_1219097" data-name="Trazado 1219097" d="M1202.311,1116.39h-3.3a.48.48,0,1,1,0-.959h3.3a.48.48,0,0,1,0,.959" transform="translate(-994.577 -926.311)" fill="#caddff"/>
          <path id="Trazado_1219098" data-name="Trazado 1219098" d="M1126.806,1116.39h-11.427a.48.48,0,0,1,0-.959h11.427a.48.48,0,1,1,0,.959" transform="translate(-925.119 -926.311)" fill="#caddff"/>
          <path id="Trazado_1219099" data-name="Trazado 1219099" d="M1173.813,1132.607H1164.7a.48.48,0,0,1,0-.959h9.114a.48.48,0,0,1,0,.959" transform="translate(-966.08 -939.779)" fill="#caddff"/>
          <path id="Trazado_1219100" data-name="Trazado 1219100" d="M1121.092,1132.607h-5.714a.48.48,0,0,1,0-.959h5.714a.48.48,0,0,1,0,.959" transform="translate(-925.119 -939.779)" fill="#caddff"/>
          <path id="Trazado_1219101" data-name="Trazado 1219101" d="M969.546,1174.774a1.256,1.256,0,1,1-1.256-1.256,1.256,1.256,0,0,1,1.256,1.256" transform="translate(-802.317 -974.552)"/>
          <path id="Trazado_1219102" data-name="Trazado 1219102" d="M1014.79,1174.774a1.256,1.256,0,1,1-1.256-1.256,1.256,1.256,0,0,1,1.256,1.256" transform="translate(-839.892 -974.552)"/>
          <path id="Trazado_1219103" data-name="Trazado 1219103" d="M1060.033,1174.774a1.256,1.256,0,1,1-1.256-1.256,1.256,1.256,0,0,1,1.256,1.256" transform="translate(-877.466 -974.552)"/>
          <path id="Trazado_1219104" data-name="Trazado 1219104" d="M1464.9,856.616a5.256,5.256,0,0,0-5.256-5.257h-81.805a5.256,5.256,0,0,0-5.256,5.257v54.152a5.256,5.256,0,0,0,5.256,5.257h81.805a5.257,5.257,0,0,0,5.256-5.257Z" transform="translate(-1139.126 -706.999)" fill="#aa52f9"/>
          <path id="Rectángulo_422825" data-name="Rectángulo 422825" d="M10.9,0H30.363a10.9,10.9,0,0,1,10.9,10.9v19.1a10.9,10.9,0,0,1-10.9,10.9H10.9A10.9,10.9,0,0,1,0,29.994V10.9A10.9,10.9,0,0,1,10.9,0Z" transform="translate(243.212 151.456)" fill="#f6ecfe"/>
          <path id="Trazado_1219105" data-name="Trazado 1219105" d="M1749.564,894.18a.889.889,0,0,1,.888.888v18.205a.889.889,0,0,1-.888.888h-18.4a.889.889,0,0,1-.888-.888V895.068a.889.889,0,0,1,.888-.888Zm0-.959h-18.4a1.847,1.847,0,0,0-1.847,1.847v18.205a1.847,1.847,0,0,0,1.847,1.848h18.4a1.847,1.847,0,0,0,1.847-1.848V895.068a1.847,1.847,0,0,0-1.847-1.847" transform="translate(-1435.393 -741.765)"/>
          <path id="Trazado_1219106" data-name="Trazado 1219106" d="M1821.083,1055.693h-4.615a.48.48,0,1,1,0-.959h4.615a.48.48,0,0,1,0,.959" transform="translate(-1507.377 -875.902)" fill="#fff"/>
          <path id="Trazado_1219107" data-name="Trazado 1219107" d="M1750.933,1055.693H1740.6a.48.48,0,0,1,0-.959h10.33a.48.48,0,1,1,0,.959" transform="translate(-1444.37 -875.902)" fill="#fff"/>
          <path id="Trazado_1219108" data-name="Trazado 1219108" d="M1789.244,1071.91h-11.113a.48.48,0,0,1,0-.959h11.113a.48.48,0,1,1,0,.959" transform="translate(-1475.538 -889.37)" fill="#fff"/>
          <path id="Trazado_1219109" data-name="Trazado 1219109" d="M1744.385,1071.91H1740.6a.48.48,0,0,1,0-.959h3.783a.48.48,0,0,1,0,.959" transform="translate(-1444.37 -889.37)" fill="#fff"/>
          <path id="Trazado_1219110" data-name="Trazado 1219110" d="M1821.083,1103.818h-4.615a.48.48,0,1,1,0-.959h4.615a.48.48,0,0,1,0,.959" transform="translate(-1507.377 -915.87)" fill="#fff"/>
          <path id="Trazado_1219111" data-name="Trazado 1219111" d="M1750.933,1103.818H1740.6a.48.48,0,0,1,0-.959h10.33a.48.48,0,1,1,0,.959" transform="translate(-1444.37 -915.87)" fill="#fff"/>
          <path id="Trazado_1219112" data-name="Trazado 1219112" d="M1789.244,1120.035h-11.113a.48.48,0,0,1,0-.959h11.113a.48.48,0,1,1,0,.959" transform="translate(-1475.538 -929.339)" fill="#fff"/>
          <path id="Trazado_1219113" data-name="Trazado 1219113" d="M1744.385,1120.035H1740.6a.48.48,0,0,1,0-.959h3.783a.48.48,0,0,1,0,.959" transform="translate(-1444.37 -929.339)" fill="#fff"/>
          <path id="Trazado_1219114" data-name="Trazado 1219114" d="M1758.076,1088.127H1740.6a.48.48,0,0,1,0-.959h17.474a.48.48,0,1,1,0,.959" transform="translate(-1444.37 -902.839)" fill="#fff"/>
          <path id="Trazado_1219115" data-name="Trazado 1219115" d="M1594.768,1174.774a1.256,1.256,0,1,1-1.256-1.256,1.256,1.256,0,0,1,1.256,1.256" transform="translate(-1321.566 -974.552)"/>
          <path id="Trazado_1219116" data-name="Trazado 1219116" d="M1640.012,1174.774a1.256,1.256,0,1,1-1.256-1.256,1.256,1.256,0,0,1,1.256,1.256" transform="translate(-1359.141 -974.552)"/>
          <path id="Trazado_1219117" data-name="Trazado 1219117" d="M1685.256,1174.774a1.256,1.256,0,1,1-1.256-1.256,1.256,1.256,0,0,1,1.256,1.256" transform="translate(-1396.716 -974.552)"/>
          <path id="Trazado_1219118" data-name="Trazado 1219118" d="M1464.9,1322.03a5.256,5.256,0,0,0-5.256-5.257h-81.805a5.256,5.256,0,0,0-5.256,5.257v54.152a5.256,5.256,0,0,0,5.256,5.257h81.805a5.257,5.257,0,0,0,5.256-5.257Z" transform="translate(-1139.126 -1093.526)" fill="#aa52f9"/>
          <path id="Rectángulo_422826" data-name="Rectángulo 422826" d="M13.112,0h.36A13.109,13.109,0,0,1,26.581,13.109v.124A13.112,13.112,0,0,1,13.469,26.344h-.36A13.109,13.109,0,0,1,0,13.235v-.123A13.112,13.112,0,0,1,13.112,0Z" transform="translate(267.005 231.849)" fill="#fff"/>
          <path id="Trazado_1219119" data-name="Trazado 1219119" d="M1680.907,1562.97h-5.551a.577.577,0,1,1,0-1.154h5.551a.577.577,0,1,1,0,1.154" transform="translate(-1390.101 -1297.036)" fill="#fff"/>
          <path id="Trazado_1219120" data-name="Trazado 1219120" d="M1596.52,1562.97h-12.427a.577.577,0,1,1,0-1.154h12.427a.577.577,0,0,1,0,1.154" transform="translate(-1314.307 -1297.036)" fill="#fff"/>
          <path id="Trazado_1219121" data-name="Trazado 1219121" d="M1614.986,1621.153a2.443,2.443,0,0,1-2.442,2.443h-14.817a2.443,2.443,0,0,1,0-4.886h14.817a2.442,2.442,0,0,1,2.442,2.443" transform="translate(-1324.082 -1344.286)" fill="#eddbfd"/>
          <path id="Trazado_1219122" data-name="Trazado 1219122" d="M1609.562,1628.8a.882.882,0,1,1-.882-.882.882.882,0,0,1,.882.882" transform="translate(-1334.473 -1351.934)" fill="#aa52f9"/>
          <path id="Trazado_1219123" data-name="Trazado 1219123" d="M1628.956,1628.8a.882.882,0,1,1-.882-.882.882.882,0,0,1,.882.882" transform="translate(-1350.58 -1351.934)" fill="#aa52f9"/>
          <path id="Trazado_1219124" data-name="Trazado 1219124" d="M1648.349,1628.8a.882.882,0,1,1-.882-.882.882.882,0,0,1,.882.882" transform="translate(-1366.687 -1351.934)" fill="#aa52f9"/>
          <path id="Trazado_1219125" data-name="Trazado 1219125" d="M1667.743,1628.8a.882.882,0,1,1-.882-.882.882.882,0,0,1,.882.882" transform="translate(-1382.793 -1351.934)"/>
          <path id="Trazado_1219126" data-name="Trazado 1219126" d="M1687.137,1628.8a.882.882,0,1,1-.882-.882.882.882,0,0,1,.882.882" transform="translate(-1398.9 -1351.934)" fill="#aa52f9"/>
          <path id="Trazado_1219127" data-name="Trazado 1219127" d="M1819.784,1395.729H1811.2a.48.48,0,0,1,0-.959h8.584a.48.48,0,0,1,0,.959" transform="translate(-1503.001 -1158.303)"/>
          <path id="Trazado_1219128" data-name="Trazado 1219128" d="M1765.114,1395.729h-6.361a.48.48,0,1,1,0-.959h6.361a.48.48,0,0,1,0,.959" transform="translate(-1459.443 -1158.303)"/>
          <path id="Trazado_1219129" data-name="Trazado 1219129" d="M1840.935,1411.946h-4.267a.48.48,0,0,1,0-.959h4.267a.48.48,0,0,1,0,.959" transform="translate(-1524.152 -1171.772)"/>
          <path id="Trazado_1219130" data-name="Trazado 1219130" d="M1769.381,1411.946h-10.628a.48.48,0,1,1,0-.959h10.628a.48.48,0,0,1,0,.959" transform="translate(-1459.443 -1171.772)"/>
          <path id="Trazado_1219131" data-name="Trazado 1219131" d="M1776.226,1428.163h-17.474a.48.48,0,1,1,0-.959h17.474a.48.48,0,1,1,0,.959" transform="translate(-1459.443 -1185.24)"/>
          <path id="Trazado_1219132" data-name="Trazado 1219132" d="M1496.364,1395.729h-8.584a.48.48,0,1,1,0-.959h8.584a.48.48,0,1,1,0,.959" transform="translate(-1234.399 -1158.303)"/>
          <path id="Trazado_1219133" data-name="Trazado 1219133" d="M1441.693,1395.729h-6.361a.48.48,0,0,1,0-.959h6.361a.48.48,0,0,1,0,.959" transform="translate(-1190.841 -1158.303)"/>
          <path id="Trazado_1219134" data-name="Trazado 1219134" d="M1512.816,1411.946h-5.227a.48.48,0,0,1,0-.959h5.227a.48.48,0,0,1,0,.959" transform="translate(-1250.852 -1171.772)"/>
          <path id="Trazado_1219135" data-name="Trazado 1219135" d="M1445,1411.946h-9.669a.48.48,0,0,1,0-.959H1445a.48.48,0,0,1,0,.959" transform="translate(-1190.842 -1171.772)"/>
          <path id="Trazado_1219136" data-name="Trazado 1219136" d="M1017.511,744.342a.48.48,0,0,1-.479-.48V722.4a.48.48,0,1,1,.959,0v21.459a.48.48,0,0,1-.48.48" transform="translate(-843.84 -599.502)"/>
          <path id="Trazado_1219137" data-name="Trazado 1219137" d="M1015.748,719.586a1.055,1.055,0,1,1-1.055-1.055,1.055,1.055,0,0,1,1.055,1.055" transform="translate(-841.022 -596.685)"/>
          <path id="Trazado_1219138" data-name="Trazado 1219138" d="M1015.748,846.19a1.055,1.055,0,1,1-1.055-1.055,1.055,1.055,0,0,1,1.055,1.055" transform="translate(-841.022 -701.83)"/>
          <path id="Trazado_1219139" data-name="Trazado 1219139" d="M1299.867,1040.246h-14.361a.48.48,0,1,1,0-.959h14.361a.48.48,0,0,1,0,.959" transform="translate(-1066.411 -863.073)"/>
          <path id="Trazado_1219140" data-name="Trazado 1219140" d="M1282.69,1035.894a1.055,1.055,0,1,1-1.055,1.055,1.055,1.055,0,0,1,1.055-1.055" transform="translate(-1063.594 -860.256)"/>
          <path id="Trazado_1219141" data-name="Trazado 1219141" d="M1367.415,1035.894a1.055,1.055,0,1,1-1.055,1.055,1.055,1.055,0,0,1,1.055-1.055" transform="translate(-1133.958 -860.256)"/>
          <path id="Trazado_1219142" data-name="Trazado 1219142" d="M1643.747,1244.03a.479.479,0,0,1-.479-.479v-14.363a.48.48,0,1,1,.959,0v14.363a.48.48,0,0,1-.48.479" transform="translate(-1363.931 -1020.388)"/>
          <path id="Trazado_1219143" data-name="Trazado 1219143" d="M1639.876,1311.11a1.055,1.055,0,1,1,1.055,1.055,1.055,1.055,0,0,1-1.055-1.055" transform="translate(-1361.114 -1087.947)"/>
          <path id="Trazado_1219144" data-name="Trazado 1219144" d="M1639.876,1226.371a1.055,1.055,0,1,1,1.055,1.055,1.055,1.055,0,0,1-1.055-1.055" transform="translate(-1361.114 -1017.571)"/>
          <path id="Trazado_1219158" data-name="Trazado 1219158" d="M1190.969,1783.722l.481,3.754,4.115.39a15.671,15.671,0,0,0,1,2.441l-2.653,3.163,2.293,3.01,3.759-1.72a15.893,15.893,0,0,0,2.083,1.61l-.717,4.072,3.491,1.461,2.392-3.365a15.683,15.683,0,0,0,2.613.349l1.415,3.884,3.753-.481.39-4.115a15.671,15.671,0,0,0,2.441-1l3.163,2.653,3.01-2.294-1.72-3.76a15.919,15.919,0,0,0,1.61-2.084l4.071.717,1.46-3.492-3.364-2.392a15.683,15.683,0,0,0,.349-2.614l3.884-1.415-.481-3.754-4.115-.39a15.657,15.657,0,0,0-1-2.441l2.653-3.163-2.293-3.01-3.759,1.72a15.9,15.9,0,0,0-2.083-1.611l.717-4.072-3.491-1.461-2.392,3.365a15.683,15.683,0,0,0-2.613-.349l-1.415-3.884-3.754.481-.39,4.115a15.662,15.662,0,0,0-2.441,1l-3.163-2.653-3.01,2.293,1.72,3.76a15.869,15.869,0,0,0-1.61,2.084l-4.072-.717-1.46,3.492,3.364,2.392a15.686,15.686,0,0,0-.349,2.614Zm18.419-10.275a9.743,9.743,0,1,1-8.424,10.9,9.742,9.742,0,0,1,8.424-10.9" transform="translate(-1045.693 -1536.366)" fill="#fff"/>
          <path id="Trazado_1219159" data-name="Trazado 1219159" d="M1208.488,1800.586a.562.562,0,0,1-.527-.369l-1.288-3.538a16.294,16.294,0,0,1-1.968-.262l-2.179,3.066a.564.564,0,0,1-.674.193l-3.491-1.46a.561.561,0,0,1-.336-.615l.653-3.711a16.5,16.5,0,0,1-1.567-1.211l-3.426,1.568a.562.562,0,0,1-.68-.17l-2.293-3.01a.561.561,0,0,1,.017-.7l2.417-2.882a16.3,16.3,0,0,1-.749-1.838l-3.749-.355a.562.562,0,0,1-.5-.488l-.481-3.754a.561.561,0,0,1,.364-.6l3.538-1.288a16.379,16.379,0,0,1,.262-1.968l-3.065-2.179a.561.561,0,0,1-.193-.674l1.46-3.491a.563.563,0,0,1,.615-.336l3.71.653a16.553,16.553,0,0,1,1.211-1.568L1194,1766.17a.562.562,0,0,1,.17-.68l3.01-2.294a.56.56,0,0,1,.7.017l2.882,2.417a16.308,16.308,0,0,1,1.838-.75l.355-3.749a.561.561,0,0,1,.487-.5l3.753-.481a.564.564,0,0,1,.6.365l1.288,3.539a16.342,16.342,0,0,1,1.967.262l2.179-3.066a.561.561,0,0,1,.674-.192l3.491,1.46a.561.561,0,0,1,.336.615l-.653,3.711a16.482,16.482,0,0,1,1.567,1.212l3.425-1.568a.561.561,0,0,1,.68.17l2.293,3.011a.561.561,0,0,1-.016.7l-2.417,2.882a16.26,16.26,0,0,1,.75,1.838l3.748.355a.561.561,0,0,1,.5.487l.481,3.754a.561.561,0,0,1-.365.6l-3.537,1.289a16.323,16.323,0,0,1-.262,1.967l3.065,2.18a.561.561,0,0,1,.193.674l-1.46,3.491a.565.565,0,0,1-.615.336l-3.71-.653a16.588,16.588,0,0,1-1.212,1.568l1.567,3.426a.561.561,0,0,1-.17.68l-3.01,2.294a.561.561,0,0,1-.7-.016l-2.882-2.417a16.263,16.263,0,0,1-1.838.749l-.355,3.75a.561.561,0,0,1-.487.5l-3.754.481a.544.544,0,0,1-.071,0m-4.027-5.355a.587.587,0,0,1,.121.013,15.209,15.209,0,0,0,2.52.337.561.561,0,0,1,.5.368l1.261,3.462,2.863-.367.347-3.669a.561.561,0,0,1,.391-.482,15.17,15.17,0,0,0,2.354-.961.559.559,0,0,1,.616.069l2.819,2.365,2.3-1.75-1.534-3.352a.561.561,0,0,1,.1-.612,15.382,15.382,0,0,0,1.554-2.01.561.561,0,0,1,.568-.247l3.629.639,1.114-2.664-3-2.132a.56.56,0,0,1-.222-.579,15.168,15.168,0,0,0,.336-2.52.561.561,0,0,1,.368-.5l3.462-1.261-.367-2.864-3.668-.347a.561.561,0,0,1-.483-.391,15.157,15.157,0,0,0-.96-2.354.561.561,0,0,1,.07-.616l2.365-2.82-1.75-2.3-3.351,1.533a.562.562,0,0,1-.612-.1,15.322,15.322,0,0,0-2.009-1.554.56.56,0,0,1-.247-.568l.639-3.63-2.663-1.114-2.132,3a.562.562,0,0,1-.579.223,15.181,15.181,0,0,0-2.52-.337.561.561,0,0,1-.5-.368l-1.261-3.462-2.863.367-.348,3.669a.56.56,0,0,1-.39.482,15.23,15.23,0,0,0-2.354.961.56.56,0,0,1-.616-.069l-2.819-2.365-2.3,1.75,1.533,3.351a.561.561,0,0,1-.1.612,15.39,15.39,0,0,0-1.553,2.01.563.563,0,0,1-.568.248l-3.629-.639-1.114,2.663,3,2.132a.561.561,0,0,1,.223.579,15.186,15.186,0,0,0-.336,2.52.561.561,0,0,1-.368.5l-3.462,1.261.367,2.864,3.668.347a.56.56,0,0,1,.482.39,15.191,15.191,0,0,0,.96,2.354.561.561,0,0,1-.07.616l-2.364,2.819,1.75,2.3,3.351-1.533a.562.562,0,0,1,.612.1,15.371,15.371,0,0,0,2.01,1.553.561.561,0,0,1,.247.568l-.639,3.631,2.663,1.114,2.132-3a.562.562,0,0,1,.457-.236m3.4-4.561a10.313,10.313,0,1,1,1.33-.085,10.462,10.462,0,0,1-1.33.085m.04-19.489a9.242,9.242,0,0,0-1.186.076,9.141,9.141,0,1,0,1.186-.076m-1.257-.481h0Z" transform="translate(-1042.944 -1533.62)" fill="#aa52f9"/>
          <path id="Trazado_1219160" data-name="Trazado 1219160" d="M1362.507,1623.936l.264,2.06,2.258.214a8.626,8.626,0,0,0,.547,1.34l-1.456,1.736,1.258,1.652,2.063-.944a8.734,8.734,0,0,0,1.143.884l-.393,2.234,1.916.8,1.313-1.846a8.6,8.6,0,0,0,1.434.191l.776,2.131,2.059-.264.214-2.258a8.6,8.6,0,0,0,1.339-.547l1.735,1.456,1.652-1.259-.944-2.063a8.717,8.717,0,0,0,.884-1.143l2.234.393.8-1.916-1.846-1.313a8.609,8.609,0,0,0,.191-1.434l2.131-.776-.264-2.06-2.258-.214a8.612,8.612,0,0,0-.547-1.339l1.456-1.736-1.258-1.652-2.063.944a8.7,8.7,0,0,0-1.143-.884l.393-2.234-1.916-.8-1.312,1.846a8.605,8.605,0,0,0-1.434-.191l-.776-2.131-2.06.264-.214,2.258a8.6,8.6,0,0,0-1.339.547l-1.735-1.456-1.652,1.258.944,2.063a8.726,8.726,0,0,0-.884,1.143l-2.234-.393-.8,1.916,1.846,1.313a8.606,8.606,0,0,0-.191,1.434Zm10.107-5.638a5.346,5.346,0,1,1-4.622,5.982,5.345,5.345,0,0,1,4.622-5.982" transform="translate(-1177.995 -1395.402)" fill="#fff"/>
          <path id="Trazado_1219161" data-name="Trazado 1219161" d="M1370.5,1631.458a.35.35,0,0,1-.328-.23l-.686-1.885a8.785,8.785,0,0,1-1.01-.135l-1.161,1.633a.351.351,0,0,1-.42.12l-1.887-.79a.35.35,0,0,1-.209-.383l.348-1.977a9.028,9.028,0,0,1-.8-.622l-1.825.835a.35.35,0,0,1-.424-.106l-1.239-1.627a.349.349,0,0,1,.01-.437l1.287-1.535a8.849,8.849,0,0,1-.385-.943l-2-.189a.35.35,0,0,1-.314-.3l-.26-2.029a.35.35,0,0,1,.227-.373l1.884-.686a8.874,8.874,0,0,1,.135-1.01l-1.633-1.161a.35.35,0,0,1-.12-.42l.789-1.887a.351.351,0,0,1,.383-.21l1.976.348a9.105,9.105,0,0,1,.622-.8l-.835-1.824a.35.35,0,0,1,.106-.424l1.627-1.24a.35.35,0,0,1,.437.01l1.535,1.287a8.825,8.825,0,0,1,.943-.385l.189-2a.349.349,0,0,1,.3-.314l2.029-.26a.35.35,0,0,1,.373.227l.687,1.885a8.8,8.8,0,0,1,1.009.135l1.161-1.633a.35.35,0,0,1,.42-.12l1.887.79a.35.35,0,0,1,.209.383l-.348,1.976a8.98,8.98,0,0,1,.8.622l1.825-.835a.35.35,0,0,1,.424.106l1.24,1.628a.35.35,0,0,1-.01.437l-1.287,1.535a8.975,8.975,0,0,1,.385.944l2,.189a.35.35,0,0,1,.314.3l.26,2.029a.349.349,0,0,1-.227.373l-1.884.686a8.868,8.868,0,0,1-.134,1.01l1.633,1.161a.35.35,0,0,1,.12.42l-.789,1.887a.353.353,0,0,1-.383.209l-1.976-.348a8.977,8.977,0,0,1-.622.8l.835,1.825a.35.35,0,0,1-.106.424l-1.627,1.24a.35.35,0,0,1-.437-.01l-1.535-1.288a8.9,8.9,0,0,1-.943.385l-.189,2a.35.35,0,0,1-.3.314l-2.029.26a.344.344,0,0,1-.045,0m-2.177-2.988a.355.355,0,0,1,.076.008,8.129,8.129,0,0,0,1.354.181.35.35,0,0,1,.311.23l.669,1.837,1.474-.189.185-1.946a.35.35,0,0,1,.243-.3,8.179,8.179,0,0,0,1.265-.516.348.348,0,0,1,.384.043l1.5,1.255,1.182-.9-.814-1.778a.349.349,0,0,1,.06-.381,8.3,8.3,0,0,0,.835-1.081.351.351,0,0,1,.354-.154l1.925.339.573-1.372-1.591-1.131a.35.35,0,0,1-.139-.36,8.167,8.167,0,0,0,.181-1.355.349.349,0,0,1,.23-.311l1.837-.669-.189-1.475-1.946-.184a.35.35,0,0,1-.3-.243,8.082,8.082,0,0,0-.516-1.265.351.351,0,0,1,.044-.384l1.254-1.5-.9-1.182-1.778.813a.35.35,0,0,1-.381-.06,8.263,8.263,0,0,0-1.081-.835.35.35,0,0,1-.154-.354l.339-1.926-1.371-.574-1.131,1.591a.352.352,0,0,1-.361.139,8.174,8.174,0,0,0-1.354-.181.35.35,0,0,1-.311-.229l-.669-1.837-1.474.189-.184,1.947a.349.349,0,0,1-.243.3,8.169,8.169,0,0,0-1.265.516.35.35,0,0,1-.384-.043l-1.5-1.255-1.182.9.814,1.778a.35.35,0,0,1-.06.381,8.246,8.246,0,0,0-.835,1.081.349.349,0,0,1-.354.154l-1.926-.339-.573,1.372,1.591,1.131a.349.349,0,0,1,.139.361,8.154,8.154,0,0,0-.18,1.355.35.35,0,0,1-.23.311l-1.837.669.189,1.475,1.946.184a.349.349,0,0,1,.3.243,8.145,8.145,0,0,0,.517,1.265.35.35,0,0,1-.043.384l-1.254,1.5.9,1.183,1.778-.814a.35.35,0,0,1,.381.06,8.272,8.272,0,0,0,1.08.835.35.35,0,0,1,.154.354l-.339,1.926,1.371.574,1.131-1.591a.35.35,0,0,1,.285-.147m1.844-2.373a5.618,5.618,0,1,1,.717-.046,5.69,5.69,0,0,1-.717.046m.014-10.535a4.969,4.969,0,0,0-.635.041h0a4.9,4.9,0,1,0,.635-.041m-.679-.306h0Z" transform="translate(-1175.064 -1392.472)" fill="#aa52f9"/>
          <path id="Trazado_1219162" data-name="Trazado 1219162" d="M1430.079,1828.116l1.282,5.244,5.894-.106a22.368,22.368,0,0,0,1.8,3.3l-3.253,4.908,3.732,3.9,5.053-3.04a22.649,22.649,0,0,0,3.21,1.949l-.365,5.886,5.181,1.511,2.852-5.152a22.358,22.358,0,0,0,3.759.076l2.626,5.279,5.243-1.282-.106-5.895a22.375,22.375,0,0,0,3.3-1.8l4.907,3.254,3.9-3.732-3.039-5.053a22.722,22.722,0,0,0,1.949-3.211l5.885.365,1.511-5.182-5.151-2.852a22.368,22.368,0,0,0,.076-3.76l5.277-2.626-1.282-5.244-5.894.106a22.368,22.368,0,0,0-1.8-3.3l3.254-4.908-3.732-3.9-5.052,3.04a22.684,22.684,0,0,0-3.211-1.949l.365-5.886-5.182-1.511-2.851,5.152a22.346,22.346,0,0,0-3.759-.076l-2.626-5.279-5.243,1.282.106,5.9a22.365,22.365,0,0,0-3.3,1.8l-4.907-3.254-3.9,3.732,3.04,5.053a22.63,22.63,0,0,0-1.949,3.211l-5.885-.365-1.511,5.182,5.151,2.852a22.367,22.367,0,0,0-.076,3.76Zm24.461-17.511a13.9,13.9,0,1,1-10.2,16.8,13.894,13.894,0,0,1,10.2-16.8" transform="translate(-1246.715 -1558.35)" fill="#fff"/>
          <path id="Trazado_1219163" data-name="Trazado 1219163" d="M1459.1,1849.68a.561.561,0,0,1-.5-.311l-2.462-4.948a23.061,23.061,0,0,1-3.109-.062l-2.673,4.829a.561.561,0,0,1-.648.267l-5.181-1.511a.561.561,0,0,1-.4-.573l.342-5.518a23.284,23.284,0,0,1-2.654-1.611l-4.737,2.85a.562.562,0,0,1-.695-.093l-3.732-3.9a.561.561,0,0,1-.062-.7l3.05-4.6a23.017,23.017,0,0,1-1.49-2.73l-5.525.1a.585.585,0,0,1-.555-.428l-1.282-5.244a.56.56,0,0,1,.295-.636l4.947-2.462a23.011,23.011,0,0,1,.063-3.11l-4.829-2.674a.562.562,0,0,1-.267-.648l1.511-5.182a.56.56,0,0,1,.573-.4l5.517.342a23.286,23.286,0,0,1,1.611-2.655l-2.85-4.738a.561.561,0,0,1,.093-.695l3.9-3.732a.562.562,0,0,1,.7-.062l4.6,3.05a23.125,23.125,0,0,1,2.729-1.49l-.1-5.526a.561.561,0,0,1,.428-.555l5.243-1.282a.559.559,0,0,1,.635.3l2.462,4.948a23.067,23.067,0,0,1,3.109.063l2.673-4.829a.564.564,0,0,1,.648-.267l5.181,1.511a.561.561,0,0,1,.4.573l-.342,5.519a23.235,23.235,0,0,1,2.654,1.611l4.737-2.85a.561.561,0,0,1,.695.093l3.732,3.9a.561.561,0,0,1,.062.7l-3.05,4.6a23.052,23.052,0,0,1,1.49,2.73l5.525-.1h.01a.562.562,0,0,1,.545.428l1.282,5.243a.561.561,0,0,1-.295.636l-4.947,2.462a23.033,23.033,0,0,1-.062,3.11l4.828,2.673a.561.561,0,0,1,.267.648l-1.511,5.183a.56.56,0,0,1-.573.4l-5.517-.342a23.262,23.262,0,0,1-1.611,2.654l2.85,4.738a.561.561,0,0,1-.093.695l-3.9,3.732a.561.561,0,0,1-.7.062l-4.6-3.05a22.988,22.988,0,0,1-2.729,1.49l.1,5.526a.561.561,0,0,1-.428.555l-5.243,1.282a.556.556,0,0,1-.133.016m-2.626-6.4a.56.56,0,0,1,.5.311l2.426,4.876,4.371-1.069-.1-5.446a.56.56,0,0,1,.333-.523,21.9,21.9,0,0,0,3.217-1.758.56.56,0,0,1,.62,0l4.533,3.006,3.251-3.112-2.808-4.669a.561.561,0,0,1,.027-.619,22.19,22.19,0,0,0,1.9-3.131.562.562,0,0,1,.537-.31l5.437.337,1.26-4.321-4.758-2.635a.562.562,0,0,1-.286-.55,21.856,21.856,0,0,0,.074-3.666.562.562,0,0,1,.31-.537l4.876-2.427-1.069-4.372-5.445.1a.554.554,0,0,1-.523-.334,21.862,21.862,0,0,0-1.757-3.218.561.561,0,0,1,0-.62l3.006-4.534-3.111-3.252-4.668,2.809a.562.562,0,0,1-.619-.027,22.137,22.137,0,0,0-3.131-1.9.561.561,0,0,1-.31-.537l.337-5.438-4.32-1.26-2.634,4.759a.559.559,0,0,1-.55.286,21.82,21.82,0,0,0-3.665-.074.567.567,0,0,1-.537-.31l-2.427-4.876-4.371,1.069.1,5.447a.56.56,0,0,1-.333.523,21.9,21.9,0,0,0-3.218,1.758.56.56,0,0,1-.62,0l-4.533-3.006-3.251,3.112,2.808,4.669a.561.561,0,0,1-.027.619,22.168,22.168,0,0,0-1.9,3.132.572.572,0,0,1-.537.31l-5.437-.337-1.26,4.321,4.759,2.635a.562.562,0,0,1,.286.55,21.866,21.866,0,0,0-.074,3.666.561.561,0,0,1-.31.537l-4.876,2.427,1.069,4.372,5.445-.1a.586.586,0,0,1,.523.334,21.874,21.874,0,0,0,1.757,3.218.563.563,0,0,1,0,.62l-3.006,4.534,3.111,3.252,4.668-2.809a.56.56,0,0,1,.619.027,22.177,22.177,0,0,0,3.131,1.9.562.562,0,0,1,.31.537l-.337,5.438,4.32,1.26,2.634-4.76a.56.56,0,0,1,.55-.286,21.809,21.809,0,0,0,3.665.074h.035m-1.412-7.464a14.477,14.477,0,1,1,3.461-.42,14.558,14.558,0,0,1-3.461.42m-3.274-27.961.133.545a13.333,13.333,0,1,0,10.086,1.554,13.35,13.35,0,0,0-10.086-1.554Z" transform="translate(-1243.965 -1555.598)" fill="#aa52f9"/>
          <path id="Trazado_1219164" data-name="Trazado 1219164" d="M1599.5,466.924a25.71,25.71,0,1,1-25.71-25.715,25.712,25.712,0,0,1,25.71,25.715" transform="translate(-1284.879 -366.368)" fill="#fff"/>
          <path id="Trazado_1219165" data-name="Trazado 1219165" d="M1571.043,490.449a26.276,26.276,0,1,1,26.271-26.275,26.3,26.3,0,0,1-26.271,26.275m0-51.429a25.153,25.153,0,1,0,25.149,25.154,25.18,25.18,0,0,0-25.149-25.154" transform="translate(-1282.13 -363.618)"/>
          <path id="Trazado_1219166" data-name="Trazado 1219166" d="M1584.943,558.415l8.757,3.325v3.607l-12.423-5.537v-2.865l12.423-5.522v3.607Z" transform="translate(-1312.448 -457.9)" fill="#aa52f9"/>
          <path id="Trazado_1219167" data-name="Trazado 1219167" d="M1669.93,543.888h-2.835l8.5-23.47h2.835Z" transform="translate(-1383.72 -432.151)" fill="#aa52f9"/>
          <path id="Trazado_1219168" data-name="Trazado 1219168" d="M1758.232,558.341l-9.173-3.37v-3.548l12.824,5.522v2.865l-12.824,5.522v-3.548Z" transform="translate(-1451.791 -457.901)" fill="#aa52f9"/>
        </g>
      </g>
    </g>
  </g>
</svg>
