<svg xmlns="http://www.w3.org/2000/svg" xmlns:xlink="http://www.w3.org/1999/xlink" width="106.16" height="106.16" viewBox="0 0 106.16 106.16">
  <defs>
    <filter id="Trazado_982547" x="0" y="0" width="106.16" height="106.16" filterUnits="userSpaceOnUse">
      <feOffset dy="3" input="SourceAlpha"/>
      <feGaussianBlur stdDeviation="3" result="blur"/>
      <feFlood flood-opacity="0.161"/>
      <feComposite operator="in" in2="blur"/>
      <feComposite in="SourceGraphic"/>
    </filter>
  </defs>
  <g id="Grupo_1228599" data-name="Grupo 1228599" transform="translate(-190.925 -3830)">
    <g id="Grupo_1225951" data-name="Grupo 1225951" transform="translate(-0.075 368.536)">
      <g id="Grupo_1224851" data-name="Grupo 1224851" transform="translate(0 1738.464)">
        <g id="Grupo_1206130" data-name="Grupo 1206130" transform="translate(0 -59)">
          <g id="Grupo_1203672" data-name="Grupo 1203672" transform="translate(0.08 -4797.878)">
            <g id="Grupo_1203344" data-name="Grupo 1203344" transform="translate(-81.08 5174.875)">
              <g id="Grupo_1177900" data-name="Grupo 1177900" transform="translate(281 1411.003)">
                <g id="Grupo_1172010" data-name="Grupo 1172010" transform="translate(0)">
                  <g id="Grupo_1171046" data-name="Grupo 1171046">
                    <g id="Grupo_1148525" data-name="Grupo 1148525">
                      <g transform="matrix(1, 0, 0, 1, -9, -6)" filter="url(#Trazado_982547)">
                        <g id="Trazado_982547-2" data-name="Trazado 982547" transform="translate(9 6)" fill="#e5ebfb">
                          <path d="M 44.0802001953125 86.660400390625 C 38.33124923706055 86.660400390625 32.75506210327148 85.53479766845703 27.50652503967285 83.31484985351562 C 22.43628692626953 81.17032623291016 17.88242530822754 78.09992218017578 13.97144985198975 74.18894958496094 C 10.06047534942627 70.27797698974609 6.99007511138916 65.72411346435547 4.845550060272217 60.65387344360352 C 2.625600099563599 55.40533828735352 1.500000238418579 49.82915115356445 1.500000238418579 44.0802001953125 C 1.500000238418579 38.33124923706055 2.625600099563599 32.75506210327148 4.845550060272217 27.50652503967285 C 6.99007511138916 22.43628692626953 10.06047534942627 17.88242530822754 13.97144985198975 13.97144985198975 C 17.88242530822754 10.06047534942627 22.43628692626953 6.99007511138916 27.50652503967285 4.845550060272217 C 32.75506210327148 2.625600099563599 38.33124923706055 1.500000238418579 44.0802001953125 1.500000238418579 C 49.82915115356445 1.500000238418579 55.40533828735352 2.625600099563599 60.65387344360352 4.845550060272217 C 65.72411346435547 6.99007511138916 70.27797698974609 10.06047534942627 74.18894958496094 13.97144985198975 C 78.09992218017578 17.88242530822754 81.17032623291016 22.43628692626953 83.31484985351562 27.50652503967285 C 85.53479766845703 32.75506210327148 86.660400390625 38.33124923706055 86.660400390625 44.0802001953125 C 86.660400390625 49.82915115356445 85.53479766845703 55.40533828735352 83.31484985351562 60.65387344360352 C 81.17032623291016 65.72411346435547 78.09992218017578 70.27797698974609 74.18894958496094 74.18894958496094 C 70.27797698974609 78.09992218017578 65.72411346435547 81.17032623291016 60.65387344360352 83.31484985351562 C 55.40533828735352 85.53479766845703 49.82915115356445 86.660400390625 44.0802001953125 86.660400390625 Z" stroke="none"/>
                          <path d="M 44.0802001953125 3 C 38.53308486938477 3 33.15349960327148 4.085746765136719 28.09085845947266 6.227058410644531 C 23.19941711425781 8.29595947265625 18.80581665039062 11.25841522216797 15.03211212158203 15.03211212158203 C 11.25841522216797 18.80581665039062 8.29595947265625 23.19941711425781 6.227058410644531 28.09085845947266 C 4.085746765136719 33.15349960327148 3 38.53308486938477 3 44.0802001953125 C 3 49.62731552124023 4.085746765136719 55.00691604614258 6.227058410644531 60.06954193115234 C 8.29595947265625 64.96098327636719 11.25841522216797 69.35458374023438 15.03211212158203 73.12828826904297 C 18.80581665039062 76.90198516845703 23.19941711425781 79.86444091796875 28.09085845947266 81.93334197998047 C 33.15349960327148 84.07466125488281 38.53308486938477 85.160400390625 44.0802001953125 85.160400390625 C 49.62731552124023 85.160400390625 55.00691604614258 84.07466125488281 60.06954193115234 81.93334197998047 C 64.96099853515625 79.86444091796875 69.35458374023438 76.90198516845703 73.12828826904297 73.12828826904297 C 76.90198516845703 69.35458374023438 79.86444091796875 64.96099853515625 81.93334197998047 60.06954193115234 C 84.07466125488281 55.00691604614258 85.160400390625 49.62731552124023 85.160400390625 44.0802001953125 C 85.160400390625 38.53308486938477 84.07466125488281 33.15349960327148 81.93334197998047 28.09085845947266 C 79.86444091796875 23.19941711425781 76.90198516845703 18.80581665039062 73.12828826904297 15.03211212158203 C 69.35458374023438 11.25841522216797 64.96098327636719 8.29595947265625 60.06954193115234 6.227058410644531 C 55.00691604614258 4.085746765136719 49.62731552124023 3 44.0802001953125 3 M 44.0802001953125 0 C 68.42502593994141 0 88.160400390625 19.73538970947266 88.160400390625 44.0802001953125 C 88.160400390625 68.42502593994141 68.42502593994141 88.160400390625 44.0802001953125 88.160400390625 C 19.73538970947266 88.160400390625 0 68.42502593994141 0 44.0802001953125 C 0 19.73538970947266 19.73538970947266 0 44.0802001953125 0 Z" stroke="none" fill="#0b47db"/>
                        </g>
                      </g>
                    </g>
                  </g>
                </g>
              </g>
            </g>
          </g>
        </g>
      </g>
    </g>
    <g id="error-de-programa" transform="translate(220.587 3856.554)">
      <path id="Trazado_1218059" data-name="Trazado 1218059" d="M7.5,95.785v34.036a3.352,3.352,0,0,0,3.352,3.352h38.76a3.352,3.352,0,0,0,3.352-3.352V95.785Z" transform="translate(-6.815 -87.023)" fill="#70b5e8"/>
      <path id="Trazado_1218060" data-name="Trazado 1218060" d="M10.245,129.821V95.785H7.5v34.036a3.352,3.352,0,0,0,3.352,3.352H13.6A3.352,3.352,0,0,1,10.245,129.821Z" transform="translate(-6.815 -87.023)" fill="#52a5d8"/>
      <path id="Trazado_1218061" data-name="Trazado 1218061" d="M52.965,10.853A3.352,3.352,0,0,0,49.613,7.5H10.853A3.352,3.352,0,0,0,7.5,10.853v5.708H52.965Z" transform="translate(-6.815 -6.815)" fill="#666"/>
      <path id="Trazado_1218062" data-name="Trazado 1218062" d="M13.6,7.5H10.853A3.352,3.352,0,0,0,7.5,10.852V16.56h2.748V10.852A3.352,3.352,0,0,1,13.6,7.5Z" transform="translate(-6.815 -6.814)" fill="#535454"/>
      <circle id="Elipse_13370" data-name="Elipse 13370" cx="6.587" cy="6.587" r="6.587" transform="translate(16 20.853)" fill="#f94a46"/>
      <path id="Trazado_1218063" data-name="Trazado 1218063" d="M178.154,239.647a6.588,6.588,0,0,1,1.295-8.187,6.587,6.587,0,1,0,6.443,11.159A6.588,6.588,0,0,1,178.154,239.647Z" transform="translate(-158.895 -210.287)" fill="#ea3939"/>
      <path id="Trazado_1218064" data-name="Trazado 1218064" d="M287.724,184.446a.686.686,0,1,0,0,1.372h2.607a.686.686,0,1,0,0-1.372Z" transform="translate(-260.781 -167.573)"/>
      <path id="Trazado_1218065" data-name="Trazado 1218065" d="M102.463,185.819h2.607a.686.686,0,1,0,0-1.372h-2.607a.686.686,0,1,0,0,1.372Z" transform="translate(-92.467 -167.574)"/>
      <path id="Trazado_1218066" data-name="Trazado 1218066" d="M157.884,185.133a.686.686,0,0,0,.686.686h9a.686.686,0,1,0,0-1.372h-9A.686.686,0,0,0,157.884,185.133Z" transform="translate(-143.441 -167.574)"/>
      <path id="Trazado_1218067" data-name="Trazado 1218067" d="M345.791,185.133a.686.686,0,0,0,.686.686h8.668a.686.686,0,1,0,0-1.372h-8.668A.686.686,0,0,0,345.791,185.133Z" transform="translate(-314.159 -167.574)"/>
      <path id="Trazado_1218068" data-name="Trazado 1218068" d="M55.324,50.777a.729.729,0,0,0,.1-.086.673.673,0,0,0,.085-.1.685.685,0,0,0,.063-.118.77.77,0,0,0,.039-.128.744.744,0,0,0,.013-.135.728.728,0,0,0-.013-.134.779.779,0,0,0-.039-.129.7.7,0,0,0-.063-.118.727.727,0,0,0-.085-.1.711.711,0,0,0-.1-.086.673.673,0,0,0-.119-.062.686.686,0,1,0,.119,1.2Z" transform="translate(-49.291 -44.991)"/>
      <path id="Trazado_1218069" data-name="Trazado 1218069" d="M86.154,50.587a.632.632,0,0,0,.085.1.672.672,0,0,0,.351.187.66.66,0,0,0,.134.014.672.672,0,0,0,.134-.014.687.687,0,0,0,.128-.038.742.742,0,0,0,.119-.063.73.73,0,0,0,.1-.086.673.673,0,0,0,.085-.1.685.685,0,0,0,.063-.118.7.7,0,0,0,.039-.128.743.743,0,0,0,.013-.135.727.727,0,0,0-.013-.134.689.689,0,0,0-.1-.247.677.677,0,0,0-.085-.1.712.712,0,0,0-.1-.086.67.67,0,0,0-.119-.062.633.633,0,0,0-.128-.039.661.661,0,0,0-.268,0,.653.653,0,0,0-.129.039.661.661,0,0,0-.118.062.728.728,0,0,0-.1.086.627.627,0,0,0-.085.1.7.7,0,0,0-.063.118.71.71,0,0,0-.039.129.656.656,0,0,0-.014.134.679.679,0,0,0,.014.135.7.7,0,0,0,.1.246Z" transform="translate(-78.167 -44.99)"/>
      <path id="Trazado_1218070" data-name="Trazado 1218070" d="M117.906,50.593a.633.633,0,0,0,.085.1.672.672,0,0,0,.351.187.66.66,0,0,0,.134.014.691.691,0,0,0,.486-.2.673.673,0,0,0,.085-.1.685.685,0,0,0,.063-.118.7.7,0,0,0,.039-.128.743.743,0,0,0,.013-.135.727.727,0,0,0-.013-.134.689.689,0,0,0-.1-.247.676.676,0,0,0-.085-.1.694.694,0,0,0-.619-.188.652.652,0,0,0-.129.039.662.662,0,0,0-.118.062.729.729,0,0,0-.1.086.628.628,0,0,0-.085.1.7.7,0,0,0-.063.118.709.709,0,0,0-.039.129.656.656,0,0,0-.014.134.68.68,0,0,0,.014.135.7.7,0,0,0,.1.246Z" transform="translate(-107.015 -44.996)"/>
      <path id="Trazado_1218071" data-name="Trazado 1218071" d="M177.38,50.894a.686.686,0,0,0,0-1.372h-19.9a.686.686,0,1,0,0,1.372Z" transform="translate(-142.453 -44.992)"/>
      <path id="Trazado_1218072" data-name="Trazado 1218072" d="M416.105,50.894a.686.686,0,0,0,0-1.372H413.5a.686.686,0,1,0,0,1.372Z" transform="translate(-375.049 -44.992)"/>
      <path id="Trazado_1218073" data-name="Trazado 1218073" d="M57.343,184.446H55.976a.686.686,0,1,0,0,1.372h1.367a.686.686,0,1,0,0-1.372Z" transform="translate(-50.232 -167.573)"/>
      <path id="Trazado_1218074" data-name="Trazado 1218074" d="M57.343,220.448H55.976a.686.686,0,1,0,0,1.372h1.367a.686.686,0,1,0,0-1.372Z" transform="translate(-50.232 -200.282)"/>
      <path id="Trazado_1218075" data-name="Trazado 1218075" d="M57.343,256.451H55.976a.686.686,0,1,0,0,1.372h1.367a.686.686,0,1,0,0-1.372Z" transform="translate(-50.232 -232.992)"/>
      <path id="Trazado_1218076" data-name="Trazado 1218076" d="M57.343,292.453H55.976a.686.686,0,1,0,0,1.372h1.367a.686.686,0,1,0,0-1.372Z" transform="translate(-50.232 -265.7)"/>
      <path id="Trazado_1218077" data-name="Trazado 1218077" d="M57.343,328.455H55.976a.686.686,0,1,0,0,1.372h1.367a.686.686,0,1,0,0-1.372Z" transform="translate(-50.232 -298.409)"/>
      <path id="Trazado_1218078" data-name="Trazado 1218078" d="M57.343,364.457H55.976a.686.686,0,0,0,0,1.372h1.367a.686.686,0,0,0,0-1.372Z" transform="translate(-50.232 -331.118)"/>
      <path id="Trazado_1218079" data-name="Trazado 1218079" d="M102.463,221.821h4.9a.686.686,0,1,0,0-1.372h-4.9a.686.686,0,1,0,0,1.372Z" transform="translate(-92.467 -200.283)"/>
      <path id="Trazado_1218080" data-name="Trazado 1218080" d="M102.463,257.823h2.745a.686.686,0,1,0,0-1.372h-2.745a.686.686,0,1,0,0,1.372Z" transform="translate(-92.467 -232.992)"/>
      <path id="Trazado_1218081" data-name="Trazado 1218081" d="M102.463,293.826h2.745a.686.686,0,1,0,0-1.372h-2.745a.686.686,0,1,0,0,1.372Z" transform="translate(-92.467 -265.701)"/>
      <path id="Trazado_1218082" data-name="Trazado 1218082" d="M102.463,329.828h2.745a.686.686,0,0,0,0-1.372h-2.745a.686.686,0,1,0,0,1.372Z" transform="translate(-92.467 -298.41)"/>
      <path id="Trazado_1218083" data-name="Trazado 1218083" d="M102.463,365.83h4.9a.686.686,0,1,0,0-1.372h-4.9a.686.686,0,1,0,0,1.372Z" transform="translate(-92.467 -331.118)"/>
      <path id="Trazado_1218084" data-name="Trazado 1218084" d="M341.643,220.448H331.615a.686.686,0,1,0,0,1.372h10.028a.686.686,0,0,0,0-1.372Z" transform="translate(-300.657 -200.282)"/>
      <path id="Trazado_1218085" data-name="Trazado 1218085" d="M363,256.451h-7.878a.686.686,0,1,0,0,1.372H363a.686.686,0,1,0,0-1.372Z" transform="translate(-322.01 -232.992)"/>
      <path id="Trazado_1218086" data-name="Trazado 1218086" d="M363,292.453h-7.878a.686.686,0,1,0,0,1.372H363a.686.686,0,0,0,0-1.372Z" transform="translate(-322.01 -265.7)"/>
      <path id="Trazado_1218087" data-name="Trazado 1218087" d="M363,328.455h-7.878a.686.686,0,1,0,0,1.372H363a.686.686,0,0,0,0-1.372Z" transform="translate(-322.01 -298.409)"/>
      <path id="Trazado_1218088" data-name="Trazado 1218088" d="M341.643,364.457H331.615a.686.686,0,0,0,0,1.372h10.028a.686.686,0,0,0,0-1.372Z" transform="translate(-300.657 -331.118)"/>
      <path id="Trazado_1218089" data-name="Trazado 1218089" d="M57.343,400.459H55.976a.686.686,0,1,0,0,1.372h1.367a.686.686,0,1,0,0-1.372Z" transform="translate(-50.232 -363.826)"/>
      <path id="Trazado_1218090" data-name="Trazado 1218090" d="M57.343,436.461H55.976a.686.686,0,1,0,0,1.372h1.367a.686.686,0,1,0,0-1.372Z" transform="translate(-50.232 -396.535)"/>
      <path id="Trazado_1218091" data-name="Trazado 1218091" d="M230.077,401.832a.686.686,0,1,0,0-1.372H227.47a.686.686,0,0,0,0,1.372Z" transform="translate(-206.038 -363.827)"/>
      <path id="Trazado_1218092" data-name="Trazado 1218092" d="M296.413,401.146a.686.686,0,0,0-.686-.686h-9a.686.686,0,1,0,0,1.372h9A.686.686,0,0,0,296.413,401.146Z" transform="translate(-259.873 -363.827)"/>
      <path id="Trazado_1218093" data-name="Trazado 1218093" d="M111.817,401.146a.686.686,0,0,0-.686-.686h-8.668a.686.686,0,1,0,0,1.372h8.668A.686.686,0,0,0,111.817,401.146Z" transform="translate(-92.467 -363.827)"/>
      <path id="Trazado_1218094" data-name="Trazado 1218094" d="M415.339,400.459h-2.607a.686.686,0,1,0,0,1.372h2.607a.686.686,0,1,0,0-1.372Z" transform="translate(-374.353 -363.826)"/>
      <path id="Trazado_1218095" data-name="Trazado 1218095" d="M287.724,436.461a.686.686,0,1,0,0,1.372h2.607a.686.686,0,1,0,0-1.372Z" transform="translate(-260.781 -396.535)"/>
      <path id="Trazado_1218096" data-name="Trazado 1218096" d="M158.57,437.834h9a.686.686,0,0,0,0-1.372h-9a.686.686,0,0,0,0,1.372Z" transform="translate(-143.441 -396.536)"/>
      <path id="Trazado_1218097" data-name="Trazado 1218097" d="M346.478,437.834h8.668a.686.686,0,1,0,0-1.372h-8.668a.686.686,0,0,0,0,1.372Z" transform="translate(-314.16 -396.536)"/>
      <path id="Trazado_1218098" data-name="Trazado 1218098" d="M102.463,436.461a.686.686,0,1,0,0,1.372h2.607a.686.686,0,1,0,0-1.372Z" transform="translate(-92.467 -396.535)"/>
      <path id="Trazado_1218099" data-name="Trazado 1218099" d="M222.7,270.767a.686.686,0,0,0-.97,0l-1.517,1.517-1.517-1.517a.686.686,0,0,0-.97.97l1.517,1.517-1.517,1.517a.686.686,0,0,0,.97.97l1.517-1.517c1.46,1.373,1.515,1.718,2,1.718a.687.687,0,0,0,.485-1.171l-1.517-1.517,1.517-1.517A.686.686,0,0,0,222.7,270.767Z" transform="translate(-197.623 -245.815)"/>
      <path id="Trazado_1218100" data-name="Trazado 1218100" d="M57.343,148.46H55.976a.686.686,0,1,0,0,1.372h1.367a.686.686,0,1,0,0-1.372Z" transform="translate(-50.232 -134.879)"/>
      <path id="Trazado_1218101" data-name="Trazado 1218101" d="M230.077,149.833a.686.686,0,1,0,0-1.372H227.47a.686.686,0,0,0,0,1.372Z" transform="translate(-206.038 -134.88)"/>
      <path id="Trazado_1218102" data-name="Trazado 1218102" d="M295.726,148.46h-9a.686.686,0,1,0,0,1.372h9a.686.686,0,1,0,0-1.372Z" transform="translate(-259.872 -134.879)"/>
      <path id="Trazado_1218103" data-name="Trazado 1218103" d="M111.131,148.46h-8.668a.686.686,0,1,0,0,1.372h8.668a.686.686,0,1,0,0-1.372Z" transform="translate(-92.467 -134.879)"/>
      <path id="Trazado_1218104" data-name="Trazado 1218104" d="M415.339,149.833a.686.686,0,0,0,0-1.372h-2.607a.686.686,0,1,0,0,1.372Z" transform="translate(-374.353 -134.88)"/>
      <path id="Trazado_1218105" data-name="Trazado 1218105" d="M42.8,0H4.038A4.043,4.043,0,0,0,0,4.038V42.8a4.043,4.043,0,0,0,4.038,4.038H38.082a.686.686,0,1,0,0-1.372H4.038A2.669,2.669,0,0,1,1.372,42.8V10.432H4.827a.686.686,0,1,0,0-1.372H1.372V4.038A2.669,2.669,0,0,1,4.038,1.372H42.8a2.669,2.669,0,0,1,2.666,2.666V9.06H8.029a.686.686,0,1,0,0,1.372H45.464V42.8A2.669,2.669,0,0,1,42.8,45.464H41.283a.686.686,0,0,0,0,1.372H42.8A4.043,4.043,0,0,0,46.836,42.8V4.038A4.043,4.043,0,0,0,42.8,0Z"/>
      <path id="Trazado_1218106" data-name="Trazado 1218106" d="M181,224.116a.686.686,0,1,0-1.191.681,5.9,5.9,0,1,1-1.985-2.072.686.686,0,0,0,.732-1.161A7.272,7.272,0,1,0,181,224.116Z" transform="translate(-152.093 -200.281)"/>
    </g>
  </g>
</svg>
