<svg xmlns="http://www.w3.org/2000/svg" xmlns:xlink="http://www.w3.org/1999/xlink" width="106.16" height="106.16" viewBox="0 0 106.16 106.16">
  <defs>
    <filter id="Trazado_982547" x="0" y="0" width="106.16" height="106.16" filterUnits="userSpaceOnUse">
      <feOffset dy="3" input="SourceAlpha"/>
      <feGaussianBlur stdDeviation="3" result="blur"/>
      <feFlood flood-opacity="0.161"/>
      <feComposite operator="in" in2="blur"/>
      <feComposite in="SourceGraphic"/>
    </filter>
  </defs>
  <g id="Grupo_1228871" data-name="Grupo 1228871" transform="translate(-190.925 -5524.146)">
    <g id="Grupo_1228131" data-name="Grupo 1228131" transform="translate(-0.075 2062.682)">
      <g id="Grupo_1224851" data-name="Grupo 1224851" transform="translate(0 1738.464)">
        <g id="Grupo_1206130" data-name="Grupo 1206130" transform="translate(0 -59)">
          <g id="Grupo_1203672" data-name="Grupo 1203672" transform="translate(0.08 -4797.878)">
            <g id="Grupo_1203344" data-name="Grupo 1203344" transform="translate(-81.08 5174.875)">
              <g id="Grupo_1177900" data-name="Grupo 1177900" transform="translate(281 1411.003)">
                <g id="Grupo_1172010" data-name="Grupo 1172010" transform="translate(0)">
                  <g id="Grupo_1171046" data-name="Grupo 1171046">
                    <g id="Grupo_1148525" data-name="Grupo 1148525">
                      <g transform="matrix(1, 0, 0, 1, -9, -6)" filter="url(#Trazado_982547)">
                        <g id="Trazado_982547-2" data-name="Trazado 982547" transform="translate(9 6)" fill="#e5ebfb">
                          <path d="M 44.0802001953125 86.660400390625 C 38.33124923706055 86.660400390625 32.75506210327148 85.53479766845703 27.50652503967285 83.31484985351562 C 22.43628692626953 81.17032623291016 17.88242530822754 78.09992218017578 13.97144985198975 74.18894958496094 C 10.06047534942627 70.27797698974609 6.99007511138916 65.72411346435547 4.845550060272217 60.65387344360352 C 2.625600099563599 55.40533828735352 1.500000238418579 49.82915115356445 1.500000238418579 44.0802001953125 C 1.500000238418579 38.33124923706055 2.625600099563599 32.75506210327148 4.845550060272217 27.50652503967285 C 6.99007511138916 22.43628692626953 10.06047534942627 17.88242530822754 13.97144985198975 13.97144985198975 C 17.88242530822754 10.06047534942627 22.43628692626953 6.99007511138916 27.50652503967285 4.845550060272217 C 32.75506210327148 2.625600099563599 38.33124923706055 1.500000238418579 44.0802001953125 1.500000238418579 C 49.82915115356445 1.500000238418579 55.40533828735352 2.625600099563599 60.65387344360352 4.845550060272217 C 65.72411346435547 6.99007511138916 70.27797698974609 10.06047534942627 74.18894958496094 13.97144985198975 C 78.09992218017578 17.88242530822754 81.17032623291016 22.43628692626953 83.31484985351562 27.50652503967285 C 85.53479766845703 32.75506210327148 86.660400390625 38.33124923706055 86.660400390625 44.0802001953125 C 86.660400390625 49.82915115356445 85.53479766845703 55.40533828735352 83.31484985351562 60.65387344360352 C 81.17032623291016 65.72411346435547 78.09992218017578 70.27797698974609 74.18894958496094 74.18894958496094 C 70.27797698974609 78.09992218017578 65.72411346435547 81.17032623291016 60.65387344360352 83.31484985351562 C 55.40533828735352 85.53479766845703 49.82915115356445 86.660400390625 44.0802001953125 86.660400390625 Z" stroke="none"/>
                          <path d="M 44.0802001953125 3 C 38.53308486938477 3 33.15349960327148 4.085746765136719 28.09085845947266 6.227058410644531 C 23.19941711425781 8.29595947265625 18.80581665039062 11.25841522216797 15.03211212158203 15.03211212158203 C 11.25841522216797 18.80581665039062 8.29595947265625 23.19941711425781 6.227058410644531 28.09085845947266 C 4.085746765136719 33.15349960327148 3 38.53308486938477 3 44.0802001953125 C 3 49.62731552124023 4.085746765136719 55.00691604614258 6.227058410644531 60.06954193115234 C 8.29595947265625 64.96098327636719 11.25841522216797 69.35458374023438 15.03211212158203 73.12828826904297 C 18.80581665039062 76.90198516845703 23.19941711425781 79.86444091796875 28.09085845947266 81.93334197998047 C 33.15349960327148 84.07466125488281 38.53308486938477 85.160400390625 44.0802001953125 85.160400390625 C 49.62731552124023 85.160400390625 55.00691604614258 84.07466125488281 60.06954193115234 81.93334197998047 C 64.96099853515625 79.86444091796875 69.35458374023438 76.90198516845703 73.12828826904297 73.12828826904297 C 76.90198516845703 69.35458374023438 79.86444091796875 64.96099853515625 81.93334197998047 60.06954193115234 C 84.07466125488281 55.00691604614258 85.160400390625 49.62731552124023 85.160400390625 44.0802001953125 C 85.160400390625 38.53308486938477 84.07466125488281 33.15349960327148 81.93334197998047 28.09085845947266 C 79.86444091796875 23.19941711425781 76.90198516845703 18.80581665039062 73.12828826904297 15.03211212158203 C 69.35458374023438 11.25841522216797 64.96098327636719 8.29595947265625 60.06954193115234 6.227058410644531 C 55.00691604614258 4.085746765136719 49.62731552124023 3 44.0802001953125 3 M 44.0802001953125 0 C 68.42502593994141 0 88.160400390625 19.73538970947266 88.160400390625 44.0802001953125 C 88.160400390625 68.42502593994141 68.42502593994141 88.160400390625 44.0802001953125 88.160400390625 C 19.73538970947266 88.160400390625 0 68.42502593994141 0 44.0802001953125 C 0 19.73538970947266 19.73538970947266 0 44.0802001953125 0 Z" stroke="none" fill="#0b47db"/>
                        </g>
                      </g>
                    </g>
                  </g>
                </g>
              </g>
            </g>
          </g>
        </g>
      </g>
    </g>
    <g id="interfaz-de-usuario" transform="translate(216.205 5512.554)">
      <path id="Trazado_1218419" data-name="Trazado 1218419" d="M59.516,87.634H9.455A1.955,1.955,0,0,1,7.5,85.679V47.455A1.955,1.955,0,0,1,9.455,45.5H59.516a1.955,1.955,0,0,1,1.955,1.955V85.679A1.955,1.955,0,0,1,59.516,87.634Z" transform="translate(-6.686 -6.686)" fill="#ecf4ff"/>
      <path id="Trazado_1218420" data-name="Trazado 1218420" d="M459.758,45.5H456.5a1.955,1.955,0,0,1,1.955,1.955V85.679a1.955,1.955,0,0,1-1.955,1.955h3.258a1.955,1.955,0,0,0,1.955-1.955V47.455A1.955,1.955,0,0,0,459.758,45.5Z" transform="translate(-406.927 -6.686)" fill="#ddeafb"/>
      <path id="Trazado_1218421" data-name="Trazado 1218421" d="M61.471,55.273H7.5V47.485A1.985,1.985,0,0,1,9.485,45.5h50a1.985,1.985,0,0,1,1.985,1.985v7.789Z" transform="translate(-6.686 -6.686)" fill="#4073c8"/>
      <path id="Trazado_1218422" data-name="Trazado 1218422" d="M459.483,45.5h-3.258a1.985,1.985,0,0,1,1.985,1.985v7.789h3.258V47.485A1.985,1.985,0,0,0,459.483,45.5Z" transform="translate(-406.682 -6.686)" fill="#3b66c1"/>
      <circle id="Elipse_13382" data-name="Elipse 13382" cx="1.629" cy="1.629" r="1.629" transform="translate(30.965 42.072)" fill="#c8ea73"/>
      <circle id="Elipse_13383" data-name="Elipse 13383" cx="1.629" cy="1.629" r="1.629" transform="translate(37.752 42.072)" fill="#ffe07d"/>
      <circle id="Elipse_13384" data-name="Elipse 13384" cx="1.629" cy="1.629" r="1.629" transform="translate(44.539 42.072)" fill="#dd4fb1"/>
      <path id="Trazado_1218423" data-name="Trazado 1218423" d="M244.5,358.445V347.586a1.086,1.086,0,0,1,1.086-1.086h22.8a1.086,1.086,0,0,1,1.086,1.086v10.859a1.086,1.086,0,0,1-1.086,1.086h-22.8A1.086,1.086,0,0,1,244.5,358.445Z" transform="translate(-217.949 -274.999)" fill="#75cef9"/>
      <path id="Trazado_1218424" data-name="Trazado 1218424" d="M437.758,346.5H434.5a1.086,1.086,0,0,1,1.086,1.086v10.859a1.086,1.086,0,0,1-1.086,1.086h3.258a1.086,1.086,0,0,0,1.086-1.086V347.586A1.086,1.086,0,0,0,437.758,346.5Z" transform="translate(-387.316 -274.999)" fill="#6bbef6"/>
      <path id="Trazado_1218425" data-name="Trazado 1218425" d="M244.5,181.273V167.69a1.19,1.19,0,0,1,1.19-1.19h22.6a1.19,1.19,0,0,1,1.19,1.19v13.582a1.19,1.19,0,0,1-1.19,1.19h-22.6A1.191,1.191,0,0,1,244.5,181.273Z" transform="translate(-217.949 -114.546)" fill="#dd4fb1"/>
      <path id="Trazado_1218426" data-name="Trazado 1218426" d="M436.8,166.5h-3.258a1.19,1.19,0,0,1,1.19,1.19v13.582a1.19,1.19,0,0,1-1.19,1.19H436.8a1.19,1.19,0,0,0,1.19-1.19V167.69A1.19,1.19,0,0,0,436.8,166.5Z" transform="translate(-386.459 -114.546)" fill="#da2ea2"/>
      <path id="Trazado_1218427" data-name="Trazado 1218427" d="M37.5,197.888v-30.2a1.19,1.19,0,0,1,1.19-1.19h16.08a1.19,1.19,0,0,1,1.19,1.19v30.2a1.19,1.19,0,0,1-1.19,1.19H38.69a1.191,1.191,0,0,1-1.19-1.19Z" transform="translate(-33.428 -114.546)" fill="#ffe07d"/>
      <path id="Trazado_1218428" data-name="Trazado 1218428" d="M169.8,166.5h-3.258a1.19,1.19,0,0,1,1.19,1.19v30.2a1.19,1.19,0,0,1-1.19,1.19H169.8a1.19,1.19,0,0,0,1.19-1.19v-30.2A1.19,1.19,0,0,0,169.8,166.5Z" transform="translate(-148.453 -114.546)" fill="#ffd064"/>
      <path id="Trazado_1218429" data-name="Trazado 1218429" d="M384.5,215.581v-5.647a.434.434,0,0,1,.434-.434h5.647a.434.434,0,0,1,.434.434v5.647a.434.434,0,0,1-.434.434h-5.647A.434.434,0,0,1,384.5,215.581Z" transform="translate(-342.746 -152.876)" fill="#75cef9"/>
      <path id="Trazado_1218430" data-name="Trazado 1218430" d="M384.5,382.581v-5.647a.434.434,0,0,1,.434-.434h5.647a.434.434,0,0,1,.434.434v5.647a.434.434,0,0,1-.434.434h-5.647A.434.434,0,0,1,384.5,382.581Z" transform="translate(-342.746 -301.741)" fill="#ecf4ff"/>
      <path id="Trazado_1218431" data-name="Trazado 1218431" d="M67.5,382.537v-5.559a.479.479,0,0,1,.478-.478H78.967a.479.479,0,0,1,.478.478v5.559a.479.479,0,0,1-.478.478H67.978A.479.479,0,0,1,67.5,382.537Z" transform="translate(-60.17 -301.741)" fill="#ecf4ff"/>
      <g id="Grupo_1228870" data-name="Grupo 1228870" transform="translate(0 38)">
        <path id="Trazado_1218432" data-name="Trazado 1218432" d="M52.83,38H10.5a.814.814,0,1,0,0,1.629H52.83a1.141,1.141,0,0,1,1.14,1.14v7H1.629v-7a1.141,1.141,0,0,1,1.14-1.14H6.552a.814.814,0,1,0,0-1.629H2.769A2.772,2.772,0,0,0,0,40.769V78.994a2.772,2.772,0,0,0,2.769,2.769h.489v1.579a2.007,2.007,0,0,0,2,2h16.08a2.007,2.007,0,0,0,2-2V81.763h2.389v1.683a1.9,1.9,0,0,0,1.9,1.9H44.632a.814.814,0,1,0,0-1.629H27.637a.272.272,0,0,1-.271-.271V72.587a.272.272,0,0,1,.271-.271h22.8a.272.272,0,0,1,.271.271V83.446a.272.272,0,0,1-.271.271H48.432a.814.814,0,1,0,0,1.629h2.009a1.9,1.9,0,0,0,1.9-1.9V81.763h.489A2.772,2.772,0,0,0,55.6,78.994V40.769A2.772,2.772,0,0,0,52.83,38ZM21.719,83.342a.376.376,0,0,1-.376.376H5.263a.376.376,0,0,1-.376-.376v-30.2a.376.376,0,0,1,.376-.376h16.08a.376.376,0,0,1,.376.376ZM52.83,80.134h-.489V72.587a1.9,1.9,0,0,0-1.9-1.9h-22.8a1.9,1.9,0,0,0-1.9,1.9v7.547H23.347V53.145a2.007,2.007,0,0,0-2-2H5.263a2.007,2.007,0,0,0-2,2V80.134H2.769a1.141,1.141,0,0,1-1.14-1.14V49.4H53.971V78.994A1.141,1.141,0,0,1,52.83,80.134Z" transform="translate(0 -38)"/>
        <path id="Trazado_1218433" data-name="Trazado 1218433" d="M261.6,159H239a2.007,2.007,0,0,0-2,2v13.582a2.007,2.007,0,0,0,2,2h22.6a2.007,2.007,0,0,0,2-2V161A2.007,2.007,0,0,0,261.6,159Zm.376,15.587a.376.376,0,0,1-.376.376H239a.376.376,0,0,1-.376-.376V161a.376.376,0,0,1,.376-.376h22.6a.376.376,0,0,1,.376.376Z" transform="translate(-211.263 -145.86)"/>
        <path id="Trazado_1218434" data-name="Trazado 1218434" d="M383.9,202h-5.647A1.25,1.25,0,0,0,377,203.249V208.9a1.25,1.25,0,0,0,1.249,1.249H383.9a1.25,1.25,0,0,0,1.249-1.249v-5.647A1.25,1.25,0,0,0,383.9,202Zm-.38,6.516h-4.887v-4.887h4.887Z" transform="translate(-336.061 -184.191)"/>
        <path id="Trazado_1218435" data-name="Trazado 1218435" d="M385.145,375.9v-5.647A1.25,1.25,0,0,0,383.9,369h-5.647A1.25,1.25,0,0,0,377,370.249V375.9a1.25,1.25,0,0,0,1.249,1.249H383.9A1.25,1.25,0,0,0,385.145,375.9Zm-1.629-.38h-4.887v-4.887h4.887Z" transform="translate(-336.061 -333.056)"/>
        <path id="Trazado_1218436" data-name="Trazado 1218436" d="M72.281,369H61.293A1.294,1.294,0,0,0,60,370.293v5.559a1.294,1.294,0,0,0,1.293,1.293H72.281a1.294,1.294,0,0,0,1.293-1.293v-5.559A1.294,1.294,0,0,0,72.281,369Zm-.336,6.516H61.629v-4.887H71.945Z" transform="translate(-53.484 -333.056)"/>
        <path id="Trazado_1218437" data-name="Trazado 1218437" d="M282.531,70.443a2.443,2.443,0,1,0-2.443,2.443A2.446,2.446,0,0,0,282.531,70.443Zm-3.258,0a.814.814,0,1,1,.815.814A.815.815,0,0,1,279.273,70.443Z" transform="translate(-247.494 -64.742)"/>
        <path id="Trazado_1218438" data-name="Trazado 1218438" d="M345.031,70.443a2.443,2.443,0,1,0-2.443,2.443A2.446,2.446,0,0,0,345.031,70.443Zm-3.258,0a.814.814,0,1,1,.814.814A.815.815,0,0,1,341.773,70.443Z" transform="translate(-303.207 -64.742)"/>
        <path id="Trazado_1218439" data-name="Trazado 1218439" d="M407.531,70.443a2.443,2.443,0,1,0-2.443,2.443A2.446,2.446,0,0,0,407.531,70.443Zm-3.258,0a.814.814,0,1,1,.814.814A.815.815,0,0,1,404.273,70.443Z" transform="translate(-358.92 -64.742)"/>
        <path id="Trazado_1218440" data-name="Trazado 1218440" d="M275.981,203.629h4.568a.814.814,0,0,0,0-1.629h-4.568a.814.814,0,1,0,0,1.629Z" transform="translate(-245.286 -184.191)"/>
        <path id="Trazado_1218441" data-name="Trazado 1218441" d="M282.5,232h-6.516a.814.814,0,0,0,0,1.629H282.5a.814.814,0,0,0,0-1.629Z" transform="translate(-245.286 -210.933)"/>
        <path id="Trazado_1218442" data-name="Trazado 1218442" d="M282.5,262h-6.516a.814.814,0,1,0,0,1.629H282.5a.814.814,0,1,0,0-1.629Z" transform="translate(-245.286 -237.675)"/>
        <path id="Trazado_1218443" data-name="Trazado 1218443" d="M278.458,370.629h4.568a.814.814,0,0,0,0-1.629h-4.568a.814.814,0,1,0,0,1.629Z" transform="translate(-247.494 -333.056)"/>
        <path id="Trazado_1218444" data-name="Trazado 1218444" d="M284.974,399h-6.516a.814.814,0,1,0,0,1.629h6.516a.814.814,0,1,0,0-1.629Z" transform="translate(-247.494 -359.798)"/>
        <path id="Trazado_1218445" data-name="Trazado 1218445" d="M284.974,429h-6.516a.814.814,0,1,0,0,1.629h6.516a.814.814,0,1,0,0-1.629Z" transform="translate(-247.494 -386.54)"/>
        <path id="Trazado_1218446" data-name="Trazado 1218446" d="M66.9,204.129h7.448a.814.814,0,1,0,0-1.629H66.9a.814.814,0,1,0,0,1.629Z" transform="translate(-58.91 -184.636)"/>
        <path id="Trazado_1218447" data-name="Trazado 1218447" d="M133.413,301.646a.814.814,0,0,0,0,1.629h3.12a.814.814,0,0,0,0-1.629Z" transform="translate(-118.2 -273.016)"/>
        <path id="Trazado_1218448" data-name="Trazado 1218448" d="M66.9,234.129H77.525a.814.814,0,1,0,0-1.629H66.9a.814.814,0,1,0,0,1.629Z" transform="translate(-58.91 -211.379)"/>
        <path id="Trazado_1218449" data-name="Trazado 1218449" d="M66.9,264.129H77.525a.814.814,0,0,0,0-1.629H66.9a.814.814,0,0,0,0,1.629Z" transform="translate(-58.91 -238.121)"/>
      </g>
    </g>
  </g>
</svg>
