<svg xmlns="http://www.w3.org/2000/svg" xmlns:xlink="http://www.w3.org/1999/xlink" width="106.16" height="106.16" viewBox="0 0 106.16 106.16">
  <defs>
    <filter id="Trazado_982547" x="0" y="0" width="106.16" height="106.16" filterUnits="userSpaceOnUse">
      <feOffset dy="3" input="SourceAlpha"/>
      <feGaussianBlur stdDeviation="3" result="blur"/>
      <feFlood flood-opacity="0.161"/>
      <feComposite operator="in" in2="blur"/>
      <feComposite in="SourceGraphic"/>
    </filter>
  </defs>
  <g id="Grupo_1228602" data-name="Grupo 1228602" transform="translate(-1030.5 -3830)">
    <g id="Grupo_1228124" data-name="Grupo 1228124" transform="translate(839.5 368.536)">
      <g id="Grupo_1224851" data-name="Grupo 1224851" transform="translate(0 1738.464)">
        <g id="Grupo_1206130" data-name="Grupo 1206130" transform="translate(0 -59)">
          <g id="Grupo_1203672" data-name="Grupo 1203672" transform="translate(0.08 -4797.878)">
            <g id="Grupo_1203344" data-name="Grupo 1203344" transform="translate(-81.08 5174.875)">
              <g id="Grupo_1177900" data-name="Grupo 1177900" transform="translate(281 1411.003)">
                <g id="Grupo_1172010" data-name="Grupo 1172010" transform="translate(0)">
                  <g id="Grupo_1171046" data-name="Grupo 1171046">
                    <g id="Grupo_1148525" data-name="Grupo 1148525">
                      <g transform="matrix(1, 0, 0, 1, -9, -6)" filter="url(#Trazado_982547)">
                        <g id="Trazado_982547-2" data-name="Trazado 982547" transform="translate(9 6)" fill="#e5ebfb">
                          <path d="M 44.0802001953125 86.660400390625 C 38.33124923706055 86.660400390625 32.75506210327148 85.53479766845703 27.50652503967285 83.31484985351562 C 22.43628692626953 81.17032623291016 17.88242530822754 78.09992218017578 13.97144985198975 74.18894958496094 C 10.06047534942627 70.27797698974609 6.99007511138916 65.72411346435547 4.845550060272217 60.65387344360352 C 2.625600099563599 55.40533828735352 1.500000238418579 49.82915115356445 1.500000238418579 44.0802001953125 C 1.500000238418579 38.33124923706055 2.625600099563599 32.75506210327148 4.845550060272217 27.50652503967285 C 6.99007511138916 22.43628692626953 10.06047534942627 17.88242530822754 13.97144985198975 13.97144985198975 C 17.88242530822754 10.06047534942627 22.43628692626953 6.99007511138916 27.50652503967285 4.845550060272217 C 32.75506210327148 2.625600099563599 38.33124923706055 1.500000238418579 44.0802001953125 1.500000238418579 C 49.82915115356445 1.500000238418579 55.40533828735352 2.625600099563599 60.65387344360352 4.845550060272217 C 65.72411346435547 6.99007511138916 70.27797698974609 10.06047534942627 74.18894958496094 13.97144985198975 C 78.09992218017578 17.88242530822754 81.17032623291016 22.43628692626953 83.31484985351562 27.50652503967285 C 85.53479766845703 32.75506210327148 86.660400390625 38.33124923706055 86.660400390625 44.0802001953125 C 86.660400390625 49.82915115356445 85.53479766845703 55.40533828735352 83.31484985351562 60.65387344360352 C 81.17032623291016 65.72411346435547 78.09992218017578 70.27797698974609 74.18894958496094 74.18894958496094 C 70.27797698974609 78.09992218017578 65.72411346435547 81.17032623291016 60.65387344360352 83.31484985351562 C 55.40533828735352 85.53479766845703 49.82915115356445 86.660400390625 44.0802001953125 86.660400390625 Z" stroke="none"/>
                          <path d="M 44.0802001953125 3 C 38.53308486938477 3 33.15349960327148 4.085746765136719 28.09085845947266 6.227058410644531 C 23.19941711425781 8.29595947265625 18.80581665039062 11.25841522216797 15.03211212158203 15.03211212158203 C 11.25841522216797 18.80581665039062 8.29595947265625 23.19941711425781 6.227058410644531 28.09085845947266 C 4.085746765136719 33.15349960327148 3 38.53308486938477 3 44.0802001953125 C 3 49.62731552124023 4.085746765136719 55.00691604614258 6.227058410644531 60.06954193115234 C 8.29595947265625 64.96098327636719 11.25841522216797 69.35458374023438 15.03211212158203 73.12828826904297 C 18.80581665039062 76.90198516845703 23.19941711425781 79.86444091796875 28.09085845947266 81.93334197998047 C 33.15349960327148 84.07466125488281 38.53308486938477 85.160400390625 44.0802001953125 85.160400390625 C 49.62731552124023 85.160400390625 55.00691604614258 84.07466125488281 60.06954193115234 81.93334197998047 C 64.96099853515625 79.86444091796875 69.35458374023438 76.90198516845703 73.12828826904297 73.12828826904297 C 76.90198516845703 69.35458374023438 79.86444091796875 64.96099853515625 81.93334197998047 60.06954193115234 C 84.07466125488281 55.00691604614258 85.160400390625 49.62731552124023 85.160400390625 44.0802001953125 C 85.160400390625 38.53308486938477 84.07466125488281 33.15349960327148 81.93334197998047 28.09085845947266 C 79.86444091796875 23.19941711425781 76.90198516845703 18.80581665039062 73.12828826904297 15.03211212158203 C 69.35458374023438 11.25841522216797 64.96098327636719 8.29595947265625 60.06954193115234 6.227058410644531 C 55.00691604614258 4.085746765136719 49.62731552124023 3 44.0802001953125 3 M 44.0802001953125 0 C 68.42502593994141 0 88.160400390625 19.73538970947266 88.160400390625 44.0802001953125 C 88.160400390625 68.42502593994141 68.42502593994141 88.160400390625 44.0802001953125 88.160400390625 C 19.73538970947266 88.160400390625 0 68.42502593994141 0 44.0802001953125 C 0 19.73538970947266 19.73538970947266 0 44.0802001953125 0 Z" stroke="none" fill="#0b47db"/>
                        </g>
                      </g>
                    </g>
                  </g>
                </g>
              </g>
            </g>
          </g>
        </g>
      </g>
    </g>
    <g id="el" transform="translate(1035.469 3838.493)">
      <path id="Trazado_1218123" data-name="Trazado 1218123" d="M70.959,21.577H62.582a2.442,2.442,0,0,0-2.069-1.16,2.476,2.476,0,0,0-2.453,2.492,2.5,2.5,0,0,0,.5,1.506l-1.4,2.421H51.731a5.382,5.382,0,0,0-2.2-1.211h4.194a.938.938,0,0,0,0-1.875H49.049V22.539h5.475a.938.938,0,0,0,.812-.469l1.7-2.951a2.41,2.41,0,0,0,.344.027,2.494,2.494,0,1,0-2.453-2.492,2.5,2.5,0,0,0,.5,1.5l-1.449,2.508H49.049V17.542h.891a2.493,2.493,0,1,0,0-1.875h-.891v-1.73A.938.938,0,0,0,48.111,13H45.942a.938.938,0,0,0-.851.544L43.68,16.6l-2.5,1.032L38.03,16.466a.938.938,0,0,0-.988.217l-3.07,3.073a.938.938,0,0,0-.216.987l.308.835h-8.8a4.757,4.757,0,0,0-4.752,4.752V56.323a4.757,4.757,0,0,0,4.752,4.752h16.51l-.84,4.188H37.882a3.979,3.979,0,0,0-3.593,2.722l-.236.757a.938.938,0,0,0,.9,1.216H61.274a.938.938,0,0,0,.9-1.216l-.235-.754a3.98,3.98,0,0,0-3.594-2.726H55.292l-.843-4.188h16.51a4.757,4.757,0,0,0,4.752-4.752V26.329a4.757,4.757,0,0,0-4.752-4.752ZM57.384,16.034a.62.62,0,1,1-.577.621A.6.6,0,0,1,57.384,16.034Zm-5.173-.047a.619.619,0,1,1-.577.617A.6.6,0,0,1,52.211,15.987Zm8.3,6.306a.619.619,0,1,1-.577.617A.6.6,0,0,1,60.514,22.293Zm-8.891,8.531a3.511,3.511,0,1,1-3.511-3.514A3.515,3.515,0,0,1,51.622,30.824Zm-4.449-5.306a5.387,5.387,0,0,0,0,10.609v2.924a8.282,8.282,0,0,1,0-16.458ZM36.8,23.593l-1.082-2.936,2.222-2.224,2.935,1.082a.938.938,0,0,0,.682-.013l3.173-1.312a.938.938,0,0,0,.493-.473l1.313-2.841h.632v5.833a10.158,10.158,0,0,0,0,20.23v5.836h-.632l-1.313-2.841a.937.937,0,0,0-.492-.473l-3.173-1.316a.938.938,0,0,0-.683-.014l-2.936,1.082-2.221-2.221L36.8,38.055a.938.938,0,0,0-.014-.683L35.475,34.2A.937.937,0,0,0,35,33.707l-2.841-1.313V29.251L35,27.941a.938.938,0,0,0,.473-.492l1.316-3.173a.938.938,0,0,0,.014-.683Zm-11.541-.14h9.491l.164.444-1.035,2.5L30.831,27.8a.938.938,0,0,0-.545.851v4.342a.938.938,0,0,0,.544.851l3.053,1.411,1.035,2.5-1.162,3.154a.938.938,0,0,0,.217.987l3.07,3.07a.938.938,0,0,0,.987.217l3.154-1.162,2.5,1.035L45.091,48.1a.938.938,0,0,0,.851.544h2.169a.938.938,0,0,0,.938-.938v-1.73h.891a2.493,2.493,0,1,0,0-1.875h-.891V40.981h4.933l1.45,2.51a2.5,2.5,0,0,0-.5,1.5A2.451,2.451,0,1,0,57.384,42.5a2.4,2.4,0,0,0-.342.027l-1.707-2.954a.937.937,0,0,0-.812-.469H49.049V37.895h4.674a.938.938,0,0,0,0-1.875H49.53a5.383,5.383,0,0,0,2.2-1.208h5.436l1.4,2.42a2.508,2.508,0,0,0-.5,1.507,2.453,2.453,0,1,0,2.453-2.5,2.4,2.4,0,0,0-.341.027l-1.655-2.864a.937.937,0,0,0-.812-.469H53.066a5.343,5.343,0,0,0,.349-1.175h7.8a2.493,2.493,0,1,0,0-1.875h-7.8a5.349,5.349,0,0,0-.348-1.175h4.64a.938.938,0,0,0,.812-.469l1.657-2.867a2.414,2.414,0,0,0,.339.027,2.465,2.465,0,0,0,2.392-1.95h8.053a2.88,2.88,0,0,1,2.876,2.876V53.658H22.387V26.329a2.88,2.88,0,0,1,2.876-2.876Zm26.37,21.591a.577.577,0,1,1,.577.617A.6.6,0,0,1,51.634,45.044Zm6.324-.05a.577.577,0,1,1-.574-.617A.6.6,0,0,1,57.958,44.994Zm3.133-6.256a.579.579,0,1,1-.577-.621A.6.6,0,0,1,61.091,38.738Zm1.819-7.914a.577.577,0,1,1,.577.617A.6.6,0,0,1,62.91,30.824ZM59.918,68.083H36.3a2.113,2.113,0,0,1,1.578-.945H58.341A2.111,2.111,0,0,1,59.918,68.083Zm-6.539-2.821H42.846l.84-4.188h8.85l.843,4.188ZM70.959,59.2h-45.7a2.88,2.88,0,0,1-2.876-2.876v-.79H73.835v.79A2.88,2.88,0,0,1,70.959,59.2ZM23.622,50.778V26.329a1.644,1.644,0,0,1,1.642-1.642h6.13a.938.938,0,1,1,0,1.875H25.5V50.548H70.726V26.562H64.833a.938.938,0,1,1,0-1.875h6.126A1.644,1.644,0,0,1,72.6,26.329V50.778a1.645,1.645,0,0,1-1.642,1.645h-45.7a1.645,1.645,0,0,1-1.642-1.645Zm12.424,6.588a.938.938,0,0,1-.938.938h-.721a.938.938,0,0,1,0-1.875h.721A.938.938,0,0,1,36.045,57.366Zm-3.336,0a.938.938,0,0,1-.938.938H26.35a.938.938,0,0,1,0-1.875h5.422A.938.938,0,0,1,32.71,57.366Z"/>
      <path id="Trazado_1218124" data-name="Trazado 1218124" d="M192.68,97.788V94.863a8.282,8.282,0,0,0,0,16.458V108.4a5.387,5.387,0,0,1,0-10.609Z" transform="translate(-145.507 -72.27)" fill="#3b79ad"/>
      <path id="Trazado_1218125" data-name="Trazado 1218125" d="M211.917,423.2l-.84,4.188H221.61l-.843-4.188Z" transform="translate(-168.231 -362.124)" fill="#809cad"/>
      <path id="Trazado_1218126" data-name="Trazado 1218126" d="M226.043,138.618a3.511,3.511,0,1,0,3.511-3.514A3.515,3.515,0,0,0,226.043,138.618Z" transform="translate(-181.443 -107.794)" fill="#23e8bf"/>
      <path id="Trazado_1218127" data-name="Trazado 1218127" d="M357.471,93.534a.619.619,0,1,0-.577-.617A.6.6,0,0,0,357.471,93.534Z" transform="translate(-296.958 -70.006)" fill="#ff99c7"/>
      <path id="Trazado_1218128" data-name="Trazado 1218128" d="M119.909,46.52l2.841,1.313a.937.937,0,0,1,.473.492l1.316,3.173a.938.938,0,0,1,.014.683l-1.082,2.936,2.221,2.221,2.936-1.082a.938.938,0,0,1,.683.014l3.173,1.316a.938.938,0,0,1,.492.473l1.313,2.841h.632V55.063a10.158,10.158,0,0,1,0-20.23V29h-.632l-1.313,2.841a.938.938,0,0,1-.493.473l-3.173,1.312a.937.937,0,0,1-.682.013l-2.935-1.082-2.222,2.224,1.082,2.936a.938.938,0,0,1-.014.683l-1.316,3.173a.938.938,0,0,1-.473.492l-2.84,1.31V46.52Z" transform="translate(-87.748 -14.126)" fill="#5fa7ee"/>
      <path id="Trazado_1218129" data-name="Trazado 1218129" d="M155.256,475.878H178.87a2.111,2.111,0,0,0-1.577-.945H156.834A2.113,2.113,0,0,0,155.256,475.878Z" transform="translate(-118.952 -407.795)" fill="#6f8c9b"/>
      <path id="Trazado_1218130" data-name="Trazado 1218130" d="M286.63,39.73a.619.619,0,1,0-.577-.617A.6.6,0,0,0,286.63,39.73Z" transform="translate(-234.419 -22.508)" fill="#ff99c7"/>
      <path id="Trazado_1218131" data-name="Trazado 1218131" d="M330.768,40.131a.62.62,0,1,0-.577-.617A.6.6,0,0,0,330.768,40.131Z" transform="translate(-273.384 -22.859)" fill="#23e8bf"/>
      <path id="Trazado_1218132" data-name="Trazado 1218132" d="M287.205,281.767a.577.577,0,1,0-.574.617A.6.6,0,0,0,287.205,281.767Z" transform="translate(-234.42 -236.724)" fill="#ff99c7"/>
      <path id="Trazado_1218133" data-name="Trazado 1218133" d="M331.343,281.341a.577.577,0,1,0-.574.617A.6.6,0,0,0,331.343,281.341Z" transform="translate(-273.385 -236.348)" fill="#23e8bf"/>
      <path id="Trazado_1218134" data-name="Trazado 1218134" d="M383.417,160.44a.577.577,0,1,0-.574.617A.6.6,0,0,0,383.417,160.44Z" transform="translate(-319.356 -129.616)" fill="#23e8bf"/>
      <path id="Trazado_1218135" data-name="Trazado 1218135" d="M358.049,227.939a.579.579,0,1,0-.577.617A.6.6,0,0,0,358.049,227.939Z" transform="translate(-296.958 -189.201)" fill="#ff99c7"/>
      <path id="Trazado_1218136" data-name="Trazado 1218136" d="M36.512,376.705a2.88,2.88,0,0,0,2.876,2.876h45.7a2.88,2.88,0,0,0,2.876-2.876v-.79H36.512Zm12,.106h.721a.938.938,0,1,1,0,1.875h-.721a.938.938,0,1,1,0-1.875Zm-8.037,0H45.9a.938.938,0,1,1,0,1.875H40.475a.938.938,0,1,1,0-1.875Z" transform="translate(-14.125 -320.382)" fill="#d3effd"/>
      <path id="Trazado_1218137" data-name="Trazado 1218137" d="M268.673,98.4a.937.937,0,0,1,.014,1.874h4.129l.7-1.209a2.5,2.5,0,0,1-.5-1.506H264v.84h4.674Z" transform="translate(-214.95 -74.655)" fill="#809cad"/>
      <path id="Trazado_1218138" data-name="Trazado 1218138" d="M85.084,102.192H77.031a2.465,2.465,0,0,1-2.392,1.95,2.414,2.414,0,0,1-.339-.027l-.144.249H78.02a.938.938,0,0,1,.938-.938h6.126a1.644,1.644,0,0,1,1.642,1.642v24.449a1.645,1.645,0,0,1-1.642,1.645h-45.7a1.645,1.645,0,0,1-1.642-1.645V105.068a1.644,1.644,0,0,1,1.642-1.642h6.13a.938.938,0,0,1,.938.938h1.871l.716-1.728-.164-.444H39.388a2.88,2.88,0,0,0-2.876,2.876V132.4H87.96V105.068a2.88,2.88,0,0,0-2.876-2.876Z" transform="translate(-14.125 -78.74)" fill="#809cad"/>
      <g id="Grupo_1228601" data-name="Grupo 1228601" transform="translate(25.497 25.625)">
        <path id="Trazado_1218139" data-name="Trazado 1218139" d="M68.379,122.9l3.052-1.408.318-.767H69.879a.938.938,0,0,1-.938.938h-5.9v23.986h45.229V121.664h-5.893a.938.938,0,0,1-.938-.938H97.579l-1.513,2.619a.937.937,0,0,1-.812.469h-4.64a5.35,5.35,0,0,1,.348,1.175h7.8a2.493,2.493,0,1,1,0,1.875h-7.8a5.343,5.343,0,0,1-.349,1.175h4.641a.938.938,0,0,1,.812.469l1.655,2.864a2.4,2.4,0,0,1,.341-.027,2.494,2.494,0,1,1-2.453,2.5,2.508,2.508,0,0,1,.5-1.507l-1.4-2.42H89.277a5.383,5.383,0,0,1-2.2,1.208h4.193a.938.938,0,1,1,0,1.875H86.6v1.211h5.475a.938.938,0,0,1,.812.469l1.707,2.954a2.406,2.406,0,0,1,.342-.027,2.493,2.493,0,1,1-2.453,2.492,2.5,2.5,0,0,1,.5-1.5l-1.45-2.51H86.6v3.125h.891a2.493,2.493,0,1,1,0,1.875H86.6v1.73a.938.938,0,0,1-.938.938H83.49a.938.938,0,0,1-.851-.544l-1.411-3.053-2.5-1.035-3.154,1.162a.938.938,0,0,1-.987-.217l-3.07-3.07a.938.938,0,0,1-.217-.987l1.162-3.154-1.035-2.5-3.053-1.411a.938.938,0,0,1-.544-.851v-4.342a.938.938,0,0,1,.545-.851Z" transform="translate(-63.045 -120.726)" fill="#91dafa"/>
        <path id="Trazado_1218140" data-name="Trazado 1218140" d="M272.29,120.727H268.1a5.384,5.384,0,0,1,2.2,1.211h5.434l.7-1.212H272.29Z" transform="translate(-244.064 -120.726)" fill="#91dafa"/>
      </g>
    </g>
  </g>
</svg>
