<svg xmlns="http://www.w3.org/2000/svg" xmlns:xlink="http://www.w3.org/1999/xlink" width="295" height="319" viewBox="0 0 295 319">
  <defs>
    <clipPath id="clip-path">
      <rect id="Rect치ngulo_422719" data-name="Rect치ngulo 422719" width="295" height="319" transform="translate(1125 5882)" fill="#fff" stroke="#707070" stroke-width="1"/>
    </clipPath>
  </defs>
  <g id="Enmascarar_grupo_1208511" data-name="Enmascarar grupo 1208511" transform="translate(-1125 -5882)" clip-path="url(#clip-path)">
    <g id="Grupo_1229176" data-name="Grupo 1229176" transform="translate(-2976 56)">
      <g id="Grupo_1228930" data-name="Grupo 1228930" transform="translate(4102.407 6108.037)">
        <ellipse id="Elipse_13394" data-name="Elipse 13394" cx="138.202" cy="19.396" rx="138.202" ry="19.396" fill="#c8c1e1"/>
      </g>
      <g id="Grupo_1228987" data-name="Grupo 1228987" transform="translate(4103.517 5995.366)">
        <path id="Trazado_1218668" data-name="Trazado 1218668" d="M2148.314,1207.046a49.134,49.134,0,0,0,2.593,6.422,7.055,7.055,0,0,1-1.478,8.264l-5.827,5.459a7.019,7.019,0,0,0-.323,9.922l8.43,9a7.02,7.02,0,0,0,9.923.322l7.833-7.342a7.013,7.013,0,0,1,7.406-1.424q.913.369,1.839.7a6.987,6.987,0,0,1,4.6,6.168l.688,11.423a7.019,7.019,0,0,0,7.427,6.585l12.313-.74a7.02,7.02,0,0,0,6.585-7.433l-.6-9.8a7.023,7.023,0,0,1,4.377-6.932l.1-.042a7,7,0,0,1,7.754,1.71l6.3,6.734a7.019,7.019,0,0,0,9.922.328l9-8.43a7.019,7.019,0,0,0,.324-9.924l-6.311-6.734a7,7,0,0,1-1.2-7.849l.042-.088a7.024,7.024,0,0,1,7.2-3.915l9.752,1.233a7.02,7.02,0,0,0,7.845-6.084l1.546-12.236a7.02,7.02,0,0,0-6.086-7.845l-11.351-1.432a6.986,6.986,0,0,1-5.855-4.988q-.27-.946-.58-1.884a7.019,7.019,0,0,1,1.906-7.3l7.834-7.338a7.02,7.02,0,0,0,.326-9.921l-8.423-9a7.02,7.02,0,0,0-9.923-.325l-5.824,5.455a7.056,7.056,0,0,1-8.348.933,49.3,49.3,0,0,0-6.243-3.017,7.047,7.047,0,0,1-4.448-6.107l-.617-10.124a7.019,7.019,0,0,0-7.431-6.579l-12.308.746a7.02,7.02,0,0,0-6.582,7.432l.434,7.154a7.012,7.012,0,0,1-4.578,7.008q-.827.3-1.644.639a6.971,6.971,0,0,1-7.7-1.724l-4.456-4.751a7.019,7.019,0,0,0-9.917-.322l-9,8.425a7.019,7.019,0,0,0-.325,9.924l4.45,4.749a6.973,6.973,0,0,1,1.218,7.811q-.39.8-.75,1.607a7.012,7.012,0,0,1-7.288,4.1l-7.114-.9a7.019,7.019,0,0,0-7.846,6.083l-1.545,12.228a7.02,7.02,0,0,0,6.08,7.844l10.058,1.276A7.047,7.047,0,0,1,2148.314,1207.046Zm29.021-31.792c10.449-9.787,29.237-13,39.012-2.552s11.732,28.928,1.3,38.7-32.627,10.274-42.415-.174S2166.885,1185.03,2177.334,1175.254Z" transform="translate(-2126.313 -1122.858)" fill="#553e93"/>
      </g>
      <g id="Grupo_1228990" data-name="Grupo 1228990" transform="translate(4348.463 5964.868)">
        <g id="Grupo_1228988" data-name="Grupo 1228988" transform="translate(0 22.373)">
          <path id="Trazado_1218669" data-name="Trazado 1218669" d="M3022.3,1062.235a2.486,2.486,0,0,1-2.454-2.15l-.462-3.447a2.069,2.069,0,0,0-1.423-1.705c-.2-.063-.409-.131-.613-.2a2.015,2.015,0,0,0-.677-.117,2.074,2.074,0,0,0-1.519.668l-2.512,2.726a2.479,2.479,0,0,1-3.5.143l-2.938-2.707a2.479,2.479,0,0,1-.142-3.5l2.157-2.338a2.069,2.069,0,0,0,.292-2.4l-.016-.028a2.064,2.064,0,0,0-2.089-1.057l-2.961.4a2.514,2.514,0,0,1-.334.023,2.487,2.487,0,0,1-2.455-2.149l-.533-3.96a2.48,2.48,0,0,1,2.128-2.788l2.963-.4a2.073,2.073,0,0,0,1.735-1.567l.007-.031a2.069,2.069,0,0,0-.914-2.235l-2.7-1.688a2.48,2.48,0,0,1-.788-3.417l2.118-3.387a2.479,2.479,0,0,1,3.417-.787l3.142,1.965a2.075,2.075,0,0,0,1.1.316,2.027,2.027,0,0,0,1.163-.363c.175-.122.356-.242.538-.359a2.071,2.071,0,0,0,.924-2.021l-.463-3.446a2.482,2.482,0,0,1,2.126-2.787l3.956-.532a2.477,2.477,0,0,1,2.788,2.127l.344,2.562a2.071,2.071,0,0,0,1.733,1.768,16.225,16.225,0,0,1,2.213.528,2.105,2.105,0,0,0,.634.1,2.071,2.071,0,0,0,1.52-.663l2.229-2.414a2.479,2.479,0,0,1,3.5-.141l2.936,2.708a2.479,2.479,0,0,1,.141,3.5l-1.574,1.706a2.053,2.053,0,0,0-.26,2.452q.146.249.285.5a2.063,2.063,0,0,0,2.078,1.04l2.092-.28a2.532,2.532,0,0,1,.331-.022,2.486,2.486,0,0,1,2.454,2.149l.533,3.957a2.48,2.48,0,0,1-2.128,2.788l-2.089.28a2.061,2.061,0,0,0-1.732,1.553q-.066.283-.142.564a2.053,2.053,0,0,0,.9,2.294l1.969,1.231a2.479,2.479,0,0,1,.788,3.417L3040,1054a2.478,2.478,0,0,1-3.416.788l-2.785-1.739a2.054,2.054,0,0,0-1.09-.312,2.1,2.1,0,0,0-1.139.337,16.148,16.148,0,0,1-1.991,1.094,2.071,2.071,0,0,0-1.2,2.162l.344,2.563a2.48,2.48,0,0,1-2.127,2.788l-3.958.531A2.468,2.468,0,0,1,3022.3,1062.235Zm-5.629-8.034a2.429,2.429,0,0,1,.814.14c.2.07.4.137.6.2a2.483,2.483,0,0,1,1.71,2.043l.462,3.447a2.073,2.073,0,0,0,2.047,1.793h0a2.1,2.1,0,0,0,.278-.019l3.958-.531a2.068,2.068,0,0,0,1.774-2.325l-.344-2.563a2.482,2.482,0,0,1,1.44-2.591,15.754,15.754,0,0,0,1.94-1.067,2.509,2.509,0,0,1,1.362-.4,2.464,2.464,0,0,1,1.308.374l2.785,1.74a2.067,2.067,0,0,0,2.849-.658l2.116-3.385a2.068,2.068,0,0,0-.658-2.85l-1.969-1.23a2.462,2.462,0,0,1-1.078-2.751q.074-.273.139-.55a2.474,2.474,0,0,1,2.078-1.867l2.09-.28a2.068,2.068,0,0,0,1.774-2.325l-.532-3.957a2.063,2.063,0,0,0-2.323-1.774l-2.091.279a2.492,2.492,0,0,1-.332.022,2.453,2.453,0,0,1-2.163-1.273q-.135-.248-.278-.491a2.462,2.462,0,0,1,.313-2.94l1.574-1.706a2.069,2.069,0,0,0-.118-2.922l-2.936-2.708a2.068,2.068,0,0,0-2.922.117l-2.228,2.414a2.485,2.485,0,0,1-1.822.8,2.519,2.519,0,0,1-.757-.117,15.849,15.849,0,0,0-2.156-.515,2.481,2.481,0,0,1-2.074-2.119l-.344-2.562a2.073,2.073,0,0,0-2.046-1.793,2.127,2.127,0,0,0-.279.019l-3.956.532a2.071,2.071,0,0,0-1.774,2.325l.463,3.446a2.484,2.484,0,0,1-1.11,2.423c-.177.113-.354.231-.525.35a2.435,2.435,0,0,1-1.4.437,2.484,2.484,0,0,1-1.319-.379l-3.142-1.965a2.067,2.067,0,0,0-2.85.657l-2.118,3.387a2.068,2.068,0,0,0,.657,2.85l2.7,1.688a2.48,2.48,0,0,1,1.1,2.679l-.007.031a2.486,2.486,0,0,1-2.081,1.881l-2.963.4a2.068,2.068,0,0,0-1.775,2.325l.533,3.96a2.065,2.065,0,0,0,2.326,1.773l2.96-.4a2.475,2.475,0,0,1,2.5,1.265l.016.03a2.481,2.481,0,0,1-.35,2.875l-2.158,2.338a2.067,2.067,0,0,0,.119,2.923l2.938,2.707a2.068,2.068,0,0,0,2.922-.119l2.512-2.726A2.488,2.488,0,0,1,3016.667,1054.2Z" transform="translate(-3000.091 -1016.883)" fill="#66192d"/>
        </g>
        <g id="Grupo_1228989" data-name="Grupo 1228989" transform="translate(12.809 35.578)">
          <path id="Trazado_1218670" data-name="Trazado 1218670" d="M3076.659,1104.016c-4.467,0-9.441-4.4-10.044-8.876a7.885,7.885,0,0,1,2.224-6.381,10.455,10.455,0,0,1,6.2-3.3,6.42,6.42,0,0,1,.856-.058c4.457,0,8.067,4.583,8.643,8.864a8.9,8.9,0,0,1-1.5,6.366,7.986,7.986,0,0,1-5.516,3.324A6.536,6.536,0,0,1,3076.659,1104.016Zm-.759-18.2a5.987,5.987,0,0,0-.8.054,10.038,10.038,0,0,0-5.956,3.167,7.48,7.48,0,0,0-2.12,6.048,9.972,9.972,0,0,0,3.421,5.842,9.739,9.739,0,0,0,6.215,2.677,6.111,6.111,0,0,0,.812-.053,7.578,7.578,0,0,0,5.235-3.154,8.493,8.493,0,0,0,1.428-6.074C3083.582,1090.215,3080.142,1085.816,3075.9,1085.816Z" transform="translate(-3066.554 -1085.404)" fill="#66192d"/>
        </g>
      </g>
      <g id="Grupo_1229037" data-name="Grupo 1229037" transform="translate(4165.183 5826.5)">
        <g id="Grupo_1228991" data-name="Grupo 1228991" transform="translate(0 0)">
          <path id="Trazado_1218671" data-name="Trazado 1218671" d="M2535.216,655.4l14.251-.387a9.871,9.871,0,0,0,9.6-10.131l-.462-17.326a9.871,9.871,0,0,0-10.134-9.6l-10.08.272a9.86,9.86,0,0,1-9.628-6.754q-.391-1.182-.827-2.353a9.8,9.8,0,0,1,2.792-10.76l6.886-6.026a9.871,9.871,0,0,0,.927-13.932l-11.42-13.041a9.871,9.871,0,0,0-13.923-.929l-6.9,6.029a9.8,9.8,0,0,1-11.022,1.341q-1.1-.582-2.211-1.122a9.861,9.861,0,0,1-5.432-10.443l1.6-9.951a9.871,9.871,0,0,0-8.177-11.315l-17.12-2.756a9.871,9.871,0,0,0-11.314,8.174l-2.272,14.081a9.91,9.91,0,0,1-7.073,7.927,69.38,69.38,0,0,0-9.156,3.353,9.922,9.922,0,0,1-11.552-2.467l-7.391-8.445a9.872,9.872,0,0,0-13.931-.925l-13.037,11.416a9.871,9.871,0,0,0-.924,13.928l9.942,11.358a9.871,9.871,0,0,1,1.651,10.48q-.563,1.269-1.073,2.556a9.825,9.825,0,0,1-8.886,6.164l-16.083.425a9.871,9.871,0,0,0-9.606,10.13l.462,17.339a9.87,9.87,0,0,0,10.131,9.6l13.818-.369a9.877,9.877,0,0,1,9.531,6.48l.048.129a9.846,9.846,0,0,1-2.769,10.817l-9.768,8.545a9.872,9.872,0,0,0-.927,13.933l11.429,13.049a9.871,9.871,0,0,0,13.931.921l9.754-8.547a9.844,9.844,0,0,1,11.089-1.314l.136.072a9.877,9.877,0,0,1,5.162,10.309l-2.2,13.638a9.871,9.871,0,0,0,8.182,11.318l17.127,2.748a9.872,9.872,0,0,0,11.31-8.182l2.552-15.889a9.824,9.824,0,0,1,7.288-7.992q1.341-.335,2.671-.724a9.862,9.862,0,0,1,10.166,3.024l9.94,11.363a9.871,9.871,0,0,0,13.931.929l13.048-11.419a9.871,9.871,0,0,0,.927-13.929l-7.4-8.45A9.922,9.922,0,0,1,2521.9,670a69.078,69.078,0,0,0,4.522-8.626A9.914,9.914,0,0,1,2535.216,655.4Zm-47.042,8.089c-15.149,13.26-46.118,9.494-59.378-5.655-13.243-15.132-7.952-40.737,7.2-53.98,15.132-13.26,40.978-6.153,54.237,9C2503.491,627.987,2503.324,650.233,2488.174,663.493Z" transform="translate(-2363.235 -536.088)" fill="#786ab5"/>
        </g>
        <g id="Grupo_1228992" data-name="Grupo 1228992" transform="translate(1.261 10.288)">
          <path id="Trazado_1218672" data-name="Trazado 1218672" d="M2464.632,769.51a10.293,10.293,0,0,1-1.623-.13l-17.127-2.748a10.168,10.168,0,0,1-8.427-11.658l2.2-13.637a9.579,9.579,0,0,0-5.007-10l-.137-.072a9.541,9.541,0,0,0-10.755,1.275L2414,741.088a10.168,10.168,0,0,1-14.35-.949l-11.429-13.049a10.169,10.169,0,0,1,.955-14.352l9.768-8.545a9.6,9.6,0,0,0,2.686-10.491l-.048-.129a9.618,9.618,0,0,0-9.245-6.288l-13.818.37a10.111,10.111,0,0,1-10.436-9.893l-.462-17.339a10.168,10.168,0,0,1,9.9-10.435l16.083-.425a9.509,9.509,0,0,0,8.619-5.977c.342-.861.7-1.725,1.078-2.567a9.594,9.594,0,0,0-1.6-10.165l-9.942-11.358a10.18,10.18,0,0,1,.952-14.347l13.037-11.416a10.167,10.167,0,0,1,14.35.953l7.391,8.445a9.561,9.561,0,0,0,7.2,3.252,9.733,9.733,0,0,0,4.008-.861,69.9,69.9,0,0,1,9.2-3.367,9.664,9.664,0,0,0,6.862-7.689l2.272-14.081a10.12,10.12,0,0,1,10.026-8.55,10.284,10.284,0,0,1,1.628.131l17.12,2.756a10.167,10.167,0,0,1,8.423,11.655l-1.6,9.951a9.508,9.508,0,0,0,5.269,10.129c.745.361,1.492.741,2.221,1.127a9.342,9.342,0,0,0,4.363,1.082,9.612,9.612,0,0,0,6.324-2.384l6.9-6.029a10.168,10.168,0,0,1,14.342.957l11.419,13.041a10.167,10.167,0,0,1-.954,14.351l-6.887,6.026a9.544,9.544,0,0,0-2.708,10.434c.291.784.57,1.578.83,2.363a9.548,9.548,0,0,0,9.339,6.551l10.08-.271a10.109,10.109,0,0,1,10.438,9.893l.462,17.326a10.18,10.18,0,0,1-9.888,10.435l-14.251.386a9.664,9.664,0,0,0-8.535,5.795,69.714,69.714,0,0,1-4.542,8.663,9.591,9.591,0,0,0,.889,11.419l7.4,8.45a10.167,10.167,0,0,1-.955,14.348l-13.049,11.42a10.156,10.156,0,0,1-6.691,2.516h0a10.174,10.174,0,0,1-7.657-3.473l-9.94-11.364a9.63,9.63,0,0,0-7.238-3.31,9.321,9.321,0,0,0-2.621.376c-.886.26-1.789.5-2.683.728a9.509,9.509,0,0,0-7.067,7.752l-2.552,15.889A10.123,10.123,0,0,1,2464.632,769.51Zm-34.563-39.942a10.111,10.111,0,0,1,4.717,1.172l.135.071a10.173,10.173,0,0,1,5.318,10.62l-2.2,13.638a9.575,9.575,0,0,0,7.936,10.978l17.127,2.748a9.68,9.68,0,0,0,1.528.122,9.528,9.528,0,0,0,9.441-8.058l2.552-15.89a10.1,10.1,0,0,1,7.509-8.233c.886-.221,1.781-.464,2.66-.721a9.9,9.9,0,0,1,2.788-.4,10.222,10.222,0,0,1,7.684,3.512l9.94,11.364a9.58,9.58,0,0,0,7.211,3.271h0a9.566,9.566,0,0,0,6.3-2.369l13.049-11.42a9.575,9.575,0,0,0,.9-13.511l-7.4-8.45a10.181,10.181,0,0,1-.948-12.121,69.034,69.034,0,0,0,4.5-8.589,10.261,10.261,0,0,1,9.063-6.15l14.251-.386a9.586,9.586,0,0,0,9.312-9.826l-.462-17.326a9.519,9.519,0,0,0-9.829-9.315l-10.08.271a10.148,10.148,0,0,1-9.918-6.958c-.258-.778-.534-1.566-.823-2.343a10.141,10.141,0,0,1,2.874-11.087l6.887-6.026a9.575,9.575,0,0,0,.9-13.513l-11.42-13.041a9.574,9.574,0,0,0-13.5-.9l-6.9,6.029a10.2,10.2,0,0,1-6.715,2.531,9.933,9.933,0,0,1-4.641-1.151c-.723-.383-1.463-.759-2.2-1.117a10.1,10.1,0,0,1-5.595-10.757l1.6-9.952a9.574,9.574,0,0,0-7.931-10.975l-17.12-2.756a9.677,9.677,0,0,0-1.534-.123,9.529,9.529,0,0,0-9.44,8.051l-2.272,14.081a10.261,10.261,0,0,1-7.283,8.165,69.31,69.31,0,0,0-9.117,3.339,10.332,10.332,0,0,1-4.251.913,10.153,10.153,0,0,1-7.646-3.454l-7.39-8.445a9.574,9.574,0,0,0-13.513-.9l-13.037,11.416a9.586,9.586,0,0,0-.9,13.509l9.942,11.358a10.188,10.188,0,0,1,1.7,10.8c-.37.835-.73,1.691-1.069,2.545a10.1,10.1,0,0,1-9.155,6.352l-16.083.425a9.574,9.574,0,0,0-9.318,9.827l.462,17.338a9.528,9.528,0,0,0,9.827,9.316l13.818-.37a10.224,10.224,0,0,1,9.817,6.675l.048.13a10.2,10.2,0,0,1-2.852,11.142l-9.768,8.545a9.575,9.575,0,0,0-.9,13.515l11.428,13.049a9.574,9.574,0,0,0,13.512.893l9.754-8.547A10.179,10.179,0,0,1,2430.069,729.568Z" transform="translate(-2367.618 -571.835)" fill="#66192d"/>
        </g>
        <g id="Grupo_1229036" data-name="Grupo 1229036" transform="translate(54.304 60.278)">
          <g id="Grupo_1228993" data-name="Grupo 1228993" transform="translate(17.049 28.327)">
            <path id="Trazado_1218673" data-name="Trazado 1218673" d="M2617.382,843.967c-.673,1.2-7.435,11.674-6.02,21.918l7.36-2.661,3.363-13.809Z" transform="translate(-2611.168 -843.967)" fill="#fdad9b"/>
          </g>
          <g id="Grupo_1228994" data-name="Grupo 1228994" transform="translate(22.333 17.774)">
            <path id="Trazado_1218674" data-name="Trazado 1218674" d="M2659.847,813.561s-4.522-8.11-15.528-5.868-17.014,18-14.029,49.2c0,0,17.486-6.952,40.223-1.347C2670.512,855.545,2666.768,825.326,2659.847,813.561Z" transform="translate(-2629.528 -807.301)" fill="#ff443c"/>
          </g>
          <g id="Grupo_1228995" data-name="Grupo 1228995" transform="translate(20.289 17.395)">
            <path id="Trazado_1218675" data-name="Trazado 1218675" d="M2663.185,809.345l-7.737,7.723s-19.834,5.359-25.343,5.294a8.852,8.852,0,0,1-7.678-4.091,29.377,29.377,0,0,1,14.058-10.694,27.412,27.412,0,0,1,2.776-.824,28.283,28.283,0,0,1,4.914-.712C2653.912,805.462,2663.185,809.345,2663.185,809.345Z" transform="translate(-2622.427 -805.983)" fill="#ff443c"/>
          </g>
          <g id="Grupo_1228996" data-name="Grupo 1228996" transform="translate(53.167 20.601)">
            <path id="Trazado_1218676" data-name="Trazado 1218676" d="M2744.548,817.277c1.237,1.344-.67,2.813-2.807,4.945s-4.344,3.376-4.93,2.778.671-2.813,2.807-4.945S2743.979,816.661,2744.548,817.277Z" transform="translate(-2736.668 -817.121)" fill="#66192d"/>
          </g>
          <g id="Grupo_1228997" data-name="Grupo 1228997" transform="translate(54.337 22.516)">
            <path id="Trazado_1218677" data-name="Trazado 1218677" d="M2740.737,829.774s-.116-1.542,1.823-3.512a11.775,11.775,0,0,1,3.637-2.39,1.13,1.13,0,0,1,1.5.635l.621,1.6-2.888,1.859Z" transform="translate(-2740.736 -823.778)" fill="#fdad9b"/>
          </g>
          <g id="Grupo_1228998" data-name="Grupo 1228998" transform="translate(31.821 51.704)">
            <path id="Trazado_1218678" data-name="Trazado 1218678" d="M2671.345,930.615s23.868-12.934,32.423,1.175c6.333,10.445-3.187,20.172-38.5,19.184,0,0-3.49-1.635-2.64-10.113C2662.967,937.5,2671.345,930.615,2671.345,930.615Z" transform="translate(-2662.498 -925.199)" fill="#ff8548"/>
          </g>
          <g id="Grupo_1228999" data-name="Grupo 1228999" transform="translate(0 49.562)">
            <path id="Trazado_1218679" data-name="Trazado 1218679" d="M2592.6,925.312s-31.789-13.022-38.079-4.881c-7.229,9.355-.3,25.24,33.212,19.562l4.083-4.435Z" transform="translate(-2551.927 -917.754)" fill="#ff8548"/>
          </g>
          <g id="Grupo_1229000" data-name="Grupo 1229000" transform="translate(31.693 58.521)">
            <path id="Trazado_1218680" data-name="Trazado 1218680" d="M2664.914,967.9c-3.92-2.8-2.68-10.105-2.667-10.179l.007-.038.036-.013,24.131-8.782.046.126-24.094,8.769c-.091.571-1.088,7.364,2.619,10.009Z" transform="translate(-2662.051 -948.886)" fill="#020202"/>
          </g>
          <g id="Grupo_1229001" data-name="Grupo 1229001" transform="translate(21.79 69.699)">
            <path id="Trazado_1218681" data-name="Trazado 1218681" d="M2637.6,987.726s-5.858.238-8.61,1.588-1.282,4.644,4.305,4.556,5.164-.92,5.164-.92A14.653,14.653,0,0,1,2637.6,987.726Z" transform="translate(-2627.644 -987.726)" fill="#66192d"/>
          </g>
          <g id="Grupo_1229003" data-name="Grupo 1229003" transform="translate(31.777 23.593)">
            <g id="Grupo_1229002" data-name="Grupo 1229002">
              <path id="Trazado_1218682" data-name="Trazado 1218682" d="M2669.818,861.665a7.758,7.758,0,0,1-4.826-1.465,6.947,6.947,0,0,1-2.54-6.73l2.335-1.358c.116-.641,4.622,1.74,4.615,1.738.02.007,2.151.623,9.536-3.151,5.141-2.628,7.732-6.356,7.921-11.4a12.268,12.268,0,0,0-1.952-6.863c-.053-.123,2.485-2.667,2.412-2.926l1.9-.967c-.062-.218,1.829-.964,1.8-1.026l1.468,1.251a24.484,24.484,0,0,1,2.067,10.826c-.207,5.508-2.481,13.11-12.142,18.047C2677.148,860.333,2673.015,861.665,2669.818,861.665Z" transform="translate(-2662.345 -827.518)" fill="#fdad9b"/>
            </g>
          </g>
          <g id="Grupo_1229010" data-name="Grupo 1229010" transform="translate(10.508 43.213)">
            <g id="Grupo_1229004" data-name="Grupo 1229004" transform="translate(1.292 0.064)">
              <path id="Trazado_1218683" data-name="Trazado 1218683" d="M2618.81,910.689h-20.6a1,1,0,0,1-.95-.681l-4.281-12.784a1,1,0,0,1,.95-1.308h19.809a2.094,2.094,0,0,1,1.989,1.425l4.032,12.04A.994.994,0,0,1,2618.81,910.689Z" transform="translate(-2592.929 -895.916)" fill="#66192d"/>
            </g>
            <g id="Grupo_1229005" data-name="Grupo 1229005" transform="translate(0 0.064)">
              <path id="Trazado_1218684" data-name="Trazado 1218684" d="M2614.32,910.689h-20.6a1,1,0,0,1-.95-.681l-4.281-12.784a1,1,0,0,1,.95-1.308h19.809a2.1,2.1,0,0,1,1.989,1.425l4.031,12.04A1,1,0,0,1,2614.32,910.689Z" transform="translate(-2588.438 -895.916)" fill="#66192d"/>
            </g>
            <g id="Grupo_1229006" data-name="Grupo 1229006" transform="translate(11.449 6.349)">
              <path id="Trazado_1218685" data-name="Trazado 1218685" d="M2628.22,918.437c0-.485.56-.683,1.049-.683a1.4,1.4,0,0,1,1.282,1.212c-.005.734-.579.829-1.068.829A1.616,1.616,0,0,1,2628.22,918.437Z" transform="translate(-2628.22 -917.754)" fill="#ffba41"/>
            </g>
            <g id="Grupo_1229007" data-name="Grupo 1229007" transform="translate(5.274 13.031)">
              <path id="Trazado_1218686" data-name="Trazado 1218686" d="M2634.953,940.971h-28.188v1.806h28.774a.606.606,0,0,0,.605-.605v-.009A1.193,1.193,0,0,0,2634.953,940.971Z" transform="translate(-2606.765 -940.971)" fill="#66192d"/>
            </g>
            <g id="Grupo_1229008" data-name="Grupo 1229008" transform="translate(21.294)">
              <path id="Trazado_1218687" data-name="Trazado 1218687" d="M2665.552,902.219a36.017,36.017,0,0,0-1.675-5.005,2.787,2.787,0,0,0-1.448-1.393l.036-.129a2.86,2.86,0,0,1,1.529,1.457,35.374,35.374,0,0,1,1.688,5.036Z" transform="translate(-2662.429 -895.692)" fill="#66192d"/>
            </g>
            <g id="Grupo_1229009" data-name="Grupo 1229009" transform="translate(24.89 7.898)">
              <path id="Trazado_1218688" data-name="Trazado 1218688" d="M2677.5,928.335c-.764,0-.954-.338-.961-.352l-1.61-4.8.127-.043,1.605,4.795h0s.174.271.839.271Z" transform="translate(-2674.926 -923.136)" fill="#66192d"/>
            </g>
          </g>
          <g id="Grupo_1229011" data-name="Grupo 1229011" transform="translate(57.068 43.229)">
            <path id="Trazado_1218689" data-name="Trazado 1218689" d="M2750.926,899.178a.654.654,0,0,1-.332-.086c-.5-.294-.49-1.239.032-2.152a2.394,2.394,0,0,1,1.272-1.159.722.722,0,0,1,.561.054c.5.294.49,1.239-.032,2.152h0a2.391,2.391,0,0,1-1.271,1.159A.9.9,0,0,1,2750.926,899.178Zm1.2-3.161a.611.611,0,0,0-.161.023,2.159,2.159,0,0,0-1.108,1.033c-.433.758-.492,1.576-.129,1.788a.454.454,0,0,0,.357.027,2.157,2.157,0,0,0,1.108-1.033h0c.433-.758.493-1.576.13-1.787A.383.383,0,0,0,2752.126,896.016Z" transform="translate(-2750.226 -895.749)" fill="#e08b65"/>
          </g>
          <g id="Grupo_1229012" data-name="Grupo 1229012" transform="translate(31.813 7.831)">
            <path id="Trazado_1218690" data-name="Trazado 1218690" d="M2672.861,782.353c-1.354-.04-2.38-.179-3.159-1.095l-2.409-2.834-.7-.825-4.124-4.851,2.165,5.673,1.3,3.4.411,1.078c.28.732-.09,1.073-.35,1.928-.105.347-.816,2.48,1.035,2.494,2.306.017,5.224-2.664,5.865-4.979A.122.122,0,0,1,2672.861,782.353Z" transform="translate(-2662.469 -772.748)" fill="#fdad9b"/>
          </g>
          <g id="Grupo_1229013" data-name="Grupo 1229013" transform="translate(35.957 2.797)">
            <path id="Trazado_1218691" data-name="Trazado 1218691" d="M2678.223,764.146s4.541-4.363,1.921-8.047-3.273,5.911-3.273,5.911l.732,2.218Z" transform="translate(-2676.87 -755.258)" fill="#66192d"/>
          </g>
          <g id="Grupo_1229014" data-name="Grupo 1229014" transform="translate(33.98 12.67)">
            <path id="Trazado_1218692" data-name="Trazado 1218692" d="M2672.635,790.3c.009.032.017.065.023.1a3.89,3.89,0,0,1-1.344,3.408l-.015-.006-1.3-3.4a3.2,3.2,0,0,1,1.958-.822C2672.267,789.625,2672.515,789.835,2672.635,790.3Z" transform="translate(-2669.999 -789.565)" fill="#66192d"/>
          </g>
          <g id="Grupo_1229015" data-name="Grupo 1229015" transform="translate(26.674 3.117)">
            <path id="Trazado_1218693" data-name="Trazado 1218693" d="M2644.944,764.292c-1.024-3.41.416-6.87,3.217-7.727s5.9,1.212,6.925,4.622-.416,6.87-3.217,7.727S2645.969,767.7,2644.944,764.292Z" transform="translate(-2644.614 -756.371)" fill="#fdad9b"/>
          </g>
          <g id="Grupo_1229016" data-name="Grupo 1229016" transform="translate(22.387)">
            <path id="Trazado_1218694" data-name="Trazado 1218694" d="M2643.516,752.979a2.418,2.418,0,0,1-2.657.163c-1.212-.888-2.069-1.731-4.782-.366s-5.685.753-6.233-.785.744-2.716,2.448-2.639-.36-.858.825-2.475,4.193.049,5.685-.753,6.8-1.5,7.758,3.053Z" transform="translate(-2629.716 -745.539)" fill="#66192d"/>
          </g>
          <g id="Grupo_1229017" data-name="Grupo 1229017" transform="translate(35.391 6.654)">
            <path id="Trazado_1218695" data-name="Trazado 1218695" d="M2676.832,770.357a1.091,1.091,0,0,1-1.493.4,1.115,1.115,0,0,1-.231-1.544,1.091,1.091,0,0,1,1.493-.4A1.113,1.113,0,0,1,2676.832,770.357Z" transform="translate(-2674.901 -768.658)" fill="#fdad9b"/>
          </g>
          <g id="Grupo_1229018" data-name="Grupo 1229018" transform="translate(24.474 4.317)">
            <path id="Trazado_1218696" data-name="Trazado 1218696" d="M2638,762.143a1.186,1.186,0,0,1-.292-.035c-.612-.155-.783-.475-.739-.723.051-.284.4-.557.939-.5a2.109,2.109,0,0,0,1.255-.192l.107.167a2.256,2.256,0,0,1-1.383.222c-.4-.041-.689.143-.723.338s.191.394.592.5c1.047.265,2.849-1.359,2.867-1.376l.134.147C2640.691,760.751,2639.146,762.143,2638,762.143Z" transform="translate(-2636.967 -760.54)" fill="#fff"/>
          </g>
          <g id="Grupo_1229019" data-name="Grupo 1229019" transform="translate(28.022 0.449)">
            <path id="Trazado_1218697" data-name="Trazado 1218697" d="M2651.474,748.759a4.348,4.348,0,0,1-2.177-.576l.145-.135a4.077,4.077,0,0,0,3.1.325,12.038,12.038,0,0,0,1.259-.6,3.49,3.49,0,0,1,2.288-.637l-.038.2a3.346,3.346,0,0,0-2.158.617,12.136,12.136,0,0,1-1.279.612A3.1,3.1,0,0,1,2651.474,748.759Z" transform="translate(-2649.297 -747.098)" fill="#fff"/>
          </g>
          <g id="Grupo_1229020" data-name="Grupo 1229020" transform="translate(36.843 2.272)">
            <path id="Trazado_1218698" data-name="Trazado 1218698" d="M2680.958,754.565a1.623,1.623,0,0,1-.966-.74c-.105-.212,0-.31.052-.342.4-.25.974.532,1.085.691l.015.031c.064.242-.038.321-.1.346A.237.237,0,0,1,2680.958,754.565Zm-.742-.932a.119.119,0,0,0-.066.018c-.009.017.006.122.2.321a1.165,1.165,0,0,0,.617.394.369.369,0,0,0-.012-.093C2680.754,753.989,2680.412,753.633,2680.216,753.633Z" transform="translate(-2679.948 -753.434)" fill="#fff"/>
          </g>
          <g id="Grupo_1229022" data-name="Grupo 1229022" transform="translate(30.966 9.267)">
            <g id="Grupo_1229021" data-name="Grupo 1229021">
              <path id="Trazado_1218699" data-name="Trazado 1218699" d="M2659.621,778.127a.107.107,0,0,1-.079-.055.109.109,0,0,1,.042-.147,1.153,1.153,0,0,1,1.418.133.11.11,0,0,1,.016.153.118.118,0,0,1-.151.016,1.824,1.824,0,0,0-1.178-.112A.107.107,0,0,1,2659.621,778.127Z" transform="translate(-2659.528 -777.741)" fill="#060633"/>
            </g>
          </g>
          <g id="Grupo_1229023" data-name="Grupo 1229023" transform="translate(31.379 10.316)">
            <path id="Trazado_1218700" data-name="Trazado 1218700" d="M2661.634,781.8c.04.256-.076.487-.26.516s-.365-.154-.406-.409.076-.487.259-.516S2661.593,781.54,2661.634,781.8Z" transform="translate(-2660.96 -781.383)" fill="#060633"/>
          </g>
          <g id="Grupo_1229025" data-name="Grupo 1229025" transform="translate(27.195 10.401)">
            <g id="Grupo_1229024" data-name="Grupo 1229024">
              <path id="Trazado_1218701" data-name="Trazado 1218701" d="M2646.534,782.293a.079.079,0,0,1-.075-.025.131.131,0,0,1-.021-.151.751.751,0,0,1,1.049-.342.13.13,0,0,1,.064.137.08.08,0,0,1-.1.064,1.12,1.12,0,0,0-.872.282A.074.074,0,0,1,2646.534,782.293Z" transform="translate(-2646.423 -781.678)" fill="#060633"/>
            </g>
          </g>
          <g id="Grupo_1229026" data-name="Grupo 1229026" transform="translate(27.99 11.36)">
            <path id="Trazado_1218702" data-name="Trazado 1218702" d="M2649.849,785.272a.424.424,0,0,1-.045.577c-.158.1-.4,0-.53-.222a.423.423,0,0,1,.045-.577C2649.478,784.951,2649.714,785.051,2649.849,785.272Z" transform="translate(-2649.186 -785.012)" fill="#060633"/>
          </g>
          <g id="Grupo_1229029" data-name="Grupo 1229029" transform="translate(31.02 12.756)">
            <g id="Grupo_1229027" data-name="Grupo 1229027" transform="translate(0 0.255)">
              <path id="Trazado_1218703" data-name="Trazado 1218703" d="M2660.421,792.075a2.936,2.936,0,0,1-.651-.067.075.075,0,0,1,.038-.146,2.431,2.431,0,0,0,2.682-1.075.075.075,0,1,1,.131.074A2.41,2.41,0,0,1,2660.421,792.075Z" transform="translate(-2659.714 -790.749)" fill="#020202"/>
            </g>
            <g id="Grupo_1229028" data-name="Grupo 1229028" transform="translate(2.505)">
              <path id="Trazado_1218704" data-name="Trazado 1218704" d="M2668.97,790.5a.075.075,0,0,1-.072-.052.852.852,0,0,0-.427-.431l-.022-.013a.075.075,0,0,1,.084-.125,1.025,1.025,0,0,1,.508.522.075.075,0,0,1-.048.1A.069.069,0,0,1,2668.97,790.5Z" transform="translate(-2668.416 -789.863)" fill="#020202"/>
            </g>
          </g>
          <g id="Grupo_1229030" data-name="Grupo 1229030" transform="translate(24.315 29.377)">
            <rect id="Rect치ngulo_422725" data-name="Rect치ngulo 422725" width="3.891" height="0.331" transform="matrix(0.313, -0.95, 0.95, 0.313, 0, 3.696)" fill="#66192d"/>
          </g>
          <g id="Grupo_1229031" data-name="Grupo 1229031" transform="translate(24.869 8.396)">
            <path id="Trazado_1218705" data-name="Trazado 1218705" d="M2641.52,781.591a1.672,1.672,0,0,1-.218-.015,3.356,3.356,0,0,1-2.214-1.8c-.959-1.659-1-3.74-.1-4.637a1.43,1.43,0,0,1,1.239-.411,3.352,3.352,0,0,1,2.214,1.8h0c.959,1.659,1,3.74.1,4.637A1.418,1.418,0,0,1,2641.52,781.591Zm-1.505-6.655a1.2,1.2,0,0,0-.866.36c-.838.831-.779,2.789.132,4.366a3.14,3.14,0,0,0,2.05,1.692,1.212,1.212,0,0,0,1.051-.348c.838-.831.779-2.789-.132-4.366a3.142,3.142,0,0,0-2.05-1.692A1.4,1.4,0,0,0,2640.015,774.936Z" transform="translate(-2638.34 -774.712)" fill="#fff"/>
          </g>
          <g id="Grupo_1229032" data-name="Grupo 1229032" transform="translate(30.135 5.927)" opacity="0.3">
            <path id="Trazado_1218706" data-name="Trazado 1218706" d="M2660.877,767.981c.776,1.651.561,3.659-.48,4.485s-2.514.159-3.29-1.492-.562-3.658.479-4.485S2660.1,766.331,2660.877,767.981Z" transform="translate(-2656.641 -766.135)" fill="#fff"/>
          </g>
          <g id="Grupo_1229033" data-name="Grupo 1229033" transform="translate(25.237 8.483)" opacity="0.3">
            <path id="Trazado_1218707" data-name="Trazado 1218707" d="M2643.433,776.876c.779,1.659.674,3.67-.236,4.494s-2.277.147-3.056-1.511-.674-3.67.235-4.494S2642.653,775.218,2643.433,776.876Z" transform="translate(-2639.619 -775.015)" fill="#fff"/>
          </g>
          <g id="Grupo_1229034" data-name="Grupo 1229034" transform="translate(29.696 5.499)">
            <path id="Trazado_1218708" data-name="Trazado 1218708" d="M2658.143,771.849a1.975,1.975,0,0,1-.453-.054,3.316,3.316,0,0,1-2.082-1.927c-.838-1.761-.584-3.925.565-4.822a1.815,1.815,0,0,1,1.583-.345,3.315,3.315,0,0,1,2.082,1.926h0c.838,1.762.584,3.925-.565,4.823A1.809,1.809,0,0,1,2658.143,771.849Zm-.834-6.979a1.593,1.593,0,0,0-1,.352c-1.072.837-1.3,2.878-.5,4.55a3.141,3.141,0,0,0,1.932,1.805,1.6,1.6,0,0,0,1.394-.3c1.072-.837,1.3-2.878.5-4.55h0a3.141,3.141,0,0,0-1.931-1.805A1.736,1.736,0,0,0,2657.309,764.871Z" transform="translate(-2655.114 -764.646)" fill="#fff"/>
          </g>
          <g id="Grupo_1229035" data-name="Grupo 1229035" transform="translate(28.709 9.965)">
            <path id="Trazado_1218709" data-name="Trazado 1218709" d="M2651.893,781.25a.209.209,0,0,1-.166-.336,2.259,2.259,0,0,1,1.719-.75h.005a.209.209,0,0,1,.005.418,1.85,1.85,0,0,0-1.4.587A.209.209,0,0,1,2651.893,781.25Z" transform="translate(-2651.684 -780.164)" fill="#fff"/>
          </g>
        </g>
      </g>
      <g id="Grupo_1229077" data-name="Grupo 1229077" transform="translate(4137.319 6020.649)">
        <g id="Grupo_1229038" data-name="Grupo 1229038" transform="translate(54.84 109.403)">
          <path id="Trazado_1218710" data-name="Trazado 1218710" d="M2440.34,1590.86s.1,2.824,2.015,3.6,7.463,1.447,5.41,3.282c-1.178,1.053-6.78.431-8.359.445s-3.057.717-4.241-.33c-1.3-1.152-.063-6.953-.063-6.953a6.308,6.308,0,0,0,2.6.655A5.046,5.046,0,0,0,2440.34,1590.86Z" transform="translate(-2434.57 -1590.86)" fill="#66192d"/>
        </g>
        <g id="Grupo_1229039" data-name="Grupo 1229039" transform="translate(71.756 107.976)">
          <path id="Trazado_1218711" data-name="Trazado 1218711" d="M2499.071,1585.9s.127,2.823,2.054,3.581,7.479,1.367,5.445,3.224c-1.167,1.066-6.774.5-8.354.536s-3.049.749-4.244-.284c-1.315-1.137-.139-6.952-.139-6.952a6.309,6.309,0,0,0,2.6.627A5.026,5.026,0,0,0,2499.071,1585.9Z" transform="translate(-2493.349 -1585.9)" fill="#66192d"/>
        </g>
        <g id="Grupo_1229041" data-name="Grupo 1229041" transform="translate(20.564 52.578)">
          <g id="Grupo_1229040" data-name="Grupo 1229040">
            <path id="Trazado_1218712" data-name="Trazado 1218712" d="M2371.063,1451.124a6.142,6.142,0,0,0,5.508-6.458c-1.061-18.526-2.676-27.868-8.841-35.654a39.888,39.888,0,0,0-16.783-12.422,44.672,44.672,0,0,0-17.779-3.175c-10.82.174-15.777,2.156-15.777,2.156-6.832,17.419,6,18.705,15.4,18.466q.466-.012.936-.017c5.7-.066,15.893.623,20.131,5.974,3.355,4.238,5.921,10.347,8.012,26.444a5.748,5.748,0,0,0,6.281,4.984Z" transform="translate(-2315.467 -1393.407)" fill="#ffba41"/>
          </g>
        </g>
        <g id="Grupo_1229043" data-name="Grupo 1229043" transform="translate(5.915 56.866)">
          <g id="Grupo_1229042" data-name="Grupo 1229042">
            <path id="Trazado_1218713" data-name="Trazado 1218713" d="M2319.273,1463.86a6.142,6.142,0,0,0,5.508-6.459c-1.06-18.526-2.675-27.868-8.841-35.654-3.961-5-9.623-8.578-16.83-10.629a61.637,61.637,0,0,0-17.75-2.046c-10.82.174-15.759-.766-15.759-.766-7.113,22.176,24.44,15.226,33.427,23.778,3.917,3.726,8.966,10.992,11.057,27.089a5.747,5.747,0,0,0,6.281,4.983Z" transform="translate(-2264.566 -1408.307)" fill="#ffba41"/>
          </g>
        </g>
        <g id="Grupo_1229044" data-name="Grupo 1229044" transform="translate(36.264 25.815)">
          <path id="Trazado_1218714" data-name="Trazado 1218714" d="M2373.992,1300.41c.84,1.112,9.062,10.694,9.047,21.167l-7.75-1.66-5.269-13.4Z" transform="translate(-2370.02 -1300.41)" fill="#fdad9b"/>
        </g>
        <g id="Grupo_1229045" data-name="Grupo 1229045" transform="translate(3.855 17.476)">
          <path id="Trazado_1218715" data-name="Trazado 1218715" d="M2263.712,1279.5s3.425-8.758,14.777-8.018,19.28,5.313,20.563,37.033c0,0-15.666-1.072-33.71,9.273-3.038,1.742-7.744,1.329-7.9-2.169C2257.142,1308.648,2258.728,1295.367,2263.712,1279.5Z" transform="translate(-2257.41 -1271.436)" fill="#552748"/>
        </g>
        <g id="Grupo_1229046" data-name="Grupo 1229046" transform="translate(0.163 17.275)">
          <path id="Trazado_1218716" data-name="Trazado 1218716" d="M2244.58,1280.274l9.944,3.277s20.637,2.656,26.156,1.837a8.965,8.965,0,0,0,7.142-5.157,29.748,29.748,0,0,0-15.572-8.8,27.765,27.765,0,0,0-2.9-.446,25.6,25.6,0,0,0-4.957-.187C2248.215,1272.305,2244.58,1280.274,2244.58,1280.274Z" transform="translate(-2244.58 -1270.736)" fill="#552748"/>
        </g>
        <g id="Grupo_1229047" data-name="Grupo 1229047" transform="translate(0.083 26.356)">
          <path id="Trazado_1218717" data-name="Trazado 1218717" d="M2244.38,1302.748c-.549,1.184,1.777,2.327,4.631,3.423s5.408,1.339,5.7.544-1.777-2.327-4.631-3.423S2244.737,1301.977,2244.38,1302.748Z" transform="translate(-2244.3 -1302.29)" fill="#66192d"/>
        </g>
        <g id="Grupo_1229049" data-name="Grupo 1229049" transform="translate(0 27.332)">
          <g id="Grupo_1229048" data-name="Grupo 1229048">
            <path id="Trazado_1218718" data-name="Trazado 1218718" d="M2272.241,1335.871a7.858,7.858,0,0,0,4.642-2.133,7.035,7.035,0,0,0,1.625-7.1l-2.529-1.042c-.2-.627-4.4,2.38-4.392,2.376-.02.01-2.073.92-10-1.854-5.519-1.931-8.63-5.317-9.512-10.351a11.072,11.072,0,0,1,.864-6.709c.036-.131-.662-1.791-3.609-2.8-3.181-1.093-4.351-.283-4.351-.283a24.808,24.808,0,0,0-.589,11.147c.962,5.5,4.287,12.814,14.658,16.443C2264.7,1335.54,2269.035,1336.308,2272.241,1335.871Z" transform="translate(-2244.013 -1305.682)" fill="#fdad9b"/>
          </g>
        </g>
        <g id="Grupo_1229056" data-name="Grupo 1229056" transform="translate(22.381 43.055)">
          <g id="Grupo_1229050" data-name="Grupo 1229050" transform="translate(6.552 0.02)">
            <path id="Trazado_1218719" data-name="Trazado 1218719" d="M2345.579,1375.743l20.858-.33a1.014,1.014,0,0,0,.951-.7l4.13-13.014a1.008,1.008,0,0,0-.983-1.309l-20.059.317a2.122,2.122,0,0,0-1.991,1.475l-3.89,12.256A1.008,1.008,0,0,0,2345.579,1375.743Z" transform="translate(-2344.548 -1360.386)" fill="#66192d"/>
          </g>
          <g id="Grupo_1229051" data-name="Grupo 1229051" transform="translate(7.861)">
            <path id="Trazado_1218720" data-name="Trazado 1218720" d="M2350.129,1375.673l20.858-.33a1.013,1.013,0,0,0,.951-.7l4.13-13.014a1.008,1.008,0,0,0-.983-1.309l-20.059.317a2.121,2.121,0,0,0-1.991,1.475l-3.889,12.256A1.009,1.009,0,0,0,2350.129,1375.673Z" transform="translate(-2349.098 -1360.316)" fill="#66192d"/>
          </g>
          <g id="Grupo_1229052" data-name="Grupo 1229052" transform="translate(21.031 6.547)">
            <path id="Trazado_1218721" data-name="Trazado 1218721" d="M2397.211,1383.739c-.008-.492-.578-.683-1.073-.675a1.417,1.417,0,0,0-1.278,1.249c.017.743.6.83,1.094.823A1.635,1.635,0,0,0,2397.211,1383.739Z" transform="translate(-2394.859 -1383.064)" fill="#ffba41"/>
          </g>
          <g id="Grupo_1229053" data-name="Grupo 1229053" transform="translate(0 13.197)">
            <path id="Trazado_1218722" data-name="Trazado 1218722" d="M2322.97,1406.622l28.543-.451.029,1.829-29.137.461a.613.613,0,0,1-.623-.6v-.009A1.21,1.21,0,0,1,2322.97,1406.622Z" transform="translate(-2321.782 -1406.171)" fill="#66192d"/>
          </g>
          <g id="Grupo_1229054" data-name="Grupo 1229054" transform="translate(10.11 0.261)">
            <path id="Trazado_1218723" data-name="Trazado 1218723" d="M2357.045,1367.88l-.132-.033a35.688,35.688,0,0,1,1.628-5.127,2.9,2.9,0,0,1,1.525-1.5l.038.13a2.827,2.827,0,0,0-1.443,1.434A36.308,36.308,0,0,0,2357.045,1367.88Z" transform="translate(-2356.913 -1361.221)" fill="#66192d"/>
          </g>
          <g id="Grupo_1229055" data-name="Grupo 1229055" transform="translate(7.261 8.315)">
            <path id="Trazado_1218724" data-name="Trazado 1218724" d="M2347.015,1394.513l0-.135c.684-.011.849-.3.85-.3l1.544-4.869.129.041-1.549,4.88C2347.976,1394.156,2347.789,1394.5,2347.015,1394.513Z" transform="translate(-2347.013 -1389.208)" fill="#66192d"/>
          </g>
        </g>
        <g id="Grupo_1229057" data-name="Grupo 1229057" transform="translate(5.858 45.657)" opacity="0.3">
          <path id="Trazado_1218725" data-name="Trazado 1218725" d="M2266.524,1372.647a.96.96,0,0,1-.121-.008,2.423,2.423,0,0,1-1.435-.989c-.649-.844-.793-1.791-.327-2.155a.73.73,0,0,1,.555-.131,2.422,2.422,0,0,1,1.435.989c.649.844.792,1.791.327,2.155A.681.681,0,0,1,2266.524,1372.647Zm-1.45-3.019a.417.417,0,0,0-.265.082c-.335.262-.164,1.075.375,1.776h0a2.185,2.185,0,0,0,1.254.885.462.462,0,0,0,.354-.076c.335-.262.163-1.075-.375-1.776a2.186,2.186,0,0,0-1.254-.885C2265.131,1369.631,2265.1,1369.628,2265.073,1369.628Z" transform="translate(-2264.368 -1369.357)" fill="#e08b65"/>
        </g>
        <g id="Grupo_1229058" data-name="Grupo 1229058" transform="translate(19.98 6.966)">
          <path id="Trazado_1218726" data-name="Trazado 1218726" d="M2316.366,1243.916l1.746-3,.508-.873,2.987-5.131-1.043,5.548-.627,3.331-.2,1.054c-.135.715.263.964.647,1.7.156.3,1.169,2.127-.536,2.453-2.124.407-5.43-1.714-6.41-3.72C2313.451,1245.283,2315.8,1244.885,2316.366,1243.916Z" transform="translate(-2313.439 -1234.915)" fill="#fdad9b"/>
        </g>
        <g id="Grupo_1229075" data-name="Grupo 1229075" transform="translate(19.303)">
          <g id="Grupo_1229059" data-name="Grupo 1229059" transform="translate(11.542 5.908)">
            <path id="Trazado_1218727" data-name="Trazado 1218727" d="M2353.381,1231.24a7.45,7.45,0,0,1-.7,3.014c-.736,1.6-1.49-2.919-1.49-2.919Z" transform="translate(-2351.195 -1231.24)" fill="#56335b"/>
          </g>
          <g id="Grupo_1229060" data-name="Grupo 1229060" transform="translate(3.057 2.901)">
            <path id="Trazado_1218728" data-name="Trazado 1218728" d="M2331.777,1227.343c.323-3.34-1.662-6.266-4.432-6.533s-5.278,2.224-5.6,5.564,1.662,6.266,4.432,6.533S2331.452,1230.685,2331.777,1227.343Z" transform="translate(-2321.71 -1220.791)" fill="#fdad9b"/>
          </g>
          <g id="Grupo_1229061" data-name="Grupo 1229061">
            <path id="Trazado_1218729" data-name="Trazado 1218729" d="M2314.447,1217.47l2.434.3a1.774,1.774,0,0,0,1.463-.481c.663-.65,1.339-.906,3.537-.311,2.783.753,5.024-.493,5.666-1.892a1.721,1.721,0,0,0-2.122-2.387c-1.575.39-.565-1.224-1.878-1.723-2.454-.933-3.379.911-5.44.369-2.7-.711-8.052.231-6.845,5.554Z" transform="translate(-2311.088 -1210.71)" fill="#66192d"/>
          </g>
          <g id="Grupo_1229063" data-name="Grupo 1229063" transform="translate(7.098 8.513)">
            <g id="Grupo_1229062" data-name="Grupo 1229062">
              <path id="Trazado_1218730" data-name="Trazado 1218730" d="M2337.074,1240.558a.1.1,0,0,0,0-.194,1.106,1.106,0,0,0-1.3.388.1.1,0,0,0,.014.144.112.112,0,0,0,.144-.014,1.746,1.746,0,0,1,1.078-.323A.108.108,0,0,0,2337.074,1240.558Z" transform="translate(-2335.751 -1240.29)" fill="#060633"/>
            </g>
          </g>
          <g id="Grupo_1229064" data-name="Grupo 1229064" transform="translate(7.695 9.503)">
            <path id="Trazado_1218731" data-name="Trazado 1218731" d="M2337.828,1244.186c.01.244.161.435.338.428s.312-.21.3-.454-.161-.435-.338-.429S2337.817,1243.941,2337.828,1244.186Z" transform="translate(-2337.828 -1243.731)" fill="#060633"/>
          </g>
          <g id="Grupo_1229066" data-name="Grupo 1229066" transform="translate(11.148 8.861)">
            <g id="Grupo_1229065" data-name="Grupo 1229065">
              <path id="Trazado_1218732" data-name="Trazado 1218732" d="M2350.85,1241.974a.076.076,0,0,0,.065-.037.124.124,0,0,0-.008-.144.716.716,0,0,0-1.042-.119.121.121,0,0,0-.034.139.075.075,0,0,0,.106.04,1.073,1.073,0,0,1,.865.1A.069.069,0,0,0,2350.85,1241.974Z" transform="translate(-2349.824 -1241.499)" fill="#060633"/>
            </g>
          </g>
          <g id="Grupo_1229067" data-name="Grupo 1229067" transform="translate(10.992 9.826)">
            <path id="Trazado_1218733" data-name="Trazado 1218733" d="M2349.32,1245.171a.4.4,0,0,0,.149.525c.166.061.369-.075.453-.3a.4.4,0,0,0-.149-.525C2349.608,1244.806,2349.4,1244.944,2349.32,1245.171Z" transform="translate(-2349.284 -1244.852)" fill="#060633"/>
          </g>
          <g id="Grupo_1229068" data-name="Grupo 1229068" transform="translate(0.173 6.06)">
            <path id="Trazado_1218734" data-name="Trazado 1218734" d="M2311.69,1231.9s.823,3.921,3.092,4.718c0,0-1.259-3.134,3.088-3.864C2317.869,1232.752,2314.361,1231.339,2311.69,1231.9Z" transform="translate(-2311.69 -1231.766)" fill="#66192d"/>
          </g>
          <g id="Grupo_1229069" data-name="Grupo 1229069" transform="translate(2.664 7.176)">
            <path id="Trazado_1218735" data-name="Trazado 1218735" d="M2320.686,1237.374a.986.986,0,1,0-.071-1.469A1.043,1.043,0,0,0,2320.686,1237.374Z" transform="translate(-2320.344 -1235.646)" fill="#fdad9b"/>
          </g>
          <g id="Grupo_1229070" data-name="Grupo 1229070" transform="translate(3.603 7.031)">
            <path id="Trazado_1218736" data-name="Trazado 1218736" d="M2326.357,1235.155s-1,2.9-.528,3.6,4.415,1.865,6.445,1.575h0a3.985,3.985,0,0,1-4.1,3.173,5.8,5.8,0,0,1-1.906-.447h0a3.987,3.987,0,0,1-2.655-2.7,11.612,11.612,0,0,1,.921-2.563,2.631,2.631,0,0,0-.128-2.16A3.921,3.921,0,0,1,2326.357,1235.155Z" transform="translate(-2323.608 -1235.141)" fill="#66192d"/>
          </g>
          <g id="Grupo_1229071" data-name="Grupo 1229071" transform="translate(7.774 12.578)">
            <path id="Trazado_1218737" data-name="Trazado 1218737" d="M2341.365,1254.9a10.34,10.34,0,0,1-3.262-.487,1.586,1.586,0,0,0,1.652,1.688C2340.781,1256.153,2341.365,1254.9,2341.365,1254.9Z" transform="translate(-2338.102 -1254.417)" fill="#fff"/>
          </g>
          <g id="Grupo_1229072" data-name="Grupo 1229072" transform="translate(13.432 0.862)">
            <path id="Trazado_1218738" data-name="Trazado 1218738" d="M2358.46,1214.54a.771.771,0,0,1-.7-.836l.136.018a.63.63,0,0,0,.587.683Z" transform="translate(-2357.761 -1213.704)" fill="#66192d"/>
          </g>
          <g id="Grupo_1229073" data-name="Grupo 1229073" transform="translate(11.767 2.566)">
            <path id="Trazado_1218739" data-name="Trazado 1218739" d="M2351.981,1222.728l0-.069c.032,0,3.223-.2,3.7-1.707a1.038,1.038,0,0,0-.019-.934c-.237-.323-.805-.324-1.306-.321h-.225v-.069c.072,0,.147,0,.224,0,.518,0,1.1,0,1.362.349a1.1,1.1,0,0,1,.029,1c-.2.646-.922,1.154-2.074,1.469A9.265,9.265,0,0,1,2351.981,1222.728Z" transform="translate(-2351.977 -1219.628)" fill="#fff"/>
          </g>
          <g id="Grupo_1229074" data-name="Grupo 1229074" transform="translate(5.726 0.597)">
            <path id="Trazado_1218740" data-name="Trazado 1218740" d="M2333.172,1213.531a6.164,6.164,0,0,1-2.189-.422l.024-.064a5.629,5.629,0,0,0,3.384.275,3.733,3.733,0,0,0,1.241-.536l.042.055A4.431,4.431,0,0,1,2333.172,1213.531Z" transform="translate(-2330.983 -1212.784)" fill="#fff"/>
          </g>
        </g>
        <g id="Grupo_1229076" data-name="Grupo 1229076" transform="translate(44.434 62.063)">
          <path id="Trazado_1218741" data-name="Trazado 1218741" d="M2419.4,1459.845l-.124,0a50.188,50.188,0,0,0-2.46-14.715,32.425,32.425,0,0,0-6.178-11.218,23.428,23.428,0,0,0-12.229-7.425l.03-.12a23.545,23.545,0,0,1,12.294,7.465,32.552,32.552,0,0,1,6.2,11.262A50.367,50.367,0,0,1,2419.4,1459.845Z" transform="translate(-2398.41 -1426.365)" fill="#020202"/>
        </g>
      </g>
      <g id="Grupo_1229081" data-name="Grupo 1229081" transform="translate(4137.319 5893.84)">
        <g id="Grupo_1229078" data-name="Grupo 1229078" transform="translate(1.96 1.487)">
          <path id="Trazado_1218742" data-name="Trazado 1218742" d="M1964.407,910.286l-21.738-21.737a23.648,23.648,0,0,0-16.83-6.972H1898.65v-.447h27.189a24.091,24.091,0,0,1,17.147,7.1l21.737,21.738Z" transform="translate(-1898.65 -881.13)" fill="#66192d"/>
        </g>
        <g id="Grupo_1229079" data-name="Grupo 1229079" transform="translate(0 0)">
          <path id="Trazado_1218743" data-name="Trazado 1218743" d="M1891.84,877.784c0-.927,1.046-1.622,1.958-1.788,1.23-.224,1.678.751,1.678,1.678a1.912,1.912,0,0,1-1.678,1.93A2.063,2.063,0,0,1,1891.84,877.784Z" transform="translate(-1891.84 -875.964)" fill="#66192d"/>
        </g>
        <g id="Grupo_1229080" data-name="Grupo 1229080" transform="translate(66.056 28.665)">
          <path id="Trazado_1218744" data-name="Trazado 1218744" d="M2121.37,977.387c0-.927,1.046-1.622,1.958-1.788,1.231-.224,1.678.751,1.678,1.678a1.912,1.912,0,0,1-1.678,1.93A2.063,2.063,0,0,1,2121.37,977.387Z" transform="translate(-2121.37 -975.567)" fill="#66192d"/>
        </g>
      </g>
      <g id="Grupo_1229095" data-name="Grupo 1229095" transform="translate(4102.407 5859.345)">
        <g id="Grupo_1229086" data-name="Grupo 1229086" transform="translate(0 0)">
          <path id="Trazado_1218748" data-name="Trazado 1218748" d="M1842.41,771.791h-48.5a2.538,2.538,0,0,1-2.53-2.531v-28a2.538,2.538,0,0,1,2.53-2.53h48.5a2.538,2.538,0,0,1,2.53,2.53v28A2.54,2.54,0,0,1,1842.41,771.791Z" transform="translate(-1791.379 -738.727)" fill="#c8c1e1"/>
        </g>
        <g id="Grupo_1229094" data-name="Grupo 1229094" transform="translate(4.966 3.757)">
          <g id="Grupo_1229087" data-name="Grupo 1229087" transform="translate(24.068 9.328)">
            <path id="Trazado_1218749" data-name="Trazado 1218749" d="M1892.345,793.133l1.771-4.169a.974.974,0,0,1,1.468-.408l2.366,1.716a.974.974,0,0,0,1.5-.5l1.363-4.389a.974.974,0,0,1,1.251-.63l1.3.456a.973.973,0,0,0,1.1-.34l.208-.28a.974.974,0,0,1,1.756.579v8.344a.974.974,0,0,1-.974.974h-12.224A.974.974,0,0,1,1892.345,793.133Z" transform="translate(-1892.266 -784.195)" fill="#ff443c"/>
          </g>
          <g id="Grupo_1229088" data-name="Grupo 1229088" transform="translate(0 6.827)">
            <path id="Trazado_1218750" data-name="Trazado 1218750" d="M1847.646,791.048h-.031l-36.443-.6a1.819,1.819,0,0,1-1.794-1.7l-.739-10.585a1.828,1.828,0,0,1,1.79-1.956l37.182-.7a1.828,1.828,0,0,1,1.863,1.828V789.22a1.829,1.829,0,0,1-1.828,1.829Zm0-15.189h-.029l-37.182.7a1.474,1.474,0,0,0-1.442,1.576l.74,10.585a1.465,1.465,0,0,0,1.446,1.371l36.442.6a1.439,1.439,0,0,0,1.058-.423,1.462,1.462,0,0,0,.44-1.05V777.334a1.474,1.474,0,0,0-1.473-1.474Z" transform="translate(-1808.635 -775.505)" fill="#552748"/>
          </g>
          <g id="Grupo_1229089" data-name="Grupo 1229089" transform="translate(4.137 14.296)">
            <path id="Trazado_1218751" data-name="Trazado 1218751" d="M1836.963,802.8h-13.17a.9.9,0,0,1-.774-.589c-.079-.589.484-.758.774-.758l13.171.293a.529.529,0,0,1,.527.527h0A.529.529,0,0,1,1836.963,802.8Z" transform="translate(-1823.011 -801.456)" fill="#552748"/>
          </g>
          <g id="Grupo_1229090" data-name="Grupo 1229090" transform="translate(4.136 12.086)">
            <path id="Trazado_1218752" data-name="Trazado 1218752" d="M1833.538,794.859H1823.6a.687.687,0,0,1-.584-.474.543.543,0,0,1,.584-.609l9.941.235a.412.412,0,0,1,.4.423h0A.412.412,0,0,1,1833.538,794.859Z" transform="translate(-1823.007 -793.777)" fill="#552748"/>
          </g>
          <g id="Grupo_1229091" data-name="Grupo 1229091" transform="translate(4.136 17.054)">
            <path id="Trazado_1218753" data-name="Trazado 1218753" d="M1833.538,812.121H1823.6a.687.687,0,0,1-.584-.474.543.543,0,0,1,.584-.609l9.941.235a.412.412,0,0,1,.4.423h0A.413.413,0,0,1,1833.538,812.121Z" transform="translate(-1823.007 -811.039)" fill="#552748"/>
          </g>
          <g id="Grupo_1229092" data-name="Grupo 1229092" transform="translate(0.589)">
            <path id="Trazado_1218754" data-name="Trazado 1218754" d="M1824.632,753.128h-13.17a.9.9,0,0,1-.774-.589c-.079-.589.484-.758.774-.758l13.171.293a.529.529,0,0,1,.527.527h0A.528.528,0,0,1,1824.632,753.128Z" transform="translate(-1810.68 -751.781)" fill="#552748"/>
          </g>
          <g id="Grupo_1229093" data-name="Grupo 1229093" transform="translate(0.591 2.758)">
            <path id="Trazado_1218755" data-name="Trazado 1218755" d="M1821.218,762.446h-9.941a.687.687,0,0,1-.584-.473.543.543,0,0,1,.584-.609l9.941.235a.412.412,0,0,1,.4.424h0A.413.413,0,0,1,1821.218,762.446Z" transform="translate(-1810.688 -761.364)" fill="#552748"/>
          </g>
        </g>
      </g>
      <g id="Grupo_1229105" data-name="Grupo 1229105" transform="translate(4338.051 6044.717)">
        <g id="Grupo_1229096" data-name="Grupo 1229096" transform="translate(0 0)">
          <path id="Trazado_1218756" data-name="Trazado 1218756" d="M3014.94,1327.4h-48.5a2.538,2.538,0,0,1-2.531-2.531v-28a2.538,2.538,0,0,1,2.531-2.531h48.5a2.538,2.538,0,0,1,2.531,2.531v28A2.539,2.539,0,0,1,3014.94,1327.4Z" transform="translate(-2963.909 -1294.341)" fill="#c8c1e1"/>
        </g>
        <g id="Grupo_1229104" data-name="Grupo 1229104" transform="translate(4.969 3.755)">
          <g id="Grupo_1229097" data-name="Grupo 1229097" transform="translate(24.068 9.328)">
            <path id="Trazado_1218757" data-name="Trazado 1218757" d="M3064.884,1348.741l1.771-4.168a.974.974,0,0,1,1.468-.407l2.366,1.716a.973.973,0,0,0,1.5-.5l1.363-4.389a.974.974,0,0,1,1.251-.63l1.3.456a.974.974,0,0,0,1.1-.34l.207-.28a.974.974,0,0,1,1.756.579v8.344a.974.974,0,0,1-.974.974h-12.223A.972.972,0,0,1,3064.884,1348.741Z" transform="translate(-3064.805 -1339.802)" fill="#ff443c"/>
          </g>
          <g id="Grupo_1229098" data-name="Grupo 1229098" transform="translate(0 6.83)">
            <path id="Trazado_1218758" data-name="Trazado 1218758" d="M3020.186,1346.664h-.031l-36.442-.6a1.817,1.817,0,0,1-1.794-1.7l-.74-10.585a1.828,1.828,0,0,1,1.789-1.955l37.182-.7a1.828,1.828,0,0,1,1.863,1.828v11.886a1.828,1.828,0,0,1-1.827,1.828Zm0-15.189h-.029l-37.182.7a1.474,1.474,0,0,0-1.442,1.576l.739,10.585a1.466,1.466,0,0,0,1.446,1.371l36.443.6a1.474,1.474,0,0,0,1.5-1.474v-11.886a1.473,1.473,0,0,0-1.473-1.474Z" transform="translate(-2981.175 -1331.12)" fill="#552748"/>
          </g>
          <g id="Grupo_1229099" data-name="Grupo 1229099" transform="translate(4.137 14.298)">
            <path id="Trazado_1218759" data-name="Trazado 1218759" d="M3009.5,1358.417h-13.17a.9.9,0,0,1-.774-.589c-.079-.589.484-.758.773-.758l13.171.293a.528.528,0,0,1,.527.527h0A.53.53,0,0,1,3009.5,1358.417Z" transform="translate(-2995.551 -1357.07)" fill="#552748"/>
          </g>
          <g id="Grupo_1229100" data-name="Grupo 1229100" transform="translate(4.136 12.087)">
            <path id="Trazado_1218760" data-name="Trazado 1218760" d="M3006.078,1350.471h-9.941a.686.686,0,0,1-.584-.473.543.543,0,0,1,.584-.609l9.941.236a.412.412,0,0,1,.4.423h0A.412.412,0,0,1,3006.078,1350.471Z" transform="translate(-2995.547 -1349.389)" fill="#552748"/>
          </g>
          <g id="Grupo_1229101" data-name="Grupo 1229101" transform="translate(4.136 17.054)">
            <path id="Trazado_1218761" data-name="Trazado 1218761" d="M3006.078,1367.731h-9.941a.687.687,0,0,1-.584-.474.543.543,0,0,1,.584-.609l9.941.235a.412.412,0,0,1,.4.423h0A.412.412,0,0,1,3006.078,1367.731Z" transform="translate(-2995.547 -1366.649)" fill="#552748"/>
          </g>
          <g id="Grupo_1229102" data-name="Grupo 1229102" transform="translate(0.589)">
            <path id="Trazado_1218762" data-name="Trazado 1218762" d="M2997.172,1308.736H2984a.9.9,0,0,1-.774-.589c-.079-.589.483-.758.773-.758l13.171.293a.529.529,0,0,1,.527.527h0A.528.528,0,0,1,2997.172,1308.736Z" transform="translate(-2983.221 -1307.389)" fill="#552748"/>
          </g>
          <g id="Grupo_1229103" data-name="Grupo 1229103" transform="translate(0.588 2.76)">
            <path id="Trazado_1218763" data-name="Trazado 1218763" d="M2993.748,1318.061h-9.94a.688.688,0,0,1-.585-.474.543.543,0,0,1,.584-.609l9.941.235a.413.413,0,0,1,.4.423h0A.414.414,0,0,1,2993.748,1318.061Z" transform="translate(-2983.217 -1316.979)" fill="#552748"/>
          </g>
        </g>
      </g>
      <g id="Grupo_1229117" data-name="Grupo 1229117" transform="translate(4353.127 5887.672)">
        <g id="Grupo_1229112" data-name="Grupo 1229112" transform="translate(0 0)">
          <path id="Trazado_1218768" data-name="Trazado 1218768" d="M3136.874,912.206h-25.849a1.353,1.353,0,0,1-1.348-1.349V895.933a1.352,1.352,0,0,1,1.348-1.348h25.849a1.352,1.352,0,0,1,1.348,1.348v14.924A1.353,1.353,0,0,1,3136.874,912.206Z" transform="translate(-3109.677 -894.585)" fill="#c8c1e1"/>
        </g>
        <g id="Grupo_1229116" data-name="Grupo 1229116" transform="translate(3.983 4.737)">
          <g id="Grupo_1229113" data-name="Grupo 1229113" transform="translate(0 2.976)">
            <path id="Trazado_1218769" data-name="Trazado 1218769" d="M3142.305,923.2H3124.57a1.211,1.211,0,0,1-1.042-.794c-.106-.794.651-1.02,1.042-1.02l17.736.394a.712.712,0,0,1,.71.71h0A.711.711,0,0,1,3142.305,923.2Z" transform="translate(-3123.518 -921.384)" fill="#552748"/>
          </g>
          <g id="Grupo_1229114" data-name="Grupo 1229114" transform="translate(0.002)">
            <path id="Trazado_1218770" data-name="Trazado 1218770" d="M3137.706,912.5H3124.32a.925.925,0,0,1-.787-.638.731.731,0,0,1,.786-.82l13.387.317a.555.555,0,0,1,.535.57h0A.557.557,0,0,1,3137.706,912.5Z" transform="translate(-3123.525 -911.044)" fill="#552748"/>
          </g>
          <g id="Grupo_1229115" data-name="Grupo 1229115" transform="translate(0.002 6.69)">
            <path id="Trazado_1218771" data-name="Trazado 1218771" d="M3137.706,935.746H3124.32a.926.926,0,0,1-.787-.637.731.731,0,0,1,.786-.82l13.387.317a.555.555,0,0,1,.535.57h0A.557.557,0,0,1,3137.706,935.746Z" transform="translate(-3123.525 -934.289)" fill="#552748"/>
          </g>
        </g>
      </g>
      <g id="Grupo_1229175" data-name="Grupo 1229175" transform="translate(4265.055 5972.956)">
        <g id="Grupo_1229130" data-name="Grupo 1229130" transform="translate(1.263 73.329)">
          <g id="Grupo_1229124" data-name="Grupo 1229124" transform="translate(2.462 5.592)">
            <path id="Trazado_1218776" data-name="Trazado 1218776" d="M2723.855,1319.255h0a.909.909,0,0,0-.606,1.129l2.235,7.405a.909.909,0,0,0,1.129.606h0a.908.908,0,0,0,.605-1.129l-2.235-7.405A.909.909,0,0,0,2723.855,1319.255Z" transform="translate(-2723.211 -1319.217)" fill="#fdad9b"/>
          </g>
          <g id="Grupo_1229125" data-name="Grupo 1229125" transform="translate(4.684 4.923)">
            <path id="Trazado_1218777" data-name="Trazado 1218777" d="M2731.576,1316.932h0a.909.909,0,0,0-.606,1.13l2.5,8.282a.909.909,0,0,0,1.129.606h0a.909.909,0,0,0,.605-1.129l-2.5-8.282A.9.9,0,0,0,2731.576,1316.932Z" transform="translate(-2730.931 -1316.892)" fill="#fdad9b"/>
          </g>
          <g id="Grupo_1229126" data-name="Grupo 1229126" transform="translate(4.246)">
            <path id="Trazado_1218778" data-name="Trazado 1218778" d="M2729.787,1300.256l-.183.265a1.1,1.1,0,0,0,.277,1.524l4.826,3.342a1.1,1.1,0,0,0,1.524-.277l.184-.265a1.1,1.1,0,0,0-.278-1.525l-4.826-3.341A1.1,1.1,0,0,0,2729.787,1300.256Z" transform="translate(-2729.41 -1299.786)" fill="#fdad9b"/>
          </g>
          <g id="Grupo_1229127" data-name="Grupo 1229127" transform="translate(6.906 4.253)">
            <path id="Trazado_1218779" data-name="Trazado 1218779" d="M2739.3,1314.6h0a.909.909,0,0,0-.606,1.129l2,6.639a.909.909,0,0,0,1.129.606h0a.908.908,0,0,0,.606-1.129l-2-6.639A.908.908,0,0,0,2739.3,1314.6Z" transform="translate(-2738.651 -1314.566)" fill="#fdad9b"/>
          </g>
          <g id="Grupo_1229128" data-name="Grupo 1229128" transform="translate(0 1.469)">
            <path id="Trazado_1218780" data-name="Trazado 1218780" d="M2714.982,1305.29s-1.22,5.033,1.058,7.921c.789,1,7.272-1.153,7.5-2.561s-1.562-5.76-1.562-5.76Z" transform="translate(-2714.656 -1304.89)" fill="#fdad9b"/>
          </g>
          <g id="Grupo_1229129" data-name="Grupo 1229129" transform="translate(0.256 6.251)">
            <path id="Trazado_1218781" data-name="Trazado 1218781" d="M2716.189,1321.545h0a.907.907,0,0,0-.6,1.127l2,6.625a.907.907,0,0,0,1.127.6h0a.907.907,0,0,0,.6-1.127l-2-6.625A.907.907,0,0,0,2716.189,1321.545Z" transform="translate(-2715.546 -1321.507)" fill="#fdad9b"/>
          </g>
        </g>
        <g id="Grupo_1229132" data-name="Grupo 1229132" transform="translate(0 28.392)">
          <g id="Grupo_1229131" data-name="Grupo 1229131">
            <path id="Trazado_1218782" data-name="Trazado 1218782" d="M2720.288,1190.543c8.446-5.549.288-24.637,3.8-36.494a34.444,34.444,0,0,1,1.868-5.313c.565-1.23-.959-3.626-3.053-4.617-1.966-.929-6.68-.318-7.053.305-5.687,9.49-6.962,26.851-4.128,46.738C2711.72,1191.162,2716.665,1192.926,2720.288,1190.543Z" transform="translate(-2710.266 -1143.643)" fill="#ff443c"/>
          </g>
        </g>
        <g id="Grupo_1229133" data-name="Grupo 1229133" transform="translate(15.567 145.349)">
          <path id="Trazado_1218783" data-name="Trazado 1218783" d="M2772.277,1550.04s-.072,2.862-2.008,3.669-7.548,1.536-5.451,3.376c1.2,1.056,6.873.374,8.474.374s3.1.7,4.293-.374c1.309-1.179,0-7.045,0-7.045a6.4,6.4,0,0,1-2.624.687A5.092,5.092,0,0,1,2772.277,1550.04Z" transform="translate(-2764.356 -1550.04)" fill="#66192d"/>
        </g>
        <g id="Grupo_1229134" data-name="Grupo 1229134" transform="translate(6.769 58.978)">
          <path id="Trazado_1218784" data-name="Trazado 1218784" d="M2733.8,1249.92s-.386,12.916,3.736,37.694c2.976,17.888,6.489,35.912,8.212,44.554a6.742,6.742,0,0,0,6.3,5.475l1.655.067a5.659,5.659,0,0,0,5.792-6.13l-4.181-58.463-1.031-19.242Z" transform="translate(-2733.787 -1249.92)" fill="#ff8548"/>
        </g>
        <g id="Grupo_1229135" data-name="Grupo 1229135" transform="translate(42.962 142.752)">
          <path id="Trazado_1218785" data-name="Trazado 1218785" d="M2864.236,1543.2s1.113,2.638-.319,4.171-6.246,4.507-3.577,5.321c1.531.467,6.417-2.489,7.876-3.148s3.116-.642,3.759-2.108c.708-1.613-2.9-6.42-2.9-6.42a6.4,6.4,0,0,1-2.108,1.707A5.1,5.1,0,0,1,2864.236,1543.2Z" transform="translate(-2859.547 -1541.017)" fill="#66192d"/>
        </g>
        <g id="Grupo_1229136" data-name="Grupo 1229136" transform="translate(23.896 60.178)">
          <path id="Trazado_1218786" data-name="Trazado 1218786" d="M2793.3,1254.09s.673,12.9,6.811,37.261c4.431,17.584,9.409,35.26,11.834,43.731a6.742,6.742,0,0,0,6.725,4.941l1.656-.069a5.659,5.659,0,0,0,5.27-6.584l-8.957-57.923-2.6-19.094Z" transform="translate(-2793.3 -1254.09)" fill="#ff8548"/>
        </g>
        <g id="Grupo_1229137" data-name="Grupo 1229137" transform="translate(5.583 69.225)">
          <path id="Trazado_1218787" data-name="Trazado 1218787" d="M2771.708,1289.436c-.04,1.558-9.462,2.177-21.117,1.814s-20.967-1.976-20.928-3.534,9.418-2.473,21.072-2.11S2771.749,1287.876,2771.708,1289.436Z" transform="translate(-2729.663 -1285.527)" fill="#66192d"/>
        </g>
        <g id="Grupo_1229138" data-name="Grupo 1229138" transform="translate(5.583 20.765)">
          <path id="Trazado_1218788" data-name="Trazado 1218788" d="M2768.858,1125.39s-2.061-8.168-17.266-8.251c-21.927-.119-19.9,20.028-21.926,50.648,0,0,21.6-3.054,42.056,1.337C2771.722,1169.126,2773.618,1137.872,2768.858,1125.39Z" transform="translate(-2729.666 -1117.139)" fill="#ff443c"/>
        </g>
        <g id="Grupo_1229139" data-name="Grupo 1229139" transform="translate(5.583 20.697)">
          <path id="Trazado_1218789" data-name="Trazado 1218789" d="M2774.469,1124.052l-9.931,5.495s-21.745,1.975-27.517,1.024-7.356-5.19-7.356-5.19a31.816,31.816,0,0,1,16.6-8.06c.982-.161,2-.279,3.056-.348a30.034,30.034,0,0,1,5.282.105C2767.845,1118.569,2774.469,1124.052,2774.469,1124.052Z" transform="translate(-2729.665 -1116.904)" fill="#ff443c"/>
        </g>
        <g id="Grupo_1229140" data-name="Grupo 1229140" transform="translate(7.418 71.367)">
          <path id="Trazado_1218790" data-name="Trazado 1218790" d="M2736.04,1294.276s12.628-3.715,38.781,1.384l.2,3.762-38.338,1.355Z" transform="translate(-2736.04 -1292.97)" fill="#ff8548"/>
        </g>
        <g id="Grupo_1229141" data-name="Grupo 1229141" transform="translate(16.002 70.819)">
          <path id="Trazado_1218791" data-name="Trazado 1218791" d="M2765.87,1291.753s5.589-.138,7.75,4.444c0,0-1.207-4.574,1.145-4.5.972.029-.972-.627-.972-.627Z" transform="translate(-2765.87 -1291.067)" fill="#66192d"/>
        </g>
        <g id="Grupo_1229143" data-name="Grupo 1229143" transform="translate(42.87 27.756)">
          <g id="Grupo_1229142" data-name="Grupo 1229142">
            <path id="Trazado_1218792" data-name="Trazado 1218792" d="M2868.649,1186.428c-.914-10.065-8.356-36.411-9.224-37.852-.7-1.161.552-3.71,2.524-4.926,1.851-1.141,4.243-2.594,4.8-2.127,7.817,6.59,14.543,30.671,12.422,44.014Z" transform="translate(-2859.23 -1141.433)" fill="#ff443c"/>
          </g>
        </g>
        <g id="Grupo_1229144" data-name="Grupo 1229144" transform="translate(20.921 5.391)">
          <path id="Trazado_1218793" data-name="Trazado 1218793" d="M2783.139,1063.72a8.333,8.333,0,0,0,0,3.459c.4,1.925,2.358-2.806,2.358-2.806Z" transform="translate(-2782.961 -1063.72)" fill="#56335b"/>
        </g>
        <g id="Grupo_1229145" data-name="Grupo 1229145" transform="translate(24.386 7.773)">
          <path id="Trazado_1218794" data-name="Trazado 1218794" d="M2803.063,1085.345c-1.573,1.938-4.4,1.666-6.609.689-1.777-.785-1.522-.77-1.277-1.056.6-.707,1.1-.877,1.132-1.69l.043-1.066.005-.132.056-1.39.1-2.4.258-6.306,1.966,6.339.334,1.079,1.147,3.705C2800.585,1084.315,2803.049,1085.342,2803.063,1085.345Z" transform="translate(-2795.003 -1071.996)" fill="#fdad9b"/>
        </g>
        <g id="Grupo_1229146" data-name="Grupo 1229146" transform="translate(25.733 16.186)">
          <path id="Trazado_1218795" data-name="Trazado 1218795" d="M2802.706,1101.23a4.658,4.658,0,0,1-3.024,1.813l.005-.132.056-1.39Z" transform="translate(-2799.682 -1101.23)" fill="#66192d"/>
        </g>
        <g id="Grupo_1229147" data-name="Grupo 1229147" transform="translate(20.795 3.362)">
          <path id="Trazado_1218796" data-name="Trazado 1218796" d="M2782.6,1062.713c.488-3.72,3.386-6.408,6.472-6s5.191,3.75,4.7,7.47-3.386,6.408-6.472,6S2782.106,1066.434,2782.6,1062.713Z" transform="translate(-2782.525 -1056.669)" fill="#fdad9b"/>
        </g>
        <g id="Grupo_1229149" data-name="Grupo 1229149" transform="translate(25.241 9.559)">
          <g id="Grupo_1229148" data-name="Grupo 1229148">
            <path id="Trazado_1218797" data-name="Trazado 1218797" d="M2798.058,1078.545a.114.114,0,0,1-.016-.216,1.236,1.236,0,0,1,1.483.31.114.114,0,0,1,0,.161.125.125,0,0,1-.161,0,1.961,1.961,0,0,0-1.232-.259A.128.128,0,0,1,2798.058,1078.545Z" transform="translate(-2797.972 -1078.204)" fill="#060633"/>
          </g>
        </g>
        <g id="Grupo_1229151" data-name="Grupo 1229151" transform="translate(22.209 9.39)">
          <g id="Grupo_1229150" data-name="Grupo 1229150">
            <path id="Trazado_1218798" data-name="Trazado 1218798" d="M2787.52,1078.1a.082.082,0,0,1-.069-.048.137.137,0,0,1,.023-.159.8.8,0,0,1,1.171-.031.135.135,0,0,1,.025.158.085.085,0,0,1-.123.035,1.2,1.2,0,0,0-.973.024A.079.079,0,0,1,2787.52,1078.1Z" transform="translate(-2787.436 -1077.615)" fill="#060633"/>
          </g>
        </g>
        <g id="Grupo_1229152" data-name="Grupo 1229152" transform="translate(22.835 12.986)">
          <path id="Trazado_1218799" data-name="Trazado 1218799" d="M2789.61,1090.11a11.556,11.556,0,0,0,3.676.289,1.773,1.773,0,0,1-2.223,1.423C2789.933,1091.618,2789.61,1090.11,2789.61,1090.11Z" transform="translate(-2789.61 -1090.11)" fill="#fff"/>
        </g>
        <g id="Grupo_1229153" data-name="Grupo 1229153" transform="translate(23.772 21.692)">
          <path id="Trazado_1218800" data-name="Trazado 1218800" d="M2796.568,1120.789s-2.671-.826-3.381-.184-.188,3.575,1.042,3.836S2797.783,1121.5,2796.568,1120.789Z" transform="translate(-2792.867 -1120.36)" fill="#ffba41"/>
        </g>
        <g id="Grupo_1229154" data-name="Grupo 1229154" transform="translate(25.679 18.66)">
          <path id="Trazado_1218801" data-name="Trazado 1218801" d="M2799.718,1112.6s3.487-1.233,4.167-2.465,4.29,1.615,4.228,2.465-6.565,5.567-6.99,4.972S2798.866,1113.4,2799.718,1112.6Z" transform="translate(-2799.495 -1109.826)" fill="#ff8548"/>
        </g>
        <g id="Grupo_1229155" data-name="Grupo 1229155" transform="translate(21.433 18.856)">
          <path id="Trazado_1218802" data-name="Trazado 1218802" d="M2789.21,1113.082a3.78,3.78,0,0,1-.27-2s.165-.617-.366-.575a11.118,11.118,0,0,0-3.676,2.677c-.255.616-.3,3.506.637,3.719s3.189-2.892,3.454-3.2A.843.843,0,0,0,2789.21,1113.082Z" transform="translate(-2784.741 -1110.509)" fill="#ff8548"/>
        </g>
        <g id="Grupo_1229156" data-name="Grupo 1229156" transform="translate(15.779 24.639)">
          <path id="Trazado_1218803" data-name="Trazado 1218803" d="M2773.7,1130.6s-9.19,23.821-8.578,33.8c0,0,.648,5.826,4.777,8.971,0,0,5.575-3.655,6.324-8.971.615-4.369-2.109-29.682-.536-33.177Z" transform="translate(-2765.093 -1130.6)" fill="#ffba41"/>
        </g>
        <g id="Grupo_1229157" data-name="Grupo 1229157" transform="translate(23.863 24.138)">
          <path id="Trazado_1218804" data-name="Trazado 1218804" d="M2794.474,1130.562h-.021c-.81-.013-1.251-1.6-1.27-1.666l.123-.034c0,.016.434,1.56,1.149,1.572h.019a2.289,2.289,0,0,0,1.386-.682l.093.088A2.379,2.379,0,0,1,2794.474,1130.562Z" transform="translate(-2793.183 -1128.862)" fill="#66192d"/>
        </g>
        <g id="Grupo_1229158" data-name="Grupo 1229158" transform="translate(19.123 0.595)">
          <path id="Trazado_1218805" data-name="Trazado 1218805" d="M2786.437,1052.423a5.578,5.578,0,0,1-4.333,2.276s-.353-.131.158-.455,1.237-1.213,1.044-1.49-2.391,2.719-4.681,2.564c0,0-3.183-.109-1.334-2.006,1.148-1.178,0-5.822,7.6-6.247,1.112-.062,3.51.082,4.4,1.8,0,0,3.019-.094,3.634,3.558a6.883,6.883,0,0,1-4.1,7.507s1.246-4.663-.127-4.059c-1.764.776-2.7-.224-1.934-1.237S2787.721,1051.617,2786.437,1052.423Z" transform="translate(-2776.714 -1047.053)" fill="#66192d"/>
        </g>
        <g id="Grupo_1229159" data-name="Grupo 1229159" transform="translate(30.248 9.292)">
          <path id="Trazado_1218806" data-name="Trazado 1218806" d="M2817.15,1079.333a1.1,1.1,0,1,1,.446-1.583A1.166,1.166,0,0,1,2817.15,1079.333Z" transform="translate(-2815.371 -1077.274)" fill="#fdad9b"/>
        </g>
        <g id="Grupo_1229160" data-name="Grupo 1229160" transform="translate(31.737 1.779)">
          <path id="Trazado_1218807" data-name="Trazado 1218807" d="M2822.9,1052.035a.126.126,0,0,1-.09-.037,2.39,2.39,0,0,0-2.109-.509.128.128,0,0,1-.065-.247,2.6,2.6,0,0,1,2.354.575.127.127,0,0,1,0,.18A.117.117,0,0,1,2822.9,1052.035Z" transform="translate(-2820.544 -1051.168)" fill="#66192d"/>
        </g>
        <g id="Grupo_1229161" data-name="Grupo 1229161" transform="translate(30.303)">
          <path id="Trazado_1218808" data-name="Trazado 1218808" d="M2816.7,1046.389h-.018a.127.127,0,0,1-.109-.143c0-.03.069-.67-.923-1.01a.127.127,0,0,1-.079-.162.129.129,0,0,1,.162-.079c1.2.412,1.1,1.25,1.093,1.286A.127.127,0,0,1,2816.7,1046.389Z" transform="translate(-2815.563 -1044.987)" fill="#66192d"/>
        </g>
        <g id="Grupo_1229162" data-name="Grupo 1229162" transform="translate(52.229 69.483)">
          <path id="Trazado_1218809" data-name="Trazado 1218809" d="M2902.329,1288.8c.062,1.458-2.255,2.763-5.176,2.917s-5.34-.9-5.4-2.361,2.256-2.764,5.177-2.917S2902.268,1287.341,2902.329,1288.8Z" transform="translate(-2891.75 -1286.424)" fill="#66192d"/>
        </g>
        <g id="Grupo_1229163" data-name="Grupo 1229163" transform="translate(53.445 70.705)">
          <path id="Trazado_1218810" data-name="Trazado 1218810" d="M2904.124,1292.5c.048,1.123-1.737,2.129-3.987,2.247s-4.113-.7-4.161-1.819,1.737-2.129,3.987-2.247S2904.077,1291.379,2904.124,1292.5Z" transform="translate(-2895.975 -1290.671)" fill="#fdad9b"/>
        </g>
        <g id="Grupo_1229170" data-name="Grupo 1229170" transform="translate(50.254 71.196)">
          <g id="Grupo_1229164" data-name="Grupo 1229164" transform="translate(7.191 5.373)">
            <path id="Trazado_1218811" data-name="Trazado 1218811" d="M2911.66,1311.051h0a.968.968,0,0,1,.875,1.047l-.735,8.2a.968.968,0,0,1-1.047.875h0a.968.968,0,0,1-.875-1.047l.735-8.2A.968.968,0,0,1,2911.66,1311.051Z" transform="translate(-2909.874 -1311.047)" fill="#fdad9b"/>
          </g>
          <g id="Grupo_1229165" data-name="Grupo 1229165" transform="translate(4.643 5.151)">
            <path id="Trazado_1218812" data-name="Trazado 1218812" d="M2902.894,1310.281h0a.968.968,0,0,1,.875,1.047l-.823,9.176a.968.968,0,0,1-1.047.875h0a.968.968,0,0,1-.875-1.047l.823-9.175A.972.972,0,0,1,2902.894,1310.281Z" transform="translate(-2901.02 -1310.277)" fill="#fdad9b"/>
          </g>
          <g id="Grupo_1229166" data-name="Grupo 1229166">
            <path id="Trazado_1218813" data-name="Trazado 1218813" d="M2891.169,1292.7l.248.237a1.17,1.17,0,0,1,.039,1.649l-4.313,4.524a1.17,1.17,0,0,1-1.65.039l-.249-.237a1.169,1.169,0,0,1-.039-1.649l4.313-4.524A1.172,1.172,0,0,1,2891.169,1292.7Z" transform="translate(-2884.885 -1292.377)" fill="#fdad9b"/>
          </g>
          <g id="Grupo_1229167" data-name="Grupo 1229167" transform="translate(2.346 4.932)">
            <path id="Trazado_1218814" data-name="Trazado 1218814" d="M2894.749,1309.52h0a.968.968,0,0,1,.875,1.047l-.659,7.355a.967.967,0,0,1-1.047.875h0a.968.968,0,0,1-.875-1.047l.659-7.355A.967.967,0,0,1,2894.749,1309.52Z" transform="translate(-2893.038 -1309.516)" fill="#fdad9b"/>
          </g>
          <g id="Grupo_1229168" data-name="Grupo 1229168" transform="translate(3.126 0.853)">
            <path id="Trazado_1218815" data-name="Trazado 1218815" d="M2903.689,1295.34s2.357,4.985.6,8.489c-.608,1.213-7.833.364-8.374-1.055s.388-6.343.388-6.343Z" transform="translate(-2895.748 -1295.34)" fill="#fdad9b"/>
          </g>
          <g id="Grupo_1229169" data-name="Grupo 1229169" transform="translate(9.714 5.586)">
            <path id="Trazado_1218816" data-name="Trazado 1218816" d="M2920.346,1311.79h0a.966.966,0,0,1,.873,1.045l-.658,7.34a.966.966,0,0,1-1.045.873h0a.966.966,0,0,1-.873-1.045l.658-7.34A.967.967,0,0,1,2920.346,1311.79Z" transform="translate(-2918.638 -1311.786)" fill="#fdad9b"/>
          </g>
        </g>
        <g id="Grupo_1229171" data-name="Grupo 1229171" transform="translate(5.214 36.109)">
          <path id="Trazado_1218817" data-name="Trazado 1218817" d="M2728.623,1205.772c-.019-.218-1.781-21.89,4.5-35.316l.231.108c-6.256,13.363-4.5,34.97-4.481,35.186Z" transform="translate(-2728.381 -1170.456)" fill="#66192d"/>
        </g>
        <g id="Grupo_1229172" data-name="Grupo 1229172" transform="translate(42.769 40.225)">
          <path id="Trazado_1218818" data-name="Trazado 1218818" d="M2864,1196.518a37.05,37.05,0,0,0-5.121-11.61l.207-.149a37.349,37.349,0,0,1,5.162,11.7Z" transform="translate(-2858.876 -1184.758)" fill="#66192d"/>
        </g>
        <g id="Grupo_1229173" data-name="Grupo 1229173" transform="translate(22.511 10.693)">
          <path id="Trazado_1218819" data-name="Trazado 1218819" d="M2788.489,1082.622c.031.242.2.42.374.4s.293-.236.262-.478-.2-.42-.373-.4S2788.46,1082.377,2788.489,1082.622Z" transform="translate(-2788.484 -1082.141)" fill="#060633"/>
        </g>
        <g id="Grupo_1229174" data-name="Grupo 1229174" transform="translate(25.412 10.776)">
          <path id="Trazado_1218820" data-name="Trazado 1218820" d="M2798.569,1082.912c.031.242.2.42.374.4s.293-.237.262-.478-.2-.42-.374-.4S2798.54,1082.67,2798.569,1082.912Z" transform="translate(-2798.565 -1082.432)" fill="#060633"/>
        </g>
      </g>
    </g>
  </g>
</svg>
