<svg xmlns="http://www.w3.org/2000/svg" xmlns:xlink="http://www.w3.org/1999/xlink" width="118" height="118" viewBox="0 0 118 118">
  <defs>
    <filter id="Trazado_982547" x="0" y="0" width="118" height="118" filterUnits="userSpaceOnUse">
      <feOffset dy="3" input="SourceAlpha"/>
      <feGaussianBlur stdDeviation="3" result="blur"/>
      <feFlood flood-opacity="0.161"/>
      <feComposite operator="in" in2="blur"/>
      <feComposite in="SourceGraphic"/>
    </filter>
  </defs>
  <g id="Grupo_1229196" data-name="Grupo 1229196" transform="translate(-1160.888 -8150.638)">
    <g id="Grupo_1225730" data-name="Grupo 1225730" transform="translate(0 6846.712)">
      <g id="Grupo_1224855" data-name="Grupo 1224855" transform="translate(1169.888 1309.926)">
        <g id="Grupo_1174813" data-name="Grupo 1174813">
          <g id="Grupo_1201680" data-name="Grupo 1201680">
            <g id="Grupo_1201330" data-name="Grupo 1201330">
              <g id="Grupo_1172010" data-name="Grupo 1172010">
                <g id="Grupo_1171046" data-name="Grupo 1171046">
                  <g id="Grupo_1148525" data-name="Grupo 1148525">
                    <g transform="matrix(1, 0, 0, 1, -9, -6)" filter="url(#Trazado_982547)">
                      <g id="Trazado_982547-2" data-name="Trazado 982547" transform="translate(9 6)" fill="#fdf4ce">
                        <path d="M 50 98.5 C 43.45188522338867 98.5 37.10042953491211 97.21787261962891 31.12207221984863 94.68923950195312 C 25.34691429138184 92.24655914306641 20.15997123718262 88.74931335449219 15.70532894134521 84.29468536376953 C 11.2506856918335 79.84004211425781 7.753442764282227 74.65309906005859 5.310757160186768 68.8779296875 C 2.782128572463989 62.89957046508789 1.5 56.54811477661133 1.5 50 C 1.5 43.45188522338867 2.782128572463989 37.10042953491211 5.310757160186768 31.12207221984863 C 7.753442764282227 25.34691429138184 11.2506856918335 20.15997123718262 15.70532894134521 15.70532894134521 C 20.15997123718262 11.2506856918335 25.34691429138184 7.753442764282227 31.12207221984863 5.310757160186768 C 37.10042953491211 2.782128572463989 43.45188522338867 1.5 50 1.5 C 56.54811477661133 1.5 62.89957046508789 2.782128572463989 68.8779296875 5.310757160186768 C 74.65309906005859 7.753442764282227 79.84004211425781 11.2506856918335 84.29468536376953 15.70532894134521 C 88.74931335449219 20.15997123718262 92.24655914306641 25.34691429138184 94.68923950195312 31.12207221984863 C 97.21787261962891 37.10042953491211 98.5 43.45188522338867 98.5 50 C 98.5 56.54811477661133 97.21787261962891 62.89957046508789 94.68923950195312 68.8779296875 C 92.24655914306641 74.65309906005859 88.74931335449219 79.84004211425781 84.29468536376953 84.29468536376953 C 79.84004211425781 88.74931335449219 74.65309906005859 92.24655914306641 68.8779296875 94.68923950195312 C 62.89957046508789 97.21787261962891 56.54811477661133 98.5 50 98.5 Z" stroke="none"/>
                        <path d="M 50 3 C 43.65372467041016 3 37.49886322021484 4.242263793945312 31.70639801025391 6.6922607421875 C 26.11003112792969 9.059326171875 21.08335113525391 12.44861602783203 16.76598358154297 16.76598358154297 C 12.44861602783203 21.08335113525391 9.059326171875 26.11003112792969 6.6922607421875 31.70639801025391 C 4.242263793945312 37.49886322021484 3 43.65372467041016 3 50 C 3 56.34627532958984 4.242263793945312 62.50113677978516 6.6922607421875 68.29360198974609 C 9.059326171875 73.88996887207031 12.44861602783203 78.91666412353516 16.76598358154297 83.23401641845703 C 21.08335113525391 87.55138397216797 26.11003112792969 90.940673828125 31.70639801025391 93.3077392578125 C 37.49886322021484 95.75773620605469 43.65372467041016 97 50 97 C 56.34627532958984 97 62.50113677978516 95.75773620605469 68.29360198974609 93.3077392578125 C 73.88996887207031 90.940673828125 78.91666412353516 87.55138397216797 83.23401641845703 83.23401641845703 C 87.55138397216797 78.91666412353516 90.940673828125 73.88996887207031 93.3077392578125 68.29360198974609 C 95.75773620605469 62.50113677978516 97 56.34627532958984 97 50 C 97 43.65372467041016 95.75773620605469 37.49886322021484 93.3077392578125 31.70639801025391 C 90.940673828125 26.11003112792969 87.55138397216797 21.08335113525391 83.23401641845703 16.76598358154297 C 78.91666412353516 12.44861602783203 73.88996887207031 9.059326171875 68.29360198974609 6.6922607421875 C 62.50113677978516 4.242263793945312 56.34627532958984 3 50 3 M 50 0 C 77.61424255371094 0 100 22.38577270507812 100 50 C 100 77.61424255371094 77.61424255371094 100 50 100 C 22.38577270507812 100 0 77.61424255371094 0 50 C 0 22.38577270507812 22.38577270507812 0 50 0 Z" stroke="none" fill="#866d08"/>
                      </g>
                    </g>
                  </g>
                </g>
              </g>
            </g>
          </g>
        </g>
      </g>
    </g>
    <g id="relacional" transform="translate(1188 8175)">
      <g id="Grupo_1229194" data-name="Grupo 1229194">
        <g id="Grupo_1229180" data-name="Grupo 1229180">
          <path id="Trazado_1218861" data-name="Trazado 1218861" d="M2,20V10H26V20a2.006,2.006,0,0,1-2,2H4A2.006,2.006,0,0,1,2,20Z" fill="#e6e9ed"/>
        </g>
        <g id="Grupo_1229181" data-name="Grupo 1229181">
          <path id="Trazado_1218862" data-name="Trazado 1218862" d="M26,36V46a2.006,2.006,0,0,1-2,2H4a2.006,2.006,0,0,1-2-2V36Z" fill="#e6e9ed"/>
        </g>
        <g id="Grupo_1229182" data-name="Grupo 1229182">
          <path id="Trazado_1218863" data-name="Trazado 1218863" d="M61,50V60a2.006,2.006,0,0,1-2,2H39a2.006,2.006,0,0,1-2-2V50Z" fill="#e6e9ed"/>
        </g>
        <g id="Grupo_1229183" data-name="Grupo 1229183">
          <path id="Trazado_1218864" data-name="Trazado 1218864" d="M2,10V4A2.006,2.006,0,0,1,4,2H24a2.006,2.006,0,0,1,2,2v6Z" fill="#5cd6b3"/>
        </g>
        <g id="Grupo_1229184" data-name="Grupo 1229184">
          <path id="Trazado_1218865" data-name="Trazado 1218865" d="M26,34v2H2V30a2.006,2.006,0,0,1,2-2H24a2.006,2.006,0,0,1,2,2Z" fill="#5cd6b3"/>
        </g>
        <g id="Grupo_1229185" data-name="Grupo 1229185">
          <path id="Trazado_1218866" data-name="Trazado 1218866" d="M37,50V44a2.006,2.006,0,0,1,2-2H59a2.006,2.006,0,0,1,2,2v6Z" fill="#5cd6b3"/>
        </g>
        <g id="Grupo_1229186" data-name="Grupo 1229186">
          <path id="Trazado_1218867" data-name="Trazado 1218867" d="M18,14h4v4H18Z" fill="#ff826e"/>
        </g>
        <g id="Grupo_1229187" data-name="Grupo 1229187">
          <circle id="Elipse_13400" data-name="Elipse 13400" cx="2" cy="2" r="2" transform="translate(41 54)" fill="#ff826e"/>
        </g>
        <g id="Grupo_1229188" data-name="Grupo 1229188">
          <path id="Trazado_1218868" data-name="Trazado 1218868" d="M62,17v6c0,1.66-5.82,3-13,3s-13-1.34-13-3V17c0,1.66,5.82,3,13,3S62,18.66,62,17Z" fill="#fcd770"/>
        </g>
        <g id="Grupo_1229189" data-name="Grupo 1229189">
          <path id="Trazado_1218869" data-name="Trazado 1218869" d="M62,5v6c0,1.66-5.82,3-13,3s-13-1.34-13-3V5c0,1.66,5.82,3,13,3S62,6.66,62,5Z" fill="#fcd770"/>
        </g>
        <g id="Grupo_1229190" data-name="Grupo 1229190">
          <path id="Trazado_1218870" data-name="Trazado 1218870" d="M36,11c0,1.66,5.82,3,13,3s13-1.34,13-3v6c0,1.66-5.82,3-13,3s-13-1.34-13-3V11Z" fill="#ffeaa7"/>
        </g>
        <g id="Grupo_1229191" data-name="Grupo 1229191">
          <ellipse id="Elipse_13401" data-name="Elipse 13401" cx="13" cy="3" rx="13" ry="3" transform="translate(36 2)" fill="#ffeaa7"/>
        </g>
        <g id="Grupo_1229192" data-name="Grupo 1229192">
          <circle id="Elipse_13402" data-name="Elipse 13402" cx="2" cy="2" r="2" transform="translate(12 52)" fill="#ff826e"/>
        </g>
        <g id="Grupo_1229193" data-name="Grupo 1229193">
          <circle id="Elipse_13403" data-name="Elipse 13403" cx="2" cy="2" r="2" transform="translate(47 32)" fill="#ff826e"/>
        </g>
      </g>
      <g id="Grupo_1229195" data-name="Grupo 1229195">
        <path id="Trazado_1218871" data-name="Trazado 1218871" d="M49,1c-1.433,0-14,.112-14,4v6H27V4a3,3,0,0,0-3-3H4A3,3,0,0,0,1,4V20a3,3,0,0,0,3,3h9v4H4a3,3,0,0,0-3,3V46a3,3,0,0,0,3,3h9v2.184A2.993,2.993,0,1,0,16.816,55H36v5a3,3,0,0,0,3,3H59a3,3,0,0,0,3-3V44a3,3,0,0,0-3-3H50V36.816a2.982,2.982,0,0,0,0-5.632v-4.2c3.353-.074,13-.581,13-3.988V5C63,1.112,50.433,1,49,1Zm12,9.923C60.515,11.681,56.169,13,49,13s-11.515-1.319-12-2.077V7.271C40.607,8.937,47.927,9,49,9s8.393-.063,12-1.729Zm0,6C60.515,17.681,56.169,19,49,19s-11.515-1.319-12-2.077V13.271C40.607,14.937,47.927,15,49,15s8.393-.063,12-1.729ZM49,3c6.93,0,11.229,1.233,11.945,2C60.229,5.767,55.93,7,49,7S37.771,5.767,37.055,5C37.771,4.233,42.07,3,49,3ZM4,3H24a1,1,0,0,1,1,1V9H3V4A1,1,0,0,1,4,3ZM3,20V11H25v9a1,1,0,0,1-1,1H4A1,1,0,0,1,3,20Zm12,3h9a3,3,0,0,0,3-3V13h8V23c0,3.406,9.647,3.914,13,3.988v4.2A3,3,0,0,0,46.184,33H27V30a3,3,0,0,0-3-3H15ZM4,29H24a1,1,0,0,1,1,1v5H3V30A1,1,0,0,1,4,29ZM3,46V37H25v9a1,1,0,0,1-1,1H4A1,1,0,0,1,3,46Zm11,9a1,1,0,1,1,1-1A1,1,0,0,1,14,55Zm45,6H39a1,1,0,0,1-1-1V51H60v9A1,1,0,0,1,59,61Zm1-17v5H38V44a1,1,0,0,1,1-1H59A1,1,0,0,1,60,44ZM39,41a3,3,0,0,0-3,3v9H16.816A3,3,0,0,0,15,51.184V49h9a3,3,0,0,0,3-3V35H46.184A3,3,0,0,0,48,36.816V41Zm10-6a1,1,0,1,1,1-1A1,1,0,0,1,49,35Zm0-10c-7.14,0-11.485-1.309-12-2.068V19.271C40.607,20.937,47.927,21,49,21s8.393-.063,12-1.729v3.661C60.485,23.691,56.14,25,49,25Z"/>
        <path id="Trazado_1218872" data-name="Trazado 1218872" d="M13,5h2V7H13Z"/>
        <path id="Trazado_1218873" data-name="Trazado 1218873" d="M9,5h2V7H9Z"/>
        <path id="Trazado_1218874" data-name="Trazado 1218874" d="M5,5H7V7H5Z"/>
        <path id="Trazado_1218875" data-name="Trazado 1218875" d="M13,31h2v2H13Z"/>
        <path id="Trazado_1218876" data-name="Trazado 1218876" d="M5,31H7v2H5Z"/>
        <path id="Trazado_1218877" data-name="Trazado 1218877" d="M9,31h2v2H9Z"/>
        <path id="Trazado_1218878" data-name="Trazado 1218878" d="M44,45h2v2H44Z"/>
        <path id="Trazado_1218879" data-name="Trazado 1218879" d="M48,45h2v2H48Z"/>
        <path id="Trazado_1218880" data-name="Trazado 1218880" d="M40,45h2v2H40Z"/>
        <path id="Trazado_1218881" data-name="Trazado 1218881" d="M43,53a3,3,0,1,0,3,3A3,3,0,0,0,43,53Zm0,4a1,1,0,1,1,1-1A1,1,0,0,1,43,57Z"/>
        <path id="Trazado_1218882" data-name="Trazado 1218882" d="M48,53H58v2H48Z"/>
        <path id="Trazado_1218883" data-name="Trazado 1218883" d="M48,57h6v2H48Z"/>
        <path id="Trazado_1218884" data-name="Trazado 1218884" d="M56,57h2v2H56Z"/>
        <path id="Trazado_1218885" data-name="Trazado 1218885" d="M5,39H7v2H5Z"/>
        <path id="Trazado_1218886" data-name="Trazado 1218886" d="M9,39H23v2H9Z"/>
        <path id="Trazado_1218887" data-name="Trazado 1218887" d="M5,43H23v2H5Z"/>
        <path id="Trazado_1218888" data-name="Trazado 1218888" d="M17,19h6V13H17Zm2-4h2v2H19Z"/>
        <path id="Trazado_1218889" data-name="Trazado 1218889" d="M5,13H15v2H5Z"/>
        <path id="Trazado_1218890" data-name="Trazado 1218890" d="M5,17h6v2H5Z"/>
        <path id="Trazado_1218891" data-name="Trazado 1218891" d="M13,17h2v2H13Z"/>
      </g>
    </g>
  </g>
</svg>
