<svg xmlns="http://www.w3.org/2000/svg" xmlns:xlink="http://www.w3.org/1999/xlink" width="103" height="103" viewBox="0 0 103 103">
  <defs>
    <filter id="Trazado_978624" x="0" y="0" width="103" height="103" filterUnits="userSpaceOnUse">
      <feOffset dy="3" input="SourceAlpha"/>
      <feGaussianBlur stdDeviation="3" result="blur"/>
      <feFlood flood-opacity="0.161"/>
      <feComposite operator="in" in2="blur"/>
      <feComposite in="SourceGraphic"/>
    </filter>
  </defs>
  <g id="Grupo_1228497" data-name="Grupo 1228497" transform="translate(-171 -1138)">
    <g id="Grupo_1228101" data-name="Grupo 1228101" transform="translate(-0.869 -644.328)">
      <g id="Grupo_1227500" data-name="Grupo 1227500" transform="translate(0.869 640.328)">
        <g id="Grupo_1225355" data-name="Grupo 1225355" transform="translate(180 1148)">
          <g id="Grupo_1176881" data-name="Grupo 1176881">
            <g id="Grupo_1175148" data-name="Grupo 1175148">
              <g id="Grupo_1173798" data-name="Grupo 1173798">
                <g id="Grupo_1171925" data-name="Grupo 1171925">
                  <g id="Grupo_1164524" data-name="Grupo 1164524">
                    <g id="Grupo_1144123" data-name="Grupo 1144123">
                      <g transform="matrix(1, 0, 0, 1, -9, -6)" filter="url(#Trazado_978624)">
                        <g id="Trazado_978624-2" data-name="Trazado 978624" transform="translate(9 6)" fill="#f6ecfe">
                          <path d="M 42.5 83.5 C 36.96437835693359 83.5 31.59512901306152 82.41617584228516 26.54141235351562 80.27863311767578 C 21.65934181213379 78.21369171142578 17.27447128295898 75.25723266601562 13.50862312316895 71.49137878417969 C 9.742764472961426 67.72553253173828 6.786305904388428 63.34066009521484 4.721364498138428 58.45858764648438 C 2.583823442459106 53.40486907958984 1.5 48.03562164306641 1.5 42.5 C 1.5 36.96437835693359 2.583823442459106 31.59512901306152 4.721364498138428 26.54141235351562 C 6.786305904388428 21.65934181213379 9.742764472961426 17.27447128295898 13.50862312316895 13.50862312316895 C 17.27447128295898 9.742764472961426 21.65934181213379 6.786305904388428 26.54141235351562 4.721364498138428 C 31.59512901306152 2.583823442459106 36.96437835693359 1.5 42.5 1.5 C 48.03562164306641 1.5 53.40486907958984 2.583823442459106 58.45858764648438 4.721364498138428 C 63.34066009521484 6.786305904388428 67.72553253173828 9.742764472961426 71.49137878417969 13.50862312316895 C 75.25723266601562 17.27447128295898 78.21369171142578 21.65934181213379 80.27863311767578 26.54141235351562 C 82.41617584228516 31.59512901306152 83.5 36.96437835693359 83.5 42.5 C 83.5 48.03562164306641 82.41617584228516 53.40486907958984 80.27863311767578 58.45858764648438 C 78.21369171142578 63.34066009521484 75.25723266601562 67.72553253173828 71.49137878417969 71.49137878417969 C 67.72553253173828 75.25723266601562 63.34066009521484 78.21369171142578 58.45858764648438 80.27863311767578 C 53.40486907958984 82.41617584228516 48.03562164306641 83.5 42.5 83.5 Z" stroke="none"/>
                          <path d="M 42.5 3 C 37.16621398925781 3 31.99356079101562 4.043960571289062 27.125732421875 6.102882385253906 C 22.42246627807617 8.092185974121094 18.19785308837891 10.94070434570312 14.56928253173828 14.56928253173828 C 10.94070434570312 18.19785308837891 8.092185974121094 22.42246627807617 6.102882385253906 27.125732421875 C 4.043960571289062 31.99356079101562 3 37.16621398925781 3 42.5 C 3 47.83378601074219 4.043960571289062 53.00643920898438 6.102882385253906 57.87425231933594 C 8.092185974121094 62.57753372192383 10.94070434570312 66.80213165283203 14.56928253173828 70.43071746826172 C 18.19786834716797 74.05929565429688 22.42246627807617 76.90781402587891 27.125732421875 78.89711761474609 C 31.99356079101562 80.95603942871094 37.16621398925781 82 42.5 82 C 47.83378601074219 82 53.00642395019531 80.95603942871094 57.87425231933594 78.89711761474609 C 62.57753372192383 76.90781402587891 66.80213165283203 74.05929565429688 70.43071746826172 70.43071746826172 C 74.05929565429688 66.80213165283203 76.90781402587891 62.57753372192383 78.89711761474609 57.87425231933594 C 80.95603942871094 53.00642395019531 82 47.83378601074219 82 42.5 C 82 37.16621398925781 80.95603942871094 31.99356079101562 78.89711761474609 27.125732421875 C 76.90781402587891 22.42246627807617 74.05929565429688 18.19786834716797 70.43071746826172 14.56928253173828 C 66.80213165283203 10.94070434570312 62.57753372192383 8.092185974121094 57.87425231933594 6.102882385253906 C 53.00643920898438 4.043960571289062 47.83378601074219 3 42.5 3 M 42.5 0 C 65.97209167480469 0 85 19.02789306640625 85 42.5 C 85 65.97209167480469 65.97209167480469 85 42.5 85 C 19.02789306640625 85 0 65.97209167480469 0 42.5 C 0 19.02789306640625 19.02789306640625 0 42.5 0 Z" stroke="none" fill="#dcb9fc"/>
                        </g>
                      </g>
                    </g>
                  </g>
                </g>
              </g>
            </g>
          </g>
        </g>
      </g>
    </g>
    <g id="prueba" transform="translate(195.779 1159.444)">
      <g id="Grupo_1228494" data-name="Grupo 1228494" transform="translate(0.784 1.12)">
        <path id="Trazado_1217756" data-name="Trazado 1217756" d="M128.379,114.457l-2.231-3.863.4-3.645-5.982-3.455-2.96,2.166h-4.47l-2.96-2.166-5.982,3.455.4,3.645-2.231,3.863L99,115.935v6.91l3.355,1.479,2.231,3.863-.4,3.645,5.982,3.455,2.966-2.17H117.6l2.966,2.17,5.982-3.455-.4-3.645,2.231-3.863,3.355-1.479v-6.91Z" transform="translate(-89.431 -93.454)" fill="#a8e1f8"/>
        <circle id="Elipse_13359" data-name="Elipse 13359" cx="8.367" cy="8.367" r="8.367" transform="translate(17.57 17.57)" fill="#fff"/>
        <circle id="Elipse_13360" data-name="Elipse 13360" cx="6.798" cy="6.798" r="6.798" fill="#a7eed4"/>
        <circle id="Elipse_13361" data-name="Elipse 13361" cx="6.798" cy="6.798" r="6.798" transform="translate(38.277)" fill="#ff9d87"/>
        <circle id="Elipse_13362" data-name="Elipse 13362" cx="6.798" cy="6.798" r="6.798" transform="translate(0 38.277)" fill="#ff9d87"/>
        <circle id="Elipse_13363" data-name="Elipse 13363" cx="6.798" cy="6.798" r="6.798" transform="translate(38.277 38.277)" fill="#a7eed4"/>
        <path id="Trazado_1217757" data-name="Trazado 1217757" d="M10.115,14.3a6.8,6.8,0,0,1,5.491-6.671,6.8,6.8,0,1,0,0,13.342A6.8,6.8,0,0,1,10.115,14.3Z" transform="translate(-7.5 -7.5)" fill="#71e4bf"/>
        <path id="Trazado_1217758" data-name="Trazado 1217758" d="M376.115,380.3a6.8,6.8,0,0,1,5.491-6.671,6.8,6.8,0,1,0,0,13.342A6.8,6.8,0,0,1,376.115,380.3Z" transform="translate(-335.223 -335.223)" fill="#71e4bf"/>
        <path id="Trazado_1217759" data-name="Trazado 1217759" d="M376.115,14.3a6.8,6.8,0,0,1,5.491-6.671,6.8,6.8,0,1,0,0,13.342A6.8,6.8,0,0,1,376.115,14.3Z" transform="translate(-335.223 -7.5)" fill="#ff6a47"/>
        <path id="Trazado_1217760" data-name="Trazado 1217760" d="M10.115,380.3a6.8,6.8,0,0,1,5.491-6.671,6.8,6.8,0,1,0,0,13.342A6.8,6.8,0,0,1,10.115,380.3Z" transform="translate(-7.5 -335.223)" fill="#ff6a47"/>
        <path id="Trazado_1217761" data-name="Trazado 1217761" d="M178.115,183.867a8.368,8.368,0,0,1,7.059-8.264,8.367,8.367,0,1,0,0,16.528A8.368,8.368,0,0,1,178.115,183.867Z" transform="translate(-157.93 -157.93)" fill="#e3edf6"/>
      </g>
      <g id="Grupo_1228495" data-name="Grupo 1228495" transform="translate(0 0.375)">
        <path id="Trazado_1217762" data-name="Trazado 1217762" d="M227.416,218.617v5.7h1.569V216h-1.473l-2.85,3.534,1.221.985Z" transform="translate(-201.166 -193.449)"/>
        <path id="Trazado_1217763" data-name="Trazado 1217763" d="M177.151,186.707a9.161,9.161,0,0,0,9.151-9.151c-.5-12.14-17.8-12.136-18.3,0A9.161,9.161,0,0,0,177.151,186.707Zm0-16.733a7.591,7.591,0,0,1,7.582,7.582c-.417,10.059-14.749,10.056-15.164,0A7.591,7.591,0,0,1,177.151,169.974Z" transform="translate(-150.43 -150.874)"/>
        <path id="Trazado_1217764" data-name="Trazado 1217764" d="M44.58,47.4l-1.109-1.109-3.819,3.819-1.347-1.347L37.2,49.868l2.456,2.456Z" transform="translate(-33.306 -41.485)"/>
        <path id="Trazado_1217765" data-name="Trazado 1217765" d="M7.582,15.5a7.591,7.591,0,0,0,7.582-7.582C14.748-2.141.415-2.138,0,7.918A7.591,7.591,0,0,0,7.582,15.5Zm0-13.6A6.013,6.013,0,1,1,1.569,7.918,6.02,6.02,0,0,1,7.582,1.9Z" transform="translate(0 -0.375)"/>
        <path id="Trazado_1217766" data-name="Trazado 1217766" d="M373.582,15.5a7.591,7.591,0,0,0,7.582-7.582c-.417-10.059-14.749-10.056-15.164,0A7.591,7.591,0,0,0,373.582,15.5Zm0-13.6a6.013,6.013,0,1,1-6.013,6.013A6.02,6.02,0,0,1,373.582,1.9Z" transform="translate(-327.723 -0.375)"/>
        <path id="Trazado_1217767" data-name="Trazado 1217767" d="M7.582,366A7.591,7.591,0,0,0,0,373.582c.417,10.059,14.749,10.056,15.164,0A7.591,7.591,0,0,0,7.582,366Zm0,13.6a6.013,6.013,0,1,1,6.013-6.013A6.02,6.02,0,0,1,7.582,379.6Z" transform="translate(0 -327.762)"/>
        <path id="Trazado_1217768" data-name="Trazado 1217768" d="M405.652,416.106l-1.347-1.347-1.109,1.109,2.456,2.456,4.928-4.928-1.109-1.109Z" transform="translate(-361.029 -369.208)"/>
        <path id="Trazado_1217769" data-name="Trazado 1217769" d="M373.582,366A7.591,7.591,0,0,0,366,373.582c.417,10.059,14.749,10.056,15.164,0A7.591,7.591,0,0,0,373.582,366Zm0,13.6a6.013,6.013,0,1,1,6.013-6.013A6.02,6.02,0,0,1,373.582,379.6Z" transform="translate(-327.723 -327.762)"/>
        <path id="Trazado_1217770" data-name="Trazado 1217770" d="M6.385,164.981l1.385-.737-2.507-4.708L.555,162.043l.737,1.385,2.18-1.161a24.956,24.956,0,0,0,.7,16.593l1.455-.587a23.4,23.4,0,0,1-.579-15.8Z" transform="translate(-0.497 -142.891)"/>
        <path id="Trazado_1217771" data-name="Trazado 1217771" d="M442.845,180.574l-1.385.737,2.507,4.708,4.708-2.507-.737-1.385-2.18,1.161a24.955,24.955,0,0,0-.7-16.593l-1.455.587a23.4,23.4,0,0,1,.579,15.8Z" transform="translate(-395.291 -149.301)"/>
        <path id="Trazado_1217772" data-name="Trazado 1217772" d="M169.572,445.281a23.194,23.194,0,0,1-7.1-1.1l2.507-1.335-.737-1.385-4.708,2.507,2.507,4.708,1.385-.737-1.161-2.18a24.955,24.955,0,0,0,16.593-.7l-.587-1.455A23.146,23.146,0,0,1,169.572,445.281Z" transform="translate(-142.851 -395.33)"/>
        <path id="Trazado_1217773" data-name="Trazado 1217773" d="M175.982,3.948a23.194,23.194,0,0,1,7.1,1.1l-2.507,1.335.737,1.385,4.708-2.507L183.51.555l-1.385.737,1.161,2.18a24.956,24.956,0,0,0-16.593.7l.587,1.455A23.144,23.144,0,0,1,175.982,3.948Z" transform="translate(-149.261 -0.536)"/>
        <path id="Trazado_1217774" data-name="Trazado 1217774" d="M409.305,48.535l2.06-2.06,2.06,2.06,1.109-1.109-2.06-2.06,2.06-2.06L413.425,42.2l-2.06,2.06-2.06-2.06L408.2,43.305l2.06,2.06-2.06,2.06Z" transform="translate(-365.506 -37.822)"/>
        <path id="Trazado_1217775" data-name="Trazado 1217775" d="M47.425,408.2l-2.06,2.06-2.06-2.06L42.2,409.305l2.06,2.06-2.06,2.06,1.109,1.109,2.06-2.06,2.06,2.06,1.109-1.109-2.06-2.06,2.06-2.06Z" transform="translate(-37.783 -365.545)"/>
        <path id="Trazado_1217776" data-name="Trazado 1217776" d="M103.506,147.918l3.172-2.321h3.947l3.172,2.321,2.874-1.661-.785-1.358-1.987,1.148-2.76-2.019h-4.972l-2.76,2.019-5.1-2.944.369-3.392L96.19,135.4l-3.122-1.376v-5.886l3.122-1.376,2.487-4.308-.369-3.392,2-1.154-.784-1.359-2.883,1.666.424,3.9-1.974,3.419L91.5,127.119v7.932l3.588,1.582,1.974,3.419-.424,3.9Z" transform="translate(-81.931 -104.404)"/>
        <path id="Trazado_1217777" data-name="Trazado 1217777" d="M200.978,124.247l-.424-3.9,1.974-3.419,3.588-1.582v-7.932l-3.588-1.582-1.974-3.419.424-3.9-6.867-3.967-3.167,2.316h-3.957l-3.167-2.317-2.626,1.517.784,1.359,1.742-1.006,2.755,2.015h4.982l2.755-2.015,5.1,2.944-.369,3.392,2.487,4.308,3.122,1.376v5.886l-3.122,1.376-2.487,4.308.369,3.393-1.75,1.01.784,1.359C198.945,125.422,200.054,124.782,200.978,124.247Z" transform="translate(-162.244 -84.7)"/>
      </g>
      <g id="Grupo_1228496" data-name="Grupo 1228496" transform="translate(13.491 26.272)">
        <path id="Trazado_1217778" data-name="Trazado 1217778" d="M129,248h1.569v1.569H129Z" transform="translate(-129 -248)" fill="#fff"/>
        <path id="Trazado_1217779" data-name="Trazado 1217779" d="M367,248h1.569v1.569H367Z" transform="translate(-342.109 -248)" fill="#fff"/>
      </g>
    </g>
  </g>
</svg>
