<svg xmlns="http://www.w3.org/2000/svg" xmlns:xlink="http://www.w3.org/1999/xlink" width="400" height="368" viewBox="0 0 400 368">
  <defs>
    <clipPath id="clip-path">
      <rect id="Rectángulo_422726" data-name="Rectángulo 422726" width="400" height="368" transform="translate(180 571)" fill="#fff" stroke="#707070" stroke-width="1"/>
    </clipPath>
    <clipPath id="clip-path-2">
      <rect id="Rectángulo_422815" data-name="Rectángulo 422815" width="400" height="400" fill="none"/>
    </clipPath>
    <clipPath id="clip-path-4">
      <rect id="Rectángulo_422727" data-name="Rectángulo 422727" width="153.788" height="153.778" fill="#a4a0a1"/>
    </clipPath>
    <clipPath id="clip-path-5">
      <rect id="Rectángulo_422728" data-name="Rectángulo 422728" width="49.276" height="49.274" fill="#908b8b"/>
    </clipPath>
    <clipPath id="clip-path-6">
      <rect id="Rectángulo_422729" data-name="Rectángulo 422729" width="25.554" height="25.552" fill="none"/>
    </clipPath>
    <clipPath id="clip-path-7">
      <rect id="Rectángulo_422730" data-name="Rectángulo 422730" width="153.41" height="18.531" fill="#bab7b8"/>
    </clipPath>
    <clipPath id="clip-path-8">
      <rect id="Rectángulo_422736" data-name="Rectángulo 422736" width="147.963" height="35.573" fill="#cfcece"/>
    </clipPath>
    <clipPath id="clip-path-9">
      <rect id="Rectángulo_422737" data-name="Rectángulo 422737" width="153.566" height="56.325" fill="none"/>
    </clipPath>
    <clipPath id="clip-path-10">
      <path id="Trazado_1219040" data-name="Trazado 1219040" d="M0,0H153.41V34.588H0Z" fill="#cfcece"/>
    </clipPath>
    <clipPath id="clip-path-11">
      <rect id="Rectángulo_422740" data-name="Rectángulo 422740" width="59.4" height="4.555" fill="none"/>
    </clipPath>
    <clipPath id="clip-path-12">
      <path id="Trazado_1218933" data-name="Trazado 1218933" d="M190.858,1884.693c0,3.63,2.644,6.572,5.907,6.572h14.763c-3.262,0-5.907-2.942-5.907-6.572Z" transform="translate(-190.858 -1884.693)" fill="#5c2c88"/>
    </clipPath>
    <clipPath id="clip-path-14">
      <path id="Trazado_1218938" data-name="Trazado 1218938" d="M196.765,1405.188c-3.262,0-5.907,2.942-5.907,6.572h14.763c0-3.63,2.644-6.572,5.907-6.572Z" transform="translate(-190.858 -1405.188)" fill="#5c2c88"/>
    </clipPath>
    <clipPath id="clip-path-16">
      <rect id="Rectángulo_422745" data-name="Rectángulo 422745" width="82.149" height="82.326" fill="none"/>
    </clipPath>
    <clipPath id="clip-path-17">
      <rect id="Rectángulo_422746" data-name="Rectángulo 422746" width="26.195" height="89.976" fill="none"/>
    </clipPath>
    <clipPath id="clip-path-18">
      <rect id="Rectángulo_422747" data-name="Rectángulo 422747" width="37.073" height="90.948" fill="none"/>
    </clipPath>
    <clipPath id="clip-path-19">
      <rect id="Rectángulo_422748" data-name="Rectángulo 422748" width="1.217" height="12.841" fill="none"/>
    </clipPath>
    <clipPath id="clip-path-20">
      <rect id="Rectángulo_422749" data-name="Rectángulo 422749" width="1.018" height="12.495" fill="none"/>
    </clipPath>
    <clipPath id="clip-path-21">
      <rect id="Rectángulo_422750" data-name="Rectángulo 422750" width="10.888" height="2.407" fill="none"/>
    </clipPath>
    <clipPath id="clip-path-22">
      <rect id="Rectángulo_422751" data-name="Rectángulo 422751" width="23.308" height="19.077" fill="none"/>
    </clipPath>
    <clipPath id="clip-path-27">
      <rect id="Rectángulo_422756" data-name="Rectángulo 422756" width="0.931" height="0.414" fill="none"/>
    </clipPath>
    <clipPath id="clip-path-28">
      <rect id="Rectángulo_422757" data-name="Rectángulo 422757" width="30.227" height="15.215" fill="none"/>
    </clipPath>
    <clipPath id="clip-path-29">
      <rect id="Rectángulo_422758" data-name="Rectángulo 422758" width="9.708" height="7.095" fill="none"/>
    </clipPath>
    <clipPath id="clip-path-30">
      <rect id="Rectángulo_422759" data-name="Rectángulo 422759" width="6.45" height="4.898" fill="none"/>
    </clipPath>
    <clipPath id="clip-path-31">
      <rect id="Rectángulo_422760" data-name="Rectángulo 422760" width="10.449" height="4.73" fill="none"/>
    </clipPath>
    <clipPath id="clip-path-32">
      <rect id="Rectángulo_422761" data-name="Rectángulo 422761" width="12.087" height="2.889" fill="none"/>
    </clipPath>
    <clipPath id="clip-path-34">
      <rect id="Rectángulo_422763" data-name="Rectángulo 422763" width="4.237" height="6.538" fill="none"/>
    </clipPath>
    <clipPath id="clip-path-35">
      <rect id="Rectángulo_422764" data-name="Rectángulo 422764" width="3.68" height="4.096" fill="none"/>
    </clipPath>
    <clipPath id="clip-path-36">
      <rect id="Rectángulo_422765" data-name="Rectángulo 422765" width="6.06" height="77.056" fill="none"/>
    </clipPath>
    <clipPath id="clip-path-37">
      <rect id="Rectángulo_422766" data-name="Rectángulo 422766" width="4.595" height="73.394" fill="none"/>
    </clipPath>
    <clipPath id="clip-path-38">
      <rect id="Rectángulo_422767" data-name="Rectángulo 422767" width="8.408" height="25.101" fill="none"/>
    </clipPath>
    <clipPath id="clip-path-39">
      <rect id="Rectángulo_422768" data-name="Rectángulo 422768" width="1.264" height="18.784" fill="none"/>
    </clipPath>
    <clipPath id="clip-path-40">
      <rect id="Rectángulo_422769" data-name="Rectángulo 422769" width="10.518" height="17.298" fill="none"/>
    </clipPath>
    <clipPath id="clip-path-41">
      <rect id="Rectángulo_422770" data-name="Rectángulo 422770" width="7.796" height="7.922" fill="none"/>
    </clipPath>
    <clipPath id="clip-path-42">
      <rect id="Rectángulo_422771" data-name="Rectángulo 422771" width="12.191" height="6.098" fill="none"/>
    </clipPath>
    <clipPath id="clip-path-43">
      <rect id="Rectángulo_422772" data-name="Rectángulo 422772" width="10.679" height="10.188" fill="none"/>
    </clipPath>
    <clipPath id="clip-path-44">
      <rect id="Rectángulo_422773" data-name="Rectángulo 422773" width="13.027" height="4.029" fill="none"/>
    </clipPath>
    <clipPath id="clip-path-46">
      <rect id="Rectángulo_422775" data-name="Rectángulo 422775" width="4.348" height="22.979" fill="none"/>
    </clipPath>
    <clipPath id="clip-path-48">
      <rect id="Rectángulo_422777" data-name="Rectángulo 422777" width="21.418" height="9.386" fill="none"/>
    </clipPath>
    <clipPath id="clip-path-49">
      <rect id="Rectángulo_422778" data-name="Rectángulo 422778" width="29.862" height="20.665" fill="none"/>
    </clipPath>
    <clipPath id="clip-path-50">
      <rect id="Rectángulo_422779" data-name="Rectángulo 422779" width="2.678" height="8.919" fill="none"/>
    </clipPath>
    <clipPath id="clip-path-51">
      <rect id="Rectángulo_422780" data-name="Rectángulo 422780" width="60.83" height="3.778" fill="none"/>
    </clipPath>
    <clipPath id="clip-path-52">
      <rect id="Rectángulo_422781" data-name="Rectángulo 422781" width="49.179" height="23.43" fill="none"/>
    </clipPath>
    <clipPath id="clip-path-54">
      <rect id="Rectángulo_422798" data-name="Rectángulo 422798" width="24.659" height="13.622" fill="none"/>
    </clipPath>
    <clipPath id="clip-path-55">
      <rect id="Rectángulo_422812" data-name="Rectángulo 422812" width="43.088" height="29.499" fill="none"/>
    </clipPath>
    <clipPath id="clip-path-56">
      <rect id="Rectángulo_422813" data-name="Rectángulo 422813" width="18.847" height="18.953" fill="none"/>
    </clipPath>
  </defs>
  <g id="Enmascarar_grupo_1208512" data-name="Enmascarar grupo 1208512" transform="translate(-180 -571)" clip-path="url(#clip-path)">
    <g id="Grupo_1229356" data-name="Grupo 1229356" transform="translate(180 554)">
      <g id="Grupo_1229355" data-name="Grupo 1229355" clip-path="url(#clip-path-2)">
        <g id="Grupo_1229224" data-name="Grupo 1229224">
          <g id="Grupo_1229223" data-name="Grupo 1229223" clip-path="url(#clip-path-2)">
            <g id="Grupo_1229201" data-name="Grupo 1229201" transform="translate(39.476 104.142)" opacity="0.5">
              <g id="Grupo_1229200" data-name="Grupo 1229200">
                <g id="Grupo_1229199" data-name="Grupo 1229199" clip-path="url(#clip-path-4)">
                  <path id="Trazado_1218897" data-name="Trazado 1218897" d="M422.247,681.466A46.087,46.087,0,1,0,435.9,745.2a46.141,46.141,0,0,0-13.648-63.734m-40.136,67.171a32.233,32.233,0,1,1,43.568-13.385,32.231,32.231,0,0,1-43.568,13.385" transform="translate(-320.309 -643.27)" fill="#a4a0a1"/>
                  <path id="Trazado_1218898" data-name="Trazado 1218898" d="M218.348,636.271l-3.892,6.555a4.7,4.7,0,0,0,.51,5.185l8.766,8.657a4.708,4.708,0,0,0,5.188.457l6.519-3.957a5.752,5.752,0,0,1,5.494.044s.753.474,2.6,1.453l.636.341c.709.34,1.275,2.073,1.255,3.848l-.088,7.643a4.707,4.707,0,0,0,3.033,4.237l11.9,3.151a4.7,4.7,0,0,0,4.719-2.2l3.688-6.716a5.456,5.456,0,0,1,4.347-2.753c1.54.046,6.279,1.15,7.148,2.7l3.735,6.648a4.687,4.687,0,0,0,4.738,2.147l11.879-3.243a4.7,4.7,0,0,0,2.994-4.26l-.163-7.639a5.449,5.449,0,0,1,2.383-4.55c1.346-.727,6.027-2.139,7.552-1.234l6.56,3.888a4.7,4.7,0,0,0,5.181-.5l8.662-8.761a4.692,4.692,0,0,0,.458-5.183l-3.959-6.524a5.75,5.75,0,0,1,.041-5.494s.471-.753,1.454-2.595l.334-.645c.344-.706,2.075-1.269,3.851-1.246l7.651.091a4.7,4.7,0,0,0,4.231-3.032l3.153-11.906a4.693,4.693,0,0,0-2.2-4.718l-6.717-3.688a5.462,5.462,0,0,1-2.751-4.35c.042-1.536,1.141-6.274,2.691-7.143l6.656-3.741a4.7,4.7,0,0,0,2.151-4.739l-3.249-11.881a4.693,4.693,0,0,0-4.262-2.985l-7.644.165a5.44,5.44,0,0,1-4.545-2.383c-.726-1.352-2.133-6.028-1.232-7.556l3.895-6.562a4.7,4.7,0,0,0-.507-5.181l-8.767-8.659a4.7,4.7,0,0,0-5.186-.454l-6.523,3.962a5.731,5.731,0,0,1-5.49-.048s-.757-.472-2.6-1.449l-.644-.337c-.707-.345-1.271-2.076-1.25-3.852l.09-7.647a4.7,4.7,0,0,0-3.028-4.234l-11.9-3.15a4.7,4.7,0,0,0-4.719,2.2l-3.683,6.71a5.447,5.447,0,0,1-4.347,2.753c-1.534-.041-6.278-1.147-7.149-2.694l-3.737-6.649a4.69,4.69,0,0,0-4.74-2.149l-11.886,3.244a4.706,4.706,0,0,0-2.989,4.264l.164,7.64a5.418,5.418,0,0,1-2.385,4.544c-1.349.724-6.024,2.135-7.55,1.232l-6.563-3.89a4.706,4.706,0,0,0-5.184.5l-8.654,8.762a4.7,4.7,0,0,0-.459,5.185l3.957,6.532a5.762,5.762,0,0,1-.041,5.5s-.473.75-1.458,2.592l-.337.635c-.337.712-2.066,1.274-3.843,1.252l-7.652-.091a4.688,4.688,0,0,0-4.236,3.026l-3.149,11.906a4.7,4.7,0,0,0,2.2,4.718l6.715,3.69A5.466,5.466,0,0,1,208.914,596c-.04,1.536-1.148,6.276-2.693,7.147l-6.651,3.742a4.691,4.691,0,0,0-2.149,4.739l3.247,11.882a4.7,4.7,0,0,0,4.262,2.99l7.637-.166a5.437,5.437,0,0,1,4.548,2.381c.727,1.346,2.139,6.029,1.232,7.553m11.64-67.746a52.518,52.518,0,1,1,15.55,72.625,52.579,52.579,0,0,1-15.55-72.625" transform="translate(-197.181 -520.177)" fill="#a4a0a1"/>
                </g>
              </g>
            </g>
            <g id="Grupo_1229204" data-name="Grupo 1229204" transform="translate(311.8 91.759)" opacity="0.5">
              <g id="Grupo_1229203" data-name="Grupo 1229203">
                <g id="Grupo_1229202" data-name="Grupo 1229202" clip-path="url(#clip-path-5)">
                  <path id="Trazado_1218899" data-name="Trazado 1218899" d="M1630.774,511.749a14.407,14.407,0,1,0,4.267,19.924A14.424,14.424,0,0,0,1630.774,511.749Zm-12.547,21a10.076,10.076,0,1,1,13.62-4.184A10.076,10.076,0,0,1,1618.228,532.747Z" transform="translate(-1598.308 -499.208)" fill="#a4a0a1" stroke="#f2f2f2" stroke-miterlimit="10" stroke-width="1"/>
                  <path id="Trazado_1218900" data-name="Trazado 1218900" d="M1567.034,497.621l-1.217,2.049a1.47,1.47,0,0,0,.159,1.621l2.74,2.706a1.472,1.472,0,0,0,1.622.143l2.038-1.237a1.8,1.8,0,0,1,1.718.014s.235.148.812.454l.2.107c.222.106.4.648.392,1.2l-.027,2.389a1.471,1.471,0,0,0,.948,1.325l3.719.985a1.469,1.469,0,0,0,1.475-.687l1.153-2.1a1.705,1.705,0,0,1,1.359-.86c.481.014,1.963.359,2.235.844l1.168,2.078a1.465,1.465,0,0,0,1.481.671l3.713-1.014a1.468,1.468,0,0,0,.936-1.332l-.051-2.388a1.7,1.7,0,0,1,.745-1.422c.421-.227,1.884-.669,2.361-.386l2.05,1.215a1.468,1.468,0,0,0,1.62-.158l2.708-2.739a1.467,1.467,0,0,0,.143-1.62L1602,497.443a1.8,1.8,0,0,1,.013-1.717s.147-.235.454-.811l.1-.2c.107-.221.648-.4,1.2-.39l2.392.028a1.469,1.469,0,0,0,1.323-.948l.986-3.722a1.467,1.467,0,0,0-.687-1.475l-2.1-1.153a1.707,1.707,0,0,1-.86-1.36c.013-.48.357-1.961.841-2.233l2.081-1.17a1.467,1.467,0,0,0,.672-1.481L1607.4,477.1a1.468,1.468,0,0,0-1.333-.933l-2.389.051a1.7,1.7,0,0,1-1.421-.745c-.227-.422-.667-1.884-.385-2.362l1.218-2.051a1.471,1.471,0,0,0-.159-1.62l-2.741-2.707a1.471,1.471,0,0,0-1.621-.142l-2.039,1.239a1.792,1.792,0,0,1-1.716-.015s-.237-.148-.812-.453l-.2-.105c-.221-.108-.4-.649-.391-1.2l.028-2.391a1.468,1.468,0,0,0-.947-1.324l-3.72-.985a1.469,1.469,0,0,0-1.475.687l-1.151,2.1a1.7,1.7,0,0,1-1.359.86c-.479-.013-1.963-.359-2.235-.842l-1.168-2.078a1.466,1.466,0,0,0-1.482-.672l-3.716,1.014a1.472,1.472,0,0,0-.935,1.333l.052,2.388a1.694,1.694,0,0,1-.746,1.421c-.422.226-1.883.667-2.36.385l-2.052-1.216a1.471,1.471,0,0,0-1.621.157l-2.705,2.739a1.47,1.47,0,0,0-.144,1.621l1.237,2.042A1.8,1.8,0,0,1,1566.9,475s-.148.235-.456.81l-.105.2c-.105.222-.646.4-1.2.391l-2.392-.028a1.466,1.466,0,0,0-1.324.946l-.984,3.722a1.469,1.469,0,0,0,.687,1.475l2.1,1.153a1.709,1.709,0,0,1,.86,1.36c-.013.48-.359,1.962-.842,2.234l-2.079,1.17a1.467,1.467,0,0,0-.672,1.482l1.015,3.715a1.468,1.468,0,0,0,1.332.935l2.388-.052a1.7,1.7,0,0,1,1.422.745C1566.876,495.681,1567.318,497.144,1567.034,497.621Zm3.639-21.178a16.418,16.418,0,1,1,4.861,22.7A16.437,16.437,0,0,1,1570.673,476.443Z" transform="translate(-1559.817 -460.728)" fill="#bab7b8" stroke="#f2f2f2" stroke-miterlimit="10" stroke-width="1"/>
                </g>
              </g>
            </g>
            <g id="Grupo_1229207" data-name="Grupo 1229207" transform="translate(340.075 138.116)" opacity="0.5">
              <g id="Grupo_1229206" data-name="Grupo 1229206">
                <g id="Grupo_1229205" data-name="Grupo 1229205" clip-path="url(#clip-path-6)">
                  <path id="Trazado_1218901" data-name="Trazado 1218901" d="M1736.877,717.843a7.418,7.418,0,1,0,2.2,10.258A7.426,7.426,0,0,0,1736.877,717.843Zm-6.46,10.811a5.188,5.188,0,1,1,7.012-2.154A5.188,5.188,0,0,1,1730.417,728.654Z" transform="translate(-1720.069 -711.294)" fill="#bab7b8" stroke="#f2f2f2" stroke-miterlimit="10" stroke-width="1"/>
                  <path id="Trazado_1218902" data-name="Trazado 1218902" d="M1704.06,710.568l-.627,1.055a.757.757,0,0,0,.082.834l1.411,1.393a.757.757,0,0,0,.835.073l1.049-.637a.925.925,0,0,1,.884.007s.121.076.418.234l.1.055c.114.055.205.334.2.619l-.014,1.23a.758.758,0,0,0,.488.682l1.915.507a.757.757,0,0,0,.76-.354l.594-1.081a.878.878,0,0,1,.7-.443c.248.007,1.01.185,1.151.434l.6,1.07a.754.754,0,0,0,.763.346l1.912-.522a.756.756,0,0,0,.482-.686l-.026-1.229a.877.877,0,0,1,.384-.732c.217-.117.97-.344,1.216-.2l1.056.626a.756.756,0,0,0,.834-.081l1.394-1.41a.755.755,0,0,0,.074-.834l-.637-1.05a.925.925,0,0,1,.007-.884s.076-.121.234-.418l.054-.1c.055-.114.334-.2.62-.2l1.231.015a.756.756,0,0,0,.681-.488l.508-1.916a.755.755,0,0,0-.353-.759l-1.081-.594a.879.879,0,0,1-.443-.7c.007-.247.184-1.01.433-1.15l1.071-.6a.756.756,0,0,0,.346-.763l-.523-1.912a.755.755,0,0,0-.686-.48l-1.23.026a.876.876,0,0,1-.732-.384c-.117-.217-.343-.97-.2-1.216l.627-1.056a.757.757,0,0,0-.082-.834l-1.411-1.394a.757.757,0,0,0-.835-.073l-1.05.638a.922.922,0,0,1-.884-.008s-.122-.076-.418-.233l-.1-.054c-.114-.055-.2-.334-.2-.62l.014-1.231a.756.756,0,0,0-.487-.681l-1.915-.507a.756.756,0,0,0-.76.354l-.593,1.08a.876.876,0,0,1-.7.443c-.247-.007-1.01-.185-1.15-.434l-.6-1.07a.755.755,0,0,0-.763-.346l-1.913.522a.757.757,0,0,0-.481.686l.026,1.23a.871.871,0,0,1-.384.731c-.217.117-.969.344-1.215.2l-1.056-.626a.758.758,0,0,0-.834.081l-1.393,1.41a.757.757,0,0,0-.074.835l.637,1.051a.928.928,0,0,1-.007.885s-.076.121-.235.417l-.054.1c-.054.115-.333.205-.619.2l-1.232-.015a.755.755,0,0,0-.682.487l-.507,1.916a.757.757,0,0,0,.353.759l1.081.594a.878.878,0,0,1,.443.7c-.006.247-.185,1.01-.433,1.15l-1.071.6a.755.755,0,0,0-.346.763l.523,1.912a.755.755,0,0,0,.686.481l1.229-.027a.875.875,0,0,1,.732.383C1703.979,709.569,1704.206,710.323,1704.06,710.568Zm1.874-10.9a8.462,8.462,0,0,1,11.689-2.5,8.582,8.582,0,0,1,3.857,7.232,8.153,8.153,0,0,1-1.354,4.457,8.453,8.453,0,1,1-14.192-9.186Z" transform="translate(-1700.252 -691.482)" fill="#bab7b8" stroke="#f2f2f2" stroke-miterlimit="10" stroke-width="1"/>
                </g>
              </g>
            </g>
            <path id="Trazado_1218903" data-name="Trazado 1218903" d="M863.253,138.143H721.276a14.337,14.337,0,0,0-14.337,14.338V480.042a14.337,14.337,0,0,0,14.337,14.338H863.253a14.337,14.337,0,0,0,14.338-14.338V152.481a14.337,14.337,0,0,0-14.338-14.338" transform="translate(-565.408 -110.486)" fill="#444"/>
            <path id="Trazado_1218904" data-name="Trazado 1218904" d="M878.922,164.189H737.95a10.792,10.792,0,0,0-10.792,10.792V499.2A10.792,10.792,0,0,0,737.95,510H878.922A10.792,10.792,0,0,0,889.714,499.2V174.981a10.792,10.792,0,0,0-10.792-10.792" transform="translate(-581.579 -131.318)" fill="#fff"/>
            <path id="Trazado_1218905" data-name="Trazado 1218905" d="M905.341,200.826l89.051.47a1.32,1.32,0,0,0,1.327-1.313l.044-7.663a1.32,1.32,0,0,0-1.313-1.328l-89.051-.47a1.32,1.32,0,0,0-1.327,1.312l-.044,7.663a1.32,1.32,0,0,0,1.313,1.328" transform="translate(-723.039 -152.38)" fill="#d8d8d8"/>
            <g id="Grupo_1229210" data-name="Grupo 1229210" transform="translate(150.152 185.024)" opacity="0.5">
              <g id="Grupo_1229209" data-name="Grupo 1229209">
                <g id="Grupo_1229208" data-name="Grupo 1229208" clip-path="url(#clip-path-7)">
                  <path id="Trazado_1218906" data-name="Trazado 1218906" d="M894.571,942.71H758.837A8.838,8.838,0,0,1,750,933.872v-.856a8.837,8.837,0,0,1,8.838-8.838H894.571a8.837,8.837,0,0,1,8.838,8.838v.856a8.838,8.838,0,0,1-8.838,8.838" transform="translate(-749.999 -924.179)" fill="#bab7b8"/>
                </g>
              </g>
            </g>
            <path id="Trazado_1218907" data-name="Trazado 1218907" d="M1045.943,408.386H909.327a5.184,5.184,0,0,1-5.185-5.184V302.414a5.184,5.184,0,0,1,5.185-5.184h136.617a5.185,5.185,0,0,1,5.184,5.184V403.2a5.185,5.185,0,0,1-5.184,5.184" transform="translate(-723.13 -237.724)" fill="#cecece"/>
            <path id="Trazado_1218908" data-name="Trazado 1218908" d="M1071.22,443.135v37.85a5.554,5.554,0,0,1-5.554,5.554H942.305a5.592,5.592,0,0,1-5.592-5.592V450.611L989.1,402.465l31.544,37.893,20.411-23.625Z" transform="translate(-749.18 -321.89)" fill="#f9f9f9"/>
            <path id="Trazado_1218909" data-name="Trazado 1218909" d="M1303.892,340.926a9.248,9.248,0,1,1-9.248-9.248,9.248,9.248,0,0,1,9.248,9.248" transform="translate(-1028.056 -265.275)" fill="#f9f9f9"/>
            <g id="Grupo_1229213" data-name="Grupo 1229213" transform="translate(152.876 326.633)" opacity="0.5">
              <g id="Grupo_1229212" data-name="Grupo 1229212">
                <g id="Grupo_1229211" data-name="Grupo 1229211" clip-path="url(#clip-path-8)">
                  <rect id="Rectángulo_422731" data-name="Rectángulo 422731" width="147.962" height="3.519" transform="translate(0 24.23)" fill="#cfcece"/>
                  <rect id="Rectángulo_422732" data-name="Rectángulo 422732" width="147.962" height="3.519" transform="translate(0 16.263)" fill="#cfcece"/>
                  <rect id="Rectángulo_422733" data-name="Rectángulo 422733" width="147.962" height="3.519" transform="translate(0 7.967)" fill="#cfcece"/>
                  <rect id="Rectángulo_422734" data-name="Rectángulo 422734" width="147.962" height="3.519" transform="translate(0)" fill="#cfcece"/>
                  <rect id="Rectángulo_422735" data-name="Rectángulo 422735" width="99.91" height="3.519" transform="translate(0 32.053)" fill="#cfcece"/>
                </g>
              </g>
            </g>
            <g id="Grupo_1229216" data-name="Grupo 1229216" transform="translate(150.074 213.826)" opacity="0.5">
              <g id="Grupo_1229215" data-name="Grupo 1229215">
                <g id="Grupo_1229214" data-name="Grupo 1229214" clip-path="url(#clip-path-9)">
                  <path id="Trazado_1218910" data-name="Trazado 1218910" d="M818.9,1124.37H754.792a5.184,5.184,0,0,1-5.184-5.184v-45.956a5.184,5.184,0,0,1,5.184-5.184H818.9a5.184,5.184,0,0,1,5.184,5.184v45.956a5.184,5.184,0,0,1-5.184,5.184" transform="translate(-749.608 -1068.045)" fill="#e8e8e8"/>
                  <path id="Trazado_1218911" data-name="Trazado 1218911" d="M801.324,1121.292l-32.247,21.95a5.174,5.174,0,0,1-1.341-3.482v-36.969a5.164,5.164,0,0,1,1.307-3.441Z" transform="translate(-764.107 -1093.083)" fill="#f9f9f9"/>
                  <path id="Trazado_1218912" data-name="Trazado 1218912" d="M801.324,1121.292l-32.247,21.95a5.174,5.174,0,0,1-1.341-3.482v-36.969a5.164,5.164,0,0,1,1.307-3.441Z" transform="translate(-764.107 -1093.083)" fill="none" stroke="#d6d6d6" stroke-linejoin="round" stroke-width="5"/>
                  <path id="Trazado_1218913" data-name="Trazado 1218913" d="M838.84,1092.352l-32.293,21.982-32.281-21.942a5.168,5.168,0,0,1,3.876-1.742H835a5.174,5.174,0,0,1,3.842,1.7" transform="translate(-769.329 -1086.124)" fill="#f9f9f9"/>
                  <path id="Trazado_1218914" data-name="Trazado 1218914" d="M838.84,1092.352l-32.293,21.982-32.281-21.942a5.168,5.168,0,0,1,3.876-1.742H835A5.174,5.174,0,0,1,838.84,1092.352Z" transform="translate(-769.329 -1086.124)" fill="none" stroke="#d6d6d6" stroke-linejoin="round" stroke-width="5"/>
                  <path id="Trazado_1218915" data-name="Trazado 1218915" d="M969.14,1102.632V1139.6a5.175,5.175,0,0,1-1.341,3.482l-32.293-21.95L967.8,1099.15a5.175,5.175,0,0,1,1.341,3.482" transform="translate(-898.289 -1092.922)" fill="#f9f9f9"/>
                  <path id="Trazado_1218916" data-name="Trazado 1218916" d="M969.14,1102.632V1139.6a5.175,5.175,0,0,1-1.341,3.482l-32.293-21.95L967.8,1099.15A5.175,5.175,0,0,1,969.14,1102.632Z" transform="translate(-898.289 -1092.922)" fill="none" stroke="#d6d6d6" stroke-linejoin="round" stroke-width="5"/>
                  <path id="Trazado_1218917" data-name="Trazado 1218917" d="M838.975,1230.9a5.175,5.175,0,0,1-3.842,1.7H778.278a5.174,5.174,0,0,1-3.842-1.7l32.247-21.95Z" transform="translate(-769.465 -1180.74)" fill="#f9f9f9"/>
                  <path id="Trazado_1218918" data-name="Trazado 1218918" d="M838.975,1230.9a5.175,5.175,0,0,1-3.842,1.7H778.278a5.174,5.174,0,0,1-3.842-1.7l32.247-21.95Z" transform="translate(-769.465 -1180.74)" fill="none" stroke="#d6d6d6" stroke-linejoin="round" stroke-width="5"/>
                  <path id="Trazado_1218919" data-name="Trazado 1218919" d="M1213.932,1124.37H1149.82a5.184,5.184,0,0,1-5.184-5.184v-45.956a5.184,5.184,0,0,1,5.184-5.184h64.112a5.184,5.184,0,0,1,5.185,5.184v45.956a5.184,5.184,0,0,1-5.185,5.184" transform="translate(-1065.55 -1068.045)" fill="#e8e8e8"/>
                  <path id="Trazado_1218920" data-name="Trazado 1218920" d="M1196.352,1121.292l-32.247,21.95a5.175,5.175,0,0,1-1.341-3.482v-36.969a5.165,5.165,0,0,1,1.307-3.441Z" transform="translate(-1080.049 -1093.083)" fill="#f9f9f9"/>
                  <path id="Trazado_1218921" data-name="Trazado 1218921" d="M1196.352,1121.292l-32.247,21.95a5.175,5.175,0,0,1-1.341-3.482v-36.969a5.165,5.165,0,0,1,1.307-3.441Z" transform="translate(-1080.049 -1093.083)" fill="none" stroke="#d6d6d6" stroke-linejoin="round" stroke-width="5"/>
                  <path id="Trazado_1218922" data-name="Trazado 1218922" d="M1233.867,1092.352l-32.293,21.982-32.281-21.942a5.168,5.168,0,0,1,3.876-1.742h56.856a5.174,5.174,0,0,1,3.842,1.7" transform="translate(-1085.271 -1086.124)" fill="#f9f9f9"/>
                  <path id="Trazado_1218923" data-name="Trazado 1218923" d="M1233.867,1092.352l-32.293,21.982-32.281-21.942a5.168,5.168,0,0,1,3.876-1.742h56.856A5.174,5.174,0,0,1,1233.867,1092.352Z" transform="translate(-1085.271 -1086.124)" fill="none" stroke="#d6d6d6" stroke-linejoin="round" stroke-width="5"/>
                  <path id="Trazado_1218924" data-name="Trazado 1218924" d="M1364.168,1102.632V1139.6a5.175,5.175,0,0,1-1.341,3.482l-32.293-21.95,32.293-21.982a5.175,5.175,0,0,1,1.341,3.482" transform="translate(-1214.231 -1092.922)" fill="#f9f9f9"/>
                  <path id="Trazado_1218925" data-name="Trazado 1218925" d="M1364.168,1102.632V1139.6a5.175,5.175,0,0,1-1.341,3.482l-32.293-21.95,32.293-21.982A5.175,5.175,0,0,1,1364.168,1102.632Z" transform="translate(-1214.231 -1092.922)" fill="none" stroke="#d6d6d6" stroke-linejoin="round" stroke-width="5"/>
                  <path id="Trazado_1218926" data-name="Trazado 1218926" d="M1234,1230.9a5.174,5.174,0,0,1-3.842,1.7h-56.856a5.174,5.174,0,0,1-3.842-1.7l32.247-21.95Z" transform="translate(-1085.408 -1180.74)" fill="#f9f9f9"/>
                  <path id="Trazado_1218927" data-name="Trazado 1218927" d="M1234,1230.9a5.174,5.174,0,0,1-3.842,1.7h-56.856a5.174,5.174,0,0,1-3.842-1.7l32.247-21.95Z" transform="translate(-1085.408 -1180.74)" fill="none" stroke="#d6d6d6" stroke-linejoin="round" stroke-width="5"/>
                </g>
              </g>
            </g>
            <g id="Grupo_1229222" data-name="Grupo 1229222" transform="translate(150.074 281.333)" opacity="0.5">
              <g id="Grupo_1229221" data-name="Grupo 1229221">
                <g id="Enmascarar_grupo_1208513" data-name="Enmascarar grupo 1208513" clip-path="url(#clip-path-10)">
                  <path id="Trazado_1218928" data-name="Trazado 1218928" d="M894.18,1439.827H758.446a8.837,8.837,0,0,1-8.838-8.837v-16.913a8.837,8.837,0,0,1,8.838-8.838H894.18a8.837,8.837,0,0,1,8.838,8.838v16.913a8.837,8.837,0,0,1-8.838,8.837" transform="translate(-749.608 -1405.239)" fill="#cecece"/>
                  <path id="Trazado_1218929" data-name="Trazado 1218929" d="M829.4,1443.91a11.943,11.943,0,1,1-11.943-11.943A11.943,11.943,0,0,1,829.4,1443.91" transform="translate(-794.322 -1426.616)" fill="#f9f9f9"/>
                  <rect id="Rectángulo_422738" data-name="Rectángulo 422738" width="86.586" height="11.885" transform="translate(41.242 7.397)" fill="#f9f9f9"/>
                  <g id="Grupo_1229219" data-name="Grupo 1229219" transform="translate(41.242 22.637)" opacity="0.5">
                    <g id="Grupo_1229218" data-name="Grupo 1229218">
                      <g id="Grupo_1229217" data-name="Grupo 1229217" clip-path="url(#clip-path-11)">
                        <rect id="Rectángulo_422739" data-name="Rectángulo 422739" width="59.401" height="4.555" transform="translate(0)" fill="#f9f9f9"/>
                      </g>
                    </g>
                  </g>
                </g>
              </g>
            </g>
            <path id="Trazado_1218930" data-name="Trazado 1218930" d="M235.124,1405.188h0Z" transform="translate(-176.244 -1123.865)" fill="#c59626"/>
            <path id="Trazado_1218931" data-name="Trazado 1218931" d="M211.527,1891.265H196.764c-3.262,0-5.907-2.942-5.907-6.572H205.62c0,3.63,2.644,6.572,5.907,6.572" transform="translate(-152.647 -1507.372)" fill="#c59626"/>
          </g>
        </g>
        <g id="Grupo_1229226" data-name="Grupo 1229226" transform="translate(38.21 377.321)">
          <g id="Grupo_1229225" data-name="Grupo 1229225" clip-path="url(#clip-path-12)">
            <path id="Trazado_1218932" data-name="Trazado 1218932" d="M211.527,1891.265H196.764c-3.262,0-5.907-2.942-5.907-6.572H205.62c0,3.63,2.644,6.572,5.907,6.572" transform="translate(-190.857 -1884.693)" fill="#5c2c88"/>
          </g>
        </g>
        <g id="Grupo_1229228" data-name="Grupo 1229228">
          <g id="Grupo_1229227" data-name="Grupo 1229227" clip-path="url(#clip-path-2)">
            <rect id="Rectángulo_422743" data-name="Rectángulo 422743" width="14.763" height="89.426" transform="translate(38.21 287.895)" fill="#5c2c88"/>
            <path id="Trazado_1218934" data-name="Trazado 1218934" d="M205.62,1411.76H190.857c0-3.63,2.644-6.572,5.907-6.572h14.763c-3.263,0-5.907,2.942-5.907,6.572" transform="translate(-152.647 -1123.865)" fill="#c59626"/>
          </g>
        </g>
        <g id="Grupo_1229230" data-name="Grupo 1229230" transform="translate(38.21 281.323)">
          <g id="Grupo_1229229" data-name="Grupo 1229229" clip-path="url(#clip-path-14)">
            <path id="Trazado_1218935" data-name="Trazado 1218935" d="M205.62,1423.731H190.857a7.084,7.084,0,0,1,.95-3.575H206.57a7.084,7.084,0,0,0-.95,3.575" transform="translate(-190.857 -1417.16)" fill="#5c2c88"/>
            <path id="Trazado_1218936" data-name="Trazado 1218936" d="M210.363,1413.133H195.6a6.359,6.359,0,0,1,1.5-1.758h14.763a6.359,6.359,0,0,0-1.5,1.758" transform="translate(-194.651 -1410.136)" fill="#5c2c88"/>
            <path id="Trazado_1218937" data-name="Trazado 1218937" d="M217.88,1406.427H203.117a5.489,5.489,0,0,1,3.452-1.239h14.763a5.489,5.489,0,0,0-3.452,1.239" transform="translate(-200.663 -1405.188)" fill="#5c2c88"/>
          </g>
        </g>
        <g id="Grupo_1229343" data-name="Grupo 1229343">
          <g id="Grupo_1229342" data-name="Grupo 1229342" clip-path="url(#clip-path-2)">
            <path id="Trazado_1218939" data-name="Trazado 1218939" d="M369.32,1405.188c3.263,0,5.907,2.942,5.907,6.572v89.426c0,3.63-2.644,6.572-5.907,6.572H270.5c-3.263,0-5.907-2.942-5.907-6.572V1411.76c0-3.63,2.644-6.572,5.907-6.572Z" transform="translate(-211.625 -1123.865)" fill="#aa52f9"/>
            <g id="Grupo_1229233" data-name="Grupo 1229233" transform="translate(63.695 292.389)" opacity="0.75">
              <g id="Grupo_1229232" data-name="Grupo 1229232">
                <g id="Grupo_1229231" data-name="Grupo 1229231" clip-path="url(#clip-path-16)">
                  <path id="Trazado_1218940" data-name="Trazado 1218940" d="M394.675,1665.353a15.67,15.67,0,1,0,4.64,21.67,15.688,15.688,0,0,0-4.64-21.67m-13.647,22.839a10.959,10.959,0,1,1,14.814-4.551,10.959,10.959,0,0,1-14.814,4.551" transform="translate(-360.015 -1622.325)" fill="#fff"/>
                  <path id="Trazado_1218941" data-name="Trazado 1218941" d="M325.347,1649.986l-1.323,2.229a1.6,1.6,0,0,0,.173,1.763l2.981,2.944a1.6,1.6,0,0,0,1.764.155l2.216-1.345a1.956,1.956,0,0,1,1.868.015s.256.161.883.494l.216.116c.241.115.434.7.427,1.308l-.03,2.6a1.6,1.6,0,0,0,1.031,1.44l4.045,1.072a1.6,1.6,0,0,0,1.6-.748l1.254-2.283a1.856,1.856,0,0,1,1.478-.936c.524.016,2.135.391,2.43.918l1.27,2.26a1.593,1.593,0,0,0,1.611.73l4.039-1.1a1.6,1.6,0,0,0,1.018-1.449l-.055-2.6a1.853,1.853,0,0,1,.81-1.547c.458-.247,2.049-.727,2.568-.42l2.23,1.322a1.6,1.6,0,0,0,1.762-.171l2.945-2.979a1.6,1.6,0,0,0,.156-1.762l-1.346-2.218a1.955,1.955,0,0,1,.014-1.868s.16-.256.494-.882l.114-.219c.117-.24.706-.432,1.309-.424l2.6.031a1.6,1.6,0,0,0,1.438-1.031l1.072-4.048a1.6,1.6,0,0,0-.747-1.6l-2.284-1.254a1.858,1.858,0,0,1-.936-1.479c.014-.522.388-2.133.915-2.429l2.263-1.272a1.6,1.6,0,0,0,.731-1.611l-1.1-4.04a1.6,1.6,0,0,0-1.449-1.015l-2.6.056a1.85,1.85,0,0,1-1.545-.81c-.247-.459-.725-2.049-.419-2.569l1.324-2.231a1.6,1.6,0,0,0-.173-1.761l-2.981-2.944a1.6,1.6,0,0,0-1.763-.155l-2.218,1.347a1.95,1.95,0,0,1-1.867-.016s-.257-.161-.884-.493l-.219-.114c-.24-.117-.432-.706-.425-1.31l.031-2.6a1.6,1.6,0,0,0-1.03-1.439l-4.046-1.071a1.6,1.6,0,0,0-1.6.747l-1.252,2.281a1.852,1.852,0,0,1-1.478.936c-.522-.014-2.135-.39-2.431-.916l-1.271-2.261a1.6,1.6,0,0,0-1.611-.731l-4.042,1.1a1.6,1.6,0,0,0-1.016,1.45l.056,2.6a1.841,1.841,0,0,1-.811,1.545c-.458.246-2.048.726-2.567.419l-2.231-1.323a1.6,1.6,0,0,0-1.763.171l-2.942,2.979a1.6,1.6,0,0,0-.156,1.763l1.346,2.221a1.958,1.958,0,0,1-.014,1.868s-.161.255-.5.882l-.115.216c-.115.242-.7.433-1.307.426l-2.6-.031a1.594,1.594,0,0,0-1.44,1.029l-1.071,4.048a1.6,1.6,0,0,0,.747,1.6l2.283,1.255a1.859,1.859,0,0,1,.936,1.479c-.014.522-.39,2.134-.916,2.43L318.963,1640a1.594,1.594,0,0,0-.731,1.611l1.1,4.04a1.6,1.6,0,0,0,1.449,1.017l2.6-.056a1.848,1.848,0,0,1,1.546.809c.247.458.727,2.05.419,2.568m3.958-23.034a17.857,17.857,0,1,1,5.287,24.693,17.877,17.877,0,0,1-5.287-24.693" transform="translate(-318.15 -1580.472)" fill="#fff"/>
                  <path id="Trazado_1218942" data-name="Trazado 1218942" d="M516.761,1496.076a10.176,10.176,0,1,0,3.014,14.073,10.188,10.188,0,0,0-3.014-14.073m-8.862,14.832a7.117,7.117,0,1,1,9.62-2.955,7.116,7.116,0,0,1-9.62,2.955" transform="translate(-464.439 -1487.643)" fill="#fff"/>
                  <path id="Trazado_1218943" data-name="Trazado 1218943" d="M471.739,1486.1l-.859,1.447a1.038,1.038,0,0,0,.113,1.145l1.936,1.911a1.04,1.04,0,0,0,1.146.1l1.439-.874a1.27,1.27,0,0,1,1.213.01s.166.1.573.321l.14.075c.156.075.281.458.277.85l-.019,1.687a1.039,1.039,0,0,0,.67.936l2.627.7a1.038,1.038,0,0,0,1.042-.486l.814-1.483a1.2,1.2,0,0,1,.96-.608c.34.01,1.387.254,1.578.6l.825,1.468a1.035,1.035,0,0,0,1.046.474l2.623-.716a1.036,1.036,0,0,0,.661-.941l-.036-1.687a1.2,1.2,0,0,1,.526-1c.3-.16,1.331-.472,1.667-.273l1.448.859a1.037,1.037,0,0,0,1.144-.111l1.913-1.935a1.036,1.036,0,0,0,.1-1.144l-.874-1.441a1.269,1.269,0,0,1,.009-1.213s.1-.166.321-.573l.074-.142c.076-.156.458-.28.85-.275l1.69.02a1.037,1.037,0,0,0,.934-.669l.7-2.629a1.036,1.036,0,0,0-.485-1.042l-1.483-.814a1.206,1.206,0,0,1-.607-.961c.009-.339.252-1.385.594-1.577l1.47-.826a1.037,1.037,0,0,0,.475-1.046l-.718-2.624a1.037,1.037,0,0,0-.941-.659l-1.688.036a1.2,1.2,0,0,1-1-.526c-.16-.3-.471-1.331-.272-1.669l.86-1.449a1.039,1.039,0,0,0-.112-1.144l-1.936-1.912a1.039,1.039,0,0,0-1.145-.1l-1.44.875a1.265,1.265,0,0,1-1.212-.011s-.167-.1-.574-.32l-.142-.074c-.156-.076-.28-.458-.276-.85l.02-1.688a1.037,1.037,0,0,0-.669-.935l-2.627-.7a1.038,1.038,0,0,0-1.042.485l-.813,1.481a1.2,1.2,0,0,1-.96.608c-.339-.009-1.386-.253-1.579-.595l-.825-1.468a1.035,1.035,0,0,0-1.047-.474l-2.624.716a1.039,1.039,0,0,0-.66.941l.036,1.687a1.2,1.2,0,0,1-.527,1c-.3.16-1.33.471-1.667.272l-1.449-.859a1.039,1.039,0,0,0-1.145.111l-1.911,1.935a1.039,1.039,0,0,0-.1,1.145l.874,1.442a1.272,1.272,0,0,1-.009,1.214s-.1.166-.322.572l-.074.14c-.074.157-.456.281-.849.276l-1.689-.02a1.035,1.035,0,0,0-.935.668l-.7,2.629a1.037,1.037,0,0,0,.485,1.042l1.483.815a1.207,1.207,0,0,1,.608.96c-.009.339-.253,1.386-.595,1.578l-1.469.826a1.036,1.036,0,0,0-.474,1.047l.717,2.624a1.037,1.037,0,0,0,.941.66l1.686-.037a1.2,1.2,0,0,1,1,.526c.161.3.472,1.331.272,1.668m2.57-14.959a11.6,11.6,0,1,1,3.433,16.036,11.61,11.61,0,0,1-3.433-16.036" transform="translate(-437.252 -1460.463)" fill="#fff"/>
                  <path id="Trazado_1218944" data-name="Trazado 1218944" d="M634.556,1649.7a7.97,7.97,0,1,0,2.36,11.022,7.98,7.98,0,0,0-2.36-11.022m-6.941,11.617a5.574,5.574,0,1,1,7.535-2.315,5.574,5.574,0,0,1-7.535,2.315" transform="translate(-561.374 -1610.796)" fill="#fff"/>
                  <path id="Trazado_1218945" data-name="Trazado 1218945" d="M599.293,1641.888l-.673,1.134a.813.813,0,0,0,.088.9l1.516,1.5a.814.814,0,0,0,.9.079l1.127-.684a1,1,0,0,1,.95.008s.13.082.449.251l.11.059c.123.059.221.359.217.665l-.015,1.322a.814.814,0,0,0,.525.733l2.058.545a.813.813,0,0,0,.816-.38l.638-1.161a.944.944,0,0,1,.752-.476c.266.008,1.086.2,1.236.467l.646,1.15a.811.811,0,0,0,.819.371l2.054-.561a.812.812,0,0,0,.518-.737l-.028-1.321a.943.943,0,0,1,.412-.787c.233-.126,1.042-.37,1.306-.214l1.134.672a.812.812,0,0,0,.9-.087l1.5-1.515a.811.811,0,0,0,.079-.9l-.685-1.128a1,1,0,0,1,.007-.95s.082-.13.252-.449l.058-.112c.059-.122.359-.219.666-.215l1.323.016a.813.813,0,0,0,.732-.524l.545-2.059a.812.812,0,0,0-.38-.816l-1.162-.638a.944.944,0,0,1-.476-.752c.007-.266.2-1.085.465-1.235l1.151-.647a.812.812,0,0,0,.372-.82l-.562-2.055a.812.812,0,0,0-.737-.516l-1.322.028a.94.94,0,0,1-.786-.412c-.125-.234-.369-1.042-.213-1.307l.673-1.135a.814.814,0,0,0-.088-.9l-1.516-1.5a.813.813,0,0,0-.9-.078l-1.128.685a.991.991,0,0,1-.949-.008s-.131-.082-.449-.25l-.111-.058c-.122-.06-.22-.359-.216-.666l.016-1.323a.812.812,0,0,0-.524-.732l-2.058-.545a.812.812,0,0,0-.816.38l-.637,1.16a.941.941,0,0,1-.752.476c-.265-.007-1.086-.2-1.236-.466l-.646-1.15a.811.811,0,0,0-.82-.372l-2.056.561a.813.813,0,0,0-.517.737l.028,1.321a.938.938,0,0,1-.413.786c-.233.125-1.042.369-1.306.213l-1.135-.673a.813.813,0,0,0-.9.087l-1.5,1.515a.813.813,0,0,0-.079.9l.684,1.13a1,1,0,0,1-.007.951s-.082.13-.252.448l-.058.11c-.058.123-.357.22-.665.217l-1.323-.016a.811.811,0,0,0-.733.524l-.545,2.059a.812.812,0,0,0,.38.816l1.161.638a.945.945,0,0,1,.476.752c-.007.266-.2,1.086-.466,1.236l-1.15.647a.811.811,0,0,0-.372.819l.562,2.055a.812.812,0,0,0,.737.517l1.321-.029a.94.94,0,0,1,.786.412c.126.233.37,1.042.213,1.306m2.013-11.716a9.083,9.083,0,1,1,2.689,12.56,9.093,9.093,0,0,1-2.689-12.56" transform="translate(-540.08 -1589.508)" fill="#fff"/>
                </g>
              </g>
            </g>
            <g id="Grupo_1229236" data-name="Grupo 1229236" transform="translate(58.164 281.323)" opacity="0.1">
              <g id="Grupo_1229235" data-name="Grupo 1229235">
                <g id="Grupo_1229234" data-name="Grupo 1229234" clip-path="url(#clip-path-17)">
                  <path id="Trazado_1218946" data-name="Trazado 1218946" d="M295.812,1405.19s-1.87,55.092-1.7,59.142-4.723,15.532-3.335,24.006,16.592,8.276,20.9,3.669,1.117-5.826,2.9-9.539a24.952,24.952,0,0,0,2.142-5.731l-13.1-42.158-2.04-29.389Z" transform="translate(-290.525 -1405.19)" fill="#020202"/>
                </g>
              </g>
            </g>
            <g id="Grupo_1229239" data-name="Grupo 1229239" transform="translate(118.123 281.416)" opacity="0.1">
              <g id="Grupo_1229238" data-name="Grupo 1229238">
                <g id="Grupo_1229237" data-name="Grupo 1229237" clip-path="url(#clip-path-18)">
                  <path id="Trazado_1218947" data-name="Trazado 1218947" d="M590.014,1405.653s4.033,8.5,4.033,21.941.189,35.037.941,37.5-3.057,17.4-.964,22.633,14.283,13.829,27.284,5.2h0l-16.244-78.972-3.625-8.306Z" transform="translate(-590.014 -1405.653)" fill="#020202"/>
                </g>
              </g>
            </g>
            <path id="Trazado_1218948" data-name="Trazado 1218948" d="M647.535,1682.413s-.81-5.474-.249-6.684,14.337-1.854,14.306-.831.814,12.286.514,14.048-14.144-.524-14.144-.524Z" transform="translate(-517.539 -1339.172)" fill="#f5bf99"/>
            <path id="Trazado_1218949" data-name="Trazado 1218949" d="M638.984,1723.581c.809,1.007,2.422,3.629,3.161,3.831s.739,1.948.538,4.032a4.668,4.668,0,0,0,3.091,5.309c2.823,1.209,13.576,2.958,15.726-1.547a5.218,5.218,0,0,0,.2-3.728v0c-.962-3.6-4.4-7.7-4.5-12.736-.082-4.17-.387-5.808-1.522-6.718v0a2.939,2.939,0,0,0-.33-.231v0a13.659,13.659,0,0,0-3.054-1.116c-2.612-.781-5.363.663-7.326,1.613-.451.22-.861.412-1.217.546a1.576,1.576,0,0,1-1.137.132c-1.277-.605-1.746-2.42-2.418-1.547a57.11,57.11,0,0,0-1.211,6.37,8.583,8.583,0,0,1-.095,1.258v0c-.185,1.528-.5,3.794.093,4.535" transform="translate(-510.781 -1368.011)" fill="#191716"/>
            <g id="Grupo_1229242" data-name="Grupo 1229242" transform="translate(132.97 344.273)" opacity="0.5">
              <g id="Grupo_1229241" data-name="Grupo 1229241">
                <g id="Grupo_1229240" data-name="Grupo 1229240" clip-path="url(#clip-path-19)">
                  <path id="Trazado_1218950" data-name="Trazado 1218950" d="M665.392,1732.459s-1.026-9.321,0-12.839v0c-.451.22-.861.412-1.217.546.006.175.416,10.9,1.217,12.3" transform="translate(-664.175 -1719.618)"/>
                </g>
              </g>
            </g>
            <g id="Grupo_1229245" data-name="Grupo 1229245" transform="translate(144.567 343.778)" opacity="0.5">
              <g id="Grupo_1229244" data-name="Grupo 1229244">
                <g id="Grupo_1229243" data-name="Grupo 1229243" clip-path="url(#clip-path-20)">
                  <path id="Trazado_1218951" data-name="Trazado 1218951" d="M722.609,1729.644s1.26-1.5-.177-12.262v0a2.94,2.94,0,0,0-.33-.231s1.044,9.639.507,12.5" transform="translate(-722.102 -1717.149)"/>
                </g>
              </g>
            </g>
            <g id="Grupo_1229248" data-name="Grupo 1229248" transform="translate(134.186 356.274)" opacity="0.5">
              <g id="Grupo_1229247" data-name="Grupo 1229247">
                <g id="Grupo_1229246" data-name="Grupo 1229246" clip-path="url(#clip-path-21)">
                  <path id="Trazado_1218952" data-name="Trazado 1218952" d="M670.251,1780.4s7.931,4.032,10.888-.84c0,0-2.554,4-10.888.84" transform="translate(-670.251 -1779.564)"/>
                </g>
              </g>
            </g>
            <g id="Grupo_1229251" data-name="Grupo 1229251" transform="translate(127.857 351.034)" opacity="0.5">
              <g id="Grupo_1229250" data-name="Grupo 1229250">
                <g id="Grupo_1229249" data-name="Grupo 1229249" clip-path="url(#clip-path-22)">
                  <path id="Trazado_1218953" data-name="Trazado 1218953" d="M638.984,1757.926c.809,1.007,2.422,3.629,3.161,3.831s.739,1.948.538,4.032a4.668,4.668,0,0,0,3.091,5.309c2.823,1.209,13.576,2.958,15.726-1.547a5.217,5.217,0,0,0,.2-3.728c-.678,3.528-2.554,4-9.744,4.187s-8.333-4.558-8.2-5.769.14-4.7-.665-5.612c-.795-.892-4.092-5.109-4.2-5.239-.185,1.528-.5,3.794.093,4.535" transform="translate(-638.639 -1753.391)"/>
                </g>
              </g>
            </g>
            <path id="Trazado_1218954" data-name="Trazado 1218954" d="M352.548,1672.566s.81-5.474.249-6.683-14.337-1.855-14.307-.831-.814,12.286-.514,14.048,14.145-.523,14.145-.523Z" transform="translate(-270.261 -1331.296)" fill="#f5bf99"/>
            <path id="Trazado_1218955" data-name="Trazado 1218955" d="M328.239,1713.734c-.809,1.007-2.422,3.629-3.161,3.831s-.739,1.948-.538,4.033a4.668,4.668,0,0,1-3.091,5.309c-2.823,1.209-13.576,2.958-15.726-1.547a5.218,5.218,0,0,1-.2-3.728v0c.962-3.6,4.4-7.7,4.5-12.736.082-4.171.387-5.808,1.522-6.718v0a2.9,2.9,0,0,1,.33-.231v0a13.66,13.66,0,0,1,3.054-1.116c2.612-.781,5.363.663,7.326,1.613.451.22.861.412,1.217.546a1.578,1.578,0,0,0,1.137.132c1.277-.606,1.746-2.42,2.418-1.547a57.1,57.1,0,0,1,1.211,6.37,8.577,8.577,0,0,0,.095,1.258v0c.185,1.528.5,3.794-.093,4.535" transform="translate(-244.159 -1360.136)" fill="#191716"/>
            <g id="Grupo_1229254" data-name="Grupo 1229254" transform="translate(78.096 342.301)" opacity="0.5">
              <g id="Grupo_1229253" data-name="Grupo 1229253">
                <g id="Grupo_1229252" data-name="Grupo 1229252" clip-path="url(#clip-path-19)">
                  <path id="Trazado_1218956" data-name="Trazado 1218956" d="M390.082,1722.612s1.026-9.321,0-12.839v0c.451.22.861.412,1.217.546-.006.175-.416,10.9-1.217,12.3" transform="translate(-390.082 -1709.771)"/>
                </g>
              </g>
            </g>
            <g id="Grupo_1229257" data-name="Grupo 1229257" transform="translate(66.698 341.807)" opacity="0.5">
              <g id="Grupo_1229256" data-name="Grupo 1229256">
                <g id="Grupo_1229255" data-name="Grupo 1229255" clip-path="url(#clip-path-20)">
                  <path id="Trazado_1218957" data-name="Trazado 1218957" d="M333.662,1719.8s-1.26-1.5.177-12.262v0a2.911,2.911,0,0,1,.33-.231s-1.044,9.639-.507,12.5" transform="translate(-333.151 -1707.302)"/>
                </g>
              </g>
            </g>
            <g id="Grupo_1229260" data-name="Grupo 1229260" transform="translate(67.209 354.303)" opacity="0.5">
              <g id="Grupo_1229259" data-name="Grupo 1229259">
                <g id="Grupo_1229258" data-name="Grupo 1229258" clip-path="url(#clip-path-21)">
                  <path id="Trazado_1218958" data-name="Trazado 1218958" d="M346.59,1770.557s-7.931,4.033-10.888-.84c0,0,2.554,4,10.888.84" transform="translate(-335.702 -1769.717)"/>
                </g>
              </g>
            </g>
            <g id="Grupo_1229263" data-name="Grupo 1229263" transform="translate(61.117 349.063)" opacity="0.5">
              <g id="Grupo_1229262" data-name="Grupo 1229262">
                <g id="Grupo_1229261" data-name="Grupo 1229261" clip-path="url(#clip-path-22)">
                  <path id="Trazado_1218959" data-name="Trazado 1218959" d="M328.239,1748.079c-.809,1.007-2.422,3.629-3.161,3.831s-.739,1.948-.538,4.033a4.668,4.668,0,0,1-3.091,5.309c-2.823,1.209-13.576,2.958-15.726-1.547a5.218,5.218,0,0,1-.2-3.728c.678,3.528,2.554,4,9.744,4.187s8.333-4.558,8.2-5.769-.14-4.7.665-5.612c.8-.892,4.092-5.11,4.2-5.239.185,1.528.5,3.794-.093,4.535" transform="translate(-305.276 -1743.544)"/>
                </g>
              </g>
            </g>
            <path id="Trazado_1218960" data-name="Trazado 1218960" d="M407.242,1347.007c-.719,1.2-16.188.588-17.148.108s-1.084-35.854-.6-44.251a13.208,13.208,0,0,0-.031-1.944q-.038-.455-.109-.892c-1.031-6.48-6.639-10.007-6.814-10.115,0,0,0,0,0,0H352.3a13.325,13.325,0,0,0-3.76,6.2c-.091.318-.175.65-.254,1-.682,3.031-.9,7.215-.785,13.671.241,13.435,0,33.107-.48,34.307s-19.566.589-19.805-1.09-.106-43.052.135-58.166,10.315-18.953,10.315-18.953,35.265-11.034,52.539-3.118,18.953,18.232,19.192,26.149-1.438,55.9-2.159,57.1" transform="translate(-261.609 -1008.465)" fill="#2d2a29"/>
            <g id="Grupo_1229266" data-name="Grupo 1229266" transform="translate(100.96 281.03)" opacity="0.4">
              <g id="Grupo_1229265" data-name="Grupo 1229265">
                <g id="Grupo_1229264" data-name="Grupo 1229264" clip-path="url(#clip-path-27)">
                  <path id="Trazado_1218961" data-name="Trazado 1218961" d="M505.217,1404.14h-.931s.1-.145.271-.414Z" transform="translate(-504.286 -1403.726)" fill="#020202"/>
                </g>
              </g>
            </g>
            <g id="Grupo_1229269" data-name="Grupo 1229269" transform="translate(90.696 266.229)" opacity="0.4">
              <g id="Grupo_1229268" data-name="Grupo 1229268">
                <g id="Grupo_1229267" data-name="Grupo 1229267" clip-path="url(#clip-path-28)">
                  <path id="Trazado_1218962" data-name="Trazado 1218962" d="M467.256,1343.487c-.165-6.99,6.385-13.49,6.587-13.688a21.446,21.446,0,0,0-7.348,11.49c.75-8.331-3.1-11.407-3.211-11.494,4.654,6.693,1.3,13.136.27,14.8l-10.535.414h30.227c-.867-.616-15.989-1.524-15.989-1.524" transform="translate(-453.018 -1329.795)" fill="#020202"/>
                </g>
              </g>
            </g>
            <g id="Grupo_1229272" data-name="Grupo 1229272" transform="translate(92.182 258.86)" opacity="0.4">
              <g id="Grupo_1229271" data-name="Grupo 1229271">
                <g id="Grupo_1229270" data-name="Grupo 1229270" clip-path="url(#clip-path-29)">
                  <path id="Trazado_1218963" data-name="Trazado 1218963" d="M470.152,1300.082s-4.376-5.418-9.708-7.1a16.5,16.5,0,0,1,9.708,7.1" transform="translate(-460.444 -1292.987)" fill="#020202"/>
                </g>
              </g>
            </g>
            <g id="Grupo_1229275" data-name="Grupo 1229275" transform="translate(108.48 262.601)" opacity="0.4">
              <g id="Grupo_1229274" data-name="Grupo 1229274">
                <g id="Grupo_1229273" data-name="Grupo 1229273" clip-path="url(#clip-path-30)">
                  <path id="Trazado_1218964" data-name="Trazado 1218964" d="M541.849,1316.571s2.838-3.78,6.45-4.9a10.986,10.986,0,0,0-6.45,4.9" transform="translate(-541.849 -1311.673)" fill="#020202"/>
                </g>
              </g>
            </g>
            <g id="Grupo_1229278" data-name="Grupo 1229278" transform="translate(106.373 259.161)" opacity="0.4">
              <g id="Grupo_1229277" data-name="Grupo 1229277">
                <g id="Grupo_1229276" data-name="Grupo 1229276" clip-path="url(#clip-path-31)">
                  <path id="Trazado_1218965" data-name="Trazado 1218965" d="M531.324,1299.22s4.515-4.3,10.449-4.73c0,0-4.429.215-10.449,4.73" transform="translate(-531.324 -1294.49)" fill="#020202"/>
                </g>
              </g>
            </g>
            <g id="Grupo_1229281" data-name="Grupo 1229281" transform="translate(69.422 276.821)" opacity="0.4">
              <g id="Grupo_1229280" data-name="Grupo 1229280">
                <g id="Grupo_1229279" data-name="Grupo 1229279" clip-path="url(#clip-path-32)">
                  <path id="Trazado_1218966" data-name="Trazado 1218966" d="M346.76,1382.7a15.745,15.745,0,0,0,12.087,2.118,12.065,12.065,0,0,1-12.087-2.118" transform="translate(-346.76 -1382.701)" fill="#020202"/>
                </g>
              </g>
            </g>
            <g id="Grupo_1229284" data-name="Grupo 1229284" transform="translate(133.173 278.435)" opacity="0.4">
              <g id="Grupo_1229283" data-name="Grupo 1229283">
                <g id="Grupo_1229282" data-name="Grupo 1229282" clip-path="url(#clip-path-32)">
                  <path id="Trazado_1218967" data-name="Trazado 1218967" d="M677.278,1390.761a15.745,15.745,0,0,1-12.087,2.118,12.065,12.065,0,0,0,12.087-2.118" transform="translate(-665.191 -1390.761)" fill="#020202"/>
                </g>
              </g>
            </g>
            <g id="Grupo_1229287" data-name="Grupo 1229287" transform="translate(127.741 285.917)" opacity="0.4">
              <g id="Grupo_1229286" data-name="Grupo 1229286">
                <g id="Grupo_1229285" data-name="Grupo 1229285" clip-path="url(#clip-path-34)">
                  <path id="Trazado_1218968" data-name="Trazado 1218968" d="M642.295,1428.137s-.613,4.393-4.128,6.538c-.026-.3-.063-.6-.109-.893.076-.043,2.519-1.474,4.237-5.645" transform="translate(-638.058 -1428.137)" fill="#020202"/>
                </g>
              </g>
            </g>
            <g id="Grupo_1229290" data-name="Grupo 1229290" transform="translate(83.256 284.549)" opacity="0.4">
              <g id="Grupo_1229289" data-name="Grupo 1229289">
                <g id="Grupo_1229288" data-name="Grupo 1229288" clip-path="url(#clip-path-35)">
                  <path id="Trazado_1218969" data-name="Trazado 1218969" d="M419.537,1424.4c-.091.318-.175.65-.254,1-2.384-.991-3.389-3.983-3.426-4.1a7.015,7.015,0,0,0,3.68,3.1" transform="translate(-415.857 -1421.305)" fill="#020202"/>
                </g>
              </g>
            </g>
            <path id="Trazado_1218970" data-name="Trazado 1218970" d="M473.6,924.105l.219,9.8,13.543,6.22,7.073-7.46-1.261-11.479Z" transform="translate(-378.781 -736.758)" fill="#ffc7a0"/>
            <path id="Trazado_1218971" data-name="Trazado 1218971" d="M495.321,1249.88a31.781,31.781,0,0,1-6.882,2.505c-2.637.4-5.961,1.951-9.659.209s.977-16.595.977-16.595h13.674s3.87,10.068,1.89,13.88" transform="translate(-381.789 -988.548)" fill="#fff"/>
            <path id="Trazado_1218972" data-name="Trazado 1218972" d="M383.642,1236s-.737,6.435-1.409,7.339-3.1,3.368-2.591,6.66c0,0,12.421-2.889,14.608,0s6.146,4.883,6.322,3.994.977-17.993.977-17.993Z" transform="translate(-303.58 -988.548)" fill="#e6af2e"/>
            <path id="Trazado_1218973" data-name="Trazado 1218973" d="M557.645,1236s1.611,14.516,2.118,14.446,13.969-4.109,19.8-.984-.967-8.545-1.518-13.462Z" transform="translate(-446.003 -988.548)" fill="#e6af2e"/>
            <path id="Trazado_1218974" data-name="Trazado 1218974" d="M484.467,979.714s8.618,5.642,16.83-1.193v15.574l-2.179,35.974H485.444Z" transform="translate(-387.475 -782.617)" fill="#fff"/>
            <path id="Trazado_1218975" data-name="Trazado 1218975" d="M394.635,988.88H376.728l.326-6.294-.191-1.073-5.936-42.191s1.833-2.883,7.91-6.139a84.584,84.584,0,0,1,11.457-5.075c.217-.76,1.519-1.085,1.519-1.085s.108,8.9,1.845,11.5,3.364,8.031,3.907,15.3-2.93,35.053-2.93,35.053" transform="translate(-296.666 -741.429)" fill="#aa52f9"/>
            <path id="Trazado_1218976" data-name="Trazado 1218976" d="M567.664,979.95l1,8.93h-20.4s-2.821-26.045-2.279-33.317,1.845-13.027,3.581-15.631,1.52-12.911,1.52-12.911,1.3.326,1.519,1.085a45.691,45.691,0,0,1,13.178,4.721c5.785,3.361,7.691,7.674,7.691,7.674l-6,37.742.011.094Z" transform="translate(-436.622 -741.429)" fill="#aa52f9"/>
            <g id="Grupo_1229293" data-name="Grupo 1229293" transform="translate(93.325 187.294)" opacity="0.15">
              <g id="Grupo_1229292" data-name="Grupo 1229292">
                <g id="Grupo_1229291" data-name="Grupo 1229291" clip-path="url(#clip-path-36)">
                  <path id="Trazado_1218977" data-name="Trazado 1218977" d="M468.4,1012.574h-.009a.062.062,0,0,1-.052-.07c.009-.062.088-8.61.786-17.61.669-8.639,2.287-17.665,2.732-22.985a68.058,68.058,0,0,0-.436-15.229c-.62-4.274-1.631-7.89-2.772-9.92-2.187-3.891-2.489-11.1-2.491-11.176a.062.062,0,0,1,.059-.065.061.061,0,0,1,.064.06c0,.072.3,7.255,2.476,11.12,1.149,2.043,2.165,5.674,2.787,9.963a68.181,68.181,0,0,1,.437,15.258c-.445,5.319-2.062,14.339-2.731,22.975-.7,9.008-.778,17.566-.787,17.628a.062.062,0,0,1-.061.053" transform="translate(-466.153 -935.518)" fill="#020202"/>
                </g>
              </g>
            </g>
            <g id="Grupo_1229296" data-name="Grupo 1229296" transform="translate(111.462 187.294)" opacity="0.15">
              <g id="Grupo_1229295" data-name="Grupo 1229295">
                <g id="Grupo_1229294" data-name="Grupo 1229294" clip-path="url(#clip-path-37)">
                  <path id="Trazado_1218978" data-name="Trazado 1218978" d="M560.622,1008.913a.062.062,0,0,1-.061-.055c-.866-7.528-3.624-32-3.777-40.014-.137-7.181.045-16.3,1.686-18.947,2.867-4.627,2.749-14.219,2.747-14.315a.062.062,0,0,1,.124,0,49.344,49.344,0,0,1-.288,5.421c-.3,2.744-.969,6.525-2.479,8.961-1.626,2.624-1.8,11.715-1.667,18.88.153,8.007,2.91,32.478,3.776,40a.062.062,0,0,1-.054.069h-.007" transform="translate(-556.747 -935.519)" fill="#020202"/>
                </g>
              </g>
            </g>
            <g id="Grupo_1229299" data-name="Grupo 1229299" transform="translate(115.611 223.169)" opacity="0.15">
              <g id="Grupo_1229298" data-name="Grupo 1229298">
                <g id="Grupo_1229297" data-name="Grupo 1229297" clip-path="url(#clip-path-38)">
                  <path id="Trazado_1218979" data-name="Trazado 1218979" d="M577.469,1139.813a45.114,45.114,0,0,0,8.4-25.1s.435,14.927-8.4,25.1" transform="translate(-577.469 -1114.711)" fill="#020202"/>
                </g>
              </g>
            </g>
            <g id="Grupo_1229302" data-name="Grupo 1229302" transform="translate(85.483 233.514)" opacity="0.15">
              <g id="Grupo_1229301" data-name="Grupo 1229301">
                <g id="Grupo_1229300" data-name="Grupo 1229300" clip-path="url(#clip-path-39)">
                  <path id="Trazado_1218980" data-name="Trazado 1218980" d="M427.235,1166.384s-1.013,10.966,1.01,18.784a88.548,88.548,0,0,1-1.01-18.784" transform="translate(-426.982 -1166.384)" fill="#020202"/>
                </g>
              </g>
            </g>
            <g id="Grupo_1229305" data-name="Grupo 1229305" transform="translate(85.411 207.36)" opacity="0.15">
              <g id="Grupo_1229304" data-name="Grupo 1229304">
                <g id="Grupo_1229303" data-name="Grupo 1229303" clip-path="url(#clip-path-40)">
                  <path id="Trazado_1218981" data-name="Trazado 1218981" d="M426.62,1035.75a69.413,69.413,0,0,1,10.518,17.3,172.718,172.718,0,0,0-10.518-17.3" transform="translate(-426.62 -1035.75)" fill="#020202"/>
                </g>
              </g>
            </g>
            <g id="Grupo_1229308" data-name="Grupo 1229308" transform="translate(114.776 209.757)" opacity="0.15">
              <g id="Grupo_1229307" data-name="Grupo 1229307">
                <g id="Grupo_1229306" data-name="Grupo 1229306" clip-path="url(#clip-path-41)">
                  <path id="Trazado_1218982" data-name="Trazado 1218982" d="M573.3,1055.642s2.967-5.314,7.8-7.922c0,0-4.731,1.66-7.8,7.922" transform="translate(-573.296 -1047.72)" fill="#020202"/>
                </g>
              </g>
            </g>
            <g id="Grupo_1229311" data-name="Grupo 1229311" transform="translate(78.653 254.59)" opacity="0.15">
              <g id="Grupo_1229310" data-name="Grupo 1229310">
                <g id="Grupo_1229309" data-name="Grupo 1229309" clip-path="url(#clip-path-42)">
                  <path id="Trazado_1218983" data-name="Trazado 1218983" d="M392.864,1271.859s8.363-.9,12.191,5.9a11.346,11.346,0,0,0-12.191-5.9" transform="translate(-392.864 -1271.659)" fill="#020202"/>
                </g>
              </g>
            </g>
            <g id="Grupo_1229314" data-name="Grupo 1229314" transform="translate(121.365 247.451)" opacity="0.15">
              <g id="Grupo_1229313" data-name="Grupo 1229313">
                <g id="Grupo_1229312" data-name="Grupo 1229312" clip-path="url(#clip-path-43)">
                  <path id="Trazado_1218984" data-name="Trazado 1218984" d="M616.89,1236s-9.165,4.8-10.679,10.188c0,0,2.847-5.444,10.679-10.188" transform="translate(-606.211 -1235.999)" fill="#020202"/>
                </g>
              </g>
            </g>
            <path id="Trazado_1218985" data-name="Trazado 1218985" d="M329.927,988.461a58.951,58.951,0,0,0-2.834,6.139,167.656,167.656,0,0,0-4.274,17.645c-1.142,6.376-5.366,22.734-1.668,28.165s11.214,7.8,11.214,7.8l8.711-18.3Z" transform="translate(-255.667 -790.568)" fill="#aa52f9"/>
            <path id="Trazado_1218986" data-name="Trazado 1218986" d="M632.3,994.358s2.345,7.21,3.88,14.644,1.063,8.851,2.243,15.108,3.188,11.613-.59,17.2-5.081,8.638-9.212,8.647-9.154-9.272-9.154-9.272Z" transform="translate(-495.449 -795.285)" fill="#aa52f9"/>
            <g id="Grupo_1229317" data-name="Grupo 1229317" transform="translate(65.988 237.395)" opacity="0.15">
              <g id="Grupo_1229316" data-name="Grupo 1229316">
                <g id="Grupo_1229315" data-name="Grupo 1229315" clip-path="url(#clip-path-44)">
                  <path id="Trazado_1218987" data-name="Trazado 1218987" d="M342.632,1186.946s-9.368-2.708-13.027,2.854c0,0,3.513-6.66,13.027-2.854" transform="translate(-329.605 -1185.771)" fill="#020202"/>
                </g>
              </g>
            </g>
            <g id="Grupo_1229320" data-name="Grupo 1229320" transform="translate(127.784 234.848)" opacity="0.15">
              <g id="Grupo_1229319" data-name="Grupo 1229319">
                <g id="Grupo_1229318" data-name="Grupo 1229318" clip-path="url(#clip-path-44)">
                  <path id="Trazado_1218988" data-name="Trazado 1218988" d="M638.272,1174.222s9.367-2.708,13.027,2.854c0,0-3.513-6.66-13.027-2.854" transform="translate(-638.272 -1173.047)" fill="#020202"/>
                </g>
              </g>
            </g>
            <g id="Grupo_1229323" data-name="Grupo 1229323" transform="translate(76.35 212.74)" opacity="0.15">
              <g id="Grupo_1229322" data-name="Grupo 1229322">
                <g id="Grupo_1229321" data-name="Grupo 1229321" clip-path="url(#clip-path-46)">
                  <path id="Trazado_1218989" data-name="Trazado 1218989" d="M381.361,1062.621A151.583,151.583,0,0,1,384.9,1085.6h.805s-1.232-13.388-4.348-22.979" transform="translate(-381.361 -1062.621)" fill="#020202"/>
                </g>
              </g>
            </g>
            <g id="Grupo_1229326" data-name="Grupo 1229326" transform="translate(128.834 212.755)" opacity="0.15">
              <g id="Grupo_1229325" data-name="Grupo 1229325">
                <g id="Grupo_1229324" data-name="Grupo 1229324" clip-path="url(#clip-path-46)">
                  <path id="Trazado_1218990" data-name="Trazado 1218990" d="M647.863,1062.7a151.58,151.58,0,0,0-3.543,22.979h-.805s1.232-13.388,4.348-22.979" transform="translate(-643.515 -1062.696)" fill="#020202"/>
                </g>
              </g>
            </g>
            <path id="Trazado_1218991" data-name="Trazado 1218991" d="M442.783,845.364s-2.321-2.358-2.343.329.429,1.037.693,4.75c.22,3.091,2.589,2.116,2.589,2.116Z" transform="translate(-352.262 -675.354)" fill="#ffc7a0"/>
            <path id="Trazado_1218992" data-name="Trazado 1218992" d="M586.544,848.618s2.32-2.358,2.343.329-.429,1.037-.693,4.75c-.22,3.091-2.589,2.116-2.589,2.116Z" transform="translate(-468.365 -677.957)" fill="#ffc7a0"/>
            <path id="Trazado_1218993" data-name="Trazado 1218993" d="M482.323,811.439c0,.3-.006.6-.007.905q-.006.687-.006,1.4a21.659,21.659,0,0,1-.3,3.56c-.014.086-.028.172-.044.258a20.6,20.6,0,0,1-1.805,5.513c-2.8,5.666-7.719,8.9-10.923,8.9-3.164,0-7.712-2.854-10.437-8.338v0a22.178,22.178,0,0,1-2.051-6.7h0q-.022-.156-.043-.313a26.125,26.125,0,0,1-.226-3.448q0-.861-.012-1.687-.007-.511-.014-1.007c-.128-8.487-.22-13.758,12.784-13.758,13.119,0,13.156,5.93,13.082,14.729" transform="translate(-365.053 -637.206)" fill="#ffc7a0"/>
            <path id="Trazado_1218994" data-name="Trazado 1218994" d="M446.374,761.1s-.465,5.952-.434,6.482-1.381-6.482-1.6-8.4-2.2-8.389-.331-11.4,1.745-3.619,3.861-4.989,6.118-4.935,9.243-4.606,8.608,1.81,10.527,3.18,4.87,2.412,6.438,6.2-1.857,15.488-2.146,20.053c0,0-.088.663-.617-5.5a1.043,1.043,0,0,0-.343-.688,7.006,7.006,0,0,1-1.824-3.769.982.982,0,0,0-.835-.758c-1.595-.2-5.465-.614-6.758-.183-1.6.532-7.6,2.467-12.656-.239a.523.523,0,0,0-.714.228,7,7,0,0,0-.81,3.245.517.517,0,0,1-.326.5c-.288.115-.647.324-.672.654" transform="translate(-354.479 -590.381)" fill="#191716"/>
            <g id="Grupo_1229329" data-name="Grupo 1229329" transform="translate(93.751 185.865)" opacity="0.1">
              <g id="Grupo_1229328" data-name="Grupo 1229328">
                <g id="Grupo_1229327" data-name="Grupo 1229327" clip-path="url(#clip-path-48)">
                  <path id="Trazado_1218995" data-name="Trazado 1218995" d="M489.7,928.376s-3.317,9.14-10.521,9.381c-7.147.24-10.841-8.685-10.9-8.823,2.725,5.483,7.272,8.338,10.437,8.338,3.2,0,8.124-3.229,10.924-8.895Z" transform="translate(-468.28 -928.377)" fill="#272727"/>
                </g>
              </g>
            </g>
            <g id="Grupo_1229332" data-name="Grupo 1229332" transform="translate(89.612 149.716)" opacity="0.15">
              <g id="Grupo_1229331" data-name="Grupo 1229331">
                <g id="Grupo_1229330" data-name="Grupo 1229330" clip-path="url(#clip-path-49)">
                  <path id="Trazado_1218996" data-name="Trazado 1218996" d="M492.567,799.629a8.148,8.148,0,0,0-4.6-2.06c-2.644-.172-12.535-.309-15.625-4.052" transform="translate(-467.388 -784.367)" fill="none" stroke="#fff" stroke-linecap="round" stroke-miterlimit="10" stroke-width="1.5"/>
                  <path id="Trazado_1218997" data-name="Trazado 1218997" d="M459.855,803.626s-6.89,1.348-11.5-6.916" transform="translate(-448.207 -786.922)" fill="none" stroke="#fff" stroke-linecap="round" stroke-miterlimit="10" stroke-width="1.5"/>
                  <path id="Trazado_1218998" data-name="Trazado 1218998" d="M463.46,804.19s-3.818.584-7.737-4.327" transform="translate(-454.098 -789.444)" fill="none" stroke="#fff" stroke-linecap="round" stroke-miterlimit="10" stroke-width="1.5"/>
                  <path id="Trazado_1218999" data-name="Trazado 1218999" d="M492.4,780.42s-.687,1.923-6.456-3.022-15.9-.446-19.481-6.181" transform="translate(-462.686 -766.533)" fill="none" stroke="#fff" stroke-linecap="round" stroke-miterlimit="10" stroke-width="1.5"/>
                  <path id="Trazado_1219000" data-name="Trazado 1219000" d="M555.438,770.259s-3.022,1.545-8.139-3.159" transform="translate(-527.34 -763.24)" fill="none" stroke="#fff" stroke-linecap="round" stroke-miterlimit="10" stroke-width="1.5"/>
                  <path id="Trazado_1219001" data-name="Trazado 1219001" d="M509.195,751.425s-5.872.756-9.753-2.85" transform="translate(-489.064 -748.424)" fill="none" stroke="#fff" stroke-linecap="round" stroke-miterlimit="10" stroke-width="1.5"/>
                  <path id="Trazado_1219002" data-name="Trazado 1219002" d="M494.1,766.04s-9.1.481-13.015-3.743" transform="translate(-474.386 -759.399)" fill="none" stroke="#fff" stroke-linecap="round" stroke-miterlimit="10" stroke-width="1.5"/>
                  <path id="Trazado_1219003" data-name="Trazado 1219003" d="M576.631,836.227s1.391,2.816,2.722,2.438" transform="translate(-550.8 -818.528)" fill="none" stroke="#fff" stroke-linecap="round" stroke-miterlimit="10" stroke-width="1.5"/>
                  <path id="Trazado_1219004" data-name="Trazado 1219004" d="M585.8,830.738a1.586,1.586,0,0,0,1.22,1.271" transform="translate(-558.135 -814.138)" fill="none" stroke="#fff" stroke-linecap="round" stroke-miterlimit="10" stroke-width="1.5"/>
                  <path id="Trazado_1219005" data-name="Trazado 1219005" d="M451.249,821.583a11.406,11.406,0,0,0,0,4.374" transform="translate(-450.34 -806.815)" fill="none" stroke="#fff" stroke-linecap="round" stroke-miterlimit="10" stroke-width="1.5"/>
                  <path id="Trazado_1219006" data-name="Trazado 1219006" d="M455.875,832.507s-.343,2.771-1.717,3.561" transform="translate(-452.846 -815.552)" fill="none" stroke="#fff" stroke-linecap="round" stroke-miterlimit="10" stroke-width="1.5"/>
                </g>
              </g>
            </g>
            <path id="Trazado_1219007" data-name="Trazado 1219007" d="M543.869,862.358c-.026-.028-.053-.053-.08-.078a5.118,5.118,0,0,0-4.974-1.4.678.678,0,0,0-.449.307,2.672,2.672,0,0,0-.3,1.525,6,6,0,0,1,5.992.359.469.469,0,0,0-.015-.42.765.765,0,0,0-.176-.291" transform="translate(-430.345 -688.386)" fill="#191716"/>
            <path id="Trazado_1219008" data-name="Trazado 1219008" d="M473.055,862.592c.027-.027.055-.052.082-.076a5.118,5.118,0,0,1,5.01-1.267.679.679,0,0,1,.44.32,2.671,2.671,0,0,1,.257,1.532,6,6,0,0,0-6,.2.47.47,0,0,1,.026-.419.763.763,0,0,1,.184-.286" transform="translate(-378.15 -688.653)" fill="#191716"/>
            <path id="Trazado_1219009" data-name="Trazado 1219009" d="M546.985,876.239a1.238,1.238,0,1,0-1.216,1.469,1.361,1.361,0,0,0,1.216-1.469" transform="translate(-435.532 -699.638)" fill="#191716"/>
            <path id="Trazado_1219010" data-name="Trazado 1219010" d="M488.3,875.944a1.238,1.238,0,1,0-1.216,1.469,1.361,1.361,0,0,0,1.216-1.469" transform="translate(-388.596 -699.402)" fill="#191716"/>
            <g id="Grupo_1229335" data-name="Grupo 1229335" transform="translate(102.816 176.571)" opacity="0.1">
              <g id="Grupo_1229334" data-name="Grupo 1229334">
                <g id="Grupo_1229333" data-name="Grupo 1229333" clip-path="url(#clip-path-50)">
                  <path id="Trazado_1219011" data-name="Trazado 1219011" d="M514.437,882.642a.728.728,0,0,1,.021-.343c.084-.267.273-.648.543.089a20.291,20.291,0,0,1-.166,6.485.727.727,0,0,0,.408.855l.579.251a.694.694,0,0,1,.393.415c.068.213.009.456-.589.482-1.087.047-2.387-1.02-2-2.033a12.538,12.538,0,0,0,.807-6.2" transform="translate(-513.559 -881.96)" fill="#272727"/>
                </g>
              </g>
            </g>
            <path id="Trazado_1219012" data-name="Trazado 1219012" d="M501.832,932.468a6.086,6.086,0,0,0,3.377,1.337,5.556,5.556,0,0,0,3.53-.988,5.973,5.973,0,0,0,1.52-1.545.361.361,0,0,0-.134-.468.32.32,0,0,0-.442.127,5.133,5.133,0,0,1-2.653,1.972,5.053,5.053,0,0,1-3.178-.06,5.308,5.308,0,0,1-1.575-.862.325.325,0,0,0-.462,0,.358.358,0,0,0,.018.485" transform="translate(-401.281 -744.416)" fill="#191716"/>
            <g id="Grupo_1229338" data-name="Grupo 1229338" transform="translate(75.466 264.35)" opacity="0.4">
              <g id="Grupo_1229337" data-name="Grupo 1229337">
                <g id="Grupo_1229336" data-name="Grupo 1229336" clip-path="url(#clip-path-51)">
                  <path id="Trazado_1219013" data-name="Trazado 1219013" d="M437.747,1321.523s.964,2.9-8.079,2.647c-3.785-.1-13.16-1.084-22.781-1.341-13.363-.358-27.2,0-27.2,0a4.552,4.552,0,0,1-2.738-2.421Z" transform="translate(-376.947 -1320.408)" fill="#020202"/>
                </g>
              </g>
            </g>
            <path id="Trazado_1219014" data-name="Trazado 1219014" d="M439.249,1151.555,437.76,1183.2a2.037,2.037,0,0,1-.1.592,1.757,1.757,0,0,1-.1.245,1.911,1.911,0,0,1-.839.867,1.769,1.769,0,0,1-.846.193l-41.367-.87-.285-.007-1.291-.029-14.213-.234a1.9,1.9,0,0,1-1.8-1.983l-.083-31.875a1.888,1.888,0,0,1,1.884-1.9l58.726,1.367a1.9,1.9,0,0,1,1.8,1.983" transform="translate(-301.392 -918.33)" fill="#d8d7d6"/>
            <path id="Trazado_1219015" data-name="Trazado 1219015" d="M511.94,1224.493l-2.916-.068a3.738,3.738,0,0,1-3.547-3.9l.064-3.07a3.718,3.718,0,0,1,3.708-3.735l2.916.068a3.738,3.738,0,0,1,3.547,3.9l-.064,3.07a3.717,3.717,0,0,1-3.708,3.734" transform="translate(-404.279 -970.727)" fill="#fff"/>
            <g id="Grupo_1229341" data-name="Grupo 1229341" transform="translate(87.673 242.365)" opacity="0.05">
              <g id="Grupo_1229340" data-name="Grupo 1229340">
                <g id="Grupo_1229339" data-name="Grupo 1229339" clip-path="url(#clip-path-52)">
                  <path id="Trazado_1219016" data-name="Trazado 1219016" d="M437.92,1233.452s45.092-1.132,49.179-22.857l-1.218,20.7a2.833,2.833,0,0,1-2.8,2.735Z" transform="translate(-437.92 -1210.595)"/>
                </g>
              </g>
            </g>
            <path id="Trazado_1219017" data-name="Trazado 1219017" d="M186.545,260.443v74.9c0,3.551,3.337,6.43,7.453,6.43h120.62c4.117,0,7.453-2.879,7.453-6.43v-74.9c0-3.55-3.337-6.429-7.453-6.429H194c-3.717,0-6.8,2.346-7.361,5.417a5.645,5.645,0,0,0-.092,1.012" transform="translate(-149.198 -203.16)" fill="#fff"/>
            <path id="Trazado_1219018" data-name="Trazado 1219018" d="M184.961,258.18c.6-3.285,3.839-5.669,7.693-5.669h120.62c4.3,0,7.79,3.019,7.79,6.73v74.9c0,3.712-3.494,6.73-7.79,6.73H192.654c-4.295,0-7.789-3.019-7.789-6.73v-74.9a6,6,0,0,1,.1-1.061m.578,75.966c0,3.38,3.192,6.129,7.116,6.129h120.62c3.925,0,7.117-2.749,7.117-6.129v-74.9c0-3.38-3.192-6.129-7.117-6.129H192.654c-3.524,0-6.48,2.172-7.028,5.164a5.436,5.436,0,0,0-.087.965Z" transform="translate(-147.854 -201.958)" fill="#cecece"/>
            <path id="Trazado_1219019" data-name="Trazado 1219019" d="M184.866,260.36v2.178h136.2V260.36a7.828,7.828,0,0,0-7.79-7.849H192.655a7.769,7.769,0,0,0-7.693,6.612,8.141,8.141,0,0,0-.1,1.238" transform="translate(-147.855 -201.958)" fill="#cecece"/>
            <path id="Trazado_1219020" data-name="Trazado 1219020" d="M324.758,270.109a2.37,2.37,0,1,0,2.37-2.385,2.378,2.378,0,0,0-2.37,2.385" transform="translate(-259.74 -214.125)" fill="#aa52f9"/>
            <path id="Trazado_1219021" data-name="Trazado 1219021" d="M268.129,270.109a2.37,2.37,0,1,0,2.37-2.385,2.378,2.378,0,0,0-2.37,2.385" transform="translate(-214.449 -214.125)" fill="#fff"/>
            <path id="Trazado_1219022" data-name="Trazado 1219022" d="M212.681,270.109a2.37,2.37,0,1,0,2.37-2.385,2.378,2.378,0,0,0-2.37,2.385" transform="translate(-170.102 -214.125)" fill="#eaeaea"/>
            <rect id="Rectángulo_422782" data-name="Rectángulo 422782" width="60.472" height="6.313" transform="translate(64.335 68.437)" fill="#262423"/>
            <path id="Trazado_1219039" data-name="Trazado 1219039" d="M0,0H39.453V6.313H0Z" transform="translate(127.411 68.437)" fill="#aa52f9"/>
            <rect id="Rectángulo_422784" data-name="Rectángulo 422784" width="44.096" height="6.313" transform="translate(72.031 79.652)" fill="#aa52f9"/>
            <rect id="Rectángulo_422785" data-name="Rectángulo 422785" width="48.307" height="6.313" transform="translate(118.557 79.652)" fill="#262423"/>
            <rect id="Rectángulo_422786" data-name="Rectángulo 422786" width="34.019" height="6.313" transform="translate(44.088 90.867)" fill="#262423"/>
            <rect id="Rectángulo_422787" data-name="Rectángulo 422787" width="58.723" height="6.313" transform="translate(108.141 90.867)" fill="#aa52f9"/>
            <rect id="Rectángulo_422788" data-name="Rectángulo 422788" width="25.391" height="6.313" transform="translate(80.319 90.867)" fill="#ededed"/>
            <rect id="Rectángulo_422789" data-name="Rectángulo 422789" width="24.546" height="6.313" transform="translate(62.242 102.082)" fill="#262423"/>
            <rect id="Rectángulo_422790" data-name="Rectángulo 422790" width="67.06" height="6.313" transform="translate(88.871 102.082)" fill="#aa52f9"/>
            <rect id="Rectángulo_422791" data-name="Rectángulo 422791" width="49.821" height="6.313" transform="translate(44.258 113.525)" fill="#ededed"/>
            <rect id="Rectángulo_422792" data-name="Rectángulo 422792" width="56.066" height="6.313" transform="translate(96.336 113.525)" fill="#aa52f9"/>
            <rect id="Rectángulo_422793" data-name="Rectángulo 422793" width="57.282" height="6.313" transform="translate(44.088 124.968)" fill="#aa52f9"/>
            <rect id="Rectángulo_422794" data-name="Rectángulo 422794" width="36.328" height="6.313" transform="translate(130.536 124.968)" fill="#262423"/>
            <rect id="Rectángulo_422795" data-name="Rectángulo 422795" width="25.391" height="6.313" transform="translate(103.431 124.968)" fill="#ededed"/>
            <rect id="Rectángulo_422796" data-name="Rectángulo 422796" width="11.73" height="6.313" transform="translate(154.4 113.525)" fill="#262423"/>
          </g>
        </g>
        <text id="_" data-name="&lt;/&gt;" transform="translate(44.258 72.656)" fill="#e6af2e" font-size="8" font-family="Helvetica"><tspan x="0" y="0">&lt;/&gt;</tspan></text>
        <g id="Grupo_1229354" data-name="Grupo 1229354">
          <g id="Grupo_1229353" data-name="Grupo 1229353" clip-path="url(#clip-path-2)">
            <path id="Trazado_1219023" data-name="Trazado 1219023" d="M1640.993,916.306h-16.379a6.524,6.524,0,0,1-6.524-6.524V893.4a6.524,6.524,0,0,1,6.524-6.524h16.379a6.524,6.524,0,0,1,6.524,6.524v16.379a6.524,6.524,0,0,1-6.524,6.524" transform="translate(-1294.143 -709.322)" fill="#a4a0a1"/>
            <g id="Grupo_1229346" data-name="Grupo 1229346" transform="translate(326.247 185.458)" opacity="0.8">
              <g id="Grupo_1229345" data-name="Grupo 1229345">
                <g id="Grupo_1229344" data-name="Grupo 1229344" clip-path="url(#clip-path-54)">
                  <text id="CSS" transform="translate(0.001 9.545)" font-size="11" font-family="Montserrat-ExtraBold, Montserrat" font-weight="800"><tspan x="0" y="0" letter-spacing="-0.007em">C</tspan><tspan y="0">SS</tspan></text>
                </g>
              </g>
            </g>
            <path id="Trazado_1219024" data-name="Trazado 1219024" d="M1135.076,1312.687v92.078a7.688,7.688,0,0,0,7.453,7.9h120.621a7.689,7.689,0,0,0,7.453-7.9v-92.078a7.688,7.688,0,0,0-7.453-7.9H1142.529a7.6,7.6,0,0,0-7.361,6.658,8.485,8.485,0,0,0-.092,1.245" transform="translate(-907.83 -1043.562)" fill="#fff"/>
            <path id="Trazado_1219025" data-name="Trazado 1219025" d="M1133.491,1309.905a7.908,7.908,0,0,1,7.693-6.969h120.621a8.051,8.051,0,0,1,7.79,8.273v92.077a8.051,8.051,0,0,1-7.79,8.273H1141.184a8.051,8.051,0,0,1-7.789-8.273v-92.077a9.018,9.018,0,0,1,.1-1.3m.578,93.382a7.342,7.342,0,0,0,7.116,7.534h120.621a7.342,7.342,0,0,0,7.117-7.534v-92.077a7.342,7.342,0,0,0-7.117-7.534H1141.184a7.212,7.212,0,0,0-7.028,6.348,8.148,8.148,0,0,0-.088,1.186Z" transform="translate(-906.486 -1042.084)" fill="#cecece"/>
            <path id="Trazado_1219026" data-name="Trazado 1219026" d="M1133.4,1310.786v2.178h136.2v-2.178a7.828,7.828,0,0,0-7.79-7.849H1141.185a7.769,7.769,0,0,0-7.693,6.612,8.144,8.144,0,0,0-.1,1.238" transform="translate(-906.487 -1042.084)" fill="#cecece"/>
            <path id="Trazado_1219027" data-name="Trazado 1219027" d="M1273.29,1320.535a2.37,2.37,0,1,0,2.37-2.385,2.378,2.378,0,0,0-2.37,2.385" transform="translate(-1018.374 -1054.252)" fill="#aa52f9"/>
            <path id="Trazado_1219028" data-name="Trazado 1219028" d="M1216.66,1320.535a2.37,2.37,0,1,0,2.37-2.385,2.378,2.378,0,0,0-2.37,2.385" transform="translate(-973.081 -1054.252)" fill="#fff"/>
            <path id="Trazado_1219029" data-name="Trazado 1219029" d="M1161.211,1320.535a2.37,2.37,0,1,0,2.37-2.385,2.378,2.378,0,0,0-2.37,2.385" transform="translate(-928.733 -1054.252)" fill="#eaeaea"/>
            <rect id="Rectángulo_422799" data-name="Rectángulo 422799" width="47.764" height="6.242" transform="translate(248.953 329.671)" fill="#262423"/>
            <rect id="Rectángulo_422800" data-name="Rectángulo 422800" width="58.064" height="6.242" transform="translate(248.953 277.862)" fill="#aa52f9"/>
            <path id="Trazado_1219030" data-name="Trazado 1219030" d="M1186.1,1391.335a2.986,2.986,0,1,1-2.986-2.986,2.986,2.986,0,0,1,2.986,2.986" transform="translate(-943.865 -1110.397)" fill="#2d2a29"/>
            <path id="Trazado_1219031" data-name="Trazado 1219031" d="M1186.1,1456.088a2.986,2.986,0,1,1-2.986-2.986,2.986,2.986,0,0,1,2.986,2.986" transform="translate(-943.865 -1162.187)" fill="#2d2a29"/>
            <path id="Trazado_1219032" data-name="Trazado 1219032" d="M1186.1,1650.346a2.986,2.986,0,1,1-2.986-2.986,2.986,2.986,0,0,1,2.986,2.986" transform="translate(-943.865 -1317.554)" fill="#2d2a29"/>
            <path id="Trazado_1219033" data-name="Trazado 1219033" d="M1186.1,1716.057a2.986,2.986,0,1,1-2.986-2.986,2.986,2.986,0,0,1,2.986,2.986" transform="translate(-943.865 -1370.109)" fill="#2d2a29"/>
            <path id="Trazado_1219034" data-name="Trazado 1219034" d="M1186.1,1779.646a2.986,2.986,0,1,1-2.986-2.986,2.986,2.986,0,0,1,2.986,2.986" transform="translate(-943.865 -1420.967)" fill="#2d2a29"/>
            <rect id="Rectángulo_422801" data-name="Rectángulo 422801" width="33.637" height="6.242" transform="translate(316.362 290.877)" fill="#262423"/>
            <rect id="Rectángulo_422802" data-name="Rectángulo 422802" width="34.109" height="6.242" transform="translate(249.071 290.877)" fill="#aa52f9"/>
            <rect id="Rectángulo_422803" data-name="Rectángulo 422803" width="25.106" height="6.242" transform="translate(289.069 290.877)" fill="#ededed"/>
            <rect id="Rectángulo_422804" data-name="Rectángulo 422804" width="14.666" height="6.242" transform="translate(330.382 303.886)" fill="#262423"/>
            <rect id="Rectángulo_422805" data-name="Rectángulo 422805" width="40.068" height="6.242" transform="translate(289.069 303.886)" fill="#aa52f9"/>
            <rect id="Rectángulo_422806" data-name="Rectángulo 422806" width="11.598" height="6.242" transform="translate(289.21 317.12)" fill="#aa52f9"/>
            <rect id="Rectángulo_422807" data-name="Rectángulo 422807" width="49.8" height="6.242" transform="translate(248.953 342.827)" fill="#aa52f9"/>
            <rect id="Rectángulo_422808" data-name="Rectángulo 422808" width="31.583" height="6.242" transform="translate(324.109 342.827)" fill="#262423"/>
            <rect id="Rectángulo_422809" data-name="Rectángulo 422809" width="22.075" height="6.242" transform="translate(300.544 342.827)" fill="#ededed"/>
            <rect id="Rectángulo_422810" data-name="Rectángulo 422810" width="33.637" height="6.242" transform="translate(295.581 355.557)" fill="#262423"/>
            <rect id="Rectángulo_422811" data-name="Rectángulo 422811" width="25.106" height="6.242" transform="translate(268.288 355.557)" fill="#ededed"/>
            <path id="Trazado_1219035" data-name="Trazado 1219035" d="M1504.527,1103.449h-42.692a4.679,4.679,0,0,1-4.679-4.679v-34.016a4.679,4.679,0,0,1,4.679-4.679h42.692a4.679,4.679,0,0,1,4.679,4.679v34.016a4.679,4.679,0,0,1-4.679,4.679" transform="translate(-1165.428 -847.844)" fill="#aa52f9"/>
            <g id="Grupo_1229349" data-name="Grupo 1229349" transform="translate(296.208 220.637)" opacity="0.8">
              <g id="Grupo_1229348" data-name="Grupo 1229348">
                <g id="Grupo_1229347" data-name="Grupo 1229347" clip-path="url(#clip-path-55)">
                  <text id="_2" data-name="&lt;/&gt;" transform="translate(0.001 20.802)" fill="#fff" font-size="25" font-family="Montserrat-ExtraBold, Montserrat" font-weight="800"><tspan x="0" y="0">&lt;/&gt;</tspan></text>
                </g>
              </g>
            </g>
            <path id="Trazado_1219036" data-name="Trazado 1219036" d="M1606.5,261.481h-20.277a5.646,5.646,0,0,1-5.647-5.646V235.557a5.646,5.646,0,0,1,5.647-5.646H1606.5a5.646,5.646,0,0,1,5.647,5.646v20.277a5.646,5.646,0,0,1-5.647,5.646" transform="translate(-1264.14 -183.882)" fill="#aa52f9"/>
            <g id="Grupo_1229352" data-name="Grupo 1229352" transform="translate(322.797 52.337)" opacity="0.8">
              <g id="Grupo_1229351" data-name="Grupo 1229351">
                <g id="Grupo_1229350" data-name="Grupo 1229350" clip-path="url(#clip-path-56)">
                  <path id="Trazado_1219037" data-name="Trazado 1219037" d="M1627.355,268.945l-.46,3.9h3.385v3.493h-3.818l-.515,4.035h-3.682l.514-4.035h-3.33l-.515,4.035h-3.682l.514-4.035h-3.412v-3.493h3.845l.46-3.9h-3.412v-3.493h3.845l.515-4.034h3.682l-.514,4.034h3.33l.515-4.034h3.682l-.515,4.034h3.412v3.493Zm-3.682,0h-3.33l-.46,3.9h3.331Z" transform="translate(-1612.353 -261.418)" fill="#fff"/>
                </g>
              </g>
            </g>
            <path id="Trazado_1219038" data-name="Trazado 1219038" d="M115.545,1917.519H469.686l-.006,1.545H115.545Z" transform="translate(-92.413 -1533.626)" fill="#303030"/>
          </g>
        </g>
      </g>
    </g>
  </g>
</svg>
