<svg xmlns="http://www.w3.org/2000/svg" xmlns:xlink="http://www.w3.org/1999/xlink" width="103" height="103" viewBox="0 0 103 103">
  <defs>
    <filter id="Trazado_978624" x="0" y="0" width="103" height="103" filterUnits="userSpaceOnUse">
      <feOffset dy="3" input="SourceAlpha"/>
      <feGaussianBlur stdDeviation="3" result="blur"/>
      <feFlood flood-opacity="0.161"/>
      <feComposite operator="in" in2="blur"/>
      <feComposite in="SourceGraphic"/>
    </filter>
  </defs>
  <g id="Grupo_1228772" data-name="Grupo 1228772" transform="translate(-199 -1819)">
    <g id="Grupo_1228129" data-name="Grupo 1228129" transform="translate(27.131 36.672)">
      <g id="Grupo_1227500" data-name="Grupo 1227500" transform="translate(0.869 640.328)">
        <g id="Grupo_1225355" data-name="Grupo 1225355" transform="translate(180 1148)">
          <g id="Grupo_1176881" data-name="Grupo 1176881">
            <g id="Grupo_1175148" data-name="Grupo 1175148">
              <g id="Grupo_1173798" data-name="Grupo 1173798">
                <g id="Grupo_1171925" data-name="Grupo 1171925">
                  <g id="Grupo_1164524" data-name="Grupo 1164524">
                    <g id="Grupo_1144123" data-name="Grupo 1144123">
                      <g transform="matrix(1, 0, 0, 1, -9, -6)" filter="url(#Trazado_978624)">
                        <g id="Trazado_978624-2" data-name="Trazado 978624" transform="translate(9 6)" fill="#fef9e5">
                          <path d="M 42.5 83.5 C 36.96437835693359 83.5 31.59512901306152 82.41617584228516 26.54141235351562 80.27863311767578 C 21.65934181213379 78.21369171142578 17.27447128295898 75.25723266601562 13.50862312316895 71.49137878417969 C 9.742764472961426 67.72553253173828 6.786305904388428 63.34066009521484 4.721364498138428 58.45858764648438 C 2.583823442459106 53.40486907958984 1.5 48.03562164306641 1.5 42.5 C 1.5 36.96437835693359 2.583823442459106 31.59512901306152 4.721364498138428 26.54141235351562 C 6.786305904388428 21.65934181213379 9.742764472961426 17.27447128295898 13.50862312316895 13.50862312316895 C 17.27447128295898 9.742764472961426 21.65934181213379 6.786305904388428 26.54141235351562 4.721364498138428 C 31.59512901306152 2.583823442459106 36.96437835693359 1.5 42.5 1.5 C 48.03562164306641 1.5 53.40486907958984 2.583823442459106 58.45858764648438 4.721364498138428 C 63.34066009521484 6.786305904388428 67.72553253173828 9.742764472961426 71.49137878417969 13.50862312316895 C 75.25723266601562 17.27447128295898 78.21369171142578 21.65934181213379 80.27863311767578 26.54141235351562 C 82.41617584228516 31.59512901306152 83.5 36.96437835693359 83.5 42.5 C 83.5 48.03562164306641 82.41617584228516 53.40486907958984 80.27863311767578 58.45858764648438 C 78.21369171142578 63.34066009521484 75.25723266601562 67.72553253173828 71.49137878417969 71.49137878417969 C 67.72553253173828 75.25723266601562 63.34066009521484 78.21369171142578 58.45858764648438 80.27863311767578 C 53.40486907958984 82.41617584228516 48.03562164306641 83.5 42.5 83.5 Z" stroke="none"/>
                          <path d="M 42.5 3 C 37.16621398925781 3 31.99356079101562 4.043960571289062 27.125732421875 6.102882385253906 C 22.42246627807617 8.092185974121094 18.19785308837891 10.94070434570312 14.56928253173828 14.56928253173828 C 10.94070434570312 18.19785308837891 8.092185974121094 22.42246627807617 6.102882385253906 27.125732421875 C 4.043960571289062 31.99356079101562 3 37.16621398925781 3 42.5 C 3 47.83378601074219 4.043960571289062 53.00643920898438 6.102882385253906 57.87425231933594 C 8.092185974121094 62.57753372192383 10.94070434570312 66.80213165283203 14.56928253173828 70.43071746826172 C 18.19786834716797 74.05929565429688 22.42246627807617 76.90781402587891 27.125732421875 78.89711761474609 C 31.99356079101562 80.95603942871094 37.16621398925781 82 42.5 82 C 47.83378601074219 82 53.00642395019531 80.95603942871094 57.87425231933594 78.89711761474609 C 62.57753372192383 76.90781402587891 66.80213165283203 74.05929565429688 70.43071746826172 70.43071746826172 C 74.05929565429688 66.80213165283203 76.90781402587891 62.57753372192383 78.89711761474609 57.87425231933594 C 80.95603942871094 53.00642395019531 82 47.83378601074219 82 42.5 C 82 37.16621398925781 80.95603942871094 31.99356079101562 78.89711761474609 27.125732421875 C 76.90781402587891 22.42246627807617 74.05929565429688 18.19786834716797 70.43071746826172 14.56928253173828 C 66.80213165283203 10.94070434570312 62.57753372192383 8.092185974121094 57.87425231933594 6.102882385253906 C 53.00643920898438 4.043960571289062 47.83378601074219 3 42.5 3 M 42.5 0 C 65.97209167480469 0 85 19.02789306640625 85 42.5 C 85 65.97209167480469 65.97209167480469 85 42.5 85 C 19.02789306640625 85 0 65.97209167480469 0 42.5 C 0 19.02789306640625 19.02789306640625 0 42.5 0 Z" stroke="none" fill="#866d08"/>
                        </g>
                      </g>
                    </g>
                  </g>
                </g>
              </g>
            </g>
          </g>
        </g>
      </g>
    </g>
    <g id="sistema-operacional_1_" data-name="sistema-operacional (1)" transform="translate(220.817 1837.713)">
      <g id="Grupo_1228761" data-name="Grupo 1228761" transform="translate(2.817 2.922)">
        <g id="Grupo_1228757" data-name="Grupo 1228757">
          <path id="Trazado_1218373" data-name="Trazado 1218373" d="M24.85,15.537a9.777,9.777,0,0,0-.43-2.866l2.57-1.657-2.9-4.522L21.51,8.149a9.946,9.946,0,0,0-3.824-2.078V3H12.313V6.063A9.847,9.847,0,0,0,8.489,8.149L5.91,6.492,3,11.015l2.57,1.657a10.08,10.08,0,0,0-.421,2.866,9.777,9.777,0,0,0,.43,2.866L3,20.06l2.91,4.522,2.579-1.657a9.847,9.847,0,0,0,3.824,2.087v3.063h5.373V25.012a9.847,9.847,0,0,0,3.824-2.087l2.579,1.657L27,20.06,24.43,18.4a10.08,10.08,0,0,0,.421-2.866ZM15,20.91a5.373,5.373,0,1,1,5.373-5.373A5.377,5.377,0,0,1,15,20.91Z" transform="translate(-3 -3)" fill="#8aba55"/>
        </g>
        <g id="Grupo_1228758" data-name="Grupo 1228758" transform="translate(29.731 28.656)">
          <path id="Trazado_1218374" data-name="Trazado 1218374" d="M58.05,47.537a9.777,9.777,0,0,0-.43-2.866L60.2,43.015l-2.91-4.522L54.71,40.149a9.847,9.847,0,0,0-3.824-2.087V35H45.513v3.063a9.847,9.847,0,0,0-3.824,2.087L39.11,38.492,36.2,43.015l2.57,1.657a9.767,9.767,0,0,0,0,5.731L36.2,52.06l2.91,4.522,2.579-1.657a9.847,9.847,0,0,0,3.824,2.087v3.063h5.373V57.012a9.847,9.847,0,0,0,3.824-2.087l2.579,1.657L60.2,52.06,57.63,50.4a10.08,10.08,0,0,0,.421-2.866ZM48.2,52.91a5.373,5.373,0,1,1,5.373-5.373A5.377,5.377,0,0,1,48.2,52.91Z" transform="translate(-36.2 -35)" fill="#7cb5e8"/>
        </g>
        <g id="Grupo_1228759" data-name="Grupo 1228759" transform="translate(9.851 9.851)">
          <path id="Trazado_1218375" data-name="Trazado 1218375" d="M17.6,33.961a13.624,13.624,0,0,0,1.845,4.46l-2.167,2.928,3.4,3.4,2.928-2.167a13.624,13.624,0,0,0,4.46,1.845l.537,3.6h4.809l.537-3.6a13.624,13.624,0,0,0,4.46-1.845l2.928,2.167,3.4-3.4-2.167-2.928a13.624,13.624,0,0,0,1.845-4.46l3.6-.537V28.615l-3.6-.537a13.624,13.624,0,0,0-1.845-4.46l2.167-2.928-3.4-3.4-2.928,2.167a13.624,13.624,0,0,0-4.46-1.845L33.424,14H28.615l-.537,3.6a13.624,13.624,0,0,0-4.46,1.845l-2.928-2.167-3.4,3.4,2.167,2.928a13.624,13.624,0,0,0-1.845,4.46L14,28.606v4.809Zm6.922-2.946a6.492,6.492,0,1,1,6.492,6.492A6.491,6.491,0,0,1,24.522,31.015Z" transform="translate(-14 -14)" fill="#ffab03"/>
        </g>
        <g id="Grupo_1228760" data-name="Grupo 1228760" transform="translate(18.645 9.851)" opacity="0.3">
          <path id="Trazado_1218376" data-name="Trazado 1218376" d="M43.611,23.609l2.167-2.928-3.4-3.4-2.928,2.167a13.624,13.624,0,0,0-4.46-1.845L34.45,14H29.641L29.1,17.6a13.624,13.624,0,0,0-4.46,1.845l-.528-.385a15.777,15.777,0,0,0-.3,3,15.514,15.514,0,0,0,1.907,7.478,6.492,6.492,0,1,1,8.982,7.4,15.486,15.486,0,0,0,4.719.725,15.742,15.742,0,0,0,5.06-.851,13.439,13.439,0,0,0,.976-2.857l3.6-.537V28.606l-3.6-.537a13.921,13.921,0,0,0-1.854-4.46Z" transform="translate(-23.82 -14)" fill="#fff"/>
        </g>
      </g>
      <g id="Grupo_1228771" data-name="Grupo 1228771" transform="translate(1.253 2.25)">
        <g id="Grupo_1228762" data-name="Grupo 1228762" transform="translate(10.735 9.842)">
          <path id="Trazado_1218377" data-name="Trazado 1218377" d="M33.344,48.622H28.535a.666.666,0,0,1-.663-.573L27.4,44.9a14.328,14.328,0,0,1-3.833-1.585L21,45.2a.68.68,0,0,1-.878-.063l-3.4-3.4a.679.679,0,0,1-.063-.878L18.55,38.3a14.209,14.209,0,0,1-1.585-3.833L13.813,34a.666.666,0,0,1-.573-.663V28.526a.666.666,0,0,1,.573-.663l3.152-.466a14.5,14.5,0,0,1,1.585-3.833L16.661,21a.68.68,0,0,1,.063-.878l3.4-3.4A.679.679,0,0,1,21,16.661l2.561,1.89A14.209,14.209,0,0,1,27.4,16.965l.475-3.152a.673.673,0,0,1,.663-.573h4.809a.666.666,0,0,1,.663.573l.475,3.152a14.328,14.328,0,0,1,3.833,1.585l2.561-1.89a.68.68,0,0,1,.878.063l3.4,3.4a.679.679,0,0,1,.063.878l-1.89,2.561A14.209,14.209,0,0,1,44.914,27.4l3.152.466a.666.666,0,0,1,.573.663v4.809a.666.666,0,0,1-.573.663l-3.152.466A14.328,14.328,0,0,1,43.329,38.3l1.89,2.561a.68.68,0,0,1-.063.878l-3.4,3.4a.679.679,0,0,1-.878.063l-2.561-1.89A14.209,14.209,0,0,1,34.482,44.9l-.475,3.152A.673.673,0,0,1,33.344,48.622Zm-4.236-1.343h3.654l.448-3.027a.668.668,0,0,1,.519-.555,13.156,13.156,0,0,0,4.245-1.755.66.66,0,0,1,.761.027L41.2,43.786,43.777,41.2l-1.818-2.463a.66.66,0,0,1-.027-.761,12.77,12.77,0,0,0,1.755-4.245.668.668,0,0,1,.555-.519l3.027-.448V29.108l-3.027-.448a.668.668,0,0,1-.555-.519A13.074,13.074,0,0,0,41.932,23.9a.66.66,0,0,1,.027-.761l1.818-2.463L41.2,18.094l-2.463,1.818a.676.676,0,0,1-.761.027,13.074,13.074,0,0,0-4.245-1.755.668.668,0,0,1-.519-.555L32.762,14.6H29.108l-.448,3.027a.668.668,0,0,1-.519.555A13.156,13.156,0,0,0,23.9,19.938a.66.66,0,0,1-.761-.027l-2.463-1.818-2.588,2.579L19.9,23.135a.66.66,0,0,1,.027.761,13.074,13.074,0,0,0-1.755,4.245.668.668,0,0,1-.555.519l-3.027.448v3.654l3.027.448a.668.668,0,0,1,.555.519,13.156,13.156,0,0,0,1.755,4.245.66.66,0,0,1-.027.761L18.085,41.2l2.588,2.588,2.463-1.818a.66.66,0,0,1,.761-.027A13.074,13.074,0,0,0,28.141,43.7a.668.668,0,0,1,.519.555ZM30.935,38.1A7.164,7.164,0,1,1,38.1,30.935,7.174,7.174,0,0,1,30.935,38.1Zm0-12.985a5.821,5.821,0,1,0,5.821,5.821A5.826,5.826,0,0,0,30.935,25.114Z" transform="translate(-13.24 -13.24)"/>
        </g>
        <g id="Grupo_1228763" data-name="Grupo 1228763" transform="translate(2.684 26.865)">
          <path id="Trazado_1218378" data-name="Trazado 1218378" d="M30,58.668A25.778,25.778,0,0,1,4.25,32.922a.672.672,0,1,1,1.343,0A24.425,24.425,0,0,0,30,57.324a.672.672,0,1,1,0,1.343Z" transform="translate(-4.25 -32.25)"/>
        </g>
        <g id="Grupo_1228764" data-name="Grupo 1228764" transform="translate(27.759 1.791)">
          <path id="Trazado_1218379" data-name="Trazado 1218379" d="M58,30.668A.677.677,0,0,1,57.324,30a24.425,24.425,0,0,0-24.4-24.4.672.672,0,1,1,0-1.343A25.778,25.778,0,0,1,58.668,30,.677.677,0,0,1,58,30.668Z" transform="translate(-32.25 -4.25)"/>
        </g>
        <g id="Grupo_1228765" data-name="Grupo 1228765" transform="translate(50.149 25.077)">
          <path id="Trazado_1218380" data-name="Trazado 1218380" d="M60.608,34.28a.664.664,0,0,1-.475-.2L57.447,31.4a.671.671,0,0,1,.949-.949l2.212,2.212,2.212-2.212a.671.671,0,0,1,.949.949l-2.687,2.687a.664.664,0,0,1-.475.2Z" transform="translate(-57.253 -30.252)"/>
        </g>
        <g id="Grupo_1228766" data-name="Grupo 1228766" transform="translate(0 25.972)">
          <path id="Trazado_1218381" data-name="Trazado 1218381" d="M7.295,35.28a.664.664,0,0,1-.475-.2L4.608,32.871,2.4,35.083a.671.671,0,0,1-.949-.949l2.687-2.687a.676.676,0,0,1,.949,0L7.77,34.134a.676.676,0,0,1,0,.949.664.664,0,0,1-.475.2Z" transform="translate(-1.253 -31.252)"/>
        </g>
        <g id="Grupo_1228767" data-name="Grupo 1228767" transform="translate(0.887)">
          <path id="Trazado_1218382" data-name="Trazado 1218382" d="M11.858,25.471a.525.525,0,0,1-.206-.036,10.533,10.533,0,0,1-3.3-1.764l-2.167,1.4a.679.679,0,0,1-.931-.206l-2.91-4.522a.664.664,0,0,1-.09-.5.672.672,0,0,1,.3-.421l2.158-1.388a10.366,10.366,0,0,1-.322-2.57,10.806,10.806,0,0,1,.322-2.57L2.554,11.5a.672.672,0,0,1-.3-.421.7.7,0,0,1,.09-.5L5.267,6.056A.667.667,0,0,1,6.19,5.85l2.167,1.4a10.765,10.765,0,0,1,3.206-1.755V2.922a.677.677,0,0,1,.672-.672h5.373a.677.677,0,0,1,.672.672v2.57a10.569,10.569,0,0,1,3.206,1.755l2.167-1.4a.679.679,0,0,1,.931.206l2.364,3.672a.671.671,0,1,1-1.128.725l-2-3.107-2.015,1.3A.674.674,0,0,1,21,8.581a9.135,9.135,0,0,0-3.564-1.943.68.68,0,0,1-.493-.645v-2.4h-4.03V5.984a.661.661,0,0,1-.493.645A9.135,9.135,0,0,0,8.858,8.572a.674.674,0,0,1-.806.063L6.028,7.345,3.852,10.731l2.006,1.29a.671.671,0,0,1,.278.761,9.409,9.409,0,0,0-.394,2.678,9.01,9.01,0,0,0,.4,2.669.671.671,0,0,1-.278.761l-2.006,1.29,2.176,3.385,2.015-1.3a.674.674,0,0,1,.806.063,9.075,9.075,0,0,0,3.215,1.827.675.675,0,0,1-.215,1.316Z" transform="translate(-2.243 -2.25)"/>
        </g>
        <g id="Grupo_1228768" data-name="Grupo 1228768" transform="translate(7.52 7.164)">
          <path id="Trazado_1218383" data-name="Trazado 1218383" d="M14.378,22.169a.987.987,0,0,1-.161-.018,6.042,6.042,0,1,1,6.734-8.839.67.67,0,0,1-1.164.663,4.7,4.7,0,1,0-5.23,6.869.664.664,0,0,1,.484.815A.686.686,0,0,1,14.378,22.169Z" transform="translate(-9.65 -10.25)"/>
        </g>
        <g id="Grupo_1228769" data-name="Grupo 1228769" transform="translate(31.164 31.865)">
          <path id="Trazado_1218384" data-name="Trazado 1218384" d="M50.871,61.042H45.5a.677.677,0,0,1-.672-.672V57.8a10.38,10.38,0,0,1-3.206-1.755l-2.167,1.4a.641.641,0,0,1-.51.09.672.672,0,0,1-.421-.3l-2.364-3.672a.671.671,0,1,1,1.128-.725l2,3.107,2.015-1.3a.674.674,0,0,1,.806.063,9.022,9.022,0,0,0,3.564,1.943.68.68,0,0,1,.493.645V59.69h4.03V57.3a.661.661,0,0,1,.493-.645,9.2,9.2,0,0,0,3.564-1.943.674.674,0,0,1,.806-.063l2.015,1.3,2.176-3.385-2.006-1.29a.671.671,0,0,1-.278-.761,9.038,9.038,0,0,0,0-5.337.671.671,0,0,1,.278-.761l2.006-1.29-2.176-3.385-2.015,1.3a.674.674,0,0,1-.806-.063,9.075,9.075,0,0,0-3.215-1.827.674.674,0,1,1,.421-1.281,10.533,10.533,0,0,1,3.3,1.764l2.167-1.4a.664.664,0,0,1,.5-.09.672.672,0,0,1,.421.3l2.91,4.522a.679.679,0,0,1-.206.931l-2.149,1.37a10.406,10.406,0,0,1,0,5.14l2.158,1.388a.667.667,0,0,1,.2.931l-2.91,4.522a.672.672,0,0,1-.421.3.7.7,0,0,1-.5-.09l-2.167-1.4a10.569,10.569,0,0,1-3.206,1.755V60.37a.671.671,0,0,1-.672.672Z" transform="translate(-36.053 -37.833)"/>
        </g>
        <g id="Grupo_1228770" data-name="Grupo 1228770" transform="translate(37.953 35.997)">
          <path id="Trazado_1218385" data-name="Trazado 1218385" d="M48.977,54.36A6.062,6.062,0,0,1,43.72,51.3a.671.671,0,0,1,.251-.913.664.664,0,0,1,.913.251,4.7,4.7,0,1,0,5.23-6.869.664.664,0,0,1-.484-.815.671.671,0,0,1,.815-.484A6.037,6.037,0,0,1,48.977,54.36Z" transform="translate(-43.634 -42.447)"/>
        </g>
      </g>
    </g>
  </g>
</svg>
