<svg xmlns="http://www.w3.org/2000/svg" xmlns:xlink="http://www.w3.org/1999/xlink" width="113" height="113" viewBox="0 0 113 113">
  <defs>
    <filter id="Trazado_982547" x="0" y="0" width="113" height="113" filterUnits="userSpaceOnUse">
      <feOffset dy="3" input="SourceAlpha"/>
      <feGaussianBlur stdDeviation="3" result="blur"/>
      <feFlood flood-opacity="0.161"/>
      <feComposite operator="in" in2="blur"/>
      <feComposite in="SourceGraphic"/>
    </filter>
  </defs>
  <g id="Grupo_1228506" data-name="Grupo 1228506" transform="translate(-900.425 -1381.278)">
    <g id="Grupo_1228120" data-name="Grupo 1228120" transform="translate(0 -4252.189)">
      <g id="Grupo_1227504" data-name="Grupo 1227504" transform="translate(0 2048.198)">
        <g id="Grupo_1225352" data-name="Grupo 1225352" transform="translate(-0.575 -393.641)">
          <g id="Grupo_1208123" data-name="Grupo 1208123" transform="translate(0 -1922.377)">
            <g id="Grupo_1202434" data-name="Grupo 1202434" transform="translate(-0.56 1255.773)">
              <g id="Grupo_1202053" data-name="Grupo 1202053" transform="translate(0 3240.511)">
                <g id="Grupo_1177898" data-name="Grupo 1177898" transform="translate(910.561 1411.003)">
                  <g id="Grupo_1172010" data-name="Grupo 1172010" transform="translate(0)">
                    <g id="Grupo_1171046" data-name="Grupo 1171046">
                      <g id="Grupo_1148525" data-name="Grupo 1148525">
                        <g transform="matrix(1, 0, 0, 1, -9, -6)" filter="url(#Trazado_982547)">
                          <g id="Trazado_982547-2" data-name="Trazado 982547" transform="translate(9 6)" fill="#e5fdfa">
                            <path d="M 47.5 93.5 C 41.28937149047852 93.5 35.26533508300781 92.28397369384766 29.59518623352051 89.88570404052734 C 24.11771965026855 87.56893157958984 19.19813346862793 84.25196075439453 14.97309303283691 80.02691650390625 C 10.74804019927979 75.80186462402344 7.431066513061523 70.88229370117188 5.114293098449707 65.40481567382812 C 2.716026782989502 59.73468017578125 1.5 53.71062850952148 1.5 47.5 C 1.5 41.28937149047852 2.716026782989502 35.26533508300781 5.114293098449707 29.59518623352051 C 7.431066513061523 24.11771965026855 10.74804019927979 19.19813346862793 14.97309303283691 14.97309303283691 C 19.19813346862793 10.74804019927979 24.11771965026855 7.431066513061523 29.59518623352051 5.114293098449707 C 35.26533508300781 2.716026782989502 41.28937149047852 1.5 47.5 1.5 C 53.71062850952148 1.5 59.73468017578125 2.716026782989502 65.40481567382812 5.114293098449707 C 70.88229370117188 7.431066513061523 75.80186462402344 10.74804019927979 80.02691650390625 14.97309303283691 C 84.25196075439453 19.19813346862793 87.56893157958984 24.11771965026855 89.88570404052734 29.59518623352051 C 92.28397369384766 35.26533508300781 93.5 41.28937149047852 93.5 47.5 C 93.5 53.71062850952148 92.28397369384766 59.73468017578125 89.88570404052734 65.40481567382812 C 87.56893157958984 70.88229370117188 84.25196075439453 75.80186462402344 80.02691650390625 80.02691650390625 C 75.80186462402344 84.25196075439453 70.88229370117188 87.56893157958984 65.40481567382812 89.88570404052734 C 59.73468017578125 92.28397369384766 53.71062850952148 93.5 47.5 93.5 Z" stroke="none"/>
                            <path d="M 47.5 3 C 41.49121475219727 3 35.66376876831055 4.176155090332031 30.17950439453125 6.495796203613281 C 24.88084411621094 8.736953735351562 20.12152099609375 11.94598388671875 16.03375244140625 16.03375244140625 C 11.94598388671875 20.12152099609375 8.736953735351562 24.88084411621094 6.495796203613281 30.17950439453125 C 4.176155090332031 35.66376876831055 3 41.49121475219727 3 47.5 C 3 53.50878524780273 4.176155090332031 59.33623123168945 6.495796203613281 64.82049560546875 C 8.736953735351562 70.11915588378906 11.94598388671875 74.87847900390625 16.03375244140625 78.96624755859375 C 20.12152099609375 83.05401611328125 24.88084411621094 86.26304626464844 30.17950439453125 88.50419616699219 C 35.66376876831055 90.82384490966797 41.49121475219727 92 47.5 92 C 53.50878524780273 92 59.33623123168945 90.82384490966797 64.82049560546875 88.50419616699219 C 70.11915588378906 86.26304626464844 74.87847900390625 83.05401611328125 78.96624755859375 78.96624755859375 C 83.05401611328125 74.87847900390625 86.26304626464844 70.11915588378906 88.50419616699219 64.82049560546875 C 90.82384490966797 59.33623123168945 92 53.50878524780273 92 47.5 C 92 41.49121475219727 90.82384490966797 35.66376876831055 88.50419616699219 30.17950439453125 C 86.26304626464844 24.88084411621094 83.05401611328125 20.12152099609375 78.96624755859375 16.03375244140625 C 74.87847900390625 11.94598388671875 70.11915588378906 8.736953735351562 64.82049560546875 6.495796203613281 C 59.33623123168945 4.176155090332031 53.50878524780273 3 47.5 3 M 47.5 0 C 73.7335205078125 0 95 21.2664794921875 95 47.5 C 95 73.7335205078125 73.7335205078125 95 47.5 95 C 21.2664794921875 95 0 73.7335205078125 0 47.5 C 0 21.2664794921875 21.2664794921875 0 47.5 0 Z" stroke="none" fill="#098576"/>
                          </g>
                        </g>
                      </g>
                    </g>
                  </g>
                </g>
              </g>
            </g>
          </g>
        </g>
      </g>
    </g>
    <g id="desarrollo-de-aplicaciones_1_" data-name="desarrollo-de-aplicaciones (1)" transform="translate(928.358 1407.716)">
      <rect id="Rectángulo_422499" data-name="Rectángulo 422499" width="54" height="43" rx="2" transform="translate(2.284 2.284)" fill="#e2e7f6"/>
      <path id="Trazado_1217849" data-name="Trazado 1217849" d="M3.816,2A1.816,1.816,0,0,0,2,3.816V42.851H51.021a1.816,1.816,0,0,0,1.816-1.816V2Z" transform="translate(-0.092 -0.092)" fill="#f7fafd"/>
      <path id="Trazado_1217850" data-name="Trazado 1217850" d="M54.652,2H3.816A1.816,1.816,0,0,0,2,3.816V9.262H56.468V3.816A1.816,1.816,0,0,0,54.652,2Z" transform="translate(-0.092 -0.092)" fill="#5e87ca"/>
      <path id="Trazado_1217851" data-name="Trazado 1217851" d="M52.837,2H3.816A1.816,1.816,0,0,0,2,3.816V9.262H52.837Z" transform="translate(-0.092 -0.092)" fill="#78a0d4"/>
      <path id="Trazado_1217852" data-name="Trazado 1217852" d="M54.652,49.262H3.816A1.816,1.816,0,0,1,2,47.447V42H56.468v5.447A1.816,1.816,0,0,1,54.652,49.262Z" transform="translate(-0.092 -3.78)" fill="#5e87ca"/>
      <path id="Trazado_1217853" data-name="Trazado 1217853" d="M2,42v4.539H51.021a1.816,1.816,0,0,0,1.816-1.816V42Z" transform="translate(-0.092 -3.78)" fill="#78a0d4"/>
      <path id="Trazado_1217854" data-name="Trazado 1217854" d="M5,45h7.262v1.816H5Z" transform="translate(-0.369 -4.057)" fill="#f7fafd"/>
      <path id="Trazado_1217855" data-name="Trazado 1217855" d="M15,45h1.816v1.816H15Z" transform="translate(-1.291 -4.057)" fill="#f7fafd"/>
      <path id="Trazado_1217856" data-name="Trazado 1217856" d="M42.928,58H17.938a1.816,1.816,0,0,0-1.624,1L15,61.631H45.865L44.552,59A1.816,1.816,0,0,0,42.928,58Z" transform="translate(-1.291 -5.255)" fill="#3b5892"/>
      <path id="Trazado_1217857" data-name="Trazado 1217857" d="M38.525,57.262,36.709,50H25.816L24,57.262Z" transform="translate(-2.121 -4.518)" fill="#c8cded"/>
      <path id="Trazado_1217858" data-name="Trazado 1217858" d="M42.326,58.908V58H18.03a1.816,1.816,0,0,0-1.624,1L16,59.816H41.418A.908.908,0,0,0,42.326,58.908Z" transform="translate(-1.383 -5.255)" fill="#4c6cb5"/>
      <g id="Grupo_1228505" data-name="Grupo 1228505" transform="translate(23.695 4.631)">
        <path id="Trazado_1217859" data-name="Trazado 1217859" d="M30,5h3.631V6.816H30Z" transform="translate(-26.369 -5)" fill="#f7fafd"/>
        <path id="Trazado_1217860" data-name="Trazado 1217860" d="M36,5h1.816V6.816H36Z" transform="translate(-26.922 -5)" fill="#f7fafd"/>
        <path id="Trazado_1217861" data-name="Trazado 1217861" d="M26,5h1.816V6.816H26Z" transform="translate(-26 -5)" fill="#f7fafd"/>
      </g>
      <path id="Trazado_1217862" data-name="Trazado 1217862" d="M24.156,26.894V23.262H22.1a7.233,7.233,0,0,0-.773-1.868l1.452-1.452-2.567-2.567-1.452,1.452a7.233,7.233,0,0,0-1.868-.773V16H13.262v2.053a7.233,7.233,0,0,0-1.868.773L9.942,17.374,7.375,19.943,8.828,21.4a7.233,7.233,0,0,0-.774,1.867H6v3.631H8.053a7.233,7.233,0,0,0,.773,1.868L7.374,30.214l2.567,2.567,1.452-1.452a7.233,7.233,0,0,0,1.868.773v2.053h3.631V32.1a7.233,7.233,0,0,0,1.868-.773l1.452,1.452,2.567-2.567-1.452-1.452a7.233,7.233,0,0,0,.773-1.868Z" transform="translate(-0.461 -1.383)" fill="#939393"/>
      <circle id="Elipse_13367" data-name="Elipse 13367" cx="3.5" cy="3.5" r="3.5" transform="translate(11.284 20.284)" fill="#f2f2f2"/>
      <path id="Trazado_1217863" data-name="Trazado 1217863" d="M16.894,16H13.262v2.053a7.233,7.233,0,0,0-1.868.773L9.942,17.374,7.375,19.943,8.828,21.4a7.233,7.233,0,0,0-.774,1.867H6v3.631H8.053a7.233,7.233,0,0,0,.773,1.868l-.656.656A8.987,8.987,0,0,0,18.633,20.5a9.078,9.078,0,0,0-.186-1.831,7.215,7.215,0,0,0-1.553-.616Z" transform="translate(-0.461 -1.383)" fill="#b5b5b5"/>
      <path id="Trazado_1217864" data-name="Trazado 1217864" d="M40,14H56.34v5.447H40Z" transform="translate(-3.596 -1.199)" fill="#f0ae42"/>
      <path id="Trazado_1217865" data-name="Trazado 1217865" d="M54.525,16.723V14H40v3.631H53.617A.908.908,0,0,0,54.525,16.723Z" transform="translate(-3.596 -1.199)" fill="#f9d266"/>
      <path id="Trazado_1217866" data-name="Trazado 1217866" d="M40,24H56.34v3.631H40Z" transform="translate(-3.596 -2.121)" fill="#f0ae42"/>
      <path id="Trazado_1217867" data-name="Trazado 1217867" d="M54.525,24.908V24H40v1.816H53.617A.908.908,0,0,0,54.525,24.908Z" transform="translate(-3.596 -2.121)" fill="#f9d266"/>
      <path id="Trazado_1217868" data-name="Trazado 1217868" d="M40,32H56.34v5.447H40Z" transform="translate(-3.596 -2.858)" fill="#f0ae42"/>
      <path id="Trazado_1217869" data-name="Trazado 1217869" d="M54.525,34.723V32H40v3.631H53.617A.908.908,0,0,0,54.525,34.723Z" transform="translate(-3.596 -2.858)" fill="#f9d266"/>
      <path id="Trazado_1217870" data-name="Trazado 1217870" d="M38.709,17.816V16H31.447a.908.908,0,0,0-.908.908V24.17H26v1.816h4.539v7.262a.908.908,0,0,0,.908.908h7.262V32.34H32.355V25.986h6.355V24.17H32.355V17.816Z" transform="translate(-2.305 -1.383)" fill="#3b5892"/>
      <path id="Trazado_1217871" data-name="Trazado 1217871" d="M18.755,23.809A3.621,3.621,0,1,0,14.4,29.032a9.057,9.057,0,0,0,4.357-5.223Z" transform="translate(-1.014 -1.936)" fill="#f7fafd"/>
      <path id="Trazado_1217872" data-name="Trazado 1217872" d="M54.56,1H3.723A2.723,2.723,0,0,0,1,3.723V43.667A2.723,2.723,0,0,0,3.723,46.39H22.532L21.17,51.837H16.647a2.708,2.708,0,0,0-2.436,1.505L12.9,55.97a.908.908,0,0,0,.812,1.314H44.574a.908.908,0,0,0,.817-1.314l-1.314-2.628a2.708,2.708,0,0,0-2.44-1.505H37.113L35.751,46.39H54.56a2.723,2.723,0,0,0,2.723-2.723V3.723A2.723,2.723,0,0,0,54.56,1ZM3.723,2.816H54.56a.908.908,0,0,1,.908.908V8.262H2.816V3.723A.908.908,0,0,1,3.723,2.816Zm51.745,7.262V37.312H2.816V10.078ZM42.448,54.154l.657,1.314H15.178l.657-1.314a.9.9,0,0,1,.812-.5h24.99a.9.9,0,0,1,.812.5Zm-7.207-2.318h-12.2L24.4,46.39H33.88ZM54.56,44.574H3.723a.908.908,0,0,1-.908-.908V39.128H55.468v4.539A.908.908,0,0,1,54.56,44.574Z"/>
      <path id="Trazado_1217873" data-name="Trazado 1217873" d="M30,5h3.631V6.816H30Z" transform="translate(-2.674 -0.369)"/>
      <path id="Trazado_1217874" data-name="Trazado 1217874" d="M36,5h1.816V6.816H36Z" transform="translate(-3.227 -0.369)"/>
      <path id="Trazado_1217875" data-name="Trazado 1217875" d="M26,5h1.816V6.816H26Z" transform="translate(-2.305 -0.369)"/>
      <path id="Trazado_1217876" data-name="Trazado 1217876" d="M5,45h7.262v1.816H5Z" transform="translate(-0.369 -4.057)"/>
      <path id="Trazado_1217877" data-name="Trazado 1217877" d="M15,45h1.816v1.816H15Z" transform="translate(-1.291 -4.057)"/>
      <path id="Trazado_1217878" data-name="Trazado 1217878" d="M5.908,27.525H7.289a8.412,8.412,0,0,0,.329.793l-.977.978a.908.908,0,0,0,0,1.284l2.567,2.567a.908.908,0,0,0,1.284,0l.978-.977a8.41,8.41,0,0,0,.793.329v1.382a.908.908,0,0,0,.908.908H16.8a.908.908,0,0,0,.908-.908V32.5a8.411,8.411,0,0,0,.793-.329l.978.977a.908.908,0,0,0,1.284,0l2.567-2.567a.908.908,0,0,0,0-1.284l-.977-.978a8.412,8.412,0,0,0,.329-.793h1.382a.908.908,0,0,0,.908-.908v-.908H28.6v7.262a.908.908,0,0,0,.908.908h6.355v1.816a.908.908,0,0,0,.908.908h16.34a.908.908,0,0,0,.908-.908V30.248a.908.908,0,0,0-.908-.908H36.773a.908.908,0,0,0-.908.908v1.816H30.418V25.709h5.447v.908a.908.908,0,0,0,.908.908h16.34a.908.908,0,0,0,.908-.908V22.986a.908.908,0,0,0-.908-.908H36.773a.908.908,0,0,0-.908.908v.908H30.418V17.539h5.447v1.816a.908.908,0,0,0,.908.908h16.34a.908.908,0,0,0,.908-.908V13.908A.908.908,0,0,0,53.113,13H36.773a.908.908,0,0,0-.908.908v1.816H29.511a.908.908,0,0,0-.908.908v7.262H24.972v-.908a.908.908,0,0,0-.908-.908H22.682a8.412,8.412,0,0,0-.329-.793l.977-.978a.908.908,0,0,0,0-1.284l-2.567-2.567a.908.908,0,0,0-1.284,0l-.978.977a8.411,8.411,0,0,0-.793-.329V15.723a.908.908,0,0,0-.908-.908H13.17a.908.908,0,0,0-.908.908v1.382a8.411,8.411,0,0,0-.793.329l-.978-.977a.908.908,0,0,0-1.284,0L6.641,19.024a.908.908,0,0,0,0,1.284l.977.978a8.411,8.411,0,0,0-.329.793H5.908A.908.908,0,0,0,5,22.986v3.631A.908.908,0,0,0,5.908,27.525Zm31.773,3.631H52.206v3.631H37.681Zm0-7.262H52.206v1.816H37.681Zm0-9.078H52.206v3.631H37.681ZM6.816,23.894H7.961a.908.908,0,0,0,.879-.681,6.355,6.355,0,0,1,.676-1.634.908.908,0,0,0-.14-1.1l-.81-.81L9.85,18.381l.81.81a.908.908,0,0,0,1.1.14,6.355,6.355,0,0,1,1.634-.676.908.908,0,0,0,.681-.879V16.631h1.816v1.146a.908.908,0,0,0,.681.879,6.355,6.355,0,0,1,1.634.676.908.908,0,0,0,1.1-.14l.81-.81,1.284,1.284-.81.81a.908.908,0,0,0-.14,1.1,6.354,6.354,0,0,1,.676,1.634.908.908,0,0,0,.879.681h1.144V25.71H22.01a.908.908,0,0,0-.879.681,6.354,6.354,0,0,1-.676,1.634.908.908,0,0,0,.14,1.1l.81.81-1.284,1.284-.81-.81a.908.908,0,0,0-1.1-.14,6.355,6.355,0,0,1-1.634.676.908.908,0,0,0-.681.879v1.144H14.078V31.826a.908.908,0,0,0-.681-.879,6.355,6.355,0,0,1-1.634-.676.908.908,0,0,0-1.1.14l-.81.81L8.567,29.937l.81-.81a.908.908,0,0,0,.14-1.1,6.355,6.355,0,0,1-.676-1.634.908.908,0,0,0-.879-.68H6.816Z" transform="translate(-0.369 -1.106)"/>
      <path id="Trazado_1217879" data-name="Trazado 1217879" d="M15.539,30.078A4.539,4.539,0,1,0,11,25.539a4.539,4.539,0,0,0,4.539,4.539Zm0-7.262a2.723,2.723,0,1,1-2.723,2.723A2.723,2.723,0,0,1,15.539,22.816Z" transform="translate(-0.922 -1.844)"/>
    </g>
  </g>
</svg>
