<svg xmlns="http://www.w3.org/2000/svg" xmlns:xlink="http://www.w3.org/1999/xlink" width="113" height="113" viewBox="0 0 113 113">
  <defs>
    <filter id="Trazado_982547" x="0" y="0" width="113" height="113" filterUnits="userSpaceOnUse">
      <feOffset dy="3" input="SourceAlpha"/>
      <feGaussianBlur stdDeviation="3" result="blur"/>
      <feFlood flood-opacity="0.161"/>
      <feComposite operator="in" in2="blur"/>
      <feComposite in="SourceGraphic"/>
    </filter>
  </defs>
  <g id="Grupo_1228504" data-name="Grupo 1228504" transform="translate(-1216 -1380.991)">
    <g id="Grupo_1228121" data-name="Grupo 1228121" transform="translate(0 -4252.189)">
      <g id="Grupo_1227505" data-name="Grupo 1227505" transform="translate(0.575 2048.198)">
        <g id="Grupo_1225353" data-name="Grupo 1225353" transform="translate(-0.575 -393.641)">
          <g id="Grupo_1208124" data-name="Grupo 1208124" transform="translate(0 -1922.377)">
            <g id="Grupo_1202435" data-name="Grupo 1202435" transform="translate(-0.56 1255.486)">
              <g id="Grupo_1202052" data-name="Grupo 1202052" transform="translate(1225.561 4651.514)">
                <g id="Grupo_1172010" data-name="Grupo 1172010" transform="translate(0)">
                  <g id="Grupo_1171046" data-name="Grupo 1171046">
                    <g id="Grupo_1148525" data-name="Grupo 1148525">
                      <g transform="matrix(1, 0, 0, 1, -9, -6)" filter="url(#Trazado_982547)">
                        <g id="Trazado_982547-2" data-name="Trazado 982547" transform="translate(9 6)" fill="#e5fdfa">
                          <path d="M 47.5 93.5 C 41.28937149047852 93.5 35.26533508300781 92.28397369384766 29.59518623352051 89.88570404052734 C 24.11771965026855 87.56893157958984 19.19813346862793 84.25196075439453 14.97309303283691 80.02691650390625 C 10.74804019927979 75.80186462402344 7.431066513061523 70.88229370117188 5.114293098449707 65.40481567382812 C 2.716026782989502 59.73468017578125 1.5 53.71062850952148 1.5 47.5 C 1.5 41.28937149047852 2.716026782989502 35.26533508300781 5.114293098449707 29.59518623352051 C 7.431066513061523 24.11771965026855 10.74804019927979 19.19813346862793 14.97309303283691 14.97309303283691 C 19.19813346862793 10.74804019927979 24.11771965026855 7.431066513061523 29.59518623352051 5.114293098449707 C 35.26533508300781 2.716026782989502 41.28937149047852 1.5 47.5 1.5 C 53.71062850952148 1.5 59.73468017578125 2.716026782989502 65.40481567382812 5.114293098449707 C 70.88229370117188 7.431066513061523 75.80186462402344 10.74804019927979 80.02691650390625 14.97309303283691 C 84.25196075439453 19.19813346862793 87.56893157958984 24.11771965026855 89.88570404052734 29.59518623352051 C 92.28397369384766 35.26533508300781 93.5 41.28937149047852 93.5 47.5 C 93.5 53.71062850952148 92.28397369384766 59.73468017578125 89.88570404052734 65.40481567382812 C 87.56893157958984 70.88229370117188 84.25196075439453 75.80186462402344 80.02691650390625 80.02691650390625 C 75.80186462402344 84.25196075439453 70.88229370117188 87.56893157958984 65.40481567382812 89.88570404052734 C 59.73468017578125 92.28397369384766 53.71062850952148 93.5 47.5 93.5 Z" stroke="none"/>
                          <path d="M 47.5 3 C 41.49121475219727 3 35.66376876831055 4.176155090332031 30.17950439453125 6.495796203613281 C 24.88084411621094 8.736953735351562 20.12152099609375 11.94598388671875 16.03375244140625 16.03375244140625 C 11.94598388671875 20.12152099609375 8.736953735351562 24.88084411621094 6.495796203613281 30.17950439453125 C 4.176155090332031 35.66376876831055 3 41.49121475219727 3 47.5 C 3 53.50878524780273 4.176155090332031 59.33623123168945 6.495796203613281 64.82049560546875 C 8.736953735351562 70.11915588378906 11.94598388671875 74.87847900390625 16.03375244140625 78.96624755859375 C 20.12152099609375 83.05401611328125 24.88084411621094 86.26304626464844 30.17950439453125 88.50419616699219 C 35.66376876831055 90.82384490966797 41.49121475219727 92 47.5 92 C 53.50878524780273 92 59.33623123168945 90.82384490966797 64.82049560546875 88.50419616699219 C 70.11915588378906 86.26304626464844 74.87847900390625 83.05401611328125 78.96624755859375 78.96624755859375 C 83.05401611328125 74.87847900390625 86.26304626464844 70.11915588378906 88.50419616699219 64.82049560546875 C 90.82384490966797 59.33623123168945 92 53.50878524780273 92 47.5 C 92 41.49121475219727 90.82384490966797 35.66376876831055 88.50419616699219 30.17950439453125 C 86.26304626464844 24.88084411621094 83.05401611328125 20.12152099609375 78.96624755859375 16.03375244140625 C 74.87847900390625 11.94598388671875 70.11915588378906 8.736953735351562 64.82049560546875 6.495796203613281 C 59.33623123168945 4.176155090332031 53.50878524780273 3 47.5 3 M 47.5 0 C 73.7335205078125 0 95 21.2664794921875 95 47.5 C 95 73.7335205078125 73.7335205078125 95 47.5 95 C 21.2664794921875 95 0 73.7335205078125 0 47.5 C 0 21.2664794921875 21.2664794921875 0 47.5 0 Z" stroke="none" fill="#098576"/>
                        </g>
                      </g>
                    </g>
                  </g>
                </g>
              </g>
            </g>
          </g>
        </g>
      </g>
    </g>
    <g id="funcion_2_" data-name="funcion (2)" transform="translate(1242.757 1380.383)">
      <path id="Trazado_1217804" data-name="Trazado 1217804" d="M62.592,35.495H9.327A1.827,1.827,0,0,0,7.5,37.322v8.406H64.419V37.322a1.827,1.827,0,0,0-1.827-1.827Z" transform="translate(-6.641 -6.641)" fill="#ffe177"/>
      <path id="Trazado_1217805" data-name="Trazado 1217805" d="M462.866,35.495h-3.321a1.827,1.827,0,0,1,1.827,1.827v8.406h3.321V37.322A1.827,1.827,0,0,0,462.866,35.495Z" transform="translate(-406.915 -6.641)" fill="#ffd15b"/>
      <path id="Trazado_1217806" data-name="Trazado 1217806" d="M27.724,79.342l-.931-2.017a1.037,1.037,0,0,0-.941-.6H16.4a1.037,1.037,0,0,0-.941.6l-.931,2.017a1.037,1.037,0,0,1-.941.6H7.5v40.736a1.827,1.827,0,0,0,1.827,1.827H62.592a1.827,1.827,0,0,0,1.827-1.827V79.945H28.665a1.037,1.037,0,0,1-.941-.6Z" transform="translate(-6.641 -43.147)" fill="#f5f8f9"/>
      <g id="Grupo_1228501" data-name="Grupo 1228501" transform="translate(52.63 36.797)">
        <path id="Trazado_1217807" data-name="Trazado 1217807" d="M461.372,104.853v40.736a1.827,1.827,0,0,1-1.827,1.827h3.321a1.827,1.827,0,0,0,1.827-1.827V104.853Z" transform="translate(-459.545 -104.853)" fill="#e8edf2"/>
      </g>
      <g id="Grupo_1228502" data-name="Grupo 1228502" transform="translate(41.752 42.156)">
        <path id="Trazado_1217808" data-name="Trazado 1217808" d="M374.721,156.485h-9.013a1.144,1.144,0,0,1-1.144-1.144v-2.553a1.144,1.144,0,0,1,1.144-1.144h9.013a1.144,1.144,0,0,1,1.144,1.144v2.553A1.144,1.144,0,0,1,374.721,156.485Z" transform="translate(-364.564 -151.644)" fill="#ffe177"/>
        <path id="Trazado_1217809" data-name="Trazado 1217809" d="M433.665,151.643h-2.533a1.144,1.144,0,0,1,1.144,1.144v2.553a1.144,1.144,0,0,1-1.144,1.144h2.533a1.144,1.144,0,0,0,1.144-1.144v-2.553A1.144,1.144,0,0,0,433.665,151.643Z" transform="translate(-423.508 -151.643)" fill="#ffd15b"/>
      </g>
      <g id="Grupo_1228503" data-name="Grupo 1228503" transform="translate(0 27.995)">
        <path id="Trazado_1217810" data-name="Trazado 1217810" d="M55.951,27.995H8.095a.859.859,0,0,0,0,1.718H55.951a.969.969,0,0,1,.968.968v5.257h-34.9a.178.178,0,0,1-.161-.1l-.931-2.017a1.9,1.9,0,0,0-1.721-1.1H9.76a1.9,1.9,0,0,0-1.721,1.1l-.931,2.017a.178.178,0,0,1-.161.1H1.718V30.681a.969.969,0,0,1,.968-.968H4.773a.859.859,0,0,0,0-1.718H2.686A2.689,2.689,0,0,0,0,30.681V77.533A2.689,2.689,0,0,0,2.686,80.22H55.951a2.689,2.689,0,0,0,2.686-2.686v-5.26a.859.859,0,0,0-1.718,0v5.26a.969.969,0,0,1-.968.968H2.686a.969.969,0,0,1-.968-.968V37.656H6.946a1.9,1.9,0,0,0,1.721-1.1L9.6,34.538a.178.178,0,0,1,.161-.1H19.21a.178.178,0,0,1,.161.1l.931,2.017a1.9,1.9,0,0,0,1.721,1.1h34.9v31.3a.859.859,0,1,0,1.718,0V30.681A2.689,2.689,0,0,0,55.951,28Z" transform="translate(0 -27.995)"/>
        <path id="Trazado_1217811" data-name="Trazado 1217811" d="M359.954,64.392a.859.859,0,1,0,0-1.718h-.832a.859.859,0,0,0,0,1.718Z" transform="translate(-317.233 -58.702)"/>
        <path id="Trazado_1217812" data-name="Trazado 1217812" d="M395.954,64.392a.859.859,0,1,0,0-1.718h-.832a.859.859,0,0,0,0,1.718Z" transform="translate(-349.11 -58.702)"/>
        <path id="Trazado_1217813" data-name="Trazado 1217813" d="M431.954,64.392a.859.859,0,1,0,0-1.718h-.832a.859.859,0,0,0,0,1.718Z" transform="translate(-380.987 -58.702)"/>
        <path id="Trazado_1217814" data-name="Trazado 1217814" d="M43.633,134.1a.859.859,0,0,0-1.2.211l-1.9,2.713a.859.859,0,0,0,0,.986l1.9,2.713a.859.859,0,1,0,1.407-.986l-1.556-2.22,1.556-2.22A.859.859,0,0,0,43.633,134.1Z" transform="translate(-35.756 -121.811)"/>
        <path id="Trazado_1217815" data-name="Trazado 1217815" d="M120.69,140.935a.859.859,0,0,0,1.2-.211l1.9-2.713a.859.859,0,0,0,0-.986l-1.9-2.713a.859.859,0,0,0-1.407.986l1.556,2.22-1.556,2.22a.859.859,0,0,0,.211,1.2Z" transform="translate(-106.544 -121.813)"/>
        <path id="Trazado_1217816" data-name="Trazado 1217816" d="M81.512,135.163a.859.859,0,0,0-1.147.4l-2.5,5.166a.859.859,0,1,0,1.546.748l2.5-5.166A.859.859,0,0,0,81.512,135.163Z" transform="translate(-68.872 -122.814)"/>
        <path id="Trazado_1217817" data-name="Trazado 1217817" d="M205.149,134.8a.859.859,0,0,0-.859-.859H190.9a.859.859,0,0,0,0,1.718h13.39A.859.859,0,0,0,205.149,134.8Z" transform="translate(-168.276 -121.812)"/>
        <path id="Trazado_1217818" data-name="Trazado 1217818" d="M370.084,146.146a2.006,2.006,0,0,0-2-2h-9.013a2.005,2.005,0,0,0-2,2V148.7a2.006,2.006,0,0,0,2,2h2.846a.859.859,0,0,0,0-1.718h-2.846a.286.286,0,0,1-.285-.285v-2.553a.286.286,0,0,1,.285-.285h9.013a.286.286,0,0,1,.285.285V148.7a.286.286,0,0,1-.285.285h-2.846a.859.859,0,1,0,0,1.718h2.846a2.006,2.006,0,0,0,2-2Z" transform="translate(-316.172 -130.841)"/>
        <path id="Trazado_1217819" data-name="Trazado 1217819" d="M33.9,218.242a.859.859,0,0,0,.291.644l.995.877a.141.141,0,0,1,.048.106,3.26,3.26,0,0,0,3.256,3.256.859.859,0,0,0,0-1.718,1.54,1.54,0,0,1-1.538-1.538,1.86,1.86,0,0,0-.629-1.394l-.264-.233.264-.233a1.86,1.86,0,0,0,.629-1.394,1.54,1.54,0,0,1,1.538-1.538.859.859,0,0,0,0-1.718,3.26,3.26,0,0,0-3.256,3.256.142.142,0,0,1-.048.106l-.995.877A.859.859,0,0,0,33.9,218.242Z" transform="translate(-30.022 -192.129)"/>
        <path id="Trazado_1217820" data-name="Trazado 1217820" d="M432.919,376.595a1.54,1.54,0,0,1-1.538,1.538.859.859,0,1,0,0,1.718,3.26,3.26,0,0,0,3.256-3.256.141.141,0,0,1,.048-.106l.995-.877a.859.859,0,0,0,0-1.288l-.995-.878a.141.141,0,0,1-.048-.106,3.26,3.26,0,0,0-3.256-3.256.859.859,0,0,0,0,1.718,1.54,1.54,0,0,1,1.538,1.538,1.86,1.86,0,0,0,.629,1.394l.265.233-.265.233A1.86,1.86,0,0,0,432.919,376.595Z" transform="translate(-381.216 -330.906)"/>
        <path id="Trazado_1217821" data-name="Trazado 1217821" d="M89.538,239.172h.883a.859.859,0,0,0,0-1.718h-.883a.859.859,0,0,0,0,1.718Z" transform="translate(-78.523 -213.466)"/>
        <path id="Trazado_1217822" data-name="Trazado 1217822" d="M137.593,238.313a.859.859,0,0,0,.859.859h5.464a.859.859,0,1,0,0-1.718h-5.464A.859.859,0,0,0,137.593,238.313Z" transform="translate(-121.835 -213.466)"/>
        <path id="Trazado_1217823" data-name="Trazado 1217823" d="M235.121,239.172a.859.859,0,0,0,0-1.718h-7.754a.859.859,0,0,0,0,1.718Z" transform="translate(-200.567 -213.466)"/>
        <path id="Trazado_1217824" data-name="Trazado 1217824" d="M335.422,238.313a.859.859,0,0,0,.859.859h3.173a.859.859,0,1,0,0-1.718h-3.173A.859.859,0,0,0,335.422,238.313Z" transform="translate(-297.008 -213.466)"/>
        <path id="Trazado_1217825" data-name="Trazado 1217825" d="M410.659,237.454h-5.464a.859.859,0,0,0,0,1.718h5.464a.859.859,0,0,0,0-1.718Z" transform="translate(-358.029 -213.466)"/>
        <path id="Trazado_1217826" data-name="Trazado 1217826" d="M88.679,275.37a.859.859,0,0,0,.859.859h4.319a.859.859,0,1,0,0-1.718H89.538A.859.859,0,0,0,88.679,275.37Z" transform="translate(-78.523 -246.279)"/>
        <path id="Trazado_1217827" data-name="Trazado 1217827" d="M177.065,275.37a.859.859,0,0,0-.859-.859h-7.754a.859.859,0,1,0,0,1.718h7.754A.859.859,0,0,0,177.065,275.37Z" transform="translate(-148.399 -246.279)"/>
        <path id="Trazado_1217828" data-name="Trazado 1217828" d="M281.4,275.37a.859.859,0,0,0-.859-.859h-3.173a.859.859,0,1,0,0,1.718h3.173A.859.859,0,0,0,281.4,275.37Z" transform="translate(-244.84 -246.279)"/>
        <path id="Trazado_1217829" data-name="Trazado 1217829" d="M351.745,274.511h-5.464a.859.859,0,1,0,0,1.718h5.464a.859.859,0,1,0,0-1.718Z" transform="translate(-305.862 -246.279)"/>
        <path id="Trazado_1217830" data-name="Trazado 1217830" d="M437.223,274.511h-2.028a.859.859,0,1,0,0,1.718h2.028a.859.859,0,1,0,0-1.718Z" transform="translate(-384.594 -246.279)"/>
        <path id="Trazado_1217831" data-name="Trazado 1217831" d="M49.538,313.287h7.754a.859.859,0,1,0,0-1.718H49.538a.859.859,0,1,0,0,1.718Z" transform="translate(-43.104 -279.093)"/>
        <path id="Trazado_1217832" data-name="Trazado 1217832" d="M162.484,312.428a.859.859,0,0,0-.859-.859h-3.173a.859.859,0,1,0,0,1.718h3.173A.859.859,0,0,0,162.484,312.428Z" transform="translate(-139.545 -279.093)"/>
        <path id="Trazado_1217833" data-name="Trazado 1217833" d="M227.367,313.287h7.754a.859.859,0,1,0,0-1.718h-7.754a.859.859,0,1,0,0,1.718Z" transform="translate(-200.567 -279.093)"/>
        <path id="Trazado_1217834" data-name="Trazado 1217834" d="M336.281,313.287h3.173a.859.859,0,1,0,0-1.718h-3.173a.859.859,0,1,0,0,1.718Z" transform="translate(-297.008 -279.093)"/>
        <path id="Trazado_1217835" data-name="Trazado 1217835" d="M405.195,313.287h5.464a.859.859,0,1,0,0-1.718h-5.464a.859.859,0,1,0,0,1.718Z" transform="translate(-358.029 -279.093)"/>
        <path id="Trazado_1217836" data-name="Trazado 1217836" d="M49.538,350.343h2.028a.859.859,0,1,0,0-1.718H49.538a.859.859,0,1,0,0,1.718Z" transform="translate(-43.104 -311.905)"/>
        <path id="Trazado_1217837" data-name="Trazado 1217837" d="M114.775,349.484a.859.859,0,0,0-.859-.859h-5.464a.859.859,0,1,0,0,1.718h5.464A.859.859,0,0,0,114.775,349.484Z" transform="translate(-95.271 -311.905)"/>
        <path id="Trazado_1217838" data-name="Trazado 1217838" d="M207.125,349.484a.859.859,0,0,0-.859-.859h-8.9a.859.859,0,1,0,0,1.718h8.9A.859.859,0,0,0,207.125,349.484Z" transform="translate(-174.003 -311.905)"/>
        <path id="Trazado_1217839" data-name="Trazado 1217839" d="M318.309,350.343a.859.859,0,0,0,0-1.718h-2.028a.859.859,0,0,0,0,1.718Z" transform="translate(-279.298 -311.905)"/>
        <path id="Trazado_1217840" data-name="Trazado 1217840" d="M384.953,349.484a.859.859,0,0,0-.859-.859h-8.9a.859.859,0,0,0,0,1.718h8.9A.859.859,0,0,0,384.953,349.484Z" transform="translate(-331.465 -311.905)"/>
        <path id="Trazado_1217841" data-name="Trazado 1217841" d="M49.538,387.4h7.754a.859.859,0,1,0,0-1.718H49.538a.859.859,0,1,0,0,1.718Z" transform="translate(-43.104 -344.718)"/>
        <path id="Trazado_1217842" data-name="Trazado 1217842" d="M165.061,387.4a.859.859,0,1,0,0-1.718h-6.609a.859.859,0,1,0,0,1.718Z" transform="translate(-139.545 -344.718)"/>
        <path id="Trazado_1217843" data-name="Trazado 1217843" d="M257.366,387.4h4.319a.859.859,0,1,0,0-1.718h-4.319a.859.859,0,0,0,0,1.718Z" transform="translate(-227.13 -344.718)"/>
        <path id="Trazado_1217844" data-name="Trazado 1217844" d="M344.035,385.682h-7.754a.859.859,0,1,0,0,1.718h7.754a.859.859,0,1,0,0-1.718Z" transform="translate(-297.008 -344.718)"/>
        <path id="Trazado_1217845" data-name="Trazado 1217845" d="M49.538,424.457h11.19a.859.859,0,1,0,0-1.718H49.538a.859.859,0,1,0,0,1.718Z" transform="translate(-43.104 -377.531)"/>
        <path id="Trazado_1217846" data-name="Trazado 1217846" d="M188.452,424.457h5.464a.859.859,0,1,0,0-1.718h-5.464a.859.859,0,1,0,0,1.718Z" transform="translate(-166.109 -377.531)"/>
        <path id="Trazado_1217847" data-name="Trazado 1217847" d="M277.366,424.457h3.173a.859.859,0,1,0,0-1.718h-3.173a.859.859,0,1,0,0,1.718Z" transform="translate(-244.84 -377.531)"/>
        <path id="Trazado_1217848" data-name="Trazado 1217848" d="M352.89,422.739h-6.609a.859.859,0,1,0,0,1.718h6.609a.859.859,0,1,0,0-1.718Z" transform="translate(-305.862 -377.531)"/>
      </g>
    </g>
  </g>
</svg>
