<svg xmlns="http://www.w3.org/2000/svg" xmlns:xlink="http://www.w3.org/1999/xlink" width="505" height="322" viewBox="0 0 505 322">
  <defs>
    <clipPath id="clip-path">
      <rect id="Rectángulo_422508" data-name="Rectángulo 422508" width="505" height="322" transform="translate(915 2034)" fill="#fff" stroke="#707070" stroke-width="1"/>
    </clipPath>
  </defs>
  <g id="Grupo_1228598" data-name="Grupo 1228598" transform="translate(-915 -2034)">
    <rect id="Rectángulo_422509" data-name="Rectángulo 422509" width="260" height="295" transform="translate(1160 2034)" fill="#b4c6f4"/>
    <g id="Enmascarar_grupo_1208506" data-name="Enmascarar grupo 1208506" clip-path="url(#clip-path)">
      <g id="_31054809_7757767" data-name="31054809_7757767" transform="translate(929.265 2040.894)">
        <g id="Floor" transform="translate(4.153 315.367)">
          <line id="Línea_2191" data-name="Línea 2191" x2="458.582" fill="none" stroke="#263238" stroke-miterlimit="10" stroke-width="1"/>
        </g>
        <g id="Plant" transform="translate(4.321 196.744)">
          <g id="Grupo_1228547" data-name="Grupo 1228547" transform="translate(0)">
            <g id="Grupo_1228544" data-name="Grupo 1228544">
              <path id="Trazado_1218058" data-name="Trazado 1218058" d="M6.325,0c3.493,0,6.325,7.428,6.325,16.591S9.819,33.182,6.325,33.182,0,25.754,0,16.591,2.832,0,6.325,0Z" transform="translate(32.843 6.576)" fill="#aa52f9" stroke="#263238" stroke-width="1"/>
              <path id="Trazado_1217916" data-name="Trazado 1217916" d="M35.02,304.758C37,310.982,40.8,315.329,43.5,314.469s3.3-6.6,1.324-12.827-5.776-10.571-8.485-9.711S33.043,298.535,35.02,304.758Z" transform="translate(-15.504 -291.823)" fill="#aa52f9" stroke="#263238" stroke-miterlimit="10" stroke-width="1"/>
              <path id="Trazado_1217917" data-name="Trazado 1217917" d="M102.592,366.412c6.438-1.09,11.273-4.246,10.8-7.049s-6.078-4.189-12.517-3.1-11.273,4.246-10.8,7.049S96.153,367.5,102.592,366.412Z" transform="translate(-36.664 -315.949)" fill="#92e3a9" stroke="#263238" stroke-miterlimit="10" stroke-width="1"/>
              <path id="Trazado_1217918" data-name="Trazado 1217918" d="M22.4,339.016c5.378,5.333,11.731,7.646,14.191,5.165s.095-8.815-5.283-14.148-11.731-7.646-14.191-5.165S17.017,333.682,22.4,339.016Z" transform="translate(-8.834 -303.892)" fill="#aa52f9" stroke="#263238" stroke-miterlimit="10" stroke-width="1"/>
              <path id="Trazado_1217919" data-name="Trazado 1217919" d="M82.477,318.559c-5.2,7.545-6.749,15.5-3.461,17.765s10.17-2.012,15.37-9.557,6.749-15.5,3.461-17.765S87.677,311.015,82.477,318.559Z" transform="translate(-31.862 -298.064)" fill="#92e3a9" stroke="#263238" stroke-miterlimit="10" stroke-width="1"/>
              <line id="Línea_2192" data-name="Línea 2192" x1="0.489" y2="50.471" transform="translate(38.235 38.93)" fill="none" stroke="#263238" stroke-linecap="round" stroke-miterlimit="10" stroke-width="1"/>
              <line id="Línea_2193" data-name="Línea 2193" x1="0.59" y2="21.932" transform="translate(38.724 16.998)" fill="none" stroke="#263238" stroke-linecap="round" stroke-miterlimit="10" stroke-width="1"/>
              <line id="Línea_2194" data-name="Línea 2194" x2="0.042" y2="1.68" transform="translate(39.272 13.42)" fill="none" stroke="#263238" stroke-linecap="round" stroke-miterlimit="10" stroke-width="1"/>
              <path id="Trazado_1217920" data-name="Trazado 1217920" d="M76.324,351.465A63.694,63.694,0,0,0,70.077,375.4v31.217" transform="translate(-29.146 -314.282)" fill="none" stroke="#263238" stroke-linecap="round" stroke-miterlimit="10" stroke-width="1"/>
              <path id="Trazado_1217921" data-name="Trazado 1217921" d="M90.963,324.8A75.029,75.029,0,0,0,80.1,341.424" transform="translate(-32.919 -304.241)" fill="none" stroke="#263238" stroke-linecap="round" stroke-miterlimit="10" stroke-width="1"/>
              <path id="Trazado_1217922" data-name="Trazado 1217922" d="M101.963,319s-.656.6-1.734,1.745" transform="translate(-40.5 -302.058)" fill="none" stroke="#263238" stroke-linecap="round" stroke-miterlimit="10" stroke-width="1"/>
              <path id="Trazado_1217923" data-name="Trazado 1217923" d="M48.306,355.221a74.891,74.891,0,0,1,10.254,20.35" transform="translate(-20.947 -315.696)" fill="none" stroke="#263238" stroke-linecap="round" stroke-miterlimit="10" stroke-width="1"/>
              <path id="Trazado_1217924" data-name="Trazado 1217924" d="M36.634,341.809a59.929,59.929,0,0,1,7.277,8.362" transform="translate(-16.552 -310.646)" fill="none" stroke="#263238" stroke-linecap="round" stroke-miterlimit="10" stroke-width="1"/>
              <path id="Trazado_1217925" data-name="Trazado 1217925" d="M24.17,332.31a33.187,33.187,0,0,1,5.541,3.926" transform="translate(-11.859 -307.069)" fill="none" stroke="#263238" stroke-linecap="round" stroke-miterlimit="10" stroke-width="1"/>
              <path id="Trazado_1217926" data-name="Trazado 1217926" d="M48.733,325.673c3.5,11.027,8.208,27.323,10.4,41.467" transform="translate(-21.108 -304.57)" fill="none" stroke="#263238" stroke-linecap="round" stroke-miterlimit="10" stroke-width="1"/>
              <path id="Trazado_1217927" data-name="Trazado 1217927" d="M45.309,315.181c.623,1.86,1.349,4.068,2.135,6.541" transform="translate(-19.819 -300.619)" fill="none" stroke="#263238" stroke-linecap="round" stroke-miterlimit="10" stroke-width="1"/>
              <path id="Trazado_1217928" data-name="Trazado 1217928" d="M41.8,305.032s.613,1.688,1.6,4.583" transform="translate(-18.498 -296.797)" fill="none" stroke="#263238" stroke-linecap="round" stroke-miterlimit="10" stroke-width="1"/>
              <path id="Trazado_1217929" data-name="Trazado 1217929" d="M83.1,365.344C78.721,367,72.734,371.635,70.657,377.7" transform="translate(-29.364 -319.508)" fill="none" stroke="#263238" stroke-linecap="round" stroke-miterlimit="10" stroke-width="1"/>
              <path id="Trazado_1217930" data-name="Trazado 1217930" d="M98.7,362.706a27.615,27.615,0,0,0-8.087,1.644" transform="translate(-36.879 -318.515)" fill="none" stroke="#263238" stroke-linecap="round" stroke-miterlimit="10" stroke-width="1"/>
              <path id="Trazado_1217931" data-name="Trazado 1217931" d="M110.744,362.816s-.779-.112-2.065-.161" transform="translate(-43.682 -318.496)" fill="none" stroke="#263238" stroke-linecap="round" stroke-miterlimit="10" stroke-width="1"/>
              <path id="Trazado_1217932" data-name="Trazado 1217932" d="M84.624,404.732c5.917,2.763,11.688,2.915,12.891.34s-2.619-6.9-8.536-9.665-11.688-2.915-12.891-.34S78.707,401.97,84.624,404.732Z" transform="translate(-31.326 -330.01)" fill="#aa52f9" stroke="#263238" stroke-miterlimit="10" stroke-width="1"/>
              <path id="Trazado_1217933" data-name="Trazado 1217933" d="M82.823,397.358a27.611,27.611,0,0,0-7.588-3.244,3.793,3.793,0,0,0-4.072.076c-.8.534-.534,4.535-.534,4.535v20.807" transform="translate(-29.337 -330.129)" fill="none" stroke="#263238" stroke-linecap="round" stroke-miterlimit="10" stroke-width="1"/>
              <path id="Trazado_1217934" data-name="Trazado 1217934" d="M96.041,403.82s-.578-.535-1.607-1.307" transform="translate(-38.318 -333.505)" fill="none" stroke="#263238" stroke-linecap="round" stroke-miterlimit="10" stroke-width="1"/>
              <path id="Trazado_1217935" data-name="Trazado 1217935" d="M15.252,366.412c-6.438-1.09-11.273-4.246-10.8-7.049s6.079-4.189,12.517-3.1,11.273,4.246,10.8,7.049S21.691,367.5,15.252,366.412Z" transform="translate(-4.422 -315.949)" fill="#aa52f9" stroke="#263238" stroke-miterlimit="10" stroke-width="1"/>
              <path id="Trazado_1217936" data-name="Trazado 1217936" d="M41.129,365.26a20.878,20.878,0,0,1,2.294,1.009A16.046,16.046,0,0,1,52,380.575v27.5" transform="translate(-18.245 -319.477)" fill="none" stroke="#263238" stroke-linecap="round" stroke-miterlimit="10" stroke-width="1"/>
              <path id="Trazado_1217937" data-name="Trazado 1217937" d="M27.292,362.654a28.142,28.142,0,0,1,8.626,1.625" transform="translate(-13.034 -318.495)" fill="none" stroke="#263238" stroke-linecap="round" stroke-miterlimit="10" stroke-width="1"/>
              <path id="Trazado_1217938" data-name="Trazado 1217938" d="M19.974,362.837s.514-.074,1.394-.128" transform="translate(-10.279 -318.516)" fill="none" stroke="#263238" stroke-linecap="round" stroke-miterlimit="10" stroke-width="1"/>
              <path id="Trazado_1217939" data-name="Trazado 1217939" d="M24.228,395.823c-5.658,3.261-11.395,3.908-12.813,1.446s2.017-7.1,7.674-10.363S30.484,383,31.9,385.46,29.886,392.562,24.228,395.823Z" transform="translate(-6.935 -326.521)" fill="#aa52f9" stroke="#263238" stroke-miterlimit="10" stroke-width="1"/>
              <path id="Trazado_1217940" data-name="Trazado 1217940" d="M29.958,389.044a28.15,28.15,0,0,1,7.684-4.243s7.018-1.158,8.619,3.377" transform="translate(-14.038 -326.785)" fill="none" stroke="#263238" stroke-linecap="round" stroke-miterlimit="10" stroke-width="1"/>
              <path id="Trazado_1217941" data-name="Trazado 1217941" d="M24.483,395.954s.349-.383.993-.987" transform="translate(-11.976 -330.663)" fill="none" stroke="#263238" stroke-linecap="round" stroke-miterlimit="10" stroke-width="1"/>
              <path id="Trazado_1217942" data-name="Trazado 1217942" d="M48.307,390.6s8.269-1.6,8.269,4-5.868,10.136-8.269,16.538-6.936,6.669-9.337.267S40.038,393.266,48.307,390.6Z" transform="translate(-17.151 -328.939)" fill="#aa52f9" stroke="#263238" stroke-miterlimit="10" stroke-width="1"/>
              <path id="Trazado_1217943" data-name="Trazado 1217943" d="M57.743,391.154s-7.2,2.935-9.336,12.27" transform="translate(-20.985 -329.228)" fill="#aa52f9" stroke="#263238" stroke-miterlimit="10" stroke-width="1"/>
              <line id="Línea_2195" data-name="Línea 2195" y2="15.205" transform="translate(36.225 74.197)" fill="none" stroke="#263238" stroke-linecap="round" stroke-miterlimit="10" stroke-width="1"/>
            </g>
            <g id="Grupo_1228546" data-name="Grupo 1228546" transform="translate(19.985 87.648)">
              <path id="Trazado_1217944" data-name="Trazado 1217944" d="M39.47,463.775a64.933,64.933,0,0,1-2.991-19.462,58.544,58.544,0,0,1,1.2-11.9H71.368a58.547,58.547,0,0,1,1.2,11.9,64.933,64.933,0,0,1-2.992,19.462Z" transform="translate(-36.479 -432.412)" fill="#263238"/>
              <g id="Grupo_1228545" data-name="Grupo 1228545" transform="translate(0.107 5.564)">
                <path id="Trazado_1217945" data-name="Trazado 1217945" d="M72.3,441.336q.145,1.371.226,2.782H36.65q.082-1.409.226-2.782Z" transform="translate(-36.65 -441.336)" fill="#7a7a7a"/>
                <path id="Trazado_1217946" data-name="Trazado 1217946" d="M37.09,462.463c-.112-.922-.211-1.849-.284-2.782H72.483c-.074.933-.172,1.86-.284,2.782Z" transform="translate(-36.709 -448.244)" fill="#7a7a7a"/>
              </g>
              <path id="Trazado_1217947" data-name="Trazado 1217947" d="M87.375,450.9a1.453,1.453,0,1,0,1.452-1.4A1.427,1.427,0,0,0,87.375,450.9Z" transform="translate(-55.645 -438.847)" fill="#8c8c8c"/>
              <path id="Trazado_1217948" data-name="Trazado 1217948" d="M75.732,450.9a1.453,1.453,0,1,0,1.452-1.4A1.427,1.427,0,0,0,75.732,450.9Z" transform="translate(-51.26 -438.847)" fill="#8c8c8c"/>
              <path id="Trazado_1217949" data-name="Trazado 1217949" d="M64.089,450.9a1.453,1.453,0,1,0,1.452-1.4A1.427,1.427,0,0,0,64.089,450.9Z" transform="translate(-46.876 -438.847)" fill="#8c8c8c"/>
              <path id="Trazado_1217950" data-name="Trazado 1217950" d="M52.446,450.9a1.453,1.453,0,1,0,1.452-1.4A1.427,1.427,0,0,0,52.446,450.9Z" transform="translate(-42.492 -438.847)" fill="#8c8c8c"/>
              <path id="Trazado_1217951" data-name="Trazado 1217951" d="M40.8,450.9a1.453,1.453,0,1,0,1.452-1.4A1.427,1.427,0,0,0,40.8,450.9Z" transform="translate(-38.107 -438.847)" fill="#8c8c8c"/>
            </g>
          </g>
        </g>
        <g id="Device" transform="translate(57.295 39.332)">
          <g id="Grupo_1228550" data-name="Grupo 1228550">
            <g id="Grupo_1228548" data-name="Grupo 1228548" transform="translate(117.38 224.973)">
              <path id="Trazado_1217952" data-name="Trazado 1217952" d="M396.339,446.418H312.6l12.561-46.225h58.619Z" transform="translate(-290.825 -400.193)" fill="#fff" stroke="#263238" stroke-linecap="round" stroke-linejoin="round" stroke-miterlimit="10" stroke-width="1"/>
              <path id="Trazado_1217953" data-name="Trazado 1217953" d="M394.086,425.478l-6.871-25.285H328.6l-6.871,25.285Z" transform="translate(-294.261 -400.193)" fill="#263238" stroke="#263238" stroke-linecap="round" stroke-linejoin="round" stroke-miterlimit="10" stroke-width="1"/>
              <rect id="Rectángulo_422500" data-name="Rectángulo 422500" width="127.287" height="4.689" transform="translate(0 46.225)" fill="#fff" stroke="#263238" stroke-linecap="round" stroke-linejoin="round" stroke-miterlimit="10" stroke-width="1"/>
            </g>
            <rect id="Rectángulo_422501" data-name="Rectángulo 422501" width="362.047" height="229.826" fill="#263238" stroke="#263238" stroke-linecap="round" stroke-linejoin="round" stroke-miterlimit="10" stroke-width="1"/>
            <rect id="Rectángulo_422502" data-name="Rectángulo 422502" width="338.841" height="212.303" transform="translate(11.603 8.761)" fill="#fff" stroke="#263238" stroke-linecap="round" stroke-linejoin="round" stroke-miterlimit="10" stroke-width="1"/>
            <g id="Grupo_1228549" data-name="Grupo 1228549" transform="translate(11.603 8.761)">
              <path id="Trazado_1218057" data-name="Trazado 1218057" d="M0,0H338.841V15.981H0Z" fill="#aa52f9" stroke="#263238" stroke-linecap="round" stroke-width="1"/>
              <rect id="Rectángulo_422504" data-name="Rectángulo 422504" width="172.821" height="8.085" transform="translate(22.999 3.853)" fill="#fff" stroke="#263238" stroke-linecap="round" stroke-linejoin="round" stroke-miterlimit="10" stroke-width="1"/>
              <path id="Trazado_1217954" data-name="Trazado 1217954" d="M603.028,67.651H554.476a4.042,4.042,0,0,1-4.042-4.042h0a4.042,4.042,0,0,1,4.042-4.042h48.552a4.042,4.042,0,0,1,4.042,4.042h0A4.042,4.042,0,0,1,603.028,67.651Z" transform="translate(-274.609 -55.713)" fill="#fff" stroke="#263238" stroke-linecap="round" stroke-linejoin="round" stroke-miterlimit="10" stroke-width="1"/>
            </g>
          </g>
          <g id="Grupo_1228557" data-name="Grupo 1228557" transform="translate(247.423 61.458)">
            <g id="Grupo_1228552" data-name="Grupo 1228552">
              <g id="Grupo_1228551" data-name="Grupo 1228551">
                <path id="Trazado_1217955" data-name="Trazado 1217955" d="M631.981,199.742v1.247h-1.247" transform="translate(-540.666 -161.195)" fill="none" stroke="#263238" stroke-linecap="round" stroke-linejoin="round" stroke-width="1"/>
                <line id="Línea_2196" data-name="Línea 2196" x1="85.015" transform="translate(2.516 39.794)" fill="none" stroke="#263238" stroke-linecap="round" stroke-linejoin="round" stroke-width="1" stroke-dasharray="4.071 4.071"/>
                <path id="Trazado_1217956" data-name="Trazado 1217956" d="M487.511,200.989h-1.247v-1.247" transform="translate(-486.264 -161.195)" fill="none" stroke="#263238" stroke-linecap="round" stroke-linejoin="round" stroke-width="1"/>
                <line id="Línea_2197" data-name="Línea 2197" y1="33.57" transform="translate(0 2.49)" fill="none" stroke="#263238" stroke-linecap="round" stroke-linejoin="round" stroke-width="1" stroke-dasharray="3.989 3.989"/>
                <path id="Trazado_1217957" data-name="Trazado 1217957" d="M486.264,139.159v-1.247h1.247" transform="translate(-486.264 -137.912)" fill="none" stroke="#263238" stroke-linecap="round" stroke-linejoin="round" stroke-width="1"/>
                <line id="Línea_2198" data-name="Línea 2198" x2="85.014" transform="translate(3.785)" fill="none" stroke="#263238" stroke-linecap="round" stroke-linejoin="round" stroke-width="1" stroke-dasharray="4.071 4.071"/>
                <path id="Trazado_1217958" data-name="Trazado 1217958" d="M630.734,137.912h1.247v1.247" transform="translate(-540.666 -137.912)" fill="none" stroke="#263238" stroke-linecap="round" stroke-linejoin="round" stroke-width="1"/>
                <line id="Línea_2199" data-name="Línea 2199" y2="33.571" transform="translate(91.315 3.733)" fill="none" stroke="#263238" stroke-linecap="round" stroke-linejoin="round" stroke-width="1" stroke-dasharray="3.989 3.989"/>
              </g>
            </g>
            <g id="Grupo_1228554" data-name="Grupo 1228554" transform="translate(0 50.231)">
              <g id="Grupo_1228553" data-name="Grupo 1228553">
                <path id="Trazado_1217959" data-name="Trazado 1217959" d="M631.981,280.313v1.247h-1.247" transform="translate(-540.666 -241.766)" fill="none" stroke="#263238" stroke-linecap="round" stroke-linejoin="round" stroke-width="1"/>
                <line id="Línea_2200" data-name="Línea 2200" x1="85.015" transform="translate(2.516 39.794)" fill="none" stroke="#263238" stroke-linecap="round" stroke-linejoin="round" stroke-width="1" stroke-dasharray="4.071 4.071"/>
                <path id="Trazado_1217960" data-name="Trazado 1217960" d="M487.511,281.56h-1.247v-1.247" transform="translate(-486.264 -241.766)" fill="none" stroke="#263238" stroke-linecap="round" stroke-linejoin="round" stroke-width="1"/>
                <line id="Línea_2201" data-name="Línea 2201" y1="33.57" transform="translate(0 2.49)" fill="none" stroke="#263238" stroke-linecap="round" stroke-linejoin="round" stroke-width="1" stroke-dasharray="3.989 3.989"/>
                <path id="Trazado_1217961" data-name="Trazado 1217961" d="M486.264,219.73v-1.247h1.247" transform="translate(-486.264 -218.483)" fill="none" stroke="#263238" stroke-linecap="round" stroke-linejoin="round" stroke-width="1"/>
                <line id="Línea_2202" data-name="Línea 2202" x2="85.014" transform="translate(3.785)" fill="none" stroke="#263238" stroke-linecap="round" stroke-linejoin="round" stroke-width="1" stroke-dasharray="4.071 4.071"/>
                <path id="Trazado_1217962" data-name="Trazado 1217962" d="M630.734,218.483h1.247v1.247" transform="translate(-540.666 -218.483)" fill="none" stroke="#263238" stroke-linecap="round" stroke-linejoin="round" stroke-width="1"/>
                <line id="Línea_2203" data-name="Línea 2203" y2="33.571" transform="translate(91.315 3.733)" fill="none" stroke="#263238" stroke-linecap="round" stroke-linejoin="round" stroke-width="1" stroke-dasharray="3.989 3.989"/>
              </g>
            </g>
            <g id="Grupo_1228556" data-name="Grupo 1228556" transform="translate(0 100.462)">
              <g id="Grupo_1228555" data-name="Grupo 1228555">
                <path id="Trazado_1217963" data-name="Trazado 1217963" d="M631.981,360.884v1.247h-1.247" transform="translate(-540.666 -322.337)" fill="none" stroke="#263238" stroke-linecap="round" stroke-linejoin="round" stroke-width="1"/>
                <line id="Línea_2204" data-name="Línea 2204" x1="85.015" transform="translate(2.516 39.794)" fill="none" stroke="#263238" stroke-linecap="round" stroke-linejoin="round" stroke-width="1" stroke-dasharray="4.071 4.071"/>
                <path id="Trazado_1217964" data-name="Trazado 1217964" d="M487.511,362.131h-1.247v-1.247" transform="translate(-486.264 -322.337)" fill="none" stroke="#263238" stroke-linecap="round" stroke-linejoin="round" stroke-width="1"/>
                <line id="Línea_2205" data-name="Línea 2205" y1="33.57" transform="translate(0 2.49)" fill="none" stroke="#263238" stroke-linecap="round" stroke-linejoin="round" stroke-width="1" stroke-dasharray="3.989 3.989"/>
                <path id="Trazado_1217965" data-name="Trazado 1217965" d="M486.264,300.3v-1.247h1.247" transform="translate(-486.264 -299.054)" fill="none" stroke="#263238" stroke-linecap="round" stroke-linejoin="round" stroke-width="1"/>
                <line id="Línea_2206" data-name="Línea 2206" x2="85.014" transform="translate(3.785)" fill="none" stroke="#263238" stroke-linecap="round" stroke-linejoin="round" stroke-width="1" stroke-dasharray="4.071 4.071"/>
                <path id="Trazado_1217966" data-name="Trazado 1217966" d="M630.734,299.054h1.247V300.3" transform="translate(-540.666 -299.054)" fill="none" stroke="#263238" stroke-linecap="round" stroke-linejoin="round" stroke-width="1"/>
                <line id="Línea_2207" data-name="Línea 2207" y2="33.57" transform="translate(91.315 3.733)" fill="none" stroke="#263238" stroke-linecap="round" stroke-linejoin="round" stroke-width="1" stroke-dasharray="3.989 3.989"/>
              </g>
            </g>
          </g>
          <g id="Grupo_1228562" data-name="Grupo 1228562" transform="translate(21.687 35.714)">
            <g id="Grupo_1228559" data-name="Grupo 1228559" opacity="0.29">
              <g id="Grupo_1228558" data-name="Grupo 1228558">
                <path id="Trazado_1217967" data-name="Trazado 1217967" d="M127.214,97.913h-2.433a.6.6,0,1,1,0-1.2h2.433a.6.6,0,1,1,0,1.2Zm.6,2.18a.6.6,0,0,0-.6-.6H124.78a.6.6,0,1,0,0,1.2h2.433A.6.6,0,0,0,127.814,100.094Zm0,2.781a.6.6,0,0,0-.6-.6H124.78a.6.6,0,1,0,0,1.2h2.433A.6.6,0,0,0,127.814,102.875Zm0,2.781a.6.6,0,0,0-.6-.6H124.78a.6.6,0,1,0,0,1.2h2.433A.6.6,0,0,0,127.814,105.656Zm0,2.781a.6.6,0,0,0-.6-.6H124.78a.6.6,0,1,0,0,1.2h2.433A.6.6,0,0,0,127.814,108.436Zm0,2.782a.6.6,0,0,0-.6-.6H124.78a.6.6,0,1,0,0,1.2h2.433A.6.6,0,0,0,127.814,111.218Zm0,2.781a.6.6,0,0,0-.6-.6H124.78a.6.6,0,1,0,0,1.2h2.433A.6.6,0,0,0,127.814,114Zm0,2.781a.6.6,0,0,0-.6-.6H124.78a.6.6,0,1,0,0,1.2h2.433A.6.6,0,0,0,127.814,116.78Zm9.1-19.467a.6.6,0,0,0-.6-.6H129.93a.6.6,0,0,0,0,1.2h6.388A.6.6,0,0,0,136.917,97.313Zm0,2.781a.6.6,0,0,0-.6-.6H129.93a.6.6,0,0,0,0,1.2h6.388A.6.6,0,0,0,136.917,100.094Zm0,2.781a.6.6,0,0,0-.6-.6H129.93a.6.6,0,0,0,0,1.2h6.388A.6.6,0,0,0,136.917,102.875Zm0,2.781a.6.6,0,0,0-.6-.6H129.93a.6.6,0,0,0,0,1.2h6.388A.6.6,0,0,0,136.917,105.656Zm0,2.781a.6.6,0,0,0-.6-.6H129.93a.6.6,0,0,0,0,1.2h6.388A.6.6,0,0,0,136.917,108.436Zm7.648,2.782a.6.6,0,0,0-.6-.6h-6.387a.6.6,0,0,0,0,1.2h6.388A.6.6,0,0,0,144.565,111.218Zm0,2.781a.6.6,0,0,0-.6-.6h-6.387a.6.6,0,0,0,0,1.2h6.388A.6.6,0,0,0,144.565,114Zm0,2.781a.6.6,0,0,0-.6-.6h-6.387a.6.6,0,1,0,0,1.2h6.388A.6.6,0,0,0,144.565,116.78Zm-4.837-19.467a.7.7,0,1,0-.7.7A.695.695,0,0,0,139.728,97.313Zm2.086,0a.7.7,0,1,0-.7.7A.695.695,0,0,0,141.814,97.313Zm2.085,0a.7.7,0,1,0-.7.7A.695.695,0,0,0,143.9,97.313Zm2.086,0a.7.7,0,1,0-.7.7A.695.695,0,0,0,145.986,97.313Zm2.086,0a.7.7,0,1,0-.7.7A.695.695,0,0,0,148.072,97.313Zm2.085,0a.7.7,0,1,0-.7.7A.695.695,0,0,0,150.157,97.313Zm-10.429,5.562a.7.7,0,1,0-.7.7A.695.695,0,0,0,139.728,102.875Zm2.086,0a.7.7,0,1,0-.7.7A.695.695,0,0,0,141.814,102.875Zm2.085,0a.7.7,0,1,0-.7.7A.695.695,0,0,0,143.9,102.875Zm2.086,0a.7.7,0,1,0-.7.7A.695.695,0,0,0,145.986,102.875Zm2.086,0a.7.7,0,1,0-.7.7A.695.695,0,0,0,148.072,102.875Zm2.085,0a.7.7,0,1,0-.7.7A.695.695,0,0,0,150.157,102.875Zm-3.3,8a.7.7,0,1,0-.7.7A.695.695,0,0,0,146.855,110.87Zm2.085,0a.7.7,0,1,0-.7.7A.695.695,0,0,0,148.94,110.87Zm2.086,0a.7.7,0,1,0-.7.7A.695.695,0,0,0,151.026,110.87Zm2.085,0a.7.7,0,1,0-.7.7A.695.695,0,0,0,153.112,110.87Zm2.086,0a.7.7,0,1,0-.7.7A.695.695,0,0,0,155.2,110.87Zm2.086,0a.7.7,0,1,0-.7.7A.695.695,0,0,0,157.284,110.87Zm-10.429,5.736a.7.7,0,1,0-.7.7A.695.695,0,0,0,146.855,116.606Zm2.085,0a.7.7,0,1,0-.7.7A.695.695,0,0,0,148.94,116.606Zm2.086,0a.7.7,0,1,0-.7.7A.695.695,0,0,0,151.026,116.606Zm2.085,0a.7.7,0,1,0-.7.7A.695.695,0,0,0,153.112,116.606Zm2.086,0a.7.7,0,1,0-.7.7A.695.695,0,0,0,155.2,116.606Zm2.086,0a.7.7,0,1,0-.7.7A.695.695,0,0,0,157.284,116.606Z" transform="translate(-124.18 -96.618)"/>
                <path id="Trazado_1217968" data-name="Trazado 1217968" d="M127.214,133.609h-2.433a.6.6,0,0,1,0-1.2h2.433a.6.6,0,0,1,0,1.2Zm.6,2.181a.6.6,0,0,0-.6-.6H124.78a.6.6,0,0,0,0,1.2h2.433A.6.6,0,0,0,127.814,135.789Zm0,2.781a.6.6,0,0,0-.6-.6H124.78a.6.6,0,1,0,0,1.2h2.433A.6.6,0,0,0,127.814,138.57Zm0,2.781a.6.6,0,0,0-.6-.6H124.78a.6.6,0,1,0,0,1.2h2.433A.6.6,0,0,0,127.814,141.351Zm0,2.781a.6.6,0,0,0-.6-.6H124.78a.6.6,0,1,0,0,1.2h2.433A.6.6,0,0,0,127.814,144.132Zm0,2.781a.6.6,0,0,0-.6-.6H124.78a.6.6,0,1,0,0,1.2h2.433A.6.6,0,0,0,127.814,146.913Zm0,2.781a.6.6,0,0,0-.6-.6H124.78a.6.6,0,1,0,0,1.2h2.433A.6.6,0,0,0,127.814,149.694Zm0,2.781a.6.6,0,0,0-.6-.6H124.78a.6.6,0,1,0,0,1.2h2.433A.6.6,0,0,0,127.814,152.475Zm9.1-19.467a.6.6,0,0,0-.6-.6H129.93a.6.6,0,0,0,0,1.2h6.388A.6.6,0,0,0,136.917,133.008Zm0,2.781a.6.6,0,0,0-.6-.6H129.93a.6.6,0,0,0,0,1.2h6.388A.6.6,0,0,0,136.917,135.789Zm0,2.781a.6.6,0,0,0-.6-.6H129.93a.6.6,0,0,0,0,1.2h6.388A.6.6,0,0,0,136.917,138.57Zm0,2.781a.6.6,0,0,0-.6-.6H129.93a.6.6,0,0,0,0,1.2h6.388A.6.6,0,0,0,136.917,141.351Zm0,2.781a.6.6,0,0,0-.6-.6H129.93a.6.6,0,0,0,0,1.2h6.388A.6.6,0,0,0,136.917,144.132Zm7.648,2.781a.6.6,0,0,0-.6-.6h-6.387a.6.6,0,0,0,0,1.2h6.388A.6.6,0,0,0,144.565,146.913Zm0,2.781a.6.6,0,0,0-.6-.6h-6.387a.6.6,0,1,0,0,1.2h6.388A.6.6,0,0,0,144.565,149.694Zm0,2.781a.6.6,0,0,0-.6-.6h-6.387a.6.6,0,1,0,0,1.2h6.388A.6.6,0,0,0,144.565,152.475Zm-4.837-19.467a.7.7,0,1,0-.7.7A.695.695,0,0,0,139.728,133.008Zm2.086,0a.7.7,0,1,0-.7.7A.695.695,0,0,0,141.814,133.008Zm2.085,0a.7.7,0,1,0-.7.7A.695.695,0,0,0,143.9,133.008Zm2.086,0a.7.7,0,1,0-.7.7A.695.695,0,0,0,145.986,133.008Zm2.086,0a.7.7,0,1,0-.7.7A.695.695,0,0,0,148.072,133.008Zm2.085,0a.7.7,0,1,0-.7.7A.695.695,0,0,0,150.157,133.008Zm-10.429,5.562a.7.7,0,1,0-.7.7A.695.695,0,0,0,139.728,138.57Zm2.086,0a.7.7,0,1,0-.7.7A.695.695,0,0,0,141.814,138.57Zm2.085,0a.7.7,0,1,0-.7.7A.695.695,0,0,0,143.9,138.57Zm2.086,0a.7.7,0,1,0-.7.7A.695.695,0,0,0,145.986,138.57Zm2.086,0a.7.7,0,1,0-.7.7A.695.695,0,0,0,148.072,138.57Zm2.085,0a.7.7,0,1,0-.7.7A.695.695,0,0,0,150.157,138.57Zm-3.3,8a.7.7,0,1,0-.7.7A.695.695,0,0,0,146.855,146.565Zm2.085,0a.7.7,0,1,0-.7.7A.695.695,0,0,0,148.94,146.565Zm2.086,0a.7.7,0,1,0-.7.7A.695.695,0,0,0,151.026,146.565Zm2.085,0a.7.7,0,1,0-.7.7A.695.695,0,0,0,153.112,146.565Zm2.086,0a.7.7,0,1,0-.7.7A.695.695,0,0,0,155.2,146.565Zm2.086,0a.7.7,0,1,0-.7.7A.695.695,0,0,0,157.284,146.565ZM146.855,152.3a.7.7,0,1,0-.7.7A.695.695,0,0,0,146.855,152.3Zm2.085,0a.7.7,0,1,0-.7.7A.695.695,0,0,0,148.94,152.3Zm2.086,0a.7.7,0,1,0-.7.7A.695.695,0,0,0,151.026,152.3Zm2.085,0a.7.7,0,1,0-.7.7A.695.695,0,0,0,153.112,152.3Zm2.086,0a.7.7,0,1,0-.7.7A.695.695,0,0,0,155.2,152.3Zm2.086,0a.7.7,0,1,0-.7.7A.695.695,0,0,0,157.284,152.3Z" transform="translate(-124.18 -110.059)"/>
                <path id="Trazado_1217969" data-name="Trazado 1217969" d="M127.214,170.166h-2.433a.6.6,0,1,1,0-1.2h2.433a.6.6,0,1,1,0,1.2Zm.6,2.18a.6.6,0,0,0-.6-.6H124.78a.6.6,0,1,0,0,1.2h2.433A.6.6,0,0,0,127.814,172.346Zm0,2.781a.6.6,0,0,0-.6-.6H124.78a.6.6,0,1,0,0,1.2h2.433A.6.6,0,0,0,127.814,175.127Zm0,2.781a.6.6,0,0,0-.6-.6H124.78a.6.6,0,1,0,0,1.2h2.433A.6.6,0,0,0,127.814,177.908Zm0,2.781a.6.6,0,0,0-.6-.6H124.78a.6.6,0,1,0,0,1.2h2.433A.6.6,0,0,0,127.814,180.688Zm0,2.782a.6.6,0,0,0-.6-.6H124.78a.6.6,0,1,0,0,1.2h2.433A.6.6,0,0,0,127.814,183.47Zm0,2.781a.6.6,0,0,0-.6-.6H124.78a.6.6,0,1,0,0,1.2h2.433A.6.6,0,0,0,127.814,186.251Zm0,2.781a.6.6,0,0,0-.6-.6H124.78a.6.6,0,1,0,0,1.2h2.433A.6.6,0,0,0,127.814,189.032Zm9.1-19.467a.6.6,0,0,0-.6-.6H129.93a.6.6,0,0,0,0,1.2h6.388A.6.6,0,0,0,136.917,169.565Zm0,2.781a.6.6,0,0,0-.6-.6H129.93a.6.6,0,0,0,0,1.2h6.388A.6.6,0,0,0,136.917,172.346Zm0,2.781a.6.6,0,0,0-.6-.6H129.93a.6.6,0,0,0,0,1.2h6.388A.6.6,0,0,0,136.917,175.127Zm0,2.781a.6.6,0,0,0-.6-.6H129.93a.6.6,0,0,0,0,1.2h6.388A.6.6,0,0,0,136.917,177.908Zm0,2.781a.6.6,0,0,0-.6-.6H129.93a.6.6,0,0,0,0,1.2h6.388A.6.6,0,0,0,136.917,180.688Zm7.648,2.782a.6.6,0,0,0-.6-.6h-6.387a.6.6,0,0,0,0,1.2h6.388A.6.6,0,0,0,144.565,183.47Zm0,2.781a.6.6,0,0,0-.6-.6h-6.387a.6.6,0,1,0,0,1.2h6.388A.6.6,0,0,0,144.565,186.251Zm0,2.781a.6.6,0,0,0-.6-.6h-6.387a.6.6,0,0,0,0,1.2h6.388A.6.6,0,0,0,144.565,189.032Zm-4.837-19.467a.7.7,0,1,0-.7.7A.695.695,0,0,0,139.728,169.565Zm2.086,0a.7.7,0,1,0-.7.7A.695.695,0,0,0,141.814,169.565Zm2.085,0a.7.7,0,1,0-.7.7A.695.695,0,0,0,143.9,169.565Zm2.086,0a.7.7,0,1,0-.7.7A.695.695,0,0,0,145.986,169.565Zm2.086,0a.7.7,0,1,0-.7.7A.695.695,0,0,0,148.072,169.565Zm2.085,0a.7.7,0,1,0-.7.7A.695.695,0,0,0,150.157,169.565Zm-10.429,5.562a.7.7,0,1,0-.7.7A.695.695,0,0,0,139.728,175.127Zm2.086,0a.7.7,0,1,0-.7.7A.695.695,0,0,0,141.814,175.127Zm2.085,0a.7.7,0,1,0-.7.7A.695.695,0,0,0,143.9,175.127Zm2.086,0a.7.7,0,1,0-.7.7A.695.695,0,0,0,145.986,175.127Zm2.086,0a.7.7,0,1,0-.7.7A.695.695,0,0,0,148.072,175.127Zm2.085,0a.7.7,0,1,0-.7.7A.695.695,0,0,0,150.157,175.127Zm-3.3,8a.7.7,0,1,0-.7.7A.695.695,0,0,0,146.855,183.122Zm2.085,0a.7.7,0,1,0-.7.7A.695.695,0,0,0,148.94,183.122Zm2.086,0a.7.7,0,1,0-.7.7A.695.695,0,0,0,151.026,183.122Zm2.085,0a.7.7,0,1,0-.7.7A.695.695,0,0,0,153.112,183.122Zm2.086,0a.7.7,0,1,0-.7.7A.695.695,0,0,0,155.2,183.122Zm2.086,0a.7.7,0,1,0-.7.7A.695.695,0,0,0,157.284,183.122Zm-10.429,5.736a.7.7,0,1,0-.7.7A.695.695,0,0,0,146.855,188.859Zm2.085,0a.7.7,0,1,0-.7.7A.695.695,0,0,0,148.94,188.859Zm2.086,0a.7.7,0,1,0-.7.7A.695.695,0,0,0,151.026,188.859Zm2.085,0a.7.7,0,1,0-.7.7A.695.695,0,0,0,153.112,188.859Zm2.086,0a.7.7,0,1,0-.7.7A.695.695,0,0,0,155.2,188.859Zm2.086,0a.7.7,0,1,0-.7.7A.695.695,0,0,0,157.284,188.859Z" transform="translate(-124.18 -123.826)"/>
                <path id="Trazado_1217970" data-name="Trazado 1217970" d="M187.139,97.913h-2.433a.6.6,0,1,1,0-1.2h2.433a.6.6,0,1,1,0,1.2Zm.6,2.18a.6.6,0,0,0-.6-.6h-2.433a.6.6,0,1,0,0,1.2h2.433A.6.6,0,0,0,187.739,100.094Zm0,2.781a.6.6,0,0,0-.6-.6h-2.433a.6.6,0,1,0,0,1.2h2.433A.6.6,0,0,0,187.739,102.875Zm0,2.781a.6.6,0,0,0-.6-.6h-2.433a.6.6,0,1,0,0,1.2h2.433A.6.6,0,0,0,187.739,105.656Zm0,2.781a.6.6,0,0,0-.6-.6h-2.433a.6.6,0,1,0,0,1.2h2.433A.6.6,0,0,0,187.739,108.436Zm0,2.782a.6.6,0,0,0-.6-.6h-2.433a.6.6,0,1,0,0,1.2h2.433A.6.6,0,0,0,187.739,111.218Zm0,2.781a.6.6,0,0,0-.6-.6h-2.433a.6.6,0,1,0,0,1.2h2.433A.6.6,0,0,0,187.739,114Zm0,2.781a.6.6,0,0,0-.6-.6h-2.433a.6.6,0,1,0,0,1.2h2.433A.6.6,0,0,0,187.739,116.78Zm9.1-19.467a.6.6,0,0,0-.6-.6h-6.388a.6.6,0,1,0,0,1.2h6.388A.6.6,0,0,0,196.842,97.313Zm0,2.781a.6.6,0,0,0-.6-.6h-6.388a.6.6,0,1,0,0,1.2h6.388A.6.6,0,0,0,196.842,100.094Zm0,2.781a.6.6,0,0,0-.6-.6h-6.388a.6.6,0,0,0,0,1.2h6.388A.6.6,0,0,0,196.842,102.875Zm0,2.781a.6.6,0,0,0-.6-.6h-6.388a.6.6,0,0,0,0,1.2h6.388A.6.6,0,0,0,196.842,105.656Zm0,2.781a.6.6,0,0,0-.6-.6h-6.388a.6.6,0,0,0,0,1.2h6.388A.6.6,0,0,0,196.842,108.436Zm7.648,2.782a.6.6,0,0,0-.6-.6H197.5a.6.6,0,0,0,0,1.2h6.388A.6.6,0,0,0,204.49,111.218Zm0,2.781a.6.6,0,0,0-.6-.6H197.5a.6.6,0,0,0,0,1.2h6.388A.6.6,0,0,0,204.49,114Zm0,2.781a.6.6,0,0,0-.6-.6H197.5a.6.6,0,1,0,0,1.2h6.388A.6.6,0,0,0,204.49,116.78Zm-4.836-19.467a.7.7,0,1,0-.7.7A.695.695,0,0,0,199.654,97.313Zm2.085,0a.7.7,0,1,0-.7.7A.695.695,0,0,0,201.74,97.313Zm2.085,0a.7.7,0,1,0-.7.7A.695.695,0,0,0,203.825,97.313Zm2.086,0a.7.7,0,1,0-.7.7A.695.695,0,0,0,205.911,97.313Zm2.086,0a.7.7,0,1,0-.7.7A.695.695,0,0,0,208,97.313Zm2.085,0a.7.7,0,1,0-.7.7A.7.7,0,0,0,210.082,97.313Zm-10.428,5.562a.7.7,0,1,0-.7.7A.695.695,0,0,0,199.654,102.875Zm2.085,0a.7.7,0,1,0-.7.7A.695.695,0,0,0,201.74,102.875Zm2.085,0a.7.7,0,1,0-.7.7A.695.695,0,0,0,203.825,102.875Zm2.086,0a.7.7,0,1,0-.7.7A.695.695,0,0,0,205.911,102.875Zm2.086,0a.7.7,0,1,0-.7.7A.695.695,0,0,0,208,102.875Zm2.085,0a.7.7,0,1,0-.7.7A.7.7,0,0,0,210.082,102.875Zm-3.3,8a.7.7,0,1,0-.7.7A.695.695,0,0,0,206.78,110.87Zm2.086,0a.7.7,0,1,0-.7.7A.695.695,0,0,0,208.866,110.87Zm2.085,0a.7.7,0,1,0-.7.7A.695.695,0,0,0,210.951,110.87Zm2.086,0a.7.7,0,1,0-.7.7A.695.695,0,0,0,213.037,110.87Zm2.085,0a.7.7,0,1,0-.7.7A.695.695,0,0,0,215.123,110.87Zm2.085,0a.7.7,0,1,0-.7.7A.695.695,0,0,0,217.208,110.87Zm-10.428,5.736a.7.7,0,1,0-.7.7A.695.695,0,0,0,206.78,116.606Zm2.086,0a.7.7,0,1,0-.7.7A.695.695,0,0,0,208.866,116.606Zm2.085,0a.7.7,0,1,0-.7.7A.695.695,0,0,0,210.951,116.606Zm2.086,0a.7.7,0,1,0-.7.7A.695.695,0,0,0,213.037,116.606Zm2.085,0a.7.7,0,1,0-.7.7A.695.695,0,0,0,215.123,116.606Zm2.085,0a.7.7,0,1,0-.7.7A.695.695,0,0,0,217.208,116.606Z" transform="translate(-146.746 -96.618)"/>
                <path id="Trazado_1217971" data-name="Trazado 1217971" d="M187.139,134.47h-2.433a.6.6,0,1,1,0-1.2h2.433a.6.6,0,1,1,0,1.2Zm.6,2.18a.6.6,0,0,0-.6-.6h-2.433a.6.6,0,1,0,0,1.2h2.433A.6.6,0,0,0,187.739,136.651Zm0,2.781a.6.6,0,0,0-.6-.6h-2.433a.6.6,0,1,0,0,1.2h2.433A.6.6,0,0,0,187.739,139.432Zm0,2.781a.6.6,0,0,0-.6-.6h-2.433a.6.6,0,1,0,0,1.2h2.433A.6.6,0,0,0,187.739,142.213Zm0,2.781a.6.6,0,0,0-.6-.6h-2.433a.6.6,0,1,0,0,1.2h2.433A.6.6,0,0,0,187.739,144.993Zm0,2.782a.6.6,0,0,0-.6-.6h-2.433a.6.6,0,1,0,0,1.2h2.433A.6.6,0,0,0,187.739,147.775Zm0,2.781a.6.6,0,0,0-.6-.6h-2.433a.6.6,0,1,0,0,1.2h2.433A.6.6,0,0,0,187.739,150.556Zm0,2.781a.6.6,0,0,0-.6-.6h-2.433a.6.6,0,1,0,0,1.2h2.433A.6.6,0,0,0,187.739,153.337Zm9.1-19.467a.6.6,0,0,0-.6-.6h-6.388a.6.6,0,1,0,0,1.2h6.388A.6.6,0,0,0,196.842,133.87Zm0,2.781a.6.6,0,0,0-.6-.6h-6.388a.6.6,0,1,0,0,1.2h6.388A.6.6,0,0,0,196.842,136.651Zm0,2.781a.6.6,0,0,0-.6-.6h-6.388a.6.6,0,0,0,0,1.2h6.388A.6.6,0,0,0,196.842,139.432Zm0,2.781a.6.6,0,0,0-.6-.6h-6.388a.6.6,0,1,0,0,1.2h6.388A.6.6,0,0,0,196.842,142.213Zm0,2.781a.6.6,0,0,0-.6-.6h-6.388a.6.6,0,1,0,0,1.2h6.388A.6.6,0,0,0,196.842,144.993Zm7.648,2.782a.6.6,0,0,0-.6-.6H197.5a.6.6,0,1,0,0,1.2h6.388A.6.6,0,0,0,204.49,147.775Zm0,2.781a.6.6,0,0,0-.6-.6H197.5a.6.6,0,1,0,0,1.2h6.388A.6.6,0,0,0,204.49,150.556Zm0,2.781a.6.6,0,0,0-.6-.6H197.5a.6.6,0,1,0,0,1.2h6.388A.6.6,0,0,0,204.49,153.337Zm-4.836-19.467a.7.7,0,1,0-.7.7A.695.695,0,0,0,199.654,133.87Zm2.085,0a.7.7,0,1,0-.7.7A.695.695,0,0,0,201.74,133.87Zm2.085,0a.7.7,0,1,0-.7.7A.695.695,0,0,0,203.825,133.87Zm2.086,0a.7.7,0,1,0-.7.7A.695.695,0,0,0,205.911,133.87Zm2.086,0a.7.7,0,1,0-.7.7A.695.695,0,0,0,208,133.87Zm2.085,0a.7.7,0,1,0-.7.7A.7.7,0,0,0,210.082,133.87Zm-10.428,5.562a.7.7,0,1,0-.7.7A.695.695,0,0,0,199.654,139.432Zm2.085,0a.7.7,0,1,0-.7.7A.695.695,0,0,0,201.74,139.432Zm2.085,0a.7.7,0,1,0-.7.7A.695.695,0,0,0,203.825,139.432Zm2.086,0a.7.7,0,1,0-.7.7A.695.695,0,0,0,205.911,139.432Zm2.086,0a.7.7,0,1,0-.7.7A.695.695,0,0,0,208,139.432Zm2.085,0a.7.7,0,1,0-.7.7A.7.7,0,0,0,210.082,139.432Zm-3.3,8a.7.7,0,1,0-.7.7A.695.695,0,0,0,206.78,147.427Zm2.086,0a.7.7,0,1,0-.7.7A.695.695,0,0,0,208.866,147.427Zm2.085,0a.7.7,0,1,0-.7.7A.695.695,0,0,0,210.951,147.427Zm2.086,0a.7.7,0,1,0-.7.7A.695.695,0,0,0,213.037,147.427Zm2.085,0a.7.7,0,1,0-.7.7A.695.695,0,0,0,215.123,147.427Zm2.085,0a.7.7,0,1,0-.7.7A.695.695,0,0,0,217.208,147.427Zm-10.428,5.736a.7.7,0,1,0-.7.7A.695.695,0,0,0,206.78,153.163Zm2.086,0a.7.7,0,1,0-.7.7A.695.695,0,0,0,208.866,153.163Zm2.085,0a.7.7,0,1,0-.7.7A.695.695,0,0,0,210.951,153.163Zm2.086,0a.7.7,0,1,0-.7.7A.695.695,0,0,0,213.037,153.163Zm2.085,0a.7.7,0,1,0-.7.7A.695.695,0,0,0,215.123,153.163Zm2.085,0a.7.7,0,1,0-.7.7A.695.695,0,0,0,217.208,153.163Z" transform="translate(-146.746 -110.384)"/>
              </g>
            </g>
            <g id="Grupo_1228561" data-name="Grupo 1228561" transform="translate(0 111.551)" opacity="0.29">
              <g id="Grupo_1228560" data-name="Grupo 1228560">
                <path id="Trazado_1217972" data-name="Trazado 1217972" d="M127.214,276.842h-2.433a.6.6,0,1,1,0-1.2h2.433a.6.6,0,1,1,0,1.2Zm.6,2.181a.6.6,0,0,0-.6-.6H124.78a.6.6,0,1,0,0,1.2h2.433A.6.6,0,0,0,127.814,279.023Zm0,2.781a.6.6,0,0,0-.6-.6H124.78a.6.6,0,1,0,0,1.2h2.433A.6.6,0,0,0,127.814,281.8Zm0,2.781a.6.6,0,0,0-.6-.6H124.78a.6.6,0,0,0,0,1.2h2.433A.6.6,0,0,0,127.814,284.585Zm0,2.781a.6.6,0,0,0-.6-.6H124.78a.6.6,0,1,0,0,1.2h2.433A.6.6,0,0,0,127.814,287.366Zm0,2.781a.6.6,0,0,0-.6-.6H124.78a.6.6,0,0,0,0,1.2h2.433A.6.6,0,0,0,127.814,290.147Zm0,2.781a.6.6,0,0,0-.6-.6H124.78a.6.6,0,1,0,0,1.2h2.433A.6.6,0,0,0,127.814,292.928Zm0,2.781a.6.6,0,0,0-.6-.6H124.78a.6.6,0,1,0,0,1.2h2.433A.6.6,0,0,0,127.814,295.71Zm9.1-19.467a.6.6,0,0,0-.6-.6H129.93a.6.6,0,0,0,0,1.2h6.388A.6.6,0,0,0,136.917,276.242Zm0,2.781a.6.6,0,0,0-.6-.6H129.93a.6.6,0,0,0,0,1.2h6.388A.6.6,0,0,0,136.917,279.023Zm0,2.781a.6.6,0,0,0-.6-.6H129.93a.6.6,0,0,0,0,1.2h6.388A.6.6,0,0,0,136.917,281.8Zm0,2.781a.6.6,0,0,0-.6-.6H129.93a.6.6,0,0,0,0,1.2h6.388A.6.6,0,0,0,136.917,284.585Zm0,2.781a.6.6,0,0,0-.6-.6H129.93a.6.6,0,0,0,0,1.2h6.388A.6.6,0,0,0,136.917,287.366Zm7.648,2.781a.6.6,0,0,0-.6-.6h-6.387a.6.6,0,0,0,0,1.2h6.388A.6.6,0,0,0,144.565,290.147Zm0,2.781a.6.6,0,0,0-.6-.6h-6.387a.6.6,0,1,0,0,1.2h6.388A.6.6,0,0,0,144.565,292.928Zm0,2.781a.6.6,0,0,0-.6-.6h-6.387a.6.6,0,1,0,0,1.2h6.388A.6.6,0,0,0,144.565,295.71Zm-4.837-19.467a.7.7,0,1,0-.7.7A.695.695,0,0,0,139.728,276.242Zm2.086,0a.7.7,0,1,0-.7.7A.695.695,0,0,0,141.814,276.242Zm2.085,0a.7.7,0,1,0-.7.7A.695.695,0,0,0,143.9,276.242Zm2.086,0a.7.7,0,1,0-.7.7A.695.695,0,0,0,145.986,276.242Zm2.086,0a.7.7,0,1,0-.7.7A.695.695,0,0,0,148.072,276.242Zm2.085,0a.7.7,0,1,0-.7.7A.695.695,0,0,0,150.157,276.242ZM139.728,281.8a.7.7,0,1,0-.7.7A.695.695,0,0,0,139.728,281.8Zm2.086,0a.7.7,0,1,0-.7.7A.695.695,0,0,0,141.814,281.8Zm2.085,0a.7.7,0,1,0-.7.7A.695.695,0,0,0,143.9,281.8Zm2.086,0a.7.7,0,1,0-.7.7A.695.695,0,0,0,145.986,281.8Zm2.086,0a.7.7,0,1,0-.7.7A.695.695,0,0,0,148.072,281.8Zm2.085,0a.7.7,0,1,0-.7.7A.695.695,0,0,0,150.157,281.8Zm-3.3,8a.7.7,0,1,0-.7.7A.695.695,0,0,0,146.855,289.8Zm2.085,0a.7.7,0,1,0-.7.7A.695.695,0,0,0,148.94,289.8Zm2.086,0a.7.7,0,1,0-.7.7A.695.695,0,0,0,151.026,289.8Zm2.085,0a.7.7,0,1,0-.7.7A.695.695,0,0,0,153.112,289.8Zm2.086,0a.7.7,0,1,0-.7.7A.695.695,0,0,0,155.2,289.8Zm2.086,0a.7.7,0,1,0-.7.7A.695.695,0,0,0,157.284,289.8Zm-10.429,5.736a.7.7,0,1,0-.7.7A.695.695,0,0,0,146.855,295.536Zm2.085,0a.7.7,0,1,0-.7.7A.695.695,0,0,0,148.94,295.536Zm2.086,0a.7.7,0,1,0-.7.7A.695.695,0,0,0,151.026,295.536Zm2.085,0a.7.7,0,1,0-.7.7A.695.695,0,0,0,153.112,295.536Zm2.086,0a.7.7,0,1,0-.7.7A.695.695,0,0,0,155.2,295.536Zm2.086,0a.7.7,0,1,0-.7.7A.695.695,0,0,0,157.284,295.536Z" transform="translate(-124.18 -275.547)"/>
                <path id="Trazado_1217973" data-name="Trazado 1217973" d="M127.214,312.538h-2.433a.6.6,0,0,1,0-1.2h2.433a.6.6,0,0,1,0,1.2Zm.6,2.181a.6.6,0,0,0-.6-.6H124.78a.6.6,0,1,0,0,1.2h2.433A.6.6,0,0,0,127.814,314.719Zm0,2.781a.6.6,0,0,0-.6-.6H124.78a.6.6,0,1,0,0,1.2h2.433A.6.6,0,0,0,127.814,317.5Zm0,2.781a.6.6,0,0,0-.6-.6H124.78a.6.6,0,1,0,0,1.2h2.433A.6.6,0,0,0,127.814,320.281Zm0,2.781a.6.6,0,0,0-.6-.6H124.78a.6.6,0,1,0,0,1.2h2.433A.6.6,0,0,0,127.814,323.061Zm0,2.782a.6.6,0,0,0-.6-.6H124.78a.6.6,0,0,0,0,1.2h2.433A.6.6,0,0,0,127.814,325.843Zm0,2.78a.6.6,0,0,0-.6-.6H124.78a.6.6,0,1,0,0,1.2h2.433A.6.6,0,0,0,127.814,328.624Zm0,2.781a.6.6,0,0,0-.6-.6H124.78a.6.6,0,1,0,0,1.2h2.433A.6.6,0,0,0,127.814,331.4Zm9.1-19.467a.6.6,0,0,0-.6-.6H129.93a.6.6,0,0,0,0,1.2h6.388A.6.6,0,0,0,136.917,311.938Zm0,2.781a.6.6,0,0,0-.6-.6H129.93a.6.6,0,0,0,0,1.2h6.388A.6.6,0,0,0,136.917,314.719Zm0,2.781a.6.6,0,0,0-.6-.6H129.93a.6.6,0,0,0,0,1.2h6.388A.6.6,0,0,0,136.917,317.5Zm0,2.781a.6.6,0,0,0-.6-.6H129.93a.6.6,0,0,0,0,1.2h6.388A.6.6,0,0,0,136.917,320.281Zm0,2.781a.6.6,0,0,0-.6-.6H129.93a.6.6,0,0,0,0,1.2h6.388A.6.6,0,0,0,136.917,323.061Zm7.648,2.782a.6.6,0,0,0-.6-.6h-6.387a.6.6,0,0,0,0,1.2h6.388A.6.6,0,0,0,144.565,325.843Zm0,2.78a.6.6,0,0,0-.6-.6h-6.387a.6.6,0,1,0,0,1.2h6.388A.6.6,0,0,0,144.565,328.624Zm0,2.781a.6.6,0,0,0-.6-.6h-6.387a.6.6,0,1,0,0,1.2h6.388A.6.6,0,0,0,144.565,331.4Zm-4.837-19.467a.7.7,0,1,0-.7.7A.695.695,0,0,0,139.728,311.938Zm2.086,0a.7.7,0,1,0-.7.7A.695.695,0,0,0,141.814,311.938Zm2.085,0a.7.7,0,1,0-.7.7A.695.695,0,0,0,143.9,311.938Zm2.086,0a.7.7,0,1,0-.7.7A.695.695,0,0,0,145.986,311.938Zm2.086,0a.7.7,0,1,0-.7.7A.695.695,0,0,0,148.072,311.938Zm2.085,0a.7.7,0,1,0-.7.7A.695.695,0,0,0,150.157,311.938ZM139.728,317.5a.7.7,0,1,0-.7.7A.695.695,0,0,0,139.728,317.5Zm2.086,0a.7.7,0,1,0-.7.7A.695.695,0,0,0,141.814,317.5Zm2.085,0a.7.7,0,1,0-.7.7A.695.695,0,0,0,143.9,317.5Zm2.086,0a.7.7,0,1,0-.7.7A.695.695,0,0,0,145.986,317.5Zm2.086,0a.7.7,0,1,0-.7.7A.695.695,0,0,0,148.072,317.5Zm2.085,0a.7.7,0,1,0-.7.7A.695.695,0,0,0,150.157,317.5Zm-3.3,8a.7.7,0,1,0-.7.7A.695.695,0,0,0,146.855,325.5Zm2.085,0a.7.7,0,1,0-.7.7A.695.695,0,0,0,148.94,325.5Zm2.086,0a.7.7,0,1,0-.7.7A.695.695,0,0,0,151.026,325.5Zm2.085,0a.7.7,0,1,0-.7.7A.695.695,0,0,0,153.112,325.5Zm2.086,0a.7.7,0,1,0-.7.7A.695.695,0,0,0,155.2,325.5Zm2.086,0a.7.7,0,1,0-.7.7A.695.695,0,0,0,157.284,325.5Zm-10.429,5.736a.7.7,0,1,0-.7.7A.695.695,0,0,0,146.855,331.231Zm2.085,0a.7.7,0,1,0-.7.7A.695.695,0,0,0,148.94,331.231Zm2.086,0a.7.7,0,1,0-.7.7A.695.695,0,0,0,151.026,331.231Zm2.085,0a.7.7,0,1,0-.7.7A.695.695,0,0,0,153.112,331.231Zm2.086,0a.7.7,0,1,0-.7.7A.695.695,0,0,0,155.2,331.231Zm2.086,0a.7.7,0,1,0-.7.7A.695.695,0,0,0,157.284,331.231Z" transform="translate(-124.18 -288.989)"/>
                <path id="Trazado_1217974" data-name="Trazado 1217974" d="M127.214,349.1h-2.433a.6.6,0,0,1,0-1.2h2.433a.6.6,0,0,1,0,1.2Zm.6,2.18a.6.6,0,0,0-.6-.6H124.78a.6.6,0,1,0,0,1.2h2.433A.6.6,0,0,0,127.814,351.276Zm0,2.781a.6.6,0,0,0-.6-.6H124.78a.6.6,0,0,0,0,1.2h2.433A.6.6,0,0,0,127.814,354.057Zm0,2.781a.6.6,0,0,0-.6-.6H124.78a.6.6,0,1,0,0,1.2h2.433A.6.6,0,0,0,127.814,356.838Zm0,2.781a.6.6,0,0,0-.6-.6H124.78a.6.6,0,1,0,0,1.2h2.433A.6.6,0,0,0,127.814,359.618Zm0,2.782a.6.6,0,0,0-.6-.6H124.78a.6.6,0,0,0,0,1.2h2.433A.6.6,0,0,0,127.814,362.4Zm0,2.78a.6.6,0,0,0-.6-.6H124.78a.6.6,0,1,0,0,1.2h2.433A.6.6,0,0,0,127.814,365.181Zm0,2.781a.6.6,0,0,0-.6-.6H124.78a.6.6,0,1,0,0,1.2h2.433A.6.6,0,0,0,127.814,367.962Zm9.1-19.467a.6.6,0,0,0-.6-.6H129.93a.6.6,0,0,0,0,1.2h6.388A.6.6,0,0,0,136.917,348.5Zm0,2.78a.6.6,0,0,0-.6-.6H129.93a.6.6,0,0,0,0,1.2h6.388A.6.6,0,0,0,136.917,351.276Zm0,2.781a.6.6,0,0,0-.6-.6H129.93a.6.6,0,0,0,0,1.2h6.388A.6.6,0,0,0,136.917,354.057Zm0,2.781a.6.6,0,0,0-.6-.6H129.93a.6.6,0,0,0,0,1.2h6.388A.6.6,0,0,0,136.917,356.838Zm0,2.781a.6.6,0,0,0-.6-.6H129.93a.6.6,0,0,0,0,1.2h6.388A.6.6,0,0,0,136.917,359.618Zm7.648,2.782a.6.6,0,0,0-.6-.6h-6.387a.6.6,0,0,0,0,1.2h6.388A.6.6,0,0,0,144.565,362.4Zm0,2.78a.6.6,0,0,0-.6-.6h-6.387a.6.6,0,1,0,0,1.2h6.388A.6.6,0,0,0,144.565,365.181Zm0,2.781a.6.6,0,0,0-.6-.6h-6.387a.6.6,0,1,0,0,1.2h6.388A.6.6,0,0,0,144.565,367.962ZM139.728,348.5a.7.7,0,1,0-.7.7A.695.695,0,0,0,139.728,348.5Zm2.086,0a.7.7,0,1,0-.7.7A.695.695,0,0,0,141.814,348.5Zm2.085,0a.7.7,0,1,0-.7.7A.695.695,0,0,0,143.9,348.5Zm2.086,0a.7.7,0,1,0-.7.7A.695.695,0,0,0,145.986,348.5Zm2.086,0a.7.7,0,1,0-.7.7A.695.695,0,0,0,148.072,348.5Zm2.085,0a.7.7,0,1,0-.7.7A.695.695,0,0,0,150.157,348.5Zm-10.429,5.562a.7.7,0,1,0-.7.7A.695.695,0,0,0,139.728,354.057Zm2.086,0a.7.7,0,1,0-.7.7A.695.695,0,0,0,141.814,354.057Zm2.085,0a.7.7,0,1,0-.7.7A.695.695,0,0,0,143.9,354.057Zm2.086,0a.7.7,0,1,0-.7.7A.695.695,0,0,0,145.986,354.057Zm2.086,0a.7.7,0,1,0-.7.7A.695.695,0,0,0,148.072,354.057Zm2.085,0a.7.7,0,1,0-.7.7A.695.695,0,0,0,150.157,354.057Zm-3.3,8a.7.7,0,1,0-.7.7A.695.695,0,0,0,146.855,362.052Zm2.085,0a.7.7,0,1,0-.7.7A.695.695,0,0,0,148.94,362.052Zm2.086,0a.7.7,0,1,0-.7.7A.695.695,0,0,0,151.026,362.052Zm2.085,0a.7.7,0,1,0-.7.7A.695.695,0,0,0,153.112,362.052Zm2.086,0a.7.7,0,1,0-.7.7A.695.695,0,0,0,155.2,362.052Zm2.086,0a.7.7,0,1,0-.7.7A.695.695,0,0,0,157.284,362.052Zm-10.429,5.736a.7.7,0,1,0-.7.7A.695.695,0,0,0,146.855,367.788Zm2.085,0a.7.7,0,1,0-.7.7A.695.695,0,0,0,148.94,367.788Zm2.086,0a.7.7,0,1,0-.7.7A.695.695,0,0,0,151.026,367.788Zm2.085,0a.7.7,0,1,0-.7.7A.695.695,0,0,0,153.112,367.788Zm2.086,0a.7.7,0,1,0-.7.7A.695.695,0,0,0,155.2,367.788Zm2.086,0a.7.7,0,1,0-.7.7A.695.695,0,0,0,157.284,367.788Z" transform="translate(-124.18 -302.755)"/>
                <path id="Trazado_1217975" data-name="Trazado 1217975" d="M187.139,276.842h-2.433a.6.6,0,1,1,0-1.2h2.433a.6.6,0,1,1,0,1.2Zm.6,2.181a.6.6,0,0,0-.6-.6h-2.433a.6.6,0,1,0,0,1.2h2.433A.6.6,0,0,0,187.739,279.023Zm0,2.781a.6.6,0,0,0-.6-.6h-2.433a.6.6,0,1,0,0,1.2h2.433A.6.6,0,0,0,187.739,281.8Zm0,2.781a.6.6,0,0,0-.6-.6h-2.433a.6.6,0,0,0,0,1.2h2.433A.6.6,0,0,0,187.739,284.585Zm0,2.781a.6.6,0,0,0-.6-.6h-2.433a.6.6,0,1,0,0,1.2h2.433A.6.6,0,0,0,187.739,287.366Zm0,2.781a.6.6,0,0,0-.6-.6h-2.433a.6.6,0,0,0,0,1.2h2.433A.6.6,0,0,0,187.739,290.147Zm0,2.781a.6.6,0,0,0-.6-.6h-2.433a.6.6,0,1,0,0,1.2h2.433A.6.6,0,0,0,187.739,292.928Zm0,2.781a.6.6,0,0,0-.6-.6h-2.433a.6.6,0,1,0,0,1.2h2.433A.6.6,0,0,0,187.739,295.71Zm9.1-19.467a.6.6,0,0,0-.6-.6h-6.388a.6.6,0,1,0,0,1.2h6.388A.6.6,0,0,0,196.842,276.242Zm0,2.781a.6.6,0,0,0-.6-.6h-6.388a.6.6,0,1,0,0,1.2h6.388A.6.6,0,0,0,196.842,279.023Zm0,2.781a.6.6,0,0,0-.6-.6h-6.388a.6.6,0,1,0,0,1.2h6.388A.6.6,0,0,0,196.842,281.8Zm0,2.781a.6.6,0,0,0-.6-.6h-6.388a.6.6,0,0,0,0,1.2h6.388A.6.6,0,0,0,196.842,284.585Zm0,2.781a.6.6,0,0,0-.6-.6h-6.388a.6.6,0,1,0,0,1.2h6.388A.6.6,0,0,0,196.842,287.366Zm7.648,2.781a.6.6,0,0,0-.6-.6H197.5a.6.6,0,0,0,0,1.2h6.388A.6.6,0,0,0,204.49,290.147Zm0,2.781a.6.6,0,0,0-.6-.6H197.5a.6.6,0,1,0,0,1.2h6.388A.6.6,0,0,0,204.49,292.928Zm0,2.781a.6.6,0,0,0-.6-.6H197.5a.6.6,0,1,0,0,1.2h6.388A.6.6,0,0,0,204.49,295.71Zm-4.836-19.467a.7.7,0,1,0-.7.7A.695.695,0,0,0,199.654,276.242Zm2.085,0a.7.7,0,1,0-.7.7A.695.695,0,0,0,201.74,276.242Zm2.085,0a.7.7,0,1,0-.7.7A.695.695,0,0,0,203.825,276.242Zm2.086,0a.7.7,0,1,0-.7.7A.695.695,0,0,0,205.911,276.242Zm2.086,0a.7.7,0,1,0-.7.7A.695.695,0,0,0,208,276.242Zm2.085,0a.7.7,0,1,0-.7.7A.7.7,0,0,0,210.082,276.242ZM199.654,281.8a.7.7,0,1,0-.7.7A.695.695,0,0,0,199.654,281.8Zm2.085,0a.7.7,0,1,0-.7.7A.7.7,0,0,0,201.74,281.8Zm2.085,0a.7.7,0,1,0-.7.7A.695.695,0,0,0,203.825,281.8Zm2.086,0a.7.7,0,1,0-.7.7A.695.695,0,0,0,205.911,281.8Zm2.086,0a.7.7,0,1,0-.7.7A.695.695,0,0,0,208,281.8Zm2.085,0a.7.7,0,1,0-.7.7A.7.7,0,0,0,210.082,281.8Zm-3.3,8a.7.7,0,1,0-.7.7A.695.695,0,0,0,206.78,289.8Zm2.086,0a.7.7,0,1,0-.7.7A.695.695,0,0,0,208.866,289.8Zm2.085,0a.7.7,0,1,0-.7.7A.695.695,0,0,0,210.951,289.8Zm2.086,0a.7.7,0,1,0-.7.7A.695.695,0,0,0,213.037,289.8Zm2.085,0a.7.7,0,1,0-.7.7A.695.695,0,0,0,215.123,289.8Zm2.085,0a.7.7,0,1,0-.7.7A.695.695,0,0,0,217.208,289.8Zm-10.428,5.736a.7.7,0,1,0-.7.7A.695.695,0,0,0,206.78,295.536Zm2.086,0a.7.7,0,1,0-.7.7A.695.695,0,0,0,208.866,295.536Zm2.085,0a.7.7,0,1,0-.7.7A.695.695,0,0,0,210.951,295.536Zm2.086,0a.7.7,0,1,0-.7.7A.695.695,0,0,0,213.037,295.536Zm2.085,0a.7.7,0,1,0-.7.7A.695.695,0,0,0,215.123,295.536Zm2.085,0a.7.7,0,1,0-.7.7A.695.695,0,0,0,217.208,295.536Z" transform="translate(-146.746 -275.547)"/>
                <path id="Trazado_1217976" data-name="Trazado 1217976" d="M187.139,313.4h-2.433a.6.6,0,0,1,0-1.2h2.433a.6.6,0,0,1,0,1.2Zm.6,2.181a.6.6,0,0,0-.6-.6h-2.433a.6.6,0,1,0,0,1.2h2.433A.6.6,0,0,0,187.739,315.58Zm0,2.781a.6.6,0,0,0-.6-.6h-2.433a.6.6,0,0,0,0,1.2h2.433A.6.6,0,0,0,187.739,318.361Zm0,2.781a.6.6,0,0,0-.6-.6h-2.433a.6.6,0,1,0,0,1.2h2.433A.6.6,0,0,0,187.739,321.143Zm0,2.781a.6.6,0,0,0-.6-.6h-2.433a.6.6,0,0,0,0,1.2h2.433A.6.6,0,0,0,187.739,323.923Zm0,2.781a.6.6,0,0,0-.6-.6h-2.433a.6.6,0,1,0,0,1.2h2.433A.6.6,0,0,0,187.739,326.7Zm0,2.781a.6.6,0,0,0-.6-.6h-2.433a.6.6,0,1,0,0,1.2h2.433A.6.6,0,0,0,187.739,329.485Zm0,2.781a.6.6,0,0,0-.6-.6h-2.433a.6.6,0,1,0,0,1.2h2.433A.6.6,0,0,0,187.739,332.267Zm9.1-19.467a.6.6,0,0,0-.6-.6h-6.388a.6.6,0,0,0,0,1.2h6.388A.6.6,0,0,0,196.842,312.8Zm0,2.781a.6.6,0,0,0-.6-.6h-6.388a.6.6,0,1,0,0,1.2h6.388A.6.6,0,0,0,196.842,315.58Zm0,2.781a.6.6,0,0,0-.6-.6h-6.388a.6.6,0,0,0,0,1.2h6.388A.6.6,0,0,0,196.842,318.361Zm0,2.781a.6.6,0,0,0-.6-.6h-6.388a.6.6,0,1,0,0,1.2h6.388A.6.6,0,0,0,196.842,321.143Zm0,2.781a.6.6,0,0,0-.6-.6h-6.388a.6.6,0,0,0,0,1.2h6.388A.6.6,0,0,0,196.842,323.923Zm7.648,2.781a.6.6,0,0,0-.6-.6H197.5a.6.6,0,1,0,0,1.2h6.388A.6.6,0,0,0,204.49,326.7Zm0,2.781a.6.6,0,0,0-.6-.6H197.5a.6.6,0,1,0,0,1.2h6.388A.6.6,0,0,0,204.49,329.485Zm0,2.781a.6.6,0,0,0-.6-.6H197.5a.6.6,0,1,0,0,1.2h6.388A.6.6,0,0,0,204.49,332.267ZM199.654,312.8a.7.7,0,1,0-.7.7A.695.695,0,0,0,199.654,312.8Zm2.085,0a.7.7,0,1,0-.7.7A.695.695,0,0,0,201.74,312.8Zm2.085,0a.7.7,0,1,0-.7.7A.695.695,0,0,0,203.825,312.8Zm2.086,0a.7.7,0,1,0-.7.7A.695.695,0,0,0,205.911,312.8Zm2.086,0a.7.7,0,1,0-.7.7A.695.695,0,0,0,208,312.8Zm2.085,0a.7.7,0,1,0-.7.7A.7.7,0,0,0,210.082,312.8Zm-10.428,5.562a.7.7,0,1,0-.7.7A.695.695,0,0,0,199.654,318.361Zm2.085,0a.7.7,0,1,0-.7.7A.695.695,0,0,0,201.74,318.361Zm2.085,0a.7.7,0,1,0-.7.7A.695.695,0,0,0,203.825,318.361Zm2.086,0a.7.7,0,1,0-.7.7A.695.695,0,0,0,205.911,318.361Zm2.086,0a.7.7,0,1,0-.7.7A.695.695,0,0,0,208,318.361Zm2.085,0a.7.7,0,1,0-.7.7A.7.7,0,0,0,210.082,318.361Zm-3.3,7.995a.7.7,0,1,0-.7.7A.695.695,0,0,0,206.78,326.356Zm2.086,0a.7.7,0,1,0-.7.7A.695.695,0,0,0,208.866,326.356Zm2.085,0a.7.7,0,1,0-.7.7A.695.695,0,0,0,210.951,326.356Zm2.086,0a.7.7,0,1,0-.7.7A.695.695,0,0,0,213.037,326.356Zm2.085,0a.7.7,0,1,0-.7.7A.695.695,0,0,0,215.123,326.356Zm2.085,0a.7.7,0,1,0-.7.7A.695.695,0,0,0,217.208,326.356Zm-10.428,5.736a.7.7,0,1,0-.7.7A.695.695,0,0,0,206.78,332.093Zm2.086,0a.7.7,0,1,0-.7.7A.695.695,0,0,0,208.866,332.093Zm2.085,0a.7.7,0,1,0-.7.7A.695.695,0,0,0,210.951,332.093Zm2.086,0a.7.7,0,1,0-.7.7A.695.695,0,0,0,213.037,332.093Zm2.085,0a.7.7,0,1,0-.7.7A.695.695,0,0,0,215.123,332.093Zm2.085,0a.7.7,0,1,0-.7.7A.695.695,0,0,0,217.208,332.093Z" transform="translate(-146.746 -289.313)"/>
              </g>
            </g>
          </g>
          <path id="Trazado_1217977" data-name="Trazado 1217977" d="M358.559,108h-30.78a5.372,5.372,0,0,1-5.372-5.372V98.869a5.372,5.372,0,0,1,5.372-5.372h30.78a5.372,5.372,0,0,1,5.372,5.372v3.764A5.372,5.372,0,0,1,358.559,108Z" transform="translate(-177.139 -59.729)" fill="#fff" stroke="#263238" stroke-linecap="round" stroke-linejoin="round" stroke-miterlimit="10" stroke-width="1"/>
          <path id="Trazado_1217978" data-name="Trazado 1217978" d="M439.611,108h-30.78a5.372,5.372,0,0,1-5.372-5.372V98.869a5.372,5.372,0,0,1,5.372-5.372h30.78a5.372,5.372,0,0,1,5.372,5.372v3.764A5.372,5.372,0,0,1,439.611,108Z" transform="translate(-207.66 -59.729)" fill="#aa52f9" stroke="#263238" stroke-linecap="round" stroke-linejoin="round" stroke-miterlimit="10" stroke-width="1"/>
          <path id="Trazado_1217979" data-name="Trazado 1217979" d="M520.662,108h-30.78a5.372,5.372,0,0,1-5.372-5.372V98.869a5.372,5.372,0,0,1,5.372-5.372h30.78a5.372,5.372,0,0,1,5.372,5.372v3.764A5.372,5.372,0,0,1,520.662,108Z" transform="translate(-238.181 -59.729)" fill="#aa52f9" stroke="#263238" stroke-linecap="round" stroke-linejoin="round" stroke-miterlimit="10" stroke-width="1"/>
          <g id="Grupo_1228565" data-name="Grupo 1228565" transform="translate(122.174 162.22)">
            <g id="Grupo_1228563" data-name="Grupo 1228563" transform="translate(0)">
              <line id="Línea_2208" data-name="Línea 2208" x2="39.686" fill="none" stroke="#263238" stroke-linecap="round" stroke-linejoin="round" stroke-miterlimit="10" stroke-width="1"/>
              <line id="Línea_2209" data-name="Línea 2209" x2="39.686" transform="translate(0 7.991)" fill="none" stroke="#263238" stroke-linecap="round" stroke-linejoin="round" stroke-miterlimit="10" stroke-width="1"/>
              <line id="Línea_2210" data-name="Línea 2210" x2="39.686" transform="translate(0 15.982)" fill="none" stroke="#263238" stroke-linecap="round" stroke-linejoin="round" stroke-miterlimit="10" stroke-width="1"/>
              <line id="Línea_2211" data-name="Línea 2211" x2="39.686" transform="translate(0 23.974)" fill="none" stroke="#263238" stroke-linecap="round" stroke-linejoin="round" stroke-miterlimit="10" stroke-width="1"/>
              <line id="Línea_2212" data-name="Línea 2212" x2="39.686" transform="translate(0 31.965)" fill="none" stroke="#263238" stroke-linecap="round" stroke-linejoin="round" stroke-miterlimit="10" stroke-width="1"/>
            </g>
            <g id="Grupo_1228564" data-name="Grupo 1228564" transform="translate(46.872)">
              <line id="Línea_2213" data-name="Línea 2213" x2="39.686" fill="none" stroke="#263238" stroke-linecap="round" stroke-linejoin="round" stroke-miterlimit="10" stroke-width="1"/>
              <line id="Línea_2214" data-name="Línea 2214" x2="39.686" transform="translate(0 7.991)" fill="none" stroke="#263238" stroke-linecap="round" stroke-linejoin="round" stroke-miterlimit="10" stroke-width="1"/>
              <line id="Línea_2215" data-name="Línea 2215" x2="39.686" transform="translate(0 15.982)" fill="none" stroke="#263238" stroke-linecap="round" stroke-linejoin="round" stroke-miterlimit="10" stroke-width="1"/>
              <line id="Línea_2216" data-name="Línea 2216" x2="39.686" transform="translate(0 23.974)" fill="none" stroke="#263238" stroke-linecap="round" stroke-linejoin="round" stroke-miterlimit="10" stroke-width="1"/>
              <line id="Línea_2217" data-name="Línea 2217" x2="39.686" transform="translate(0 31.965)" fill="none" stroke="#263238" stroke-linecap="round" stroke-linejoin="round" stroke-miterlimit="10" stroke-width="1"/>
            </g>
          </g>
          <g id="Grupo_1228566" data-name="Grupo 1228566" transform="translate(122.039 86.757)">
            <path id="Trazado_1218056" data-name="Trazado 1218056" d="M0,0H88.689V64.811H0Z" transform="translate(0)" fill="#aa52f9" stroke="#263238" stroke-linecap="round" stroke-width="1"/>
            <path id="Trazado_1217980" data-name="Trazado 1217980" d="M373.835,216.072l-12.183-7.1-22.416,24.852-19-9.259-35.086,30.213h88.689Z" transform="translate(-285.146 -189.97)" fill="#fff" stroke="#263238" stroke-linecap="round" stroke-linejoin="round" stroke-miterlimit="10" stroke-width="1"/>
            <ellipse id="Elipse_13369" data-name="Elipse 13369" cx="8.771" cy="8.772" rx="8.771" ry="8.772" transform="translate(7.019 23.375) rotate(-81.008)" fill="#fff" stroke="#263238" stroke-linecap="round" stroke-linejoin="round" stroke-miterlimit="10" stroke-width="1"/>
          </g>
        </g>
        <g id="Character_3" transform="translate(328.442 72.358)">
          <g id="Grupo_1228578" data-name="Grupo 1228578">
            <path id="Trazado_1217981" data-name="Trazado 1217981" d="M634.154,109.876l-.843-4.456-3.759-3.2-4.911,7.058a15.048,15.048,0,0,0,2.168.723c.361,0,2.047,2.89,3.011,3.733a3.4,3.4,0,0,0,2.047.843s8.189,26.853,8.55,27.576,17.34,17.7,17.34,17.7l4.214-11.2L645.835,136.61Z" transform="translate(-562.096 -96.038)" fill="#fff" stroke="#263238" stroke-miterlimit="10" stroke-width="1"/>
            <path id="Trazado_1217982" data-name="Trazado 1217982" d="M640.583,120.868l-3.473,2.526c1.84,6.025,7.7,25.17,8,25.778.361.723,17.34,17.7,17.34,17.7l4.214-11.2L650.53,143.633Z" transform="translate(-566.791 -103.062)" fill="#aa52f9" stroke="#263238" stroke-linecap="round" stroke-linejoin="round" stroke-miterlimit="10" stroke-width="1"/>
            <g id="Grupo_1228568" data-name="Grupo 1228568" transform="translate(73.873 53.372)">
              <path id="Trazado_1217983" data-name="Trazado 1217983" d="M674.911,244.444l-.793,15.117,14.748,2.836,10.523-2.331a22.561,22.561,0,0,0-2.706-18.677Z" transform="translate(-654.6 -201.818)" fill="#263238" stroke="#263238" stroke-linecap="round" stroke-linejoin="round" stroke-miterlimit="10" stroke-width="1"/>
              <g id="Grupo_1228567" data-name="Grupo 1228567">
                <path id="Trazado_1217984" data-name="Trazado 1217984" d="M671.518,180.782s-6.3,16.424-4.774,22.345a18.243,18.243,0,0,0,5.3,9.014s-1.146,7.066,0,8.4,10.5.573,13.56.191,7.83-1.528,8.212-3.247-1.622-11.262-1.622-11.835-2.915-15.7-4.252-19.523a41.745,41.745,0,0,0-4.393-8.213Z" transform="translate(-651.733 -177.917)" fill="#aa52f9" stroke="#263238" stroke-linecap="round" stroke-linejoin="round" stroke-miterlimit="10" stroke-width="1"/>
                <path id="Trazado_1217985" data-name="Trazado 1217985" d="M657.239,361.225l-2.414,3.208s-5.2,2.41-5.074,2.791,1.269.888,2.41.888,4.059-.254,4.059-.254l5.962-1.776s2.283-.507,2.156-2.029a29.763,29.763,0,0,0-1.269-4.82Z" transform="translate(-645.423 -246.193)" fill="#fff" stroke="#263238" stroke-linecap="round" stroke-linejoin="round" stroke-miterlimit="10" stroke-width="1"/>
                <path id="Trazado_1217986" data-name="Trazado 1217986" d="M663.464,255.98s-21.744,27.993-20.609,31.4,11.773,34.967,11.773,34.967l5.832-1.993-4.528-30.4,16.609-14.4,2.269-16.734" transform="translate(-642.811 -207.313)" fill="#263238" stroke="#263238" stroke-linecap="round" stroke-linejoin="round" stroke-miterlimit="10" stroke-width="1"/>
                <path id="Trazado_1217987" data-name="Trazado 1217987" d="M676.479,403.87s-4.7,4.128-5.161,4.587-6.078,1.949-6.193,2.867,2.408,1.605,2.867,1.605,6.885-.546,7.743-.33,7.739-1.161,7.969-1.848-1.032-6.308-1.032-6.308Z" transform="translate(-651.212 -263.003)" fill="#fff" stroke="#263238" stroke-linecap="round" stroke-linejoin="round" stroke-miterlimit="10" stroke-width="1"/>
                <path id="Trazado_1217988" data-name="Trazado 1217988" d="M681.668,255.526l-2.563,47.49,1.668,46.1,7.374.567,3.634-46.373,9.486-37.92" transform="translate(-656.478 -207.142)" fill="#263238" stroke="#263238" stroke-linecap="round" stroke-linejoin="round" stroke-miterlimit="10" stroke-width="1"/>
              </g>
            </g>
            <g id="Grupo_1228572" data-name="Grupo 1228572" transform="translate(85.698 20.731)">
              <g id="Grupo_1228571" data-name="Grupo 1228571">
                <g id="Grupo_1228569" data-name="Grupo 1228569" transform="translate(0 5.573)">
                  <path id="Trazado_1217989" data-name="Trazado 1217989" d="M670.9,164.232a15.21,15.21,0,0,0-2.988-7.592,18.776,18.776,0,0,1-4.627-.146c-1.291-.406-.83-2.751-.482-3.749a19.322,19.322,0,0,0,.1-4.4,10.357,10.357,0,0,1-1.12-2.047c-.06-.468,2.369-1.209,2.953-1.856s.345-1.759.924-3.929,3.175-5.314,3.175-5.314.883-1.171,3.121-.5,6.05,7.826,7.885,10.557,1.441,7.751,1.126,8.756-1.816,2.607-2.04,3.748-.882,2,.814,4.23" transform="translate(-661.778 -134.5)" fill="#fff" stroke="#263238" stroke-miterlimit="10" stroke-width="1"/>
                  <line id="Línea_2218" data-name="Línea 2218" x1="0.565" y2="1.667" transform="translate(4.073 9.082)" fill="none" stroke="#263238" stroke-miterlimit="10" stroke-width="1"/>
                  <path id="Trazado_1217990" data-name="Trazado 1217990" d="M668.511,145.452s1.453-1.967,1.9.609" transform="translate(-664.313 -138.353)" fill="none" stroke="#263238" stroke-miterlimit="10" stroke-width="1"/>
                  <path id="Trazado_1217991" data-name="Trazado 1217991" d="M665.938,158.662l.231.638a2.007,2.007,0,0,1-1.6.279" transform="translate(-662.831 -143.598)" fill="none" stroke="#263238" stroke-miterlimit="10" stroke-width="1"/>
                </g>
                <g id="Grupo_1228570" data-name="Grupo 1228570" transform="translate(5.554)">
                  <path id="Trazado_1217992" data-name="Trazado 1217992" d="M678.054,144.294s-2.756-.693-2.408-1.691,1.4-1.7-.1-3.369-2.974-4.237-2.422-5.5-1.9.388-2.11-.11l-.207-.5-.12-.937s.429-2.961,2.918-3.233,2.814.4,4.249.073,8.85.672,11.8,5.818,2.972,12-.007,14.766-6.34,5.15-8.889,4.953-1.226-6.939-.966-8.259S678.054,144.294,678.054,144.294Z" transform="translate(-670.687 -126.815)" fill="#263238" stroke="#263238" stroke-miterlimit="10" stroke-width="1"/>
                  <path id="Trazado_1217993" data-name="Trazado 1217993" d="M698.957,135.172s1.044-1.692,2.07-1.49,4.382.623,2.835,1.86-2.224,2.578-3.565,1.1Z" transform="translate(-681.333 -128.612)" fill="#263238" stroke="#263238" stroke-miterlimit="10" stroke-width="1"/>
                  <path id="Trazado_1217994" data-name="Trazado 1217994" d="M701.594,130.63s-2.332-1.406-.31-3.854,6.567-.844,7.967,1.683a2.732,2.732,0,0,1-2.016,4.228,3.579,3.579,0,0,1-2.558-.858Z" transform="translate(-681.898 -125.56)" fill="#263238" stroke="#263238" stroke-miterlimit="10" stroke-width="1"/>
                </g>
                <path id="Trazado_1217995" data-name="Trazado 1217995" d="M680.014,153.362s3.3-2.853,4.392-.66-2.853,5.225-4.229,5.259a1.51,1.51,0,0,1-1.644-.932" transform="translate(-668.087 -135.469)" fill="#fff" stroke="#263238" stroke-miterlimit="10" stroke-width="1"/>
              </g>
              <path id="Trazado_1217996" data-name="Trazado 1217996" d="M684.9,171.858l-13.085,4.536.145,4.415,14.682-5.354Z" transform="translate(-665.559 -142.994)" fill="#fff" stroke="#263238" stroke-miterlimit="10" stroke-width="1"/>
            </g>
            <path id="Trazado_1217997" data-name="Trazado 1217997" d="M604.274,111.406l-30.42-4.7a5.372,5.372,0,0,1-4.489-6.129l.574-3.72a5.372,5.372,0,0,1,6.129-4.489l30.42,4.7a5.372,5.372,0,0,1,4.489,6.129l-.574,3.72A5.372,5.372,0,0,1,604.274,111.406Z" transform="translate(-541.256 -92.307)" fill="#aa52f9" stroke="#263238" stroke-linecap="round" stroke-linejoin="round" stroke-miterlimit="10" stroke-width="1"/>
            <path id="Trazado_1217998" data-name="Trazado 1217998" d="M635.97,110.308l-1.535-3.3s-2.921-2.961-3.282-3.322a.96.96,0,0,0-1.686.723c-.12,1.445,2.408,2.89,2.408,2.89s.241,3.974.843,4.7a5.689,5.689,0,0,0,2.529,1.084" transform="translate(-563.911 -96.47)" fill="#fff" stroke="#263238" stroke-linecap="round" stroke-linejoin="round" stroke-miterlimit="10" stroke-width="1"/>
            <g id="Grupo_1228575" data-name="Grupo 1228575" transform="translate(0 100.325)">
              <rect id="Rectángulo_422506" data-name="Rectángulo 422506" width="37.889" height="4.246" transform="translate(31.998 21.751)" fill="#c7c7c7" stroke="#263238" stroke-linecap="round" stroke-linejoin="round" stroke-miterlimit="10" stroke-width="1"/>
              <path id="Trazado_1217999" data-name="Trazado 1217999" d="M645.041,333.153l-.5-3.335H633.275l-1.814,3.335Z" transform="translate(-564.664 -282.07)" fill="#c7c7c7" stroke="#263238" stroke-linecap="round" stroke-linejoin="round" stroke-miterlimit="10" stroke-width="1"/>
              <path id="Trazado_1218000" data-name="Trazado 1218000" d="M659.4,377.18l-.5-3.335H647.632l-1.815,3.335Z" transform="translate(-570.07 -298.649)" fill="#c7c7c7" stroke="#263238" stroke-linecap="round" stroke-linejoin="round" stroke-miterlimit="10" stroke-width="1"/>
              <path id="Trazado_1218001" data-name="Trazado 1218001" d="M674.744,421.207l-.5-3.335H662.978l-1.814,3.335Z" transform="translate(-575.849 -315.228)" fill="#c7c7c7" stroke="#263238" stroke-linecap="round" stroke-linejoin="round" stroke-miterlimit="10" stroke-width="1"/>
              <g id="Grupo_1228574" data-name="Grupo 1228574" transform="translate(0 0)">
                <g id="Grupo_1228573" data-name="Grupo 1228573">
                  <path id="Trazado_1218002" data-name="Trazado 1218002" d="M529.474,395.974c15.461-51.323,39.6-129.514,42-133.728,2.373-3.691,8.345-4.074,8.471-4.082a2.469,2.469,0,0,0-.241-4.932c-.35.017-8.612.476-12.383,6.343-3.137,4.88-36.237,113.929-43,136.4Z" transform="translate(-524.317 -253.23)" fill="#c7c7c7" stroke="#263238" stroke-linecap="round" stroke-linejoin="round" stroke-miterlimit="10" stroke-width="1"/>
                </g>
                <path id="Trazado_1218003" data-name="Trazado 1218003" d="M606.312,254.232l1.5,4.387,1.63-.125-1.755-4.638Z" transform="translate(-555.193 -253.466)" fill="#263238" stroke="#263238" stroke-linecap="round" stroke-linejoin="round" stroke-miterlimit="10" stroke-width="1"/>
              </g>
            </g>
            <g id="Grupo_1228576" data-name="Grupo 1228576" transform="translate(38.44 57.934)">
              <path id="Trazado_1218004" data-name="Trazado 1218004" d="M650.6,370.369h5.252L590.766,186.861a2.469,2.469,0,0,0-4.641,1.685Z" transform="translate(-585.975 -185.234)" fill="#c7c7c7" stroke="#263238" stroke-linecap="round" stroke-linejoin="round" stroke-miterlimit="10" stroke-width="1"/>
            </g>
            <g id="Grupo_1228577" data-name="Grupo 1228577" transform="translate(39.584 58.57)">
              <path id="Trazado_1218005" data-name="Trazado 1218005" d="M655.213,186.5a10.309,10.309,0,0,0-4.139-.118c-2.755.344-16.352,13.4-16.352,13.4s-7.834-.718-11.277-.718-18.25-2.238-18.25-2.238l-.344,5.509,30.4,7.565a2.139,2.139,0,0,0,1.6-.233l18.242-10.749" transform="translate(-594.227 -186.254)" fill="#aa52f9" stroke="#263238" stroke-linecap="round" stroke-linejoin="round" stroke-miterlimit="10" stroke-width="1"/>
              <path id="Trazado_1218006" data-name="Trazado 1218006" d="M598.778,200.651l-5.2-2.42-2.716-1.811s-1.63.362-1.087,1.449,2.716,1.992,2.716,1.992l-3.1.516a1.9,1.9,0,0,0-1.536,1.444h0a1.9,1.9,0,0,0,.613,1.866l.4.339s-.362,2.173,1.087,2.9,8.478-.763,8.478-.763Z" transform="translate(-587.81 -190.082)" fill="#fff" stroke="#263238" stroke-linecap="round" stroke-linejoin="round" stroke-miterlimit="10" stroke-width="1"/>
            </g>
          </g>
        </g>
        <g id="Character_2" transform="translate(245.408 124.265)">
          <g id="Grupo_1228583" data-name="Grupo 1228583">
            <path id="Trazado_1218007" data-name="Trazado 1218007" d="M458.326,235.891l9.4,36.785-11.063,2.213-2.213-8.574Z" transform="translate(-414.976 -198.282)" fill="#fff" stroke="#263238" stroke-linecap="round" stroke-linejoin="round" stroke-miterlimit="10" stroke-width="1"/>
            <g id="Grupo_1228579" data-name="Grupo 1228579" transform="translate(13.326 178.848)">
              <path id="Trazado_1218008" data-name="Trazado 1218008" d="M414.3,462.707a43.046,43.046,0,0,0-.739,4.729c0,1.115-1.434,5.418-.956,6.533s1.753.8,3.186.956,7.967,0,7.967,0a5.936,5.936,0,0,0,.478-3.824,17.7,17.7,0,0,0-1.787-4.271l-.024-4.39Z" transform="translate(-412.505 -462.441)" fill="#fff" stroke="#263238" stroke-linecap="round" stroke-linejoin="round" stroke-miterlimit="10" stroke-width="1"/>
              <path id="Trazado_1218009" data-name="Trazado 1218009" d="M424.363,478.636h-11.8a3.157,3.157,0,0,0,.039,1.431c.478,1.115,1.752.8,3.186.956s7.967,0,7.967,0A6.006,6.006,0,0,0,424.363,478.636Z" transform="translate(-412.506 -468.54)" fill="#fff" stroke="#263238" stroke-linecap="round" stroke-linejoin="round" stroke-miterlimit="10" stroke-width="1"/>
            </g>
            <g id="Grupo_1228580" data-name="Grupo 1228580" transform="translate(32.862 183.019)">
              <path id="Trazado_1218010" data-name="Trazado 1218010" d="M452.331,469.131l3.731,2.634s6.8,1.756,7.133,2.963.11,1.756-.439,2.085-18.657.658-18.876,0,.549-4.609.549-5.707.044-1.929.044-1.929Z" transform="translate(-443.841 -469.131)" fill="#fff" stroke="#263238" stroke-linecap="round" stroke-linejoin="round" stroke-miterlimit="10" stroke-width="1"/>
              <path id="Trazado_1218011" data-name="Trazado 1218011" d="M463.346,479.446l-19.411-.559a5.579,5.579,0,0,0-.054,1.6c.219.658,18.327.329,18.876,0A1.156,1.156,0,0,0,463.346,479.446Z" transform="translate(-443.841 -472.805)" fill="#fff" stroke="#263238" stroke-linecap="round" stroke-linejoin="round" stroke-miterlimit="10" stroke-width="1"/>
            </g>
            <path id="Trazado_1218012" data-name="Trazado 1218012" d="M413.286,305.976l-.87,21.961,1.3,78.863h9.023l6.034-69.939,3.863,69.766h8.78l1.488-77.947-.312-25.657Z" transform="translate(-399.146 -223.562)" fill="#263238" stroke="#263238" stroke-linecap="round" stroke-linejoin="round" stroke-miterlimit="10" stroke-width="1"/>
            <path id="Trazado_1218013" data-name="Trazado 1218013" d="M415.548,229.167l-13,7.787,7.191,41.21H437.4l1.383-44.805-12.169-3.6Z" transform="translate(-395.43 -195.75)" fill="#fff" stroke="#263238" stroke-linecap="round" stroke-linejoin="round" stroke-miterlimit="10" stroke-width="1"/>
            <g id="Grupo_1228581" data-name="Grupo 1228581" transform="translate(33.512 33.73)">
              <path id="Trazado_1218014" data-name="Trazado 1218014" d="M445.948,240.05l3.393-7.556-4.456-2.824Z" transform="translate(-444.884 -229.67)" fill="#fff" stroke="#263238" stroke-linecap="round" stroke-linejoin="round" stroke-miterlimit="10" stroke-width="1"/>
              <path id="Trazado_1218015" data-name="Trazado 1218015" d="M450.894,234.2l1.289,6.171L449.01,238.8Z" transform="translate(-446.438 -231.376)" fill="#fff" stroke="#263238" stroke-linecap="round" stroke-linejoin="round" stroke-miterlimit="10" stroke-width="1"/>
            </g>
            <g id="Grupo_1228582" data-name="Grupo 1228582" transform="translate(14.848)">
              <path id="Trazado_1218016" data-name="Trazado 1218016" d="M434.3,183.757s3.575,12.069,3.832,17.1-1.276,7.184-2.559,7.615l-1.14.431.241,10.776-3.858-5.46-.329-1.868L423,205.021l-1.687-4.741s-2.861.575-3.78-2.012.2-4.023.2-4.023-3.826-4.023-2.5-8.908,4.81-9.77,11.419-9.77S437.8,179.59,434.3,183.757Z" transform="translate(-414.946 -175.566)" fill="#fff" stroke="#263238" stroke-linecap="round" stroke-linejoin="round" stroke-miterlimit="10" stroke-width="1"/>
              <path id="Trazado_1218017" data-name="Trazado 1218017" d="M415.226,185.337c1.327-4.885,4.81-9.77,11.419-9.77s11.153,4.023,7.655,8.189c0,0-2.257,1.868-3.844,1.58s-2.618-1.437-5.316,0-2.959,2.586-2.055,4.454.779,2.73.365,3.448c-.046.079-.093.172-.141.272l2.591,6.481s.824-1.724,4.239-3.161,7.487.718,7.487.718c2.675,11.614-3.194,11.351-3.194,11.351s-6.926-1.293-8.979-3.161a6.675,6.675,0,0,1-2.559-5.173c-.112-1.194-.105-3.858-.081-5.825-.184.516-.316.941-.316.941a3.533,3.533,0,0,0-2.05-1.724,3.827,3.827,0,0,0-2.724.287S413.9,190.223,415.226,185.337Z" transform="translate(-414.946 -175.566)" fill="#263238" stroke="#263238" stroke-linecap="round" stroke-linejoin="round" stroke-miterlimit="10" stroke-width="1"/>
              <path id="Trazado_1218018" data-name="Trazado 1218018" d="M441.6,198.614l1.23,3.592s4.078,2.443,3.222,2.73-3.749-.575-3.749-.575" transform="translate(-424.984 -184.245)" fill="none" stroke="#263238" stroke-linecap="round" stroke-linejoin="round" stroke-miterlimit="10" stroke-width="1"/>
              <path id="Trazado_1218019" data-name="Trazado 1218019" d="M445.912,214.026s-1.686,1.724-4.895-.431" transform="translate(-424.764 -189.886)" fill="none" stroke="#fff" stroke-linecap="round" stroke-linejoin="round" stroke-miterlimit="10" stroke-width="1"/>
              <path id="Trazado_1218020" data-name="Trazado 1218020" d="M437.155,203.107c.1.5.438.86.763.8s.512-.506.416-1.006-.438-.86-.763-.8S437.059,202.607,437.155,203.107Z" transform="translate(-423.3 -185.556)" fill="#263238"/>
              <path id="Trazado_1218021" data-name="Trazado 1218021" d="M445.287,201.974c.1.5.438.86.763.8s.512-.506.416-1.006-.438-.86-.763-.8S445.191,201.474,445.287,201.974Z" transform="translate(-426.362 -185.13)" fill="#263238"/>
              <path id="Trazado_1218022" data-name="Trazado 1218022" d="M445.584,197.608a3.055,3.055,0,0,0-2.613,0" transform="translate(-425.499 -183.76)" fill="none" stroke="#263238" stroke-linecap="round" stroke-linejoin="round" stroke-miterlimit="10" stroke-width="1"/>
              <path id="Trazado_1218023" data-name="Trazado 1218023" d="M436.677,198.34a3.51,3.51,0,0,0-2.938,1.271" transform="translate(-422.023 -184.138)" fill="none" stroke="#263238" stroke-linecap="round" stroke-linejoin="round" stroke-miterlimit="10" stroke-width="1"/>
            </g>
            <path id="Trazado_1218024" data-name="Trazado 1218024" d="M434,232.009l-1.287,4.283-9.313-9.517,2.779-3.961,7.492,7.328Z" transform="translate(-403.281 -193.358)" fill="#fff" stroke="#263238" stroke-linecap="round" stroke-linejoin="round" stroke-miterlimit="10" stroke-width="1"/>
            <path id="Trazado_1218025" data-name="Trazado 1218025" d="M394.857,297.223l32.371-1.1,7.128-4.708s8.146-2.289,6.746-2.459-6.893-3.077-9.29-1.784a24.154,24.154,0,0,0-5.2,4.56l-21.573-2.783Z" transform="translate(-392.533 -217.47)" fill="#fff" stroke="#263238" stroke-linecap="round" stroke-linejoin="round" stroke-miterlimit="10" stroke-width="1"/>
            <path id="Trazado_1218026" data-name="Trazado 1218026" d="M480.392,302.924l-3.5-1.885,5.093-2.247Z" transform="translate(-423.426 -221.969)" fill="#fff" stroke="#263238" stroke-linecap="round" stroke-linejoin="round" stroke-miterlimit="10" stroke-width="1"/>
            <path id="Trazado_1218027" data-name="Trazado 1218027" d="M433.6,301.526l17.424,1.66,23.509-9.4-16.594-1.106Z" transform="translate(-407.124 -219.665)" fill="#aa52f9" stroke="#263238" stroke-linecap="round" stroke-linejoin="round" stroke-miterlimit="10" stroke-width="1"/>
            <path id="Trazado_1218028" data-name="Trazado 1218028" d="M461.552,287.65l2.489-29.04,24.616-7.191-3.6,26.828Z" transform="translate(-417.648 -204.129)" fill="#aa52f9" stroke="#263238" stroke-linecap="round" stroke-linejoin="round" stroke-miterlimit="10" stroke-width="1"/>
            <path id="Trazado_1218029" data-name="Trazado 1218029" d="M404.958,236.778s-7.191,2.489-8.574,4.7-3.6,32.912-3.6,32.912l11.616-3.872,1.107-20.467" transform="translate(-391.755 -198.616)" fill="#fff" stroke="#263238" stroke-linecap="round" stroke-linejoin="round" stroke-miterlimit="10" stroke-width="1"/>
            <path id="Trazado_1218030" data-name="Trazado 1218030" d="M405.993,288.9l-11.58,9.487-3.282-5.807,14.31-7Z" transform="translate(-391.13 -216.993)" fill="#fff" stroke="#263238" stroke-linecap="round" stroke-linejoin="round" stroke-miterlimit="10" stroke-width="1"/>
            <path id="Trazado_1218031" data-name="Trazado 1218031" d="M492.272,296.715s.749,2.546,1.348,2.546,1.8-.749,1.2-1.8S492.617,295.331,492.272,296.715Z" transform="translate(-429.217 -220.94)" fill="#fff" stroke="#263238" stroke-linecap="round" stroke-linejoin="round" stroke-miterlimit="10" stroke-width="1"/>
            <path id="Trazado_1218032" data-name="Trazado 1218032" d="M483.516,294.253s-1.964,4.73-1.135,5.283,5.808-1.383,6.085-2.489,1.411-7.772-.248-7.219A9.181,9.181,0,0,0,483.516,294.253Z" transform="translate(-425.415 -218.581)" fill="#fff" stroke="#263238" stroke-linecap="round" stroke-linejoin="round" stroke-miterlimit="10" stroke-width="1"/>
          </g>
        </g>
        <g id="Character_1" transform="translate(41.057 126.503)">
          <g id="Grupo_1228584" data-name="Grupo 1228584" transform="translate(31.42)">
            <rect id="Rectángulo_422507" data-name="Rectángulo 422507" width="100.219" height="64.102" fill="#fff" stroke="#263238" stroke-linecap="round" stroke-linejoin="round" stroke-miterlimit="10" stroke-width="1"/>
            <line id="Línea_2219" data-name="Línea 2219" x2="100.219" y2="64.101" fill="#fff" stroke="#263238" stroke-linecap="round" stroke-linejoin="round" stroke-miterlimit="10" stroke-width="1"/>
            <line id="Línea_2220" data-name="Línea 2220" x1="100.219" y2="64.101" fill="#fff" stroke="#263238" stroke-linecap="round" stroke-linejoin="round" stroke-miterlimit="10" stroke-width="1"/>
          </g>
          <g id="Grupo_1228593" data-name="Grupo 1228593" transform="translate(0 1.403)">
            <g id="Grupo_1228585" data-name="Grupo 1228585" transform="translate(13.924)">
              <path id="Trazado_1218033" data-name="Trazado 1218033" d="M111.411,197.831s3.8-2.95,4.1-4.065.12-8.007.12-8.007.325-1.021-.822-.926-1.213,1.037-1.323,1.448-.75,4.881-.75,4.881l-1.19-2.177-.628-7.578s-1.279.24-1.532.662-2.58,5.434-2.955,6.135-.739,8.495-.739,8.495l.286,5.2,3.693,1.61Z" transform="translate(-93.216 -181.407)" fill="#fff" stroke="#263238" stroke-linecap="round" stroke-linejoin="round" stroke-miterlimit="10" stroke-width="1"/>
              <path id="Trazado_1218034" data-name="Trazado 1218034" d="M103.59,211.76l-5.753-2.669s-10.392,18.9-11.179,21.729-1.26,8.031-.787,10.392a12.37,12.37,0,0,0,2.992,5.2c.473.473,10.392-2.362,10.392-2.362l.63-15.588Z" transform="translate(-85.682 -191.832)" fill="#aa52f9" stroke="#263238" stroke-miterlimit="10" stroke-width="1"/>
            </g>
            <g id="Grupo_1228586" data-name="Grupo 1228586" transform="translate(31.156 4.755)">
              <path id="Trazado_1218035" data-name="Trazado 1218035" d="M138.5,202.082a13.75,13.75,0,0,1,1.52,3.548c.154,1.232.462,3.85.462,3.85s1.078,2.926.924,3.85-1.694,1.848-1.694,1.848a58.217,58.217,0,0,1-1.694,6.159c-.616,1.386-6.621-.462-6.621-.462l-1.54,3.7-11.241-2.926,1.54-6.929-2.464-12.01s2.926-4.928,4.928-5.544S136.214,196.686,138.5,202.082Z" transform="translate(-114.97 -192)" fill="#fff" stroke="#263238" stroke-miterlimit="10" stroke-width="1"/>
              <path id="Trazado_1218036" data-name="Trazado 1218036" d="M151.418,214.737c0,.663-.15,1.2-.336,1.2s-.336-.537-.336-1.2.15-1.2.336-1.2S151.418,214.073,151.418,214.737Z" transform="translate(-127.415 -198.261)" fill="#263238"/>
              <path id="Trazado_1218037" data-name="Trazado 1218037" d="M150.243,211.291s.384-1.537,1.633-.576" transform="translate(-127.225 -197.079)" fill="none" stroke="#263238" stroke-miterlimit="10" stroke-width="1"/>
              <path id="Trazado_1218038" data-name="Trazado 1218038" d="M149.705,226.072a2.1,2.1,0,0,1-2.593-1.537" transform="translate(-126.046 -202.403)" fill="none" stroke="#263238" stroke-miterlimit="10" stroke-width="1"/>
              <path id="Trazado_1218039" data-name="Trazado 1218039" d="M136.857,199.116s-4.147-.207-4,.236,1.651,1.668,1.208,2.85a10.3,10.3,0,0,1-2.156,2.772,25.947,25.947,0,0,1-1.711,3.83c-.443.443-.942-1.885-1.68-2.919s-2.306-1.065-3.692.782c-.873,1.163-.535,6.124-.978,6.567s-4.651.254-4.651.254-2.93-4.175-5.268-8.049,2.744-11.868,4.012-12.882c2.215-1.772,6.646-1.92,7.827-1.92s0-1.329,1.772-1.329a8.408,8.408,0,0,1,3.692,1.181s-1.477-2.215,1.034-1.181S140.561,195.927,136.857,199.116Z" transform="translate(-113.322 -189.034)" fill="#263238" stroke="#263238" stroke-miterlimit="10" stroke-width="1"/>
              <path id="Trazado_1218040" data-name="Trazado 1218040" d="M132.517,221.764a4.269,4.269,0,0,0,1.54,2.618,1.729,1.729,0,0,0,2,.154s-.154,2.31.308,2.926" transform="translate(-120.55 -201.359)" fill="none" stroke="#263238" stroke-miterlimit="10" stroke-width="1"/>
            </g>
            <g id="Grupo_1228592" data-name="Grupo 1228592" transform="translate(0 32.604)">
              <g id="Grupo_1228591" data-name="Grupo 1228591">
                <g id="Grupo_1228587" data-name="Grupo 1228587" transform="translate(42.391 146.745)">
                  <path id="Trazado_1218041" data-name="Trazado 1218041" d="M132.608,470.8a.937.937,0,0,0-.771.777c-.221,1.385-.68,4.487-.411,4.889.347.521,11.628,2.43,14.405,2.43s7.984.694,8.5-.347.868-1.388.173-1.736-6.6-2.951-7.81-3.992a36.267,36.267,0,0,1-3.129-3.4.937.937,0,0,0-.878-.324Z" transform="translate(-131.344 -469.085)" fill="#fff" stroke="#263238" stroke-miterlimit="10" stroke-width="1"/>
                  <path id="Trazado_1218042" data-name="Trazado 1218042" d="M154.34,482.225c.047-.095.091-.178.135-.262-1.648-.067-4.114-.163-6.9-.259-3.632-.125-11.146-1.877-15.05-2.842a.942.942,0,0,0-1.16,1.007.653.653,0,0,0,.069.273c.347.521,11.628,2.43,14.405,2.43S153.819,483.266,154.34,482.225Z" transform="translate(-131.349 -472.756)" fill="#fff" stroke="#263238" stroke-miterlimit="10" stroke-width="1"/>
                </g>
                <g id="Grupo_1228588" data-name="Grupo 1228588" transform="translate(0 145.733)">
                  <path id="Trazado_1218043" data-name="Trazado 1218043" d="M72.744,468.954a.944.944,0,0,1,.416.392,35.033,35.033,0,0,0,2.289,3.737c.521.521,2.083,1.388,2.083,2.083v.622a.94.94,0,0,1-.94.94h-12.3a.936.936,0,0,1-.938-1.006,41.858,41.858,0,0,1,.991-6.11C65.264,465.613,71.367,468.293,72.744,468.954Z" transform="translate(-63.347 -467.462)" fill="#fff" stroke="#263238" stroke-miterlimit="10" stroke-width="1"/>
                  <path id="Trazado_1218044" data-name="Trazado 1218044" d="M77.531,479.609a.7.7,0,0,0-.114-.347H64.291a.944.944,0,0,0-.938.869l0,.027a.939.939,0,0,0,.938,1.012h12.3a.94.94,0,0,0,.94-.94Z" transform="translate(-63.348 -471.905)" fill="#fff" stroke="#263238" stroke-miterlimit="10" stroke-width="1"/>
                </g>
                <path id="Trazado_1218045" data-name="Trazado 1218045" d="M73.1,312.891s.817,17.169.817,23.765v29.157s-4.686,12.5-5.38,18.4c-.613,5.217-3.2,24.064-3.707,27.53a.933.933,0,0,0,.567,1,14.981,14.981,0,0,0,3.667,1.1,7.678,7.678,0,0,0,3.845-1.2.933.933,0,0,0,.427-.534c.341-1.087,1.426-4.489,2.15-6.08.868-1.909,12.837-37.088,13.53-39.865s.694-10.413.694-10.413l1.388-18.918h2.083l17.876,30.2s-1.736,10.587-1.736,15.967c0,4.724-2.08,25.618-2.5,29.768a.933.933,0,0,0,.807,1.025,37.617,37.617,0,0,0,6.216.395,10.5,10.5,0,0,0,5.018-2.308.94.94,0,0,0,.362-.742v-2.5c0-1.041-.347-1.736-.347-2.43s7.282-38.477,6.588-41.6-13.19-34.885-13.19-34.885l-1.1-12.446Z" transform="translate(-63.9 -263.523)" fill="#263238" stroke="#263238" stroke-miterlimit="10" stroke-width="1"/>
                <g id="Grupo_1228590" data-name="Grupo 1228590" transform="translate(9.124)">
                  <g id="Grupo_1228589" data-name="Grupo 1228589" transform="translate(0 1.539)">
                    <path id="Trazado_1218046" data-name="Trazado 1218046" d="M117.591,273.1A55.424,55.424,0,0,1,121.7,261.1c.6-1.347,1.676-10.041,1.35-13.946a5.829,5.829,0,0,0-3.377-4.661c-2.326-.558-3.855-.812-3.855-.812l-18.787-5.362s-4.729-.9-7.658,1.722-4.912,9.8-5.07,12.073.536,22.266-5.356,30.945c-2.958,4.357,1.8,7.886,1.8,7.886s8.327,1.762,15.7,3.031c25.654,4.412,20.45-4.062,20.45-4.062A41.824,41.824,0,0,1,117.591,273.1Z" transform="translate(-77.983 -236.173)" fill="#aa52f9" stroke="#263238" stroke-miterlimit="10" stroke-width="1"/>
                  </g>
                  <path id="Trazado_1218047" data-name="Trazado 1218047" d="M129.6,241.128s-2.97-3.549-5.713-4.486-10.155-2.352-12.954-2.867a3.452,3.452,0,0,0-3.84,1.928,33.181,33.181,0,0,0,9.686,3.723A116.663,116.663,0,0,0,129.6,241.128Z" transform="translate(-88.946 -233.704)" fill="#aa52f9" stroke="#263238" stroke-linecap="round" stroke-linejoin="round" stroke-miterlimit="10" stroke-width="1"/>
                </g>
              </g>
            </g>
            <path id="Trazado_1218048" data-name="Trazado 1218048" d="M225.44,280.532s2.36-3.357,3.335-3.683,7.158-.651,7.158-.651.89-.34.89.619-.839,1.078-1.2,1.2-4.314.959-4.314.959l2.037.839h6.83s-.12,1.079-.479,1.318-4.673,2.516-5.272,2.876-7.549,1.2-7.549,1.2l-4.673.12.12-4.314Z" transform="translate(-123.168 -217.08)" fill="#fff" stroke="#263238" stroke-linecap="round" stroke-linejoin="round" stroke-miterlimit="10" stroke-width="1"/>
            <path id="Trazado_1218049" data-name="Trazado 1218049" d="M142.893,246.315a12.371,12.371,0,0,1,5.828,2.782c2.158,2.158,11.815,12.964,11.815,12.964l32.342,7.723.206,5.671-36.321.145L139.63,268.82" transform="translate(-92.073 -205.849)" fill="#aa52f9" stroke="#263238" stroke-miterlimit="10" stroke-width="1"/>
          </g>
        </g>
        <g id="Speech_Bubble_2" transform="translate(286.247 113.036)">
          <g id="Grupo_1228595" data-name="Grupo 1228595">
            <path id="Trazado_1218050" data-name="Trazado 1218050" d="M470.839,157.555a14.2,14.2,0,0,0-11.012,23.169l-2.054,6.75,6.609-3.069a14.2,14.2,0,1,0,6.457-26.85Z" transform="translate(-456.637 -157.555)" fill="#fff" stroke="#263238" stroke-linecap="round" stroke-linejoin="round" stroke-miterlimit="10" stroke-width="1"/>
            <g id="Grupo_1228594" data-name="Grupo 1228594" transform="translate(5.69 2.536)">
              <path id="Trazado_1218051" data-name="Trazado 1218051" d="M472.787,179.338c-.06,0-.122,0-.183-.009a1.886,1.886,0,0,1-1.458-.946l-5.137-9.05a1.886,1.886,0,1,1,3.281-1.862l3.813,6.718,10.238-11.909a1.887,1.887,0,1,1,2.861,2.46l-11.985,13.942A1.89,1.89,0,0,1,472.787,179.338Z" transform="translate(-465.764 -161.623)" fill="#aa52f9" stroke="#263238" stroke-linecap="round" stroke-linejoin="round" stroke-miterlimit="10" stroke-width="1"/>
            </g>
          </g>
        </g>
        <g id="Speech_Bubble_1" transform="translate(35.587 98.811)">
          <g id="Grupo_1228597" data-name="Grupo 1228597">
            <path id="Trazado_1218052" data-name="Trazado 1218052" d="M68.775,134.737a14.2,14.2,0,0,1,11.011,23.169l2.054,6.75-6.609-3.069a14.2,14.2,0,1,1-6.456-26.85Z" transform="translate(-54.573 -134.737)" fill="#fff" stroke="#263238" stroke-linecap="round" stroke-linejoin="round" stroke-miterlimit="10" stroke-width="1"/>
            <g id="Grupo_1228596" data-name="Grupo 1228596" transform="translate(2.902 5.143)">
              <path id="Trazado_1218053" data-name="Trazado 1218053" d="M65.318,159.6l-6.09-4.287v-2.444l6.09-4.287v2.684l-3.906,2.825,3.906,2.825Z" transform="translate(-59.228 -145.092)" fill="#263238"/>
              <path id="Trazado_1218054" data-name="Trazado 1218054" d="M72.145,159.213l4.847-16.226h1.783l-4.868,16.226Z" transform="translate(-64.092 -142.987)" fill="#263238"/>
              <path id="Trazado_1218055" data-name="Trazado 1218055" d="M85.832,159.6v-2.685l3.926-2.845-3.926-2.8v-2.684l6.11,4.287v2.444Z" transform="translate(-69.246 -145.092)" fill="#263238"/>
            </g>
          </g>
        </g>
      </g>
    </g>
  </g>
</svg>
