<svg xmlns="http://www.w3.org/2000/svg" xmlns:xlink="http://www.w3.org/1999/xlink" width="190" height="127" viewBox="0 0 190 127">
  <defs>
    <clipPath id="clip-path">
      <rect id="Rectángulo_422718" data-name="Rectángulo 422718" width="190" height="126" transform="translate(1230 2265)" fill="#fff" stroke="#707070" stroke-width="1"/>
    </clipPath>
  </defs>
  <g id="Grupo_1228869" data-name="Grupo 1228869" transform="translate(-1230 -2265)">
    <g id="Enmascarar_grupo_1208510" data-name="Enmascarar grupo 1208510" clip-path="url(#clip-path)">
      <g id="programacion-web" transform="translate(1236.184 2255.927)">
        <g id="Grupo_1228868" data-name="Grupo 1228868" transform="translate(14.5 22.601)">
          <g id="Grupo_1228780" data-name="Grupo 1228780" transform="translate(41.132 74.584)">
            <g id="Grupo_1228777" data-name="Grupo 1228777" transform="translate(0.627 0.572)">
              <g id="Grupo_1228776" data-name="Grupo 1228776">
                <path id="Trazado_1218387" data-name="Trazado 1218387" d="M151.315,111.492a6.752,6.752,0,0,1-4.958,8.07,228.793,228.793,0,0,1-37.265,5.953A247.786,247.786,0,0,1,71,125.528c-6.447-.493-13.133-1.249-20.037-2.325a6.756,6.756,0,0,1-4.613-10.372c11.7-17.806,30.093-39.093,47.263-30.873,0,0,29.8-11.771,46.271,6.535a51.139,51.139,0,0,1,11.432,23Z" transform="translate(-45.24 -78.233)" fill="#aa52f9"/>
              </g>
            </g>
            <g id="Grupo_1228779" data-name="Grupo 1228779">
              <g id="Grupo_1228778" data-name="Grupo 1228778">
                <path id="Trazado_1218388" data-name="Trazado 1218388" d="M90.188,127c-6.353,0-12.737-.242-19.108-.726-6.689-.512-13.448-1.3-20.086-2.33A7.384,7.384,0,0,1,45.952,112.6C58.236,93.917,76.48,73.393,93.769,81.394c2.99-1.1,30.958-10.71,46.711,6.8,5.539,6.15,9.432,13.982,11.576,23.277a7.417,7.417,0,0,1-5.419,8.822,229.175,229.175,0,0,1-37.367,5.97c-6.3.493-12.674.739-19.081.739ZM85.793,80.876c-14.208,0-28.573,16.876-38.79,32.418a6.127,6.127,0,0,0,4.185,9.405c6.606,1.029,13.331,1.809,19.987,2.318a247.512,247.512,0,0,0,37.995-.011,227.881,227.881,0,0,0,37.162-5.938,6.154,6.154,0,0,0,4.5-7.318c-2.094-9.085-5.891-16.727-11.285-22.718-15.986-17.765-45.279-6.487-45.574-6.371a.638.638,0,0,1-.5-.017,17.567,17.567,0,0,0-7.676-1.768Z" transform="translate(-44.741 -77.779)"/>
              </g>
            </g>
          </g>
          <g id="Grupo_1228783" data-name="Grupo 1228783" transform="translate(63.748 85.413)">
            <g id="Grupo_1228782" data-name="Grupo 1228782">
              <g id="Grupo_1228781" data-name="Grupo 1228781">
                <path id="Trazado_1218389" data-name="Trazado 1218389" d="M108.865,96.291c-2.7,10.829-1.962,20.651-4.281,27.123a247.786,247.786,0,0,1-38.092.013c-4.879-6.383-4.315-16.328-2.268-28.244,3.634-21.155,8.261,2.5,21.331,2.5s28.073-20.525,23.308-1.39Z" transform="translate(-62.721 -86.387)"/>
              </g>
            </g>
          </g>
          <g id="Grupo_1228788" data-name="Grupo 1228788" transform="translate(69.699 7.312)">
            <g id="Grupo_1228785" data-name="Grupo 1228785" transform="translate(0.63 0.629)">
              <g id="Grupo_1228784" data-name="Grupo 1228784">
                <path id="Trazado_1218390" data-name="Trazado 1218390" d="M82.869,94.177s2.168-6.622,2.321-8.983a2.263,2.263,0,0,0,.322.015c-12.693-1.027-16.985-13.2-17.491-29.188C67.239,31.54,73.218,24.8,87.29,24.8c13.414,0,24.405,14.7,25.417,30.522,2.3-.874,4.553-.736,5.948.613,2.315,2.223,1.441,6.868-1.932,10.378a11.064,11.064,0,0,1-6.209,3.434,26.081,26.081,0,0,1-1.25,2.632,36.2,36.2,0,0,0-4.18,19.728h0C93.011,96.4,83.894,98.41,82.869,94.177Z" transform="translate(-67.953 -24.795)" fill="#fdfdfd"/>
              </g>
            </g>
            <g id="Grupo_1228787" data-name="Grupo 1228787">
              <g id="Grupo_1228786" data-name="Grupo 1228786">
                <path id="Trazado_1218391" data-name="Trazado 1218391" d="M87.52,97.275a7.315,7.315,0,0,1-3.468-.689,3.21,3.21,0,0,1-1.667-2.131.641.641,0,0,1,.014-.344,74.609,74.609,0,0,0,2.227-8.246c-10.92-1.392-16.517-11.12-17.106-29.695-.453-14.2,1.34-22.593,5.814-27.211C76.416,25.776,80.892,24.3,87.42,24.3c12.829,0,24.583,13.792,25.984,30.3,2.32-.661,4.456-.307,5.817,1.012a5.628,5.628,0,0,1,1.349,5.274,12.113,12.113,0,0,1-3.264,5.992,11.9,11.9,0,0,1-6.217,3.565c-.344.811-.727,1.605-1.144,2.367a35.515,35.515,0,0,0-4.105,19.386.629.629,0,0,1-.416.634c-8.44,3-14.214,4.451-17.9,4.451ZM83.655,94.32a1.97,1.97,0,0,0,1,1.16c2.521,1.362,9.033.155,19.908-3.683A36.667,36.667,0,0,1,108.843,72.2a25.62,25.62,0,0,0,1.219-2.568.627.627,0,0,1,.5-.386A10.431,10.431,0,0,0,116.4,66a10.851,10.851,0,0,0,2.933-5.351,4.422,4.422,0,0,0-.985-4.138c-1.155-1.117-3.131-1.3-5.288-.478a.643.643,0,0,1-.564-.059.628.628,0,0,1-.287-.489C111.171,39.26,99.818,25.553,87.42,25.553c-6.165,0-10.354,1.36-13.183,4.281-4.217,4.354-5.9,12.464-5.459,26.3.581,18.357,6.113,27.706,16.913,28.581a.629.629,0,0,1,.2,1.2,68.923,68.923,0,0,1-2.233,8.4Z" transform="translate(-67.453 -24.295)"/>
              </g>
            </g>
          </g>
          <g id="Grupo_1228791" data-name="Grupo 1228791" transform="translate(78.036 64.047)">
            <g id="Grupo_1228790" data-name="Grupo 1228790">
              <g id="Grupo_1228789" data-name="Grupo 1228789">
                <path id="Trazado_1218392" data-name="Trazado 1218392" d="M85.708,74.415A16.883,16.883,0,0,1,74.3,70.5a.629.629,0,0,1,.823-.951,15.667,15.667,0,0,0,10.587,3.6,25.061,25.061,0,0,0,8.859-1.581.629.629,0,1,1,.442,1.177,26.3,26.3,0,0,1-9.3,1.662Z" transform="translate(-74.081 -69.401)"/>
              </g>
            </g>
          </g>
          <g id="Grupo_1228794" data-name="Grupo 1228794" transform="translate(71.537 34.537)">
            <g id="Grupo_1228793" data-name="Grupo 1228793">
              <g id="Grupo_1228792" data-name="Grupo 1228792">
                <path id="Trazado_1218393" data-name="Trazado 1218393" d="M73.126,48.737c0,1.544-.938,2.789-2.1,2.789s-2.11-1.245-2.11-2.789.946-2.8,2.11-2.8S73.126,47.193,73.126,48.737Z" transform="translate(-68.914 -45.94)"/>
              </g>
            </g>
          </g>
          <g id="Grupo_1228797" data-name="Grupo 1228797" transform="translate(88.704 34.811)">
            <g id="Grupo_1228796" data-name="Grupo 1228796">
              <g id="Grupo_1228795" data-name="Grupo 1228795">
                <path id="Trazado_1218394" data-name="Trazado 1218394" d="M86.774,48.954c0,1.544-.938,2.789-2.1,2.789s-2.11-1.245-2.11-2.789.946-2.8,2.11-2.8S86.774,47.41,86.774,48.954Z" transform="translate(-82.563 -46.157)"/>
              </g>
            </g>
          </g>
          <g id="Grupo_1228800" data-name="Grupo 1228800" transform="translate(72.145 26.162)">
            <g id="Grupo_1228799" data-name="Grupo 1228799">
              <g id="Grupo_1228798" data-name="Grupo 1228798">
                <path id="Trazado_1218395" data-name="Trazado 1218395" d="M77.446,42.414a.625.625,0,0,1-.482-.225,4.645,4.645,0,0,0-6.534-.565.629.629,0,0,1-.808-.963,5.9,5.9,0,0,1,8.3.72.629.629,0,0,1-.482,1.033Z" transform="translate(-69.397 -39.281)"/>
              </g>
            </g>
          </g>
          <g id="Grupo_1228803" data-name="Grupo 1228803" transform="translate(80.233 41.004)">
            <g id="Grupo_1228802" data-name="Grupo 1228802">
              <g id="Grupo_1228801" data-name="Grupo 1228801">
                <path id="Trazado_1218396" data-name="Trazado 1218396" d="M77.657,60.3a2.231,2.231,0,0,1-.647-.091,1.615,1.615,0,0,1-1.176-1.339,2.107,2.107,0,0,1,.329-1.2,33.741,33.741,0,0,0,2.242-6.14.629.629,0,1,1,1.206.354,34.651,34.651,0,0,1-2.329,6.362,1.283,1.283,0,0,0-.2.5.392.392,0,0,0,.286.255,1.693,1.693,0,0,0,.814-.034,5.7,5.7,0,0,0,2.059-.921.63.63,0,0,1,.732,1.024A7,7,0,0,1,78.463,60.2a3.729,3.729,0,0,1-.806.1Z" transform="translate(-75.828 -51.081)"/>
              </g>
            </g>
          </g>
          <g id="Grupo_1228806" data-name="Grupo 1228806" transform="translate(113.774 41.824)">
            <g id="Grupo_1228805" data-name="Grupo 1228805">
              <g id="Grupo_1228804" data-name="Grupo 1228804">
                <path id="Trazado_1218397" data-name="Trazado 1218397" d="M103.122,57.957a.629.629,0,0,1-.107-1.248,3.446,3.446,0,0,0,2.18-1.792,3.714,3.714,0,0,0,.475-2.433.628.628,0,0,1,1.233-.243,4.973,4.973,0,0,1-.608,3.283,4.66,4.66,0,0,1-3.065,2.424.548.548,0,0,1-.109.01Z" transform="translate(-102.494 -51.733)"/>
              </g>
            </g>
          </g>
          <g id="Grupo_1228809" data-name="Grupo 1228809" transform="translate(82.517 52.812)">
            <g id="Grupo_1228808" data-name="Grupo 1228808">
              <g id="Grupo_1228807" data-name="Grupo 1228807">
                <path id="Trazado_1218398" data-name="Trazado 1218398" d="M79.8,63.787a4.2,4.2,0,0,1-1.792-.4.629.629,0,1,1,.536-1.137,2.97,2.97,0,0,0,3.944-1.419.629.629,0,0,1,1.137.536A4.225,4.225,0,0,1,79.8,63.787Z" transform="translate(-77.643 -60.468)"/>
              </g>
            </g>
          </g>
          <g id="Grupo_1228812" data-name="Grupo 1228812" transform="translate(80.504 33.453)">
            <g id="Grupo_1228811" data-name="Grupo 1228811">
              <g id="Grupo_1228810" data-name="Grupo 1228810">
                <path id="Trazado_1218399" data-name="Trazado 1218399" d="M81.306,47.189a.62.62,0,0,1-.392-.138,3.23,3.23,0,0,0-3.87-.118A.629.629,0,0,1,76.3,45.92a4.464,4.464,0,0,1,5.4.149.629.629,0,0,1-.392,1.12Z" transform="translate(-76.043 -45.078)"/>
              </g>
            </g>
          </g>
          <g id="Grupo_1228815" data-name="Grupo 1228815" transform="translate(84.907 29.834)">
            <g id="Grupo_1228814" data-name="Grupo 1228814">
              <g id="Grupo_1228813" data-name="Grupo 1228813">
                <path id="Trazado_1218400" data-name="Trazado 1218400" d="M87.388,57.917a7.858,7.858,0,1,1,7.859-7.858A7.86,7.86,0,0,1,87.388,57.917Zm0-14.459a6.6,6.6,0,1,0,6.6,6.6A6.6,6.6,0,0,0,87.388,43.458Z" transform="translate(-79.544 -42.2)"/>
              </g>
            </g>
          </g>
          <g id="Grupo_1228818" data-name="Grupo 1228818" transform="translate(66.662 29.834)">
            <g id="Grupo_1228817" data-name="Grupo 1228817">
              <g id="Grupo_1228816" data-name="Grupo 1228816">
                <path id="Trazado_1218401" data-name="Trazado 1218401" d="M72.882,57.917a7.858,7.858,0,1,1,7.859-7.858A7.86,7.86,0,0,1,72.882,57.917Zm0-14.459a6.6,6.6,0,1,0,6.6,6.6A6.6,6.6,0,0,0,72.882,43.458Z" transform="translate(-65.038 -42.2)"/>
              </g>
            </g>
          </g>
          <g id="Grupo_1228821" data-name="Grupo 1228821" transform="translate(66.745 33.908)">
            <g id="Grupo_1228820" data-name="Grupo 1228820">
              <g id="Grupo_1228819" data-name="Grupo 1228819">
                <path id="Trazado_1218402" data-name="Trazado 1218402" d="M65.733,48.778a.629.629,0,0,1-.362-1.144l2.954-2.081a.629.629,0,1,1,.725,1.029L66.1,48.664A.629.629,0,0,1,65.733,48.778Z" transform="translate(-65.105 -45.44)"/>
              </g>
            </g>
          </g>
          <g id="Grupo_1228824" data-name="Grupo 1228824" transform="translate(68.474)">
            <g id="Grupo_1228823" data-name="Grupo 1228823">
              <g id="Grupo_1228822" data-name="Grupo 1228822">
                <path id="Trazado_1218403" data-name="Trazado 1218403" d="M119.947,63.4c2.484-9.695-6.879-6.332-6.879-6.332-17.492-1.707-12.956-21.033-12.956-21.033C78.25,48.675,68.8,42.244,68.8,42.244c-13.1-25.36,33.075-30.054,43.7-15.838,17.271-6.009,20.474,20.424,7.453,37Z" transform="translate(-66.479 -18.482)"/>
              </g>
            </g>
          </g>
          <g id="Grupo_1228827" data-name="Grupo 1228827" transform="translate(99.266 35.987)">
            <g id="Grupo_1228826" data-name="Grupo 1228826">
              <g id="Grupo_1228825" data-name="Grupo 1228825">
                <path id="Trazado_1218404" data-name="Trazado 1218404" d="M106.758,50.322a.617.617,0,0,1-.082,0l-15.169-1.97a.629.629,0,1,1,.162-1.248l15.169,1.97a.629.629,0,0,1-.08,1.253Z" transform="translate(-90.959 -47.092)"/>
              </g>
            </g>
          </g>
          <g id="Grupo_1228830" data-name="Grupo 1228830" transform="translate(89.068 25.872)">
            <g id="Grupo_1228829" data-name="Grupo 1228829">
              <g id="Grupo_1228828" data-name="Grupo 1228828">
                <path id="Trazado_1218405" data-name="Trazado 1218405" d="M90.9,42.183a.625.625,0,0,1-.482-.225,4.645,4.645,0,0,0-6.534-.565.629.629,0,0,1-.808-.963,5.9,5.9,0,0,1,8.3.72.628.628,0,0,1-.077.886A.62.62,0,0,1,90.9,42.183Z" transform="translate(-82.851 -39.051)"/>
              </g>
            </g>
          </g>
          <g id="Grupo_1228833" data-name="Grupo 1228833" transform="translate(0 11.232)">
            <g id="Grupo_1228832" data-name="Grupo 1228832">
              <g id="Grupo_1228831" data-name="Grupo 1228831">
                <path id="Trazado_1218406" data-name="Trazado 1218406" d="M66.227,88.214H18.658A6.625,6.625,0,0,1,12.04,81.6V34.028a6.625,6.625,0,0,1,6.618-6.617H66.227a6.625,6.625,0,0,1,6.617,6.617V81.6A6.625,6.625,0,0,1,66.227,88.214ZM18.658,28.669a5.366,5.366,0,0,0-5.36,5.359V81.6a5.366,5.366,0,0,0,5.36,5.359H66.227A5.365,5.365,0,0,0,71.586,81.6V34.028a5.365,5.365,0,0,0-5.359-5.359Z" transform="translate(-12.04 -27.411)"/>
              </g>
            </g>
          </g>
          <g id="Grupo_1228836" data-name="Grupo 1228836" transform="translate(0.629 11.861)">
            <g id="Grupo_1228835" data-name="Grupo 1228835">
              <g id="Grupo_1228834" data-name="Grupo 1228834">
                <path id="Trazado_1218407" data-name="Trazado 1218407" d="M72.086,42.531V33.9A5.988,5.988,0,0,0,66.1,27.911H18.529A5.988,5.988,0,0,0,12.54,33.9v8.631Z" transform="translate(-12.54 -27.911)"/>
              </g>
            </g>
          </g>
          <g id="Grupo_1228839" data-name="Grupo 1228839" transform="translate(5.972 16.858)">
            <g id="Grupo_1228838" data-name="Grupo 1228838">
              <g id="Grupo_1228837" data-name="Grupo 1228837">
                <path id="Trazado_1218408" data-name="Trazado 1218408" d="M21.425,34.2a2.319,2.319,0,1,1-2.319-2.319A2.316,2.316,0,0,1,21.425,34.2Z" transform="translate(-16.788 -31.884)" fill="#fff"/>
              </g>
            </g>
          </g>
          <g id="Grupo_1228842" data-name="Grupo 1228842" transform="translate(13.799 16.858)">
            <g id="Grupo_1228841" data-name="Grupo 1228841">
              <g id="Grupo_1228840" data-name="Grupo 1228840">
                <path id="Trazado_1218409" data-name="Trazado 1218409" d="M27.648,34.2a2.319,2.319,0,1,1-2.319-2.319A2.316,2.316,0,0,1,27.648,34.2Z" transform="translate(-23.011 -31.884)" fill="#fff"/>
              </g>
            </g>
          </g>
          <g id="Grupo_1228845" data-name="Grupo 1228845" transform="translate(21.627 16.858)">
            <g id="Grupo_1228844" data-name="Grupo 1228844">
              <g id="Grupo_1228843" data-name="Grupo 1228843">
                <path id="Trazado_1218410" data-name="Trazado 1218410" d="M33.871,34.2a2.319,2.319,0,1,1-2.319-2.319A2.316,2.316,0,0,1,33.871,34.2Z" transform="translate(-29.234 -31.884)" fill="#fff"/>
              </g>
            </g>
          </g>
          <g id="Grupo_1228850" data-name="Grupo 1228850" transform="translate(6.413 32.446)">
            <g id="Grupo_1228847" data-name="Grupo 1228847" transform="translate(0.629 0.629)">
              <g id="Grupo_1228846" data-name="Grupo 1228846">
                <path id="Trazado_1218411" data-name="Trazado 1218411" d="M64.351,50.681l-1.6,23.307a3.012,3.012,0,0,1-3.211,2.8L20.444,74.1a3.012,3.012,0,0,1-2.8-3.211l1.6-23.307a3.012,3.012,0,0,1,3.211-2.8L61.553,47.47A3.012,3.012,0,0,1,64.351,50.681Z" transform="translate(-17.639 -44.777)" fill="#aa52f9"/>
              </g>
            </g>
            <g id="Grupo_1228849" data-name="Grupo 1228849">
              <g id="Grupo_1228848" data-name="Grupo 1228848">
                <path id="Trazado_1218412" data-name="Trazado 1218412" d="M59.875,77.552c-.084,0-.167,0-.251-.009L20.53,74.857a3.645,3.645,0,0,1-3.383-3.882l1.6-23.308a3.642,3.642,0,0,1,3.882-3.383l39.094,2.686a3.645,3.645,0,0,1,3.383,3.882l-1.6,23.308A3.648,3.648,0,0,1,59.875,77.552Zm-37.5-32.018A2.385,2.385,0,0,0,20,47.754L18.4,71.061a2.384,2.384,0,0,0,2.213,2.54L59.71,76.288a2.377,2.377,0,0,0,2.54-2.213l1.6-23.308a2.384,2.384,0,0,0-2.213-2.54L22.545,45.54c-.055,0-.111-.006-.166-.006Z" transform="translate(-17.139 -44.277)"/>
              </g>
            </g>
          </g>
          <g id="Grupo_1228861" data-name="Grupo 1228861" transform="translate(19.302 39.868)">
            <g id="Grupo_1228853" data-name="Grupo 1228853" transform="translate(4.84)">
              <g id="Grupo_1228852" data-name="Grupo 1228852">
                <g id="Grupo_1228851" data-name="Grupo 1228851">
                  <path id="Trazado_1218413" data-name="Trazado 1218413" d="M31.862,68.608a.629.629,0,0,1-.526-.974L42.6,50.462a.629.629,0,1,1,1.051.69L32.388,68.324a.627.627,0,0,1-.526.284Z" transform="translate(-31.234 -50.178)"/>
                </g>
              </g>
            </g>
            <g id="Grupo_1228860" data-name="Grupo 1228860" transform="translate(0 0.946)">
              <g id="Grupo_1228856" data-name="Grupo 1228856" transform="translate(16.44 6.861)">
                <g id="Grupo_1228855" data-name="Grupo 1228855">
                  <g id="Grupo_1228854" data-name="Grupo 1228854">
                    <path id="Trazado_1218414" data-name="Trazado 1218414" d="M41.085,66.068a.629.629,0,0,1-.413-1.1L44.7,61.456l-3.511-4.028a.629.629,0,1,1,.948-.825l3.923,4.5a.627.627,0,0,1-.061.887l-4.5,3.922a.624.624,0,0,1-.413.155Z" transform="translate(-40.456 -56.385)"/>
                  </g>
                </g>
              </g>
              <g id="Grupo_1228859" data-name="Grupo 1228859">
                <g id="Grupo_1228858" data-name="Grupo 1228858">
                  <g id="Grupo_1228857" data-name="Grupo 1228857">
                    <path id="Trazado_1218415" data-name="Trazado 1218415" d="M31.938,60.613a.623.623,0,0,1-.474-.216l-3.923-4.5a.631.631,0,0,1-.154-.456.624.624,0,0,1,.215-.431l4.5-3.923a.629.629,0,1,1,.825.948L28.9,55.545l3.511,4.026a.629.629,0,0,1-.474,1.042Z" transform="translate(-27.386 -50.93)"/>
                  </g>
                </g>
              </g>
            </g>
          </g>
          <g id="Grupo_1228864" data-name="Grupo 1228864" transform="translate(99.2 75.2)">
            <g id="Grupo_1228863" data-name="Grupo 1228863">
              <g id="Grupo_1228862" data-name="Grupo 1228862">
                <path id="Trazado_1218416" data-name="Trazado 1218416" d="M101.764,125.112q-4.969.5-10.319.777A63.522,63.522,0,0,1,104.49,78.268h.013a40.188,40.188,0,0,1,9.3,1.44,63.406,63.406,0,0,0-12.039,45.4Z" transform="translate(-90.907 -78.268)"/>
              </g>
            </g>
          </g>
          <g id="Grupo_1228867" data-name="Grupo 1228867" transform="translate(56.445 77.06)">
            <g id="Grupo_1228866" data-name="Grupo 1228866">
              <g id="Grupo_1228865" data-name="Grupo 1228865">
                <path id="Trazado_1218417" data-name="Trazado 1218417" d="M67.442,125.1q-5.121-.4-10.459-1.045a63.578,63.578,0,0,1,11.7-39.518c4.586-2.981,9.325-4.8,14.077-4.79-5.962,7.02-16.7,22.957-15.313,45.353Z" transform="translate(-56.915 -79.747)"/>
              </g>
            </g>
          </g>
        </g>
      </g>
    </g>
    <path id="Trazado_1218418" data-name="Trazado 1218418" d="M3538.217,2391h108.27" transform="translate(-2246.754)" fill="none" stroke="#000" stroke-linecap="round" stroke-width="2"/>
  </g>
</svg>
