<svg xmlns="http://www.w3.org/2000/svg" width="734" height="411" viewBox="0 0 734 411">
  <g id="Grupo_1229422" data-name="Grupo 1229422" transform="translate(-441 -3853)">
    <g id="Grupo_1228434" data-name="Grupo 1228434" transform="translate(0 -21)">
      <g id="Rectángulo_417673" data-name="Rectángulo 417673" transform="translate(441 3874)" fill="#5c2c88" stroke="#707070" stroke-width="1">
        <rect width="222" height="56" stroke="none"/>
        <rect x="0.5" y="0.5" width="221" height="55" fill="none"/>
      </g>
      <g id="Rectángulo_417674" data-name="Rectángulo 417674" transform="translate(441 3928)" fill="#fff" stroke="#5c2c88" stroke-width="1">
        <rect width="222" height="108" stroke="none"/>
        <rect x="0.5" y="0.5" width="221" height="107" fill="none"/>
      </g>
      <g id="Rectángulo_417675" data-name="Rectángulo 417675" transform="translate(441 4035)" fill="#fff" stroke="#5c2c88" stroke-width="1">
        <rect width="222" height="77" stroke="none"/>
        <rect x="0.5" y="0.5" width="221" height="76" fill="none"/>
      </g>
      <path id="Trazado_1219419" data-name="Trazado 1219419" d="M10.389-5.66H4.1v3.331h7.172V0H1.45V-12.955h9.5v2.294H4.1V-7.91h6.293Zm9.387-3.48a3.086,3.086,0,0,1,1.292,2.479h-2.5a1.482,1.482,0,0,0-.272-.765,1.714,1.714,0,0,0-1.406-.51,2.021,2.021,0,0,0-1.165.255.734.734,0,0,0-.347.6.654.654,0,0,0,.369.624,15.98,15.98,0,0,0,2.61.694A4.8,4.8,0,0,1,20.593-4.7a2.415,2.415,0,0,1,.738,1.8A2.911,2.911,0,0,1,20.272-.576,4.976,4.976,0,0,1,17,.325a4.929,4.929,0,0,1-3.335-.954,3.1,3.1,0,0,1-1.077-2.43h2.54a1.673,1.673,0,0,0,.343.949,2.317,2.317,0,0,0,1.723.5,2.626,2.626,0,0,0,1.173-.22.7.7,0,0,0,.435-.659.711.711,0,0,0-.352-.642,14.3,14.3,0,0,0-2.61-.756A5.437,5.437,0,0,1,13.544-4.9a2.191,2.191,0,0,1-.668-1.723A2.988,2.988,0,0,1,13.917-8.9a4.183,4.183,0,0,1,2.931-.954A5.427,5.427,0,0,1,19.775-9.141Zm7.8,7.356V.088L26.385.132a3.184,3.184,0,0,1-2.426-.615,1.832,1.832,0,0,1-.422-1.327v-5.9H22.2V-9.492h1.336v-2.672h2.479v2.672h1.556v1.784H26.016v5.063a1.14,1.14,0,0,0,.149.734,1.645,1.645,0,0,0,.914.145q.114,0,.242,0T27.571-1.784Zm7.752.431q-.035.044-.176.264a1.764,1.764,0,0,1-.334.387,3.488,3.488,0,0,1-1.138.721,3.879,3.879,0,0,1-1.288.193,2.87,2.87,0,0,1-2.865-1.529,5.852,5.852,0,0,1-.413-2.487V-9.58h2.566v5.774a3.023,3.023,0,0,0,.193,1.23,1.338,1.338,0,0,0,1.345.729,1.758,1.758,0,0,0,1.758-1.037,3.754,3.754,0,0,0,.246-1.485V-9.58h2.54V0H35.323Zm13.57-11.584V0H46.459V-1.327A3.533,3.533,0,0,1,45.237-.088,3.43,3.43,0,0,1,43.532.3a3.56,3.56,0,0,1-2.826-1.358A5.215,5.215,0,0,1,39.56-4.544,6,6,0,0,1,40.689-8.4a3.674,3.674,0,0,1,3.019-1.406,3.09,3.09,0,0,1,1.547.382,3.043,3.043,0,0,1,1.1,1.059v-4.57Zm-6.75,8.209a3.767,3.767,0,0,0,.527,2.118,1.756,1.756,0,0,0,1.582.8A1.849,1.849,0,0,0,45.87-2.6a3.5,3.5,0,0,0,.554-2.048,3.141,3.141,0,0,0-.888-2.514,1.91,1.91,0,0,0-1.266-.457,1.759,1.759,0,0,0-1.613.831A3.848,3.848,0,0,0,42.144-4.729Zm11.6-4.852V0h-2.54V-9.58Zm0-3.454v2.312h-2.54v-2.312Zm2.786,4.491a4.09,4.09,0,0,1,3.41-1.266,6.059,6.059,0,0,1,2.795.624,2.4,2.4,0,0,1,1.222,2.355v4.395q0,.457.018,1.107a1.392,1.392,0,0,0,.149.668.9.9,0,0,0,.369.29V0H61.77a2.79,2.79,0,0,1-.158-.545q-.044-.255-.07-.58a5.146,5.146,0,0,1-1.2.958A3.6,3.6,0,0,1,58.518.3a3.143,3.143,0,0,1-2.149-.743,2.649,2.649,0,0,1-.848-2.1,2.732,2.732,0,0,1,1.362-2.558,6.049,6.049,0,0,1,2.2-.615l.853-.105a3.91,3.91,0,0,0,.993-.22.753.753,0,0,0,.536-.712.845.845,0,0,0-.409-.813,2.553,2.553,0,0,0-1.2-.224,1.563,1.563,0,0,0-1.257.439,1.827,1.827,0,0,0-.352.879H55.828A3.676,3.676,0,0,1,56.531-8.543Zm1.863,6.732a1.309,1.309,0,0,0,.861.29A2.551,2.551,0,0,0,60.746-2a2.024,2.024,0,0,0,.708-1.731v-.932a2.722,2.722,0,0,1-.479.242,4.006,4.006,0,0,1-.664.171l-.562.105a3.632,3.632,0,0,0-1.134.343,1.149,1.149,0,0,0-.58,1.063A1.1,1.1,0,0,0,58.395-1.811Zm12.3-5.915a1.744,1.744,0,0,0-1.749,1.081A3.713,3.713,0,0,0,68.7-5.186V0H66.2V-9.562h2.417v1.4a4.252,4.252,0,0,1,.914-1.063,3.177,3.177,0,0,1,1.96-.58,3.7,3.7,0,0,1,2.43.778,3.163,3.163,0,0,1,.945,2.58V0H72.3V-5.827a2.659,2.659,0,0,0-.2-1.16A1.422,1.422,0,0,0,70.69-7.726ZM81.563-1.784V.088L80.376.132A3.184,3.184,0,0,1,77.95-.483a1.832,1.832,0,0,1-.422-1.327v-5.9H76.192V-9.492h1.336v-2.672h2.479v2.672h1.556v1.784H80.007v5.063a1.14,1.14,0,0,0,.149.734,1.645,1.645,0,0,0,.914.145q.114,0,.242,0T81.563-1.784Zm9.809-1.028a3.178,3.178,0,0,1-.888,1.731,4.349,4.349,0,0,1-3.445,1.4A4.858,4.858,0,0,1,83.813-.861a4.75,4.75,0,0,1-1.4-3.832,5.326,5.326,0,0,1,1.261-3.814A4.312,4.312,0,0,1,86.95-9.835a5.021,5.021,0,0,1,2.153.448,3.772,3.772,0,0,1,1.582,1.415,4.828,4.828,0,0,1,.729,1.978,12.771,12.771,0,0,1,.079,1.9H84.938a2.381,2.381,0,0,0,.905,2.021,2.132,2.132,0,0,0,1.248.36,1.8,1.8,0,0,0,1.257-.439,2.087,2.087,0,0,0,.466-.659ZM88.893-5.748a2.181,2.181,0,0,0-.6-1.507,1.87,1.87,0,0,0-1.34-.514,1.7,1.7,0,0,0-1.349.545A2.72,2.72,0,0,0,85-5.748Z" transform="translate(506 3909)" fill="#fff"/>
      <path id="Trazado_1219420" data-name="Trazado 1219420" d="M.809-3.85V-5.326H4.641V-9.185h1.5v3.858H9.976V-3.85H6.144V0h-1.5V-3.85ZM11.674-9.413h1.5v1.336a4.215,4.215,0,0,1,1.415-1.187,3.773,3.773,0,0,1,1.661-.36,2.739,2.739,0,0,1,2.707,1.4,4.962,4.962,0,0,1,.387,2.188V0H17.738V-5.933a3.212,3.212,0,0,0-.255-1.389A1.545,1.545,0,0,0,15.954-8.2a3.114,3.114,0,0,0-.923.114,2.377,2.377,0,0,0-1.143.773,2.329,2.329,0,0,0-.514.962,6.478,6.478,0,0,0-.119,1.419V0H11.674ZM25.422-1.02A2.182,2.182,0,0,0,27.579-2.21a5.933,5.933,0,0,0,.584-2.65A4.718,4.718,0,0,0,27.742-7a2.373,2.373,0,0,0-2.3-1.3A2.271,2.271,0,0,0,23.33-7.2a5.133,5.133,0,0,0-.659,2.672,4.465,4.465,0,0,0,.659,2.5A2.322,2.322,0,0,0,25.422-1.02Zm.062-8.666a4.262,4.262,0,0,1,3.076,1.213A4.736,4.736,0,0,1,29.816-4.9a6.122,6.122,0,0,1-1.107,3.762A4.006,4.006,0,0,1,25.272.343,3.88,3.88,0,0,1,22.187-.971,5.19,5.19,0,0,1,21.045-4.5a5.615,5.615,0,0,1,1.2-3.779A4.041,4.041,0,0,1,25.483-9.686Zm6.216.272h1.564v1.336a5.258,5.258,0,0,1,1.02-1.011,3.066,3.066,0,0,1,1.775-.536,2.794,2.794,0,0,1,1.811.554,2.894,2.894,0,0,1,.7.932,3.419,3.419,0,0,1,1.239-1.121,3.457,3.457,0,0,1,1.6-.365,2.616,2.616,0,0,1,2.584,1.371,4.482,4.482,0,0,1,.369,1.986V0H42.72V-6.539a1.523,1.523,0,0,0-.47-1.292A1.861,1.861,0,0,0,41.1-8.183a2.277,2.277,0,0,0-1.6.624,2.74,2.74,0,0,0-.672,2.083V0H37.218V-6.144a3.192,3.192,0,0,0-.229-1.4A1.394,1.394,0,0,0,35.645-8.2a2.32,2.32,0,0,0-1.63.694,3.4,3.4,0,0,0-.734,2.514V0H31.7Zm14.873-3.542H48.11v4.685A3.508,3.508,0,0,1,49.349-9.3a3.484,3.484,0,0,1,1.564-.356,3.667,3.667,0,0,1,2.852,1.208A5.148,5.148,0,0,1,54.86-4.887a6.112,6.112,0,0,1-1.081,3.709,3.507,3.507,0,0,1-3,1.477A3.071,3.071,0,0,1,48.971-.22a4.372,4.372,0,0,1-.94-.984V0H46.572ZM50.685-1.1a2.114,2.114,0,0,0,1.92-1.02,5.02,5.02,0,0,0,.637-2.689,4.414,4.414,0,0,0-.637-2.461,2.1,2.1,0,0,0-1.876-.976,2.617,2.617,0,0,0-1.894.8,3.592,3.592,0,0,0-.813,2.637,5.827,5.827,0,0,0,.334,2.153A2.308,2.308,0,0,0,50.685-1.1Zm6.066-8.314h1.5v1.626a3.592,3.592,0,0,1,.905-1.156,2.347,2.347,0,0,1,1.661-.681q.044,0,.149.009t.36.035v1.67a2.363,2.363,0,0,0-.259-.035q-.119-.009-.259-.009a2.258,2.258,0,0,0-1.837.769,2.684,2.684,0,0,0-.642,1.771V0H56.751Zm9.872-.211a4.294,4.294,0,0,1,1.942.47A3.582,3.582,0,0,1,70-7.937a4.2,4.2,0,0,1,.633,1.661A10.868,10.868,0,0,1,70.772-4.2h-6.9a4.026,4.026,0,0,0,.677,2.3,2.266,2.266,0,0,0,1.96.866,2.534,2.534,0,0,0,1.978-.817,2.755,2.755,0,0,0,.6-1.1H70.64A3.276,3.276,0,0,1,70.231-1.8a4.111,4.111,0,0,1-.778,1.042,3.687,3.687,0,0,1-1.784.949,5.42,5.42,0,0,1-1.292.141A3.964,3.964,0,0,1,63.4-.945a4.976,4.976,0,0,1-1.222-3.582,5.41,5.41,0,0,1,1.23-3.683A4.059,4.059,0,0,1,66.623-9.624Zm2.522,4.166A4.1,4.1,0,0,0,68.7-7.1a2.3,2.3,0,0,0-2.171-1.143,2.406,2.406,0,0,0-1.828.787,2.972,2.972,0,0,0-.782,2ZM73.551-9.29h1.837v1.916H73.551Zm0,7.374h1.837V0H73.551Zm10.524-2.25a3.528,3.528,0,0,0,.519,1.784A3.437,3.437,0,0,0,87.661-1.1a5.429,5.429,0,0,0,1.793-.281,1.992,1.992,0,0,0,1.564-1.951,1.684,1.684,0,0,0-.659-1.5A6.656,6.656,0,0,0,88.267-5.6l-1.749-.4a7.92,7.92,0,0,1-2.426-.853,2.7,2.7,0,0,1-1.23-2.417,3.722,3.722,0,0,1,1.2-2.856,4.831,4.831,0,0,1,3.41-1.116,5.923,5.923,0,0,1,3.45.98,3.537,3.537,0,0,1,1.419,3.133H90.7a3.235,3.235,0,0,0-.562-1.591,3.268,3.268,0,0,0-2.716-1.011,3.142,3.142,0,0,0-2.224.65,2.036,2.036,0,0,0-.677,1.512,1.476,1.476,0,0,0,.791,1.389,11.608,11.608,0,0,0,2.347.7l1.811.413a5.547,5.547,0,0,1,2.021.817,3.061,3.061,0,0,1,1.23,2.628,3.28,3.28,0,0,1-1.56,3.067,6.987,6.987,0,0,1-3.625.923,5.421,5.421,0,0,1-3.771-1.23,4.152,4.152,0,0,1-1.336-3.313Zm10.971-7.875h1.6v2.628h1.5v1.292h-1.5v6.144a.665.665,0,0,0,.334.659,1.42,1.42,0,0,0,.615.1q.114,0,.246,0t.308-.022V0a3.532,3.532,0,0,1-.567.114,5.39,5.39,0,0,1-.637.035,1.717,1.717,0,0,1-1.5-.567,2.519,2.519,0,0,1-.4-1.472V-8.121H93.771V-9.413h1.274Zm4.73,2.628h1.5v1.626a3.592,3.592,0,0,1,.905-1.156,2.347,2.347,0,0,1,1.661-.681q.044,0,.149.009t.36.035v1.67a2.363,2.363,0,0,0-.259-.035q-.119-.009-.259-.009A2.258,2.258,0,0,0,102-7.185a2.684,2.684,0,0,0-.642,1.771V0H99.776Zm5.952.044h1.608V0h-1.608Zm0-3.542h1.608v1.793h-1.608Zm4,3.5h1.5v1.336a4.215,4.215,0,0,1,1.415-1.187,3.773,3.773,0,0,1,1.661-.36,2.739,2.739,0,0,1,2.707,1.4,4.962,4.962,0,0,1,.387,2.188V0h-1.608V-5.933a3.212,3.212,0,0,0-.255-1.389,1.545,1.545,0,0,0-1.529-.879,3.114,3.114,0,0,0-.923.114,2.377,2.377,0,0,0-1.143.773,2.329,2.329,0,0,0-.514.962,6.478,6.478,0,0,0-.119,1.419V0h-1.582Zm13.335-.167A3.431,3.431,0,0,1,125-9.035a4.343,4.343,0,0,1,.914.9V-9.325h1.459V-.765a6.313,6.313,0,0,1-.527,2.83,3.786,3.786,0,0,1-3.718,1.916,4.56,4.56,0,0,1-2.558-.681,2.656,2.656,0,0,1-1.16-2.131h1.608a1.79,1.79,0,0,0,.457.976,2.33,2.33,0,0,0,1.688.527,2.322,2.322,0,0,0,2.382-1.283,7.227,7.227,0,0,0,.308-2.7,3.1,3.1,0,0,1-1.143,1.072,3.8,3.8,0,0,1-1.767.352,3.771,3.771,0,0,1-2.676-1.085,4.774,4.774,0,0,1-1.147-3.59,5.437,5.437,0,0,1,1.156-3.691A3.574,3.574,0,0,1,123.063-9.58Zm2.848,4.834a3.924,3.924,0,0,0-.721-2.593,2.309,2.309,0,0,0-1.837-.844,2.268,2.268,0,0,0-2.285,1.564,6.134,6.134,0,0,0-.325,2.188,3.885,3.885,0,0,0,.646,2.421,2.085,2.085,0,0,0,1.736.831,2.437,2.437,0,0,0,2.4-1.538A4.961,4.961,0,0,0,125.911-4.746Z" transform="translate(460 3962)" fill="#212429"/>
      <path id="Trazado_1219421" data-name="Trazado 1219421" d="M.809-3.85V-5.326H4.641V-9.185h1.5v3.858H9.976V-3.85H6.144V0h-1.5V-3.85ZM15.3-9.686a4.1,4.1,0,0,1,2.588.773,3.705,3.705,0,0,1,1.2,2.663H17.554a2.839,2.839,0,0,0-.642-1.446A2.027,2.027,0,0,0,15.3-8.271a2.222,2.222,0,0,0-2.162,1.477A5.865,5.865,0,0,0,12.72-4.43a4.449,4.449,0,0,0,.6,2.382,2.05,2.05,0,0,0,1.881.967,2.057,2.057,0,0,0,1.56-.6,3.311,3.311,0,0,0,.8-1.648h1.538A4.129,4.129,0,0,1,17.773-.593a4.113,4.113,0,0,1-2.7.866,3.6,3.6,0,0,1-2.944-1.349,5.164,5.164,0,0,1-1.1-3.371,5.678,5.678,0,0,1,1.2-3.858A3.891,3.891,0,0,1,15.3-9.686ZM24.411-1.02A2.182,2.182,0,0,0,26.569-2.21a5.933,5.933,0,0,0,.584-2.65A4.718,4.718,0,0,0,26.731-7a2.373,2.373,0,0,0-2.3-1.3A2.271,2.271,0,0,0,22.319-7.2a5.133,5.133,0,0,0-.659,2.672,4.465,4.465,0,0,0,.659,2.5A2.322,2.322,0,0,0,24.411-1.02Zm.062-8.666a4.262,4.262,0,0,1,3.076,1.213A4.736,4.736,0,0,1,28.805-4.9,6.122,6.122,0,0,1,27.7-1.143,4.006,4.006,0,0,1,24.261.343,3.88,3.88,0,0,1,21.176-.971,5.19,5.19,0,0,1,20.034-4.5a5.615,5.615,0,0,1,1.2-3.779A4.041,4.041,0,0,1,24.472-9.686ZM26.309-13.2l-2.347,2.54H22.75l1.608-2.54ZM31.69-4.6a4.666,4.666,0,0,0,.642,2.531,2.248,2.248,0,0,0,2.057,1.02,2.166,2.166,0,0,0,1.806-.945A4.462,4.462,0,0,0,36.9-4.7a4.009,4.009,0,0,0-.729-2.641,2.276,2.276,0,0,0-1.8-.857,2.378,2.378,0,0,0-1.938.914A4.186,4.186,0,0,0,31.69-4.6ZM34.072-9.58a3.349,3.349,0,0,1,1.811.457,4.253,4.253,0,0,1,.958.923v-4.755h1.521V0H36.937V-1.31a3.423,3.423,0,0,1-1.31,1.257A3.748,3.748,0,0,1,33.9.334,3.506,3.506,0,0,1,31.171-.989a5.172,5.172,0,0,1-1.151-3.52,6.076,6.076,0,0,1,1.05-3.564A3.439,3.439,0,0,1,34.072-9.58Zm6.629.211h1.608V0H40.7Zm0-3.542h1.608v1.793H40.7ZM48.024-9.58a3.431,3.431,0,0,1,1.934.545,4.343,4.343,0,0,1,.914.9V-9.325H52.33V-.765a6.313,6.313,0,0,1-.527,2.83,3.786,3.786,0,0,1-3.718,1.916A4.56,4.56,0,0,1,45.528,3.3a2.656,2.656,0,0,1-1.16-2.131h1.608a1.79,1.79,0,0,0,.457.976,2.33,2.33,0,0,0,1.688.527A2.322,2.322,0,0,0,50.5,1.389a7.227,7.227,0,0,0,.308-2.7A3.1,3.1,0,0,1,49.667-.237,3.8,3.8,0,0,1,47.9.114,3.771,3.771,0,0,1,45.224-.971a4.774,4.774,0,0,1-1.147-3.59,5.437,5.437,0,0,1,1.156-3.691A3.574,3.574,0,0,1,48.024-9.58Zm2.848,4.834a3.924,3.924,0,0,0-.721-2.593,2.309,2.309,0,0,0-1.837-.844,2.268,2.268,0,0,0-2.285,1.564A6.134,6.134,0,0,0,45.7-4.43a3.885,3.885,0,0,0,.646,2.421,2.085,2.085,0,0,0,1.736.831,2.437,2.437,0,0,0,2.4-1.538A4.961,4.961,0,0,0,50.871-4.746ZM58.449-1.02A2.182,2.182,0,0,0,60.607-2.21a5.933,5.933,0,0,0,.584-2.65A4.718,4.718,0,0,0,60.77-7a2.373,2.373,0,0,0-2.3-1.3A2.271,2.271,0,0,0,56.357-7.2,5.133,5.133,0,0,0,55.7-4.526a4.465,4.465,0,0,0,.659,2.5A2.322,2.322,0,0,0,58.449-1.02Zm.062-8.666a4.262,4.262,0,0,1,3.076,1.213A4.736,4.736,0,0,1,62.844-4.9a6.122,6.122,0,0,1-1.107,3.762A4.006,4.006,0,0,1,58.3.343,3.88,3.88,0,0,1,55.215-.971,5.19,5.19,0,0,1,54.072-4.5a5.615,5.615,0,0,1,1.2-3.779A4.041,4.041,0,0,1,58.511-9.686Zm7.051.4H67.4v1.916H65.561Zm0,7.374H67.4V0H65.561Zm9.171-7.453H76.34V0H74.732Zm0-3.542H76.34v1.793H74.732Zm4,3.5h1.5v1.336a4.215,4.215,0,0,1,1.415-1.187,3.773,3.773,0,0,1,1.661-.36,2.739,2.739,0,0,1,2.707,1.4,4.962,4.962,0,0,1,.387,2.188V0H84.8V-5.933a3.212,3.212,0,0,0-.255-1.389A1.545,1.545,0,0,0,83.013-8.2a3.114,3.114,0,0,0-.923.114,2.377,2.377,0,0,0-1.143.773,2.329,2.329,0,0,0-.514.962,6.478,6.478,0,0,0-.119,1.419V0H78.733Zm10.329-2.628h1.6v2.628h1.5v1.292h-1.5v6.144A.665.665,0,0,0,91-1.318a1.42,1.42,0,0,0,.615.1q.114,0,.246,0t.308-.022V0A3.532,3.532,0,0,1,91.6.114a5.39,5.39,0,0,1-.637.035,1.717,1.717,0,0,1-1.5-.567,2.519,2.519,0,0,1-.4-1.472V-8.121H87.787V-9.413h1.274Z" transform="translate(460 3990)" fill="#212429"/>
      <path id="Trazado_1219423" data-name="Trazado 1219423" d="M.809-3.85V-5.326H4.641V-9.185h1.5v3.858H9.976V-3.85H6.144V0h-1.5V-3.85ZM16.676-9.413h1.564v1.336a5.258,5.258,0,0,1,1.02-1.011,3.066,3.066,0,0,1,1.775-.536,2.794,2.794,0,0,1,1.811.554,2.894,2.894,0,0,1,.7.932,3.419,3.419,0,0,1,1.239-1.121,3.457,3.457,0,0,1,1.6-.365,2.616,2.616,0,0,1,2.584,1.371,4.482,4.482,0,0,1,.369,1.986V0H27.7V-6.539a1.523,1.523,0,0,0-.47-1.292,1.861,1.861,0,0,0-1.147-.352,2.277,2.277,0,0,0-1.6.624A2.74,2.74,0,0,0,23.8-5.476V0H22.2V-6.144a3.192,3.192,0,0,0-.229-1.4A1.394,1.394,0,0,0,20.623-8.2a2.32,2.32,0,0,0-1.63.694,3.4,3.4,0,0,0-.734,2.514V0H16.676ZM32.885-2.5a1.3,1.3,0,0,0,.5,1.081,1.857,1.857,0,0,0,1.187.4,3.608,3.608,0,0,0,1.617-.387,2.176,2.176,0,0,0,1.318-2.1V-4.79a2.707,2.707,0,0,1-.747.308,6.366,6.366,0,0,1-.9.176l-.958.123a3.664,3.664,0,0,0-1.292.36A1.4,1.4,0,0,0,32.885-2.5Zm3.832-3.2a.859.859,0,0,0,.729-.457,1.391,1.391,0,0,0,.105-.606,1.285,1.285,0,0,0-.576-1.173,3.089,3.089,0,0,0-1.648-.365,2.094,2.094,0,0,0-1.758.668,2.2,2.2,0,0,0-.378,1.1H31.716A2.718,2.718,0,0,1,32.846-8.96a4.637,4.637,0,0,1,2.518-.681,5.124,5.124,0,0,1,2.7.633A2.147,2.147,0,0,1,39.09-7.04v5.423a.694.694,0,0,0,.1.4.487.487,0,0,0,.426.149q.105,0,.237-.013t.281-.04V.044a4.406,4.406,0,0,1-.562.132A4.111,4.111,0,0,1,39.046.2a1.3,1.3,0,0,1-1.187-.58,2.239,2.239,0,0,1-.272-.87A4.025,4.025,0,0,1,36.2-.149a4.3,4.3,0,0,1-2,.466,2.967,2.967,0,0,1-2.14-.8,2.642,2.642,0,0,1-.831-1.991A2.564,2.564,0,0,1,32.05-4.5a3.889,3.889,0,0,1,2.145-.888ZM42-12.041h1.6v2.628h1.5v1.292H43.6v6.144a.665.665,0,0,0,.334.659,1.42,1.42,0,0,0,.615.1q.114,0,.246,0t.308-.022V0a3.532,3.532,0,0,1-.567.114A5.39,5.39,0,0,1,43.9.149a1.717,1.717,0,0,1-1.5-.567A2.519,2.519,0,0,1,42-1.89V-8.121H40.727V-9.413H42Zm4.73,2.628h1.5v1.626a3.592,3.592,0,0,1,.905-1.156A2.347,2.347,0,0,1,50.8-9.624q.044,0,.149.009t.36.035v1.67a2.363,2.363,0,0,0-.259-.035q-.119-.009-.259-.009a2.258,2.258,0,0,0-1.837.769,2.684,2.684,0,0,0-.642,1.771V0H46.732Zm5.952.044h1.608V0H52.684Zm0-3.542h1.608v1.793H52.684Zm7.631,3.226a4.1,4.1,0,0,1,2.588.773,3.705,3.705,0,0,1,1.2,2.663H62.564a2.839,2.839,0,0,0-.642-1.446,2.027,2.027,0,0,0-1.608-.576,2.222,2.222,0,0,0-2.162,1.477A5.865,5.865,0,0,0,57.73-4.43a4.449,4.449,0,0,0,.6,2.382,2.05,2.05,0,0,0,1.881.967,2.057,2.057,0,0,0,1.56-.6,3.311,3.311,0,0,0,.8-1.648H64.1A4.129,4.129,0,0,1,62.784-.593a4.113,4.113,0,0,1-2.7.866,3.6,3.6,0,0,1-2.944-1.349,5.164,5.164,0,0,1-1.1-3.371,5.678,5.678,0,0,1,1.2-3.858A3.891,3.891,0,0,1,60.314-9.686Zm6.954.272v6.249A2.635,2.635,0,0,0,67.5-1.986a1.6,1.6,0,0,0,1.573.844,2.224,2.224,0,0,0,2.25-1.477,5.858,5.858,0,0,0,.325-2.171V-9.413h1.582V0H71.733l.018-1.389a3.191,3.191,0,0,1-.765.905,3.365,3.365,0,0,1-2.2.738A2.834,2.834,0,0,1,66.047-1.09a4,4,0,0,1-.4-1.925v-6.4Zm8.474-3.5h1.582V0H75.743ZM80.913-2.5a1.3,1.3,0,0,0,.5,1.081,1.857,1.857,0,0,0,1.187.4,3.608,3.608,0,0,0,1.617-.387,2.176,2.176,0,0,0,1.318-2.1V-4.79a2.707,2.707,0,0,1-.747.308,6.366,6.366,0,0,1-.9.176l-.958.123a3.664,3.664,0,0,0-1.292.36A1.4,1.4,0,0,0,80.913-2.5Zm3.832-3.2a.859.859,0,0,0,.729-.457,1.391,1.391,0,0,0,.105-.606A1.285,1.285,0,0,0,85-7.941a3.089,3.089,0,0,0-1.648-.365,2.094,2.094,0,0,0-1.758.668,2.2,2.2,0,0,0-.378,1.1H79.744A2.718,2.718,0,0,1,80.873-8.96a4.637,4.637,0,0,1,2.518-.681,5.124,5.124,0,0,1,2.7.633A2.147,2.147,0,0,1,87.118-7.04v5.423a.694.694,0,0,0,.1.4.487.487,0,0,0,.426.149q.105,0,.237-.013t.281-.04V.044A4.406,4.406,0,0,1,87.6.176,4.111,4.111,0,0,1,87.074.2a1.3,1.3,0,0,1-1.187-.58,2.239,2.239,0,0,1-.272-.87,4.025,4.025,0,0,1-1.389,1.1,4.3,4.3,0,0,1-2,.466,2.967,2.967,0,0,1-2.14-.8A2.642,2.642,0,0,1,79.26-2.47a2.564,2.564,0,0,1,.817-2.03,3.889,3.889,0,0,1,2.145-.888Zm5.012-3.709h1.5v1.626a3.592,3.592,0,0,1,.905-1.156,2.347,2.347,0,0,1,1.661-.681q.044,0,.149.009t.36.035v1.67a2.363,2.363,0,0,0-.259-.035q-.119-.009-.259-.009a2.258,2.258,0,0,0-1.837.769,2.684,2.684,0,0,0-.642,1.771V0H89.756Zm11.6-3.85a5.291,5.291,0,0,1,3.806,1.292,4.563,4.563,0,0,1,1.5,2.936h-1.705a3.549,3.549,0,0,0-1.156-1.978,3.663,3.663,0,0,0-2.43-.729A3.9,3.9,0,0,0,98.3-10.4a6.11,6.11,0,0,0-1.173,4.109,5.968,5.968,0,0,0,1.059,3.678,3.7,3.7,0,0,0,3.16,1.411,3.338,3.338,0,0,0,2.944-1.485,5.649,5.649,0,0,0,.8-2.057h1.705a5.826,5.826,0,0,1-1.512,3.419A5.379,5.379,0,0,1,101.131.334a5.475,5.475,0,0,1-3.779-1.362q-2.013-1.8-2.013-5.563a7.107,7.107,0,0,1,1.512-4.685A5.522,5.522,0,0,1,101.359-13.263Zm8.931,3.85v6.249a2.635,2.635,0,0,0,.229,1.178,1.6,1.6,0,0,0,1.573.844,2.224,2.224,0,0,0,2.25-1.477,5.858,5.858,0,0,0,.325-2.171V-9.413h1.582V0h-1.494l.018-1.389a3.191,3.191,0,0,1-.765.905,3.365,3.365,0,0,1-2.2.738,2.834,2.834,0,0,1-2.742-1.345,4,4,0,0,1-.4-1.925v-6.4Zm9.371,6.46a2.3,2.3,0,0,0,.4,1.213,2.485,2.485,0,0,0,2.074.765,3.059,3.059,0,0,0,1.547-.382,1.27,1.27,0,0,0,.668-1.182,1.011,1.011,0,0,0-.536-.923,6.374,6.374,0,0,0-1.354-.448L121.2-4.228a6.131,6.131,0,0,1-1.775-.668,2,2,0,0,1-1.02-1.775,2.713,2.713,0,0,1,.962-2.162,3.839,3.839,0,0,1,2.588-.826,3.593,3.593,0,0,1,3.067,1.248,2.708,2.708,0,0,1,.571,1.705H124.1a1.83,1.83,0,0,0-.378-.976,2.41,2.41,0,0,0-1.89-.624,2.259,2.259,0,0,0-1.358.343,1.074,1.074,0,0,0-.461.905,1.114,1.114,0,0,0,.606.984,3.644,3.644,0,0,0,1.037.387l1.046.255a8.087,8.087,0,0,1,2.285.8,2.118,2.118,0,0,1,.923,1.907,2.906,2.906,0,0,1-.954,2.171,4.059,4.059,0,0,1-2.9.914,3.9,3.9,0,0,1-2.975-.954,3.606,3.606,0,0,1-.936-2.36Zm11.8,1.934a2.182,2.182,0,0,0,2.158-1.191,5.933,5.933,0,0,0,.584-2.65A4.718,4.718,0,0,0,133.779-7a2.373,2.373,0,0,0-2.3-1.3A2.271,2.271,0,0,0,129.367-7.2a5.133,5.133,0,0,0-.659,2.672,4.465,4.465,0,0,0,.659,2.5A2.322,2.322,0,0,0,131.459-1.02Zm.062-8.666A4.262,4.262,0,0,1,134.6-8.473,4.736,4.736,0,0,1,135.853-4.9a6.122,6.122,0,0,1-1.107,3.762A4.006,4.006,0,0,1,131.309.343a3.88,3.88,0,0,1-3.085-1.314A5.19,5.19,0,0,1,127.082-4.5a5.615,5.615,0,0,1,1.2-3.779A4.041,4.041,0,0,1,131.52-9.686ZM141.9-13.122a30.689,30.689,0,0,0-1.793,3.946,14.427,14.427,0,0,0-.624,4.447A14.5,14.5,0,0,0,140.2-.07a28.13,28.13,0,0,0,1.731,3.744h-1.063q-1.283-2-1.591-2.558a11.88,11.88,0,0,1-.668-1.5,12.353,12.353,0,0,1-.686-2.777,11.646,11.646,0,0,1-.1-1.459,12.322,12.322,0,0,1,.817-4.632,26.659,26.659,0,0,1,2.162-3.867Zm1.294,16.8A31.028,31.028,0,0,0,145-.3a14.342,14.342,0,0,0,.615-4.43,14.467,14.467,0,0,0-.712-4.649,28.13,28.13,0,0,0-1.731-3.744h1.063q1.354,2.162,1.639,2.667a10.312,10.312,0,0,1,.62,1.393,11.259,11.259,0,0,1,.6,2.171,12.466,12.466,0,0,1,.18,2.065,12.273,12.273,0,0,1-.826,4.641,25.487,25.487,0,0,1-2.153,3.858Z" transform="translate(460 4064)" fill="#212429"/>
      <path id="Trazado_1219422" data-name="Trazado 1219422" d="M.809-3.85V-5.326H4.641V-9.185h1.5v3.858H9.976V-3.85H6.144V0h-1.5V-3.85ZM15.3-9.686a4.1,4.1,0,0,1,2.588.773,3.705,3.705,0,0,1,1.2,2.663H17.554a2.839,2.839,0,0,0-.642-1.446A2.027,2.027,0,0,0,15.3-8.271a2.222,2.222,0,0,0-2.162,1.477A5.865,5.865,0,0,0,12.72-4.43a4.449,4.449,0,0,0,.6,2.382,2.05,2.05,0,0,0,1.881.967,2.057,2.057,0,0,0,1.56-.6,3.311,3.311,0,0,0,.8-1.648h1.538A4.129,4.129,0,0,1,17.773-.593a4.113,4.113,0,0,1-2.7.866,3.6,3.6,0,0,1-2.944-1.349,5.164,5.164,0,0,1-1.1-3.371,5.678,5.678,0,0,1,1.2-3.858A3.891,3.891,0,0,1,15.3-9.686ZM21.888-2.5a1.3,1.3,0,0,0,.5,1.081,1.857,1.857,0,0,0,1.187.4,3.608,3.608,0,0,0,1.617-.387,2.176,2.176,0,0,0,1.318-2.1V-4.79a2.707,2.707,0,0,1-.747.308,6.366,6.366,0,0,1-.9.176l-.958.123a3.664,3.664,0,0,0-1.292.36A1.4,1.4,0,0,0,21.888-2.5ZM25.72-5.7a.859.859,0,0,0,.729-.457,1.391,1.391,0,0,0,.105-.606,1.285,1.285,0,0,0-.576-1.173,3.089,3.089,0,0,0-1.648-.365,2.094,2.094,0,0,0-1.758.668,2.2,2.2,0,0,0-.378,1.1H20.719A2.718,2.718,0,0,1,21.849-8.96a4.637,4.637,0,0,1,2.518-.681,5.124,5.124,0,0,1,2.7.633A2.147,2.147,0,0,1,28.093-7.04v5.423a.694.694,0,0,0,.1.4.487.487,0,0,0,.426.149q.105,0,.237-.013t.281-.04V.044a4.406,4.406,0,0,1-.562.132A4.111,4.111,0,0,1,28.049.2a1.3,1.3,0,0,1-1.187-.58,2.239,2.239,0,0,1-.272-.87A4.025,4.025,0,0,1,25.2-.149a4.3,4.3,0,0,1-2,.466,2.967,2.967,0,0,1-2.14-.8,2.642,2.642,0,0,1-.831-1.991,2.564,2.564,0,0,1,.817-2.03A3.889,3.889,0,0,1,23.2-5.388Zm5.012-3.709h1.5v1.626a3.592,3.592,0,0,1,.905-1.156A2.347,2.347,0,0,1,34.8-9.624q.044,0,.149.009t.36.035v1.67a2.363,2.363,0,0,0-.259-.035q-.119-.009-.259-.009a2.258,2.258,0,0,0-1.837.769,2.684,2.684,0,0,0-.642,1.771V0H30.732Zm6,0h1.5v1.626a3.592,3.592,0,0,1,.905-1.156A2.347,2.347,0,0,1,40.8-9.624q.044,0,.149.009t.36.035v1.67a2.363,2.363,0,0,0-.259-.035q-.119-.009-.259-.009a2.258,2.258,0,0,0-1.837.769,2.684,2.684,0,0,0-.642,1.771V0H36.728ZM46.6-9.624a4.294,4.294,0,0,1,1.942.47,3.582,3.582,0,0,1,1.433,1.217,4.2,4.2,0,0,1,.633,1.661A10.868,10.868,0,0,1,50.748-4.2h-6.9a4.026,4.026,0,0,0,.677,2.3,2.266,2.266,0,0,0,1.96.866,2.534,2.534,0,0,0,1.978-.817,2.755,2.755,0,0,0,.6-1.1h1.556A3.276,3.276,0,0,1,50.208-1.8,4.111,4.111,0,0,1,49.43-.756a3.687,3.687,0,0,1-1.784.949,5.42,5.42,0,0,1-1.292.141A3.964,3.964,0,0,1,43.374-.945a4.976,4.976,0,0,1-1.222-3.582,5.41,5.41,0,0,1,1.23-3.683A4.059,4.059,0,0,1,46.6-9.624Zm2.522,4.166A4.1,4.1,0,0,0,48.674-7.1,2.3,2.3,0,0,0,46.5-8.244a2.406,2.406,0,0,0-1.828.787,2.972,2.972,0,0,0-.782,2Zm3.614-3.955h1.5v1.626a3.592,3.592,0,0,1,.905-1.156,2.347,2.347,0,0,1,1.661-.681q.044,0,.149.009t.36.035v1.67a2.363,2.363,0,0,0-.259-.035q-.119-.009-.259-.009a2.258,2.258,0,0,0-1.837.769,2.684,2.684,0,0,0-.642,1.771V0H52.736ZM59.9-2.5a1.3,1.3,0,0,0,.5,1.081,1.857,1.857,0,0,0,1.187.4,3.608,3.608,0,0,0,1.617-.387,2.176,2.176,0,0,0,1.318-2.1V-4.79a2.707,2.707,0,0,1-.747.308,6.366,6.366,0,0,1-.9.176l-.958.123a3.664,3.664,0,0,0-1.292.36A1.4,1.4,0,0,0,59.9-2.5Zm3.832-3.2a.859.859,0,0,0,.729-.457,1.391,1.391,0,0,0,.105-.606,1.285,1.285,0,0,0-.576-1.173,3.089,3.089,0,0,0-1.648-.365,2.094,2.094,0,0,0-1.758.668,2.2,2.2,0,0,0-.378,1.1H58.732A2.718,2.718,0,0,1,59.862-8.96a4.637,4.637,0,0,1,2.518-.681,5.124,5.124,0,0,1,2.7.633A2.147,2.147,0,0,1,66.106-7.04v5.423a.694.694,0,0,0,.1.4.487.487,0,0,0,.426.149q.105,0,.237-.013t.281-.04V.044a4.406,4.406,0,0,1-.562.132A4.111,4.111,0,0,1,66.062.2a1.3,1.3,0,0,1-1.187-.58,2.239,2.239,0,0,1-.272-.87,4.025,4.025,0,0,1-1.389,1.1,4.3,4.3,0,0,1-2,.466,2.967,2.967,0,0,1-2.14-.8,2.642,2.642,0,0,1-.831-1.991,2.564,2.564,0,0,1,.817-2.03,3.889,3.889,0,0,1,2.145-.888Zm5.8-3.586h1.837v1.916H69.536Zm0,7.374h1.837V0H69.536ZM80.06-4.166a3.528,3.528,0,0,0,.519,1.784A3.437,3.437,0,0,0,83.646-1.1a5.429,5.429,0,0,0,1.793-.281A1.992,1.992,0,0,0,87-3.331a1.684,1.684,0,0,0-.659-1.5A6.656,6.656,0,0,0,84.252-5.6l-1.749-.4a7.92,7.92,0,0,1-2.426-.853,2.7,2.7,0,0,1-1.23-2.417,3.722,3.722,0,0,1,1.2-2.856,4.831,4.831,0,0,1,3.41-1.116,5.923,5.923,0,0,1,3.45.98A3.537,3.537,0,0,1,88.33-9.123H86.687a3.235,3.235,0,0,0-.562-1.591,3.268,3.268,0,0,0-2.716-1.011,3.142,3.142,0,0,0-2.224.65,2.036,2.036,0,0,0-.677,1.512A1.476,1.476,0,0,0,81.3-8.174a11.608,11.608,0,0,0,2.347.7l1.811.413a5.547,5.547,0,0,1,2.021.817,3.061,3.061,0,0,1,1.23,2.628,3.28,3.28,0,0,1-1.56,3.067,6.987,6.987,0,0,1-3.625.923,5.421,5.421,0,0,1-3.771-1.23,4.152,4.152,0,0,1-1.336-3.313Zm10.971-7.875h1.6v2.628h1.5v1.292h-1.5v6.144a.665.665,0,0,0,.334.659,1.42,1.42,0,0,0,.615.1q.114,0,.246,0t.308-.022V0a3.532,3.532,0,0,1-.567.114,5.39,5.39,0,0,1-.637.035,1.717,1.717,0,0,1-1.5-.567,2.519,2.519,0,0,1-.4-1.472V-8.121H89.756V-9.413h1.274Zm4.73,2.628h1.5v1.626a3.592,3.592,0,0,1,.905-1.156,2.347,2.347,0,0,1,1.661-.681q.044,0,.149.009t.36.035v1.67a2.363,2.363,0,0,0-.259-.035q-.119-.009-.259-.009a2.258,2.258,0,0,0-1.837.769,2.684,2.684,0,0,0-.642,1.771V0H95.761Zm5.952.044h1.608V0h-1.608Zm0-3.542h1.608v1.793h-1.608Zm4,3.5h1.5v1.336a4.215,4.215,0,0,1,1.415-1.187,3.773,3.773,0,0,1,1.661-.36A2.739,2.739,0,0,1,113-8.227a4.962,4.962,0,0,1,.387,2.188V0h-1.608V-5.933a3.212,3.212,0,0,0-.255-1.389,1.545,1.545,0,0,0-1.529-.879,3.114,3.114,0,0,0-.923.114,2.377,2.377,0,0,0-1.143.773,2.329,2.329,0,0,0-.514.962,6.478,6.478,0,0,0-.119,1.419V0h-1.582Zm13.335-.167a3.431,3.431,0,0,1,1.934.545,4.343,4.343,0,0,1,.914.9V-9.325h1.459V-.765a6.313,6.313,0,0,1-.527,2.83,3.786,3.786,0,0,1-3.718,1.916,4.56,4.56,0,0,1-2.558-.681,2.656,2.656,0,0,1-1.16-2.131H117a1.79,1.79,0,0,0,.457.976,2.33,2.33,0,0,0,1.688.527,2.322,2.322,0,0,0,2.382-1.283,7.227,7.227,0,0,0,.308-2.7,3.1,3.1,0,0,1-1.143,1.072,3.8,3.8,0,0,1-1.767.352,3.771,3.771,0,0,1-2.676-1.085,4.774,4.774,0,0,1-1.147-3.59,5.437,5.437,0,0,1,1.156-3.691A3.574,3.574,0,0,1,119.048-9.58ZM121.9-4.746a3.924,3.924,0,0,0-.721-2.593,2.309,2.309,0,0,0-1.837-.844,2.268,2.268,0,0,0-2.285,1.564,6.134,6.134,0,0,0-.325,2.188,3.885,3.885,0,0,0,.646,2.421,2.085,2.085,0,0,0,1.736.831,2.437,2.437,0,0,0,2.4-1.538A4.961,4.961,0,0,0,121.9-4.746Z" transform="translate(460 4020)" fill="#212429"/>
      <path id="Trazado_1219424" data-name="Trazado 1219424" d="M.809-3.85V-5.326H4.641V-9.185h1.5v3.858H9.976V-3.85H6.144V0h-1.5V-3.85Zm19.5-5.836a4.1,4.1,0,0,1,2.588.773,3.705,3.705,0,0,1,1.2,2.663H22.556a2.839,2.839,0,0,0-.642-1.446,2.027,2.027,0,0,0-1.608-.576,2.222,2.222,0,0,0-2.162,1.477,5.865,5.865,0,0,0-.422,2.364,4.449,4.449,0,0,0,.6,2.382,2.05,2.05,0,0,0,1.881.967,2.057,2.057,0,0,0,1.56-.6,3.311,3.311,0,0,0,.8-1.648h1.538A4.129,4.129,0,0,1,22.776-.593a4.113,4.113,0,0,1-2.7.866,3.6,3.6,0,0,1-2.944-1.349,5.164,5.164,0,0,1-1.1-3.371,5.678,5.678,0,0,1,1.2-3.858A3.891,3.891,0,0,1,20.306-9.686ZM29.414-1.02A2.182,2.182,0,0,0,31.571-2.21a5.933,5.933,0,0,0,.584-2.65A4.718,4.718,0,0,0,31.734-7a2.373,2.373,0,0,0-2.3-1.3A2.271,2.271,0,0,0,27.322-7.2a5.133,5.133,0,0,0-.659,2.672,4.465,4.465,0,0,0,.659,2.5A2.322,2.322,0,0,0,29.414-1.02Zm.062-8.666a4.262,4.262,0,0,1,3.076,1.213A4.736,4.736,0,0,1,33.808-4.9,6.122,6.122,0,0,1,32.7-1.143,4.006,4.006,0,0,1,29.264.343,3.88,3.88,0,0,1,26.179-.971,5.19,5.19,0,0,1,25.037-4.5a5.615,5.615,0,0,1,1.2-3.779A4.041,4.041,0,0,1,29.475-9.686Zm6.216.272h1.5v1.336a4.215,4.215,0,0,1,1.415-1.187,3.773,3.773,0,0,1,1.661-.36,2.739,2.739,0,0,1,2.707,1.4,4.962,4.962,0,0,1,.387,2.188V0H41.755V-5.933A3.212,3.212,0,0,0,41.5-7.321,1.545,1.545,0,0,0,39.971-8.2a3.114,3.114,0,0,0-.923.114,2.377,2.377,0,0,0-1.143.773,2.329,2.329,0,0,0-.514.962,6.478,6.478,0,0,0-.119,1.419V0H35.691Zm10.953,6.46a2.3,2.3,0,0,0,.4,1.213,2.485,2.485,0,0,0,2.074.765,3.059,3.059,0,0,0,1.547-.382,1.27,1.27,0,0,0,.668-1.182,1.011,1.011,0,0,0-.536-.923,6.374,6.374,0,0,0-1.354-.448l-1.257-.316A6.131,6.131,0,0,1,46.406-4.9a2,2,0,0,1-1.02-1.775,2.713,2.713,0,0,1,.962-2.162,3.839,3.839,0,0,1,2.588-.826,3.593,3.593,0,0,1,3.067,1.248,2.708,2.708,0,0,1,.571,1.705H51.082a1.83,1.83,0,0,0-.378-.976,2.41,2.41,0,0,0-1.89-.624,2.259,2.259,0,0,0-1.358.343A1.074,1.074,0,0,0,47-7.058a1.114,1.114,0,0,0,.606.984,3.644,3.644,0,0,0,1.037.387l1.046.255a8.087,8.087,0,0,1,2.285.8,2.118,2.118,0,0,1,.923,1.907,2.906,2.906,0,0,1-.954,2.171,4.059,4.059,0,0,1-2.9.914,3.9,3.9,0,0,1-2.975-.954,3.606,3.606,0,0,1-.936-2.36Zm9.643-6.46v6.249a2.635,2.635,0,0,0,.229,1.178,1.6,1.6,0,0,0,1.573.844,2.224,2.224,0,0,0,2.25-1.477,5.858,5.858,0,0,0,.325-2.171V-9.413h1.582V0H60.752l.018-1.389A3.191,3.191,0,0,1,60-.483a3.365,3.365,0,0,1-2.2.738A2.834,2.834,0,0,1,55.065-1.09a4,4,0,0,1-.4-1.925v-6.4Zm8.474-3.5h1.582V0H64.762Zm4.273.87h1.6v2.628h1.5v1.292h-1.5v6.144a.665.665,0,0,0,.334.659,1.42,1.42,0,0,0,.615.1q.114,0,.246,0t.308-.022V0a3.532,3.532,0,0,1-.567.114,5.39,5.39,0,0,1-.637.035,1.717,1.717,0,0,1-1.5-.567,2.519,2.519,0,0,1-.4-1.472V-8.121H67.76V-9.413h1.274Zm5.9,9.536a1.3,1.3,0,0,0,.5,1.081,1.857,1.857,0,0,0,1.187.4,3.608,3.608,0,0,0,1.617-.387,2.176,2.176,0,0,0,1.318-2.1V-4.79a2.707,2.707,0,0,1-.747.308,6.366,6.366,0,0,1-.9.176l-.958.123a3.664,3.664,0,0,0-1.292.36A1.4,1.4,0,0,0,74.934-2.5Zm3.832-3.2a.859.859,0,0,0,.729-.457,1.391,1.391,0,0,0,.105-.606,1.285,1.285,0,0,0-.576-1.173,3.089,3.089,0,0,0-1.648-.365,2.094,2.094,0,0,0-1.758.668,2.2,2.2,0,0,0-.378,1.1H73.765A2.718,2.718,0,0,1,74.895-8.96a4.637,4.637,0,0,1,2.518-.681,5.124,5.124,0,0,1,2.7.633A2.147,2.147,0,0,1,81.139-7.04v5.423a.694.694,0,0,0,.1.4.487.487,0,0,0,.426.149q.105,0,.237-.013t.281-.04V.044a4.406,4.406,0,0,1-.562.132A4.111,4.111,0,0,1,81.1.2a1.3,1.3,0,0,1-1.187-.58,2.239,2.239,0,0,1-.272-.87,4.025,4.025,0,0,1-1.389,1.1,4.3,4.3,0,0,1-2,.466,2.967,2.967,0,0,1-2.14-.8,2.642,2.642,0,0,1-.831-1.991A2.564,2.564,0,0,1,74.1-4.5a3.889,3.889,0,0,1,2.145-.888Zm5.012-3.709h1.5v1.626a3.592,3.592,0,0,1,.905-1.156,2.347,2.347,0,0,1,1.661-.681q.044,0,.149.009t.36.035v1.67a2.363,2.363,0,0,0-.259-.035q-.119-.009-.259-.009A2.258,2.258,0,0,0,86-7.185a2.684,2.684,0,0,0-.642,1.771V0H83.778Zm6.163-3.5h2.065L98.528-2.452V-12.911h1.661V0h-1.96L91.611-10.45V0h-1.67ZM106.466-1.02a2.182,2.182,0,0,0,2.158-1.191,5.933,5.933,0,0,0,.584-2.65A4.718,4.718,0,0,0,108.786-7a2.373,2.373,0,0,0-2.3-1.3A2.271,2.271,0,0,0,104.374-7.2a5.133,5.133,0,0,0-.659,2.672,4.465,4.465,0,0,0,.659,2.5A2.322,2.322,0,0,0,106.466-1.02Zm.062-8.666A4.262,4.262,0,0,1,109.6-8.473,4.736,4.736,0,0,1,110.86-4.9a6.122,6.122,0,0,1-1.107,3.762A4.006,4.006,0,0,1,106.317.343a3.88,3.88,0,0,1-3.085-1.314A5.19,5.19,0,0,1,102.089-4.5a5.615,5.615,0,0,1,1.2-3.779A4.041,4.041,0,0,1,106.527-9.686Zm6.532-2.355h1.6v2.628h1.5v1.292h-1.5v6.144a.665.665,0,0,0,.334.659,1.42,1.42,0,0,0,.615.1q.114,0,.246,0t.308-.022V0a3.532,3.532,0,0,1-.567.114,5.39,5.39,0,0,1-.637.035,1.717,1.717,0,0,1-1.5-.567,2.519,2.519,0,0,1-.4-1.472V-8.121h-1.274V-9.413h1.274Zm5.9,9.536a1.3,1.3,0,0,0,.5,1.081,1.857,1.857,0,0,0,1.187.4,3.608,3.608,0,0,0,1.617-.387,2.176,2.176,0,0,0,1.318-2.1V-4.79a2.707,2.707,0,0,1-.747.308,6.366,6.366,0,0,1-.9.176l-.958.123a3.664,3.664,0,0,0-1.292.36A1.4,1.4,0,0,0,118.959-2.5Zm3.832-3.2a.859.859,0,0,0,.729-.457,1.391,1.391,0,0,0,.105-.606,1.285,1.285,0,0,0-.576-1.173,3.089,3.089,0,0,0-1.648-.365,2.094,2.094,0,0,0-1.758.668,2.2,2.2,0,0,0-.378,1.1H117.79a2.718,2.718,0,0,1,1.129-2.421,4.637,4.637,0,0,1,2.518-.681,5.124,5.124,0,0,1,2.7.633,2.147,2.147,0,0,1,1.028,1.969v5.423a.694.694,0,0,0,.1.4.487.487,0,0,0,.426.149q.105,0,.237-.013t.281-.04V.044a4.406,4.406,0,0,1-.562.132A4.111,4.111,0,0,1,125.12.2a1.3,1.3,0,0,1-1.187-.58,2.239,2.239,0,0,1-.272-.87,4.025,4.025,0,0,1-1.389,1.1,4.3,4.3,0,0,1-2,.466,2.967,2.967,0,0,1-2.14-.8,2.642,2.642,0,0,1-.831-1.991,2.564,2.564,0,0,1,.817-2.03,3.889,3.889,0,0,1,2.145-.888ZM128.7-2.953a2.3,2.3,0,0,0,.4,1.213,2.485,2.485,0,0,0,2.074.765,3.059,3.059,0,0,0,1.547-.382,1.27,1.27,0,0,0,.668-1.182,1.011,1.011,0,0,0-.536-.923,6.374,6.374,0,0,0-1.354-.448l-1.257-.316a6.131,6.131,0,0,1-1.775-.668,2,2,0,0,1-1.02-1.775,2.713,2.713,0,0,1,.962-2.162,3.839,3.839,0,0,1,2.588-.826,3.593,3.593,0,0,1,3.067,1.248,2.708,2.708,0,0,1,.571,1.705h-1.494a1.83,1.83,0,0,0-.378-.976,2.41,2.41,0,0,0-1.89-.624,2.259,2.259,0,0,0-1.358.343,1.074,1.074,0,0,0-.461.905,1.114,1.114,0,0,0,.606.984,3.644,3.644,0,0,0,1.037.387l1.046.255a8.087,8.087,0,0,1,2.285.8,2.118,2.118,0,0,1,.923,1.907,2.906,2.906,0,0,1-.954,2.171,4.059,4.059,0,0,1-2.9.914,3.9,3.9,0,0,1-2.975-.954,3.606,3.606,0,0,1-.936-2.36Zm12.227-10.169a30.689,30.689,0,0,0-1.793,3.946,14.427,14.427,0,0,0-.624,4.447,14.5,14.5,0,0,0,.712,4.658,28.13,28.13,0,0,0,1.731,3.744h-1.063q-1.283-2-1.591-2.558a11.88,11.88,0,0,1-.668-1.5,12.353,12.353,0,0,1-.686-2.777,11.646,11.646,0,0,1-.1-1.459,12.322,12.322,0,0,1,.817-4.632,26.659,26.659,0,0,1,2.162-3.867Zm1.294,16.8a31.028,31.028,0,0,0,1.8-3.973,14.342,14.342,0,0,0,.615-4.43,14.467,14.467,0,0,0-.712-4.649,28.13,28.13,0,0,0-1.731-3.744h1.063q1.354,2.162,1.639,2.667a10.312,10.312,0,0,1,.62,1.393,11.259,11.259,0,0,1,.6,2.171,12.466,12.466,0,0,1,.18,2.065,12.273,12.273,0,0,1-.826,4.641,25.487,25.487,0,0,1-2.153,3.858Z" transform="translate(460 4094)" fill="#212429"/>
      <rect id="Rectángulo_422473" data-name="Rectángulo 422473" width="21" height="13" rx="2" transform="translate(454 3886)" fill="#e4e4e4"/>
      <path id="Trazado_1217646" data-name="Trazado 1217646" d="M5641.09,3892.5h8.27" transform="translate(-5181)" fill="none" stroke="#0b0a0a" stroke-width="1"/>
      <g id="Rectángulo_422474" data-name="Rectángulo 422474" transform="translate(953 3874)" fill="#5c2c88" stroke="#707070" stroke-width="1">
        <rect width="222" height="56" stroke="none"/>
        <rect x="0.5" y="0.5" width="221" height="55" fill="none"/>
      </g>
      <g id="Rectángulo_422475" data-name="Rectángulo 422475" transform="translate(953 3928)" fill="#fff" stroke="#5c2c88" stroke-width="1">
        <rect width="222" height="108" stroke="none"/>
        <rect x="0.5" y="0.5" width="221" height="107" fill="none"/>
      </g>
      <g id="Rectángulo_422476" data-name="Rectángulo 422476" transform="translate(953 4035)" fill="#fff" stroke="#5c2c88" stroke-width="1">
        <rect width="222" height="77" stroke="none"/>
        <rect x="0.5" y="0.5" width="221" height="76" fill="none"/>
      </g>
      <path id="Trazado_1219425" data-name="Trazado 1219425" d="M10.512-.967A5.281,5.281,0,0,1,6.8.36,5.588,5.588,0,0,1,2.408-1.433a7.177,7.177,0,0,1-1.6-4.939A7.115,7.115,0,0,1,2.628-11.6a5.421,5.421,0,0,1,4.025-1.6,5.443,5.443,0,0,1,4.781,2.145,4.643,4.643,0,0,1,.9,2.417H9.624a3.656,3.656,0,0,0-.677-1.406,2.753,2.753,0,0,0-2.188-.844A2.713,2.713,0,0,0,4.43-9.7a5.725,5.725,0,0,0-.853,3.371,5.025,5.025,0,0,0,.9,3.265,2.847,2.847,0,0,0,2.29,1.085,2.619,2.619,0,0,0,2.171-.932,4.047,4.047,0,0,0,.686-1.5H12.3A5.826,5.826,0,0,1,10.512-.967Zm9.8-.387q-.035.044-.176.264A1.764,1.764,0,0,1,19.8-.7a3.488,3.488,0,0,1-1.138.721,3.879,3.879,0,0,1-1.288.193,2.87,2.87,0,0,1-2.865-1.529A5.852,5.852,0,0,1,14.1-3.806V-9.58h2.566v5.774a3.023,3.023,0,0,0,.193,1.23,1.338,1.338,0,0,0,1.345.729A1.758,1.758,0,0,0,19.96-2.883a3.754,3.754,0,0,0,.246-1.485V-9.58h2.54V0H20.312Zm9.668-5.915a2.078,2.078,0,0,0-2.03.984,3.829,3.829,0,0,0-.29,1.705V0H25.137V-9.58h2.391v1.67a5.3,5.3,0,0,1,1.011-1.31,2.752,2.752,0,0,1,1.828-.589q.07,0,.119,0l.215.013v2.566q-.237-.026-.422-.035T29.979-7.269Zm8.789-1.872a3.086,3.086,0,0,1,1.292,2.479h-2.5a1.482,1.482,0,0,0-.272-.765,1.714,1.714,0,0,0-1.406-.51,2.021,2.021,0,0,0-1.165.255.734.734,0,0,0-.347.6.654.654,0,0,0,.369.624,15.98,15.98,0,0,0,2.61.694A4.8,4.8,0,0,1,39.586-4.7a2.415,2.415,0,0,1,.738,1.8A2.911,2.911,0,0,1,39.265-.576a4.976,4.976,0,0,1-3.274.9,4.929,4.929,0,0,1-3.335-.954,3.1,3.1,0,0,1-1.077-2.43h2.54a1.673,1.673,0,0,0,.343.949,2.317,2.317,0,0,0,1.723.5,2.626,2.626,0,0,0,1.173-.22.7.7,0,0,0,.435-.659.711.711,0,0,0-.352-.642,14.3,14.3,0,0,0-2.61-.756A5.437,5.437,0,0,1,32.537-4.9a2.191,2.191,0,0,1-.668-1.723A2.988,2.988,0,0,1,32.911-8.9a4.183,4.183,0,0,1,2.931-.954A5.427,5.427,0,0,1,38.769-9.141Zm11.4.773a5.59,5.59,0,0,1,1.213,3.595,5.553,5.553,0,0,1-1.213,3.608,4.456,4.456,0,0,1-3.683,1.5,4.456,4.456,0,0,1-3.683-1.5A5.553,5.553,0,0,1,41.59-4.772,5.59,5.59,0,0,1,42.8-8.367a4.426,4.426,0,0,1,3.683-1.521A4.426,4.426,0,0,1,50.168-8.367Zm-3.691.6a2,2,0,0,0-1.692.778,3.6,3.6,0,0,0-.593,2.219,3.619,3.619,0,0,0,.593,2.224,2,2,0,0,0,1.692.782,1.985,1.985,0,0,0,1.688-.782,3.639,3.639,0,0,0,.589-2.224,3.619,3.619,0,0,0-.589-2.219A1.99,1.99,0,0,0,46.477-7.77Z" transform="translate(1040 3909)" fill="#fff"/>
      <path id="Trazado_1219426" data-name="Trazado 1219426" d="M.809-3.85V-5.326H4.641V-9.185h1.5v3.858H9.976V-3.85H6.144V0h-1.5V-3.85ZM11.674-9.413h1.5v1.336a4.215,4.215,0,0,1,1.415-1.187,3.773,3.773,0,0,1,1.661-.36,2.739,2.739,0,0,1,2.707,1.4,4.962,4.962,0,0,1,.387,2.188V0H17.738V-5.933a3.212,3.212,0,0,0-.255-1.389A1.545,1.545,0,0,0,15.954-8.2a3.114,3.114,0,0,0-.923.114,2.377,2.377,0,0,0-1.143.773,2.329,2.329,0,0,0-.514.962,6.478,6.478,0,0,0-.119,1.419V0H11.674ZM25.422-1.02A2.182,2.182,0,0,0,27.579-2.21a5.933,5.933,0,0,0,.584-2.65A4.718,4.718,0,0,0,27.742-7a2.373,2.373,0,0,0-2.3-1.3A2.271,2.271,0,0,0,23.33-7.2a5.133,5.133,0,0,0-.659,2.672,4.465,4.465,0,0,0,.659,2.5A2.322,2.322,0,0,0,25.422-1.02Zm.062-8.666a4.262,4.262,0,0,1,3.076,1.213A4.736,4.736,0,0,1,29.816-4.9a6.122,6.122,0,0,1-1.107,3.762A4.006,4.006,0,0,1,25.272.343,3.88,3.88,0,0,1,22.187-.971,5.19,5.19,0,0,1,21.045-4.5a5.615,5.615,0,0,1,1.2-3.779A4.041,4.041,0,0,1,25.483-9.686Zm6.216.272h1.564v1.336a5.258,5.258,0,0,1,1.02-1.011,3.066,3.066,0,0,1,1.775-.536,2.794,2.794,0,0,1,1.811.554,2.894,2.894,0,0,1,.7.932,3.419,3.419,0,0,1,1.239-1.121,3.457,3.457,0,0,1,1.6-.365,2.616,2.616,0,0,1,2.584,1.371,4.482,4.482,0,0,1,.369,1.986V0H42.72V-6.539a1.523,1.523,0,0,0-.47-1.292A1.861,1.861,0,0,0,41.1-8.183a2.277,2.277,0,0,0-1.6.624,2.74,2.74,0,0,0-.672,2.083V0H37.218V-6.144a3.192,3.192,0,0,0-.229-1.4A1.394,1.394,0,0,0,35.645-8.2a2.32,2.32,0,0,0-1.63.694,3.4,3.4,0,0,0-.734,2.514V0H31.7Zm14.873-3.542H48.11v4.685A3.508,3.508,0,0,1,49.349-9.3a3.484,3.484,0,0,1,1.564-.356,3.667,3.667,0,0,1,2.852,1.208A5.148,5.148,0,0,1,54.86-4.887a6.112,6.112,0,0,1-1.081,3.709,3.507,3.507,0,0,1-3,1.477A3.071,3.071,0,0,1,48.971-.22a4.372,4.372,0,0,1-.94-.984V0H46.572ZM50.685-1.1a2.114,2.114,0,0,0,1.92-1.02,5.02,5.02,0,0,0,.637-2.689,4.414,4.414,0,0,0-.637-2.461,2.1,2.1,0,0,0-1.876-.976,2.617,2.617,0,0,0-1.894.8,3.592,3.592,0,0,0-.813,2.637,5.827,5.827,0,0,0,.334,2.153A2.308,2.308,0,0,0,50.685-1.1Zm6.066-8.314h1.5v1.626a3.592,3.592,0,0,1,.905-1.156,2.347,2.347,0,0,1,1.661-.681q.044,0,.149.009t.36.035v1.67a2.363,2.363,0,0,0-.259-.035q-.119-.009-.259-.009a2.258,2.258,0,0,0-1.837.769,2.684,2.684,0,0,0-.642,1.771V0H56.751Zm9.872-.211a4.294,4.294,0,0,1,1.942.47A3.582,3.582,0,0,1,70-7.937a4.2,4.2,0,0,1,.633,1.661A10.868,10.868,0,0,1,70.772-4.2h-6.9a4.026,4.026,0,0,0,.677,2.3,2.266,2.266,0,0,0,1.96.866,2.534,2.534,0,0,0,1.978-.817,2.755,2.755,0,0,0,.6-1.1H70.64A3.276,3.276,0,0,1,70.231-1.8a4.111,4.111,0,0,1-.778,1.042,3.687,3.687,0,0,1-1.784.949,5.42,5.42,0,0,1-1.292.141A3.964,3.964,0,0,1,63.4-.945a4.976,4.976,0,0,1-1.222-3.582,5.41,5.41,0,0,1,1.23-3.683A4.059,4.059,0,0,1,66.623-9.624Zm2.522,4.166A4.1,4.1,0,0,0,68.7-7.1a2.3,2.3,0,0,0-2.171-1.143,2.406,2.406,0,0,0-1.828.787,2.972,2.972,0,0,0-.782,2ZM73.551-9.29h1.837v1.916H73.551Zm0,7.374h1.837V0H73.551Zm10.524-2.25a3.528,3.528,0,0,0,.519,1.784A3.437,3.437,0,0,0,87.661-1.1a5.429,5.429,0,0,0,1.793-.281,1.992,1.992,0,0,0,1.564-1.951,1.684,1.684,0,0,0-.659-1.5A6.656,6.656,0,0,0,88.267-5.6l-1.749-.4a7.92,7.92,0,0,1-2.426-.853,2.7,2.7,0,0,1-1.23-2.417,3.722,3.722,0,0,1,1.2-2.856,4.831,4.831,0,0,1,3.41-1.116,5.923,5.923,0,0,1,3.45.98,3.537,3.537,0,0,1,1.419,3.133H90.7a3.235,3.235,0,0,0-.562-1.591,3.268,3.268,0,0,0-2.716-1.011,3.142,3.142,0,0,0-2.224.65,2.036,2.036,0,0,0-.677,1.512,1.476,1.476,0,0,0,.791,1.389,11.608,11.608,0,0,0,2.347.7l1.811.413a5.547,5.547,0,0,1,2.021.817,3.061,3.061,0,0,1,1.23,2.628,3.28,3.28,0,0,1-1.56,3.067,6.987,6.987,0,0,1-3.625.923,5.421,5.421,0,0,1-3.771-1.23,4.152,4.152,0,0,1-1.336-3.313Zm10.971-7.875h1.6v2.628h1.5v1.292h-1.5v6.144a.665.665,0,0,0,.334.659,1.42,1.42,0,0,0,.615.1q.114,0,.246,0t.308-.022V0a3.532,3.532,0,0,1-.567.114,5.39,5.39,0,0,1-.637.035,1.717,1.717,0,0,1-1.5-.567,2.519,2.519,0,0,1-.4-1.472V-8.121H93.771V-9.413h1.274Zm4.73,2.628h1.5v1.626a3.592,3.592,0,0,1,.905-1.156,2.347,2.347,0,0,1,1.661-.681q.044,0,.149.009t.36.035v1.67a2.363,2.363,0,0,0-.259-.035q-.119-.009-.259-.009A2.258,2.258,0,0,0,102-7.185a2.684,2.684,0,0,0-.642,1.771V0H99.776Zm5.952.044h1.608V0h-1.608Zm0-3.542h1.608v1.793h-1.608Zm4,3.5h1.5v1.336a4.215,4.215,0,0,1,1.415-1.187,3.773,3.773,0,0,1,1.661-.36,2.739,2.739,0,0,1,2.707,1.4,4.962,4.962,0,0,1,.387,2.188V0h-1.608V-5.933a3.212,3.212,0,0,0-.255-1.389,1.545,1.545,0,0,0-1.529-.879,3.114,3.114,0,0,0-.923.114,2.377,2.377,0,0,0-1.143.773,2.329,2.329,0,0,0-.514.962,6.478,6.478,0,0,0-.119,1.419V0h-1.582Zm13.335-.167A3.431,3.431,0,0,1,125-9.035a4.343,4.343,0,0,1,.914.9V-9.325h1.459V-.765a6.313,6.313,0,0,1-.527,2.83,3.786,3.786,0,0,1-3.718,1.916,4.56,4.56,0,0,1-2.558-.681,2.656,2.656,0,0,1-1.16-2.131h1.608a1.79,1.79,0,0,0,.457.976,2.33,2.33,0,0,0,1.688.527,2.322,2.322,0,0,0,2.382-1.283,7.227,7.227,0,0,0,.308-2.7,3.1,3.1,0,0,1-1.143,1.072,3.8,3.8,0,0,1-1.767.352,3.771,3.771,0,0,1-2.676-1.085,4.774,4.774,0,0,1-1.147-3.59,5.437,5.437,0,0,1,1.156-3.691A3.574,3.574,0,0,1,123.063-9.58Zm2.848,4.834a3.924,3.924,0,0,0-.721-2.593,2.309,2.309,0,0,0-1.837-.844,2.268,2.268,0,0,0-2.285,1.564,6.134,6.134,0,0,0-.325,2.188,3.885,3.885,0,0,0,.646,2.421,2.085,2.085,0,0,0,1.736.831,2.437,2.437,0,0,0,2.4-1.538A4.961,4.961,0,0,0,125.911-4.746Z" transform="translate(972 3962)" fill="#212429"/>
      <path id="Trazado_1219427" data-name="Trazado 1219427" d="M.809-3.85V-5.326H4.641V-9.185h1.5v3.858H9.976V-3.85H6.144V0h-1.5V-3.85ZM15.3-9.686a4.1,4.1,0,0,1,2.588.773,3.705,3.705,0,0,1,1.2,2.663H17.554a2.839,2.839,0,0,0-.642-1.446A2.027,2.027,0,0,0,15.3-8.271a2.222,2.222,0,0,0-2.162,1.477A5.865,5.865,0,0,0,12.72-4.43a4.449,4.449,0,0,0,.6,2.382,2.05,2.05,0,0,0,1.881.967,2.057,2.057,0,0,0,1.56-.6,3.311,3.311,0,0,0,.8-1.648h1.538A4.129,4.129,0,0,1,17.773-.593a4.113,4.113,0,0,1-2.7.866,3.6,3.6,0,0,1-2.944-1.349,5.164,5.164,0,0,1-1.1-3.371,5.678,5.678,0,0,1,1.2-3.858A3.891,3.891,0,0,1,15.3-9.686ZM24.411-1.02A2.182,2.182,0,0,0,26.569-2.21a5.933,5.933,0,0,0,.584-2.65A4.718,4.718,0,0,0,26.731-7a2.373,2.373,0,0,0-2.3-1.3A2.271,2.271,0,0,0,22.319-7.2a5.133,5.133,0,0,0-.659,2.672,4.465,4.465,0,0,0,.659,2.5A2.322,2.322,0,0,0,24.411-1.02Zm.062-8.666a4.262,4.262,0,0,1,3.076,1.213A4.736,4.736,0,0,1,28.805-4.9,6.122,6.122,0,0,1,27.7-1.143,4.006,4.006,0,0,1,24.261.343,3.88,3.88,0,0,1,21.176-.971,5.19,5.19,0,0,1,20.034-4.5a5.615,5.615,0,0,1,1.2-3.779A4.041,4.041,0,0,1,24.472-9.686ZM26.309-13.2l-2.347,2.54H22.75l1.608-2.54ZM31.69-4.6a4.666,4.666,0,0,0,.642,2.531,2.248,2.248,0,0,0,2.057,1.02,2.166,2.166,0,0,0,1.806-.945A4.462,4.462,0,0,0,36.9-4.7a4.009,4.009,0,0,0-.729-2.641,2.276,2.276,0,0,0-1.8-.857,2.378,2.378,0,0,0-1.938.914A4.186,4.186,0,0,0,31.69-4.6ZM34.072-9.58a3.349,3.349,0,0,1,1.811.457,4.253,4.253,0,0,1,.958.923v-4.755h1.521V0H36.937V-1.31a3.423,3.423,0,0,1-1.31,1.257A3.748,3.748,0,0,1,33.9.334,3.506,3.506,0,0,1,31.171-.989a5.172,5.172,0,0,1-1.151-3.52,6.076,6.076,0,0,1,1.05-3.564A3.439,3.439,0,0,1,34.072-9.58Zm6.629.211h1.608V0H40.7Zm0-3.542h1.608v1.793H40.7ZM48.024-9.58a3.431,3.431,0,0,1,1.934.545,4.343,4.343,0,0,1,.914.9V-9.325H52.33V-.765a6.313,6.313,0,0,1-.527,2.83,3.786,3.786,0,0,1-3.718,1.916A4.56,4.56,0,0,1,45.528,3.3a2.656,2.656,0,0,1-1.16-2.131h1.608a1.79,1.79,0,0,0,.457.976,2.33,2.33,0,0,0,1.688.527A2.322,2.322,0,0,0,50.5,1.389a7.227,7.227,0,0,0,.308-2.7A3.1,3.1,0,0,1,49.667-.237,3.8,3.8,0,0,1,47.9.114,3.771,3.771,0,0,1,45.224-.971a4.774,4.774,0,0,1-1.147-3.59,5.437,5.437,0,0,1,1.156-3.691A3.574,3.574,0,0,1,48.024-9.58Zm2.848,4.834a3.924,3.924,0,0,0-.721-2.593,2.309,2.309,0,0,0-1.837-.844,2.268,2.268,0,0,0-2.285,1.564A6.134,6.134,0,0,0,45.7-4.43a3.885,3.885,0,0,0,.646,2.421,2.085,2.085,0,0,0,1.736.831,2.437,2.437,0,0,0,2.4-1.538A4.961,4.961,0,0,0,50.871-4.746ZM58.449-1.02A2.182,2.182,0,0,0,60.607-2.21a5.933,5.933,0,0,0,.584-2.65A4.718,4.718,0,0,0,60.77-7a2.373,2.373,0,0,0-2.3-1.3A2.271,2.271,0,0,0,56.357-7.2,5.133,5.133,0,0,0,55.7-4.526a4.465,4.465,0,0,0,.659,2.5A2.322,2.322,0,0,0,58.449-1.02Zm.062-8.666a4.262,4.262,0,0,1,3.076,1.213A4.736,4.736,0,0,1,62.844-4.9a6.122,6.122,0,0,1-1.107,3.762A4.006,4.006,0,0,1,58.3.343,3.88,3.88,0,0,1,55.215-.971,5.19,5.19,0,0,1,54.072-4.5a5.615,5.615,0,0,1,1.2-3.779A4.041,4.041,0,0,1,58.511-9.686Zm7.051.4H67.4v1.916H65.561Zm0,7.374H67.4V0H65.561Zm9.171-7.453H76.34V0H74.732Zm0-3.542H76.34v1.793H74.732Zm4,3.5h1.5v1.336a4.215,4.215,0,0,1,1.415-1.187,3.773,3.773,0,0,1,1.661-.36,2.739,2.739,0,0,1,2.707,1.4,4.962,4.962,0,0,1,.387,2.188V0H84.8V-5.933a3.212,3.212,0,0,0-.255-1.389A1.545,1.545,0,0,0,83.013-8.2a3.114,3.114,0,0,0-.923.114,2.377,2.377,0,0,0-1.143.773,2.329,2.329,0,0,0-.514.962,6.478,6.478,0,0,0-.119,1.419V0H78.733Zm10.329-2.628h1.6v2.628h1.5v1.292h-1.5v6.144A.665.665,0,0,0,91-1.318a1.42,1.42,0,0,0,.615.1q.114,0,.246,0t.308-.022V0A3.532,3.532,0,0,1,91.6.114a5.39,5.39,0,0,1-.637.035,1.717,1.717,0,0,1-1.5-.567,2.519,2.519,0,0,1-.4-1.472V-8.121H87.787V-9.413h1.274Z" transform="translate(972 3990)" fill="#212429"/>
      <path id="Trazado_1219429" data-name="Trazado 1219429" d="M.809-3.85V-5.326H4.641V-9.185h1.5v3.858H9.976V-3.85H6.144V0h-1.5V-3.85ZM17.889-2.5a1.3,1.3,0,0,0,.5,1.081,1.857,1.857,0,0,0,1.187.4,3.608,3.608,0,0,0,1.617-.387,2.176,2.176,0,0,0,1.318-2.1V-4.79a2.707,2.707,0,0,1-.747.308,6.366,6.366,0,0,1-.9.176l-.958.123a3.664,3.664,0,0,0-1.292.36A1.4,1.4,0,0,0,17.889-2.5Zm3.832-3.2a.859.859,0,0,0,.729-.457,1.391,1.391,0,0,0,.105-.606,1.285,1.285,0,0,0-.576-1.173,3.089,3.089,0,0,0-1.648-.365,2.094,2.094,0,0,0-1.758.668,2.2,2.2,0,0,0-.378,1.1H16.72A2.718,2.718,0,0,1,17.85-8.96a4.637,4.637,0,0,1,2.518-.681,5.124,5.124,0,0,1,2.7.633A2.147,2.147,0,0,1,24.094-7.04v5.423a.694.694,0,0,0,.1.4.487.487,0,0,0,.426.149q.105,0,.237-.013t.281-.04V.044a4.406,4.406,0,0,1-.562.132A4.111,4.111,0,0,1,24.05.2a1.3,1.3,0,0,1-1.187-.58,2.239,2.239,0,0,1-.272-.87A4.025,4.025,0,0,1,21.2-.149a4.3,4.3,0,0,1-2,.466,2.967,2.967,0,0,1-2.14-.8,2.642,2.642,0,0,1-.831-1.991,2.564,2.564,0,0,1,.817-2.03A3.889,3.889,0,0,1,19.2-5.388Zm8.29-3.876a3.431,3.431,0,0,1,1.934.545,4.343,4.343,0,0,1,.914.9V-9.325h1.459V-.765a6.313,6.313,0,0,1-.527,2.83,3.786,3.786,0,0,1-3.718,1.916A4.56,4.56,0,0,1,27.515,3.3a2.656,2.656,0,0,1-1.16-2.131h1.608a1.79,1.79,0,0,0,.457.976,2.33,2.33,0,0,0,1.688.527A2.322,2.322,0,0,0,32.49,1.389a7.227,7.227,0,0,0,.308-2.7A3.1,3.1,0,0,1,31.655-.237a3.8,3.8,0,0,1-1.767.352A3.771,3.771,0,0,1,27.212-.971a4.774,4.774,0,0,1-1.147-3.59,5.437,5.437,0,0,1,1.156-3.691A3.574,3.574,0,0,1,30.011-9.58Zm2.848,4.834a3.924,3.924,0,0,0-.721-2.593A2.309,2.309,0,0,0,30.3-8.183a2.268,2.268,0,0,0-2.285,1.564,6.134,6.134,0,0,0-.325,2.188,3.885,3.885,0,0,0,.646,2.421,2.085,2.085,0,0,0,1.736.831,2.437,2.437,0,0,0,2.4-1.538A4.961,4.961,0,0,0,32.859-4.746Zm3.887-4.667h1.5v1.626a3.592,3.592,0,0,1,.905-1.156,2.347,2.347,0,0,1,1.661-.681q.044,0,.149.009t.36.035v1.67a2.363,2.363,0,0,0-.259-.035q-.119-.009-.259-.009a2.258,2.258,0,0,0-1.837.769,2.684,2.684,0,0,0-.642,1.771V0H36.745Zm9.872-.211a4.294,4.294,0,0,1,1.942.47,3.582,3.582,0,0,1,1.433,1.217,4.2,4.2,0,0,1,.633,1.661A10.868,10.868,0,0,1,50.766-4.2h-6.9a4.026,4.026,0,0,0,.677,2.3,2.266,2.266,0,0,0,1.96.866,2.534,2.534,0,0,0,1.978-.817,2.755,2.755,0,0,0,.6-1.1h1.556A3.276,3.276,0,0,1,50.225-1.8a4.111,4.111,0,0,1-.778,1.042,3.687,3.687,0,0,1-1.784.949,5.42,5.42,0,0,1-1.292.141A3.964,3.964,0,0,1,43.392-.945,4.976,4.976,0,0,1,42.17-4.526,5.41,5.41,0,0,1,43.4-8.209,4.059,4.059,0,0,1,46.617-9.624ZM49.14-5.458A4.1,4.1,0,0,0,48.692-7.1a2.3,2.3,0,0,0-2.171-1.143,2.406,2.406,0,0,0-1.828.787,2.972,2.972,0,0,0-.782,2ZM56.032-9.58a3.431,3.431,0,0,1,1.934.545,4.343,4.343,0,0,1,.914.9V-9.325h1.459V-.765a6.313,6.313,0,0,1-.527,2.83,3.786,3.786,0,0,1-3.718,1.916A4.56,4.56,0,0,1,53.536,3.3a2.656,2.656,0,0,1-1.16-2.131h1.608a1.79,1.79,0,0,0,.457.976,2.33,2.33,0,0,0,1.688.527,2.322,2.322,0,0,0,2.382-1.283,7.227,7.227,0,0,0,.308-2.7A3.1,3.1,0,0,1,57.676-.237a3.8,3.8,0,0,1-1.767.352A3.771,3.771,0,0,1,53.233-.971a4.774,4.774,0,0,1-1.147-3.59,5.437,5.437,0,0,1,1.156-3.691A3.574,3.574,0,0,1,56.032-9.58ZM58.88-4.746a3.924,3.924,0,0,0-.721-2.593,2.309,2.309,0,0,0-1.837-.844,2.268,2.268,0,0,0-2.285,1.564,6.134,6.134,0,0,0-.325,2.188,3.885,3.885,0,0,0,.646,2.421,2.085,2.085,0,0,0,1.736.831,2.437,2.437,0,0,0,2.4-1.538A4.961,4.961,0,0,0,58.88-4.746ZM63.935-2.5a1.3,1.3,0,0,0,.5,1.081,1.857,1.857,0,0,0,1.187.4,3.608,3.608,0,0,0,1.617-.387,2.176,2.176,0,0,0,1.318-2.1V-4.79a2.707,2.707,0,0,1-.747.308,6.366,6.366,0,0,1-.9.176l-.958.123a3.664,3.664,0,0,0-1.292.36A1.4,1.4,0,0,0,63.935-2.5Zm3.832-3.2a.859.859,0,0,0,.729-.457,1.391,1.391,0,0,0,.105-.606,1.285,1.285,0,0,0-.576-1.173,3.089,3.089,0,0,0-1.648-.365,2.094,2.094,0,0,0-1.758.668,2.2,2.2,0,0,0-.378,1.1H62.767A2.718,2.718,0,0,1,63.9-8.96a4.637,4.637,0,0,1,2.518-.681,5.124,5.124,0,0,1,2.7.633A2.147,2.147,0,0,1,70.141-7.04v5.423a.694.694,0,0,0,.1.4.487.487,0,0,0,.426.149q.105,0,.237-.013t.281-.04V.044a4.406,4.406,0,0,1-.562.132A4.111,4.111,0,0,1,70.1.2a1.3,1.3,0,0,1-1.187-.58,2.239,2.239,0,0,1-.272-.87,4.025,4.025,0,0,1-1.389,1.1,4.3,4.3,0,0,1-2,.466,2.967,2.967,0,0,1-2.14-.8,2.642,2.642,0,0,1-.831-1.991A2.564,2.564,0,0,1,63.1-4.5a3.889,3.889,0,0,1,2.145-.888Zm5.012-3.709h1.5v1.626a3.592,3.592,0,0,1,.905-1.156,2.347,2.347,0,0,1,1.661-.681q.044,0,.149.009t.36.035v1.67a2.363,2.363,0,0,0-.259-.035q-.119-.009-.259-.009A2.258,2.258,0,0,0,75-7.185a2.684,2.684,0,0,0-.642,1.771V0H72.779Zm12.79,4.122L83.609-11l-2.083,5.7Zm-2.874-7.62h1.978L89.357,0H87.441l-1.31-3.867H81.025L79.628,0H77.835Zm8.088,0h1.582V0H90.783Zm5.539,3.5v6.249a2.635,2.635,0,0,0,.229,1.178,1.6,1.6,0,0,0,1.573.844,2.224,2.224,0,0,0,2.25-1.477A5.858,5.858,0,0,0,100.7-4.79V-9.413h1.582V0h-1.494l.018-1.389a3.191,3.191,0,0,1-.765.905,3.365,3.365,0,0,1-2.2.738A2.834,2.834,0,0,1,95.1-1.09a4,4,0,0,1-.4-1.925v-6.4Zm8.431,0h1.564v1.336a5.258,5.258,0,0,1,1.02-1.011,3.066,3.066,0,0,1,1.775-.536,2.794,2.794,0,0,1,1.811.554,2.894,2.894,0,0,1,.7.932,3.419,3.419,0,0,1,1.239-1.121,3.457,3.457,0,0,1,1.6-.365,2.616,2.616,0,0,1,2.584,1.371,4.482,4.482,0,0,1,.369,1.986V0h-1.644V-6.539a1.523,1.523,0,0,0-.47-1.292,1.861,1.861,0,0,0-1.147-.352,2.277,2.277,0,0,0-1.6.624,2.74,2.74,0,0,0-.672,2.083V0h-1.608V-6.144a3.192,3.192,0,0,0-.229-1.4A1.394,1.394,0,0,0,108.7-8.2a2.32,2.32,0,0,0-1.63.694,3.4,3.4,0,0,0-.734,2.514V0h-1.582Zm15,0h1.5v1.336a4.215,4.215,0,0,1,1.415-1.187,3.773,3.773,0,0,1,1.661-.36,2.739,2.739,0,0,1,2.707,1.4,4.962,4.962,0,0,1,.387,2.188V0h-1.608V-5.933a3.212,3.212,0,0,0-.255-1.389,1.545,1.545,0,0,0-1.529-.879,3.114,3.114,0,0,0-.923.114,2.377,2.377,0,0,0-1.143.773,2.329,2.329,0,0,0-.514.962,6.478,6.478,0,0,0-.119,1.419V0h-1.582ZM133.5-1.02a2.182,2.182,0,0,0,2.158-1.191,5.933,5.933,0,0,0,.584-2.65A4.718,4.718,0,0,0,135.816-7a2.373,2.373,0,0,0-2.3-1.3A2.271,2.271,0,0,0,131.4-7.2a5.133,5.133,0,0,0-.659,2.672,4.465,4.465,0,0,0,.659,2.5A2.322,2.322,0,0,0,133.5-1.02Zm.062-8.666a4.262,4.262,0,0,1,3.076,1.213A4.736,4.736,0,0,1,137.89-4.9a6.122,6.122,0,0,1-1.107,3.762A4.006,4.006,0,0,1,133.346.343a3.88,3.88,0,0,1-3.085-1.314A5.19,5.19,0,0,1,129.119-4.5a5.615,5.615,0,0,1,1.2-3.779A4.041,4.041,0,0,1,133.557-9.686Zm10.382-3.437a30.689,30.689,0,0,0-1.793,3.946,14.427,14.427,0,0,0-.624,4.447,14.5,14.5,0,0,0,.712,4.658,28.13,28.13,0,0,0,1.731,3.744H142.9q-1.283-2-1.591-2.558a11.88,11.88,0,0,1-.668-1.5,12.353,12.353,0,0,1-.686-2.777,11.646,11.646,0,0,1-.1-1.459,12.322,12.322,0,0,1,.817-4.632,26.659,26.659,0,0,1,2.162-3.867Zm1.294,16.8a31.028,31.028,0,0,0,1.8-3.973,14.342,14.342,0,0,0,.615-4.43,14.467,14.467,0,0,0-.712-4.649,28.13,28.13,0,0,0-1.731-3.744h1.063q1.354,2.162,1.639,2.667a10.312,10.312,0,0,1,.62,1.393,11.259,11.259,0,0,1,.6,2.171,12.466,12.466,0,0,1,.18,2.065,12.273,12.273,0,0,1-.826,4.641,25.487,25.487,0,0,1-2.153,3.858Z" transform="translate(972 4064)" fill="#212429"/>
      <path id="Trazado_1219428" data-name="Trazado 1219428" d="M.809-3.85V-5.326H4.641V-9.185h1.5v3.858H9.976V-3.85H6.144V0h-1.5V-3.85ZM15.3-9.686a4.1,4.1,0,0,1,2.588.773,3.705,3.705,0,0,1,1.2,2.663H17.554a2.839,2.839,0,0,0-.642-1.446A2.027,2.027,0,0,0,15.3-8.271a2.222,2.222,0,0,0-2.162,1.477A5.865,5.865,0,0,0,12.72-4.43a4.449,4.449,0,0,0,.6,2.382,2.05,2.05,0,0,0,1.881.967,2.057,2.057,0,0,0,1.56-.6,3.311,3.311,0,0,0,.8-1.648h1.538A4.129,4.129,0,0,1,17.773-.593a4.113,4.113,0,0,1-2.7.866,3.6,3.6,0,0,1-2.944-1.349,5.164,5.164,0,0,1-1.1-3.371,5.678,5.678,0,0,1,1.2-3.858A3.891,3.891,0,0,1,15.3-9.686Zm5.416.272h1.5v1.626a3.592,3.592,0,0,1,.905-1.156,2.347,2.347,0,0,1,1.661-.681q.044,0,.149.009t.36.035v1.67a2.363,2.363,0,0,0-.259-.035q-.119-.009-.259-.009a2.258,2.258,0,0,0-1.837.769A2.684,2.684,0,0,0,22.3-5.414V0H20.719Zm9.872-.211a4.294,4.294,0,0,1,1.942.47,3.582,3.582,0,0,1,1.433,1.217A4.2,4.2,0,0,1,34.6-6.275,10.868,10.868,0,0,1,34.74-4.2h-6.9a4.026,4.026,0,0,0,.677,2.3,2.266,2.266,0,0,0,1.96.866,2.534,2.534,0,0,0,1.978-.817,2.755,2.755,0,0,0,.6-1.1h1.556A3.276,3.276,0,0,1,34.2-1.8a4.111,4.111,0,0,1-.778,1.042,3.687,3.687,0,0,1-1.784.949,5.42,5.42,0,0,1-1.292.141A3.964,3.964,0,0,1,27.366-.945a4.976,4.976,0,0,1-1.222-3.582,5.41,5.41,0,0,1,1.23-3.683A4.059,4.059,0,0,1,30.591-9.624Zm2.522,4.166A4.1,4.1,0,0,0,32.666-7.1a2.3,2.3,0,0,0-2.171-1.143,2.406,2.406,0,0,0-1.828.787,2.972,2.972,0,0,0-.782,2Zm4.572.861a4.666,4.666,0,0,0,.642,2.531,2.248,2.248,0,0,0,2.057,1.02,2.166,2.166,0,0,0,1.806-.945A4.462,4.462,0,0,0,42.9-4.7a4.009,4.009,0,0,0-.729-2.641,2.276,2.276,0,0,0-1.8-.857,2.378,2.378,0,0,0-1.938.914A4.186,4.186,0,0,0,37.686-4.6ZM40.068-9.58a3.349,3.349,0,0,1,1.811.457,4.253,4.253,0,0,1,.958.923v-4.755h1.521V0H42.933V-1.31a3.423,3.423,0,0,1-1.31,1.257,3.748,3.748,0,0,1-1.731.387A3.506,3.506,0,0,1,37.167-.989a5.172,5.172,0,0,1-1.151-3.52,6.076,6.076,0,0,1,1.05-3.564A3.439,3.439,0,0,1,40.068-9.58Zm6.629.211H48.3V0H46.7Zm0-3.542H48.3v1.793H46.7Zm4.317.87h1.6v2.628h1.5v1.292h-1.5v6.144a.665.665,0,0,0,.334.659,1.42,1.42,0,0,0,.615.1q.114,0,.246,0t.308-.022V0a3.532,3.532,0,0,1-.567.114,5.39,5.39,0,0,1-.637.035,1.717,1.717,0,0,1-1.5-.567,2.519,2.519,0,0,1-.4-1.472V-8.121H49.739V-9.413h1.274ZM59.435-1.02A2.182,2.182,0,0,0,61.593-2.21a5.933,5.933,0,0,0,.584-2.65A4.718,4.718,0,0,0,61.756-7a2.373,2.373,0,0,0-2.3-1.3A2.271,2.271,0,0,0,57.344-7.2a5.133,5.133,0,0,0-.659,2.672,4.465,4.465,0,0,0,.659,2.5A2.322,2.322,0,0,0,59.435-1.02ZM59.5-9.686a4.262,4.262,0,0,1,3.076,1.213A4.736,4.736,0,0,1,63.83-4.9a6.122,6.122,0,0,1-1.107,3.762A4.006,4.006,0,0,1,59.286.343,3.88,3.88,0,0,1,56.2-.971,5.19,5.19,0,0,1,55.058-4.5a5.615,5.615,0,0,1,1.2-3.779A4.041,4.041,0,0,1,59.5-9.686Zm7.156,6.732a2.3,2.3,0,0,0,.4,1.213,2.485,2.485,0,0,0,2.074.765,3.059,3.059,0,0,0,1.547-.382,1.27,1.27,0,0,0,.668-1.182,1.011,1.011,0,0,0-.536-.923,6.374,6.374,0,0,0-1.354-.448l-1.257-.316A6.131,6.131,0,0,1,66.416-4.9,2,2,0,0,1,65.4-6.671a2.713,2.713,0,0,1,.962-2.162,3.839,3.839,0,0,1,2.588-.826,3.593,3.593,0,0,1,3.067,1.248,2.708,2.708,0,0,1,.571,1.705H71.092a1.83,1.83,0,0,0-.378-.976,2.41,2.41,0,0,0-1.89-.624,2.259,2.259,0,0,0-1.358.343A1.074,1.074,0,0,0,67-7.058a1.114,1.114,0,0,0,.606.984,3.644,3.644,0,0,0,1.037.387l1.046.255a8.087,8.087,0,0,1,2.285.8A2.118,2.118,0,0,1,72.9-2.725a2.906,2.906,0,0,1-.954,2.171,4.059,4.059,0,0,1-2.9.914,3.9,3.9,0,0,1-2.975-.954,3.606,3.606,0,0,1-.936-2.36Zm8.9-6.337h1.837v1.916H75.549Zm0,7.374h1.837V0H75.549ZM84.72-9.369h1.608V0H84.72Zm0-3.542h1.608v1.793H84.72Zm4,3.5h1.5v1.336a4.215,4.215,0,0,1,1.415-1.187,3.773,3.773,0,0,1,1.661-.36,2.739,2.739,0,0,1,2.707,1.4,4.962,4.962,0,0,1,.387,2.188V0H94.785V-5.933a3.212,3.212,0,0,0-.255-1.389A1.545,1.545,0,0,0,93-8.2a3.114,3.114,0,0,0-.923.114,2.377,2.377,0,0,0-1.143.773,2.329,2.329,0,0,0-.514.962A6.478,6.478,0,0,0,90.3-4.931V0H88.721ZM99.05-12.041h1.6v2.628h1.5v1.292h-1.5v6.144a.665.665,0,0,0,.334.659,1.42,1.42,0,0,0,.615.1q.114,0,.246,0t.308-.022V0a3.532,3.532,0,0,1-.567.114,5.39,5.39,0,0,1-.637.035,1.717,1.717,0,0,1-1.5-.567,2.519,2.519,0,0,1-.4-1.472V-8.121H97.775V-9.413H99.05Z" transform="translate(972 4020)" fill="#212429"/>
      <path id="Trazado_1219430" data-name="Trazado 1219430" d="M.809-3.85V-5.326H4.641V-9.185h1.5v3.858H9.976V-3.85H6.144V0h-1.5V-3.85Zm19.6,2.83A2.182,2.182,0,0,0,22.57-2.21a5.933,5.933,0,0,0,.584-2.65A4.718,4.718,0,0,0,22.732-7a2.373,2.373,0,0,0-2.3-1.3A2.271,2.271,0,0,0,18.32-7.2a5.133,5.133,0,0,0-.659,2.672,4.465,4.465,0,0,0,.659,2.5A2.322,2.322,0,0,0,20.412-1.02Zm.062-8.666a4.262,4.262,0,0,1,3.076,1.213A4.736,4.736,0,0,1,24.806-4.9,6.122,6.122,0,0,1,23.7-1.143,4.006,4.006,0,0,1,20.262.343,3.88,3.88,0,0,1,17.177-.971,5.19,5.19,0,0,1,16.035-4.5a5.615,5.615,0,0,1,1.2-3.779A4.041,4.041,0,0,1,20.473-9.686Zm6.093-3.27H28.1v4.685A3.508,3.508,0,0,1,29.343-9.3a3.484,3.484,0,0,1,1.564-.356A3.667,3.667,0,0,1,33.76-8.451a5.148,5.148,0,0,1,1.094,3.564,6.112,6.112,0,0,1-1.081,3.709,3.507,3.507,0,0,1-3,1.477A3.071,3.071,0,0,1,28.965-.22a4.372,4.372,0,0,1-.94-.984V0H26.566ZM30.679-1.1a2.114,2.114,0,0,0,1.92-1.02,5.02,5.02,0,0,0,.637-2.689A4.414,4.414,0,0,0,32.6-7.269a2.1,2.1,0,0,0-1.876-.976,2.617,2.617,0,0,0-1.894.8,3.592,3.592,0,0,0-.813,2.637,5.827,5.827,0,0,0,.334,2.153A2.308,2.308,0,0,0,30.679-1.1Zm6.339-10.942h1.6v2.628h1.5v1.292h-1.5v6.144a.665.665,0,0,0,.334.659,1.42,1.42,0,0,0,.615.1q.114,0,.246,0t.308-.022V0a3.532,3.532,0,0,1-.567.114,5.39,5.39,0,0,1-.637.035,1.717,1.717,0,0,1-1.5-.567,2.519,2.519,0,0,1-.4-1.472V-8.121H35.744V-9.413h1.274Zm8.606,2.417a4.294,4.294,0,0,1,1.942.47A3.582,3.582,0,0,1,49-7.937a4.2,4.2,0,0,1,.633,1.661A10.868,10.868,0,0,1,49.773-4.2h-6.9a4.026,4.026,0,0,0,.677,2.3,2.266,2.266,0,0,0,1.96.866,2.534,2.534,0,0,0,1.978-.817,2.755,2.755,0,0,0,.6-1.1h1.556A3.276,3.276,0,0,1,49.232-1.8a4.111,4.111,0,0,1-.778,1.042A3.687,3.687,0,0,1,46.67.193a5.42,5.42,0,0,1-1.292.141A3.964,3.964,0,0,1,42.4-.945a4.976,4.976,0,0,1-1.222-3.582,5.41,5.41,0,0,1,1.23-3.683A4.059,4.059,0,0,1,45.624-9.624Zm2.522,4.166A4.1,4.1,0,0,0,47.7-7.1a2.3,2.3,0,0,0-2.171-1.143,2.406,2.406,0,0,0-1.828.787,2.972,2.972,0,0,0-.782,2Zm3.57-3.955h1.5v1.336a4.215,4.215,0,0,1,1.415-1.187,3.773,3.773,0,0,1,1.661-.36A2.739,2.739,0,0,1,59-8.227a4.962,4.962,0,0,1,.387,2.188V0H57.781V-5.933a3.212,3.212,0,0,0-.255-1.389A1.545,1.545,0,0,0,56-8.2a3.114,3.114,0,0,0-.923.114,2.377,2.377,0,0,0-1.143.773,2.329,2.329,0,0,0-.514.962A6.478,6.478,0,0,0,53.3-4.931V0H51.717Zm13.932-.211a4.294,4.294,0,0,1,1.942.47,3.582,3.582,0,0,1,1.433,1.217,4.2,4.2,0,0,1,.633,1.661A10.868,10.868,0,0,1,69.8-4.2H62.9a4.026,4.026,0,0,0,.677,2.3,2.266,2.266,0,0,0,1.96.866,2.534,2.534,0,0,0,1.978-.817,2.755,2.755,0,0,0,.6-1.1h1.556A3.276,3.276,0,0,1,69.257-1.8a4.111,4.111,0,0,1-.778,1.042A3.687,3.687,0,0,1,66.7.193,5.42,5.42,0,0,1,65.4.334,3.964,3.964,0,0,1,62.424-.945,4.976,4.976,0,0,1,61.2-4.526a5.41,5.41,0,0,1,1.23-3.683A4.059,4.059,0,0,1,65.649-9.624Zm2.522,4.166A4.1,4.1,0,0,0,67.724-7.1a2.3,2.3,0,0,0-2.171-1.143,2.406,2.406,0,0,0-1.828.787,2.972,2.972,0,0,0-.782,2Zm3.614-3.955h1.5v1.626a3.592,3.592,0,0,1,.905-1.156,2.347,2.347,0,0,1,1.661-.681q.044,0,.149.009t.36.035v1.67a2.363,2.363,0,0,0-.259-.035q-.119-.009-.259-.009a2.258,2.258,0,0,0-1.837.769,2.684,2.684,0,0,0-.642,1.771V0H71.786Zm6.207-3.5h1.767v5.335h6.715v-5.335h1.767V0H86.474V-6.038H79.759V0H77.993ZM94.474-1.02A2.182,2.182,0,0,0,96.632-2.21a5.933,5.933,0,0,0,.584-2.65A4.718,4.718,0,0,0,96.794-7a2.373,2.373,0,0,0-2.3-1.3A2.271,2.271,0,0,0,92.382-7.2a5.133,5.133,0,0,0-.659,2.672,4.465,4.465,0,0,0,.659,2.5A2.322,2.322,0,0,0,94.474-1.02Zm.062-8.666a4.262,4.262,0,0,1,3.076,1.213A4.736,4.736,0,0,1,98.869-4.9a6.122,6.122,0,0,1-1.107,3.762A4.006,4.006,0,0,1,94.325.343,3.88,3.88,0,0,1,91.24-.971,5.19,5.19,0,0,1,90.1-4.5a5.615,5.615,0,0,1,1.2-3.779A4.041,4.041,0,0,1,94.536-9.686Zm6.26.272h1.5v1.626a3.592,3.592,0,0,1,.905-1.156,2.347,2.347,0,0,1,1.661-.681q.044,0,.149.009t.36.035v1.67a2.363,2.363,0,0,0-.259-.035q-.119-.009-.259-.009a2.258,2.258,0,0,0-1.837.769,2.684,2.684,0,0,0-.642,1.771V0H100.8ZM107.96-2.5a1.3,1.3,0,0,0,.5,1.081,1.857,1.857,0,0,0,1.187.4,3.608,3.608,0,0,0,1.617-.387,2.176,2.176,0,0,0,1.318-2.1V-4.79a2.707,2.707,0,0,1-.747.308,6.366,6.366,0,0,1-.9.176l-.958.123a3.664,3.664,0,0,0-1.292.36A1.4,1.4,0,0,0,107.96-2.5Zm3.832-3.2a.859.859,0,0,0,.729-.457,1.391,1.391,0,0,0,.105-.606,1.285,1.285,0,0,0-.576-1.173,3.089,3.089,0,0,0-1.648-.365,2.094,2.094,0,0,0-1.758.668,2.2,2.2,0,0,0-.378,1.1h-1.477a2.718,2.718,0,0,1,1.129-2.421,4.637,4.637,0,0,1,2.518-.681,5.124,5.124,0,0,1,2.7.633,2.147,2.147,0,0,1,1.028,1.969v5.423a.694.694,0,0,0,.1.4.487.487,0,0,0,.426.149q.105,0,.237-.013t.281-.04V.044a4.406,4.406,0,0,1-.562.132,4.111,4.111,0,0,1-.527.026,1.3,1.3,0,0,1-1.187-.58,2.239,2.239,0,0,1-.272-.87,4.025,4.025,0,0,1-1.389,1.1,4.3,4.3,0,0,1-2,.466,2.967,2.967,0,0,1-2.14-.8,2.642,2.642,0,0,1-.831-1.991,2.564,2.564,0,0,1,.817-2.03,3.889,3.889,0,0,1,2.145-.888ZM116.8-9.413h1.5v1.626a3.592,3.592,0,0,1,.905-1.156,2.347,2.347,0,0,1,1.661-.681q.044,0,.149.009t.36.035v1.67a2.363,2.363,0,0,0-.259-.035q-.119-.009-.259-.009a2.258,2.258,0,0,0-1.837.769,2.684,2.684,0,0,0-.642,1.771V0H116.8Zm5.952.044h1.608V0h-1.608Zm0-3.542h1.608v1.793h-1.608ZM130.492-1.02A2.182,2.182,0,0,0,132.65-2.21a5.933,5.933,0,0,0,.584-2.65A4.718,4.718,0,0,0,132.812-7a2.373,2.373,0,0,0-2.3-1.3A2.271,2.271,0,0,0,128.4-7.2a5.133,5.133,0,0,0-.659,2.672,4.465,4.465,0,0,0,.659,2.5A2.322,2.322,0,0,0,130.492-1.02Zm.062-8.666a4.262,4.262,0,0,1,3.076,1.213A4.736,4.736,0,0,1,134.886-4.9a6.122,6.122,0,0,1-1.107,3.762A4.006,4.006,0,0,1,130.342.343a3.88,3.88,0,0,1-3.085-1.314A5.19,5.19,0,0,1,126.115-4.5a5.615,5.615,0,0,1,1.2-3.779A4.041,4.041,0,0,1,130.553-9.686Zm10.382-3.437a30.689,30.689,0,0,0-1.793,3.946,14.427,14.427,0,0,0-.624,4.447A14.5,14.5,0,0,0,139.23-.07a28.13,28.13,0,0,0,1.731,3.744H139.9q-1.283-2-1.591-2.558a11.88,11.88,0,0,1-.668-1.5,12.353,12.353,0,0,1-.686-2.777,11.646,11.646,0,0,1-.1-1.459,12.322,12.322,0,0,1,.817-4.632,26.659,26.659,0,0,1,2.162-3.867Zm1.294,16.8a31.028,31.028,0,0,0,1.8-3.973,14.342,14.342,0,0,0,.615-4.43,14.467,14.467,0,0,0-.712-4.649,28.13,28.13,0,0,0-1.731-3.744h1.063q1.354,2.162,1.639,2.667a10.312,10.312,0,0,1,.62,1.393,11.259,11.259,0,0,1,.6,2.171,12.466,12.466,0,0,1,.18,2.065,12.273,12.273,0,0,1-.826,4.641,25.487,25.487,0,0,1-2.153,3.858Z" transform="translate(972 4094)" fill="#212429"/>
      <rect id="Rectángulo_422477" data-name="Rectángulo 422477" width="21" height="13" rx="2" transform="translate(966 3886)" fill="#e4e4e4"/>
      <path id="Trazado_1217647" data-name="Trazado 1217647" d="M5641.09,3892.5h8.27" transform="translate(-4669)" fill="none" stroke="#0b0a0a" stroke-width="1"/>
      <g id="Rectángulo_422478" data-name="Rectángulo 422478" transform="translate(689 4141)" fill="#5c2c88" stroke="#707070" stroke-width="1">
        <rect width="222" height="56" stroke="none"/>
        <rect x="0.5" y="0.5" width="221" height="55" fill="none"/>
      </g>
      <g id="Rectángulo_422479" data-name="Rectángulo 422479" transform="translate(689 4195)" fill="#fff" stroke="#5c2c88" stroke-width="1">
        <rect width="222" height="47" stroke="none"/>
        <rect x="0.5" y="0.5" width="221" height="46" fill="none"/>
      </g>
      <g id="Rectángulo_422480" data-name="Rectángulo 422480" transform="translate(689 4241)" fill="#fff" stroke="#5c2c88" stroke-width="1">
        <rect width="222" height="44" stroke="none"/>
        <rect x="0.5" y="0.5" width="221" height="43" fill="none"/>
      </g>
      <path id="Trazado_1219431" data-name="Trazado 1219431" d="M3.85,0H1.327V-12.955H5.265L7.62-2.769,9.958-12.955h3.894V0H11.329V-8.763q0-.378.009-1.059t.009-1.05L8.895,0H6.267L3.832-10.872q0,.369.009,1.05T3.85-8.763ZM16.523-8.543a4.09,4.09,0,0,1,3.41-1.266,6.059,6.059,0,0,1,2.795.624A2.4,2.4,0,0,1,23.95-6.829v4.395q0,.457.018,1.107a1.392,1.392,0,0,0,.149.668.9.9,0,0,0,.369.29V0H21.762A2.79,2.79,0,0,1,21.6-.545q-.044-.255-.07-.58a5.146,5.146,0,0,1-1.2.958A3.6,3.6,0,0,1,18.51.3a3.143,3.143,0,0,1-2.149-.743,2.649,2.649,0,0,1-.848-2.1,2.732,2.732,0,0,1,1.362-2.558,6.049,6.049,0,0,1,2.2-.615l.853-.105a3.91,3.91,0,0,0,.993-.22.753.753,0,0,0,.536-.712.845.845,0,0,0-.409-.813,2.553,2.553,0,0,0-1.2-.224,1.563,1.563,0,0,0-1.257.439,1.827,1.827,0,0,0-.352.879H15.82A3.676,3.676,0,0,1,16.523-8.543Zm1.863,6.732a1.309,1.309,0,0,0,.861.29A2.551,2.551,0,0,0,20.738-2a2.024,2.024,0,0,0,.708-1.731v-.932a2.722,2.722,0,0,1-.479.242,4.006,4.006,0,0,1-.664.171l-.562.105a3.632,3.632,0,0,0-1.134.343,1.149,1.149,0,0,0-.58,1.063A1.1,1.1,0,0,0,18.387-1.811Zm12.173.026V.088L29.373.132a3.184,3.184,0,0,1-2.426-.615,1.832,1.832,0,0,1-.422-1.327v-5.9H25.189V-9.492h1.336v-2.672H29v2.672H30.56v1.784H29v5.063a1.14,1.14,0,0,0,.149.734,1.645,1.645,0,0,0,.914.145q.114,0,.242,0T30.56-1.784Zm6.425-5.484a2.078,2.078,0,0,0-2.03.984,3.829,3.829,0,0,0-.29,1.705V0H32.142V-9.58h2.391v1.67a5.3,5.3,0,0,1,1.011-1.31,2.752,2.752,0,0,1,1.828-.589q.07,0,.119,0l.215.013v2.566q-.237-.026-.422-.035T36.984-7.269ZM41.748-9.58V0h-2.54V-9.58Zm0-3.454v2.312h-2.54v-2.312ZM52.462-6.144H49.9a2.223,2.223,0,0,0-.36-.967,1.511,1.511,0,0,0-1.31-.58,1.725,1.725,0,0,0-1.731,1.257,5.255,5.255,0,0,0-.246,1.775,4.832,4.832,0,0,0,.246,1.7,1.671,1.671,0,0,0,1.688,1.2,1.488,1.488,0,0,0,1.248-.475,2.362,2.362,0,0,0,.448-1.23h2.558a4.191,4.191,0,0,1-.826,2.162A4.016,4.016,0,0,1,48.12.334a4.082,4.082,0,0,1-3.4-1.371,5.548,5.548,0,0,1-1.09-3.56,5.63,5.63,0,0,1,1.2-3.841,4.191,4.191,0,0,1,3.322-1.371A5,5,0,0,1,51.1-9,3.761,3.761,0,0,1,52.462-6.144Zm7.866,4.79q-.035.044-.176.264a1.764,1.764,0,0,1-.334.387A3.488,3.488,0,0,1,58.68.018a3.879,3.879,0,0,1-1.288.193,2.87,2.87,0,0,1-2.865-1.529,5.852,5.852,0,0,1-.413-2.487V-9.58h2.566v5.774a3.023,3.023,0,0,0,.193,1.23,1.338,1.338,0,0,0,1.345.729,1.758,1.758,0,0,0,1.758-1.037,3.754,3.754,0,0,0,.246-1.485V-9.58h2.54V0H60.328Zm4.9-11.6h2.5V0h-2.5Zm5.309,4.412a4.09,4.09,0,0,1,3.41-1.266,6.059,6.059,0,0,1,2.795.624,2.4,2.4,0,0,1,1.222,2.355v4.395q0,.457.018,1.107a1.392,1.392,0,0,0,.149.668.9.9,0,0,0,.369.29V0H75.779a2.79,2.79,0,0,1-.158-.545q-.044-.255-.07-.58a5.146,5.146,0,0,1-1.2.958A3.6,3.6,0,0,1,72.527.3a3.143,3.143,0,0,1-2.149-.743,2.649,2.649,0,0,1-.848-2.1,2.732,2.732,0,0,1,1.362-2.558,6.049,6.049,0,0,1,2.2-.615l.853-.105a3.91,3.91,0,0,0,.993-.22.753.753,0,0,0,.536-.712.845.845,0,0,0-.409-.813,2.553,2.553,0,0,0-1.2-.224,1.563,1.563,0,0,0-1.257.439,1.827,1.827,0,0,0-.352.879H69.838A3.676,3.676,0,0,1,70.541-8.543ZM72.4-1.811a1.309,1.309,0,0,0,.861.29A2.551,2.551,0,0,0,74.755-2a2.024,2.024,0,0,0,.708-1.731v-.932a2.722,2.722,0,0,1-.479.242,4.006,4.006,0,0,1-.664.171l-.562.105a3.632,3.632,0,0,0-1.134.343,1.149,1.149,0,0,0-.58,1.063A1.1,1.1,0,0,0,72.4-1.811Z" transform="translate(759 4176)" fill="#fff"/>
      <path id="Trazado_1219432" data-name="Trazado 1219432" d="M.809-3.85V-5.326H4.641V-9.185h1.5v3.858H9.976V-3.85H6.144V0h-1.5V-3.85Zm11.261-7a2.821,2.821,0,0,1,.343-1.441,2.423,2.423,0,0,1,2.136-.809q.149,0,.308.009t.36.026v1.441q-.246-.018-.356-.022t-.207,0q-.721,0-.861.374a7.385,7.385,0,0,0-.141,1.9h1.564v1.248H13.634V0H12.069V-8.121H10.76V-9.369h1.31Zm4.607,1.477h1.608V0H16.676Zm0-3.542h1.608v1.793H16.676ZM24.6-9.624a4.294,4.294,0,0,1,1.942.47,3.582,3.582,0,0,1,1.433,1.217,4.2,4.2,0,0,1,.633,1.661A10.868,10.868,0,0,1,28.746-4.2h-6.9a4.026,4.026,0,0,0,.677,2.3,2.266,2.266,0,0,0,1.96.866,2.534,2.534,0,0,0,1.978-.817,2.755,2.755,0,0,0,.6-1.1h1.556A3.276,3.276,0,0,1,28.205-1.8a4.111,4.111,0,0,1-.778,1.042,3.687,3.687,0,0,1-1.784.949,5.42,5.42,0,0,1-1.292.141A3.964,3.964,0,0,1,21.372-.945,4.976,4.976,0,0,1,20.15-4.526a5.41,5.41,0,0,1,1.23-3.683A4.059,4.059,0,0,1,24.6-9.624ZM27.12-5.458A4.1,4.1,0,0,0,26.671-7.1,2.3,2.3,0,0,0,24.5-8.244a2.406,2.406,0,0,0-1.828.787,2.972,2.972,0,0,0-.782,2Zm3.614-7.453h1.582V0H30.734ZM35.693-4.6a4.666,4.666,0,0,0,.642,2.531,2.248,2.248,0,0,0,2.057,1.02A2.166,2.166,0,0,0,40.2-1.991,4.462,4.462,0,0,0,40.9-4.7a4.009,4.009,0,0,0-.729-2.641,2.276,2.276,0,0,0-1.8-.857,2.378,2.378,0,0,0-1.938.914A4.186,4.186,0,0,0,35.693-4.6ZM38.074-9.58a3.349,3.349,0,0,1,1.811.457,4.253,4.253,0,0,1,.958.923v-4.755h1.521V0H40.94V-1.31A3.423,3.423,0,0,1,39.63-.053,3.748,3.748,0,0,1,37.9.334,3.506,3.506,0,0,1,35.174-.989a5.172,5.172,0,0,1-1.151-3.52,6.076,6.076,0,0,1,1.05-3.564A3.439,3.439,0,0,1,38.074-9.58Zm7.464.29h1.837v1.916H45.538Zm0,7.374h1.837V0H45.538Zm9.487-10.125h1.6v2.628h1.5v1.292h-1.5v6.144a.665.665,0,0,0,.334.659,1.42,1.42,0,0,0,.615.1q.114,0,.246,0t.308-.022V0a3.532,3.532,0,0,1-.567.114,5.39,5.39,0,0,1-.637.035,1.717,1.717,0,0,1-1.5-.567,2.519,2.519,0,0,1-.4-1.472V-8.121H53.751V-9.413h1.274ZM65.591-9.413H67.34q-.334.905-1.485,4.131-.861,2.426-1.441,3.955A26.739,26.739,0,0,1,62.48,3.067a2.21,2.21,0,0,1-1.934.791,3.794,3.794,0,0,1-.514-.026,4.062,4.062,0,0,1-.444-.1V2.294a5.458,5.458,0,0,0,.6.141,2.333,2.333,0,0,0,.325.026,1.139,1.139,0,0,0,.646-.145A1.338,1.338,0,0,0,61.5,1.96q.044-.07.316-.721t.4-.967l-3.48-9.686h1.793l2.522,7.664Zm7.095,8.35a2.257,2.257,0,0,0,1.841-.927,4.413,4.413,0,0,0,.734-2.773A5.176,5.176,0,0,0,74.936-6.7a2.244,2.244,0,0,0-2.25-1.556,2.244,2.244,0,0,0-2.25,1.644,6.514,6.514,0,0,0-.325,2.232,4.732,4.732,0,0,0,.325,1.854A2.243,2.243,0,0,0,72.686-1.063Zm-4.1-8.306h1.538v1.248a3.84,3.84,0,0,1,1.037-.993,3.338,3.338,0,0,1,1.881-.527,3.537,3.537,0,0,1,2.716,1.226,5.023,5.023,0,0,1,1.116,3.5q0,3.076-1.608,4.395A3.634,3.634,0,0,1,72.9.316a3.221,3.221,0,0,1-1.784-.466,4.111,4.111,0,0,1-.94-.905V3.753H68.59Zm14.056-.255a4.294,4.294,0,0,1,1.942.47,3.582,3.582,0,0,1,1.433,1.217,4.2,4.2,0,0,1,.633,1.661A10.868,10.868,0,0,1,86.794-4.2h-6.9a4.026,4.026,0,0,0,.677,2.3,2.266,2.266,0,0,0,1.96.866,2.534,2.534,0,0,0,1.978-.817,2.755,2.755,0,0,0,.6-1.1h1.556A3.276,3.276,0,0,1,86.254-1.8a4.111,4.111,0,0,1-.778,1.042,3.687,3.687,0,0,1-1.784.949A5.42,5.42,0,0,1,82.4.334,3.964,3.964,0,0,1,79.42-.945,4.976,4.976,0,0,1,78.2-4.526a5.41,5.41,0,0,1,1.23-3.683A4.059,4.059,0,0,1,82.646-9.624Zm2.522,4.166A4.1,4.1,0,0,0,84.72-7.1a2.3,2.3,0,0,0-2.171-1.143,2.406,2.406,0,0,0-1.828.787,2.972,2.972,0,0,0-.782,2Z" transform="translate(708 4229)" fill="#212429"/>
      <path id="Trazado_1219433" data-name="Trazado 1219433" d="M.809-3.85V-5.326H4.641V-9.185h1.5v3.858H9.976V-3.85H6.144V0h-1.5V-3.85ZM16.676-9.413h1.564v1.336a5.258,5.258,0,0,1,1.02-1.011,3.066,3.066,0,0,1,1.775-.536,2.794,2.794,0,0,1,1.811.554,2.894,2.894,0,0,1,.7.932,3.419,3.419,0,0,1,1.239-1.121,3.457,3.457,0,0,1,1.6-.365,2.616,2.616,0,0,1,2.584,1.371,4.482,4.482,0,0,1,.369,1.986V0H27.7V-6.539a1.523,1.523,0,0,0-.47-1.292,1.861,1.861,0,0,0-1.147-.352,2.277,2.277,0,0,0-1.6.624A2.74,2.74,0,0,0,23.8-5.476V0H22.2V-6.144a3.192,3.192,0,0,0-.229-1.4A1.394,1.394,0,0,0,20.623-8.2a2.32,2.32,0,0,0-1.63.694,3.4,3.4,0,0,0-.734,2.514V0H16.676Zm18.916-.211a4.294,4.294,0,0,1,1.942.47,3.582,3.582,0,0,1,1.433,1.217A4.2,4.2,0,0,1,39.6-6.275,10.868,10.868,0,0,1,39.741-4.2h-6.9a4.026,4.026,0,0,0,.677,2.3,2.266,2.266,0,0,0,1.96.866,2.534,2.534,0,0,0,1.978-.817,2.755,2.755,0,0,0,.6-1.1h1.556A3.276,3.276,0,0,1,39.2-1.8a4.111,4.111,0,0,1-.778,1.042,3.687,3.687,0,0,1-1.784.949,5.42,5.42,0,0,1-1.292.141A3.964,3.964,0,0,1,32.367-.945a4.976,4.976,0,0,1-1.222-3.582,5.41,5.41,0,0,1,1.23-3.683A4.059,4.059,0,0,1,35.592-9.624Zm2.522,4.166A4.1,4.1,0,0,0,37.667-7.1,2.3,2.3,0,0,0,35.5-8.244a2.406,2.406,0,0,0-1.828.787,2.972,2.972,0,0,0-.782,2ZM42-12.041h1.6v2.628h1.5v1.292H43.6v6.144a.665.665,0,0,0,.334.659,1.42,1.42,0,0,0,.615.1q.114,0,.246,0t.308-.022V0a3.532,3.532,0,0,1-.567.114A5.39,5.39,0,0,1,43.9.149a1.717,1.717,0,0,1-1.5-.567A2.519,2.519,0,0,1,42-1.89V-8.121H40.727V-9.413H42Zm4.686-.914H48.27v4.816a4.568,4.568,0,0,1,1.011-1,3.41,3.41,0,0,1,1.907-.5,2.821,2.821,0,0,1,2.777,1.433,4.885,4.885,0,0,1,.4,2.171V0H52.735V-5.933a3.318,3.318,0,0,0-.264-1.521,1.685,1.685,0,0,0-1.617-.773,2.694,2.694,0,0,0-1.784.677,3.254,3.254,0,0,0-.8,2.558V0H46.688ZM60.436-1.02A2.182,2.182,0,0,0,62.593-2.21a5.933,5.933,0,0,0,.584-2.65A4.718,4.718,0,0,0,62.756-7a2.373,2.373,0,0,0-2.3-1.3A2.271,2.271,0,0,0,58.344-7.2a5.133,5.133,0,0,0-.659,2.672,4.465,4.465,0,0,0,.659,2.5A2.322,2.322,0,0,0,60.436-1.02ZM60.5-9.686a4.262,4.262,0,0,1,3.076,1.213A4.736,4.736,0,0,1,64.83-4.9a6.122,6.122,0,0,1-1.107,3.762A4.006,4.006,0,0,1,60.286.343,3.88,3.88,0,0,1,57.2-.971,5.19,5.19,0,0,1,56.059-4.5a5.615,5.615,0,0,1,1.2-3.779A4.041,4.041,0,0,1,60.5-9.686ZM67.715-4.6a4.666,4.666,0,0,0,.642,2.531,2.248,2.248,0,0,0,2.057,1.02,2.166,2.166,0,0,0,1.806-.945A4.462,4.462,0,0,0,72.927-4.7,4.009,4.009,0,0,0,72.2-7.343,2.276,2.276,0,0,0,70.4-8.2a2.378,2.378,0,0,0-1.938.914A4.186,4.186,0,0,0,67.715-4.6ZM70.1-9.58a3.349,3.349,0,0,1,1.811.457,4.253,4.253,0,0,1,.958.923v-4.755h1.521V0H72.962V-1.31a3.423,3.423,0,0,1-1.31,1.257,3.748,3.748,0,0,1-1.731.387A3.506,3.506,0,0,1,67.2-.989a5.172,5.172,0,0,1-1.151-3.52A6.076,6.076,0,0,1,67.1-8.073,3.439,3.439,0,0,1,70.1-9.58Zm10.795-3.542A30.689,30.689,0,0,0,79.1-9.176a14.427,14.427,0,0,0-.624,4.447A14.5,14.5,0,0,0,79.186-.07a28.13,28.13,0,0,0,1.731,3.744H79.854q-1.283-2-1.591-2.558a11.88,11.88,0,0,1-.668-1.5,12.353,12.353,0,0,1-.686-2.777,11.646,11.646,0,0,1-.1-1.459,12.322,12.322,0,0,1,.817-4.632,26.659,26.659,0,0,1,2.162-3.867Zm2.146,1.081h1.6v2.628h1.5v1.292h-1.5v6.144a.665.665,0,0,0,.334.659,1.42,1.42,0,0,0,.615.1q.114,0,.246,0t.308-.022V0a3.532,3.532,0,0,1-.567.114,5.39,5.39,0,0,1-.637.035,1.717,1.717,0,0,1-1.5-.567,2.519,2.519,0,0,1-.4-1.472V-8.121H81.763V-9.413h1.274ZM93.6-9.413h1.749q-.334.905-1.485,4.131-.861,2.426-1.441,3.955a26.739,26.739,0,0,1-1.934,4.395,2.21,2.21,0,0,1-1.934.791,3.794,3.794,0,0,1-.514-.026,4.062,4.062,0,0,1-.444-.1V2.294a5.458,5.458,0,0,0,.6.141,2.333,2.333,0,0,0,.325.026,1.139,1.139,0,0,0,.646-.145,1.338,1.338,0,0,0,.347-.356q.044-.07.316-.721t.4-.967l-3.48-9.686h1.793l2.522,7.664Zm7.095,8.35a2.257,2.257,0,0,0,1.841-.927,4.413,4.413,0,0,0,.734-2.773,5.176,5.176,0,0,0-.325-1.934,2.244,2.244,0,0,0-2.25-1.556,2.244,2.244,0,0,0-2.25,1.644,6.514,6.514,0,0,0-.325,2.232,4.732,4.732,0,0,0,.325,1.854A2.243,2.243,0,0,0,100.7-1.063ZM96.6-9.369h1.538v1.248a3.84,3.84,0,0,1,1.037-.993,3.338,3.338,0,0,1,1.881-.527,3.537,3.537,0,0,1,2.716,1.226,5.023,5.023,0,0,1,1.116,3.5q0,3.076-1.608,4.395a3.634,3.634,0,0,1-2.373.835,3.221,3.221,0,0,1-1.784-.466,4.111,4.111,0,0,1-.94-.905V3.753H96.6Zm14.056-.255a4.294,4.294,0,0,1,1.942.47,3.582,3.582,0,0,1,1.433,1.217,4.2,4.2,0,0,1,.633,1.661,10.868,10.868,0,0,1,.141,2.074h-6.9a4.026,4.026,0,0,0,.677,2.3,2.266,2.266,0,0,0,1.96.866,2.534,2.534,0,0,0,1.978-.817,2.755,2.755,0,0,0,.6-1.1h1.556a3.276,3.276,0,0,1-.409,1.156,4.111,4.111,0,0,1-.778,1.042A3.687,3.687,0,0,1,111.7.193a5.42,5.42,0,0,1-1.292.141,3.964,3.964,0,0,1-2.979-1.279,4.976,4.976,0,0,1-1.222-3.582,5.41,5.41,0,0,1,1.23-3.683A4.059,4.059,0,0,1,110.658-9.624Zm2.522,4.166a4.1,4.1,0,0,0-.448-1.644,2.3,2.3,0,0,0-2.171-1.143,2.406,2.406,0,0,0-1.828.787,2.972,2.972,0,0,0-.782,2Zm3.034,9.132a31.028,31.028,0,0,0,1.8-3.973,14.342,14.342,0,0,0,.615-4.43,14.467,14.467,0,0,0-.712-4.649,28.13,28.13,0,0,0-1.731-3.744h1.063q1.354,2.162,1.639,2.667a10.312,10.312,0,0,1,.62,1.393,11.259,11.259,0,0,1,.6,2.171,12.466,12.466,0,0,1,.18,2.065,12.273,12.273,0,0,1-.826,4.641,25.487,25.487,0,0,1-2.153,3.858ZM123.582-9.29h1.837v1.916h-1.837Zm0,7.374h1.837V0h-1.837Zm9.487-10.125h1.6v2.628h1.5v1.292h-1.5v6.144a.665.665,0,0,0,.334.659,1.42,1.42,0,0,0,.615.1q.114,0,.246,0t.308-.022V0a3.532,3.532,0,0,1-.567.114,5.39,5.39,0,0,1-.637.035,1.717,1.717,0,0,1-1.5-.567,2.519,2.519,0,0,1-.4-1.472V-8.121h-1.274V-9.413h1.274Zm10.566,2.628h1.749q-.334.905-1.485,4.131-.861,2.426-1.441,3.955a26.739,26.739,0,0,1-1.934,4.395,2.21,2.21,0,0,1-1.934.791,3.794,3.794,0,0,1-.514-.026,4.062,4.062,0,0,1-.444-.1V2.294a5.458,5.458,0,0,0,.6.141,2.333,2.333,0,0,0,.325.026,1.139,1.139,0,0,0,.646-.145,1.338,1.338,0,0,0,.347-.356q.044-.07.316-.721t.4-.967l-3.48-9.686h1.793L141.1-1.749Zm7.095,8.35a2.257,2.257,0,0,0,1.841-.927,4.413,4.413,0,0,0,.734-2.773A5.176,5.176,0,0,0,152.98-6.7a2.244,2.244,0,0,0-2.25-1.556,2.244,2.244,0,0,0-2.25,1.644,6.514,6.514,0,0,0-.325,2.232,4.732,4.732,0,0,0,.325,1.854A2.243,2.243,0,0,0,150.73-1.063Zm-4.1-8.306h1.538v1.248a3.84,3.84,0,0,1,1.037-.993,3.338,3.338,0,0,1,1.881-.527,3.537,3.537,0,0,1,2.716,1.226,5.023,5.023,0,0,1,1.116,3.5q0,3.076-1.608,4.395a3.634,3.634,0,0,1-2.373.835,3.221,3.221,0,0,1-1.784-.466,4.111,4.111,0,0,1-.94-.905V3.753h-1.582Zm14.056-.255a4.294,4.294,0,0,1,1.942.47,3.582,3.582,0,0,1,1.433,1.217,4.2,4.2,0,0,1,.633,1.661,10.868,10.868,0,0,1,.141,2.074h-6.9a4.026,4.026,0,0,0,.677,2.3,2.266,2.266,0,0,0,1.96.866,2.534,2.534,0,0,0,1.978-.817,2.755,2.755,0,0,0,.6-1.1h1.556A3.276,3.276,0,0,1,164.3-1.8a4.111,4.111,0,0,1-.778,1.042,3.687,3.687,0,0,1-1.784.949,5.42,5.42,0,0,1-1.292.141,3.964,3.964,0,0,1-2.979-1.279,4.976,4.976,0,0,1-1.222-3.582,5.41,5.41,0,0,1,1.23-3.683A4.059,4.059,0,0,1,160.689-9.624Zm2.522,4.166a4.1,4.1,0,0,0-.448-1.644,2.3,2.3,0,0,0-2.171-1.143,2.406,2.406,0,0,0-1.828.787,2.972,2.972,0,0,0-.782,2Z" transform="translate(708 4270)" fill="#212429"/>
      <rect id="Rectángulo_422481" data-name="Rectángulo 422481" width="21" height="13" rx="2" transform="translate(702 4153)" fill="#e4e4e4"/>
      <path id="Trazado_1217648" data-name="Trazado 1217648" d="M5641.09,3892.5h8.27" transform="translate(-4933 267)" fill="none" stroke="#0b0a0a" stroke-width="1"/>
      <path id="Trazado_1219436" data-name="Trazado 1219436" d="M3.955-12.911v1.96l1.916-.668.352.976-1.916.624L5.493-8.367l-.87.624L3.472-9.457,2.312-7.743l-.9-.624,1.2-1.652L.686-10.644l.352-.976,1.9.686v-1.978Z" transform="translate(736 4094)" fill="#212429"/>
      <path id="Trazado_1219437" data-name="Trazado 1219437" d="M3.955-12.911v1.96l1.916-.668.352.976-1.916.624L5.493-8.367l-.87.624L3.472-9.457,2.312-7.743l-.9-.624,1.2-1.652L.686-10.644l.352-.976,1.9.686v-1.978Z" transform="translate(876 4094)" fill="#212429"/>
      <path id="Trazado_1219434" data-name="Trazado 1219434" d="M6.812,0H4.245V-8.789h-3v-1.705a11.1,11.1,0,0,0,1.661-.158,2.343,2.343,0,0,0,1.23-.668,2.2,2.2,0,0,0,.492-.914,2.1,2.1,0,0,0,.1-.51H6.812Z" transform="translate(689 4017)" fill="#212429"/>
      <path id="Trazado_1219435" data-name="Trazado 1219435" d="M6.812,0H4.245V-8.789h-3v-1.705a11.1,11.1,0,0,0,1.661-.158,2.343,2.343,0,0,0,1.23-.668,2.2,2.2,0,0,0,.492-.914,2.1,2.1,0,0,0,.1-.51H6.812Z" transform="translate(925 4017)" fill="#212429"/>
      <path id="Trazado_1217649" data-name="Trazado 1217649" d="M6071,4006.012l94.435,134.656" transform="translate(-5408)" fill="none" stroke="#5c2c88" stroke-linecap="round" stroke-width="2"/>
      <path id="Trazado_1217650" data-name="Trazado 1217650" d="M6165.436,4006.012,6071,4140.667" transform="translate(-5212.436)" fill="none" stroke="#5c2c88" stroke-linecap="round" stroke-width="2"/>
    </g>
  </g>
</svg>
